<?xml version="1.0" encoding="utf-8"?>
<!-- Generator: Adobe Illustrator 25.1.0, SVG Export Plug-In . SVG Version: 6.00 Build 0)  -->
<svg version="1.1" xmlns="http://www.w3.org/2000/svg" xmlns:xlink="http://www.w3.org/1999/xlink" viewBox="0 0 1920 360">
<style type="text/css">
	.st0{display:none;}
	.st1{display:inline;fill:#19935C;}
	.st2{fill:#FFFFFF;}
</style>
<g id="BG_x28_使用時Off_x29_" class="st0">
	<rect class="st1" width="1920" height="1080"/>
</g>
<g id="Logo01_x5F_White" transform="translate(0 -360)">
	<g>
		<g>
			<path class="st2" d="M615.9,600.1V453h27.2v147.1H615.9z"/>
			<path class="st2" d="M731.6,605c-25.2,0-61.1-6.9-63.3-49h27.2c1.2,23.6,22.8,26.2,33.7,26.2c6.9,0,36.1-0.8,36.1-21.6
				c0-10.7-6.4-14.7-19.7-17.7L710,535c-18.9-4.2-39.5-14.9-39.5-42.9c0-31.6,30.4-43.9,59.2-43.9c12.3,0,30.8,2.2,44.3,14.5
				c8.5,7.7,11.7,14.7,14.5,31.8h-27.2c-1-22.2-24.6-23.4-32-23.4c-4.8,0-32.2,0.4-32.2,19.5c0,8.5,5,15.1,20.8,18.5l38.3,8.5
				c11.3,2.4,36.9,11.1,36.9,39.9C793.1,584.6,770.5,605,731.6,605z"/>
			<path class="st2" d="M876.7,605c-39.5,0-61.3-23-61.3-62.9V453h27.2v92.3c0,25.4,14.3,35.1,33.3,35.1c22.2,0,33.9-12.3,33.9-35.1
				V453H937v89.1C937,588.6,908.3,605,876.7,605z"/>
			<path class="st2" d="M1032.1,605c-48.8,0-70.3-36.7-70.3-77c0-38.9,20-79.8,72.3-79.8c41.9,0,60.1,27.8,62.5,51.2h-28.8
				c-5.6-27.2-29-27.2-33-27.2c-23,0-44.1,18.5-44.1,55.4c0,34.5,18.5,53.6,41.1,53.6c9.7,0,19.3-3.6,26.8-10.9
				c6.7-6.4,8.1-11.5,9.3-19.7h28.8C1093.9,575.1,1075.2,605,1032.1,605z"/>
			<path class="st2" d="M1218.5,600.1v-66.9h-67.1v66.9h-27.2V453h27.2v57.2h67.1V453h27.2v147.1H1218.5z"/>
			<path class="st2" d="M1343.4,605c-43.5,0-73.6-31-73.6-78.4c0-47.6,30.2-78.4,73.6-78.4c43.3,0,73.8,30.8,73.8,78.4
				C1417.2,573.9,1386.9,605,1343.4,605z M1343.4,472.8c-25.2,0-44.9,18.9-44.9,53.8c0,34.7,19.5,54,44.9,54
				c26.6,0,45.1-20.6,45.1-54C1388.5,493.1,1369.8,472.8,1343.4,472.8z"/>
			<path class="st2" d="M1439.9,600.1V453h27.2v124.1h81.6v23H1439.9z"/>
			<path class="st2" d="M1680.9,600.1l-10.9-31.6h-61.9l-10.9,31.6h-30l56.4-147.1h30.8l56.4,147.1H1680.9z M1642.5,489.1l-3.2-12.9
				l-3.4,12.9l-19.5,56.6h45.9L1642.5,489.1z"/>
			<path class="st2" d="M1818.8,600.1c-3-2.8-4.8-5-4.8-15.7v-17.7c0-10.5-3.2-24.2-18.9-24.2h-37.7v57.6h-27.2V453h69.3
				c27.4,0,45.3,16.9,45.3,39.9c0,9.7-3.2,18.5-9.1,25.2c-5.6,6.4-10.5,9.1-23,11.9c14.3,2,28.2,6.2,28.2,33.9v14.9
				c0,14.7,5.4,18.5,9.5,21.4H1818.8z M1795.8,476h-38.5v43.5h34.1c15.1,0,24.4-7.9,24.4-23C1815.8,483.2,1807.9,476,1795.8,476z"/>
		</g>
		<g id="Leaf_6_">
			<path class="st2" d="M263.7,689.8l-2.2,16.8l17.8-3.4c7-1.3,13.5-8.4,14.5-15.9l2.2-16.8l-17.8,3.4
				C271.2,675.2,264.7,682.3,263.7,689.8z"/>
			<path class="st2" d="M246.3,664.9c-7-1.4-15.6,2.8-19.3,9.3l-8.3,14.8l17.8,3.5c7,1.4,15.6-2.8,19.3-9.3l8.3-14.8L246.3,664.9z"
				/>
			<path class="st2" d="M222.1,664.3l10.6-13.3l-11.5-4.2c-8.9,1.6-17.6,3-26.1,4.2l-10.5,13.2l17,6.2
				C208.3,673,217.5,670.2,222.1,664.3z"/>
			<path class="st2" d="M156.6,608.5c0.9,0.1,1.8,0.3,2.7,0.4c-0.6-8.4-1.1-17.4-1.7-26.4c-1.3,0.2-2.6,0.5-3.9,0.9l-15.9,6l11.4,14
				C151.1,605.7,153.7,607.4,156.6,608.5z"/>
			<path class="st2" d="M143.1,545.5l-8,1.8c-2.1,2.3-3.9,4.5-5.6,6.8l6.4,10.7c3.7,6.1,12.6,9.7,19.9,8l1.1-0.2
				c-0.6-8.9-1.1-17.6-1.6-25.5C151.5,545.3,147.1,544.6,143.1,545.5z"/>
			<path class="st2" d="M133.4,504.6l-6.3-0.6l0.9,3.9C129.8,506.9,131.6,505.8,133.4,504.6z"/>
			<path class="st2" d="M154.2,529.5c-2.4,2-4.8,3.9-7,5.9c0.1,0,0.3,0,0.4,0l7,0.6C154.5,533.8,154.4,531.6,154.2,529.5z"/>
			<path class="st2" d="M148.2,496c2.7-1.5,5.5-3.1,8.3-4.6c-2.2-2.1-2.8-4.3-2.8-6.1c0-3.1,1.8-7.4,10.1-10.2
				c-2.5-3.7-6.4-6.7-10.6-7.8l-16.3-4.5l0.9,18.1C138,486.8,142.5,493,148.2,496z"/>
			<path class="st2" d="M163.7,461.5l12.5,9.7l1.2-0.4l5.7-16c2.4-6.7-0.5-15.9-6.4-20.5l-13.4-10.4l-6,17.1
				C154.9,447.7,157.8,456.9,163.7,461.5z"/>
			<path class="st2" d="M198.8,444.3l9.2-15.6c3.6-6.1,2.5-15.7-2.4-21.3l-11.2-12.8l-9.2,15.6c-3.6,6.1-2.5,15.7,2.4,21.3
				L198.8,444.3z"/>
			<path class="st2" d="M226.6,422.5l11.8-13.8c4.6-5.4,5.2-15,1.4-21.4l-8.8-14.5l-11.8,13.8c-4.6,5.4-5.2,15-1.4,21.4L226.6,422.5
				z"/>
			<path class="st2" d="M332.5,674.2l-16.7-3l2.6,17.9c1,7,7.8,13.8,15.2,15.1l16.7,3l-2.6-17.9
				C346.7,682.3,339.9,675.5,332.5,674.2z"/>
			<path class="st2" d="M364.6,665.6L348,669l9.1,15.7c3.6,6.2,12.4,9.9,19.8,8.4l16.6-3.5l-9.1-15.7
				C380.8,667.8,371.9,664,364.6,665.6z"/>
			<path class="st2" d="M395.3,645.6l-15.9,6l11.4,14c4.5,5.5,13.8,7.8,20.8,5.2l15.9-6l-11.4-14
				C411.6,645.2,402.3,642.9,395.3,645.6z"/>
			<path class="st2" d="M418.7,619.7l-13.6,10.1l14.8,10.4c5.8,4.1,15.4,3.8,21.5-0.7l13.6-10.1L440.2,619
				C434.4,614.9,424.7,615.2,418.7,619.7z"/>
			<path class="st2" d="M436.9,589.6l-10.6,13.3l17,6.2c6.7,2.4,15.9-0.3,20.6-6.2l10.6-13.3l-17-6.2
				C450.8,581,441.5,583.7,436.9,589.6z"/>
			<path class="st2" d="M477.2,554.2c-9.8,5.6-20,11.1-30.5,16.4l11,2.4c7,1.5,15.7-2.5,19.5-9l8.6-14.6l-0.3-0.1
				C482.8,551,480,552.6,477.2,554.2z"/>
			<path class="st2" d="M451.5,520.4l-0.3,1.4c7.6-5.5,14.4-11,20.3-16.4l-4.2,0.4C460.2,506.6,453.1,513.1,451.5,520.4z"/>
			<path class="st2" d="M475.5,462.5l-17.4,5c-3,0.9-5.8,2.9-8.1,5.5l5.6,1.7c9,2.8,10.9,7.2,10.9,10.5c0,3.2-1.9,7.7-10.9,10.5
				l-11,3.4l-0.1,2.6l17.4-5c6.8-2,12.6-9.7,12.9-17.2L475.5,462.5z"/>
			<path class="st2" d="M452.7,433.9c-4.9-0.6-10-0.9-15.5-1.1l-2.5,2c-5.6,4.4-8,13.7-5.4,20.8l4.6,12.5l4,1.2l11.4-9.1
				c5.6-4.4,8-13.7,5.4-20.8L452.7,433.9z"/>
			<path class="st2" d="M407.3,433.8l6,10l9.4-10.9C417.7,433,412.6,433.4,407.3,433.8z"/>
			<path class="st2" d="M417.7,394.1l-7.8,9.1c4.1-0.7,8.1-1.3,12.1-1.9L417.7,394.1z"/>
			<path class="st2" d="M375.1,410.1c6.7-1.5,13.2-2.8,19.7-4.1c3.4-6.1,2.3-15.5-2.6-21l-11.2-12.8l-9.2,15.6
				c-3.6,6.1-2.5,15.7,2.4,21.3L375.1,410.1z"/>
		</g>
		<g id="Main_6_">
			<path class="st2" d="M293,534.8l-95.1-29.4v71.1l0,0c23,11.5,47.2,19.3,71.9,23.4c27.3-6.2,56.3-15.1,85.3-26.5
				c26.7-10.5,50.6-22.1,71-34.1v-33.8L331,534.8c-5.3,1.6-12.2,2.5-19,2.5C305.1,537.3,298.3,536.5,293,534.8z"/>
			<path class="st2" d="M162.7,631.6c-0.1-1.6-0.2-3.2-0.3-5c0-0.2,0-0.4,0-0.6c-32.5-0.3-56.8-6.7-68-19.4
				c-17-19.4,0.2-49.4,40.7-80.3c6.2-4.7,12.9-9.4,20.1-14.1c0-0.5,0-0.9,0-1.1c0-0.6,0-1.2,0.1-1.8c0-0.5,0.1-0.9,0.2-1.4
				c-0.4,0.2-0.8,0.5-1.2,0.7c-7.4,4.6-14.4,9.1-20.9,13.7c-52.8,36.9-76.7,73.7-56.5,96.8c13.7,15.6,45.3,22.5,87.2,21.2
				c-0.5-1.3-0.9-2.7-1-4.2C162.9,634.7,162.8,633.2,162.7,631.6z"/>
			<path class="st2" d="M550.1,432.4c-17-19.5-61.9-25.3-119.8-18.9c-8.5,0.9-17.3,2.2-26.3,3.6c-5.1,0.8-10.3,1.7-15.5,2.7
				c-0.8,0.2-1.7,0.3-2.5,0.5c-19,3.7-38.8,8.5-59,14.3c1.4,0.3,2.8,0.6,4.1,1l0.9,0.3c25.2-6.8,49.5-11.8,72-15
				c9.3-1.3,18.3-2.3,26.9-2.9c45.6-3.4,80.5,2.5,94.5,18.5c17,19.5-0.4,49.7-41.3,80.7c-8.3,6.3-17.5,12.6-27.7,18.9
				c-9.4,5.8-19.5,11.6-30.4,17.3c-19.1,10-40.2,19.7-63.1,28.7c-20.3,8-40.7,15-60.6,20.9c-35.8,10.5-70.3,17.6-100.7,20.8
				c-3.8,0.4-7.5,0.8-11.2,1c-0.3,4.4-0.5,8.1-0.7,11.1c-0.1,0.9-0.2,1.7-0.4,2.6c2.6-0.2,5.3-0.5,7.9-0.8
				c45.5-5.1,99-17.8,153.2-37.4c7.1-2.6,14.3-5.3,21.4-8.1c19.3-7.6,37.5-15.6,54.3-24c8-4,15.8-8,23.2-12
				c6.7-3.6,13.1-7.3,19.2-11C538.5,503.3,573.3,458.9,550.1,432.4z"/>
			<path class="st2" d="M186.8,540.1c0.4-6.9,0.6-13,0.8-17.9c0-1,0.1-1.9,0.1-2.8c0.1-2.2,0.1-4.1,0.1-5.6c0-0.3,0-0.6,0-0.9
				c0-0.1,0-0.2,0-0.3c0-0.2,0-0.4,0-0.6c0-0.1,0-0.2,0-0.3c0-0.2,0-0.3-0.1-0.5c0-0.1,0-0.2,0-0.3c0-0.2,0-0.3-0.1-0.5
				c0-0.1,0-0.2-0.1-0.3c0-0.1-0.1-0.3-0.1-0.4c0-0.1-0.1-0.2-0.1-0.3c0-0.1-0.1-0.3-0.1-0.4c0-0.1-0.1-0.2-0.1-0.3
				c0-0.1-0.1-0.3-0.1-0.4c0-0.1,0-0.1-0.1-0.2c0,0,0,0,0,0c0-0.1,0-0.1-0.1-0.2c0-0.1-0.1-0.3-0.1-0.4c0-0.1-0.1-0.2-0.1-0.3
				c0-0.1-0.1-0.2-0.1-0.4c0-0.1-0.1-0.2-0.1-0.3c-0.1-0.1-0.1-0.2-0.2-0.3c0-0.1-0.1-0.2-0.1-0.3c-0.1-0.1-0.1-0.2-0.2-0.3
				c0-0.1-0.1-0.2-0.2-0.3c-0.1-0.1-0.1-0.2-0.2-0.3c-0.1-0.1-0.1-0.2-0.2-0.2c-0.1-0.1-0.1-0.2-0.2-0.3c-0.1-0.1-0.1-0.2-0.2-0.2
				c-0.1-0.1-0.1-0.2-0.2-0.3c-0.1-0.1-0.1-0.1-0.2-0.2c-0.1-0.1-0.1-0.2-0.2-0.3c-0.1-0.1-0.1-0.1-0.2-0.2
				c-0.1-0.1-0.1-0.2-0.2-0.2c-0.1-0.1-0.1-0.1-0.2-0.2c-0.1-0.1-0.2-0.2-0.2-0.2c-0.1-0.1-0.1-0.1-0.2-0.2
				c-0.1-0.1-0.2-0.1-0.2-0.2c-0.1-0.1-0.1-0.1-0.2-0.2c-0.1-0.1-0.2-0.1-0.3-0.2c-0.1-0.1-0.1-0.1-0.2-0.2
				c-0.1-0.1-0.2-0.1-0.3-0.2c-0.1-0.1-0.2-0.1-0.2-0.1c-0.1-0.1-0.2-0.1-0.3-0.2c-0.1,0-0.2-0.1-0.2-0.1c-0.1,0-0.2-0.1-0.3-0.1
				c-0.1,0-0.2-0.1-0.2-0.1c-0.1,0-0.2-0.1-0.3-0.1c-0.1,0-0.2-0.1-0.2-0.1c-0.1,0-0.2-0.1-0.3-0.1c-0.1,0-0.2-0.1-0.3-0.1
				c-0.1,0-0.2-0.1-0.3-0.1c-0.1,0-0.2-0.1-0.3-0.1c-0.1,0-0.2-0.1-0.3-0.1c-0.1,0-0.2-0.1-0.3-0.1c-0.1,0-0.2-0.1-0.3-0.1
				c-0.1,0-0.2,0-0.3-0.1c-0.1,0-0.2,0-0.3-0.1c-0.1,0-0.2,0-0.3,0c-0.1,0-0.2,0-0.3,0c-0.1,0-0.2,0-0.3,0c-0.1,0-0.2,0-0.3,0
				c-0.1,0-0.2,0-0.3,0c-0.1,0-0.2,0-0.3,0c-0.1,0-0.2,0-0.3,0c-0.1,0-0.2,0-0.3,0c0,0-0.1,0-0.1,0c0,0,0,0,0,0c0,0,0,0,0,0
				c0,0-0.1,0-0.1,0c-0.1,0-0.2,0-0.3,0c-0.1,0-0.2,0-0.3,0c-0.1,0-0.2,0-0.3,0c-0.1,0-0.2,0-0.3,0c-0.1,0-0.2,0-0.3,0
				c-0.1,0-0.2,0-0.3,0c-0.1,0-0.2,0-0.3,0c-0.1,0-0.2,0-0.3,0c-0.1,0-0.2,0-0.3,0.1c-0.1,0-0.2,0-0.3,0.1c-0.1,0-0.2,0-0.3,0.1
				c-0.1,0-0.2,0-0.3,0.1c-0.1,0-0.2,0-0.3,0.1c-0.1,0-0.2,0.1-0.3,0.1c-0.1,0-0.2,0.1-0.2,0.1c-0.1,0-0.2,0.1-0.3,0.1
				c-0.1,0-0.2,0.1-0.2,0.1c-0.1,0-0.2,0.1-0.3,0.1c-0.1,0-0.2,0.1-0.2,0.1c-0.1,0-0.2,0.1-0.3,0.1c-0.1,0-0.2,0.1-0.2,0.1
				c-0.1,0-0.1,0.1-0.2,0.1c0,0-0.1,0-0.1,0c-0.1,0-0.2,0.1-0.2,0.1c-0.1,0-0.2,0.1-0.3,0.2c-0.1,0-0.1,0.1-0.2,0.1c0,0,0,0,0,0
				c-0.1,0-0.1,0.1-0.2,0.1c-0.1,0-0.1,0.1-0.2,0.1c-0.1,0.1-0.2,0.1-0.2,0.2c-0.1,0.1-0.1,0.1-0.2,0.2c-0.1,0.1-0.2,0.1-0.2,0.2
				c-0.1,0.1-0.1,0.1-0.2,0.2c-0.1,0.1-0.1,0.1-0.2,0.2c-0.1,0.1-0.1,0.1-0.2,0.2c-0.1,0.1-0.1,0.1-0.2,0.2
				c-0.1,0.1-0.1,0.1-0.2,0.2c-0.1,0.1-0.1,0.2-0.2,0.2c-0.1,0.1-0.1,0.1-0.2,0.2c-0.1,0.1-0.1,0.2-0.2,0.2
				c-0.1,0.1-0.1,0.1-0.2,0.2c-0.1,0.1-0.1,0.2-0.2,0.3c0,0.1-0.1,0.1-0.1,0.2c-0.1,0.1-0.1,0.2-0.2,0.3c0,0.1-0.1,0.1-0.1,0.2
				c-0.1,0.1-0.1,0.2-0.2,0.3c0,0.1-0.1,0.2-0.1,0.2c0,0.1-0.1,0.2-0.1,0.3c0,0,0,0,0,0c0,0,0,0,0,0c0,0.1-0.1,0.2-0.1,0.2
				c0,0.1-0.1,0.2-0.1,0.3c0,0.1-0.1,0.2-0.1,0.2c0,0.1-0.1,0.2-0.1,0.3c0,0.1-0.1,0.2-0.1,0.2c0,0.1-0.1,0.2-0.1,0.3
				c0,0.1-0.1,0.2-0.1,0.3c0,0.1-0.1,0.2-0.1,0.3c0,0.1,0,0.2-0.1,0.3c0,0.1,0,0.2-0.1,0.4c0,0.1,0,0.2,0,0.3c0,0.1,0,0.3-0.1,0.4
				c0,0.1,0,0.2,0,0.2c0,0.2,0,0.3,0,0.5c0,0.1,0,0.1,0,0.2c0,0.2,0,0.5,0,0.7c0,0.9,0.2,5.3,0.6,11.9c0,0,0,0,0,0
				c0.1,2.3,0.3,4.9,0.5,7.7c0,0.3,0,0.7,0.1,1c0,0.5,0.1,1.1,0.1,1.7c0,0.7,0.1,1.4,0.1,2.1c0,0.4,0.1,0.9,0.1,1.4
				c0.1,1,0.1,2,0.2,3c0,0.4,0,0.7,0.1,1.1c0,0.8,0.1,1.5,0.1,2.3c0.2,2.7,0.3,5.5,0.5,8.4c0.1,0.8,0.1,1.6,0.2,2.5
				c0,0.4,0.1,0.8,0.1,1.3c0,0.3,0,0.6,0.1,0.9c0.1,1,0.1,1.9,0.2,2.9c0.1,1.3,0.2,2.6,0.2,3.8c0,0.4,0.1,0.9,0.1,1.3
				c0.1,1.7,0.2,3.5,0.3,5.2c0,0.3,0,0.7,0.1,1c0,0.1,0,0.2,0,0.3c0.1,1.7,0.2,3.5,0.3,5.2c0.1,2.2,0.3,4.4,0.4,6.5
				c0,0.2,0,0.4,0,0.6c0,0.7,0.1,1.3,0.1,2c0,0.4,0.1,0.9,0.1,1.3c0.1,1.3,0.2,2.6,0.3,3.9c0,0.5,0.1,0.9,0.1,1.4
				c0.1,0.8,0.1,1.6,0.2,2.5c0,0.4,0.1,0.9,0.1,1.3c0.1,1.2,0.2,2.4,0.2,3.6c0,0.1,0,0.1,0,0.2c0.1,0.8,0.1,1.6,0.2,2.4
				c0.1,0.8,0.1,1.6,0.2,2.4c0.1,0.8,0.1,1.6,0.2,2.4c0.1,1,0.1,1.9,0.2,2.8c0,0.2,0,0.4,0,0.6c0,0,0,0,0,0c0.1,1.1,0.1,2.2,0.2,3.3
				c0,0.7,0.1,1.4,0.1,2.1c0,0.7,0.1,1.4,0.1,2.1c0,0.3,0,0.7,0.1,1c0,0.7,0.1,1.3,0.1,2c0,0.1,0,0.2,0,0.2c0.1,0.9,0.1,1.8,0.2,2.6
				c0,0.6,0.1,1.2,0.1,1.8c0,0.4,0,0.7,0.1,1c0,0.2,0,0.5,0,0.7c0,0.3,0,0.6,0.1,0.8c0,0.5,0.1,1.1,0.1,1.6c0.2,2.6,0.3,4.7,0.4,6.4
				c0,0.3,0.1,0.6,0.1,0.9c0.1,0.4,0.2,0.7,0.4,1c0.2,0.3,0.4,0.6,0.6,0.9c0.5,0.5,1.1,0.9,1.7,1.2c0.3,0.1,0.5,0.2,0.8,0.2
				c0.1,0,0.1,0,0.2,0c0.2,0,0.5,0.1,0.7,0.1c0.3,0,0.6,0,0.9-0.1c0.1,0,0.3-0.1,0.4-0.1c0.7-0.2,1.3-0.6,1.8-1
				c0.8-0.8,1.4-1.8,1.4-3c0.2-2.4,0.4-5.8,0.7-9.9h0c0.2-2.9,0.4-6.3,0.6-9.8c0.1-1.7,0.2-3.5,0.3-5.3h0c0-0.6,0.1-1.3,0.1-1.9
				s0.1-1.3,0.1-1.9c0-0.7,0.1-1.5,0.1-2.2c0-0.7,0.1-1.3,0.1-2c0-0.8,0.1-1.5,0.1-2.3c0.1-1,0.1-2,0.2-3c0.1-1.3,0.2-2.6,0.2-3.8
				c0.2-3.8,0.5-7.8,0.7-11.8c0.3-5.6,0.7-11.2,1-16.7c0-0.8,0.1-1.6,0.1-2.4c0.1-1.6,0.2-3.1,0.3-4.7c0-0.8,0.1-1.5,0.1-2.3
				c0.1-1.5,0.2-3.1,0.3-4.5c0.1-2.2,0.2-4.4,0.4-6.6C186.6,542.9,186.7,541.5,186.8,540.1z"/>
			<path class="st2" d="M169.6,484.9c-0.3,0.1-0.5,0.2-0.8,0.3c-0.1,0-0.1,0-0.2,0.1c0.1,0,0.1,0,0.2,0.1c0.2,0.1,0.3,0.1,0.5,0.2
				c0.1,0,0.2,0.1,0.3,0.1l16.2,5l3.8,1.2l8.2,2.5l8.4,2.6l89.8,27.8c8.6,2.7,23.2,2.7,31.8,0l98.2-30.4l20.8-6.4l7.5-2.3
				c0.4-0.1,0.7-0.2,1-0.3c-0.3-0.1-0.6-0.2-1-0.3l-7.1-2.2l-114-35.2l-5.3-1.6c-6.5-2-16.3-2.5-24.5-1.5c-2.7,0.3-5.2,0.8-7.3,1.5
				l-34,10.5l-90.6,28L169.6,484.9z M295.7,470c4.6-2.5,10.9-4.1,17.8-4.1c7.8,0,14.7,2,19.4,5.1c3.9,2.6,6.2,6,6.2,9.6
				c0,8.2-11.5,14.8-25.7,14.8s-25.7-6.6-25.7-14.8C287.8,476.5,290.8,472.7,295.7,470z"/>
		</g>
	</g>
</g>
</svg>
