<?xml version="1.0" encoding="utf-8"?>
<!-- Generator: Adobe Illustrator 25.1.0, SVG Export Plug-In . SVG Version: 6.00 Build 0)  -->
<svg version="1.1" id="Logo02_x5F_Green" xmlns="http://www.w3.org/2000/svg" xmlns:xlink="http://www.w3.org/1999/xlink" x="0px"
	 y="0px" viewBox="0 0 1920 1080" style="enable-background:new 0 0 1920 1080;" xml:space="preserve">
<style type="text/css">
	.st0{fill:#19935C;}
</style>
<g id="Text_2_">
	<path class="st0" d="M661.3,955.7v-71.2h13.2v71.2H661.3z"/>
	<path class="st0" d="M717.3,958.1c-12.2,0-29.5-3.3-30.6-23.7h13.2c0.6,11.4,11,12.7,16.3,12.7c3.3,0,17.5-0.4,17.5-10.4
		c0-5.2-3.1-7.1-9.6-8.6l-17.2-3.8c-9.2-2-19.1-7.2-19.1-20.8c0-15.3,14.7-21.3,28.7-21.3c5.9,0,14.9,1.1,21.5,7
		c4.1,3.7,5.7,7.1,7,15.4h-13.2c-0.5-10.7-11.9-11.3-15.5-11.3c-2.3,0-15.6,0.2-15.6,9.5c0,4.1,2.4,7.3,10,9l18.5,4.1
		c5.5,1.2,17.8,5.4,17.8,19.3C747,948.2,736.1,958.1,717.3,958.1z"/>
	<path class="st0" d="M787.5,958.1c-19.1,0-29.6-11.1-29.6-30.4v-43.1H771v44.7c0,12.3,6.9,17,16.1,17c10.7,0,16.4-5.9,16.4-17
		v-44.7h13.2v43.1C816.7,950.2,802.8,958.1,787.5,958.1z"/>
	<path class="st0" d="M862.7,958.1c-23.6,0-34-17.7-34-37.3c0-18.8,9.7-38.6,35-38.6c20.3,0,29.1,13.5,30.2,24.8h-13.9
		c-2.7-13.2-14-13.2-16-13.2c-11.1,0-21.4,9-21.4,26.8c0,16.7,9,25.9,19.9,25.9c4.7,0,9.4-1.8,13-5.3c3.2-3.1,3.9-5.6,4.5-9.6h13.9
		C892.6,943.7,883.5,958.1,862.7,958.1z"/>
	<path class="st0" d="M952.9,955.7v-32.4h-32.5v32.4h-13.2v-71.2h13.2v27.7h32.5v-27.7H966v71.2H952.9z"/>
	<path class="st0" d="M1013.3,958.1c-21.1,0-35.6-15-35.6-37.9c0-23,14.6-37.9,35.6-37.9s35.7,14.9,35.7,37.9
		C1049,943.1,1034.4,958.1,1013.3,958.1z M1013.3,894.1c-12.2,0-21.7,9.2-21.7,26c0,16.8,9.5,26.1,21.7,26.1
		c12.9,0,21.8-9.9,21.8-26.1C1035.2,904,1026.1,894.1,1013.3,894.1z"/>
	<path class="st0" d="M1060,955.7v-71.2h13.2v60.1h39.5v11.1H1060z"/>
	<path class="st0" d="M1176.7,955.7l-5.3-15.3h-29.9l-5.3,15.3h-14.5l27.3-71.2h14.9l27.3,71.2H1176.7z M1158.1,902l-1.6-6.2
		l-1.7,6.2l-9.5,27.4h22.2L1158.1,902z"/>
	<path class="st0" d="M1243.4,955.7c-1.5-1.4-2.3-2.4-2.3-7.6v-8.6c0-5.1-1.6-11.7-9.2-11.7h-18.2v27.9h-13.2v-71.2h33.5
		c13.3,0,21.9,8.2,21.9,19.3c0,4.7-1.6,9-4.4,12.2c-2.7,3.1-5.1,4.4-11.1,5.8c6.9,1,13.7,3,13.7,16.4v7.2c0,7.1,2.6,9,4.6,10.3
		H1243.4z M1232.3,895.7h-18.6v21.1h16.5c7.3,0,11.8-3.8,11.8-11.1C1241.9,899.2,1238.1,895.7,1232.3,895.7z"/>
</g>
<g id="Leaf_1_">
	<path class="st0" d="M851.6,806.7l-7.1,36l38.9-4.9c15.3-1.9,30.2-16.4,33.4-32.3l7.1-36l-38.9,4.9
		C869.7,776.3,854.7,790.7,851.6,806.7z"/>
	<path class="st0" d="M813.7,754.3c-15.2-2.7-33.8,6.7-41.5,20.9l-17.5,32.3l38.6,6.9c15.2,2.7,33.8-6.7,41.5-20.9l17.5-32.3
		L813.7,754.3z"/>
	<path class="st0" d="M679.9,749.6l35.7,16.1c14.1,6.3,34.4,1.8,45.4-10.1l24.9-27l-9.3-4.2c-29.3,5.6-58.1,10.2-86,13.7
		L679.9,749.6z"/>
	<path class="st0" d="M613.1,579.6L579.4,594l25.9,29.4c10.2,11.6,30.6,15.8,45.5,9.4l33.8-14.4l-25.9-29.4
		C648.5,577.5,628.1,573.3,613.1,579.6z"/>
	<path class="st0" d="M617.2,556.8l36-7.3l-19.5-34c-7.6-13.2-26.3-21.4-42.1-18.5c-9.7,9.4-18,18.7-24.9,27.7l7.8,13.6
		C582.2,551.8,601.3,560.1,617.2,556.8z"/>
	<path class="st0" d="M552.4,411.3l5.6,17.5c9.2-5.8,18.6-11.5,28.2-17.2L552.4,411.3z"/>
	<path class="st0" d="M634.5,460.9c-6.5,4.9-12.7,9.7-18.5,14.5l23.3,0.2L634.5,460.9z"/>
	<path class="st0" d="M608.1,366.7c0-7,4.1-16.7,23.8-22.8l1.3-0.4c-5.7-7.5-14-13.4-22.9-15.6l-35.7-8.7l3.1,39.1
		c1.2,15.4,15,31,30.8,34.8l6.9,1.7c4.1-2.3,8.2-4.5,12.3-6.8C611.6,382,608.1,373.2,608.1,366.7z"/>
	<path class="st0" d="M673.6,303.1c6.5-14,2.2-34.3-9.6-45.5l-26.7-25.2l-16.6,35.5c-6.5,14-2.2,34.3,9.6,45.5l24.8,23.4l3.2-1
		L673.6,303.1z"/>
	<path class="st0" d="M701.7,278.1l24.6-30.5c9.7-12,10.4-32.8,1.7-46.5l-19.8-30.9l-24.6,30.5c-9.7,12-10.4,32.8-1.7,46.5
		L701.7,278.1z"/>
	<path class="st0" d="M771.6,230.9l24.6-30.5c9.7-12,10.4-32.8,1.7-46.5l-19.8-30.9l-24.6,30.5c-9.7,12-10.4,32.8-1.7,46.5
		L771.6,230.9z"/>
	<path class="st0" d="M996.1,775l-36.5-4.2l8,38.3c3.2,15.1,18.8,28.8,34.9,30.7l36.5,4.2l-8-38.3
		C1027.9,790.6,1012.2,776.9,996.1,775z"/>
	<path class="st0" d="M1067.7,755.6l-36.1,6.9l19.1,34.2c7.5,13.5,26.5,21.9,42.5,18.9l36.1-6.9l-19.1-34.2
		C1102.7,761,1083.7,752.5,1067.7,755.6z"/>
	<path class="st0" d="M1131.6,714.2l-33.3,15.5l26.9,28.5c10.6,11.2,31.1,14.8,45.8,7.9l33.3-15.5l-26.9-28.5
		C1166.8,710.9,1146.3,707.4,1131.6,714.2z"/>
	<path class="st0" d="M1184.3,657.8l-29.2,22.3l32.4,22.1c7.3,5,17.3,6.8,26.9,5.6c-1.1-17.3-2.4-37.1-3.8-58
		C1201.2,649.6,1191.5,652.3,1184.3,657.8z"/>
	<path class="st0" d="M1200,619.1l8.8,3.6c-0.3-4.3-0.6-8.6-0.8-12.9L1200,619.1z"/>
	<path class="st0" d="M1305.2,594.5l-21.6-8.9c-0.7,12.2-1.5,24.5-2.2,36.5L1305.2,594.5z"/>
	<path class="st0" d="M1285.3,556.5c10.8-2.8,21-10.1,26.3-19.7l5.5-9.8c-10.1,5.8-20.5,11.5-31.1,17.2
		C1285.8,548.2,1285.6,552.3,1285.3,556.5z"/>
	<path class="st0" d="M1283.8,413.6c0,0.7,0.1,1.4,0.1,2.1c0,3.4-0.5,6.6-1.2,9.7c1.9,3.2,3.5,6.9,4.8,11.2
		c10.3-8.4,19.6-16.8,27.9-25L1293,412C1290,412.1,1286.9,412.6,1283.8,413.6z"/>
	<path class="st0" d="M1285.7,366.7c0,5.8-2.9,13.5-15,19.4c2.1,1.9,4,4,5.6,6.3l2.1-0.5c14.9-3.8,27.9-20.1,29-36.3l2.5-36.6
		l-37.9,9.8c-7.1,1.8-13.7,6.5-18.9,12.6l8.8,2.7C1281.6,350,1285.7,359.7,1285.7,366.7z"/>
	<path class="st0" d="M1211.4,304.6l13.4,27.9l5.9,1.8l24.7-23.9c10.9-10.5,14.2-30.5,7.7-45.1c-14.8-1.6-30.9-2.4-48.2-2.2
		C1207,274.4,1205.3,291.8,1211.4,304.6z"/>
	<path class="st0" d="M1190.7,263.8c-5.9,0.3-12,0.7-18.1,1.2l9.9,12L1190.7,263.8z"/>
	<path class="st0" d="M1175.9,169.2l-20.7,33.1c14.3-2.6,28.4-5,42.3-7.1L1175.9,169.2z"/>
	<path class="st0" d="M1133.3,196.5c8.2-13.1,6.4-33.8-3.9-46.3l-23.4-28.3l-20.8,33.2c-8.2,13.1-6.4,33.8,3.9,46.3l10.1,12.2
		c9.1-2,18.1-3.9,27-5.7L1133.3,196.5z"/>
</g>
<g id="Main_1_">
	<path class="st0" d="M946.9,642.6c-14.1,0-28.2-0.6-42.3-1.6c-63.3,17.1-124.1,29-179.1,35.4c-35.4,4.1-68.4,5.8-98.1,5.2
		c-67.6-1.4-118.2-15.1-141.8-42c-37-42.2,0.9-107.7,89.8-175.1c14.7-11.1,30.8-22.3,48.2-33.5c15.2-9.7,31.3-19.4,48.4-29.1
		l-8.5-2.6c-15.5,8.5-30.4,17.1-44.6,25.8c-17.7,10.8-34.3,21.6-49.8,32.5c-113.8,79.8-165.1,159.1-121.5,209
		c62.6,71.6,299.7,58,552.4-26.4C982.4,641.8,964.6,642.6,946.9,642.6z"/>
	<path class="st0" d="M1472.4,262.4c-37.3-42.7-136.6-55.1-264.1-40.3c-18.6,2.2-37.8,4.9-57.6,8.2c-47.2,7.9-97.2,19.1-148.7,33.4
		l10.4,3.2c49-12.8,96.4-22.4,140.6-28.7c18.9-2.7,37.1-4.7,54.7-6.2c102-8.4,180.2,4.1,211.2,39.6c38.6,44.2-4.5,113.7-102.2,184.3
		c-8.5,6.2-17.5,12.3-26.8,18.5c-0.1,0-0.3,0-0.4,0.1c0,0.1,0,0.1,0,0.2c-0.2,6.6-0.5,14.1-0.9,22.3c-0.2,4.7-0.5,9.7-0.7,14.8
		c6.5-3.8,12.8-7.6,19-11.5C1450.8,411.3,1521.3,318.3,1472.4,262.4z"/>
	<g>
		<path class="st0" d="M1270.9,450.1c0-0.2,0-0.3-0.1-0.5c0-0.2-0.1-0.5-0.1-0.7c-0.1-0.8-0.2-1.6-0.3-2.4c0-0.3-0.1-0.5-0.2-0.8
			c-5.1,4.5-11.4,7.8-18.4,9.2c-2.6,0.5-5.3,0.8-8,0.8c-10.4,0-19.9-4-27-10.6c-0.1,0.9-0.1,1.7-0.1,2.6c0,2.5,0.8,16.5,2,37
			c0.6,9.1,1.2,19.6,1.9,30.9c0.6,10,1.3,20.6,2,31.7c0.6,9.1,1.2,18.5,1.8,28c0.3,4.7,0.6,9.5,0.9,14.2c0.9,13.8,1.8,27.6,2.7,41
			c0.5,8.4,1.1,16.5,1.6,24.4c1.1,17,2.1,32.7,3,45.8c0.8,12.6,1.5,22.8,2,29.7c0.4,5.5,4.9,9.7,10.4,9.7c5.5,0,10-4.2,10.4-9.7
			c0.7-10.2,1.9-27.9,3.3-49.5c0.1-2,0.3-3.9,0.4-5.9c0.8-12.6,1.7-26.3,2.6-40.7c1.1-18.2,2.3-37.3,3.4-56.1
			c0.4-7.3,0.9-14.6,1.3-21.8c0-0.7,0.1-1.4,0.1-2.1c0.6-10.9,1.2-21.4,1.7-31.5c0.4-8,0.8-15.6,1.1-22.7c0.2-4.6,0.4-9.1,0.6-13.3
			c0.2-4.2,0.3-8.1,0.5-11.8c0.3-8.8,0.5-16.1,0.5-21.3C1271.1,452.6,1271,451.3,1270.9,450.1z"/>
	</g>
	<path class="st0" d="M988.1,474.1c-11.6,3.6-26.4,5.4-41.2,5.4c-14.8,0-29.7-1.8-41.2-5.4l-197.6-61.1l-11.6-3.6v10.4v153.2
		c53.5,26.3,110.4,43.7,168.4,52c24.9,3.6,50,5.5,75.2,5.8c38.5,0.5,77.1-2.9,115-10.2c49-9.4,96.9-25.3,142.3-47.6v-13v-31.9v-30.6
		v-88.1L988.1,474.1z"/>
	<path class="st0" d="M1255.1,366.1l-11.8-3.7L1015,291.9l-33.7-10.4c-3.6-1.1-7.7-2-12.2-2.7c-4.4-0.7-9.2-1.2-14-1.4
		c-15.1-0.8-31.2,0.6-42.6,4.1l-187,57.8l-84.3,26.1l-2.5,0.8c-0.7,0.2-1.3,0.4-1.8,0.6c0.6,0.2,1.2,0.4,1.8,0.6l2.8,0.9l15,4.6
		l35.9,11.1c0,0,0,0,0,0l8.1,2.5l7.3,2.3h0l28.5,8.8L912.5,452c18.6,5.8,50.1,5.8,68.8,0l184.6-57l76.7-23.7l12.5-3.9
		c0.7-0.2,1.3-0.4,1.8-0.6C1256.4,366.5,1255.8,366.3,1255.1,366.1z M950,386.6c-28.5,0-51.6-13.3-51.6-29.7
		c0-16.4,23.1-29.7,51.6-29.7c28.5,0,51.6,13.3,51.6,29.7C1001.7,373.3,978.6,386.6,950,386.6z"/>
	<path class="st0" d="M1262.9,395.9c-1.9-1.8-4.1-3.4-6.5-4.6c-3.7-1.9-8-3-12.4-3c-0.8,0-1.7,0.1-2.5,0.1
		c-9.3,0.8-17.3,6.4-21.6,14.2c-2.2,3.9-3.4,8.4-3.4,13.2c0,6.1,2,11.7,5.4,16.3c5,6.8,13.1,11.2,22.1,11.2c4.6,0,8.8-1.1,12.6-3.1
		c3.4-1.7,6.3-4.2,8.7-7.1c2.9-3.6,4.9-7.9,5.8-12.7c0.3-1.5,0.4-3.1,0.4-4.7C1271.4,407.9,1268.1,400.9,1262.9,395.9z"/>
</g>
</svg>
