<?xml version="1.0" encoding="UTF-8" standalone="no"?>
<!DOCTYPE svg PUBLIC "-//W3C//DTD SVG 1.1//EN"
 "http://www.w3.org/Graphics/SVG/1.1/DTD/svg11.dtd">
<!-- Generated by graphviz version 2.40.1 (20161225.0304)
 -->
<!-- Title: announcements Pages: 1 -->
<svg width="689pt" height="1019pt"
 viewBox="0.00 0.00 688.50 1019.00" xmlns="http://www.w3.org/2000/svg" xmlns:xlink="http://www.w3.org/1999/xlink">
<g id="graph0" class="graph" transform="scale(1 1) rotate(0) translate(4 1015)">
<title>announcements</title>
<polygon fill="#ffffff" stroke="transparent" points="-4,4 -4,-1015 684.5,-1015 684.5,4 -4,4"/>
<!-- announcements -->
<g id="node1" class="node">
<title>announcements</title>
<polygon fill="#efefef" stroke="transparent" points="366,-652.5 366,-687.5 605,-687.5 605,-652.5 366,-652.5"/>
<polygon fill="none" stroke="#000000" points="366,-652.5 366,-687.5 605,-687.5 605,-652.5 366,-652.5"/>
<text text-anchor="start" x="372.848" y="-665.3" font-family="Arial Bold" font-size="18.00" fill="#000000">announcements</text>
<text text-anchor="start" x="500.8982" y="-665.3" font-family="Arial" font-size="14.00" fill="#000000"> </text>
<text text-anchor="start" x="504.7888" y="-665.3" font-family="Arial" font-size="14.00" fill="#666666">[BASE TABLE]</text>
<polygon fill="none" stroke="#000000" points="366,-622.5 366,-652.5 605,-652.5 605,-622.5 366,-622.5"/>
<text text-anchor="start" x="373" y="-633.9" font-family="Arial" font-size="14.00" fill="#000000">id </text>
<text text-anchor="start" x="387.7798" y="-633.9" font-family="Arial" font-size="14.00" fill="#666666">[char(36)]</text>
<polygon fill="none" stroke="#000000" points="366,-592.5 366,-622.5 605,-622.5 605,-592.5 366,-592.5"/>
<text text-anchor="start" x="373" y="-603.9" font-family="Arial" font-size="14.00" fill="#000000">course_id </text>
<text text-anchor="start" x="437.5708" y="-603.9" font-family="Arial" font-size="14.00" fill="#666666">[char(36)]</text>
<polygon fill="none" stroke="#000000" points="366,-562.5 366,-592.5 605,-592.5 605,-562.5 366,-562.5"/>
<text text-anchor="start" x="373" y="-573.9" font-family="Arial" font-size="14.00" fill="#000000">title </text>
<text text-anchor="start" x="398.6676" y="-573.9" font-family="Arial" font-size="14.00" fill="#666666">[varchar(255)]</text>
<polygon fill="none" stroke="#000000" points="366,-532.5 366,-562.5 605,-562.5 605,-532.5 366,-532.5"/>
<text text-anchor="start" x="373" y="-543.9" font-family="Arial" font-size="14.00" fill="#000000">message </text>
<text text-anchor="start" x="433.6816" y="-543.9" font-family="Arial" font-size="14.00" fill="#666666">[text]</text>
<polygon fill="none" stroke="#000000" points="366,-502.5 366,-532.5 605,-532.5 605,-502.5 366,-502.5"/>
<text text-anchor="start" x="373" y="-513.9" font-family="Arial" font-size="14.00" fill="#000000">created_at </text>
<text text-anchor="start" x="443.028" y="-513.9" font-family="Arial" font-size="14.00" fill="#666666">[datetime(6)]</text>
<polygon fill="none" stroke="#000000" stroke-width="3" points="364,-501.5 364,-689.5 606,-689.5 606,-501.5 364,-501.5"/>
</g>
<!-- courses -->
<g id="node3" class="node">
<title>courses</title>
<polygon fill="#efefef" stroke="transparent" points="351,-342.5 351,-377.5 620,-377.5 620,-342.5 351,-342.5"/>
<polygon fill="none" stroke="#000000" points="351,-342.5 351,-377.5 620,-377.5 620,-342.5 351,-342.5"/>
<text text-anchor="start" x="405.3677" y="-355.3" font-family="Arial Bold" font-size="18.00" fill="#000000">courses</text>
<text text-anchor="start" x="468.3785" y="-355.3" font-family="Arial" font-size="14.00" fill="#000000"> </text>
<text text-anchor="start" x="472.2691" y="-355.3" font-family="Arial" font-size="14.00" fill="#666666">[BASE TABLE]</text>
<polygon fill="none" stroke="#000000" points="351,-312.5 351,-342.5 620,-342.5 620,-312.5 351,-312.5"/>
<text text-anchor="start" x="358" y="-323.9" font-family="Arial" font-size="14.00" fill="#000000">id </text>
<text text-anchor="start" x="372.7798" y="-323.9" font-family="Arial" font-size="14.00" fill="#666666">[char(36)]</text>
<polygon fill="none" stroke="#000000" points="351,-282.5 351,-312.5 620,-312.5 620,-282.5 351,-282.5"/>
<text text-anchor="start" x="358" y="-293.9" font-family="Arial" font-size="14.00" fill="#000000">code </text>
<text text-anchor="start" x="392.2384" y="-293.9" font-family="Arial" font-size="14.00" fill="#666666">[varchar(255)]</text>
<polygon fill="none" stroke="#000000" points="351,-252.5 351,-282.5 620,-282.5 620,-252.5 351,-252.5"/>
<text text-anchor="start" x="357.9803" y="-263.9" font-family="Arial" font-size="14.00" fill="#000000">type </text>
<text text-anchor="start" x="388.3267" y="-263.9" font-family="Arial" font-size="14.00" fill="#666666">[enum(&#39;liberal&#45;arts&#39;,&#39;major&#45;subjects&#39;)]</text>
<polygon fill="none" stroke="#000000" points="351,-222.5 351,-252.5 620,-252.5 620,-222.5 351,-222.5"/>
<text text-anchor="start" x="358" y="-233.9" font-family="Arial" font-size="14.00" fill="#000000">name </text>
<text text-anchor="start" x="396.899" y="-233.9" font-family="Arial" font-size="14.00" fill="#666666">[varchar(255)]</text>
<polygon fill="none" stroke="#000000" points="351,-192.5 351,-222.5 620,-222.5 620,-192.5 351,-192.5"/>
<text text-anchor="start" x="358" y="-203.9" font-family="Arial" font-size="14.00" fill="#000000">description </text>
<text text-anchor="start" x="429.568" y="-203.9" font-family="Arial" font-size="14.00" fill="#666666">[text]</text>
<polygon fill="none" stroke="#000000" points="351,-162.5 351,-192.5 620,-192.5 620,-162.5 351,-162.5"/>
<text text-anchor="start" x="358" y="-173.9" font-family="Arial" font-size="14.00" fill="#000000">credit </text>
<text text-anchor="start" x="396.1136" y="-173.9" font-family="Arial" font-size="14.00" fill="#666666">[tinyint unsigned]</text>
<polygon fill="none" stroke="#000000" points="351,-132.5 351,-162.5 620,-162.5 620,-132.5 351,-132.5"/>
<text text-anchor="start" x="358" y="-143.9" font-family="Arial" font-size="14.00" fill="#000000">classroom </text>
<text text-anchor="start" x="425.6662" y="-143.9" font-family="Arial" font-size="14.00" fill="#666666">[varchar(255)]</text>
<polygon fill="none" stroke="#000000" points="351,-102.5 351,-132.5 620,-132.5 620,-102.5 351,-102.5"/>
<text text-anchor="start" x="358" y="-113.9" font-family="Arial" font-size="14.00" fill="#000000">capacity </text>
<text text-anchor="start" x="413.2356" y="-113.9" font-family="Arial" font-size="14.00" fill="#666666">[int unsigned]</text>
<polygon fill="none" stroke="#000000" points="351,-72.5 351,-102.5 620,-102.5 620,-72.5 351,-72.5"/>
<text text-anchor="start" x="358" y="-83.9" font-family="Arial" font-size="14.00" fill="#000000">teacher_id </text>
<text text-anchor="start" x="427.244" y="-83.9" font-family="Arial" font-size="14.00" fill="#666666">[char(36)]</text>
<polygon fill="none" stroke="#000000" points="351,-42.5 351,-72.5 620,-72.5 620,-42.5 351,-42.5"/>
<text text-anchor="start" x="358" y="-53.9" font-family="Arial" font-size="14.00" fill="#000000">keywords </text>
<text text-anchor="start" x="421.0056" y="-53.9" font-family="Arial" font-size="14.00" fill="#666666">[text]</text>
</g>
<!-- announcements&#45;&gt;courses -->
<g id="edge2" class="edge">
<title>announcements:course_id&#45;&gt;courses:id</title>
<path fill="none" stroke="#000000" d="M355.6764,-606.839C240.6395,-591.8652 229.9065,-327.5 351,-327.5"/>
<polygon fill="#000000" stroke="#000000" points="356.0204,-606.8609 365.7124,-611.9908 361.0102,-607.1805 366,-607.5 366,-607.5 366,-607.5 361.0102,-607.1805 366.2876,-603.0092 356.0204,-606.8609 356.0204,-606.8609"/>
<text text-anchor="start" x="112.386" y="-617.5" font-family="Arial" font-size="10.00" fill="#000000">FOREIGN KEY (course_id) REFERENCES courses (id)</text>
</g>
<!-- unread_announcements -->
<g id="node2" class="node">
<title>unread_announcements</title>
<polygon fill="#efefef" stroke="transparent" points="333,-932.5 333,-967.5 638,-967.5 638,-932.5 333,-932.5"/>
<polygon fill="none" stroke="#000000" points="333,-932.5 333,-967.5 638,-967.5 638,-932.5 333,-932.5"/>
<text text-anchor="start" x="339.8333" y="-945.3" font-family="Arial Bold" font-size="18.00" fill="#000000">unread_announcements</text>
<text text-anchor="start" x="533.9129" y="-945.3" font-family="Arial" font-size="14.00" fill="#000000"> </text>
<text text-anchor="start" x="537.8035" y="-945.3" font-family="Arial" font-size="14.00" fill="#666666">[BASE TABLE]</text>
<polygon fill="none" stroke="#000000" points="333,-902.5 333,-932.5 638,-932.5 638,-902.5 333,-902.5"/>
<text text-anchor="start" x="340" y="-913.9" font-family="Arial" font-size="14.00" fill="#000000">announcement_id </text>
<text text-anchor="start" x="455.157" y="-913.9" font-family="Arial" font-size="14.00" fill="#666666">[char(36)]</text>
<polygon fill="none" stroke="#000000" points="333,-872.5 333,-902.5 638,-902.5 638,-872.5 333,-872.5"/>
<text text-anchor="start" x="340" y="-883.9" font-family="Arial" font-size="14.00" fill="#000000">user_id </text>
<text text-anchor="start" x="389.7882" y="-883.9" font-family="Arial" font-size="14.00" fill="#666666">[char(36)]</text>
<polygon fill="none" stroke="#000000" points="333,-842.5 333,-872.5 638,-872.5 638,-842.5 333,-842.5"/>
<text text-anchor="start" x="340" y="-853.9" font-family="Arial" font-size="14.00" fill="#000000">created_at </text>
<text text-anchor="start" x="410.028" y="-853.9" font-family="Arial" font-size="14.00" fill="#666666">[datetime(6)]</text>
<polygon fill="none" stroke="#000000" points="333,-812.5 333,-842.5 638,-842.5 638,-812.5 333,-812.5"/>
<text text-anchor="start" x="340" y="-823.9" font-family="Arial" font-size="14.00" fill="#000000">deleted_at </text>
<text text-anchor="start" x="409.2566" y="-823.9" font-family="Arial" font-size="14.00" fill="#666666">[datetime(6)]</text>
</g>
<!-- unread_announcements&#45;&gt;announcements -->
<g id="edge1" class="edge">
<title>unread_announcements:announcement_id&#45;&gt;announcements:id</title>
<path fill="none" stroke="#000000" d="M322.7333,-916.839C209.6374,-901.8652 244.2429,-637.5 366,-637.5"/>
<polygon fill="#000000" stroke="#000000" points="323.0207,-916.8574 332.7108,-921.9907 328.0103,-917.1787 333,-917.5 333,-917.5 333,-917.5 328.0103,-917.1787 333.2892,-913.0093 323.0207,-916.8574 323.0207,-916.8574"/>
<text text-anchor="start" x="7.253" y="-927.5" font-family="Arial" font-size="10.00" fill="#000000">FOREIGN KEY (announcement_id) REFERENCES announcements (id)</text>
</g>
</g>
</svg>
