<?xml version="1.0" encoding="UTF-8" standalone="no"?>
<!DOCTYPE svg PUBLIC "-//W3C//DTD SVG 1.1//EN"
 "http://www.w3.org/Graphics/SVG/1.1/DTD/svg11.dtd">
<!-- Generated by graphviz version 2.40.1 (20161225.0304)
 -->
<!-- Title: announcements Pages: 1 -->
<svg width="824pt" height="1079pt"
 viewBox="0.00 0.00 823.50 1079.00" xmlns="http://www.w3.org/2000/svg" xmlns:xlink="http://www.w3.org/1999/xlink">
<g id="graph0" class="graph" transform="scale(1 1) rotate(0) translate(4 1075)">
<title>announcements</title>
<polygon fill="#ffffff" stroke="transparent" points="-4,4 -4,-1075 819.5,-1075 819.5,4 -4,4"/>
<!-- announcements -->
<g id="node1" class="node">
<title>announcements</title>
<polygon fill="#efefef" stroke="transparent" points="366,-712.5 366,-747.5 605,-747.5 605,-712.5 366,-712.5"/>
<polygon fill="none" stroke="#000000" points="366,-712.5 366,-747.5 605,-747.5 605,-712.5 366,-712.5"/>
<text text-anchor="start" x="372.848" y="-725.3" font-family="Arial Bold" font-size="18.00" fill="#000000">announcements</text>
<text text-anchor="start" x="500.8982" y="-725.3" font-family="Arial" font-size="14.00" fill="#000000"> </text>
<text text-anchor="start" x="504.7888" y="-725.3" font-family="Arial" font-size="14.00" fill="#666666">[BASE TABLE]</text>
<polygon fill="none" stroke="#000000" points="366,-682.5 366,-712.5 605,-712.5 605,-682.5 366,-682.5"/>
<text text-anchor="start" x="373" y="-693.9" font-family="Arial" font-size="14.00" fill="#000000">id </text>
<text text-anchor="start" x="387.7798" y="-693.9" font-family="Arial" font-size="14.00" fill="#666666">[char(36)]</text>
<polygon fill="none" stroke="#000000" points="366,-652.5 366,-682.5 605,-682.5 605,-652.5 366,-652.5"/>
<text text-anchor="start" x="373" y="-663.9" font-family="Arial" font-size="14.00" fill="#000000">course_id </text>
<text text-anchor="start" x="437.5708" y="-663.9" font-family="Arial" font-size="14.00" fill="#666666">[char(36)]</text>
<polygon fill="none" stroke="#000000" points="366,-622.5 366,-652.5 605,-652.5 605,-622.5 366,-622.5"/>
<text text-anchor="start" x="373" y="-633.9" font-family="Arial" font-size="14.00" fill="#000000">title </text>
<text text-anchor="start" x="398.6676" y="-633.9" font-family="Arial" font-size="14.00" fill="#666666">[varchar(255)]</text>
<polygon fill="none" stroke="#000000" points="366,-592.5 366,-622.5 605,-622.5 605,-592.5 366,-592.5"/>
<text text-anchor="start" x="373" y="-603.9" font-family="Arial" font-size="14.00" fill="#000000">message </text>
<text text-anchor="start" x="433.6816" y="-603.9" font-family="Arial" font-size="14.00" fill="#666666">[text]</text>
<polygon fill="none" stroke="#000000" points="366,-562.5 366,-592.5 605,-592.5 605,-562.5 366,-562.5"/>
<text text-anchor="start" x="373" y="-573.9" font-family="Arial" font-size="14.00" fill="#000000">created_at </text>
<text text-anchor="start" x="443.028" y="-573.9" font-family="Arial" font-size="14.00" fill="#666666">[datetime(6)]</text>
<polygon fill="none" stroke="#000000" stroke-width="3" points="364,-561.5 364,-749.5 606,-749.5 606,-561.5 364,-561.5"/>
</g>
<!-- courses -->
<g id="node3" class="node">
<title>courses</title>
<polygon fill="#efefef" stroke="transparent" points="198,-402.5 198,-437.5 773,-437.5 773,-402.5 198,-402.5"/>
<polygon fill="none" stroke="#000000" points="198,-402.5 198,-437.5 773,-437.5 773,-402.5 198,-402.5"/>
<text text-anchor="start" x="405.3677" y="-415.3" font-family="Arial Bold" font-size="18.00" fill="#000000">courses</text>
<text text-anchor="start" x="468.3785" y="-415.3" font-family="Arial" font-size="14.00" fill="#000000"> </text>
<text text-anchor="start" x="472.2691" y="-415.3" font-family="Arial" font-size="14.00" fill="#666666">[BASE TABLE]</text>
<polygon fill="none" stroke="#000000" points="198,-372.5 198,-402.5 773,-402.5 773,-372.5 198,-372.5"/>
<text text-anchor="start" x="205" y="-383.9" font-family="Arial" font-size="14.00" fill="#000000">id </text>
<text text-anchor="start" x="219.7798" y="-383.9" font-family="Arial" font-size="14.00" fill="#666666">[char(36)]</text>
<polygon fill="none" stroke="#000000" points="198,-342.5 198,-372.5 773,-372.5 773,-342.5 198,-342.5"/>
<text text-anchor="start" x="205" y="-353.9" font-family="Arial" font-size="14.00" fill="#000000">code </text>
<text text-anchor="start" x="239.2384" y="-353.9" font-family="Arial" font-size="14.00" fill="#666666">[varchar(255)]</text>
<polygon fill="none" stroke="#000000" points="198,-312.5 198,-342.5 773,-342.5 773,-312.5 198,-312.5"/>
<text text-anchor="start" x="205" y="-323.9" font-family="Arial" font-size="14.00" fill="#000000">type </text>
<text text-anchor="start" x="235.3464" y="-323.9" font-family="Arial" font-size="14.00" fill="#666666">[enum(&#39;liberal&#45;arts&#39;,&#39;major&#45;subjects&#39;)]</text>
<polygon fill="none" stroke="#000000" points="198,-282.5 198,-312.5 773,-312.5 773,-282.5 198,-282.5"/>
<text text-anchor="start" x="205" y="-293.9" font-family="Arial" font-size="14.00" fill="#000000">name </text>
<text text-anchor="start" x="243.899" y="-293.9" font-family="Arial" font-size="14.00" fill="#666666">[varchar(255)]</text>
<polygon fill="none" stroke="#000000" points="198,-252.5 198,-282.5 773,-282.5 773,-252.5 198,-252.5"/>
<text text-anchor="start" x="205" y="-263.9" font-family="Arial" font-size="14.00" fill="#000000">description </text>
<text text-anchor="start" x="276.568" y="-263.9" font-family="Arial" font-size="14.00" fill="#666666">[text]</text>
<polygon fill="none" stroke="#000000" points="198,-222.5 198,-252.5 773,-252.5 773,-222.5 198,-222.5"/>
<text text-anchor="start" x="205" y="-233.9" font-family="Arial" font-size="14.00" fill="#000000">credit </text>
<text text-anchor="start" x="243.1136" y="-233.9" font-family="Arial" font-size="14.00" fill="#666666">[tinyint unsigned]</text>
<polygon fill="none" stroke="#000000" points="198,-192.5 198,-222.5 773,-222.5 773,-192.5 198,-192.5"/>
<text text-anchor="start" x="205" y="-203.9" font-family="Arial" font-size="14.00" fill="#000000">period </text>
<text text-anchor="start" x="247.7882" y="-203.9" font-family="Arial" font-size="14.00" fill="#666666">[tinyint unsigned]</text>
<polygon fill="none" stroke="#000000" points="198,-162.5 198,-192.5 773,-192.5 773,-162.5 198,-162.5"/>
<text text-anchor="start" x="204.7762" y="-173.9" font-family="Arial" font-size="14.00" fill="#000000">day_of_week </text>
<text text-anchor="start" x="291.1422" y="-173.9" font-family="Arial" font-size="14.00" fill="#666666">[enum(&#39;sunday&#39;,&#39;monday&#39;,&#39;tuesday&#39;,&#39;wednesday&#39;,&#39;thursday&#39;,&#39;friday&#39;,&#39;saturday&#39;)]</text>
<polygon fill="none" stroke="#000000" points="198,-132.5 198,-162.5 773,-162.5 773,-132.5 198,-132.5"/>
<text text-anchor="start" x="205" y="-143.9" font-family="Arial" font-size="14.00" fill="#000000">teacher_id </text>
<text text-anchor="start" x="274.244" y="-143.9" font-family="Arial" font-size="14.00" fill="#666666">[char(36)]</text>
<polygon fill="none" stroke="#000000" points="198,-102.5 198,-132.5 773,-132.5 773,-102.5 198,-102.5"/>
<text text-anchor="start" x="205" y="-113.9" font-family="Arial" font-size="14.00" fill="#000000">keywords </text>
<text text-anchor="start" x="268.0056" y="-113.9" font-family="Arial" font-size="14.00" fill="#666666">[text]</text>
<polygon fill="none" stroke="#000000" points="198,-72.5 198,-102.5 773,-102.5 773,-72.5 198,-72.5"/>
<text text-anchor="start" x="205" y="-83.9" font-family="Arial" font-size="14.00" fill="#000000">status </text>
<text text-anchor="start" x="246.237" y="-83.9" font-family="Arial" font-size="14.00" fill="#666666">[enum(&#39;registration&#39;,&#39;in&#45;progress&#39;,&#39;closed&#39;)]</text>
<polygon fill="none" stroke="#000000" points="198,-42.5 198,-72.5 773,-72.5 773,-42.5 198,-42.5"/>
<text text-anchor="start" x="205" y="-53.9" font-family="Arial" font-size="14.00" fill="#000000">created_at </text>
<text text-anchor="start" x="275.028" y="-53.9" font-family="Arial" font-size="14.00" fill="#666666">[datetime(6)]</text>
</g>
<!-- announcements&#45;&gt;courses -->
<g id="edge2" class="edge">
<title>announcements:course_id&#45;&gt;courses:id</title>
<path fill="none" stroke="#000000" d="M355.7625,-667.0458C213.1711,-654.5288 56.2755,-387.5 198,-387.5"/>
<polygon fill="#000000" stroke="#000000" points="356.0098,-667.0567 365.8005,-671.9956 361.0049,-667.2783 366,-667.5 366,-667.5 366,-667.5 361.0049,-667.2783 366.1995,-663.0044 356.0098,-667.0567 356.0098,-667.0567"/>
<text text-anchor="start" x="112.386" y="-677.5" font-family="Arial" font-size="10.00" fill="#000000">FOREIGN KEY (course_id) REFERENCES courses (id)</text>
</g>
<!-- unread_announcements -->
<g id="node2" class="node">
<title>unread_announcements</title>
<polygon fill="#efefef" stroke="transparent" points="333,-992.5 333,-1027.5 638,-1027.5 638,-992.5 333,-992.5"/>
<polygon fill="none" stroke="#000000" points="333,-992.5 333,-1027.5 638,-1027.5 638,-992.5 333,-992.5"/>
<text text-anchor="start" x="339.8333" y="-1005.3" font-family="Arial Bold" font-size="18.00" fill="#000000">unread_announcements</text>
<text text-anchor="start" x="533.9129" y="-1005.3" font-family="Arial" font-size="14.00" fill="#000000"> </text>
<text text-anchor="start" x="537.8035" y="-1005.3" font-family="Arial" font-size="14.00" fill="#666666">[BASE TABLE]</text>
<polygon fill="none" stroke="#000000" points="333,-962.5 333,-992.5 638,-992.5 638,-962.5 333,-962.5"/>
<text text-anchor="start" x="340" y="-973.9" font-family="Arial" font-size="14.00" fill="#000000">announcement_id </text>
<text text-anchor="start" x="455.157" y="-973.9" font-family="Arial" font-size="14.00" fill="#666666">[char(36)]</text>
<polygon fill="none" stroke="#000000" points="333,-932.5 333,-962.5 638,-962.5 638,-932.5 333,-932.5"/>
<text text-anchor="start" x="340" y="-943.9" font-family="Arial" font-size="14.00" fill="#000000">user_id </text>
<text text-anchor="start" x="389.7882" y="-943.9" font-family="Arial" font-size="14.00" fill="#666666">[char(36)]</text>
<polygon fill="none" stroke="#000000" points="333,-902.5 333,-932.5 638,-932.5 638,-902.5 333,-902.5"/>
<text text-anchor="start" x="340" y="-913.9" font-family="Arial" font-size="14.00" fill="#000000">created_at </text>
<text text-anchor="start" x="410.028" y="-913.9" font-family="Arial" font-size="14.00" fill="#666666">[datetime(6)]</text>
<polygon fill="none" stroke="#000000" points="333,-872.5 333,-902.5 638,-902.5 638,-872.5 333,-872.5"/>
<text text-anchor="start" x="340" y="-883.9" font-family="Arial" font-size="14.00" fill="#000000">deleted_at </text>
<text text-anchor="start" x="409.2566" y="-883.9" font-family="Arial" font-size="14.00" fill="#666666">[datetime(6)]</text>
</g>
<!-- unread_announcements&#45;&gt;announcements -->
<g id="edge1" class="edge">
<title>unread_announcements:announcement_id&#45;&gt;announcements:id</title>
<path fill="none" stroke="#000000" d="M322.7333,-976.839C209.6374,-961.8652 244.2429,-697.5 366,-697.5"/>
<polygon fill="#000000" stroke="#000000" points="323.0207,-976.8574 332.7108,-981.9907 328.0103,-977.1787 333,-977.5 333,-977.5 333,-977.5 328.0103,-977.1787 333.2892,-973.0093 323.0207,-976.8574 323.0207,-976.8574"/>
<text text-anchor="start" x="7.253" y="-987.5" font-family="Arial" font-size="10.00" fill="#000000">FOREIGN KEY (announcement_id) REFERENCES announcements (id)</text>
</g>
</g>
</svg>
