<?xml version="1.0" encoding="UTF-8" standalone="no"?>
<!DOCTYPE svg PUBLIC "-//W3C//DTD SVG 1.1//EN"
 "http://www.w3.org/Graphics/SVG/1.1/DTD/svg11.dtd">
<!-- Generated by graphviz version 2.40.1 (20161225.0304)
 -->
<!-- Title: announcements Pages: 1 -->
<svg width="2391pt" height="899pt"
 viewBox="0.00 0.00 2391.00 899.00" xmlns="http://www.w3.org/2000/svg" xmlns:xlink="http://www.w3.org/1999/xlink">
<g id="graph0" class="graph" transform="scale(1 1) rotate(0) translate(4 895)">
<title>announcements</title>
<polygon fill="#ffffff" stroke="transparent" points="-4,4 -4,-895 2387,-895 2387,4 -4,4"/>
<!-- announcements -->
<g id="node1" class="node">
<title>announcements</title>
<polygon fill="#efefef" stroke="transparent" points="1708,-532.5 1708,-567.5 1947,-567.5 1947,-532.5 1708,-532.5"/>
<polygon fill="none" stroke="#000000" points="1708,-532.5 1708,-567.5 1947,-567.5 1947,-532.5 1708,-532.5"/>
<text text-anchor="start" x="1714.848" y="-545.3" font-family="Arial Bold" font-size="18.00" fill="#000000">announcements</text>
<text text-anchor="start" x="1842.8982" y="-545.3" font-family="Arial" font-size="14.00" fill="#000000"> </text>
<text text-anchor="start" x="1846.7888" y="-545.3" font-family="Arial" font-size="14.00" fill="#666666">[BASE TABLE]</text>
<polygon fill="none" stroke="#000000" points="1708,-502.5 1708,-532.5 1947,-532.5 1947,-502.5 1708,-502.5"/>
<text text-anchor="start" x="1715" y="-513.9" font-family="Arial" font-size="14.00" fill="#000000">id </text>
<text text-anchor="start" x="1729.7798" y="-513.9" font-family="Arial" font-size="14.00" fill="#666666">[char(36)]</text>
<polygon fill="none" stroke="#000000" points="1708,-472.5 1708,-502.5 1947,-502.5 1947,-472.5 1708,-472.5"/>
<text text-anchor="start" x="1715" y="-483.9" font-family="Arial" font-size="14.00" fill="#000000">course_id </text>
<text text-anchor="start" x="1779.5708" y="-483.9" font-family="Arial" font-size="14.00" fill="#666666">[char(36)]</text>
<polygon fill="none" stroke="#000000" points="1708,-442.5 1708,-472.5 1947,-472.5 1947,-442.5 1708,-442.5"/>
<text text-anchor="start" x="1715" y="-453.9" font-family="Arial" font-size="14.00" fill="#000000">title </text>
<text text-anchor="start" x="1740.6676" y="-453.9" font-family="Arial" font-size="14.00" fill="#666666">[varchar(255)]</text>
<polygon fill="none" stroke="#000000" points="1708,-412.5 1708,-442.5 1947,-442.5 1947,-412.5 1708,-412.5"/>
<text text-anchor="start" x="1715" y="-423.9" font-family="Arial" font-size="14.00" fill="#000000">message </text>
<text text-anchor="start" x="1775.6816" y="-423.9" font-family="Arial" font-size="14.00" fill="#666666">[text]</text>
<polygon fill="none" stroke="#000000" points="1708,-382.5 1708,-412.5 1947,-412.5 1947,-382.5 1708,-382.5"/>
<text text-anchor="start" x="1715" y="-393.9" font-family="Arial" font-size="14.00" fill="#000000">created_at </text>
<text text-anchor="start" x="1785.028" y="-393.9" font-family="Arial" font-size="14.00" fill="#666666">[datetime(6)]</text>
<polygon fill="none" stroke="#000000" stroke-width="3" points="1706,-381.5 1706,-569.5 1948,-569.5 1948,-381.5 1706,-381.5"/>
</g>
<!-- courses -->
<g id="node4" class="node">
<title>courses</title>
<polygon fill="#efefef" stroke="transparent" points="802,-222.5 802,-257.5 976,-257.5 976,-222.5 802,-222.5"/>
<polygon fill="none" stroke="#000000" points="802,-222.5 802,-257.5 976,-257.5 976,-222.5 802,-222.5"/>
<text text-anchor="start" x="808.8677" y="-235.3" font-family="Arial Bold" font-size="18.00" fill="#000000">courses</text>
<text text-anchor="start" x="871.8785" y="-235.3" font-family="Arial" font-size="14.00" fill="#000000"> </text>
<text text-anchor="start" x="875.7691" y="-235.3" font-family="Arial" font-size="14.00" fill="#666666">[BASE TABLE]</text>
<polygon fill="none" stroke="#000000" points="802,-192.5 802,-222.5 976,-222.5 976,-192.5 802,-192.5"/>
<text text-anchor="start" x="809" y="-203.9" font-family="Arial" font-size="14.00" fill="#000000">id </text>
<text text-anchor="start" x="823.7798" y="-203.9" font-family="Arial" font-size="14.00" fill="#666666">[char(36)]</text>
<polygon fill="none" stroke="#000000" points="802,-162.5 802,-192.5 976,-192.5 976,-162.5 802,-162.5"/>
<text text-anchor="start" x="809" y="-173.9" font-family="Arial" font-size="14.00" fill="#000000">name </text>
<text text-anchor="start" x="847.899" y="-173.9" font-family="Arial" font-size="14.00" fill="#666666">[varchar(255)]</text>
<polygon fill="none" stroke="#000000" points="802,-132.5 802,-162.5 976,-162.5 976,-132.5 802,-132.5"/>
<text text-anchor="start" x="809" y="-143.9" font-family="Arial" font-size="14.00" fill="#000000">description </text>
<text text-anchor="start" x="880.568" y="-143.9" font-family="Arial" font-size="14.00" fill="#666666">[text]</text>
<polygon fill="none" stroke="#000000" points="802,-102.5 802,-132.5 976,-132.5 976,-102.5 802,-102.5"/>
<text text-anchor="start" x="809" y="-113.9" font-family="Arial" font-size="14.00" fill="#000000">credit </text>
<text text-anchor="start" x="847.1136" y="-113.9" font-family="Arial" font-size="14.00" fill="#666666">[tinyint unsigned]</text>
<polygon fill="none" stroke="#000000" points="802,-72.5 802,-102.5 976,-102.5 976,-72.5 802,-72.5"/>
<text text-anchor="start" x="809" y="-83.9" font-family="Arial" font-size="14.00" fill="#000000">classroom </text>
<text text-anchor="start" x="876.6662" y="-83.9" font-family="Arial" font-size="14.00" fill="#666666">[varchar(255)]</text>
<polygon fill="none" stroke="#000000" points="802,-42.5 802,-72.5 976,-72.5 976,-42.5 802,-42.5"/>
<text text-anchor="start" x="809" y="-53.9" font-family="Arial" font-size="14.00" fill="#000000">capacity </text>
<text text-anchor="start" x="864.2356" y="-53.9" font-family="Arial" font-size="14.00" fill="#666666">[int unsigned]</text>
</g>
<!-- announcements&#45;&gt;courses -->
<g id="edge3" class="edge">
<title>announcements:course_id&#45;&gt;courses:id</title>
<path fill="none" stroke="#000000" d="M1697.8764,-486.6532C1643.8697,-476.6546 1704.3909,-380.7017 1653,-337 1536.314,-237.7727 1129.1721,-207.5 976,-207.5"/>
<polygon fill="#000000" stroke="#000000" points="1698.0348,-486.6663 1707.6248,-491.9843 1703.0174,-487.0832 1708,-487.5 1708,-487.5 1708,-487.5 1703.0174,-487.0832 1708.3752,-483.0157 1698.0348,-486.6663 1698.0348,-486.6663"/>
<text text-anchor="start" x="1715.386" y="-497.5" font-family="Arial" font-size="10.00" fill="#000000">FOREIGN KEY (course_id) REFERENCES courses (id)</text>
</g>
<!-- unread_announcements -->
<g id="node2" class="node">
<title>unread_announcements</title>
<polygon fill="#efefef" stroke="transparent" points="1838,-812.5 1838,-847.5 2143,-847.5 2143,-812.5 1838,-812.5"/>
<polygon fill="none" stroke="#000000" points="1838,-812.5 1838,-847.5 2143,-847.5 2143,-812.5 1838,-812.5"/>
<text text-anchor="start" x="1844.8333" y="-825.3" font-family="Arial Bold" font-size="18.00" fill="#000000">unread_announcements</text>
<text text-anchor="start" x="2038.9129" y="-825.3" font-family="Arial" font-size="14.00" fill="#000000"> </text>
<text text-anchor="start" x="2042.8035" y="-825.3" font-family="Arial" font-size="14.00" fill="#666666">[BASE TABLE]</text>
<polygon fill="none" stroke="#000000" points="1838,-782.5 1838,-812.5 2143,-812.5 2143,-782.5 1838,-782.5"/>
<text text-anchor="start" x="1845" y="-793.9" font-family="Arial" font-size="14.00" fill="#000000">announcement_id </text>
<text text-anchor="start" x="1960.157" y="-793.9" font-family="Arial" font-size="14.00" fill="#666666">[char(36)]</text>
<polygon fill="none" stroke="#000000" points="1838,-752.5 1838,-782.5 2143,-782.5 2143,-752.5 1838,-752.5"/>
<text text-anchor="start" x="1845" y="-763.9" font-family="Arial" font-size="14.00" fill="#000000">user_id </text>
<text text-anchor="start" x="1894.7882" y="-763.9" font-family="Arial" font-size="14.00" fill="#666666">[char(36)]</text>
<polygon fill="none" stroke="#000000" points="1838,-722.5 1838,-752.5 2143,-752.5 2143,-722.5 1838,-722.5"/>
<text text-anchor="start" x="1845" y="-733.9" font-family="Arial" font-size="14.00" fill="#000000">created_at </text>
<text text-anchor="start" x="1915.028" y="-733.9" font-family="Arial" font-size="14.00" fill="#666666">[datetime(6)]</text>
<polygon fill="none" stroke="#000000" points="1838,-692.5 1838,-722.5 2143,-722.5 2143,-692.5 1838,-692.5"/>
<text text-anchor="start" x="1845" y="-703.9" font-family="Arial" font-size="14.00" fill="#000000">delete_at </text>
<text text-anchor="start" x="1906.474" y="-703.9" font-family="Arial" font-size="14.00" fill="#666666">[datetime(6)]</text>
</g>
<!-- unread_announcements&#45;&gt;announcements -->
<g id="edge1" class="edge">
<title>unread_announcements:announcement_id&#45;&gt;announcements:id</title>
<path fill="none" stroke="#000000" d="M1827.7381,-796.6164C1775.5563,-786.9418 1801.771,-700.1193 1838,-650 1867.8879,-608.653 1917.1121,-655.347 1947,-614 1972.1255,-579.2413 1989.8889,-517.5 1947,-517.5"/>
<polygon fill="#000000" stroke="#000000" points="1828.0369,-796.642 1837.6139,-801.9834 1833.0184,-797.071 1838,-797.5 1838,-797.5 1838,-797.5 1833.0184,-797.071 1838.3861,-793.0166 1828.0369,-796.642 1828.0369,-796.642"/>
<text text-anchor="start" x="1512.253" y="-807.5" font-family="Arial" font-size="10.00" fill="#000000">FOREIGN KEY (announcement_id) REFERENCES announcements (id)</text>
</g>
<!-- users -->
<g id="node3" class="node">
<title>users</title>
<polygon fill="#efefef" stroke="transparent" points="2054,-532.5 2054,-567.5 2256,-567.5 2256,-532.5 2054,-532.5"/>
<polygon fill="none" stroke="#000000" points="2054,-532.5 2054,-567.5 2256,-567.5 2256,-532.5 2054,-532.5"/>
<text text-anchor="start" x="2084.3708" y="-545.3" font-family="Arial Bold" font-size="18.00" fill="#000000">users</text>
<text text-anchor="start" x="2128.3754" y="-545.3" font-family="Arial" font-size="14.00" fill="#000000"> </text>
<text text-anchor="start" x="2132.266" y="-545.3" font-family="Arial" font-size="14.00" fill="#666666">[BASE TABLE]</text>
<polygon fill="none" stroke="#000000" points="2054,-502.5 2054,-532.5 2256,-532.5 2256,-502.5 2054,-502.5"/>
<text text-anchor="start" x="2061" y="-513.9" font-family="Arial" font-size="14.00" fill="#000000">id </text>
<text text-anchor="start" x="2075.7798" y="-513.9" font-family="Arial" font-size="14.00" fill="#666666">[char(36)]</text>
<polygon fill="none" stroke="#000000" points="2054,-472.5 2054,-502.5 2256,-502.5 2256,-472.5 2054,-472.5"/>
<text text-anchor="start" x="2061" y="-483.9" font-family="Arial" font-size="14.00" fill="#000000">name </text>
<text text-anchor="start" x="2099.899" y="-483.9" font-family="Arial" font-size="14.00" fill="#666666">[varchar(255)]</text>
<polygon fill="none" stroke="#000000" points="2054,-442.5 2054,-472.5 2256,-472.5 2256,-442.5 2054,-442.5"/>
<text text-anchor="start" x="2061" y="-453.9" font-family="Arial" font-size="14.00" fill="#000000">mail_address </text>
<text text-anchor="start" x="2148.1206" y="-453.9" font-family="Arial" font-size="14.00" fill="#666666">[varchar(255)]</text>
<polygon fill="none" stroke="#000000" points="2054,-412.5 2054,-442.5 2256,-442.5 2256,-412.5 2054,-412.5"/>
<text text-anchor="start" x="2060.8668" y="-423.9" font-family="Arial" font-size="14.00" fill="#000000">hashed_password </text>
<text text-anchor="start" x="2178.3506" y="-423.9" font-family="Arial" font-size="14.00" fill="#666666">[binary(60)]</text>
<polygon fill="none" stroke="#000000" points="2054,-382.5 2054,-412.5 2256,-412.5 2256,-382.5 2054,-382.5"/>
<text text-anchor="start" x="2061" y="-393.9" font-family="Arial" font-size="14.00" fill="#000000">type </text>
<text text-anchor="start" x="2091.3464" y="-393.9" font-family="Arial" font-size="14.00" fill="#666666">[enum(&#39;student&#39;,&#39;faculty&#39;)]</text>
</g>
<!-- unread_announcements&#45;&gt;users -->
<g id="edge2" class="edge">
<title>unread_announcements:user_id&#45;&gt;users:id</title>
<path fill="none" stroke="#000000" d="M2153.4028,-766.3231C2191.6844,-756.713 2169.4504,-690.4691 2143,-650 2119.3725,-613.8499 2077.6275,-647.1501 2054,-611 2031.2649,-576.2153 2012.4444,-517.5 2054,-517.5"/>
<polygon fill="#000000" stroke="#000000" points="2152.9366,-766.3758 2142.4941,-763.0285 2147.9683,-766.9379 2143,-767.5 2143,-767.5 2143,-767.5 2147.9683,-766.9379 2143.5059,-771.9715 2152.9366,-766.3758 2152.9366,-766.3758"/>
<text text-anchor="start" x="2149.945" y="-777.5" font-family="Arial" font-size="10.00" fill="#000000">FOREIGN KEY (user_id) REFERENCES users (id)</text>
</g>
<!-- classes -->
<g id="node5" class="node">
<title>classes</title>
<polygon fill="#efefef" stroke="transparent" points="43,-532.5 43,-567.5 273,-567.5 273,-532.5 43,-532.5"/>
<polygon fill="none" stroke="#000000" points="43,-532.5 43,-567.5 273,-567.5 273,-532.5 43,-532.5"/>
<text text-anchor="start" x="79.3698" y="-545.3" font-family="Arial Bold" font-size="18.00" fill="#000000">classes</text>
<text text-anchor="start" x="139.3764" y="-545.3" font-family="Arial" font-size="14.00" fill="#000000"> </text>
<text text-anchor="start" x="143.267" y="-545.3" font-family="Arial" font-size="14.00" fill="#666666">[BASE TABLE]</text>
<polygon fill="none" stroke="#000000" points="43,-502.5 43,-532.5 273,-532.5 273,-502.5 43,-502.5"/>
<text text-anchor="start" x="50" y="-513.9" font-family="Arial" font-size="14.00" fill="#000000">id </text>
<text text-anchor="start" x="64.7798" y="-513.9" font-family="Arial" font-size="14.00" fill="#666666">[char(36)]</text>
<polygon fill="none" stroke="#000000" points="43,-472.5 43,-502.5 273,-502.5 273,-472.5 43,-472.5"/>
<text text-anchor="start" x="50" y="-483.9" font-family="Arial" font-size="14.00" fill="#000000">course_id </text>
<text text-anchor="start" x="114.5708" y="-483.9" font-family="Arial" font-size="14.00" fill="#666666">[char(36)]</text>
<polygon fill="none" stroke="#000000" points="43,-442.5 43,-472.5 273,-472.5 273,-442.5 43,-442.5"/>
<text text-anchor="start" x="50" y="-453.9" font-family="Arial" font-size="14.00" fill="#000000">title </text>
<text text-anchor="start" x="75.6676" y="-453.9" font-family="Arial" font-size="14.00" fill="#666666">[varchar(255)]</text>
<polygon fill="none" stroke="#000000" points="43,-412.5 43,-442.5 273,-442.5 273,-412.5 43,-412.5"/>
<text text-anchor="start" x="50" y="-423.9" font-family="Arial" font-size="14.00" fill="#000000">description </text>
<text text-anchor="start" x="121.568" y="-423.9" font-family="Arial" font-size="14.00" fill="#666666">[text]</text>
<polygon fill="none" stroke="#000000" points="43,-382.5 43,-412.5 273,-412.5 273,-382.5 43,-382.5"/>
<text text-anchor="start" x="49.843" y="-393.9" font-family="Arial" font-size="14.00" fill="#000000">attendance_code </text>
<text text-anchor="start" x="161.1234" y="-393.9" font-family="Arial" font-size="14.00" fill="#666666">[tinyint unsigned]</text>
</g>
<!-- classes&#45;&gt;courses -->
<g id="edge4" class="edge">
<title>classes:course_id&#45;&gt;courses:id</title>
<path fill="none" stroke="#000000" d="M283.0562,-486.6704C336.6761,-476.8732 276.0234,-382.774 325,-337 405.2458,-262.0015 692.163,-207.5 802,-207.5"/>
<polygon fill="#000000" stroke="#000000" points="282.9661,-486.6778 272.63,-483.0152 277.9831,-487.0889 273,-487.5 273,-487.5 273,-487.5 277.9831,-487.0889 273.37,-491.9848 282.9661,-486.6778 282.9661,-486.6778"/>
<text text-anchor="start" x="280.386" y="-497.5" font-family="Arial" font-size="10.00" fill="#000000">FOREIGN KEY (course_id) REFERENCES courses (id)</text>
</g>
<!-- course_requirements -->
<g id="node6" class="node">
<title>course_requirements</title>
<polygon fill="#efefef" stroke="transparent" points="377,-487.5 377,-522.5 657,-522.5 657,-487.5 377,-487.5"/>
<polygon fill="none" stroke="#000000" points="377,-487.5 377,-522.5 657,-522.5 657,-487.5 377,-487.5"/>
<text text-anchor="start" x="383.8595" y="-500.3" font-family="Arial Bold" font-size="18.00" fill="#000000">course_requirements</text>
<text text-anchor="start" x="552.8867" y="-500.3" font-family="Arial" font-size="14.00" fill="#000000"> </text>
<text text-anchor="start" x="556.7773" y="-500.3" font-family="Arial" font-size="14.00" fill="#666666">[BASE TABLE]</text>
<polygon fill="none" stroke="#000000" points="377,-457.5 377,-487.5 657,-487.5 657,-457.5 377,-457.5"/>
<text text-anchor="start" x="384" y="-468.9" font-family="Arial" font-size="14.00" fill="#000000">course_id </text>
<text text-anchor="start" x="448.5708" y="-468.9" font-family="Arial" font-size="14.00" fill="#666666">[char(36)]</text>
<polygon fill="none" stroke="#000000" points="377,-427.5 377,-457.5 657,-457.5 657,-427.5 377,-427.5"/>
<text text-anchor="start" x="384" y="-438.9" font-family="Arial" font-size="14.00" fill="#000000">required_course_id </text>
<text text-anchor="start" x="507.6942" y="-438.9" font-family="Arial" font-size="14.00" fill="#666666">[char(36)]</text>
</g>
<!-- course_requirements&#45;&gt;courses -->
<g id="edge5" class="edge">
<title>course_requirements:course_id&#45;&gt;courses:id</title>
<path fill="none" stroke="#000000" d="M667.2666,-471.7094C716.7041,-463.3496 680.1742,-390.4472 709,-337 742.6367,-274.6328 731.1404,-207.5 802,-207.5"/>
<polygon fill="#000000" stroke="#000000" points="666.9705,-471.7321 656.6545,-468.0133 661.9852,-472.1161 657,-472.5 657,-472.5 657,-472.5 661.9852,-472.1161 657.3455,-476.9867 666.9705,-471.7321 666.9705,-471.7321"/>
<text text-anchor="start" x="533.886" y="-456.5" font-family="Arial" font-size="10.00" fill="#000000">FOREIGN KEY (course_id) REFERENCES courses (id)</text>
</g>
<!-- course_requirements&#45;&gt;courses -->
<g id="edge6" class="edge">
<title>course_requirements:required_course_id&#45;&gt;courses:id</title>
<path fill="none" stroke="#000000" d="M667.3811,-441.5286C705.5401,-433.5811 684.1027,-378.4998 709,-337 745.4541,-276.2367 731.1404,-207.5 802,-207.5"/>
<polygon fill="#000000" stroke="#000000" points="666.9565,-441.5683 656.5807,-438.0196 661.9783,-442.0341 657,-442.5 657,-442.5 657,-442.5 661.9783,-442.0341 657.4193,-446.9804 666.9565,-441.5683 666.9565,-441.5683"/>
<text text-anchor="start" x="512.7705" y="-426.5" font-family="Arial" font-size="10.00" fill="#000000">FOREIGN KEY (required_course_id) REFERENCES courses (id)</text>
</g>
<!-- course_schedules -->
<g id="node7" class="node">
<title>course_schedules</title>
<polygon fill="#efefef" stroke="transparent" points="761,-487.5 761,-522.5 1017,-522.5 1017,-487.5 761,-487.5"/>
<polygon fill="none" stroke="#000000" points="761,-487.5 761,-522.5 1017,-522.5 1017,-487.5 761,-487.5"/>
<text text-anchor="start" x="767.852" y="-500.3" font-family="Arial Bold" font-size="18.00" fill="#000000">course_schedules</text>
<text text-anchor="start" x="912.8942" y="-500.3" font-family="Arial" font-size="14.00" fill="#000000"> </text>
<text text-anchor="start" x="916.7848" y="-500.3" font-family="Arial" font-size="14.00" fill="#666666">[BASE TABLE]</text>
<polygon fill="none" stroke="#000000" points="761,-457.5 761,-487.5 1017,-487.5 1017,-457.5 761,-457.5"/>
<text text-anchor="start" x="768" y="-468.9" font-family="Arial" font-size="14.00" fill="#000000">course_id </text>
<text text-anchor="start" x="832.5708" y="-468.9" font-family="Arial" font-size="14.00" fill="#666666">[char(36)]</text>
<polygon fill="none" stroke="#000000" points="761,-427.5 761,-457.5 1017,-457.5 1017,-427.5 761,-427.5"/>
<text text-anchor="start" x="768" y="-438.9" font-family="Arial" font-size="14.00" fill="#000000">schedule_id </text>
<text text-anchor="start" x="846.582" y="-438.9" font-family="Arial" font-size="14.00" fill="#666666">[char(36)]</text>
</g>
<!-- course_schedules&#45;&gt;courses -->
<g id="edge7" class="edge">
<title>course_schedules:course_id&#45;&gt;courses:id</title>
<path fill="none" stroke="#000000" d="M1026.7358,-469.7032C1071.5566,-441.3816 1031.9816,-207.5 976,-207.5"/>
<polygon fill="#000000" stroke="#000000" points="1026.6113,-469.7389 1015.7575,-468.1749 1021.8056,-471.1195 1017,-472.5 1017,-472.5 1017,-472.5 1021.8056,-471.1195 1018.2425,-476.8251 1026.6113,-469.7389 1026.6113,-469.7389"/>
<text text-anchor="start" x="1024.386" y="-482.5" font-family="Arial" font-size="10.00" fill="#000000">FOREIGN KEY (course_id) REFERENCES courses (id)</text>
</g>
<!-- grades -->
<g id="node8" class="node">
<title>grades</title>
<polygon fill="#efefef" stroke="transparent" points="1121,-517.5 1121,-552.5 1287,-552.5 1287,-517.5 1121,-517.5"/>
<polygon fill="none" stroke="#000000" points="1121,-517.5 1121,-552.5 1287,-552.5 1287,-517.5 1121,-517.5"/>
<text text-anchor="start" x="1127.8646" y="-530.3" font-family="Arial Bold" font-size="18.00" fill="#000000">grades</text>
<text text-anchor="start" x="1182.8816" y="-530.3" font-family="Arial" font-size="14.00" fill="#000000"> </text>
<text text-anchor="start" x="1186.7722" y="-530.3" font-family="Arial" font-size="14.00" fill="#666666">[BASE TABLE]</text>
<polygon fill="none" stroke="#000000" points="1121,-487.5 1121,-517.5 1287,-517.5 1287,-487.5 1121,-487.5"/>
<text text-anchor="start" x="1128" y="-498.9" font-family="Arial" font-size="14.00" fill="#000000">id </text>
<text text-anchor="start" x="1142.7798" y="-498.9" font-family="Arial" font-size="14.00" fill="#666666">[char(36)]</text>
<polygon fill="none" stroke="#000000" points="1121,-457.5 1121,-487.5 1287,-487.5 1287,-457.5 1121,-457.5"/>
<text text-anchor="start" x="1128" y="-468.9" font-family="Arial" font-size="14.00" fill="#000000">user_id </text>
<text text-anchor="start" x="1177.7882" y="-468.9" font-family="Arial" font-size="14.00" fill="#666666">[char(36)]</text>
<polygon fill="none" stroke="#000000" points="1121,-427.5 1121,-457.5 1287,-457.5 1287,-427.5 1121,-427.5"/>
<text text-anchor="start" x="1128" y="-438.9" font-family="Arial" font-size="14.00" fill="#000000">course_id </text>
<text text-anchor="start" x="1192.5708" y="-438.9" font-family="Arial" font-size="14.00" fill="#666666">[char(36)]</text>
<polygon fill="none" stroke="#000000" points="1121,-397.5 1121,-427.5 1287,-427.5 1287,-397.5 1121,-397.5"/>
<text text-anchor="start" x="1128" y="-408.9" font-family="Arial" font-size="14.00" fill="#000000">grade </text>
<text text-anchor="start" x="1167.6816" y="-408.9" font-family="Arial" font-size="14.00" fill="#666666">[int unsigned]</text>
</g>
<!-- grades&#45;&gt;courses -->
<g id="edge8" class="edge">
<title>grades:course_id&#45;&gt;courses:id</title>
<path fill="none" stroke="#000000" d="M1110.6189,-441.5286C1072.4599,-433.5811 1093.8973,-378.4998 1069,-337 1032.5459,-276.2367 1046.8596,-207.5 976,-207.5"/>
<polygon fill="#000000" stroke="#000000" points="1111.0435,-441.5683 1120.5807,-446.9804 1116.0217,-442.0341 1121,-442.5 1121,-442.5 1121,-442.5 1116.0217,-442.0341 1121.4193,-438.0196 1111.0435,-441.5683 1111.0435,-441.5683"/>
<text text-anchor="start" x="1128.386" y="-452.5" font-family="Arial" font-size="10.00" fill="#000000">FOREIGN KEY (course_id) REFERENCES courses (id)</text>
</g>
<!-- registrations -->
<g id="node9" class="node">
<title>registrations</title>
<polygon fill="#efefef" stroke="transparent" points="1392,-517.5 1392,-552.5 1601,-552.5 1601,-517.5 1392,-517.5"/>
<polygon fill="none" stroke="#000000" points="1392,-517.5 1392,-552.5 1601,-552.5 1601,-517.5 1392,-517.5"/>
<text text-anchor="start" x="1398.869" y="-530.3" font-family="Arial Bold" font-size="18.00" fill="#000000">registrations</text>
<text text-anchor="start" x="1496.8772" y="-530.3" font-family="Arial" font-size="14.00" fill="#000000"> </text>
<text text-anchor="start" x="1500.7678" y="-530.3" font-family="Arial" font-size="14.00" fill="#666666">[BASE TABLE]</text>
<polygon fill="none" stroke="#000000" points="1392,-487.5 1392,-517.5 1601,-517.5 1601,-487.5 1392,-487.5"/>
<text text-anchor="start" x="1399" y="-498.9" font-family="Arial" font-size="14.00" fill="#000000">course_id </text>
<text text-anchor="start" x="1463.5708" y="-498.9" font-family="Arial" font-size="14.00" fill="#666666">[char(36)]</text>
<polygon fill="none" stroke="#000000" points="1392,-457.5 1392,-487.5 1601,-487.5 1601,-457.5 1392,-457.5"/>
<text text-anchor="start" x="1399" y="-468.9" font-family="Arial" font-size="14.00" fill="#000000">user_id </text>
<text text-anchor="start" x="1448.7882" y="-468.9" font-family="Arial" font-size="14.00" fill="#666666">[char(36)]</text>
<polygon fill="none" stroke="#000000" points="1392,-427.5 1392,-457.5 1601,-457.5 1601,-427.5 1392,-427.5"/>
<text text-anchor="start" x="1399" y="-438.9" font-family="Arial" font-size="14.00" fill="#000000">created_at </text>
<text text-anchor="start" x="1469.028" y="-438.9" font-family="Arial" font-size="14.00" fill="#666666">[datetime(6)]</text>
<polygon fill="none" stroke="#000000" points="1392,-397.5 1392,-427.5 1601,-427.5 1601,-397.5 1392,-397.5"/>
<text text-anchor="start" x="1399" y="-408.9" font-family="Arial" font-size="14.00" fill="#000000">delete_at </text>
<text text-anchor="start" x="1460.474" y="-408.9" font-family="Arial" font-size="14.00" fill="#666666">[datetime(6)]</text>
</g>
<!-- registrations&#45;&gt;courses -->
<g id="edge9" class="edge">
<title>registrations:course_id&#45;&gt;courses:id</title>
<path fill="none" stroke="#000000" d="M1381.7628,-501.7324C1322.0629,-491.8878 1390.0893,-389.7906 1339,-337 1219.8777,-213.9108 1147.2924,-207.5 976,-207.5"/>
<polygon fill="#000000" stroke="#000000" points="1382.028,-501.7522 1391.6635,-506.9874 1387.014,-502.1261 1392,-502.5 1392,-502.5 1392,-502.5 1387.014,-502.1261 1392.3365,-498.0126 1382.028,-501.7522 1382.028,-501.7522"/>
<text text-anchor="start" x="1138.386" y="-512.5" font-family="Arial" font-size="10.00" fill="#000000">FOREIGN KEY (course_id) REFERENCES courses (id)</text>
</g>
</g>
</svg>
