<?xml version="1.0" encoding="UTF-8" standalone="no"?>
<!DOCTYPE svg PUBLIC "-//W3C//DTD SVG 1.1//EN"
 "http://www.w3.org/Graphics/SVG/1.1/DTD/svg11.dtd">
<!-- Generated by graphviz version 2.40.1 (20161225.0304)
 -->
<!-- Title: announcements Pages: 1 -->
<svg width="874pt" height="899pt"
 viewBox="0.00 0.00 874.00 899.00" xmlns="http://www.w3.org/2000/svg" xmlns:xlink="http://www.w3.org/1999/xlink">
<g id="graph0" class="graph" transform="scale(1 1) rotate(0) translate(4 895)">
<title>announcements</title>
<polygon fill="#ffffff" stroke="transparent" points="-4,4 -4,-895 870,-895 870,4 -4,4"/>
<!-- announcements -->
<g id="node1" class="node">
<title>announcements</title>
<polygon fill="#efefef" stroke="transparent" points="366,-532.5 366,-567.5 605,-567.5 605,-532.5 366,-532.5"/>
<polygon fill="none" stroke="#000000" points="366,-532.5 366,-567.5 605,-567.5 605,-532.5 366,-532.5"/>
<text text-anchor="start" x="372.848" y="-545.3" font-family="Arial Bold" font-size="18.00" fill="#000000">announcements</text>
<text text-anchor="start" x="500.8982" y="-545.3" font-family="Arial" font-size="14.00" fill="#000000"> </text>
<text text-anchor="start" x="504.7888" y="-545.3" font-family="Arial" font-size="14.00" fill="#666666">[BASE TABLE]</text>
<polygon fill="none" stroke="#000000" points="366,-502.5 366,-532.5 605,-532.5 605,-502.5 366,-502.5"/>
<text text-anchor="start" x="373" y="-513.9" font-family="Arial" font-size="14.00" fill="#000000">id </text>
<text text-anchor="start" x="387.7798" y="-513.9" font-family="Arial" font-size="14.00" fill="#666666">[char(36)]</text>
<polygon fill="none" stroke="#000000" points="366,-472.5 366,-502.5 605,-502.5 605,-472.5 366,-472.5"/>
<text text-anchor="start" x="373" y="-483.9" font-family="Arial" font-size="14.00" fill="#000000">course_id </text>
<text text-anchor="start" x="437.5708" y="-483.9" font-family="Arial" font-size="14.00" fill="#666666">[char(36)]</text>
<polygon fill="none" stroke="#000000" points="366,-442.5 366,-472.5 605,-472.5 605,-442.5 366,-442.5"/>
<text text-anchor="start" x="373" y="-453.9" font-family="Arial" font-size="14.00" fill="#000000">title </text>
<text text-anchor="start" x="398.6676" y="-453.9" font-family="Arial" font-size="14.00" fill="#666666">[varchar(255)]</text>
<polygon fill="none" stroke="#000000" points="366,-412.5 366,-442.5 605,-442.5 605,-412.5 366,-412.5"/>
<text text-anchor="start" x="373" y="-423.9" font-family="Arial" font-size="14.00" fill="#000000">message </text>
<text text-anchor="start" x="433.6816" y="-423.9" font-family="Arial" font-size="14.00" fill="#666666">[text]</text>
<polygon fill="none" stroke="#000000" points="366,-382.5 366,-412.5 605,-412.5 605,-382.5 366,-382.5"/>
<text text-anchor="start" x="373" y="-393.9" font-family="Arial" font-size="14.00" fill="#000000">created_at </text>
<text text-anchor="start" x="443.028" y="-393.9" font-family="Arial" font-size="14.00" fill="#666666">[datetime(6)]</text>
<polygon fill="none" stroke="#000000" stroke-width="3" points="364,-381.5 364,-569.5 606,-569.5 606,-381.5 364,-381.5"/>
</g>
<!-- courses -->
<g id="node3" class="node">
<title>courses</title>
<polygon fill="#efefef" stroke="transparent" points="399,-222.5 399,-257.5 573,-257.5 573,-222.5 399,-222.5"/>
<polygon fill="none" stroke="#000000" points="399,-222.5 399,-257.5 573,-257.5 573,-222.5 399,-222.5"/>
<text text-anchor="start" x="405.8677" y="-235.3" font-family="Arial Bold" font-size="18.00" fill="#000000">courses</text>
<text text-anchor="start" x="468.8785" y="-235.3" font-family="Arial" font-size="14.00" fill="#000000"> </text>
<text text-anchor="start" x="472.7691" y="-235.3" font-family="Arial" font-size="14.00" fill="#666666">[BASE TABLE]</text>
<polygon fill="none" stroke="#000000" points="399,-192.5 399,-222.5 573,-222.5 573,-192.5 399,-192.5"/>
<text text-anchor="start" x="406" y="-203.9" font-family="Arial" font-size="14.00" fill="#000000">id </text>
<text text-anchor="start" x="420.7798" y="-203.9" font-family="Arial" font-size="14.00" fill="#666666">[char(36)]</text>
<polygon fill="none" stroke="#000000" points="399,-162.5 399,-192.5 573,-192.5 573,-162.5 399,-162.5"/>
<text text-anchor="start" x="406" y="-173.9" font-family="Arial" font-size="14.00" fill="#000000">name </text>
<text text-anchor="start" x="444.899" y="-173.9" font-family="Arial" font-size="14.00" fill="#666666">[varchar(255)]</text>
<polygon fill="none" stroke="#000000" points="399,-132.5 399,-162.5 573,-162.5 573,-132.5 399,-132.5"/>
<text text-anchor="start" x="406" y="-143.9" font-family="Arial" font-size="14.00" fill="#000000">description </text>
<text text-anchor="start" x="477.568" y="-143.9" font-family="Arial" font-size="14.00" fill="#666666">[text]</text>
<polygon fill="none" stroke="#000000" points="399,-102.5 399,-132.5 573,-132.5 573,-102.5 399,-102.5"/>
<text text-anchor="start" x="406" y="-113.9" font-family="Arial" font-size="14.00" fill="#000000">credit </text>
<text text-anchor="start" x="444.1136" y="-113.9" font-family="Arial" font-size="14.00" fill="#666666">[tinyint unsigned]</text>
<polygon fill="none" stroke="#000000" points="399,-72.5 399,-102.5 573,-102.5 573,-72.5 399,-72.5"/>
<text text-anchor="start" x="406" y="-83.9" font-family="Arial" font-size="14.00" fill="#000000">classroom </text>
<text text-anchor="start" x="473.6662" y="-83.9" font-family="Arial" font-size="14.00" fill="#666666">[varchar(255)]</text>
<polygon fill="none" stroke="#000000" points="399,-42.5 399,-72.5 573,-72.5 573,-42.5 399,-42.5"/>
<text text-anchor="start" x="406" y="-53.9" font-family="Arial" font-size="14.00" fill="#000000">capacity </text>
<text text-anchor="start" x="461.2356" y="-53.9" font-family="Arial" font-size="14.00" fill="#666666">[int unsigned]</text>
</g>
<!-- announcements&#45;&gt;courses -->
<g id="edge2" class="edge">
<title>announcements:course_id&#45;&gt;courses:id</title>
<path fill="none" stroke="#000000" d="M615.1715,-486.6332C669.2224,-476.7837 645.6809,-385.4067 605,-337 545.2031,-265.847 458.7969,-372.153 399,-301 372.2644,-269.1869 357.4444,-207.5 399,-207.5"/>
<polygon fill="#000000" stroke="#000000" points="614.9639,-486.6508 604.6179,-483.0163 609.9819,-487.0754 605,-487.5 605,-487.5 605,-487.5 609.9819,-487.0754 605.3821,-491.9837 614.9639,-486.6508 614.9639,-486.6508"/>
<text text-anchor="start" x="612.386" y="-497.5" font-family="Arial" font-size="10.00" fill="#000000">FOREIGN KEY (course_id) REFERENCES courses (id)</text>
</g>
<!-- unread_announcements -->
<g id="node2" class="node">
<title>unread_announcements</title>
<polygon fill="#efefef" stroke="transparent" points="333,-812.5 333,-847.5 638,-847.5 638,-812.5 333,-812.5"/>
<polygon fill="none" stroke="#000000" points="333,-812.5 333,-847.5 638,-847.5 638,-812.5 333,-812.5"/>
<text text-anchor="start" x="339.8333" y="-825.3" font-family="Arial Bold" font-size="18.00" fill="#000000">unread_announcements</text>
<text text-anchor="start" x="533.9129" y="-825.3" font-family="Arial" font-size="14.00" fill="#000000"> </text>
<text text-anchor="start" x="537.8035" y="-825.3" font-family="Arial" font-size="14.00" fill="#666666">[BASE TABLE]</text>
<polygon fill="none" stroke="#000000" points="333,-782.5 333,-812.5 638,-812.5 638,-782.5 333,-782.5"/>
<text text-anchor="start" x="340" y="-793.9" font-family="Arial" font-size="14.00" fill="#000000">announcement_id </text>
<text text-anchor="start" x="455.157" y="-793.9" font-family="Arial" font-size="14.00" fill="#666666">[char(36)]</text>
<polygon fill="none" stroke="#000000" points="333,-752.5 333,-782.5 638,-782.5 638,-752.5 333,-752.5"/>
<text text-anchor="start" x="340" y="-763.9" font-family="Arial" font-size="14.00" fill="#000000">user_id </text>
<text text-anchor="start" x="389.7882" y="-763.9" font-family="Arial" font-size="14.00" fill="#666666">[char(36)]</text>
<polygon fill="none" stroke="#000000" points="333,-722.5 333,-752.5 638,-752.5 638,-722.5 333,-722.5"/>
<text text-anchor="start" x="340" y="-733.9" font-family="Arial" font-size="14.00" fill="#000000">created_at </text>
<text text-anchor="start" x="410.028" y="-733.9" font-family="Arial" font-size="14.00" fill="#666666">[datetime(6)]</text>
<polygon fill="none" stroke="#000000" points="333,-692.5 333,-722.5 638,-722.5 638,-692.5 333,-692.5"/>
<text text-anchor="start" x="340" y="-703.9" font-family="Arial" font-size="14.00" fill="#000000">deleted_at </text>
<text text-anchor="start" x="409.2566" y="-703.9" font-family="Arial" font-size="14.00" fill="#666666">[datetime(6)]</text>
</g>
<!-- unread_announcements&#45;&gt;announcements -->
<g id="edge1" class="edge">
<title>unread_announcements:announcement_id&#45;&gt;announcements:id</title>
<path fill="none" stroke="#000000" d="M322.7333,-796.839C209.6374,-781.8652 244.2429,-517.5 366,-517.5"/>
<polygon fill="#000000" stroke="#000000" points="323.0207,-796.8574 332.7108,-801.9907 328.0103,-797.1787 333,-797.5 333,-797.5 333,-797.5 328.0103,-797.1787 333.2892,-793.0093 323.0207,-796.8574 323.0207,-796.8574"/>
<text text-anchor="start" x="7.253" y="-807.5" font-family="Arial" font-size="10.00" fill="#000000">FOREIGN KEY (announcement_id) REFERENCES announcements (id)</text>
</g>
</g>
</svg>
