<?xml version="1.0" encoding="UTF-8" standalone="no"?>
<!DOCTYPE svg PUBLIC "-//W3C//DTD SVG 1.1//EN"
 "http://www.w3.org/Graphics/SVG/1.1/DTD/svg11.dtd">
<!-- Generated by graphviz version 2.40.1 (20161225.0304)
 -->
<!-- Title: announcements Pages: 1 -->
<svg width="1787pt" height="899pt"
 viewBox="0.00 0.00 1787.00 899.00" xmlns="http://www.w3.org/2000/svg" xmlns:xlink="http://www.w3.org/1999/xlink">
<g id="graph0" class="graph" transform="scale(1 1) rotate(0) translate(4 895)">
<title>announcements</title>
<polygon fill="#ffffff" stroke="transparent" points="-4,4 -4,-895 1783,-895 1783,4 -4,4"/>
<!-- announcements -->
<g id="node1" class="node">
<title>announcements</title>
<polygon fill="#efefef" stroke="transparent" points="1104,-532.5 1104,-567.5 1343,-567.5 1343,-532.5 1104,-532.5"/>
<polygon fill="none" stroke="#000000" points="1104,-532.5 1104,-567.5 1343,-567.5 1343,-532.5 1104,-532.5"/>
<text text-anchor="start" x="1110.848" y="-545.3" font-family="Arial Bold" font-size="18.00" fill="#000000">announcements</text>
<text text-anchor="start" x="1238.8982" y="-545.3" font-family="Arial" font-size="14.00" fill="#000000"> </text>
<text text-anchor="start" x="1242.7888" y="-545.3" font-family="Arial" font-size="14.00" fill="#666666">[BASE TABLE]</text>
<polygon fill="none" stroke="#000000" points="1104,-502.5 1104,-532.5 1343,-532.5 1343,-502.5 1104,-502.5"/>
<text text-anchor="start" x="1111" y="-513.9" font-family="Arial" font-size="14.00" fill="#000000">id </text>
<text text-anchor="start" x="1125.7798" y="-513.9" font-family="Arial" font-size="14.00" fill="#666666">[char(36)]</text>
<polygon fill="none" stroke="#000000" points="1104,-472.5 1104,-502.5 1343,-502.5 1343,-472.5 1104,-472.5"/>
<text text-anchor="start" x="1111" y="-483.9" font-family="Arial" font-size="14.00" fill="#000000">course_id </text>
<text text-anchor="start" x="1175.5708" y="-483.9" font-family="Arial" font-size="14.00" fill="#666666">[char(36)]</text>
<polygon fill="none" stroke="#000000" points="1104,-442.5 1104,-472.5 1343,-472.5 1343,-442.5 1104,-442.5"/>
<text text-anchor="start" x="1111" y="-453.9" font-family="Arial" font-size="14.00" fill="#000000">title </text>
<text text-anchor="start" x="1136.6676" y="-453.9" font-family="Arial" font-size="14.00" fill="#666666">[varchar(255)]</text>
<polygon fill="none" stroke="#000000" points="1104,-412.5 1104,-442.5 1343,-442.5 1343,-412.5 1104,-412.5"/>
<text text-anchor="start" x="1111" y="-423.9" font-family="Arial" font-size="14.00" fill="#000000">message </text>
<text text-anchor="start" x="1171.6816" y="-423.9" font-family="Arial" font-size="14.00" fill="#666666">[text]</text>
<polygon fill="none" stroke="#000000" points="1104,-382.5 1104,-412.5 1343,-412.5 1343,-382.5 1104,-382.5"/>
<text text-anchor="start" x="1111" y="-393.9" font-family="Arial" font-size="14.00" fill="#000000">created_at </text>
<text text-anchor="start" x="1181.028" y="-393.9" font-family="Arial" font-size="14.00" fill="#666666">[datetime(6)]</text>
<polygon fill="none" stroke="#000000" stroke-width="3" points="1102,-381.5 1102,-569.5 1344,-569.5 1344,-381.5 1102,-381.5"/>
</g>
<!-- courses -->
<g id="node4" class="node">
<title>courses</title>
<polygon fill="#efefef" stroke="transparent" points="468,-222.5 468,-257.5 642,-257.5 642,-222.5 468,-222.5"/>
<polygon fill="none" stroke="#000000" points="468,-222.5 468,-257.5 642,-257.5 642,-222.5 468,-222.5"/>
<text text-anchor="start" x="474.8677" y="-235.3" font-family="Arial Bold" font-size="18.00" fill="#000000">courses</text>
<text text-anchor="start" x="537.8785" y="-235.3" font-family="Arial" font-size="14.00" fill="#000000"> </text>
<text text-anchor="start" x="541.7691" y="-235.3" font-family="Arial" font-size="14.00" fill="#666666">[BASE TABLE]</text>
<polygon fill="none" stroke="#000000" points="468,-192.5 468,-222.5 642,-222.5 642,-192.5 468,-192.5"/>
<text text-anchor="start" x="475" y="-203.9" font-family="Arial" font-size="14.00" fill="#000000">id </text>
<text text-anchor="start" x="489.7798" y="-203.9" font-family="Arial" font-size="14.00" fill="#666666">[char(36)]</text>
<polygon fill="none" stroke="#000000" points="468,-162.5 468,-192.5 642,-192.5 642,-162.5 468,-162.5"/>
<text text-anchor="start" x="475" y="-173.9" font-family="Arial" font-size="14.00" fill="#000000">name </text>
<text text-anchor="start" x="513.899" y="-173.9" font-family="Arial" font-size="14.00" fill="#666666">[varchar(255)]</text>
<polygon fill="none" stroke="#000000" points="468,-132.5 468,-162.5 642,-162.5 642,-132.5 468,-132.5"/>
<text text-anchor="start" x="475" y="-143.9" font-family="Arial" font-size="14.00" fill="#000000">description </text>
<text text-anchor="start" x="546.568" y="-143.9" font-family="Arial" font-size="14.00" fill="#666666">[text]</text>
<polygon fill="none" stroke="#000000" points="468,-102.5 468,-132.5 642,-132.5 642,-102.5 468,-102.5"/>
<text text-anchor="start" x="475" y="-113.9" font-family="Arial" font-size="14.00" fill="#000000">credit </text>
<text text-anchor="start" x="513.1136" y="-113.9" font-family="Arial" font-size="14.00" fill="#666666">[tinyint unsigned]</text>
<polygon fill="none" stroke="#000000" points="468,-72.5 468,-102.5 642,-102.5 642,-72.5 468,-72.5"/>
<text text-anchor="start" x="475" y="-83.9" font-family="Arial" font-size="14.00" fill="#000000">classroom </text>
<text text-anchor="start" x="542.6662" y="-83.9" font-family="Arial" font-size="14.00" fill="#666666">[varchar(255)]</text>
<polygon fill="none" stroke="#000000" points="468,-42.5 468,-72.5 642,-72.5 642,-42.5 468,-42.5"/>
<text text-anchor="start" x="475" y="-53.9" font-family="Arial" font-size="14.00" fill="#000000">capacity </text>
<text text-anchor="start" x="530.2356" y="-53.9" font-family="Arial" font-size="14.00" fill="#666666">[int unsigned]</text>
</g>
<!-- announcements&#45;&gt;courses -->
<g id="edge3" class="edge">
<title>announcements:course_id&#45;&gt;courses:id</title>
<path fill="none" stroke="#000000" d="M1093.854,-486.678C1039.5859,-476.9689 1097.7,-383.6815 1049,-337 980.4819,-271.3218 736.9124,-207.5 642,-207.5"/>
<polygon fill="#000000" stroke="#000000" points="1094.0327,-486.6924 1103.6366,-491.9853 1099.0163,-487.0962 1104,-487.5 1104,-487.5 1104,-487.5 1099.0163,-487.0962 1104.3634,-483.0147 1094.0327,-486.6924 1094.0327,-486.6924"/>
<text text-anchor="start" x="1111.386" y="-497.5" font-family="Arial" font-size="10.00" fill="#000000">FOREIGN KEY (course_id) REFERENCES courses (id)</text>
</g>
<!-- unread_announcements -->
<g id="node2" class="node">
<title>unread_announcements</title>
<polygon fill="#efefef" stroke="transparent" points="1234,-812.5 1234,-847.5 1539,-847.5 1539,-812.5 1234,-812.5"/>
<polygon fill="none" stroke="#000000" points="1234,-812.5 1234,-847.5 1539,-847.5 1539,-812.5 1234,-812.5"/>
<text text-anchor="start" x="1240.8333" y="-825.3" font-family="Arial Bold" font-size="18.00" fill="#000000">unread_announcements</text>
<text text-anchor="start" x="1434.9129" y="-825.3" font-family="Arial" font-size="14.00" fill="#000000"> </text>
<text text-anchor="start" x="1438.8035" y="-825.3" font-family="Arial" font-size="14.00" fill="#666666">[BASE TABLE]</text>
<polygon fill="none" stroke="#000000" points="1234,-782.5 1234,-812.5 1539,-812.5 1539,-782.5 1234,-782.5"/>
<text text-anchor="start" x="1241" y="-793.9" font-family="Arial" font-size="14.00" fill="#000000">announcement_id </text>
<text text-anchor="start" x="1356.157" y="-793.9" font-family="Arial" font-size="14.00" fill="#666666">[char(36)]</text>
<polygon fill="none" stroke="#000000" points="1234,-752.5 1234,-782.5 1539,-782.5 1539,-752.5 1234,-752.5"/>
<text text-anchor="start" x="1241" y="-763.9" font-family="Arial" font-size="14.00" fill="#000000">user_id </text>
<text text-anchor="start" x="1290.7882" y="-763.9" font-family="Arial" font-size="14.00" fill="#666666">[char(36)]</text>
<polygon fill="none" stroke="#000000" points="1234,-722.5 1234,-752.5 1539,-752.5 1539,-722.5 1234,-722.5"/>
<text text-anchor="start" x="1241" y="-733.9" font-family="Arial" font-size="14.00" fill="#000000">created_at </text>
<text text-anchor="start" x="1311.028" y="-733.9" font-family="Arial" font-size="14.00" fill="#666666">[datetime(6)]</text>
<polygon fill="none" stroke="#000000" points="1234,-692.5 1234,-722.5 1539,-722.5 1539,-692.5 1234,-692.5"/>
<text text-anchor="start" x="1241" y="-703.9" font-family="Arial" font-size="14.00" fill="#000000">delete_at </text>
<text text-anchor="start" x="1302.474" y="-703.9" font-family="Arial" font-size="14.00" fill="#666666">[datetime(6)]</text>
</g>
<!-- unread_announcements&#45;&gt;announcements -->
<g id="edge1" class="edge">
<title>unread_announcements:announcement_id&#45;&gt;announcements:id</title>
<path fill="none" stroke="#000000" d="M1223.7381,-796.6164C1171.5563,-786.9418 1197.771,-700.1193 1234,-650 1263.8879,-608.653 1313.1121,-655.347 1343,-614 1368.1255,-579.2413 1385.8889,-517.5 1343,-517.5"/>
<polygon fill="#000000" stroke="#000000" points="1224.0369,-796.642 1233.6139,-801.9834 1229.0184,-797.071 1234,-797.5 1234,-797.5 1234,-797.5 1229.0184,-797.071 1234.3861,-793.0166 1224.0369,-796.642 1224.0369,-796.642"/>
<text text-anchor="start" x="908.253" y="-807.5" font-family="Arial" font-size="10.00" fill="#000000">FOREIGN KEY (announcement_id) REFERENCES announcements (id)</text>
</g>
<!-- users -->
<g id="node3" class="node">
<title>users</title>
<polygon fill="#efefef" stroke="transparent" points="1450,-532.5 1450,-567.5 1652,-567.5 1652,-532.5 1450,-532.5"/>
<polygon fill="none" stroke="#000000" points="1450,-532.5 1450,-567.5 1652,-567.5 1652,-532.5 1450,-532.5"/>
<text text-anchor="start" x="1480.3708" y="-545.3" font-family="Arial Bold" font-size="18.00" fill="#000000">users</text>
<text text-anchor="start" x="1524.3754" y="-545.3" font-family="Arial" font-size="14.00" fill="#000000"> </text>
<text text-anchor="start" x="1528.266" y="-545.3" font-family="Arial" font-size="14.00" fill="#666666">[BASE TABLE]</text>
<polygon fill="none" stroke="#000000" points="1450,-502.5 1450,-532.5 1652,-532.5 1652,-502.5 1450,-502.5"/>
<text text-anchor="start" x="1457" y="-513.9" font-family="Arial" font-size="14.00" fill="#000000">id </text>
<text text-anchor="start" x="1471.7798" y="-513.9" font-family="Arial" font-size="14.00" fill="#666666">[char(36)]</text>
<polygon fill="none" stroke="#000000" points="1450,-472.5 1450,-502.5 1652,-502.5 1652,-472.5 1450,-472.5"/>
<text text-anchor="start" x="1457" y="-483.9" font-family="Arial" font-size="14.00" fill="#000000">name </text>
<text text-anchor="start" x="1495.899" y="-483.9" font-family="Arial" font-size="14.00" fill="#666666">[varchar(255)]</text>
<polygon fill="none" stroke="#000000" points="1450,-442.5 1450,-472.5 1652,-472.5 1652,-442.5 1450,-442.5"/>
<text text-anchor="start" x="1457" y="-453.9" font-family="Arial" font-size="14.00" fill="#000000">mail_address </text>
<text text-anchor="start" x="1544.1206" y="-453.9" font-family="Arial" font-size="14.00" fill="#666666">[varchar(255)]</text>
<polygon fill="none" stroke="#000000" points="1450,-412.5 1450,-442.5 1652,-442.5 1652,-412.5 1450,-412.5"/>
<text text-anchor="start" x="1456.8668" y="-423.9" font-family="Arial" font-size="14.00" fill="#000000">hashed_password </text>
<text text-anchor="start" x="1574.3506" y="-423.9" font-family="Arial" font-size="14.00" fill="#666666">[binary(60)]</text>
<polygon fill="none" stroke="#000000" points="1450,-382.5 1450,-412.5 1652,-412.5 1652,-382.5 1450,-382.5"/>
<text text-anchor="start" x="1457" y="-393.9" font-family="Arial" font-size="14.00" fill="#000000">type </text>
<text text-anchor="start" x="1487.3464" y="-393.9" font-family="Arial" font-size="14.00" fill="#666666">[enum(&#39;student&#39;,&#39;faculty&#39;)]</text>
</g>
<!-- unread_announcements&#45;&gt;users -->
<g id="edge2" class="edge">
<title>unread_announcements:user_id&#45;&gt;users:id</title>
<path fill="none" stroke="#000000" d="M1549.4028,-766.3231C1587.6844,-756.713 1565.4504,-690.4691 1539,-650 1515.3725,-613.8499 1473.6275,-647.1501 1450,-611 1427.2649,-576.2153 1408.4444,-517.5 1450,-517.5"/>
<polygon fill="#000000" stroke="#000000" points="1548.9366,-766.3758 1538.4941,-763.0285 1543.9683,-766.9379 1539,-767.5 1539,-767.5 1539,-767.5 1543.9683,-766.9379 1539.5059,-771.9715 1548.9366,-766.3758 1548.9366,-766.3758"/>
<text text-anchor="start" x="1545.945" y="-777.5" font-family="Arial" font-size="10.00" fill="#000000">FOREIGN KEY (user_id) REFERENCES users (id)</text>
</g>
<!-- course_requirements -->
<g id="node5" class="node">
<title>course_requirements</title>
<polygon fill="#efefef" stroke="transparent" points="43,-487.5 43,-522.5 323,-522.5 323,-487.5 43,-487.5"/>
<polygon fill="none" stroke="#000000" points="43,-487.5 43,-522.5 323,-522.5 323,-487.5 43,-487.5"/>
<text text-anchor="start" x="49.8595" y="-500.3" font-family="Arial Bold" font-size="18.00" fill="#000000">course_requirements</text>
<text text-anchor="start" x="218.8867" y="-500.3" font-family="Arial" font-size="14.00" fill="#000000"> </text>
<text text-anchor="start" x="222.7773" y="-500.3" font-family="Arial" font-size="14.00" fill="#666666">[BASE TABLE]</text>
<polygon fill="none" stroke="#000000" points="43,-457.5 43,-487.5 323,-487.5 323,-457.5 43,-457.5"/>
<text text-anchor="start" x="50" y="-468.9" font-family="Arial" font-size="14.00" fill="#000000">course_id </text>
<text text-anchor="start" x="114.5708" y="-468.9" font-family="Arial" font-size="14.00" fill="#666666">[char(36)]</text>
<polygon fill="none" stroke="#000000" points="43,-427.5 43,-457.5 323,-457.5 323,-427.5 43,-427.5"/>
<text text-anchor="start" x="50" y="-438.9" font-family="Arial" font-size="14.00" fill="#000000">required_course_id </text>
<text text-anchor="start" x="173.6942" y="-438.9" font-family="Arial" font-size="14.00" fill="#666666">[char(36)]</text>
</g>
<!-- course_requirements&#45;&gt;courses -->
<g id="edge4" class="edge">
<title>course_requirements:course_id&#45;&gt;courses:id</title>
<path fill="none" stroke="#000000" d="M333.2666,-471.7094C382.7041,-463.3496 346.1742,-390.4472 375,-337 408.6367,-274.6328 397.1404,-207.5 468,-207.5"/>
<polygon fill="#000000" stroke="#000000" points="332.9705,-471.7321 322.6545,-468.0133 327.9852,-472.1161 323,-472.5 323,-472.5 323,-472.5 327.9852,-472.1161 323.3455,-476.9867 332.9705,-471.7321 332.9705,-471.7321"/>
<text text-anchor="start" x="330.386" y="-482.5" font-family="Arial" font-size="10.00" fill="#000000">FOREIGN KEY (course_id) REFERENCES courses (id)</text>
</g>
<!-- course_requirements&#45;&gt;courses -->
<g id="edge5" class="edge">
<title>course_requirements:required_course_id&#45;&gt;courses:id</title>
<path fill="none" stroke="#000000" d="M333.3811,-441.5286C371.5401,-433.5811 350.1027,-378.4998 375,-337 411.4541,-276.2367 397.1404,-207.5 468,-207.5"/>
<polygon fill="#000000" stroke="#000000" points="332.9565,-441.5683 322.5807,-438.0196 327.9783,-442.0341 323,-442.5 323,-442.5 323,-442.5 327.9783,-442.0341 323.4193,-446.9804 332.9565,-441.5683 332.9565,-441.5683"/>
<text text-anchor="start" x="330.2705" y="-452.5" font-family="Arial" font-size="10.00" fill="#000000">FOREIGN KEY (required_course_id) REFERENCES courses (id)</text>
</g>
<!-- course_schedules -->
<g id="node6" class="node">
<title>course_schedules</title>
<polygon fill="#efefef" stroke="transparent" points="427,-487.5 427,-522.5 683,-522.5 683,-487.5 427,-487.5"/>
<polygon fill="none" stroke="#000000" points="427,-487.5 427,-522.5 683,-522.5 683,-487.5 427,-487.5"/>
<text text-anchor="start" x="433.852" y="-500.3" font-family="Arial Bold" font-size="18.00" fill="#000000">course_schedules</text>
<text text-anchor="start" x="578.8942" y="-500.3" font-family="Arial" font-size="14.00" fill="#000000"> </text>
<text text-anchor="start" x="582.7848" y="-500.3" font-family="Arial" font-size="14.00" fill="#666666">[BASE TABLE]</text>
<polygon fill="none" stroke="#000000" points="427,-457.5 427,-487.5 683,-487.5 683,-457.5 427,-457.5"/>
<text text-anchor="start" x="434" y="-468.9" font-family="Arial" font-size="14.00" fill="#000000">course_id </text>
<text text-anchor="start" x="498.5708" y="-468.9" font-family="Arial" font-size="14.00" fill="#666666">[char(36)]</text>
<polygon fill="none" stroke="#000000" points="427,-427.5 427,-457.5 683,-457.5 683,-427.5 427,-427.5"/>
<text text-anchor="start" x="434" y="-438.9" font-family="Arial" font-size="14.00" fill="#000000">schedule_id </text>
<text text-anchor="start" x="512.582" y="-438.9" font-family="Arial" font-size="14.00" fill="#666666">[char(36)]</text>
</g>
<!-- course_schedules&#45;&gt;courses -->
<g id="edge6" class="edge">
<title>course_schedules:course_id&#45;&gt;courses:id</title>
<path fill="none" stroke="#000000" d="M692.7358,-469.7032C737.5566,-441.3816 697.9816,-207.5 642,-207.5"/>
<polygon fill="#000000" stroke="#000000" points="692.6113,-469.7389 681.7575,-468.1749 687.8056,-471.1195 683,-472.5 683,-472.5 683,-472.5 687.8056,-471.1195 684.2425,-476.8251 692.6113,-469.7389 692.6113,-469.7389"/>
<text text-anchor="start" x="559.886" y="-456.5" font-family="Arial" font-size="10.00" fill="#000000">FOREIGN KEY (course_id) REFERENCES courses (id)</text>
</g>
<!-- registrations -->
<g id="node7" class="node">
<title>registrations</title>
<polygon fill="#efefef" stroke="transparent" points="788,-517.5 788,-552.5 997,-552.5 997,-517.5 788,-517.5"/>
<polygon fill="none" stroke="#000000" points="788,-517.5 788,-552.5 997,-552.5 997,-517.5 788,-517.5"/>
<text text-anchor="start" x="794.869" y="-530.3" font-family="Arial Bold" font-size="18.00" fill="#000000">registrations</text>
<text text-anchor="start" x="892.8772" y="-530.3" font-family="Arial" font-size="14.00" fill="#000000"> </text>
<text text-anchor="start" x="896.7678" y="-530.3" font-family="Arial" font-size="14.00" fill="#666666">[BASE TABLE]</text>
<polygon fill="none" stroke="#000000" points="788,-487.5 788,-517.5 997,-517.5 997,-487.5 788,-487.5"/>
<text text-anchor="start" x="795" y="-498.9" font-family="Arial" font-size="14.00" fill="#000000">course_id </text>
<text text-anchor="start" x="859.5708" y="-498.9" font-family="Arial" font-size="14.00" fill="#666666">[char(36)]</text>
<polygon fill="none" stroke="#000000" points="788,-457.5 788,-487.5 997,-487.5 997,-457.5 788,-457.5"/>
<text text-anchor="start" x="795" y="-468.9" font-family="Arial" font-size="14.00" fill="#000000">user_id </text>
<text text-anchor="start" x="844.7882" y="-468.9" font-family="Arial" font-size="14.00" fill="#666666">[char(36)]</text>
<polygon fill="none" stroke="#000000" points="788,-427.5 788,-457.5 997,-457.5 997,-427.5 788,-427.5"/>
<text text-anchor="start" x="795" y="-438.9" font-family="Arial" font-size="14.00" fill="#000000">created_at </text>
<text text-anchor="start" x="865.028" y="-438.9" font-family="Arial" font-size="14.00" fill="#666666">[datetime(6)]</text>
<polygon fill="none" stroke="#000000" points="788,-397.5 788,-427.5 997,-427.5 997,-397.5 788,-397.5"/>
<text text-anchor="start" x="795" y="-408.9" font-family="Arial" font-size="14.00" fill="#000000">delete_at </text>
<text text-anchor="start" x="856.474" y="-408.9" font-family="Arial" font-size="14.00" fill="#666666">[datetime(6)]</text>
</g>
<!-- registrations&#45;&gt;courses -->
<g id="edge7" class="edge">
<title>registrations:course_id&#45;&gt;courses:id</title>
<path fill="none" stroke="#000000" d="M778.0129,-501.8766C716.0867,-493.5124 768.1002,-402.7535 735,-337 703.1387,-273.7075 712.8596,-207.5 642,-207.5"/>
<polygon fill="#000000" stroke="#000000" points="778.0194,-501.8769 787.7196,-506.9913 783.0097,-502.1884 788,-502.5 788,-502.5 788,-502.5 783.0097,-502.1884 788.2804,-498.0087 778.0194,-501.8769 778.0194,-501.8769"/>
<text text-anchor="start" x="534.386" y="-512.5" font-family="Arial" font-size="10.00" fill="#000000">FOREIGN KEY (course_id) REFERENCES courses (id)</text>
</g>
</g>
</svg>
