<?xml version="1.0" encoding="UTF-8" standalone="no"?>
<!DOCTYPE svg PUBLIC "-//W3C//DTD SVG 1.1//EN"
 "http://www.w3.org/Graphics/SVG/1.1/DTD/svg11.dtd">
<!-- Generated by graphviz version 2.40.1 (20161225.0304)
 -->
<!-- Title: announcements Pages: 1 -->
<svg width="2373pt" height="899pt"
 viewBox="0.00 0.00 2373.00 899.00" xmlns="http://www.w3.org/2000/svg" xmlns:xlink="http://www.w3.org/1999/xlink">
<g id="graph0" class="graph" transform="scale(1 1) rotate(0) translate(4 895)">
<title>announcements</title>
<polygon fill="#ffffff" stroke="transparent" points="-4,4 -4,-895 2369,-895 2369,4 -4,4"/>
<!-- announcements -->
<g id="node1" class="node">
<title>announcements</title>
<polygon fill="#efefef" stroke="transparent" points="1690,-532.5 1690,-567.5 1929,-567.5 1929,-532.5 1690,-532.5"/>
<polygon fill="none" stroke="#000000" points="1690,-532.5 1690,-567.5 1929,-567.5 1929,-532.5 1690,-532.5"/>
<text text-anchor="start" x="1696.848" y="-545.3" font-family="Arial Bold" font-size="18.00" fill="#000000">announcements</text>
<text text-anchor="start" x="1824.8982" y="-545.3" font-family="Arial" font-size="14.00" fill="#000000"> </text>
<text text-anchor="start" x="1828.7888" y="-545.3" font-family="Arial" font-size="14.00" fill="#666666">[BASE TABLE]</text>
<polygon fill="none" stroke="#000000" points="1690,-502.5 1690,-532.5 1929,-532.5 1929,-502.5 1690,-502.5"/>
<text text-anchor="start" x="1697" y="-513.9" font-family="Arial" font-size="14.00" fill="#000000">id </text>
<text text-anchor="start" x="1711.7798" y="-513.9" font-family="Arial" font-size="14.00" fill="#666666">[char(36)]</text>
<polygon fill="none" stroke="#000000" points="1690,-472.5 1690,-502.5 1929,-502.5 1929,-472.5 1690,-472.5"/>
<text text-anchor="start" x="1697" y="-483.9" font-family="Arial" font-size="14.00" fill="#000000">course_id </text>
<text text-anchor="start" x="1761.5708" y="-483.9" font-family="Arial" font-size="14.00" fill="#666666">[char(36)]</text>
<polygon fill="none" stroke="#000000" points="1690,-442.5 1690,-472.5 1929,-472.5 1929,-442.5 1690,-442.5"/>
<text text-anchor="start" x="1697" y="-453.9" font-family="Arial" font-size="14.00" fill="#000000">title </text>
<text text-anchor="start" x="1722.6676" y="-453.9" font-family="Arial" font-size="14.00" fill="#666666">[varchar(255)]</text>
<polygon fill="none" stroke="#000000" points="1690,-412.5 1690,-442.5 1929,-442.5 1929,-412.5 1690,-412.5"/>
<text text-anchor="start" x="1697" y="-423.9" font-family="Arial" font-size="14.00" fill="#000000">message </text>
<text text-anchor="start" x="1757.6816" y="-423.9" font-family="Arial" font-size="14.00" fill="#666666">[text]</text>
<polygon fill="none" stroke="#000000" points="1690,-382.5 1690,-412.5 1929,-412.5 1929,-382.5 1690,-382.5"/>
<text text-anchor="start" x="1697" y="-393.9" font-family="Arial" font-size="14.00" fill="#000000">created_at </text>
<text text-anchor="start" x="1767.028" y="-393.9" font-family="Arial" font-size="14.00" fill="#666666">[datetime(6)]</text>
<polygon fill="none" stroke="#000000" stroke-width="3" points="1688,-381.5 1688,-569.5 1930,-569.5 1930,-381.5 1688,-381.5"/>
</g>
<!-- courses -->
<g id="node4" class="node">
<title>courses</title>
<polygon fill="#efefef" stroke="transparent" points="784,-222.5 784,-257.5 958,-257.5 958,-222.5 784,-222.5"/>
<polygon fill="none" stroke="#000000" points="784,-222.5 784,-257.5 958,-257.5 958,-222.5 784,-222.5"/>
<text text-anchor="start" x="790.8677" y="-235.3" font-family="Arial Bold" font-size="18.00" fill="#000000">courses</text>
<text text-anchor="start" x="853.8785" y="-235.3" font-family="Arial" font-size="14.00" fill="#000000"> </text>
<text text-anchor="start" x="857.7691" y="-235.3" font-family="Arial" font-size="14.00" fill="#666666">[BASE TABLE]</text>
<polygon fill="none" stroke="#000000" points="784,-192.5 784,-222.5 958,-222.5 958,-192.5 784,-192.5"/>
<text text-anchor="start" x="791" y="-203.9" font-family="Arial" font-size="14.00" fill="#000000">id </text>
<text text-anchor="start" x="805.7798" y="-203.9" font-family="Arial" font-size="14.00" fill="#666666">[char(36)]</text>
<polygon fill="none" stroke="#000000" points="784,-162.5 784,-192.5 958,-192.5 958,-162.5 784,-162.5"/>
<text text-anchor="start" x="791" y="-173.9" font-family="Arial" font-size="14.00" fill="#000000">name </text>
<text text-anchor="start" x="829.899" y="-173.9" font-family="Arial" font-size="14.00" fill="#666666">[varchar(255)]</text>
<polygon fill="none" stroke="#000000" points="784,-132.5 784,-162.5 958,-162.5 958,-132.5 784,-132.5"/>
<text text-anchor="start" x="791" y="-143.9" font-family="Arial" font-size="14.00" fill="#000000">description </text>
<text text-anchor="start" x="862.568" y="-143.9" font-family="Arial" font-size="14.00" fill="#666666">[text]</text>
<polygon fill="none" stroke="#000000" points="784,-102.5 784,-132.5 958,-132.5 958,-102.5 784,-102.5"/>
<text text-anchor="start" x="791" y="-113.9" font-family="Arial" font-size="14.00" fill="#000000">credit </text>
<text text-anchor="start" x="829.1136" y="-113.9" font-family="Arial" font-size="14.00" fill="#666666">[tinyint unsigned]</text>
<polygon fill="none" stroke="#000000" points="784,-72.5 784,-102.5 958,-102.5 958,-72.5 784,-72.5"/>
<text text-anchor="start" x="791" y="-83.9" font-family="Arial" font-size="14.00" fill="#000000">classroom </text>
<text text-anchor="start" x="858.6662" y="-83.9" font-family="Arial" font-size="14.00" fill="#666666">[varchar(255)]</text>
<polygon fill="none" stroke="#000000" points="784,-42.5 784,-72.5 958,-72.5 958,-42.5 784,-42.5"/>
<text text-anchor="start" x="791" y="-53.9" font-family="Arial" font-size="14.00" fill="#000000">capacity </text>
<text text-anchor="start" x="846.2356" y="-53.9" font-family="Arial" font-size="14.00" fill="#666666">[int unsigned]</text>
</g>
<!-- announcements&#45;&gt;courses -->
<g id="edge3" class="edge">
<title>announcements:course_id&#45;&gt;courses:id</title>
<path fill="none" stroke="#000000" d="M1679.8764,-486.6532C1625.8697,-476.6546 1686.3909,-380.7017 1635,-337 1518.314,-237.7727 1111.1721,-207.5 958,-207.5"/>
<polygon fill="#000000" stroke="#000000" points="1680.0348,-486.6663 1689.6248,-491.9843 1685.0174,-487.0832 1690,-487.5 1690,-487.5 1690,-487.5 1685.0174,-487.0832 1690.3752,-483.0157 1680.0348,-486.6663 1680.0348,-486.6663"/>
<text text-anchor="start" x="1697.386" y="-497.5" font-family="Arial" font-size="10.00" fill="#000000">FOREIGN KEY (course_id) REFERENCES courses (id)</text>
</g>
<!-- unread_announcements -->
<g id="node2" class="node">
<title>unread_announcements</title>
<polygon fill="#efefef" stroke="transparent" points="1820,-812.5 1820,-847.5 2125,-847.5 2125,-812.5 1820,-812.5"/>
<polygon fill="none" stroke="#000000" points="1820,-812.5 1820,-847.5 2125,-847.5 2125,-812.5 1820,-812.5"/>
<text text-anchor="start" x="1826.8333" y="-825.3" font-family="Arial Bold" font-size="18.00" fill="#000000">unread_announcements</text>
<text text-anchor="start" x="2020.9129" y="-825.3" font-family="Arial" font-size="14.00" fill="#000000"> </text>
<text text-anchor="start" x="2024.8035" y="-825.3" font-family="Arial" font-size="14.00" fill="#666666">[BASE TABLE]</text>
<polygon fill="none" stroke="#000000" points="1820,-782.5 1820,-812.5 2125,-812.5 2125,-782.5 1820,-782.5"/>
<text text-anchor="start" x="1827" y="-793.9" font-family="Arial" font-size="14.00" fill="#000000">announcement_id </text>
<text text-anchor="start" x="1942.157" y="-793.9" font-family="Arial" font-size="14.00" fill="#666666">[char(36)]</text>
<polygon fill="none" stroke="#000000" points="1820,-752.5 1820,-782.5 2125,-782.5 2125,-752.5 1820,-752.5"/>
<text text-anchor="start" x="1827" y="-763.9" font-family="Arial" font-size="14.00" fill="#000000">user_id </text>
<text text-anchor="start" x="1876.7882" y="-763.9" font-family="Arial" font-size="14.00" fill="#666666">[char(36)]</text>
<polygon fill="none" stroke="#000000" points="1820,-722.5 1820,-752.5 2125,-752.5 2125,-722.5 1820,-722.5"/>
<text text-anchor="start" x="1827" y="-733.9" font-family="Arial" font-size="14.00" fill="#000000">created_at </text>
<text text-anchor="start" x="1897.028" y="-733.9" font-family="Arial" font-size="14.00" fill="#666666">[datetime(6)]</text>
<polygon fill="none" stroke="#000000" points="1820,-692.5 1820,-722.5 2125,-722.5 2125,-692.5 1820,-692.5"/>
<text text-anchor="start" x="1827" y="-703.9" font-family="Arial" font-size="14.00" fill="#000000">delete_at </text>
<text text-anchor="start" x="1888.474" y="-703.9" font-family="Arial" font-size="14.00" fill="#666666">[datetime(6)]</text>
</g>
<!-- unread_announcements&#45;&gt;announcements -->
<g id="edge1" class="edge">
<title>unread_announcements:announcement_id&#45;&gt;announcements:id</title>
<path fill="none" stroke="#000000" d="M1809.7381,-796.6164C1757.5563,-786.9418 1783.771,-700.1193 1820,-650 1849.8879,-608.653 1899.1121,-655.347 1929,-614 1954.1255,-579.2413 1971.8889,-517.5 1929,-517.5"/>
<polygon fill="#000000" stroke="#000000" points="1810.0369,-796.642 1819.6139,-801.9834 1815.0184,-797.071 1820,-797.5 1820,-797.5 1820,-797.5 1815.0184,-797.071 1820.3861,-793.0166 1810.0369,-796.642 1810.0369,-796.642"/>
<text text-anchor="start" x="1494.253" y="-807.5" font-family="Arial" font-size="10.00" fill="#000000">FOREIGN KEY (announcement_id) REFERENCES announcements (id)</text>
</g>
<!-- users -->
<g id="node3" class="node">
<title>users</title>
<polygon fill="#efefef" stroke="transparent" points="2036,-532.5 2036,-567.5 2238,-567.5 2238,-532.5 2036,-532.5"/>
<polygon fill="none" stroke="#000000" points="2036,-532.5 2036,-567.5 2238,-567.5 2238,-532.5 2036,-532.5"/>
<text text-anchor="start" x="2066.3708" y="-545.3" font-family="Arial Bold" font-size="18.00" fill="#000000">users</text>
<text text-anchor="start" x="2110.3754" y="-545.3" font-family="Arial" font-size="14.00" fill="#000000"> </text>
<text text-anchor="start" x="2114.266" y="-545.3" font-family="Arial" font-size="14.00" fill="#666666">[BASE TABLE]</text>
<polygon fill="none" stroke="#000000" points="2036,-502.5 2036,-532.5 2238,-532.5 2238,-502.5 2036,-502.5"/>
<text text-anchor="start" x="2043" y="-513.9" font-family="Arial" font-size="14.00" fill="#000000">id </text>
<text text-anchor="start" x="2057.7798" y="-513.9" font-family="Arial" font-size="14.00" fill="#666666">[char(36)]</text>
<polygon fill="none" stroke="#000000" points="2036,-472.5 2036,-502.5 2238,-502.5 2238,-472.5 2036,-472.5"/>
<text text-anchor="start" x="2043" y="-483.9" font-family="Arial" font-size="14.00" fill="#000000">name </text>
<text text-anchor="start" x="2081.899" y="-483.9" font-family="Arial" font-size="14.00" fill="#666666">[varchar(255)]</text>
<polygon fill="none" stroke="#000000" points="2036,-442.5 2036,-472.5 2238,-472.5 2238,-442.5 2036,-442.5"/>
<text text-anchor="start" x="2043" y="-453.9" font-family="Arial" font-size="14.00" fill="#000000">mail_address </text>
<text text-anchor="start" x="2130.1206" y="-453.9" font-family="Arial" font-size="14.00" fill="#666666">[varchar(255)]</text>
<polygon fill="none" stroke="#000000" points="2036,-412.5 2036,-442.5 2238,-442.5 2238,-412.5 2036,-412.5"/>
<text text-anchor="start" x="2042.8668" y="-423.9" font-family="Arial" font-size="14.00" fill="#000000">hashed_password </text>
<text text-anchor="start" x="2160.3506" y="-423.9" font-family="Arial" font-size="14.00" fill="#666666">[binary(60)]</text>
<polygon fill="none" stroke="#000000" points="2036,-382.5 2036,-412.5 2238,-412.5 2238,-382.5 2036,-382.5"/>
<text text-anchor="start" x="2043" y="-393.9" font-family="Arial" font-size="14.00" fill="#000000">type </text>
<text text-anchor="start" x="2073.3464" y="-393.9" font-family="Arial" font-size="14.00" fill="#666666">[enum(&#39;student&#39;,&#39;faculty&#39;)]</text>
</g>
<!-- unread_announcements&#45;&gt;users -->
<g id="edge2" class="edge">
<title>unread_announcements:user_id&#45;&gt;users:id</title>
<path fill="none" stroke="#000000" d="M2135.4028,-766.3231C2173.6844,-756.713 2151.4504,-690.4691 2125,-650 2101.3725,-613.8499 2059.6275,-647.1501 2036,-611 2013.2649,-576.2153 1994.4444,-517.5 2036,-517.5"/>
<polygon fill="#000000" stroke="#000000" points="2134.9366,-766.3758 2124.4941,-763.0285 2129.9683,-766.9379 2125,-767.5 2125,-767.5 2125,-767.5 2129.9683,-766.9379 2125.5059,-771.9715 2134.9366,-766.3758 2134.9366,-766.3758"/>
<text text-anchor="start" x="2131.945" y="-777.5" font-family="Arial" font-size="10.00" fill="#000000">FOREIGN KEY (user_id) REFERENCES users (id)</text>
</g>
<!-- classes -->
<g id="node5" class="node">
<title>classes</title>
<polygon fill="#efefef" stroke="transparent" points="43,-532.5 43,-567.5 255,-567.5 255,-532.5 43,-532.5"/>
<polygon fill="none" stroke="#000000" points="43,-532.5 43,-567.5 255,-567.5 255,-532.5 43,-532.5"/>
<text text-anchor="start" x="70.3698" y="-545.3" font-family="Arial Bold" font-size="18.00" fill="#000000">classes</text>
<text text-anchor="start" x="130.3764" y="-545.3" font-family="Arial" font-size="14.00" fill="#000000"> </text>
<text text-anchor="start" x="134.267" y="-545.3" font-family="Arial" font-size="14.00" fill="#666666">[BASE TABLE]</text>
<polygon fill="none" stroke="#000000" points="43,-502.5 43,-532.5 255,-532.5 255,-502.5 43,-502.5"/>
<text text-anchor="start" x="50" y="-513.9" font-family="Arial" font-size="14.00" fill="#000000">id </text>
<text text-anchor="start" x="64.7798" y="-513.9" font-family="Arial" font-size="14.00" fill="#666666">[char(36)]</text>
<polygon fill="none" stroke="#000000" points="43,-472.5 43,-502.5 255,-502.5 255,-472.5 43,-472.5"/>
<text text-anchor="start" x="50" y="-483.9" font-family="Arial" font-size="14.00" fill="#000000">course_id </text>
<text text-anchor="start" x="114.5708" y="-483.9" font-family="Arial" font-size="14.00" fill="#666666">[char(36)]</text>
<polygon fill="none" stroke="#000000" points="43,-442.5 43,-472.5 255,-472.5 255,-442.5 43,-442.5"/>
<text text-anchor="start" x="50" y="-453.9" font-family="Arial" font-size="14.00" fill="#000000">title </text>
<text text-anchor="start" x="75.6676" y="-453.9" font-family="Arial" font-size="14.00" fill="#666666">[varchar(255)]</text>
<polygon fill="none" stroke="#000000" points="43,-412.5 43,-442.5 255,-442.5 255,-412.5 43,-412.5"/>
<text text-anchor="start" x="50" y="-423.9" font-family="Arial" font-size="14.00" fill="#000000">description </text>
<text text-anchor="start" x="121.568" y="-423.9" font-family="Arial" font-size="14.00" fill="#666666">[text]</text>
<polygon fill="none" stroke="#000000" points="43,-382.5 43,-412.5 255,-412.5 255,-382.5 43,-382.5"/>
<text text-anchor="start" x="49.8002" y="-393.9" font-family="Arial" font-size="14.00" fill="#000000">attendance_code </text>
<text text-anchor="start" x="161.0806" y="-393.9" font-family="Arial" font-size="14.00" fill="#666666">[varchar(255)]</text>
</g>
<!-- classes&#45;&gt;courses -->
<g id="edge4" class="edge">
<title>classes:course_id&#45;&gt;courses:id</title>
<path fill="none" stroke="#000000" d="M265.0562,-486.6704C318.6761,-476.8732 258.0234,-382.774 307,-337 387.2458,-262.0015 674.163,-207.5 784,-207.5"/>
<polygon fill="#000000" stroke="#000000" points="264.9661,-486.6778 254.63,-483.0152 259.9831,-487.0889 255,-487.5 255,-487.5 255,-487.5 259.9831,-487.0889 255.37,-491.9848 264.9661,-486.6778 264.9661,-486.6778"/>
<text text-anchor="start" x="262.386" y="-497.5" font-family="Arial" font-size="10.00" fill="#000000">FOREIGN KEY (course_id) REFERENCES courses (id)</text>
</g>
<!-- course_requirements -->
<g id="node6" class="node">
<title>course_requirements</title>
<polygon fill="#efefef" stroke="transparent" points="359,-487.5 359,-522.5 639,-522.5 639,-487.5 359,-487.5"/>
<polygon fill="none" stroke="#000000" points="359,-487.5 359,-522.5 639,-522.5 639,-487.5 359,-487.5"/>
<text text-anchor="start" x="365.8595" y="-500.3" font-family="Arial Bold" font-size="18.00" fill="#000000">course_requirements</text>
<text text-anchor="start" x="534.8867" y="-500.3" font-family="Arial" font-size="14.00" fill="#000000"> </text>
<text text-anchor="start" x="538.7773" y="-500.3" font-family="Arial" font-size="14.00" fill="#666666">[BASE TABLE]</text>
<polygon fill="none" stroke="#000000" points="359,-457.5 359,-487.5 639,-487.5 639,-457.5 359,-457.5"/>
<text text-anchor="start" x="366" y="-468.9" font-family="Arial" font-size="14.00" fill="#000000">course_id </text>
<text text-anchor="start" x="430.5708" y="-468.9" font-family="Arial" font-size="14.00" fill="#666666">[char(36)]</text>
<polygon fill="none" stroke="#000000" points="359,-427.5 359,-457.5 639,-457.5 639,-427.5 359,-427.5"/>
<text text-anchor="start" x="366" y="-438.9" font-family="Arial" font-size="14.00" fill="#000000">required_course_id </text>
<text text-anchor="start" x="489.6942" y="-438.9" font-family="Arial" font-size="14.00" fill="#666666">[char(36)]</text>
</g>
<!-- course_requirements&#45;&gt;courses -->
<g id="edge5" class="edge">
<title>course_requirements:course_id&#45;&gt;courses:id</title>
<path fill="none" stroke="#000000" d="M649.2666,-471.7094C698.7041,-463.3496 662.1742,-390.4472 691,-337 724.6367,-274.6328 713.1404,-207.5 784,-207.5"/>
<polygon fill="#000000" stroke="#000000" points="648.9705,-471.7321 638.6545,-468.0133 643.9852,-472.1161 639,-472.5 639,-472.5 639,-472.5 643.9852,-472.1161 639.3455,-476.9867 648.9705,-471.7321 648.9705,-471.7321"/>
<text text-anchor="start" x="515.886" y="-456.5" font-family="Arial" font-size="10.00" fill="#000000">FOREIGN KEY (course_id) REFERENCES courses (id)</text>
</g>
<!-- course_requirements&#45;&gt;courses -->
<g id="edge6" class="edge">
<title>course_requirements:required_course_id&#45;&gt;courses:id</title>
<path fill="none" stroke="#000000" d="M649.3811,-441.5286C687.5401,-433.5811 666.1027,-378.4998 691,-337 727.4541,-276.2367 713.1404,-207.5 784,-207.5"/>
<polygon fill="#000000" stroke="#000000" points="648.9565,-441.5683 638.5807,-438.0196 643.9783,-442.0341 639,-442.5 639,-442.5 639,-442.5 643.9783,-442.0341 639.4193,-446.9804 648.9565,-441.5683 648.9565,-441.5683"/>
<text text-anchor="start" x="494.7705" y="-426.5" font-family="Arial" font-size="10.00" fill="#000000">FOREIGN KEY (required_course_id) REFERENCES courses (id)</text>
</g>
<!-- course_schedules -->
<g id="node7" class="node">
<title>course_schedules</title>
<polygon fill="#efefef" stroke="transparent" points="743,-487.5 743,-522.5 999,-522.5 999,-487.5 743,-487.5"/>
<polygon fill="none" stroke="#000000" points="743,-487.5 743,-522.5 999,-522.5 999,-487.5 743,-487.5"/>
<text text-anchor="start" x="749.852" y="-500.3" font-family="Arial Bold" font-size="18.00" fill="#000000">course_schedules</text>
<text text-anchor="start" x="894.8942" y="-500.3" font-family="Arial" font-size="14.00" fill="#000000"> </text>
<text text-anchor="start" x="898.7848" y="-500.3" font-family="Arial" font-size="14.00" fill="#666666">[BASE TABLE]</text>
<polygon fill="none" stroke="#000000" points="743,-457.5 743,-487.5 999,-487.5 999,-457.5 743,-457.5"/>
<text text-anchor="start" x="750" y="-468.9" font-family="Arial" font-size="14.00" fill="#000000">course_id </text>
<text text-anchor="start" x="814.5708" y="-468.9" font-family="Arial" font-size="14.00" fill="#666666">[char(36)]</text>
<polygon fill="none" stroke="#000000" points="743,-427.5 743,-457.5 999,-457.5 999,-427.5 743,-427.5"/>
<text text-anchor="start" x="750" y="-438.9" font-family="Arial" font-size="14.00" fill="#000000">schedule_id </text>
<text text-anchor="start" x="828.582" y="-438.9" font-family="Arial" font-size="14.00" fill="#666666">[char(36)]</text>
</g>
<!-- course_schedules&#45;&gt;courses -->
<g id="edge7" class="edge">
<title>course_schedules:course_id&#45;&gt;courses:id</title>
<path fill="none" stroke="#000000" d="M1008.7358,-469.7032C1053.5566,-441.3816 1013.9816,-207.5 958,-207.5"/>
<polygon fill="#000000" stroke="#000000" points="1008.6113,-469.7389 997.7575,-468.1749 1003.8056,-471.1195 999,-472.5 999,-472.5 999,-472.5 1003.8056,-471.1195 1000.2425,-476.8251 1008.6113,-469.7389 1008.6113,-469.7389"/>
<text text-anchor="start" x="1006.386" y="-482.5" font-family="Arial" font-size="10.00" fill="#000000">FOREIGN KEY (course_id) REFERENCES courses (id)</text>
</g>
<!-- grades -->
<g id="node8" class="node">
<title>grades</title>
<polygon fill="#efefef" stroke="transparent" points="1103,-517.5 1103,-552.5 1269,-552.5 1269,-517.5 1103,-517.5"/>
<polygon fill="none" stroke="#000000" points="1103,-517.5 1103,-552.5 1269,-552.5 1269,-517.5 1103,-517.5"/>
<text text-anchor="start" x="1109.8646" y="-530.3" font-family="Arial Bold" font-size="18.00" fill="#000000">grades</text>
<text text-anchor="start" x="1164.8816" y="-530.3" font-family="Arial" font-size="14.00" fill="#000000"> </text>
<text text-anchor="start" x="1168.7722" y="-530.3" font-family="Arial" font-size="14.00" fill="#666666">[BASE TABLE]</text>
<polygon fill="none" stroke="#000000" points="1103,-487.5 1103,-517.5 1269,-517.5 1269,-487.5 1103,-487.5"/>
<text text-anchor="start" x="1110" y="-498.9" font-family="Arial" font-size="14.00" fill="#000000">id </text>
<text text-anchor="start" x="1124.7798" y="-498.9" font-family="Arial" font-size="14.00" fill="#666666">[char(36)]</text>
<polygon fill="none" stroke="#000000" points="1103,-457.5 1103,-487.5 1269,-487.5 1269,-457.5 1103,-457.5"/>
<text text-anchor="start" x="1110" y="-468.9" font-family="Arial" font-size="14.00" fill="#000000">user_id </text>
<text text-anchor="start" x="1159.7882" y="-468.9" font-family="Arial" font-size="14.00" fill="#666666">[char(36)]</text>
<polygon fill="none" stroke="#000000" points="1103,-427.5 1103,-457.5 1269,-457.5 1269,-427.5 1103,-427.5"/>
<text text-anchor="start" x="1110" y="-438.9" font-family="Arial" font-size="14.00" fill="#000000">course_id </text>
<text text-anchor="start" x="1174.5708" y="-438.9" font-family="Arial" font-size="14.00" fill="#666666">[char(36)]</text>
<polygon fill="none" stroke="#000000" points="1103,-397.5 1103,-427.5 1269,-427.5 1269,-397.5 1103,-397.5"/>
<text text-anchor="start" x="1110" y="-408.9" font-family="Arial" font-size="14.00" fill="#000000">grade </text>
<text text-anchor="start" x="1149.6816" y="-408.9" font-family="Arial" font-size="14.00" fill="#666666">[int unsigned]</text>
</g>
<!-- grades&#45;&gt;courses -->
<g id="edge8" class="edge">
<title>grades:course_id&#45;&gt;courses:id</title>
<path fill="none" stroke="#000000" d="M1092.6189,-441.5286C1054.4599,-433.5811 1075.8973,-378.4998 1051,-337 1014.5459,-276.2367 1028.8596,-207.5 958,-207.5"/>
<polygon fill="#000000" stroke="#000000" points="1093.0435,-441.5683 1102.5807,-446.9804 1098.0217,-442.0341 1103,-442.5 1103,-442.5 1103,-442.5 1098.0217,-442.0341 1103.4193,-438.0196 1093.0435,-441.5683 1093.0435,-441.5683"/>
<text text-anchor="start" x="1110.386" y="-452.5" font-family="Arial" font-size="10.00" fill="#000000">FOREIGN KEY (course_id) REFERENCES courses (id)</text>
</g>
<!-- registrations -->
<g id="node9" class="node">
<title>registrations</title>
<polygon fill="#efefef" stroke="transparent" points="1374,-517.5 1374,-552.5 1583,-552.5 1583,-517.5 1374,-517.5"/>
<polygon fill="none" stroke="#000000" points="1374,-517.5 1374,-552.5 1583,-552.5 1583,-517.5 1374,-517.5"/>
<text text-anchor="start" x="1380.869" y="-530.3" font-family="Arial Bold" font-size="18.00" fill="#000000">registrations</text>
<text text-anchor="start" x="1478.8772" y="-530.3" font-family="Arial" font-size="14.00" fill="#000000"> </text>
<text text-anchor="start" x="1482.7678" y="-530.3" font-family="Arial" font-size="14.00" fill="#666666">[BASE TABLE]</text>
<polygon fill="none" stroke="#000000" points="1374,-487.5 1374,-517.5 1583,-517.5 1583,-487.5 1374,-487.5"/>
<text text-anchor="start" x="1381" y="-498.9" font-family="Arial" font-size="14.00" fill="#000000">course_id </text>
<text text-anchor="start" x="1445.5708" y="-498.9" font-family="Arial" font-size="14.00" fill="#666666">[char(36)]</text>
<polygon fill="none" stroke="#000000" points="1374,-457.5 1374,-487.5 1583,-487.5 1583,-457.5 1374,-457.5"/>
<text text-anchor="start" x="1381" y="-468.9" font-family="Arial" font-size="14.00" fill="#000000">user_id </text>
<text text-anchor="start" x="1430.7882" y="-468.9" font-family="Arial" font-size="14.00" fill="#666666">[char(36)]</text>
<polygon fill="none" stroke="#000000" points="1374,-427.5 1374,-457.5 1583,-457.5 1583,-427.5 1374,-427.5"/>
<text text-anchor="start" x="1381" y="-438.9" font-family="Arial" font-size="14.00" fill="#000000">created_at </text>
<text text-anchor="start" x="1451.028" y="-438.9" font-family="Arial" font-size="14.00" fill="#666666">[datetime(6)]</text>
<polygon fill="none" stroke="#000000" points="1374,-397.5 1374,-427.5 1583,-427.5 1583,-397.5 1374,-397.5"/>
<text text-anchor="start" x="1381" y="-408.9" font-family="Arial" font-size="14.00" fill="#000000">delete_at </text>
<text text-anchor="start" x="1442.474" y="-408.9" font-family="Arial" font-size="14.00" fill="#666666">[datetime(6)]</text>
</g>
<!-- registrations&#45;&gt;courses -->
<g id="edge9" class="edge">
<title>registrations:course_id&#45;&gt;courses:id</title>
<path fill="none" stroke="#000000" d="M1363.7628,-501.7324C1304.0629,-491.8878 1372.0893,-389.7906 1321,-337 1201.8777,-213.9108 1129.2924,-207.5 958,-207.5"/>
<polygon fill="#000000" stroke="#000000" points="1364.028,-501.7522 1373.6635,-506.9874 1369.014,-502.1261 1374,-502.5 1374,-502.5 1374,-502.5 1369.014,-502.1261 1374.3365,-498.0126 1364.028,-501.7522 1364.028,-501.7522"/>
<text text-anchor="start" x="1120.386" y="-512.5" font-family="Arial" font-size="10.00" fill="#000000">FOREIGN KEY (course_id) REFERENCES courses (id)</text>
</g>
</g>
</svg>
