<?xml version="1.0" encoding="UTF-8" standalone="no"?>
<!DOCTYPE svg PUBLIC "-//W3C//DTD SVG 1.1//EN"
 "http://www.w3.org/Graphics/SVG/1.1/DTD/svg11.dtd">
<!-- Generated by graphviz version 2.40.1 (20161225.0304)
 -->
<!-- Title: assignments Pages: 1 -->
<svg width="1279pt" height="1266pt"
 viewBox="0.00 0.00 1278.50 1266.00" xmlns="http://www.w3.org/2000/svg" xmlns:xlink="http://www.w3.org/1999/xlink">
<g id="graph0" class="graph" transform="scale(1 1) rotate(0) translate(4 1262)">
<title>assignments</title>
<polygon fill="#ffffff" stroke="transparent" points="-4,4 -4,-1262 1274.5,-1262 1274.5,4 -4,4"/>
<!-- assignments -->
<g id="node1" class="node">
<title>assignments</title>
<polygon fill="#efefef" stroke="transparent" points="662.5,-869.5 662.5,-904.5 874.5,-904.5 874.5,-869.5 662.5,-869.5"/>
<polygon fill="none" stroke="#000000" points="662.5,-869.5 662.5,-904.5 874.5,-904.5 874.5,-869.5 662.5,-869.5"/>
<text text-anchor="start" x="669.3633" y="-882.3" font-family="Arial Bold" font-size="18.00" fill="#000000">assignments</text>
<text text-anchor="start" x="770.3829" y="-882.3" font-family="Arial" font-size="14.00" fill="#000000"> </text>
<text text-anchor="start" x="774.2735" y="-882.3" font-family="Arial" font-size="14.00" fill="#666666">[BASE TABLE]</text>
<polygon fill="none" stroke="#000000" points="662.5,-839.5 662.5,-869.5 874.5,-869.5 874.5,-839.5 662.5,-839.5"/>
<text text-anchor="start" x="669.5" y="-850.9" font-family="Arial" font-size="14.00" fill="#000000">id </text>
<text text-anchor="start" x="684.2798" y="-850.9" font-family="Arial" font-size="14.00" fill="#666666">[char(36)]</text>
<polygon fill="none" stroke="#000000" points="662.5,-809.5 662.5,-839.5 874.5,-839.5 874.5,-809.5 662.5,-809.5"/>
<text text-anchor="start" x="669.5" y="-820.9" font-family="Arial" font-size="14.00" fill="#000000">class_id </text>
<text text-anchor="start" x="723.9516" y="-820.9" font-family="Arial" font-size="14.00" fill="#666666">[char(36)]</text>
<polygon fill="none" stroke="#000000" points="662.5,-779.5 662.5,-809.5 874.5,-809.5 874.5,-779.5 662.5,-779.5"/>
<text text-anchor="start" x="669.5" y="-790.9" font-family="Arial" font-size="14.00" fill="#000000">name </text>
<text text-anchor="start" x="708.399" y="-790.9" font-family="Arial" font-size="14.00" fill="#666666">[varchar(255)]</text>
<polygon fill="none" stroke="#000000" points="662.5,-749.5 662.5,-779.5 874.5,-779.5 874.5,-749.5 662.5,-749.5"/>
<text text-anchor="start" x="669.5" y="-760.9" font-family="Arial" font-size="14.00" fill="#000000">description </text>
<text text-anchor="start" x="741.068" y="-760.9" font-family="Arial" font-size="14.00" fill="#666666">[text]</text>
<polygon fill="none" stroke="#000000" points="662.5,-719.5 662.5,-749.5 874.5,-749.5 874.5,-719.5 662.5,-719.5"/>
<text text-anchor="start" x="669.5" y="-730.9" font-family="Arial" font-size="14.00" fill="#000000">deadline </text>
<text text-anchor="start" x="726.2994" y="-730.9" font-family="Arial" font-size="14.00" fill="#666666">[datetime(6)]</text>
<polygon fill="none" stroke="#000000" points="662.5,-689.5 662.5,-719.5 874.5,-719.5 874.5,-689.5 662.5,-689.5"/>
<text text-anchor="start" x="669.5" y="-700.9" font-family="Arial" font-size="14.00" fill="#000000">created_at </text>
<text text-anchor="start" x="739.528" y="-700.9" font-family="Arial" font-size="14.00" fill="#666666">[datetime(6)]</text>
<polygon fill="none" stroke="#000000" stroke-width="3" points="661,-688.5 661,-906.5 876,-906.5 876,-688.5 661,-688.5"/>
</g>
<!-- classes -->
<g id="node4" class="node">
<title>classes</title>
<polygon fill="#efefef" stroke="transparent" points="350.5,-529.5 350.5,-564.5 562.5,-564.5 562.5,-529.5 350.5,-529.5"/>
<polygon fill="none" stroke="#000000" points="350.5,-529.5 350.5,-564.5 562.5,-564.5 562.5,-529.5 350.5,-529.5"/>
<text text-anchor="start" x="377.8698" y="-542.3" font-family="Arial Bold" font-size="18.00" fill="#000000">classes</text>
<text text-anchor="start" x="437.8764" y="-542.3" font-family="Arial" font-size="14.00" fill="#000000"> </text>
<text text-anchor="start" x="441.767" y="-542.3" font-family="Arial" font-size="14.00" fill="#666666">[BASE TABLE]</text>
<polygon fill="none" stroke="#000000" points="350.5,-499.5 350.5,-529.5 562.5,-529.5 562.5,-499.5 350.5,-499.5"/>
<text text-anchor="start" x="357.5" y="-510.9" font-family="Arial" font-size="14.00" fill="#000000">id </text>
<text text-anchor="start" x="372.2798" y="-510.9" font-family="Arial" font-size="14.00" fill="#666666">[char(36)]</text>
<polygon fill="none" stroke="#000000" points="350.5,-469.5 350.5,-499.5 562.5,-499.5 562.5,-469.5 350.5,-469.5"/>
<text text-anchor="start" x="357.5" y="-480.9" font-family="Arial" font-size="14.00" fill="#000000">course_id </text>
<text text-anchor="start" x="422.0708" y="-480.9" font-family="Arial" font-size="14.00" fill="#666666">[char(36)]</text>
<polygon fill="none" stroke="#000000" points="350.5,-439.5 350.5,-469.5 562.5,-469.5 562.5,-439.5 350.5,-439.5"/>
<text text-anchor="start" x="357.5" y="-450.9" font-family="Arial" font-size="14.00" fill="#000000">title </text>
<text text-anchor="start" x="383.1676" y="-450.9" font-family="Arial" font-size="14.00" fill="#666666">[varchar(255)]</text>
<polygon fill="none" stroke="#000000" points="350.5,-409.5 350.5,-439.5 562.5,-439.5 562.5,-409.5 350.5,-409.5"/>
<text text-anchor="start" x="357.5" y="-420.9" font-family="Arial" font-size="14.00" fill="#000000">description </text>
<text text-anchor="start" x="429.068" y="-420.9" font-family="Arial" font-size="14.00" fill="#666666">[text]</text>
<polygon fill="none" stroke="#000000" points="350.5,-379.5 350.5,-409.5 562.5,-409.5 562.5,-379.5 350.5,-379.5"/>
<text text-anchor="start" x="357.3002" y="-390.9" font-family="Arial" font-size="14.00" fill="#000000">attendance_code </text>
<text text-anchor="start" x="468.5806" y="-390.9" font-family="Arial" font-size="14.00" fill="#666666">[varchar(255)]</text>
</g>
<!-- assignments&#45;&gt;classes -->
<g id="edge3" class="edge">
<title>assignments:class_id&#45;&gt;classes:id</title>
<path fill="none" stroke="#000000" d="M652.7075,-822.3549C594.2082,-794.9657 631.35,-514.5 562.5,-514.5"/>
<polygon fill="#000000" stroke="#000000" points="652.7316,-822.3601 661.537,-828.8958 657.6158,-823.43 662.5,-824.5 662.5,-824.5 662.5,-824.5 657.6158,-823.43 663.463,-820.1042 652.7316,-822.3601 652.7316,-822.3601"/>
<text text-anchor="start" x="606.3345" y="-808.5" font-family="Arial" font-size="10.00" fill="#000000">FOREIGN KEY (class_id) REFERENCES classes (id)</text>
</g>
<!-- submissions -->
<g id="node2" class="node">
<title>submissions</title>
<polygon fill="#efefef" stroke="transparent" points="820.5,-1179.5 820.5,-1214.5 1030.5,-1214.5 1030.5,-1179.5 820.5,-1179.5"/>
<polygon fill="none" stroke="#000000" points="820.5,-1179.5 820.5,-1214.5 1030.5,-1214.5 1030.5,-1179.5 820.5,-1179.5"/>
<text text-anchor="start" x="827.3704" y="-1192.3" font-family="Arial Bold" font-size="18.00" fill="#000000">submissions</text>
<text text-anchor="start" x="926.3758" y="-1192.3" font-family="Arial" font-size="14.00" fill="#000000"> </text>
<text text-anchor="start" x="930.2664" y="-1192.3" font-family="Arial" font-size="14.00" fill="#666666">[BASE TABLE]</text>
<polygon fill="none" stroke="#000000" points="820.5,-1149.5 820.5,-1179.5 1030.5,-1179.5 1030.5,-1149.5 820.5,-1149.5"/>
<text text-anchor="start" x="827.5" y="-1160.9" font-family="Arial" font-size="14.00" fill="#000000">id </text>
<text text-anchor="start" x="842.2798" y="-1160.9" font-family="Arial" font-size="14.00" fill="#666666">[char(36)]</text>
<polygon fill="none" stroke="#000000" points="820.5,-1119.5 820.5,-1149.5 1030.5,-1149.5 1030.5,-1119.5 820.5,-1119.5"/>
<text text-anchor="start" x="827.5" y="-1130.9" font-family="Arial" font-size="14.00" fill="#000000">user_id </text>
<text text-anchor="start" x="877.2882" y="-1130.9" font-family="Arial" font-size="14.00" fill="#666666">[char(36)]</text>
<polygon fill="none" stroke="#000000" points="820.5,-1089.5 820.5,-1119.5 1030.5,-1119.5 1030.5,-1089.5 820.5,-1089.5"/>
<text text-anchor="start" x="827.5" y="-1100.9" font-family="Arial" font-size="14.00" fill="#000000">assignment_id </text>
<text text-anchor="start" x="921.6332" y="-1100.9" font-family="Arial" font-size="14.00" fill="#666666">[char(36)]</text>
<polygon fill="none" stroke="#000000" points="820.5,-1059.5 820.5,-1089.5 1030.5,-1089.5 1030.5,-1059.5 820.5,-1059.5"/>
<text text-anchor="start" x="827.5" y="-1070.9" font-family="Arial" font-size="14.00" fill="#000000">name </text>
<text text-anchor="start" x="866.399" y="-1070.9" font-family="Arial" font-size="14.00" fill="#666666">[varchar(255)]</text>
<polygon fill="none" stroke="#000000" points="820.5,-1029.5 820.5,-1059.5 1030.5,-1059.5 1030.5,-1029.5 820.5,-1029.5"/>
<text text-anchor="start" x="827.5" y="-1040.9" font-family="Arial" font-size="14.00" fill="#000000">created_at </text>
<text text-anchor="start" x="897.528" y="-1040.9" font-family="Arial" font-size="14.00" fill="#666666">[datetime(6)]</text>
</g>
<!-- submissions&#45;&gt;assignments -->
<g id="edge1" class="edge">
<title>submissions:assignment_id&#45;&gt;assignments:id</title>
<path fill="none" stroke="#000000" d="M810.1573,-1103.3588C772.3556,-1094.0331 797.6874,-1029.6258 820.5,-987 834.1105,-961.5686 860.8895,-976.4314 874.5,-951 894.7375,-913.186 917.3889,-854.5 874.5,-854.5"/>
<polygon fill="#000000" stroke="#000000" points="810.5603,-1103.4031 820.0064,-1108.9729 815.5302,-1103.9516 820.5,-1104.5 820.5,-1104.5 820.5,-1104.5 815.5302,-1103.9516 820.9936,-1100.0271 810.5603,-1103.4031 810.5603,-1103.4031"/>
<text text-anchor="start" x="524.77" y="-1114.5" font-family="Arial" font-size="10.00" fill="#000000">FOREIGN KEY (assignment_id) REFERENCES assignments (id)</text>
</g>
<!-- users -->
<g id="node3" class="node">
<title>users</title>
<polygon fill="#efefef" stroke="transparent" points="981.5,-854.5 981.5,-889.5 1183.5,-889.5 1183.5,-854.5 981.5,-854.5"/>
<polygon fill="none" stroke="#000000" points="981.5,-854.5 981.5,-889.5 1183.5,-889.5 1183.5,-854.5 981.5,-854.5"/>
<text text-anchor="start" x="1011.8708" y="-867.3" font-family="Arial Bold" font-size="18.00" fill="#000000">users</text>
<text text-anchor="start" x="1055.8754" y="-867.3" font-family="Arial" font-size="14.00" fill="#000000"> </text>
<text text-anchor="start" x="1059.766" y="-867.3" font-family="Arial" font-size="14.00" fill="#666666">[BASE TABLE]</text>
<polygon fill="none" stroke="#000000" points="981.5,-824.5 981.5,-854.5 1183.5,-854.5 1183.5,-824.5 981.5,-824.5"/>
<text text-anchor="start" x="988.5" y="-835.9" font-family="Arial" font-size="14.00" fill="#000000">id </text>
<text text-anchor="start" x="1003.2798" y="-835.9" font-family="Arial" font-size="14.00" fill="#666666">[char(36)]</text>
<polygon fill="none" stroke="#000000" points="981.5,-794.5 981.5,-824.5 1183.5,-824.5 1183.5,-794.5 981.5,-794.5"/>
<text text-anchor="start" x="988.5" y="-805.9" font-family="Arial" font-size="14.00" fill="#000000">name </text>
<text text-anchor="start" x="1027.399" y="-805.9" font-family="Arial" font-size="14.00" fill="#666666">[varchar(255)]</text>
<polygon fill="none" stroke="#000000" points="981.5,-764.5 981.5,-794.5 1183.5,-794.5 1183.5,-764.5 981.5,-764.5"/>
<text text-anchor="start" x="988.5" y="-775.9" font-family="Arial" font-size="14.00" fill="#000000">mail_address </text>
<text text-anchor="start" x="1075.6206" y="-775.9" font-family="Arial" font-size="14.00" fill="#666666">[varchar(255)]</text>
<polygon fill="none" stroke="#000000" points="981.5,-734.5 981.5,-764.5 1183.5,-764.5 1183.5,-734.5 981.5,-734.5"/>
<text text-anchor="start" x="988.3668" y="-745.9" font-family="Arial" font-size="14.00" fill="#000000">hashed_password </text>
<text text-anchor="start" x="1105.8506" y="-745.9" font-family="Arial" font-size="14.00" fill="#666666">[binary(60)]</text>
<polygon fill="none" stroke="#000000" points="981.5,-704.5 981.5,-734.5 1183.5,-734.5 1183.5,-704.5 981.5,-704.5"/>
<text text-anchor="start" x="988.5" y="-715.9" font-family="Arial" font-size="14.00" fill="#000000">type </text>
<text text-anchor="start" x="1018.8464" y="-715.9" font-family="Arial" font-size="14.00" fill="#666666">[enum(&#39;student&#39;,&#39;faculty&#39;)]</text>
</g>
<!-- submissions&#45;&gt;users -->
<g id="edge2" class="edge">
<title>submissions:user_id&#45;&gt;users:id</title>
<path fill="none" stroke="#000000" d="M1040.6276,-1133.6893C1091.3628,-1124.7997 1052.7736,-1044.6921 1030.5,-987 1018.8278,-956.7671 993.1722,-963.2329 981.5,-933 966.5331,-894.2333 939.9444,-839.5 981.5,-839.5"/>
<polygon fill="#000000" stroke="#000000" points="1040.4681,-1133.7019 1030.1409,-1130.0144 1035.4841,-1134.101 1030.5,-1134.5 1030.5,-1134.5 1030.5,-1134.5 1035.4841,-1134.101 1030.8591,-1138.9856 1040.4681,-1133.7019 1040.4681,-1133.7019"/>
<text text-anchor="start" x="1037.445" y="-1144.5" font-family="Arial" font-size="10.00" fill="#000000">FOREIGN KEY (user_id) REFERENCES users (id)</text>
</g>
<!-- courses -->
<g id="node7" class="node">
<title>courses</title>
<polygon fill="#efefef" stroke="transparent" points="369.5,-222.5 369.5,-257.5 543.5,-257.5 543.5,-222.5 369.5,-222.5"/>
<polygon fill="none" stroke="#000000" points="369.5,-222.5 369.5,-257.5 543.5,-257.5 543.5,-222.5 369.5,-222.5"/>
<text text-anchor="start" x="376.3677" y="-235.3" font-family="Arial Bold" font-size="18.00" fill="#000000">courses</text>
<text text-anchor="start" x="439.3785" y="-235.3" font-family="Arial" font-size="14.00" fill="#000000"> </text>
<text text-anchor="start" x="443.2691" y="-235.3" font-family="Arial" font-size="14.00" fill="#666666">[BASE TABLE]</text>
<polygon fill="none" stroke="#000000" points="369.5,-192.5 369.5,-222.5 543.5,-222.5 543.5,-192.5 369.5,-192.5"/>
<text text-anchor="start" x="376.5" y="-203.9" font-family="Arial" font-size="14.00" fill="#000000">id </text>
<text text-anchor="start" x="391.2798" y="-203.9" font-family="Arial" font-size="14.00" fill="#666666">[char(36)]</text>
<polygon fill="none" stroke="#000000" points="369.5,-162.5 369.5,-192.5 543.5,-192.5 543.5,-162.5 369.5,-162.5"/>
<text text-anchor="start" x="376.5" y="-173.9" font-family="Arial" font-size="14.00" fill="#000000">name </text>
<text text-anchor="start" x="415.399" y="-173.9" font-family="Arial" font-size="14.00" fill="#666666">[varchar(255)]</text>
<polygon fill="none" stroke="#000000" points="369.5,-132.5 369.5,-162.5 543.5,-162.5 543.5,-132.5 369.5,-132.5"/>
<text text-anchor="start" x="376.5" y="-143.9" font-family="Arial" font-size="14.00" fill="#000000">description </text>
<text text-anchor="start" x="448.068" y="-143.9" font-family="Arial" font-size="14.00" fill="#666666">[text]</text>
<polygon fill="none" stroke="#000000" points="369.5,-102.5 369.5,-132.5 543.5,-132.5 543.5,-102.5 369.5,-102.5"/>
<text text-anchor="start" x="376.5" y="-113.9" font-family="Arial" font-size="14.00" fill="#000000">credit </text>
<text text-anchor="start" x="414.6136" y="-113.9" font-family="Arial" font-size="14.00" fill="#666666">[tinyint unsigned]</text>
<polygon fill="none" stroke="#000000" points="369.5,-72.5 369.5,-102.5 543.5,-102.5 543.5,-72.5 369.5,-72.5"/>
<text text-anchor="start" x="376.5" y="-83.9" font-family="Arial" font-size="14.00" fill="#000000">classroom </text>
<text text-anchor="start" x="444.1662" y="-83.9" font-family="Arial" font-size="14.00" fill="#666666">[varchar(255)]</text>
<polygon fill="none" stroke="#000000" points="369.5,-42.5 369.5,-72.5 543.5,-72.5 543.5,-42.5 369.5,-42.5"/>
<text text-anchor="start" x="376.5" y="-53.9" font-family="Arial" font-size="14.00" fill="#000000">capacity </text>
<text text-anchor="start" x="431.7356" y="-53.9" font-family="Arial" font-size="14.00" fill="#666666">[int unsigned]</text>
</g>
<!-- classes&#45;&gt;courses -->
<g id="edge6" class="edge">
<title>classes:course_id&#45;&gt;courses:id</title>
<path fill="none" stroke="#000000" d="M572.6424,-483.8461C684.7405,-469.0327 663.4056,-207.5 543.5,-207.5"/>
<polygon fill="#000000" stroke="#000000" points="572.4793,-483.8565 562.2104,-480.0093 567.4896,-484.1783 562.5,-484.5 562.5,-484.5 562.5,-484.5 567.4896,-484.1783 562.7896,-488.9907 572.4793,-483.8565 572.4793,-483.8565"/>
<text text-anchor="start" x="569.886" y="-494.5" font-family="Arial" font-size="10.00" fill="#000000">FOREIGN KEY (course_id) REFERENCES courses (id)</text>
</g>
<!-- attendances -->
<g id="node5" class="node">
<title>attendances</title>
<polygon fill="#efefef" stroke="transparent" points="43.5,-824.5 43.5,-859.5 252.5,-859.5 252.5,-824.5 43.5,-824.5"/>
<polygon fill="none" stroke="#000000" points="43.5,-824.5 43.5,-859.5 252.5,-859.5 252.5,-824.5 43.5,-824.5"/>
<text text-anchor="start" x="50.3492" y="-837.3" font-family="Arial Bold" font-size="18.00" fill="#000000">attendances</text>
<text text-anchor="start" x="148.397" y="-837.3" font-family="Arial" font-size="14.00" fill="#000000"> </text>
<text text-anchor="start" x="152.2876" y="-837.3" font-family="Arial" font-size="14.00" fill="#666666">[BASE TABLE]</text>
<polygon fill="none" stroke="#000000" points="43.5,-794.5 43.5,-824.5 252.5,-824.5 252.5,-794.5 43.5,-794.5"/>
<text text-anchor="start" x="50.5" y="-805.9" font-family="Arial" font-size="14.00" fill="#000000">class_id </text>
<text text-anchor="start" x="104.9516" y="-805.9" font-family="Arial" font-size="14.00" fill="#666666">[char(36)]</text>
<polygon fill="none" stroke="#000000" points="43.5,-764.5 43.5,-794.5 252.5,-794.5 252.5,-764.5 43.5,-764.5"/>
<text text-anchor="start" x="50.5" y="-775.9" font-family="Arial" font-size="14.00" fill="#000000">user_id </text>
<text text-anchor="start" x="100.2882" y="-775.9" font-family="Arial" font-size="14.00" fill="#666666">[char(36)]</text>
<polygon fill="none" stroke="#000000" points="43.5,-734.5 43.5,-764.5 252.5,-764.5 252.5,-734.5 43.5,-734.5"/>
<text text-anchor="start" x="50.5" y="-745.9" font-family="Arial" font-size="14.00" fill="#000000">created_at </text>
<text text-anchor="start" x="120.528" y="-745.9" font-family="Arial" font-size="14.00" fill="#666666">[datetime(6)]</text>
</g>
<!-- attendances&#45;&gt;classes -->
<g id="edge4" class="edge">
<title>attendances:class_id&#45;&gt;classes:id</title>
<path fill="none" stroke="#000000" d="M262.5491,-807.1254C317.6468,-779.2071 285.0646,-514.5 350.5,-514.5"/>
<polygon fill="#000000" stroke="#000000" points="262.232,-807.2003 251.4651,-805.1206 257.366,-808.3501 252.5,-809.5 252.5,-809.5 252.5,-809.5 257.366,-808.3501 253.5349,-813.8794 262.232,-807.2003 262.232,-807.2003"/>
<text text-anchor="start" x="259.3345" y="-819.5" font-family="Arial" font-size="10.00" fill="#000000">FOREIGN KEY (class_id) REFERENCES classes (id)</text>
</g>
<!-- documents -->
<g id="node6" class="node">
<title>documents</title>
<polygon fill="#efefef" stroke="transparent" points="356.5,-839.5 356.5,-874.5 555.5,-874.5 555.5,-839.5 356.5,-839.5"/>
<polygon fill="none" stroke="#000000" points="356.5,-839.5 356.5,-874.5 555.5,-874.5 555.5,-839.5 356.5,-839.5"/>
<text text-anchor="start" x="363.3604" y="-852.3" font-family="Arial Bold" font-size="18.00" fill="#000000">documents</text>
<text text-anchor="start" x="451.3858" y="-852.3" font-family="Arial" font-size="14.00" fill="#000000"> </text>
<text text-anchor="start" x="455.2764" y="-852.3" font-family="Arial" font-size="14.00" fill="#666666">[BASE TABLE]</text>
<polygon fill="none" stroke="#000000" points="356.5,-809.5 356.5,-839.5 555.5,-839.5 555.5,-809.5 356.5,-809.5"/>
<text text-anchor="start" x="363.5" y="-820.9" font-family="Arial" font-size="14.00" fill="#000000">id </text>
<text text-anchor="start" x="378.2798" y="-820.9" font-family="Arial" font-size="14.00" fill="#666666">[char(36)]</text>
<polygon fill="none" stroke="#000000" points="356.5,-779.5 356.5,-809.5 555.5,-809.5 555.5,-779.5 356.5,-779.5"/>
<text text-anchor="start" x="363.5" y="-790.9" font-family="Arial" font-size="14.00" fill="#000000">class_id </text>
<text text-anchor="start" x="417.9516" y="-790.9" font-family="Arial" font-size="14.00" fill="#666666">[char(36)]</text>
<polygon fill="none" stroke="#000000" points="356.5,-749.5 356.5,-779.5 555.5,-779.5 555.5,-749.5 356.5,-749.5"/>
<text text-anchor="start" x="363.5" y="-760.9" font-family="Arial" font-size="14.00" fill="#000000">name </text>
<text text-anchor="start" x="402.399" y="-760.9" font-family="Arial" font-size="14.00" fill="#666666">[text]</text>
<polygon fill="none" stroke="#000000" points="356.5,-719.5 356.5,-749.5 555.5,-749.5 555.5,-719.5 356.5,-719.5"/>
<text text-anchor="start" x="363.5" y="-730.9" font-family="Arial" font-size="14.00" fill="#000000">created_at </text>
<text text-anchor="start" x="433.528" y="-730.9" font-family="Arial" font-size="14.00" fill="#666666">[datetime(6)]</text>
</g>
<!-- documents&#45;&gt;classes -->
<g id="edge5" class="edge">
<title>documents:class_id&#45;&gt;classes:id</title>
<path fill="none" stroke="#000000" d="M565.9319,-793.3032C604.4458,-783.5338 583.7112,-716.2619 555.5,-677 499.4037,-598.9302 406.5963,-686.0698 350.5,-608 326.2514,-574.2529 308.9444,-514.5 350.5,-514.5"/>
<polygon fill="#000000" stroke="#000000" points="565.4348,-793.3601 554.987,-790.0293 560.4674,-793.9301 555.5,-794.5 555.5,-794.5 555.5,-794.5 560.4674,-793.9301 556.013,-798.9707 565.4348,-793.3601 565.4348,-793.3601"/>
<text text-anchor="start" x="310.3345" y="-778.5" font-family="Arial" font-size="10.00" fill="#000000">FOREIGN KEY (class_id) REFERENCES classes (id)</text>
</g>
</g>
</svg>
