<?xml version="1.0" encoding="UTF-8" standalone="no"?>
<!DOCTYPE svg PUBLIC "-//W3C//DTD SVG 1.1//EN"
 "http://www.w3.org/Graphics/SVG/1.1/DTD/svg11.dtd">
<!-- Generated by graphviz version 2.40.1 (20161225.0304)
 -->
<!-- Title: assignment Pages: 1 -->
<svg width="930pt" height="592pt"
 viewBox="0.00 0.00 929.50 592.00" xmlns="http://www.w3.org/2000/svg" xmlns:xlink="http://www.w3.org/1999/xlink">
<g id="graph0" class="graph" transform="scale(1 1) rotate(0) translate(4 588)">
<title>assignment</title>
<polygon fill="#ffffff" stroke="transparent" points="-4,4 -4,-588 925.5,-588 925.5,4 -4,4"/>
<!-- assignment -->
<g id="node1" class="node">
<title>assignment</title>
<polygon fill="#efefef" stroke="transparent" points="46.5,-502.5 46.5,-537.5 249.5,-537.5 249.5,-502.5 46.5,-502.5"/>
<polygon fill="none" stroke="#000000" points="46.5,-502.5 46.5,-537.5 249.5,-537.5 249.5,-502.5 46.5,-502.5"/>
<text text-anchor="start" x="53.3633" y="-515.3" font-family="Arial Bold" font-size="18.00" fill="#000000">assignment</text>
<text text-anchor="start" x="145.3829" y="-515.3" font-family="Arial" font-size="14.00" fill="#000000"> </text>
<text text-anchor="start" x="149.2735" y="-515.3" font-family="Arial" font-size="14.00" fill="#666666">[BASE TABLE]</text>
<polygon fill="none" stroke="#000000" points="46.5,-472.5 46.5,-502.5 249.5,-502.5 249.5,-472.5 46.5,-472.5"/>
<text text-anchor="start" x="53.5" y="-483.9" font-family="Arial" font-size="14.00" fill="#000000">id </text>
<text text-anchor="start" x="68.2798" y="-483.9" font-family="Arial" font-size="14.00" fill="#666666">[char(36)]</text>
<polygon fill="none" stroke="#000000" points="46.5,-442.5 46.5,-472.5 249.5,-472.5 249.5,-442.5 46.5,-442.5"/>
<text text-anchor="start" x="53.5" y="-453.9" font-family="Arial" font-size="14.00" fill="#000000">class_id </text>
<text text-anchor="start" x="107.9516" y="-453.9" font-family="Arial" font-size="14.00" fill="#666666">[char(36)]</text>
<polygon fill="none" stroke="#000000" points="46.5,-412.5 46.5,-442.5 249.5,-442.5 249.5,-412.5 46.5,-412.5"/>
<text text-anchor="start" x="53.5" y="-423.9" font-family="Arial" font-size="14.00" fill="#000000">name </text>
<text text-anchor="start" x="92.399" y="-423.9" font-family="Arial" font-size="14.00" fill="#666666">[varchar(255)]</text>
<polygon fill="none" stroke="#000000" points="46.5,-382.5 46.5,-412.5 249.5,-412.5 249.5,-382.5 46.5,-382.5"/>
<text text-anchor="start" x="53.5" y="-393.9" font-family="Arial" font-size="14.00" fill="#000000">description </text>
<text text-anchor="start" x="125.068" y="-393.9" font-family="Arial" font-size="14.00" fill="#666666">[text]</text>
<polygon fill="none" stroke="#000000" points="46.5,-352.5 46.5,-382.5 249.5,-382.5 249.5,-352.5 46.5,-352.5"/>
<text text-anchor="start" x="53.5" y="-363.9" font-family="Arial" font-size="14.00" fill="#000000">deadline </text>
<text text-anchor="start" x="110.2994" y="-363.9" font-family="Arial" font-size="14.00" fill="#666666">[datetime(6)]</text>
<polygon fill="none" stroke="#000000" points="46.5,-322.5 46.5,-352.5 249.5,-352.5 249.5,-322.5 46.5,-322.5"/>
<text text-anchor="start" x="53.5" y="-333.9" font-family="Arial" font-size="14.00" fill="#000000">created_at </text>
<text text-anchor="start" x="123.528" y="-333.9" font-family="Arial" font-size="14.00" fill="#666666">[datetime(6)]</text>
<polygon fill="none" stroke="#000000" stroke-width="3" points="44.5,-321.5 44.5,-539.5 250.5,-539.5 250.5,-321.5 44.5,-321.5"/>
</g>
<!-- classes -->
<g id="node2" class="node">
<title>classes</title>
<polygon fill="#efefef" stroke="transparent" points="375.5,-162.5 375.5,-197.5 546.5,-197.5 546.5,-162.5 375.5,-162.5"/>
<polygon fill="none" stroke="#000000" points="375.5,-162.5 375.5,-197.5 546.5,-197.5 546.5,-162.5 375.5,-162.5"/>
<text text-anchor="start" x="382.3698" y="-175.3" font-family="Arial Bold" font-size="18.00" fill="#000000">classes</text>
<text text-anchor="start" x="442.3764" y="-175.3" font-family="Arial" font-size="14.00" fill="#000000"> </text>
<text text-anchor="start" x="446.267" y="-175.3" font-family="Arial" font-size="14.00" fill="#666666">[BASE TABLE]</text>
<polygon fill="none" stroke="#000000" points="375.5,-132.5 375.5,-162.5 546.5,-162.5 546.5,-132.5 375.5,-132.5"/>
<text text-anchor="start" x="382.5" y="-143.9" font-family="Arial" font-size="14.00" fill="#000000">id </text>
<text text-anchor="start" x="397.2798" y="-143.9" font-family="Arial" font-size="14.00" fill="#666666">[char(36)]</text>
<polygon fill="none" stroke="#000000" points="375.5,-102.5 375.5,-132.5 546.5,-132.5 546.5,-102.5 375.5,-102.5"/>
<text text-anchor="start" x="382.5" y="-113.9" font-family="Arial" font-size="14.00" fill="#000000">title </text>
<text text-anchor="start" x="408.1676" y="-113.9" font-family="Arial" font-size="14.00" fill="#666666">[varchar(255)]</text>
<polygon fill="none" stroke="#000000" points="375.5,-72.5 375.5,-102.5 546.5,-102.5 546.5,-72.5 375.5,-72.5"/>
<text text-anchor="start" x="382.5" y="-83.9" font-family="Arial" font-size="14.00" fill="#000000">description </text>
<text text-anchor="start" x="454.068" y="-83.9" font-family="Arial" font-size="14.00" fill="#666666">[text]</text>
<polygon fill="none" stroke="#000000" points="375.5,-42.5 375.5,-72.5 546.5,-72.5 546.5,-42.5 375.5,-42.5"/>
<text text-anchor="start" x="382.5" y="-53.9" font-family="Arial" font-size="14.00" fill="#000000">attendance_code </text>
<text text-anchor="start" x="493.7804" y="-53.9" font-family="Arial" font-size="14.00" fill="#666666">[tinyint]</text>
</g>
<!-- assignment&#45;&gt;classes -->
<g id="edge1" class="edge">
<title>assignment:class_id&#45;&gt;classes:id</title>
<path fill="none" stroke="#000000" d="M259.5044,-456.9379C328.059,-448.6672 272.3624,-350.8407 303.5,-277 329.0874,-216.3211 309.6468,-147.5 375.5,-147.5"/>
<polygon fill="#000000" stroke="#000000" points="259.4843,-456.9389 249.2475,-453.0071 254.4921,-457.2194 249.5,-457.5 249.5,-457.5 249.5,-457.5 254.4921,-457.2194 249.7525,-461.9929 259.4843,-456.9389 259.4843,-456.9389"/>
<text text-anchor="start" x="256.3345" y="-467.5" font-family="Arial" font-size="10.00" fill="#000000">FOREIGN KEY (class_id) REFERENCES classes (id)</text>
</g>
<!-- attendances -->
<g id="node3" class="node">
<title>attendances</title>
<polygon fill="#efefef" stroke="transparent" points="356.5,-457.5 356.5,-492.5 565.5,-492.5 565.5,-457.5 356.5,-457.5"/>
<polygon fill="none" stroke="#000000" points="356.5,-457.5 356.5,-492.5 565.5,-492.5 565.5,-457.5 356.5,-457.5"/>
<text text-anchor="start" x="363.3492" y="-470.3" font-family="Arial Bold" font-size="18.00" fill="#000000">attendances</text>
<text text-anchor="start" x="461.397" y="-470.3" font-family="Arial" font-size="14.00" fill="#000000"> </text>
<text text-anchor="start" x="465.2876" y="-470.3" font-family="Arial" font-size="14.00" fill="#666666">[BASE TABLE]</text>
<polygon fill="none" stroke="#000000" points="356.5,-427.5 356.5,-457.5 565.5,-457.5 565.5,-427.5 356.5,-427.5"/>
<text text-anchor="start" x="363.5" y="-438.9" font-family="Arial" font-size="14.00" fill="#000000">class_id </text>
<text text-anchor="start" x="417.9516" y="-438.9" font-family="Arial" font-size="14.00" fill="#666666">[char(36)]</text>
<polygon fill="none" stroke="#000000" points="356.5,-397.5 356.5,-427.5 565.5,-427.5 565.5,-397.5 356.5,-397.5"/>
<text text-anchor="start" x="363.5" y="-408.9" font-family="Arial" font-size="14.00" fill="#000000">user_id </text>
<text text-anchor="start" x="413.2882" y="-408.9" font-family="Arial" font-size="14.00" fill="#666666">[char(36)]</text>
<polygon fill="none" stroke="#000000" points="356.5,-367.5 356.5,-397.5 565.5,-397.5 565.5,-367.5 356.5,-367.5"/>
<text text-anchor="start" x="363.5" y="-378.9" font-family="Arial" font-size="14.00" fill="#000000">created_at </text>
<text text-anchor="start" x="433.528" y="-378.9" font-family="Arial" font-size="14.00" fill="#666666">[datetime(6)]</text>
</g>
<!-- attendances&#45;&gt;classes -->
<g id="edge2" class="edge">
<title>attendances:class_id&#45;&gt;classes:id</title>
<path fill="none" stroke="#000000" d="M346.4762,-439.9497C293.0264,-411.1166 313.4011,-147.5 375.5,-147.5"/>
<polygon fill="#000000" stroke="#000000" points="346.8087,-440.0343 355.3904,-446.8611 351.6544,-441.2671 356.5,-442.5 356.5,-442.5 356.5,-442.5 351.6544,-441.2671 357.6096,-438.1389 346.8087,-440.0343 346.8087,-440.0343"/>
<text text-anchor="start" x="363.3345" y="-426.5" font-family="Arial" font-size="10.00" fill="#000000">FOREIGN KEY (class_id) REFERENCES classes (id)</text>
</g>
<!-- documents -->
<g id="node4" class="node">
<title>documents</title>
<polygon fill="#efefef" stroke="transparent" points="669.5,-472.5 669.5,-507.5 868.5,-507.5 868.5,-472.5 669.5,-472.5"/>
<polygon fill="none" stroke="#000000" points="669.5,-472.5 669.5,-507.5 868.5,-507.5 868.5,-472.5 669.5,-472.5"/>
<text text-anchor="start" x="676.3604" y="-485.3" font-family="Arial Bold" font-size="18.00" fill="#000000">documents</text>
<text text-anchor="start" x="764.3858" y="-485.3" font-family="Arial" font-size="14.00" fill="#000000"> </text>
<text text-anchor="start" x="768.2764" y="-485.3" font-family="Arial" font-size="14.00" fill="#666666">[BASE TABLE]</text>
<polygon fill="none" stroke="#000000" points="669.5,-442.5 669.5,-472.5 868.5,-472.5 868.5,-442.5 669.5,-442.5"/>
<text text-anchor="start" x="676.5" y="-453.9" font-family="Arial" font-size="14.00" fill="#000000">id </text>
<text text-anchor="start" x="691.2798" y="-453.9" font-family="Arial" font-size="14.00" fill="#666666">[char(36)]</text>
<polygon fill="none" stroke="#000000" points="669.5,-412.5 669.5,-442.5 868.5,-442.5 868.5,-412.5 669.5,-412.5"/>
<text text-anchor="start" x="676.5" y="-423.9" font-family="Arial" font-size="14.00" fill="#000000">class_id </text>
<text text-anchor="start" x="730.9516" y="-423.9" font-family="Arial" font-size="14.00" fill="#666666">[char(36)]</text>
<polygon fill="none" stroke="#000000" points="669.5,-382.5 669.5,-412.5 868.5,-412.5 868.5,-382.5 669.5,-382.5"/>
<text text-anchor="start" x="676.5" y="-393.9" font-family="Arial" font-size="14.00" fill="#000000">name </text>
<text text-anchor="start" x="715.399" y="-393.9" font-family="Arial" font-size="14.00" fill="#666666">[text]</text>
<polygon fill="none" stroke="#000000" points="669.5,-352.5 669.5,-382.5 868.5,-382.5 868.5,-352.5 669.5,-352.5"/>
<text text-anchor="start" x="676.5" y="-363.9" font-family="Arial" font-size="14.00" fill="#000000">created_at </text>
<text text-anchor="start" x="746.528" y="-363.9" font-family="Arial" font-size="14.00" fill="#666666">[datetime(6)]</text>
</g>
<!-- documents&#45;&gt;classes -->
<g id="edge3" class="edge">
<title>documents:class_id&#45;&gt;classes:id</title>
<path fill="none" stroke="#000000" d="M659.2618,-426.7999C603.5226,-418.5097 644.6569,-338.29 617.5,-277 590.9097,-216.9887 612.1384,-147.5 546.5,-147.5"/>
<polygon fill="#000000" stroke="#000000" points="659.5233,-426.8177 669.193,-431.9895 664.5116,-427.1588 669.5,-427.5 669.5,-427.5 669.5,-427.5 664.5116,-427.1588 669.807,-423.0105 659.5233,-426.8177 659.5233,-426.8177"/>
<text text-anchor="start" x="676.3345" y="-437.5" font-family="Arial" font-size="10.00" fill="#000000">FOREIGN KEY (class_id) REFERENCES classes (id)</text>
</g>
</g>
</svg>
