<?xml version="1.0" encoding="UTF-8" standalone="no"?>
<!DOCTYPE svg PUBLIC "-//W3C//DTD SVG 1.1//EN"
 "http://www.w3.org/Graphics/SVG/1.1/DTD/svg11.dtd">
<!-- Generated by graphviz version 2.40.1 (20161225.0304)
 -->
<!-- Title: assignment Pages: 1 -->
<svg width="1272pt" height="1266pt"
 viewBox="0.00 0.00 1271.50 1266.00" xmlns="http://www.w3.org/2000/svg" xmlns:xlink="http://www.w3.org/1999/xlink">
<g id="graph0" class="graph" transform="scale(1 1) rotate(0) translate(4 1262)">
<title>assignment</title>
<polygon fill="#ffffff" stroke="transparent" points="-4,4 -4,-1262 1267.5,-1262 1267.5,4 -4,4"/>
<!-- assignment -->
<g id="node1" class="node">
<title>assignment</title>
<polygon fill="#efefef" stroke="transparent" points="662.5,-869.5 662.5,-904.5 865.5,-904.5 865.5,-869.5 662.5,-869.5"/>
<polygon fill="none" stroke="#000000" points="662.5,-869.5 662.5,-904.5 865.5,-904.5 865.5,-869.5 662.5,-869.5"/>
<text text-anchor="start" x="669.3633" y="-882.3" font-family="Arial Bold" font-size="18.00" fill="#000000">assignment</text>
<text text-anchor="start" x="761.3829" y="-882.3" font-family="Arial" font-size="14.00" fill="#000000"> </text>
<text text-anchor="start" x="765.2735" y="-882.3" font-family="Arial" font-size="14.00" fill="#666666">[BASE TABLE]</text>
<polygon fill="none" stroke="#000000" points="662.5,-839.5 662.5,-869.5 865.5,-869.5 865.5,-839.5 662.5,-839.5"/>
<text text-anchor="start" x="669.5" y="-850.9" font-family="Arial" font-size="14.00" fill="#000000">id </text>
<text text-anchor="start" x="684.2798" y="-850.9" font-family="Arial" font-size="14.00" fill="#666666">[char(36)]</text>
<polygon fill="none" stroke="#000000" points="662.5,-809.5 662.5,-839.5 865.5,-839.5 865.5,-809.5 662.5,-809.5"/>
<text text-anchor="start" x="669.5" y="-820.9" font-family="Arial" font-size="14.00" fill="#000000">class_id </text>
<text text-anchor="start" x="723.9516" y="-820.9" font-family="Arial" font-size="14.00" fill="#666666">[char(36)]</text>
<polygon fill="none" stroke="#000000" points="662.5,-779.5 662.5,-809.5 865.5,-809.5 865.5,-779.5 662.5,-779.5"/>
<text text-anchor="start" x="669.5" y="-790.9" font-family="Arial" font-size="14.00" fill="#000000">name </text>
<text text-anchor="start" x="708.399" y="-790.9" font-family="Arial" font-size="14.00" fill="#666666">[varchar(255)]</text>
<polygon fill="none" stroke="#000000" points="662.5,-749.5 662.5,-779.5 865.5,-779.5 865.5,-749.5 662.5,-749.5"/>
<text text-anchor="start" x="669.5" y="-760.9" font-family="Arial" font-size="14.00" fill="#000000">description </text>
<text text-anchor="start" x="741.068" y="-760.9" font-family="Arial" font-size="14.00" fill="#666666">[text]</text>
<polygon fill="none" stroke="#000000" points="662.5,-719.5 662.5,-749.5 865.5,-749.5 865.5,-719.5 662.5,-719.5"/>
<text text-anchor="start" x="669.5" y="-730.9" font-family="Arial" font-size="14.00" fill="#000000">deadline </text>
<text text-anchor="start" x="726.2994" y="-730.9" font-family="Arial" font-size="14.00" fill="#666666">[datetime(6)]</text>
<polygon fill="none" stroke="#000000" points="662.5,-689.5 662.5,-719.5 865.5,-719.5 865.5,-689.5 662.5,-689.5"/>
<text text-anchor="start" x="669.5" y="-700.9" font-family="Arial" font-size="14.00" fill="#000000">created_at </text>
<text text-anchor="start" x="739.528" y="-700.9" font-family="Arial" font-size="14.00" fill="#666666">[datetime(6)]</text>
<polygon fill="none" stroke="#000000" stroke-width="3" points="660.5,-688.5 660.5,-906.5 866.5,-906.5 866.5,-688.5 660.5,-688.5"/>
</g>
<!-- classes -->
<g id="node4" class="node">
<title>classes</title>
<polygon fill="#efefef" stroke="transparent" points="350.5,-529.5 350.5,-564.5 562.5,-564.5 562.5,-529.5 350.5,-529.5"/>
<polygon fill="none" stroke="#000000" points="350.5,-529.5 350.5,-564.5 562.5,-564.5 562.5,-529.5 350.5,-529.5"/>
<text text-anchor="start" x="377.8698" y="-542.3" font-family="Arial Bold" font-size="18.00" fill="#000000">classes</text>
<text text-anchor="start" x="437.8764" y="-542.3" font-family="Arial" font-size="14.00" fill="#000000"> </text>
<text text-anchor="start" x="441.767" y="-542.3" font-family="Arial" font-size="14.00" fill="#666666">[BASE TABLE]</text>
<polygon fill="none" stroke="#000000" points="350.5,-499.5 350.5,-529.5 562.5,-529.5 562.5,-499.5 350.5,-499.5"/>
<text text-anchor="start" x="357.5" y="-510.9" font-family="Arial" font-size="14.00" fill="#000000">id </text>
<text text-anchor="start" x="372.2798" y="-510.9" font-family="Arial" font-size="14.00" fill="#666666">[char(36)]</text>
<polygon fill="none" stroke="#000000" points="350.5,-469.5 350.5,-499.5 562.5,-499.5 562.5,-469.5 350.5,-469.5"/>
<text text-anchor="start" x="357.5" y="-480.9" font-family="Arial" font-size="14.00" fill="#000000">course_id </text>
<text text-anchor="start" x="422.0708" y="-480.9" font-family="Arial" font-size="14.00" fill="#666666">[char(36)]</text>
<polygon fill="none" stroke="#000000" points="350.5,-439.5 350.5,-469.5 562.5,-469.5 562.5,-439.5 350.5,-439.5"/>
<text text-anchor="start" x="357.5" y="-450.9" font-family="Arial" font-size="14.00" fill="#000000">title </text>
<text text-anchor="start" x="383.1676" y="-450.9" font-family="Arial" font-size="14.00" fill="#666666">[varchar(255)]</text>
<polygon fill="none" stroke="#000000" points="350.5,-409.5 350.5,-439.5 562.5,-439.5 562.5,-409.5 350.5,-409.5"/>
<text text-anchor="start" x="357.5" y="-420.9" font-family="Arial" font-size="14.00" fill="#000000">description </text>
<text text-anchor="start" x="429.068" y="-420.9" font-family="Arial" font-size="14.00" fill="#666666">[text]</text>
<polygon fill="none" stroke="#000000" points="350.5,-379.5 350.5,-409.5 562.5,-409.5 562.5,-379.5 350.5,-379.5"/>
<text text-anchor="start" x="357.3002" y="-390.9" font-family="Arial" font-size="14.00" fill="#000000">attendance_code </text>
<text text-anchor="start" x="468.5806" y="-390.9" font-family="Arial" font-size="14.00" fill="#666666">[varchar(255)]</text>
</g>
<!-- assignment&#45;&gt;classes -->
<g id="edge3" class="edge">
<title>assignment:class_id&#45;&gt;classes:id</title>
<path fill="none" stroke="#000000" d="M652.7075,-822.3549C594.2082,-794.9657 631.35,-514.5 562.5,-514.5"/>
<polygon fill="#000000" stroke="#000000" points="652.7316,-822.3601 661.537,-828.8958 657.6158,-823.43 662.5,-824.5 662.5,-824.5 662.5,-824.5 657.6158,-823.43 663.463,-820.1042 652.7316,-822.3601 652.7316,-822.3601"/>
<text text-anchor="start" x="606.3345" y="-808.5" font-family="Arial" font-size="10.00" fill="#000000">FOREIGN KEY (class_id) REFERENCES classes (id)</text>
</g>
<!-- submissions -->
<g id="node2" class="node">
<title>submissions</title>
<polygon fill="#efefef" stroke="transparent" points="813.5,-1179.5 813.5,-1214.5 1023.5,-1214.5 1023.5,-1179.5 813.5,-1179.5"/>
<polygon fill="none" stroke="#000000" points="813.5,-1179.5 813.5,-1214.5 1023.5,-1214.5 1023.5,-1179.5 813.5,-1179.5"/>
<text text-anchor="start" x="820.3704" y="-1192.3" font-family="Arial Bold" font-size="18.00" fill="#000000">submissions</text>
<text text-anchor="start" x="919.3758" y="-1192.3" font-family="Arial" font-size="14.00" fill="#000000"> </text>
<text text-anchor="start" x="923.2664" y="-1192.3" font-family="Arial" font-size="14.00" fill="#666666">[BASE TABLE]</text>
<polygon fill="none" stroke="#000000" points="813.5,-1149.5 813.5,-1179.5 1023.5,-1179.5 1023.5,-1149.5 813.5,-1149.5"/>
<text text-anchor="start" x="820.5" y="-1160.9" font-family="Arial" font-size="14.00" fill="#000000">id </text>
<text text-anchor="start" x="835.2798" y="-1160.9" font-family="Arial" font-size="14.00" fill="#666666">[char(36)]</text>
<polygon fill="none" stroke="#000000" points="813.5,-1119.5 813.5,-1149.5 1023.5,-1149.5 1023.5,-1119.5 813.5,-1119.5"/>
<text text-anchor="start" x="820.5" y="-1130.9" font-family="Arial" font-size="14.00" fill="#000000">user_id </text>
<text text-anchor="start" x="870.2882" y="-1130.9" font-family="Arial" font-size="14.00" fill="#666666">[char(36)]</text>
<polygon fill="none" stroke="#000000" points="813.5,-1089.5 813.5,-1119.5 1023.5,-1119.5 1023.5,-1089.5 813.5,-1089.5"/>
<text text-anchor="start" x="820.5" y="-1100.9" font-family="Arial" font-size="14.00" fill="#000000">assignment_id </text>
<text text-anchor="start" x="914.6332" y="-1100.9" font-family="Arial" font-size="14.00" fill="#666666">[char(36)]</text>
<polygon fill="none" stroke="#000000" points="813.5,-1059.5 813.5,-1089.5 1023.5,-1089.5 1023.5,-1059.5 813.5,-1059.5"/>
<text text-anchor="start" x="820.5" y="-1070.9" font-family="Arial" font-size="14.00" fill="#000000">name </text>
<text text-anchor="start" x="859.399" y="-1070.9" font-family="Arial" font-size="14.00" fill="#666666">[varchar(255)]</text>
<polygon fill="none" stroke="#000000" points="813.5,-1029.5 813.5,-1059.5 1023.5,-1059.5 1023.5,-1029.5 813.5,-1029.5"/>
<text text-anchor="start" x="820.5" y="-1040.9" font-family="Arial" font-size="14.00" fill="#000000">created_at </text>
<text text-anchor="start" x="890.528" y="-1040.9" font-family="Arial" font-size="14.00" fill="#666666">[datetime(6)]</text>
</g>
<!-- submissions&#45;&gt;assignment -->
<g id="edge1" class="edge">
<title>submissions:assignment_id&#45;&gt;assignment:id</title>
<path fill="none" stroke="#000000" d="M803.1635,-1103.362C765.4112,-1094.0626 791.0621,-1029.8242 813.5,-987 826.5456,-962.1015 852.4544,-975.8985 865.5,-951 885.405,-913.0099 908.3889,-854.5 865.5,-854.5"/>
<polygon fill="#000000" stroke="#000000" points="803.5601,-1103.4056 813.0075,-1108.973 808.53,-1103.9528 813.5,-1104.5 813.5,-1104.5 813.5,-1104.5 808.53,-1103.9528 813.9925,-1100.027 803.5601,-1103.4056 803.5601,-1103.4056"/>
<text text-anchor="start" x="522.27" y="-1114.5" font-family="Arial" font-size="10.00" fill="#000000">FOREIGN KEY (assignment_id) REFERENCES assignment (id)</text>
</g>
<!-- users -->
<g id="node3" class="node">
<title>users</title>
<polygon fill="#efefef" stroke="transparent" points="972.5,-854.5 972.5,-889.5 1174.5,-889.5 1174.5,-854.5 972.5,-854.5"/>
<polygon fill="none" stroke="#000000" points="972.5,-854.5 972.5,-889.5 1174.5,-889.5 1174.5,-854.5 972.5,-854.5"/>
<text text-anchor="start" x="1002.8708" y="-867.3" font-family="Arial Bold" font-size="18.00" fill="#000000">users</text>
<text text-anchor="start" x="1046.8754" y="-867.3" font-family="Arial" font-size="14.00" fill="#000000"> </text>
<text text-anchor="start" x="1050.766" y="-867.3" font-family="Arial" font-size="14.00" fill="#666666">[BASE TABLE]</text>
<polygon fill="none" stroke="#000000" points="972.5,-824.5 972.5,-854.5 1174.5,-854.5 1174.5,-824.5 972.5,-824.5"/>
<text text-anchor="start" x="979.5" y="-835.9" font-family="Arial" font-size="14.00" fill="#000000">id </text>
<text text-anchor="start" x="994.2798" y="-835.9" font-family="Arial" font-size="14.00" fill="#666666">[char(36)]</text>
<polygon fill="none" stroke="#000000" points="972.5,-794.5 972.5,-824.5 1174.5,-824.5 1174.5,-794.5 972.5,-794.5"/>
<text text-anchor="start" x="979.5" y="-805.9" font-family="Arial" font-size="14.00" fill="#000000">name </text>
<text text-anchor="start" x="1018.399" y="-805.9" font-family="Arial" font-size="14.00" fill="#666666">[varchar(255)]</text>
<polygon fill="none" stroke="#000000" points="972.5,-764.5 972.5,-794.5 1174.5,-794.5 1174.5,-764.5 972.5,-764.5"/>
<text text-anchor="start" x="979.5" y="-775.9" font-family="Arial" font-size="14.00" fill="#000000">mail_address </text>
<text text-anchor="start" x="1066.6206" y="-775.9" font-family="Arial" font-size="14.00" fill="#666666">[varchar(255)]</text>
<polygon fill="none" stroke="#000000" points="972.5,-734.5 972.5,-764.5 1174.5,-764.5 1174.5,-734.5 972.5,-734.5"/>
<text text-anchor="start" x="979.3668" y="-745.9" font-family="Arial" font-size="14.00" fill="#000000">hashed_password </text>
<text text-anchor="start" x="1096.8506" y="-745.9" font-family="Arial" font-size="14.00" fill="#666666">[binary(60)]</text>
<polygon fill="none" stroke="#000000" points="972.5,-704.5 972.5,-734.5 1174.5,-734.5 1174.5,-704.5 972.5,-704.5"/>
<text text-anchor="start" x="979.5" y="-715.9" font-family="Arial" font-size="14.00" fill="#000000">type </text>
<text text-anchor="start" x="1009.8464" y="-715.9" font-family="Arial" font-size="14.00" fill="#666666">[enum(&#39;student&#39;,&#39;faculty&#39;)]</text>
</g>
<!-- submissions&#45;&gt;users -->
<g id="edge2" class="edge">
<title>submissions:user_id&#45;&gt;users:id</title>
<path fill="none" stroke="#000000" d="M1033.6331,-1133.6871C1084.4279,-1124.7742 1046.3477,-1044.4671 1023.5,-987 1011.3038,-956.3238 984.6962,-963.6762 972.5,-933 957.1473,-894.3845 930.9444,-839.5 972.5,-839.5"/>
<polygon fill="#000000" stroke="#000000" points="1033.468,-1133.7002 1023.1401,-1130.0144 1028.484,-1134.1001 1023.5,-1134.5 1023.5,-1134.5 1023.5,-1134.5 1028.484,-1134.1001 1023.8599,-1138.9856 1033.468,-1133.7002 1033.468,-1133.7002"/>
<text text-anchor="start" x="1030.445" y="-1144.5" font-family="Arial" font-size="10.00" fill="#000000">FOREIGN KEY (user_id) REFERENCES users (id)</text>
</g>
<!-- courses -->
<g id="node7" class="node">
<title>courses</title>
<polygon fill="#efefef" stroke="transparent" points="369.5,-222.5 369.5,-257.5 543.5,-257.5 543.5,-222.5 369.5,-222.5"/>
<polygon fill="none" stroke="#000000" points="369.5,-222.5 369.5,-257.5 543.5,-257.5 543.5,-222.5 369.5,-222.5"/>
<text text-anchor="start" x="376.3677" y="-235.3" font-family="Arial Bold" font-size="18.00" fill="#000000">courses</text>
<text text-anchor="start" x="439.3785" y="-235.3" font-family="Arial" font-size="14.00" fill="#000000"> </text>
<text text-anchor="start" x="443.2691" y="-235.3" font-family="Arial" font-size="14.00" fill="#666666">[BASE TABLE]</text>
<polygon fill="none" stroke="#000000" points="369.5,-192.5 369.5,-222.5 543.5,-222.5 543.5,-192.5 369.5,-192.5"/>
<text text-anchor="start" x="376.5" y="-203.9" font-family="Arial" font-size="14.00" fill="#000000">id </text>
<text text-anchor="start" x="391.2798" y="-203.9" font-family="Arial" font-size="14.00" fill="#666666">[char(36)]</text>
<polygon fill="none" stroke="#000000" points="369.5,-162.5 369.5,-192.5 543.5,-192.5 543.5,-162.5 369.5,-162.5"/>
<text text-anchor="start" x="376.5" y="-173.9" font-family="Arial" font-size="14.00" fill="#000000">name </text>
<text text-anchor="start" x="415.399" y="-173.9" font-family="Arial" font-size="14.00" fill="#666666">[varchar(255)]</text>
<polygon fill="none" stroke="#000000" points="369.5,-132.5 369.5,-162.5 543.5,-162.5 543.5,-132.5 369.5,-132.5"/>
<text text-anchor="start" x="376.5" y="-143.9" font-family="Arial" font-size="14.00" fill="#000000">description </text>
<text text-anchor="start" x="448.068" y="-143.9" font-family="Arial" font-size="14.00" fill="#666666">[text]</text>
<polygon fill="none" stroke="#000000" points="369.5,-102.5 369.5,-132.5 543.5,-132.5 543.5,-102.5 369.5,-102.5"/>
<text text-anchor="start" x="376.5" y="-113.9" font-family="Arial" font-size="14.00" fill="#000000">credit </text>
<text text-anchor="start" x="414.6136" y="-113.9" font-family="Arial" font-size="14.00" fill="#666666">[tinyint unsigned]</text>
<polygon fill="none" stroke="#000000" points="369.5,-72.5 369.5,-102.5 543.5,-102.5 543.5,-72.5 369.5,-72.5"/>
<text text-anchor="start" x="376.5" y="-83.9" font-family="Arial" font-size="14.00" fill="#000000">classroom </text>
<text text-anchor="start" x="444.1662" y="-83.9" font-family="Arial" font-size="14.00" fill="#666666">[varchar(255)]</text>
<polygon fill="none" stroke="#000000" points="369.5,-42.5 369.5,-72.5 543.5,-72.5 543.5,-42.5 369.5,-42.5"/>
<text text-anchor="start" x="376.5" y="-53.9" font-family="Arial" font-size="14.00" fill="#000000">capacity </text>
<text text-anchor="start" x="431.7356" y="-53.9" font-family="Arial" font-size="14.00" fill="#666666">[int unsigned]</text>
</g>
<!-- classes&#45;&gt;courses -->
<g id="edge6" class="edge">
<title>classes:course_id&#45;&gt;courses:id</title>
<path fill="none" stroke="#000000" d="M572.6424,-483.8461C684.7405,-469.0327 663.4056,-207.5 543.5,-207.5"/>
<polygon fill="#000000" stroke="#000000" points="572.4793,-483.8565 562.2104,-480.0093 567.4896,-484.1783 562.5,-484.5 562.5,-484.5 562.5,-484.5 567.4896,-484.1783 562.7896,-488.9907 572.4793,-483.8565 572.4793,-483.8565"/>
<text text-anchor="start" x="569.886" y="-494.5" font-family="Arial" font-size="10.00" fill="#000000">FOREIGN KEY (course_id) REFERENCES courses (id)</text>
</g>
<!-- attendances -->
<g id="node5" class="node">
<title>attendances</title>
<polygon fill="#efefef" stroke="transparent" points="43.5,-824.5 43.5,-859.5 252.5,-859.5 252.5,-824.5 43.5,-824.5"/>
<polygon fill="none" stroke="#000000" points="43.5,-824.5 43.5,-859.5 252.5,-859.5 252.5,-824.5 43.5,-824.5"/>
<text text-anchor="start" x="50.3492" y="-837.3" font-family="Arial Bold" font-size="18.00" fill="#000000">attendances</text>
<text text-anchor="start" x="148.397" y="-837.3" font-family="Arial" font-size="14.00" fill="#000000"> </text>
<text text-anchor="start" x="152.2876" y="-837.3" font-family="Arial" font-size="14.00" fill="#666666">[BASE TABLE]</text>
<polygon fill="none" stroke="#000000" points="43.5,-794.5 43.5,-824.5 252.5,-824.5 252.5,-794.5 43.5,-794.5"/>
<text text-anchor="start" x="50.5" y="-805.9" font-family="Arial" font-size="14.00" fill="#000000">class_id </text>
<text text-anchor="start" x="104.9516" y="-805.9" font-family="Arial" font-size="14.00" fill="#666666">[char(36)]</text>
<polygon fill="none" stroke="#000000" points="43.5,-764.5 43.5,-794.5 252.5,-794.5 252.5,-764.5 43.5,-764.5"/>
<text text-anchor="start" x="50.5" y="-775.9" font-family="Arial" font-size="14.00" fill="#000000">user_id </text>
<text text-anchor="start" x="100.2882" y="-775.9" font-family="Arial" font-size="14.00" fill="#666666">[char(36)]</text>
<polygon fill="none" stroke="#000000" points="43.5,-734.5 43.5,-764.5 252.5,-764.5 252.5,-734.5 43.5,-734.5"/>
<text text-anchor="start" x="50.5" y="-745.9" font-family="Arial" font-size="14.00" fill="#000000">created_at </text>
<text text-anchor="start" x="120.528" y="-745.9" font-family="Arial" font-size="14.00" fill="#666666">[datetime(6)]</text>
</g>
<!-- attendances&#45;&gt;classes -->
<g id="edge4" class="edge">
<title>attendances:class_id&#45;&gt;classes:id</title>
<path fill="none" stroke="#000000" d="M262.5491,-807.1254C317.6468,-779.2071 285.0646,-514.5 350.5,-514.5"/>
<polygon fill="#000000" stroke="#000000" points="262.232,-807.2003 251.4651,-805.1206 257.366,-808.3501 252.5,-809.5 252.5,-809.5 252.5,-809.5 257.366,-808.3501 253.5349,-813.8794 262.232,-807.2003 262.232,-807.2003"/>
<text text-anchor="start" x="259.3345" y="-819.5" font-family="Arial" font-size="10.00" fill="#000000">FOREIGN KEY (class_id) REFERENCES classes (id)</text>
</g>
<!-- documents -->
<g id="node6" class="node">
<title>documents</title>
<polygon fill="#efefef" stroke="transparent" points="356.5,-839.5 356.5,-874.5 555.5,-874.5 555.5,-839.5 356.5,-839.5"/>
<polygon fill="none" stroke="#000000" points="356.5,-839.5 356.5,-874.5 555.5,-874.5 555.5,-839.5 356.5,-839.5"/>
<text text-anchor="start" x="363.3604" y="-852.3" font-family="Arial Bold" font-size="18.00" fill="#000000">documents</text>
<text text-anchor="start" x="451.3858" y="-852.3" font-family="Arial" font-size="14.00" fill="#000000"> </text>
<text text-anchor="start" x="455.2764" y="-852.3" font-family="Arial" font-size="14.00" fill="#666666">[BASE TABLE]</text>
<polygon fill="none" stroke="#000000" points="356.5,-809.5 356.5,-839.5 555.5,-839.5 555.5,-809.5 356.5,-809.5"/>
<text text-anchor="start" x="363.5" y="-820.9" font-family="Arial" font-size="14.00" fill="#000000">id </text>
<text text-anchor="start" x="378.2798" y="-820.9" font-family="Arial" font-size="14.00" fill="#666666">[char(36)]</text>
<polygon fill="none" stroke="#000000" points="356.5,-779.5 356.5,-809.5 555.5,-809.5 555.5,-779.5 356.5,-779.5"/>
<text text-anchor="start" x="363.5" y="-790.9" font-family="Arial" font-size="14.00" fill="#000000">class_id </text>
<text text-anchor="start" x="417.9516" y="-790.9" font-family="Arial" font-size="14.00" fill="#666666">[char(36)]</text>
<polygon fill="none" stroke="#000000" points="356.5,-749.5 356.5,-779.5 555.5,-779.5 555.5,-749.5 356.5,-749.5"/>
<text text-anchor="start" x="363.5" y="-760.9" font-family="Arial" font-size="14.00" fill="#000000">name </text>
<text text-anchor="start" x="402.399" y="-760.9" font-family="Arial" font-size="14.00" fill="#666666">[text]</text>
<polygon fill="none" stroke="#000000" points="356.5,-719.5 356.5,-749.5 555.5,-749.5 555.5,-719.5 356.5,-719.5"/>
<text text-anchor="start" x="363.5" y="-730.9" font-family="Arial" font-size="14.00" fill="#000000">created_at </text>
<text text-anchor="start" x="433.528" y="-730.9" font-family="Arial" font-size="14.00" fill="#666666">[datetime(6)]</text>
</g>
<!-- documents&#45;&gt;classes -->
<g id="edge5" class="edge">
<title>documents:class_id&#45;&gt;classes:id</title>
<path fill="none" stroke="#000000" d="M565.9319,-793.3032C604.4458,-783.5338 583.7112,-716.2619 555.5,-677 499.4037,-598.9302 406.5963,-686.0698 350.5,-608 326.2514,-574.2529 308.9444,-514.5 350.5,-514.5"/>
<polygon fill="#000000" stroke="#000000" points="565.4348,-793.3601 554.987,-790.0293 560.4674,-793.9301 555.5,-794.5 555.5,-794.5 555.5,-794.5 560.4674,-793.9301 556.013,-798.9707 565.4348,-793.3601 565.4348,-793.3601"/>
<text text-anchor="start" x="310.3345" y="-778.5" font-family="Arial" font-size="10.00" fill="#000000">FOREIGN KEY (class_id) REFERENCES classes (id)</text>
</g>
</g>
</svg>
