<?xml version="1.0" encoding="UTF-8" standalone="no"?>
<!DOCTYPE svg PUBLIC "-//W3C//DTD SVG 1.1//EN"
 "http://www.w3.org/Graphics/SVG/1.1/DTD/svg11.dtd">
<!-- Generated by graphviz version 2.40.1 (20161225.0304)
 -->
<!-- Title: assignments Pages: 1 -->
<svg width="568pt" height="929pt"
 viewBox="0.00 0.00 568.00 929.00" xmlns="http://www.w3.org/2000/svg" xmlns:xlink="http://www.w3.org/1999/xlink">
<g id="graph0" class="graph" transform="scale(1 1) rotate(0) translate(4 925)">
<title>assignments</title>
<polygon fill="#ffffff" stroke="transparent" points="-4,4 -4,-925 564,-925 564,4 -4,4"/>
<!-- assignments -->
<g id="node1" class="node">
<title>assignments</title>
<polygon fill="#efefef" stroke="transparent" points="46,-532.5 46,-567.5 258,-567.5 258,-532.5 46,-532.5"/>
<polygon fill="none" stroke="#000000" points="46,-532.5 46,-567.5 258,-567.5 258,-532.5 46,-532.5"/>
<text text-anchor="start" x="52.8633" y="-545.3" font-family="Arial Bold" font-size="18.00" fill="#000000">assignments</text>
<text text-anchor="start" x="153.8829" y="-545.3" font-family="Arial" font-size="14.00" fill="#000000"> </text>
<text text-anchor="start" x="157.7735" y="-545.3" font-family="Arial" font-size="14.00" fill="#666666">[BASE TABLE]</text>
<polygon fill="none" stroke="#000000" points="46,-502.5 46,-532.5 258,-532.5 258,-502.5 46,-502.5"/>
<text text-anchor="start" x="53" y="-513.9" font-family="Arial" font-size="14.00" fill="#000000">id </text>
<text text-anchor="start" x="67.7798" y="-513.9" font-family="Arial" font-size="14.00" fill="#666666">[char(36)]</text>
<polygon fill="none" stroke="#000000" points="46,-472.5 46,-502.5 258,-502.5 258,-472.5 46,-472.5"/>
<text text-anchor="start" x="53" y="-483.9" font-family="Arial" font-size="14.00" fill="#000000">class_id </text>
<text text-anchor="start" x="107.4516" y="-483.9" font-family="Arial" font-size="14.00" fill="#666666">[char(36)]</text>
<polygon fill="none" stroke="#000000" points="46,-442.5 46,-472.5 258,-472.5 258,-442.5 46,-442.5"/>
<text text-anchor="start" x="53" y="-453.9" font-family="Arial" font-size="14.00" fill="#000000">name </text>
<text text-anchor="start" x="91.899" y="-453.9" font-family="Arial" font-size="14.00" fill="#666666">[varchar(255)]</text>
<polygon fill="none" stroke="#000000" points="46,-412.5 46,-442.5 258,-442.5 258,-412.5 46,-412.5"/>
<text text-anchor="start" x="53" y="-423.9" font-family="Arial" font-size="14.00" fill="#000000">description </text>
<text text-anchor="start" x="124.568" y="-423.9" font-family="Arial" font-size="14.00" fill="#666666">[text]</text>
<polygon fill="none" stroke="#000000" points="46,-382.5 46,-412.5 258,-412.5 258,-382.5 46,-382.5"/>
<text text-anchor="start" x="53" y="-393.9" font-family="Arial" font-size="14.00" fill="#000000">deadline </text>
<text text-anchor="start" x="109.7994" y="-393.9" font-family="Arial" font-size="14.00" fill="#666666">[datetime(6)]</text>
<polygon fill="none" stroke="#000000" points="46,-352.5 46,-382.5 258,-382.5 258,-352.5 46,-352.5"/>
<text text-anchor="start" x="53" y="-363.9" font-family="Arial" font-size="14.00" fill="#000000">created_at </text>
<text text-anchor="start" x="123.028" y="-363.9" font-family="Arial" font-size="14.00" fill="#666666">[datetime(6)]</text>
<polygon fill="none" stroke="#000000" stroke-width="3" points="44.5,-351.5 44.5,-569.5 259.5,-569.5 259.5,-351.5 44.5,-351.5"/>
</g>
<!-- classes -->
<g id="node3" class="node">
<title>classes</title>
<polygon fill="#efefef" stroke="transparent" points="46,-192.5 46,-227.5 258,-227.5 258,-192.5 46,-192.5"/>
<polygon fill="none" stroke="#000000" points="46,-192.5 46,-227.5 258,-227.5 258,-192.5 46,-192.5"/>
<text text-anchor="start" x="73.3698" y="-205.3" font-family="Arial Bold" font-size="18.00" fill="#000000">classes</text>
<text text-anchor="start" x="133.3764" y="-205.3" font-family="Arial" font-size="14.00" fill="#000000"> </text>
<text text-anchor="start" x="137.267" y="-205.3" font-family="Arial" font-size="14.00" fill="#666666">[BASE TABLE]</text>
<polygon fill="none" stroke="#000000" points="46,-162.5 46,-192.5 258,-192.5 258,-162.5 46,-162.5"/>
<text text-anchor="start" x="53" y="-173.9" font-family="Arial" font-size="14.00" fill="#000000">id </text>
<text text-anchor="start" x="67.7798" y="-173.9" font-family="Arial" font-size="14.00" fill="#666666">[char(36)]</text>
<polygon fill="none" stroke="#000000" points="46,-132.5 46,-162.5 258,-162.5 258,-132.5 46,-132.5"/>
<text text-anchor="start" x="53" y="-143.9" font-family="Arial" font-size="14.00" fill="#000000">course_id </text>
<text text-anchor="start" x="117.5708" y="-143.9" font-family="Arial" font-size="14.00" fill="#666666">[char(36)]</text>
<polygon fill="none" stroke="#000000" points="46,-102.5 46,-132.5 258,-132.5 258,-102.5 46,-102.5"/>
<text text-anchor="start" x="53" y="-113.9" font-family="Arial" font-size="14.00" fill="#000000">title </text>
<text text-anchor="start" x="78.6676" y="-113.9" font-family="Arial" font-size="14.00" fill="#666666">[varchar(255)]</text>
<polygon fill="none" stroke="#000000" points="46,-72.5 46,-102.5 258,-102.5 258,-72.5 46,-72.5"/>
<text text-anchor="start" x="53" y="-83.9" font-family="Arial" font-size="14.00" fill="#000000">description </text>
<text text-anchor="start" x="124.568" y="-83.9" font-family="Arial" font-size="14.00" fill="#666666">[text]</text>
<polygon fill="none" stroke="#000000" points="46,-42.5 46,-72.5 258,-72.5 258,-42.5 46,-42.5"/>
<text text-anchor="start" x="52.8002" y="-53.9" font-family="Arial" font-size="14.00" fill="#000000">attendance_code </text>
<text text-anchor="start" x="164.0806" y="-53.9" font-family="Arial" font-size="14.00" fill="#666666">[varchar(255)]</text>
</g>
<!-- assignments&#45;&gt;classes -->
<g id="edge2" class="edge">
<title>assignments:class_id&#45;&gt;classes:id</title>
<path fill="none" stroke="#000000" d="M267.9619,-485.183C326.7112,-456.815 323.3906,-177.5 258,-177.5"/>
<polygon fill="#000000" stroke="#000000" points="267.74,-485.2345 256.9805,-483.117 262.87,-486.3672 258,-487.5 258,-487.5 258,-487.5 262.87,-486.3672 259.0195,-491.883 267.74,-485.2345 267.74,-485.2345"/>
<text text-anchor="start" x="264.8345" y="-497.5" font-family="Arial" font-size="10.00" fill="#000000">FOREIGN KEY (class_id) REFERENCES classes (id)</text>
</g>
<!-- submissions -->
<g id="node2" class="node">
<title>submissions</title>
<polygon fill="#efefef" stroke="transparent" points="47,-842.5 47,-877.5 257,-877.5 257,-842.5 47,-842.5"/>
<polygon fill="none" stroke="#000000" points="47,-842.5 47,-877.5 257,-877.5 257,-842.5 47,-842.5"/>
<text text-anchor="start" x="53.8704" y="-855.3" font-family="Arial Bold" font-size="18.00" fill="#000000">submissions</text>
<text text-anchor="start" x="152.8758" y="-855.3" font-family="Arial" font-size="14.00" fill="#000000"> </text>
<text text-anchor="start" x="156.7664" y="-855.3" font-family="Arial" font-size="14.00" fill="#666666">[BASE TABLE]</text>
<polygon fill="none" stroke="#000000" points="47,-812.5 47,-842.5 257,-842.5 257,-812.5 47,-812.5"/>
<text text-anchor="start" x="54" y="-823.9" font-family="Arial" font-size="14.00" fill="#000000">id </text>
<text text-anchor="start" x="68.7798" y="-823.9" font-family="Arial" font-size="14.00" fill="#666666">[char(36)]</text>
<polygon fill="none" stroke="#000000" points="47,-782.5 47,-812.5 257,-812.5 257,-782.5 47,-782.5"/>
<text text-anchor="start" x="54" y="-793.9" font-family="Arial" font-size="14.00" fill="#000000">user_id </text>
<text text-anchor="start" x="103.7882" y="-793.9" font-family="Arial" font-size="14.00" fill="#666666">[char(36)]</text>
<polygon fill="none" stroke="#000000" points="47,-752.5 47,-782.5 257,-782.5 257,-752.5 47,-752.5"/>
<text text-anchor="start" x="54" y="-763.9" font-family="Arial" font-size="14.00" fill="#000000">assignment_id </text>
<text text-anchor="start" x="148.1332" y="-763.9" font-family="Arial" font-size="14.00" fill="#666666">[char(36)]</text>
<polygon fill="none" stroke="#000000" points="47,-722.5 47,-752.5 257,-752.5 257,-722.5 47,-722.5"/>
<text text-anchor="start" x="54" y="-733.9" font-family="Arial" font-size="14.00" fill="#000000">name </text>
<text text-anchor="start" x="92.899" y="-733.9" font-family="Arial" font-size="14.00" fill="#666666">[varchar(255)]</text>
<polygon fill="none" stroke="#000000" points="47,-692.5 47,-722.5 257,-722.5 257,-692.5 47,-692.5"/>
<text text-anchor="start" x="54" y="-703.9" font-family="Arial" font-size="14.00" fill="#000000">created_at </text>
<text text-anchor="start" x="124.028" y="-703.9" font-family="Arial" font-size="14.00" fill="#666666">[datetime(6)]</text>
</g>
<!-- submissions&#45;&gt;assignments -->
<g id="edge1" class="edge">
<title>submissions:assignment_id&#45;&gt;assignments:id</title>
<path fill="none" stroke="#000000" d="M267.0941,-766.7828C368.065,-752.1191 365.6397,-517.5 258,-517.5"/>
<polygon fill="#000000" stroke="#000000" points="266.9749,-766.7912 256.681,-763.0113 261.9874,-767.1456 257,-767.5 257,-767.5 257,-767.5 261.9874,-767.1456 257.319,-771.9887 266.9749,-766.7912 266.9749,-766.7912"/>
<text text-anchor="start" x="264.27" y="-777.5" font-family="Arial" font-size="10.00" fill="#000000">FOREIGN KEY (assignment_id) REFERENCES assignments (id)</text>
</g>
</g>
</svg>
