<?xml version="1.0" encoding="UTF-8" standalone="no"?>
<!DOCTYPE svg PUBLIC "-//W3C//DTD SVG 1.1//EN"
 "http://www.w3.org/Graphics/SVG/1.1/DTD/svg11.dtd">
<!-- Generated by graphviz version 2.40.1 (20161225.0304)
 -->
<!-- Title: attendances Pages: 1 -->
<svg width="2237pt" height="953pt"
 viewBox="0.00 0.00 2236.50 953.00" xmlns="http://www.w3.org/2000/svg" xmlns:xlink="http://www.w3.org/1999/xlink">
<g id="graph0" class="graph" transform="scale(1 1) rotate(0) translate(4 949)">
<title>attendances</title>
<polygon fill="#ffffff" stroke="transparent" points="-4,4 -4,-949 2232.5,-949 2232.5,4 -4,4"/>
<!-- attendances -->
<g id="node1" class="node">
<title>attendances</title>
<polygon fill="#efefef" stroke="transparent" points="666,-821.5 666,-856.5 875,-856.5 875,-821.5 666,-821.5"/>
<polygon fill="none" stroke="#000000" points="666,-821.5 666,-856.5 875,-856.5 875,-821.5 666,-821.5"/>
<text text-anchor="start" x="672.8492" y="-834.3" font-family="Arial Bold" font-size="18.00" fill="#000000">attendances</text>
<text text-anchor="start" x="770.897" y="-834.3" font-family="Arial" font-size="14.00" fill="#000000"> </text>
<text text-anchor="start" x="774.7876" y="-834.3" font-family="Arial" font-size="14.00" fill="#666666">[BASE TABLE]</text>
<polygon fill="none" stroke="#000000" points="666,-791.5 666,-821.5 875,-821.5 875,-791.5 666,-791.5"/>
<text text-anchor="start" x="673" y="-802.9" font-family="Arial" font-size="14.00" fill="#000000">class_id </text>
<text text-anchor="start" x="727.4516" y="-802.9" font-family="Arial" font-size="14.00" fill="#666666">[char(36)]</text>
<polygon fill="none" stroke="#000000" points="666,-761.5 666,-791.5 875,-791.5 875,-761.5 666,-761.5"/>
<text text-anchor="start" x="673" y="-772.9" font-family="Arial" font-size="14.00" fill="#000000">user_id </text>
<text text-anchor="start" x="722.7882" y="-772.9" font-family="Arial" font-size="14.00" fill="#666666">[char(36)]</text>
<polygon fill="none" stroke="#000000" points="666,-731.5 666,-761.5 875,-761.5 875,-731.5 666,-731.5"/>
<text text-anchor="start" x="673" y="-742.9" font-family="Arial" font-size="14.00" fill="#000000">created_at </text>
<text text-anchor="start" x="743.028" y="-742.9" font-family="Arial" font-size="14.00" fill="#666666">[datetime(6)]</text>
<polygon fill="none" stroke="#000000" stroke-width="3" points="664,-730.5 664,-858.5 876,-858.5 876,-730.5 664,-730.5"/>
</g>
<!-- classes -->
<g id="node2" class="node">
<title>classes</title>
<polygon fill="#efefef" stroke="transparent" points="354,-529.5 354,-564.5 566,-564.5 566,-529.5 354,-529.5"/>
<polygon fill="none" stroke="#000000" points="354,-529.5 354,-564.5 566,-564.5 566,-529.5 354,-529.5"/>
<text text-anchor="start" x="381.3698" y="-542.3" font-family="Arial Bold" font-size="18.00" fill="#000000">classes</text>
<text text-anchor="start" x="441.3764" y="-542.3" font-family="Arial" font-size="14.00" fill="#000000"> </text>
<text text-anchor="start" x="445.267" y="-542.3" font-family="Arial" font-size="14.00" fill="#666666">[BASE TABLE]</text>
<polygon fill="none" stroke="#000000" points="354,-499.5 354,-529.5 566,-529.5 566,-499.5 354,-499.5"/>
<text text-anchor="start" x="361" y="-510.9" font-family="Arial" font-size="14.00" fill="#000000">id </text>
<text text-anchor="start" x="375.7798" y="-510.9" font-family="Arial" font-size="14.00" fill="#666666">[char(36)]</text>
<polygon fill="none" stroke="#000000" points="354,-469.5 354,-499.5 566,-499.5 566,-469.5 354,-469.5"/>
<text text-anchor="start" x="361" y="-480.9" font-family="Arial" font-size="14.00" fill="#000000">course_id </text>
<text text-anchor="start" x="425.5708" y="-480.9" font-family="Arial" font-size="14.00" fill="#666666">[char(36)]</text>
<polygon fill="none" stroke="#000000" points="354,-439.5 354,-469.5 566,-469.5 566,-439.5 354,-439.5"/>
<text text-anchor="start" x="361" y="-450.9" font-family="Arial" font-size="14.00" fill="#000000">title </text>
<text text-anchor="start" x="386.6676" y="-450.9" font-family="Arial" font-size="14.00" fill="#666666">[varchar(255)]</text>
<polygon fill="none" stroke="#000000" points="354,-409.5 354,-439.5 566,-439.5 566,-409.5 354,-409.5"/>
<text text-anchor="start" x="361" y="-420.9" font-family="Arial" font-size="14.00" fill="#000000">description </text>
<text text-anchor="start" x="432.568" y="-420.9" font-family="Arial" font-size="14.00" fill="#666666">[text]</text>
<polygon fill="none" stroke="#000000" points="354,-379.5 354,-409.5 566,-409.5 566,-379.5 354,-379.5"/>
<text text-anchor="start" x="360.8002" y="-390.9" font-family="Arial" font-size="14.00" fill="#000000">attendance_code </text>
<text text-anchor="start" x="472.0806" y="-390.9" font-family="Arial" font-size="14.00" fill="#666666">[varchar(255)]</text>
</g>
<!-- attendances&#45;&gt;classes -->
<g id="edge1" class="edge">
<title>attendances:class_id&#45;&gt;classes:id</title>
<path fill="none" stroke="#000000" d="M656.0004,-804.1496C601.0383,-776.5152 630.9716,-514.5 566,-514.5"/>
<polygon fill="#000000" stroke="#000000" points="656.2653,-804.2117 664.9703,-810.8806 661.1327,-805.3559 666,-806.5 666,-806.5 666,-806.5 661.1327,-805.3559 667.0297,-802.1194 656.2653,-804.2117 656.2653,-804.2117"/>
<text text-anchor="start" x="420.8345" y="-816.5" font-family="Arial" font-size="10.00" fill="#000000">FOREIGN KEY (class_id) REFERENCES classes (id)</text>
</g>
<!-- users -->
<g id="node6" class="node">
<title>users</title>
<polygon fill="#efefef" stroke="transparent" points="1257,-529.5 1257,-564.5 1459,-564.5 1459,-529.5 1257,-529.5"/>
<polygon fill="none" stroke="#000000" points="1257,-529.5 1257,-564.5 1459,-564.5 1459,-529.5 1257,-529.5"/>
<text text-anchor="start" x="1287.3708" y="-542.3" font-family="Arial Bold" font-size="18.00" fill="#000000">users</text>
<text text-anchor="start" x="1331.3754" y="-542.3" font-family="Arial" font-size="14.00" fill="#000000"> </text>
<text text-anchor="start" x="1335.266" y="-542.3" font-family="Arial" font-size="14.00" fill="#666666">[BASE TABLE]</text>
<polygon fill="none" stroke="#000000" points="1257,-499.5 1257,-529.5 1459,-529.5 1459,-499.5 1257,-499.5"/>
<text text-anchor="start" x="1264" y="-510.9" font-family="Arial" font-size="14.00" fill="#000000">id </text>
<text text-anchor="start" x="1278.7798" y="-510.9" font-family="Arial" font-size="14.00" fill="#666666">[char(36)]</text>
<polygon fill="none" stroke="#000000" points="1257,-469.5 1257,-499.5 1459,-499.5 1459,-469.5 1257,-469.5"/>
<text text-anchor="start" x="1264" y="-480.9" font-family="Arial" font-size="14.00" fill="#000000">name </text>
<text text-anchor="start" x="1302.899" y="-480.9" font-family="Arial" font-size="14.00" fill="#666666">[varchar(255)]</text>
<polygon fill="none" stroke="#000000" points="1257,-439.5 1257,-469.5 1459,-469.5 1459,-439.5 1257,-439.5"/>
<text text-anchor="start" x="1264" y="-450.9" font-family="Arial" font-size="14.00" fill="#000000">mail_address </text>
<text text-anchor="start" x="1351.1206" y="-450.9" font-family="Arial" font-size="14.00" fill="#666666">[varchar(255)]</text>
<polygon fill="none" stroke="#000000" points="1257,-409.5 1257,-439.5 1459,-439.5 1459,-409.5 1257,-409.5"/>
<text text-anchor="start" x="1263.8668" y="-420.9" font-family="Arial" font-size="14.00" fill="#000000">hashed_password </text>
<text text-anchor="start" x="1381.3506" y="-420.9" font-family="Arial" font-size="14.00" fill="#666666">[binary(60)]</text>
<polygon fill="none" stroke="#000000" points="1257,-379.5 1257,-409.5 1459,-409.5 1459,-379.5 1257,-379.5"/>
<text text-anchor="start" x="1264" y="-390.9" font-family="Arial" font-size="14.00" fill="#000000">type </text>
<text text-anchor="start" x="1294.3464" y="-390.9" font-family="Arial" font-size="14.00" fill="#666666">[enum(&#39;student&#39;,&#39;faculty&#39;)]</text>
</g>
<!-- attendances&#45;&gt;users -->
<g id="edge5" class="edge">
<title>attendances:user_id&#45;&gt;users:id</title>
<path fill="none" stroke="#000000" d="M885.0366,-775.6222C932.7497,-766.3606 887.21,-686.095 930,-644 1041.4328,-534.3772 1100.6849,-514.5 1257,-514.5"/>
<polygon fill="#000000" stroke="#000000" points="884.962,-775.6286 874.6079,-772.0171 879.981,-776.0643 875,-776.5 875,-776.5 875,-776.5 879.981,-776.0643 875.3921,-780.9829 884.962,-775.6286 884.962,-775.6286"/>
<text text-anchor="start" x="761.945" y="-760.5" font-family="Arial" font-size="10.00" fill="#000000">FOREIGN KEY (user_id) REFERENCES users (id)</text>
</g>
<!-- courses -->
<g id="node5" class="node">
<title>courses</title>
<polygon fill="#efefef" stroke="transparent" points="373,-222.5 373,-257.5 547,-257.5 547,-222.5 373,-222.5"/>
<polygon fill="none" stroke="#000000" points="373,-222.5 373,-257.5 547,-257.5 547,-222.5 373,-222.5"/>
<text text-anchor="start" x="379.8677" y="-235.3" font-family="Arial Bold" font-size="18.00" fill="#000000">courses</text>
<text text-anchor="start" x="442.8785" y="-235.3" font-family="Arial" font-size="14.00" fill="#000000"> </text>
<text text-anchor="start" x="446.7691" y="-235.3" font-family="Arial" font-size="14.00" fill="#666666">[BASE TABLE]</text>
<polygon fill="none" stroke="#000000" points="373,-192.5 373,-222.5 547,-222.5 547,-192.5 373,-192.5"/>
<text text-anchor="start" x="380" y="-203.9" font-family="Arial" font-size="14.00" fill="#000000">id </text>
<text text-anchor="start" x="394.7798" y="-203.9" font-family="Arial" font-size="14.00" fill="#666666">[char(36)]</text>
<polygon fill="none" stroke="#000000" points="373,-162.5 373,-192.5 547,-192.5 547,-162.5 373,-162.5"/>
<text text-anchor="start" x="380" y="-173.9" font-family="Arial" font-size="14.00" fill="#000000">name </text>
<text text-anchor="start" x="418.899" y="-173.9" font-family="Arial" font-size="14.00" fill="#666666">[varchar(255)]</text>
<polygon fill="none" stroke="#000000" points="373,-132.5 373,-162.5 547,-162.5 547,-132.5 373,-132.5"/>
<text text-anchor="start" x="380" y="-143.9" font-family="Arial" font-size="14.00" fill="#000000">description </text>
<text text-anchor="start" x="451.568" y="-143.9" font-family="Arial" font-size="14.00" fill="#666666">[text]</text>
<polygon fill="none" stroke="#000000" points="373,-102.5 373,-132.5 547,-132.5 547,-102.5 373,-102.5"/>
<text text-anchor="start" x="380" y="-113.9" font-family="Arial" font-size="14.00" fill="#000000">credit </text>
<text text-anchor="start" x="418.1136" y="-113.9" font-family="Arial" font-size="14.00" fill="#666666">[tinyint unsigned]</text>
<polygon fill="none" stroke="#000000" points="373,-72.5 373,-102.5 547,-102.5 547,-72.5 373,-72.5"/>
<text text-anchor="start" x="380" y="-83.9" font-family="Arial" font-size="14.00" fill="#000000">classroom </text>
<text text-anchor="start" x="447.6662" y="-83.9" font-family="Arial" font-size="14.00" fill="#666666">[varchar(255)]</text>
<polygon fill="none" stroke="#000000" points="373,-42.5 373,-72.5 547,-72.5 547,-42.5 373,-42.5"/>
<text text-anchor="start" x="380" y="-53.9" font-family="Arial" font-size="14.00" fill="#000000">capacity </text>
<text text-anchor="start" x="435.2356" y="-53.9" font-family="Arial" font-size="14.00" fill="#666666">[int unsigned]</text>
</g>
<!-- classes&#45;&gt;courses -->
<g id="edge4" class="edge">
<title>classes:course_id&#45;&gt;courses:id</title>
<path fill="none" stroke="#000000" d="M576.1424,-483.8461C688.2405,-469.0327 666.9056,-207.5 547,-207.5"/>
<polygon fill="#000000" stroke="#000000" points="575.9793,-483.8565 565.7104,-480.0093 570.9896,-484.1783 566,-484.5 566,-484.5 566,-484.5 570.9896,-484.1783 566.2896,-488.9907 575.9793,-483.8565 575.9793,-483.8565"/>
<text text-anchor="start" x="573.386" y="-494.5" font-family="Arial" font-size="10.00" fill="#000000">FOREIGN KEY (course_id) REFERENCES courses (id)</text>
</g>
<!-- assignments -->
<g id="node3" class="node">
<title>assignments</title>
<polygon fill="#efefef" stroke="transparent" points="43,-866.5 43,-901.5 255,-901.5 255,-866.5 43,-866.5"/>
<polygon fill="none" stroke="#000000" points="43,-866.5 43,-901.5 255,-901.5 255,-866.5 43,-866.5"/>
<text text-anchor="start" x="49.8633" y="-879.3" font-family="Arial Bold" font-size="18.00" fill="#000000">assignments</text>
<text text-anchor="start" x="150.8829" y="-879.3" font-family="Arial" font-size="14.00" fill="#000000"> </text>
<text text-anchor="start" x="154.7735" y="-879.3" font-family="Arial" font-size="14.00" fill="#666666">[BASE TABLE]</text>
<polygon fill="none" stroke="#000000" points="43,-836.5 43,-866.5 255,-866.5 255,-836.5 43,-836.5"/>
<text text-anchor="start" x="50" y="-847.9" font-family="Arial" font-size="14.00" fill="#000000">id </text>
<text text-anchor="start" x="64.7798" y="-847.9" font-family="Arial" font-size="14.00" fill="#666666">[char(36)]</text>
<polygon fill="none" stroke="#000000" points="43,-806.5 43,-836.5 255,-836.5 255,-806.5 43,-806.5"/>
<text text-anchor="start" x="50" y="-817.9" font-family="Arial" font-size="14.00" fill="#000000">class_id </text>
<text text-anchor="start" x="104.4516" y="-817.9" font-family="Arial" font-size="14.00" fill="#666666">[char(36)]</text>
<polygon fill="none" stroke="#000000" points="43,-776.5 43,-806.5 255,-806.5 255,-776.5 43,-776.5"/>
<text text-anchor="start" x="50" y="-787.9" font-family="Arial" font-size="14.00" fill="#000000">name </text>
<text text-anchor="start" x="88.899" y="-787.9" font-family="Arial" font-size="14.00" fill="#666666">[varchar(255)]</text>
<polygon fill="none" stroke="#000000" points="43,-746.5 43,-776.5 255,-776.5 255,-746.5 43,-746.5"/>
<text text-anchor="start" x="50" y="-757.9" font-family="Arial" font-size="14.00" fill="#000000">description </text>
<text text-anchor="start" x="121.568" y="-757.9" font-family="Arial" font-size="14.00" fill="#666666">[text]</text>
<polygon fill="none" stroke="#000000" points="43,-716.5 43,-746.5 255,-746.5 255,-716.5 43,-716.5"/>
<text text-anchor="start" x="50" y="-727.9" font-family="Arial" font-size="14.00" fill="#000000">deadline </text>
<text text-anchor="start" x="106.7994" y="-727.9" font-family="Arial" font-size="14.00" fill="#666666">[datetime(6)]</text>
<polygon fill="none" stroke="#000000" points="43,-686.5 43,-716.5 255,-716.5 255,-686.5 43,-686.5"/>
<text text-anchor="start" x="50" y="-697.9" font-family="Arial" font-size="14.00" fill="#000000">created_at </text>
<text text-anchor="start" x="120.028" y="-697.9" font-family="Arial" font-size="14.00" fill="#666666">[datetime(6)]</text>
</g>
<!-- assignments&#45;&gt;classes -->
<g id="edge2" class="edge">
<title>assignments:class_id&#45;&gt;classes:id</title>
<path fill="none" stroke="#000000" d="M265.0529,-819.2054C322.4753,-791.112 285.9583,-514.5 354,-514.5"/>
<polygon fill="#000000" stroke="#000000" points="264.7493,-819.2746 253.9986,-817.1128 259.8746,-820.3873 255,-821.5 255,-821.5 255,-821.5 259.8746,-820.3873 256.0014,-825.8872 264.7493,-819.2746 264.7493,-819.2746"/>
<text text-anchor="start" x="9.8345" y="-831.5" font-family="Arial" font-size="10.00" fill="#000000">FOREIGN KEY (class_id) REFERENCES classes (id)</text>
</g>
<!-- documents -->
<g id="node4" class="node">
<title>documents</title>
<polygon fill="#efefef" stroke="transparent" points="360,-836.5 360,-871.5 559,-871.5 559,-836.5 360,-836.5"/>
<polygon fill="none" stroke="#000000" points="360,-836.5 360,-871.5 559,-871.5 559,-836.5 360,-836.5"/>
<text text-anchor="start" x="366.8604" y="-849.3" font-family="Arial Bold" font-size="18.00" fill="#000000">documents</text>
<text text-anchor="start" x="454.8858" y="-849.3" font-family="Arial" font-size="14.00" fill="#000000"> </text>
<text text-anchor="start" x="458.7764" y="-849.3" font-family="Arial" font-size="14.00" fill="#666666">[BASE TABLE]</text>
<polygon fill="none" stroke="#000000" points="360,-806.5 360,-836.5 559,-836.5 559,-806.5 360,-806.5"/>
<text text-anchor="start" x="367" y="-817.9" font-family="Arial" font-size="14.00" fill="#000000">id </text>
<text text-anchor="start" x="381.7798" y="-817.9" font-family="Arial" font-size="14.00" fill="#666666">[char(36)]</text>
<polygon fill="none" stroke="#000000" points="360,-776.5 360,-806.5 559,-806.5 559,-776.5 360,-776.5"/>
<text text-anchor="start" x="367" y="-787.9" font-family="Arial" font-size="14.00" fill="#000000">class_id </text>
<text text-anchor="start" x="421.4516" y="-787.9" font-family="Arial" font-size="14.00" fill="#666666">[char(36)]</text>
<polygon fill="none" stroke="#000000" points="360,-746.5 360,-776.5 559,-776.5 559,-746.5 360,-746.5"/>
<text text-anchor="start" x="367" y="-757.9" font-family="Arial" font-size="14.00" fill="#000000">name </text>
<text text-anchor="start" x="405.899" y="-757.9" font-family="Arial" font-size="14.00" fill="#666666">[text]</text>
<polygon fill="none" stroke="#000000" points="360,-716.5 360,-746.5 559,-746.5 559,-716.5 360,-716.5"/>
<text text-anchor="start" x="367" y="-727.9" font-family="Arial" font-size="14.00" fill="#000000">created_at </text>
<text text-anchor="start" x="437.028" y="-727.9" font-family="Arial" font-size="14.00" fill="#666666">[datetime(6)]</text>
</g>
<!-- documents&#45;&gt;classes -->
<g id="edge3" class="edge">
<title>documents:class_id&#45;&gt;classes:id</title>
<path fill="none" stroke="#000000" d="M568.945,-790.421C608.1571,-781.0755 587.5899,-713.2397 559,-674 502.6352,-596.6393 410.3648,-685.3607 354,-608 329.5291,-574.4137 312.4444,-514.5 354,-514.5"/>
<polygon fill="#000000" stroke="#000000" points="568.9417,-790.4212 558.5146,-787.0263 563.9708,-790.9606 559,-791.5 559,-791.5 559,-791.5 563.9708,-790.9606 559.4854,-795.9737 568.9417,-790.4212 568.9417,-790.4212"/>
<text text-anchor="start" x="439.8345" y="-775.5" font-family="Arial" font-size="10.00" fill="#000000">FOREIGN KEY (class_id) REFERENCES classes (id)</text>
</g>
<!-- grades -->
<g id="node7" class="node">
<title>grades</title>
<polygon fill="#efefef" stroke="transparent" points="982,-836.5 982,-871.5 1148,-871.5 1148,-836.5 982,-836.5"/>
<polygon fill="none" stroke="#000000" points="982,-836.5 982,-871.5 1148,-871.5 1148,-836.5 982,-836.5"/>
<text text-anchor="start" x="988.8646" y="-849.3" font-family="Arial Bold" font-size="18.00" fill="#000000">grades</text>
<text text-anchor="start" x="1043.8816" y="-849.3" font-family="Arial" font-size="14.00" fill="#000000"> </text>
<text text-anchor="start" x="1047.7722" y="-849.3" font-family="Arial" font-size="14.00" fill="#666666">[BASE TABLE]</text>
<polygon fill="none" stroke="#000000" points="982,-806.5 982,-836.5 1148,-836.5 1148,-806.5 982,-806.5"/>
<text text-anchor="start" x="989" y="-817.9" font-family="Arial" font-size="14.00" fill="#000000">id </text>
<text text-anchor="start" x="1003.7798" y="-817.9" font-family="Arial" font-size="14.00" fill="#666666">[char(36)]</text>
<polygon fill="none" stroke="#000000" points="982,-776.5 982,-806.5 1148,-806.5 1148,-776.5 982,-776.5"/>
<text text-anchor="start" x="989" y="-787.9" font-family="Arial" font-size="14.00" fill="#000000">user_id </text>
<text text-anchor="start" x="1038.7882" y="-787.9" font-family="Arial" font-size="14.00" fill="#666666">[char(36)]</text>
<polygon fill="none" stroke="#000000" points="982,-746.5 982,-776.5 1148,-776.5 1148,-746.5 982,-746.5"/>
<text text-anchor="start" x="989" y="-757.9" font-family="Arial" font-size="14.00" fill="#000000">course_id </text>
<text text-anchor="start" x="1053.5708" y="-757.9" font-family="Arial" font-size="14.00" fill="#666666">[char(36)]</text>
<polygon fill="none" stroke="#000000" points="982,-716.5 982,-746.5 1148,-746.5 1148,-716.5 982,-716.5"/>
<text text-anchor="start" x="989" y="-727.9" font-family="Arial" font-size="14.00" fill="#000000">grade </text>
<text text-anchor="start" x="1028.6816" y="-727.9" font-family="Arial" font-size="14.00" fill="#666666">[int unsigned]</text>
</g>
<!-- grades&#45;&gt;users -->
<g id="edge6" class="edge">
<title>grades:user_id&#45;&gt;users:id</title>
<path fill="none" stroke="#000000" d="M1158.0839,-790.8235C1213.1569,-782.8109 1175.7735,-705.2256 1200,-644 1223.1373,-585.527 1194.1158,-514.5 1257,-514.5"/>
<polygon fill="#000000" stroke="#000000" points="1157.9776,-790.8305 1147.6987,-787.0101 1152.9888,-791.1653 1148,-791.5 1148,-791.5 1148,-791.5 1152.9888,-791.1653 1148.3013,-795.9899 1157.9776,-790.8305 1157.9776,-790.8305"/>
<text text-anchor="start" x="1154.945" y="-801.5" font-family="Arial" font-size="10.00" fill="#000000">FOREIGN KEY (user_id) REFERENCES users (id)</text>
</g>
<!-- registrations -->
<g id="node8" class="node">
<title>registrations</title>
<polygon fill="#efefef" stroke="transparent" points="1253,-836.5 1253,-871.5 1462,-871.5 1462,-836.5 1253,-836.5"/>
<polygon fill="none" stroke="#000000" points="1253,-836.5 1253,-871.5 1462,-871.5 1462,-836.5 1253,-836.5"/>
<text text-anchor="start" x="1259.869" y="-849.3" font-family="Arial Bold" font-size="18.00" fill="#000000">registrations</text>
<text text-anchor="start" x="1357.8772" y="-849.3" font-family="Arial" font-size="14.00" fill="#000000"> </text>
<text text-anchor="start" x="1361.7678" y="-849.3" font-family="Arial" font-size="14.00" fill="#666666">[BASE TABLE]</text>
<polygon fill="none" stroke="#000000" points="1253,-806.5 1253,-836.5 1462,-836.5 1462,-806.5 1253,-806.5"/>
<text text-anchor="start" x="1260" y="-817.9" font-family="Arial" font-size="14.00" fill="#000000">course_id </text>
<text text-anchor="start" x="1324.5708" y="-817.9" font-family="Arial" font-size="14.00" fill="#666666">[char(36)]</text>
<polygon fill="none" stroke="#000000" points="1253,-776.5 1253,-806.5 1462,-806.5 1462,-776.5 1253,-776.5"/>
<text text-anchor="start" x="1260" y="-787.9" font-family="Arial" font-size="14.00" fill="#000000">user_id </text>
<text text-anchor="start" x="1309.7882" y="-787.9" font-family="Arial" font-size="14.00" fill="#666666">[char(36)]</text>
<polygon fill="none" stroke="#000000" points="1253,-746.5 1253,-776.5 1462,-776.5 1462,-746.5 1253,-746.5"/>
<text text-anchor="start" x="1260" y="-757.9" font-family="Arial" font-size="14.00" fill="#000000">created_at </text>
<text text-anchor="start" x="1330.028" y="-757.9" font-family="Arial" font-size="14.00" fill="#666666">[datetime(6)]</text>
<polygon fill="none" stroke="#000000" points="1253,-716.5 1253,-746.5 1462,-746.5 1462,-716.5 1253,-716.5"/>
<text text-anchor="start" x="1260" y="-727.9" font-family="Arial" font-size="14.00" fill="#000000">deleted_at </text>
<text text-anchor="start" x="1329.2566" y="-727.9" font-family="Arial" font-size="14.00" fill="#666666">[datetime(6)]</text>
</g>
<!-- registrations&#45;&gt;users -->
<g id="edge7" class="edge">
<title>registrations:user_id&#45;&gt;users:id</title>
<path fill="none" stroke="#000000" d="M1471.945,-790.421C1511.1571,-781.0755 1490.5899,-713.2397 1462,-674 1405.6352,-596.6393 1313.3648,-685.3607 1257,-608 1232.5291,-574.4137 1215.4444,-514.5 1257,-514.5"/>
<polygon fill="#000000" stroke="#000000" points="1471.9417,-790.4212 1461.5146,-787.0263 1466.9708,-790.9606 1462,-791.5 1462,-791.5 1462,-791.5 1466.9708,-790.9606 1462.4854,-795.9737 1471.9417,-790.4212 1471.9417,-790.4212"/>
<text text-anchor="start" x="1348.945" y="-775.5" font-family="Arial" font-size="10.00" fill="#000000">FOREIGN KEY (user_id) REFERENCES users (id)</text>
</g>
<!-- submissions -->
<g id="node9" class="node">
<title>submissions</title>
<polygon fill="#efefef" stroke="transparent" points="1566,-851.5 1566,-886.5 1776,-886.5 1776,-851.5 1566,-851.5"/>
<polygon fill="none" stroke="#000000" points="1566,-851.5 1566,-886.5 1776,-886.5 1776,-851.5 1566,-851.5"/>
<text text-anchor="start" x="1572.8704" y="-864.3" font-family="Arial Bold" font-size="18.00" fill="#000000">submissions</text>
<text text-anchor="start" x="1671.8758" y="-864.3" font-family="Arial" font-size="14.00" fill="#000000"> </text>
<text text-anchor="start" x="1675.7664" y="-864.3" font-family="Arial" font-size="14.00" fill="#666666">[BASE TABLE]</text>
<polygon fill="none" stroke="#000000" points="1566,-821.5 1566,-851.5 1776,-851.5 1776,-821.5 1566,-821.5"/>
<text text-anchor="start" x="1573" y="-832.9" font-family="Arial" font-size="14.00" fill="#000000">id </text>
<text text-anchor="start" x="1587.7798" y="-832.9" font-family="Arial" font-size="14.00" fill="#666666">[char(36)]</text>
<polygon fill="none" stroke="#000000" points="1566,-791.5 1566,-821.5 1776,-821.5 1776,-791.5 1566,-791.5"/>
<text text-anchor="start" x="1573" y="-802.9" font-family="Arial" font-size="14.00" fill="#000000">user_id </text>
<text text-anchor="start" x="1622.7882" y="-802.9" font-family="Arial" font-size="14.00" fill="#666666">[char(36)]</text>
<polygon fill="none" stroke="#000000" points="1566,-761.5 1566,-791.5 1776,-791.5 1776,-761.5 1566,-761.5"/>
<text text-anchor="start" x="1573" y="-772.9" font-family="Arial" font-size="14.00" fill="#000000">assignment_id </text>
<text text-anchor="start" x="1667.1332" y="-772.9" font-family="Arial" font-size="14.00" fill="#666666">[char(36)]</text>
<polygon fill="none" stroke="#000000" points="1566,-731.5 1566,-761.5 1776,-761.5 1776,-731.5 1566,-731.5"/>
<text text-anchor="start" x="1573" y="-742.9" font-family="Arial" font-size="14.00" fill="#000000">name </text>
<text text-anchor="start" x="1611.899" y="-742.9" font-family="Arial" font-size="14.00" fill="#666666">[varchar(255)]</text>
<polygon fill="none" stroke="#000000" points="1566,-701.5 1566,-731.5 1776,-731.5 1776,-701.5 1566,-701.5"/>
<text text-anchor="start" x="1573" y="-712.9" font-family="Arial" font-size="14.00" fill="#000000">created_at </text>
<text text-anchor="start" x="1643.028" y="-712.9" font-family="Arial" font-size="14.00" fill="#666666">[datetime(6)]</text>
</g>
<!-- submissions&#45;&gt;users -->
<g id="edge8" class="edge">
<title>submissions:user_id&#45;&gt;users:id</title>
<path fill="none" stroke="#000000" d="M1555.7702,-805.8592C1494.8931,-797.6211 1539.1157,-711.6132 1514,-644 1492.2258,-585.3821 1521.5314,-514.5 1459,-514.5"/>
<polygon fill="#000000" stroke="#000000" points="1556.0196,-805.8747 1565.7186,-810.9912 1561.0098,-806.1873 1566,-806.5 1566,-806.5 1566,-806.5 1561.0098,-806.1873 1566.2814,-802.0088 1556.0196,-805.8747 1556.0196,-805.8747"/>
<text text-anchor="start" x="1572.945" y="-816.5" font-family="Arial" font-size="10.00" fill="#000000">FOREIGN KEY (user_id) REFERENCES users (id)</text>
</g>
<!-- unread_announcements -->
<g id="node10" class="node">
<title>unread_announcements</title>
<polygon fill="#efefef" stroke="transparent" points="1881,-836.5 1881,-871.5 2186,-871.5 2186,-836.5 1881,-836.5"/>
<polygon fill="none" stroke="#000000" points="1881,-836.5 1881,-871.5 2186,-871.5 2186,-836.5 1881,-836.5"/>
<text text-anchor="start" x="1887.8333" y="-849.3" font-family="Arial Bold" font-size="18.00" fill="#000000">unread_announcements</text>
<text text-anchor="start" x="2081.9129" y="-849.3" font-family="Arial" font-size="14.00" fill="#000000"> </text>
<text text-anchor="start" x="2085.8035" y="-849.3" font-family="Arial" font-size="14.00" fill="#666666">[BASE TABLE]</text>
<polygon fill="none" stroke="#000000" points="1881,-806.5 1881,-836.5 2186,-836.5 2186,-806.5 1881,-806.5"/>
<text text-anchor="start" x="1888" y="-817.9" font-family="Arial" font-size="14.00" fill="#000000">announcement_id </text>
<text text-anchor="start" x="2003.157" y="-817.9" font-family="Arial" font-size="14.00" fill="#666666">[char(36)]</text>
<polygon fill="none" stroke="#000000" points="1881,-776.5 1881,-806.5 2186,-806.5 2186,-776.5 1881,-776.5"/>
<text text-anchor="start" x="1888" y="-787.9" font-family="Arial" font-size="14.00" fill="#000000">user_id </text>
<text text-anchor="start" x="1937.7882" y="-787.9" font-family="Arial" font-size="14.00" fill="#666666">[char(36)]</text>
<polygon fill="none" stroke="#000000" points="1881,-746.5 1881,-776.5 2186,-776.5 2186,-746.5 1881,-746.5"/>
<text text-anchor="start" x="1888" y="-757.9" font-family="Arial" font-size="14.00" fill="#000000">created_at </text>
<text text-anchor="start" x="1958.028" y="-757.9" font-family="Arial" font-size="14.00" fill="#666666">[datetime(6)]</text>
<polygon fill="none" stroke="#000000" points="1881,-716.5 1881,-746.5 2186,-746.5 2186,-716.5 1881,-716.5"/>
<text text-anchor="start" x="1888" y="-727.9" font-family="Arial" font-size="14.00" fill="#000000">deleted_at </text>
<text text-anchor="start" x="1957.2566" y="-727.9" font-family="Arial" font-size="14.00" fill="#666666">[datetime(6)]</text>
</g>
<!-- unread_announcements&#45;&gt;users -->
<g id="edge9" class="edge">
<title>unread_announcements:user_id&#45;&gt;users:id</title>
<path fill="none" stroke="#000000" d="M1870.7485,-790.6411C1818.2248,-780.8821 1874.7355,-690.3893 1828,-644 1704.6443,-521.5581 1632.8063,-514.5 1459,-514.5"/>
<polygon fill="#000000" stroke="#000000" points="1871.0349,-790.665 1880.6242,-795.9843 1876.0175,-791.0825 1881,-791.5 1881,-791.5 1881,-791.5 1876.0175,-791.0825 1881.3758,-787.0157 1871.0349,-790.665 1871.0349,-790.665"/>
<text text-anchor="start" x="1707.945" y="-775.5" font-family="Arial" font-size="10.00" fill="#000000">FOREIGN KEY (user_id) REFERENCES users (id)</text>
</g>
</g>
</svg>
