<?xml version="1.0" encoding="UTF-8" standalone="no"?>
<!DOCTYPE svg PUBLIC "-//W3C//DTD SVG 1.1//EN"
 "http://www.w3.org/Graphics/SVG/1.1/DTD/svg11.dtd">
<!-- Generated by graphviz version 2.40.1 (20161225.0304)
 -->
<!-- Title: attendances Pages: 1 -->
<svg width="2233pt" height="953pt"
 viewBox="0.00 0.00 2232.50 953.00" xmlns="http://www.w3.org/2000/svg" xmlns:xlink="http://www.w3.org/1999/xlink">
<g id="graph0" class="graph" transform="scale(1 1) rotate(0) translate(4 949)">
<title>attendances</title>
<polygon fill="#ffffff" stroke="transparent" points="-4,4 -4,-949 2228.5,-949 2228.5,4 -4,4"/>
<!-- attendances -->
<g id="node1" class="node">
<title>attendances</title>
<polygon fill="#efefef" stroke="transparent" points="662,-821.5 662,-856.5 871,-856.5 871,-821.5 662,-821.5"/>
<polygon fill="none" stroke="#000000" points="662,-821.5 662,-856.5 871,-856.5 871,-821.5 662,-821.5"/>
<text text-anchor="start" x="668.8492" y="-834.3" font-family="Arial Bold" font-size="18.00" fill="#000000">attendances</text>
<text text-anchor="start" x="766.897" y="-834.3" font-family="Arial" font-size="14.00" fill="#000000"> </text>
<text text-anchor="start" x="770.7876" y="-834.3" font-family="Arial" font-size="14.00" fill="#666666">[BASE TABLE]</text>
<polygon fill="none" stroke="#000000" points="662,-791.5 662,-821.5 871,-821.5 871,-791.5 662,-791.5"/>
<text text-anchor="start" x="669" y="-802.9" font-family="Arial" font-size="14.00" fill="#000000">class_id </text>
<text text-anchor="start" x="723.4516" y="-802.9" font-family="Arial" font-size="14.00" fill="#666666">[char(36)]</text>
<polygon fill="none" stroke="#000000" points="662,-761.5 662,-791.5 871,-791.5 871,-761.5 662,-761.5"/>
<text text-anchor="start" x="669" y="-772.9" font-family="Arial" font-size="14.00" fill="#000000">user_id </text>
<text text-anchor="start" x="718.7882" y="-772.9" font-family="Arial" font-size="14.00" fill="#666666">[char(36)]</text>
<polygon fill="none" stroke="#000000" points="662,-731.5 662,-761.5 871,-761.5 871,-731.5 662,-731.5"/>
<text text-anchor="start" x="669" y="-742.9" font-family="Arial" font-size="14.00" fill="#000000">created_at </text>
<text text-anchor="start" x="739.028" y="-742.9" font-family="Arial" font-size="14.00" fill="#666666">[datetime(6)]</text>
<polygon fill="none" stroke="#000000" stroke-width="3" points="660,-730.5 660,-858.5 872,-858.5 872,-730.5 660,-730.5"/>
</g>
<!-- classes -->
<g id="node2" class="node">
<title>classes</title>
<polygon fill="#efefef" stroke="transparent" points="350,-529.5 350,-564.5 562,-564.5 562,-529.5 350,-529.5"/>
<polygon fill="none" stroke="#000000" points="350,-529.5 350,-564.5 562,-564.5 562,-529.5 350,-529.5"/>
<text text-anchor="start" x="377.3698" y="-542.3" font-family="Arial Bold" font-size="18.00" fill="#000000">classes</text>
<text text-anchor="start" x="437.3764" y="-542.3" font-family="Arial" font-size="14.00" fill="#000000"> </text>
<text text-anchor="start" x="441.267" y="-542.3" font-family="Arial" font-size="14.00" fill="#666666">[BASE TABLE]</text>
<polygon fill="none" stroke="#000000" points="350,-499.5 350,-529.5 562,-529.5 562,-499.5 350,-499.5"/>
<text text-anchor="start" x="357" y="-510.9" font-family="Arial" font-size="14.00" fill="#000000">id </text>
<text text-anchor="start" x="371.7798" y="-510.9" font-family="Arial" font-size="14.00" fill="#666666">[char(36)]</text>
<polygon fill="none" stroke="#000000" points="350,-469.5 350,-499.5 562,-499.5 562,-469.5 350,-469.5"/>
<text text-anchor="start" x="357" y="-480.9" font-family="Arial" font-size="14.00" fill="#000000">course_id </text>
<text text-anchor="start" x="421.5708" y="-480.9" font-family="Arial" font-size="14.00" fill="#666666">[char(36)]</text>
<polygon fill="none" stroke="#000000" points="350,-439.5 350,-469.5 562,-469.5 562,-439.5 350,-439.5"/>
<text text-anchor="start" x="357" y="-450.9" font-family="Arial" font-size="14.00" fill="#000000">title </text>
<text text-anchor="start" x="382.6676" y="-450.9" font-family="Arial" font-size="14.00" fill="#666666">[varchar(255)]</text>
<polygon fill="none" stroke="#000000" points="350,-409.5 350,-439.5 562,-439.5 562,-409.5 350,-409.5"/>
<text text-anchor="start" x="357" y="-420.9" font-family="Arial" font-size="14.00" fill="#000000">description </text>
<text text-anchor="start" x="428.568" y="-420.9" font-family="Arial" font-size="14.00" fill="#666666">[text]</text>
<polygon fill="none" stroke="#000000" points="350,-379.5 350,-409.5 562,-409.5 562,-379.5 350,-379.5"/>
<text text-anchor="start" x="356.8002" y="-390.9" font-family="Arial" font-size="14.00" fill="#000000">attendance_code </text>
<text text-anchor="start" x="468.0806" y="-390.9" font-family="Arial" font-size="14.00" fill="#666666">[varchar(255)]</text>
</g>
<!-- attendances&#45;&gt;classes -->
<g id="edge1" class="edge">
<title>attendances:class_id&#45;&gt;classes:id</title>
<path fill="none" stroke="#000000" d="M652.0004,-804.1496C597.0383,-776.5152 626.9716,-514.5 562,-514.5"/>
<polygon fill="#000000" stroke="#000000" points="652.2653,-804.2117 660.9703,-810.8806 657.1327,-805.3559 662,-806.5 662,-806.5 662,-806.5 657.1327,-805.3559 663.0297,-802.1194 652.2653,-804.2117 652.2653,-804.2117"/>
<text text-anchor="start" x="416.8345" y="-816.5" font-family="Arial" font-size="10.00" fill="#000000">FOREIGN KEY (class_id) REFERENCES classes (id)</text>
</g>
<!-- users -->
<g id="node6" class="node">
<title>users</title>
<polygon fill="#efefef" stroke="transparent" points="1253,-529.5 1253,-564.5 1455,-564.5 1455,-529.5 1253,-529.5"/>
<polygon fill="none" stroke="#000000" points="1253,-529.5 1253,-564.5 1455,-564.5 1455,-529.5 1253,-529.5"/>
<text text-anchor="start" x="1283.3708" y="-542.3" font-family="Arial Bold" font-size="18.00" fill="#000000">users</text>
<text text-anchor="start" x="1327.3754" y="-542.3" font-family="Arial" font-size="14.00" fill="#000000"> </text>
<text text-anchor="start" x="1331.266" y="-542.3" font-family="Arial" font-size="14.00" fill="#666666">[BASE TABLE]</text>
<polygon fill="none" stroke="#000000" points="1253,-499.5 1253,-529.5 1455,-529.5 1455,-499.5 1253,-499.5"/>
<text text-anchor="start" x="1260" y="-510.9" font-family="Arial" font-size="14.00" fill="#000000">id </text>
<text text-anchor="start" x="1274.7798" y="-510.9" font-family="Arial" font-size="14.00" fill="#666666">[char(36)]</text>
<polygon fill="none" stroke="#000000" points="1253,-469.5 1253,-499.5 1455,-499.5 1455,-469.5 1253,-469.5"/>
<text text-anchor="start" x="1260" y="-480.9" font-family="Arial" font-size="14.00" fill="#000000">name </text>
<text text-anchor="start" x="1298.899" y="-480.9" font-family="Arial" font-size="14.00" fill="#666666">[varchar(255)]</text>
<polygon fill="none" stroke="#000000" points="1253,-439.5 1253,-469.5 1455,-469.5 1455,-439.5 1253,-439.5"/>
<text text-anchor="start" x="1260" y="-450.9" font-family="Arial" font-size="14.00" fill="#000000">mail_address </text>
<text text-anchor="start" x="1347.1206" y="-450.9" font-family="Arial" font-size="14.00" fill="#666666">[varchar(255)]</text>
<polygon fill="none" stroke="#000000" points="1253,-409.5 1253,-439.5 1455,-439.5 1455,-409.5 1253,-409.5"/>
<text text-anchor="start" x="1259.8668" y="-420.9" font-family="Arial" font-size="14.00" fill="#000000">hashed_password </text>
<text text-anchor="start" x="1377.3506" y="-420.9" font-family="Arial" font-size="14.00" fill="#666666">[binary(60)]</text>
<polygon fill="none" stroke="#000000" points="1253,-379.5 1253,-409.5 1455,-409.5 1455,-379.5 1253,-379.5"/>
<text text-anchor="start" x="1260" y="-390.9" font-family="Arial" font-size="14.00" fill="#000000">type </text>
<text text-anchor="start" x="1290.3464" y="-390.9" font-family="Arial" font-size="14.00" fill="#666666">[enum(&#39;student&#39;,&#39;faculty&#39;)]</text>
</g>
<!-- attendances&#45;&gt;users -->
<g id="edge5" class="edge">
<title>attendances:user_id&#45;&gt;users:id</title>
<path fill="none" stroke="#000000" d="M881.0366,-775.6222C928.7497,-766.3606 883.21,-686.095 926,-644 1037.4328,-534.3772 1096.6849,-514.5 1253,-514.5"/>
<polygon fill="#000000" stroke="#000000" points="880.962,-775.6286 870.6079,-772.0171 875.981,-776.0643 871,-776.5 871,-776.5 871,-776.5 875.981,-776.0643 871.3921,-780.9829 880.962,-775.6286 880.962,-775.6286"/>
<text text-anchor="start" x="757.945" y="-760.5" font-family="Arial" font-size="10.00" fill="#000000">FOREIGN KEY (user_id) REFERENCES users (id)</text>
</g>
<!-- courses -->
<g id="node5" class="node">
<title>courses</title>
<polygon fill="#efefef" stroke="transparent" points="369,-222.5 369,-257.5 543,-257.5 543,-222.5 369,-222.5"/>
<polygon fill="none" stroke="#000000" points="369,-222.5 369,-257.5 543,-257.5 543,-222.5 369,-222.5"/>
<text text-anchor="start" x="375.8677" y="-235.3" font-family="Arial Bold" font-size="18.00" fill="#000000">courses</text>
<text text-anchor="start" x="438.8785" y="-235.3" font-family="Arial" font-size="14.00" fill="#000000"> </text>
<text text-anchor="start" x="442.7691" y="-235.3" font-family="Arial" font-size="14.00" fill="#666666">[BASE TABLE]</text>
<polygon fill="none" stroke="#000000" points="369,-192.5 369,-222.5 543,-222.5 543,-192.5 369,-192.5"/>
<text text-anchor="start" x="376" y="-203.9" font-family="Arial" font-size="14.00" fill="#000000">id </text>
<text text-anchor="start" x="390.7798" y="-203.9" font-family="Arial" font-size="14.00" fill="#666666">[char(36)]</text>
<polygon fill="none" stroke="#000000" points="369,-162.5 369,-192.5 543,-192.5 543,-162.5 369,-162.5"/>
<text text-anchor="start" x="376" y="-173.9" font-family="Arial" font-size="14.00" fill="#000000">name </text>
<text text-anchor="start" x="414.899" y="-173.9" font-family="Arial" font-size="14.00" fill="#666666">[varchar(255)]</text>
<polygon fill="none" stroke="#000000" points="369,-132.5 369,-162.5 543,-162.5 543,-132.5 369,-132.5"/>
<text text-anchor="start" x="376" y="-143.9" font-family="Arial" font-size="14.00" fill="#000000">description </text>
<text text-anchor="start" x="447.568" y="-143.9" font-family="Arial" font-size="14.00" fill="#666666">[text]</text>
<polygon fill="none" stroke="#000000" points="369,-102.5 369,-132.5 543,-132.5 543,-102.5 369,-102.5"/>
<text text-anchor="start" x="376" y="-113.9" font-family="Arial" font-size="14.00" fill="#000000">credit </text>
<text text-anchor="start" x="414.1136" y="-113.9" font-family="Arial" font-size="14.00" fill="#666666">[tinyint unsigned]</text>
<polygon fill="none" stroke="#000000" points="369,-72.5 369,-102.5 543,-102.5 543,-72.5 369,-72.5"/>
<text text-anchor="start" x="376" y="-83.9" font-family="Arial" font-size="14.00" fill="#000000">classroom </text>
<text text-anchor="start" x="443.6662" y="-83.9" font-family="Arial" font-size="14.00" fill="#666666">[varchar(255)]</text>
<polygon fill="none" stroke="#000000" points="369,-42.5 369,-72.5 543,-72.5 543,-42.5 369,-42.5"/>
<text text-anchor="start" x="376" y="-53.9" font-family="Arial" font-size="14.00" fill="#000000">capacity </text>
<text text-anchor="start" x="431.2356" y="-53.9" font-family="Arial" font-size="14.00" fill="#666666">[int unsigned]</text>
</g>
<!-- classes&#45;&gt;courses -->
<g id="edge4" class="edge">
<title>classes:course_id&#45;&gt;courses:id</title>
<path fill="none" stroke="#000000" d="M572.1424,-483.8461C684.2405,-469.0327 662.9056,-207.5 543,-207.5"/>
<polygon fill="#000000" stroke="#000000" points="571.9793,-483.8565 561.7104,-480.0093 566.9896,-484.1783 562,-484.5 562,-484.5 562,-484.5 566.9896,-484.1783 562.2896,-488.9907 571.9793,-483.8565 571.9793,-483.8565"/>
<text text-anchor="start" x="569.386" y="-494.5" font-family="Arial" font-size="10.00" fill="#000000">FOREIGN KEY (course_id) REFERENCES courses (id)</text>
</g>
<!-- assignment -->
<g id="node3" class="node">
<title>assignment</title>
<polygon fill="#efefef" stroke="transparent" points="49,-866.5 49,-901.5 252,-901.5 252,-866.5 49,-866.5"/>
<polygon fill="none" stroke="#000000" points="49,-866.5 49,-901.5 252,-901.5 252,-866.5 49,-866.5"/>
<text text-anchor="start" x="55.8633" y="-879.3" font-family="Arial Bold" font-size="18.00" fill="#000000">assignment</text>
<text text-anchor="start" x="147.8829" y="-879.3" font-family="Arial" font-size="14.00" fill="#000000"> </text>
<text text-anchor="start" x="151.7735" y="-879.3" font-family="Arial" font-size="14.00" fill="#666666">[BASE TABLE]</text>
<polygon fill="none" stroke="#000000" points="49,-836.5 49,-866.5 252,-866.5 252,-836.5 49,-836.5"/>
<text text-anchor="start" x="56" y="-847.9" font-family="Arial" font-size="14.00" fill="#000000">id </text>
<text text-anchor="start" x="70.7798" y="-847.9" font-family="Arial" font-size="14.00" fill="#666666">[char(36)]</text>
<polygon fill="none" stroke="#000000" points="49,-806.5 49,-836.5 252,-836.5 252,-806.5 49,-806.5"/>
<text text-anchor="start" x="56" y="-817.9" font-family="Arial" font-size="14.00" fill="#000000">class_id </text>
<text text-anchor="start" x="110.4516" y="-817.9" font-family="Arial" font-size="14.00" fill="#666666">[char(36)]</text>
<polygon fill="none" stroke="#000000" points="49,-776.5 49,-806.5 252,-806.5 252,-776.5 49,-776.5"/>
<text text-anchor="start" x="56" y="-787.9" font-family="Arial" font-size="14.00" fill="#000000">name </text>
<text text-anchor="start" x="94.899" y="-787.9" font-family="Arial" font-size="14.00" fill="#666666">[varchar(255)]</text>
<polygon fill="none" stroke="#000000" points="49,-746.5 49,-776.5 252,-776.5 252,-746.5 49,-746.5"/>
<text text-anchor="start" x="56" y="-757.9" font-family="Arial" font-size="14.00" fill="#000000">description </text>
<text text-anchor="start" x="127.568" y="-757.9" font-family="Arial" font-size="14.00" fill="#666666">[text]</text>
<polygon fill="none" stroke="#000000" points="49,-716.5 49,-746.5 252,-746.5 252,-716.5 49,-716.5"/>
<text text-anchor="start" x="56" y="-727.9" font-family="Arial" font-size="14.00" fill="#000000">deadline </text>
<text text-anchor="start" x="112.7994" y="-727.9" font-family="Arial" font-size="14.00" fill="#666666">[datetime(6)]</text>
<polygon fill="none" stroke="#000000" points="49,-686.5 49,-716.5 252,-716.5 252,-686.5 49,-686.5"/>
<text text-anchor="start" x="56" y="-697.9" font-family="Arial" font-size="14.00" fill="#000000">created_at </text>
<text text-anchor="start" x="126.028" y="-697.9" font-family="Arial" font-size="14.00" fill="#666666">[datetime(6)]</text>
</g>
<!-- assignment&#45;&gt;classes -->
<g id="edge2" class="edge">
<title>assignment:class_id&#45;&gt;classes:id</title>
<path fill="none" stroke="#000000" d="M262.2431,-820.909C329.1758,-812.6098 278.7893,-718.5612 303,-644 321.9097,-585.7642 288.771,-514.5 350,-514.5"/>
<polygon fill="#000000" stroke="#000000" points="261.9834,-820.9239 251.7408,-817.0075 256.9917,-821.2119 252,-821.5 252,-821.5 252,-821.5 256.9917,-821.2119 252.2592,-825.9925 261.9834,-820.9239 261.9834,-820.9239"/>
<text text-anchor="start" x="6.8345" y="-831.5" font-family="Arial" font-size="10.00" fill="#000000">FOREIGN KEY (class_id) REFERENCES classes (id)</text>
</g>
<!-- documents -->
<g id="node4" class="node">
<title>documents</title>
<polygon fill="#efefef" stroke="transparent" points="356,-836.5 356,-871.5 555,-871.5 555,-836.5 356,-836.5"/>
<polygon fill="none" stroke="#000000" points="356,-836.5 356,-871.5 555,-871.5 555,-836.5 356,-836.5"/>
<text text-anchor="start" x="362.8604" y="-849.3" font-family="Arial Bold" font-size="18.00" fill="#000000">documents</text>
<text text-anchor="start" x="450.8858" y="-849.3" font-family="Arial" font-size="14.00" fill="#000000"> </text>
<text text-anchor="start" x="454.7764" y="-849.3" font-family="Arial" font-size="14.00" fill="#666666">[BASE TABLE]</text>
<polygon fill="none" stroke="#000000" points="356,-806.5 356,-836.5 555,-836.5 555,-806.5 356,-806.5"/>
<text text-anchor="start" x="363" y="-817.9" font-family="Arial" font-size="14.00" fill="#000000">id </text>
<text text-anchor="start" x="377.7798" y="-817.9" font-family="Arial" font-size="14.00" fill="#666666">[char(36)]</text>
<polygon fill="none" stroke="#000000" points="356,-776.5 356,-806.5 555,-806.5 555,-776.5 356,-776.5"/>
<text text-anchor="start" x="363" y="-787.9" font-family="Arial" font-size="14.00" fill="#000000">class_id </text>
<text text-anchor="start" x="417.4516" y="-787.9" font-family="Arial" font-size="14.00" fill="#666666">[char(36)]</text>
<polygon fill="none" stroke="#000000" points="356,-746.5 356,-776.5 555,-776.5 555,-746.5 356,-746.5"/>
<text text-anchor="start" x="363" y="-757.9" font-family="Arial" font-size="14.00" fill="#000000">name </text>
<text text-anchor="start" x="401.899" y="-757.9" font-family="Arial" font-size="14.00" fill="#666666">[text]</text>
<polygon fill="none" stroke="#000000" points="356,-716.5 356,-746.5 555,-746.5 555,-716.5 356,-716.5"/>
<text text-anchor="start" x="363" y="-727.9" font-family="Arial" font-size="14.00" fill="#000000">created_at </text>
<text text-anchor="start" x="433.028" y="-727.9" font-family="Arial" font-size="14.00" fill="#666666">[datetime(6)]</text>
</g>
<!-- documents&#45;&gt;classes -->
<g id="edge3" class="edge">
<title>documents:class_id&#45;&gt;classes:id</title>
<path fill="none" stroke="#000000" d="M564.945,-790.421C604.1571,-781.0755 583.5899,-713.2397 555,-674 498.6352,-596.6393 406.3648,-685.3607 350,-608 325.5291,-574.4137 308.4444,-514.5 350,-514.5"/>
<polygon fill="#000000" stroke="#000000" points="564.9417,-790.4212 554.5146,-787.0263 559.9708,-790.9606 555,-791.5 555,-791.5 555,-791.5 559.9708,-790.9606 555.4854,-795.9737 564.9417,-790.4212 564.9417,-790.4212"/>
<text text-anchor="start" x="435.8345" y="-775.5" font-family="Arial" font-size="10.00" fill="#000000">FOREIGN KEY (class_id) REFERENCES classes (id)</text>
</g>
<!-- grades -->
<g id="node7" class="node">
<title>grades</title>
<polygon fill="#efefef" stroke="transparent" points="978,-836.5 978,-871.5 1144,-871.5 1144,-836.5 978,-836.5"/>
<polygon fill="none" stroke="#000000" points="978,-836.5 978,-871.5 1144,-871.5 1144,-836.5 978,-836.5"/>
<text text-anchor="start" x="984.8646" y="-849.3" font-family="Arial Bold" font-size="18.00" fill="#000000">grades</text>
<text text-anchor="start" x="1039.8816" y="-849.3" font-family="Arial" font-size="14.00" fill="#000000"> </text>
<text text-anchor="start" x="1043.7722" y="-849.3" font-family="Arial" font-size="14.00" fill="#666666">[BASE TABLE]</text>
<polygon fill="none" stroke="#000000" points="978,-806.5 978,-836.5 1144,-836.5 1144,-806.5 978,-806.5"/>
<text text-anchor="start" x="985" y="-817.9" font-family="Arial" font-size="14.00" fill="#000000">id </text>
<text text-anchor="start" x="999.7798" y="-817.9" font-family="Arial" font-size="14.00" fill="#666666">[char(36)]</text>
<polygon fill="none" stroke="#000000" points="978,-776.5 978,-806.5 1144,-806.5 1144,-776.5 978,-776.5"/>
<text text-anchor="start" x="985" y="-787.9" font-family="Arial" font-size="14.00" fill="#000000">user_id </text>
<text text-anchor="start" x="1034.7882" y="-787.9" font-family="Arial" font-size="14.00" fill="#666666">[char(36)]</text>
<polygon fill="none" stroke="#000000" points="978,-746.5 978,-776.5 1144,-776.5 1144,-746.5 978,-746.5"/>
<text text-anchor="start" x="985" y="-757.9" font-family="Arial" font-size="14.00" fill="#000000">course_id </text>
<text text-anchor="start" x="1049.5708" y="-757.9" font-family="Arial" font-size="14.00" fill="#666666">[char(36)]</text>
<polygon fill="none" stroke="#000000" points="978,-716.5 978,-746.5 1144,-746.5 1144,-716.5 978,-716.5"/>
<text text-anchor="start" x="985" y="-727.9" font-family="Arial" font-size="14.00" fill="#000000">grade </text>
<text text-anchor="start" x="1024.6816" y="-727.9" font-family="Arial" font-size="14.00" fill="#666666">[int unsigned]</text>
</g>
<!-- grades&#45;&gt;users -->
<g id="edge6" class="edge">
<title>grades:user_id&#45;&gt;users:id</title>
<path fill="none" stroke="#000000" d="M1154.0839,-790.8235C1209.1569,-782.8109 1171.7735,-705.2256 1196,-644 1219.1373,-585.527 1190.1158,-514.5 1253,-514.5"/>
<polygon fill="#000000" stroke="#000000" points="1153.9776,-790.8305 1143.6987,-787.0101 1148.9888,-791.1653 1144,-791.5 1144,-791.5 1144,-791.5 1148.9888,-791.1653 1144.3013,-795.9899 1153.9776,-790.8305 1153.9776,-790.8305"/>
<text text-anchor="start" x="1150.945" y="-801.5" font-family="Arial" font-size="10.00" fill="#000000">FOREIGN KEY (user_id) REFERENCES users (id)</text>
</g>
<!-- registrations -->
<g id="node8" class="node">
<title>registrations</title>
<polygon fill="#efefef" stroke="transparent" points="1249,-836.5 1249,-871.5 1458,-871.5 1458,-836.5 1249,-836.5"/>
<polygon fill="none" stroke="#000000" points="1249,-836.5 1249,-871.5 1458,-871.5 1458,-836.5 1249,-836.5"/>
<text text-anchor="start" x="1255.869" y="-849.3" font-family="Arial Bold" font-size="18.00" fill="#000000">registrations</text>
<text text-anchor="start" x="1353.8772" y="-849.3" font-family="Arial" font-size="14.00" fill="#000000"> </text>
<text text-anchor="start" x="1357.7678" y="-849.3" font-family="Arial" font-size="14.00" fill="#666666">[BASE TABLE]</text>
<polygon fill="none" stroke="#000000" points="1249,-806.5 1249,-836.5 1458,-836.5 1458,-806.5 1249,-806.5"/>
<text text-anchor="start" x="1256" y="-817.9" font-family="Arial" font-size="14.00" fill="#000000">course_id </text>
<text text-anchor="start" x="1320.5708" y="-817.9" font-family="Arial" font-size="14.00" fill="#666666">[char(36)]</text>
<polygon fill="none" stroke="#000000" points="1249,-776.5 1249,-806.5 1458,-806.5 1458,-776.5 1249,-776.5"/>
<text text-anchor="start" x="1256" y="-787.9" font-family="Arial" font-size="14.00" fill="#000000">user_id </text>
<text text-anchor="start" x="1305.7882" y="-787.9" font-family="Arial" font-size="14.00" fill="#666666">[char(36)]</text>
<polygon fill="none" stroke="#000000" points="1249,-746.5 1249,-776.5 1458,-776.5 1458,-746.5 1249,-746.5"/>
<text text-anchor="start" x="1256" y="-757.9" font-family="Arial" font-size="14.00" fill="#000000">created_at </text>
<text text-anchor="start" x="1326.028" y="-757.9" font-family="Arial" font-size="14.00" fill="#666666">[datetime(6)]</text>
<polygon fill="none" stroke="#000000" points="1249,-716.5 1249,-746.5 1458,-746.5 1458,-716.5 1249,-716.5"/>
<text text-anchor="start" x="1256" y="-727.9" font-family="Arial" font-size="14.00" fill="#000000">delete_at </text>
<text text-anchor="start" x="1317.474" y="-727.9" font-family="Arial" font-size="14.00" fill="#666666">[datetime(6)]</text>
</g>
<!-- registrations&#45;&gt;users -->
<g id="edge7" class="edge">
<title>registrations:user_id&#45;&gt;users:id</title>
<path fill="none" stroke="#000000" d="M1467.945,-790.421C1507.1571,-781.0755 1486.5899,-713.2397 1458,-674 1401.6352,-596.6393 1309.3648,-685.3607 1253,-608 1228.5291,-574.4137 1211.4444,-514.5 1253,-514.5"/>
<polygon fill="#000000" stroke="#000000" points="1467.9417,-790.4212 1457.5146,-787.0263 1462.9708,-790.9606 1458,-791.5 1458,-791.5 1458,-791.5 1462.9708,-790.9606 1458.4854,-795.9737 1467.9417,-790.4212 1467.9417,-790.4212"/>
<text text-anchor="start" x="1344.945" y="-775.5" font-family="Arial" font-size="10.00" fill="#000000">FOREIGN KEY (user_id) REFERENCES users (id)</text>
</g>
<!-- submissions -->
<g id="node9" class="node">
<title>submissions</title>
<polygon fill="#efefef" stroke="transparent" points="1562,-851.5 1562,-886.5 1772,-886.5 1772,-851.5 1562,-851.5"/>
<polygon fill="none" stroke="#000000" points="1562,-851.5 1562,-886.5 1772,-886.5 1772,-851.5 1562,-851.5"/>
<text text-anchor="start" x="1568.8704" y="-864.3" font-family="Arial Bold" font-size="18.00" fill="#000000">submissions</text>
<text text-anchor="start" x="1667.8758" y="-864.3" font-family="Arial" font-size="14.00" fill="#000000"> </text>
<text text-anchor="start" x="1671.7664" y="-864.3" font-family="Arial" font-size="14.00" fill="#666666">[BASE TABLE]</text>
<polygon fill="none" stroke="#000000" points="1562,-821.5 1562,-851.5 1772,-851.5 1772,-821.5 1562,-821.5"/>
<text text-anchor="start" x="1569" y="-832.9" font-family="Arial" font-size="14.00" fill="#000000">id </text>
<text text-anchor="start" x="1583.7798" y="-832.9" font-family="Arial" font-size="14.00" fill="#666666">[char(36)]</text>
<polygon fill="none" stroke="#000000" points="1562,-791.5 1562,-821.5 1772,-821.5 1772,-791.5 1562,-791.5"/>
<text text-anchor="start" x="1569" y="-802.9" font-family="Arial" font-size="14.00" fill="#000000">user_id </text>
<text text-anchor="start" x="1618.7882" y="-802.9" font-family="Arial" font-size="14.00" fill="#666666">[char(36)]</text>
<polygon fill="none" stroke="#000000" points="1562,-761.5 1562,-791.5 1772,-791.5 1772,-761.5 1562,-761.5"/>
<text text-anchor="start" x="1569" y="-772.9" font-family="Arial" font-size="14.00" fill="#000000">assignment_id </text>
<text text-anchor="start" x="1663.1332" y="-772.9" font-family="Arial" font-size="14.00" fill="#666666">[char(36)]</text>
<polygon fill="none" stroke="#000000" points="1562,-731.5 1562,-761.5 1772,-761.5 1772,-731.5 1562,-731.5"/>
<text text-anchor="start" x="1569" y="-742.9" font-family="Arial" font-size="14.00" fill="#000000">name </text>
<text text-anchor="start" x="1607.899" y="-742.9" font-family="Arial" font-size="14.00" fill="#666666">[varchar(255)]</text>
<polygon fill="none" stroke="#000000" points="1562,-701.5 1562,-731.5 1772,-731.5 1772,-701.5 1562,-701.5"/>
<text text-anchor="start" x="1569" y="-712.9" font-family="Arial" font-size="14.00" fill="#000000">created_at </text>
<text text-anchor="start" x="1639.028" y="-712.9" font-family="Arial" font-size="14.00" fill="#666666">[datetime(6)]</text>
</g>
<!-- submissions&#45;&gt;users -->
<g id="edge8" class="edge">
<title>submissions:user_id&#45;&gt;users:id</title>
<path fill="none" stroke="#000000" d="M1551.7702,-805.8592C1490.8931,-797.6211 1535.1157,-711.6132 1510,-644 1488.2258,-585.3821 1517.5314,-514.5 1455,-514.5"/>
<polygon fill="#000000" stroke="#000000" points="1552.0196,-805.8747 1561.7186,-810.9912 1557.0098,-806.1873 1562,-806.5 1562,-806.5 1562,-806.5 1557.0098,-806.1873 1562.2814,-802.0088 1552.0196,-805.8747 1552.0196,-805.8747"/>
<text text-anchor="start" x="1568.945" y="-816.5" font-family="Arial" font-size="10.00" fill="#000000">FOREIGN KEY (user_id) REFERENCES users (id)</text>
</g>
<!-- unread_announcements -->
<g id="node10" class="node">
<title>unread_announcements</title>
<polygon fill="#efefef" stroke="transparent" points="1877,-836.5 1877,-871.5 2182,-871.5 2182,-836.5 1877,-836.5"/>
<polygon fill="none" stroke="#000000" points="1877,-836.5 1877,-871.5 2182,-871.5 2182,-836.5 1877,-836.5"/>
<text text-anchor="start" x="1883.8333" y="-849.3" font-family="Arial Bold" font-size="18.00" fill="#000000">unread_announcements</text>
<text text-anchor="start" x="2077.9129" y="-849.3" font-family="Arial" font-size="14.00" fill="#000000"> </text>
<text text-anchor="start" x="2081.8035" y="-849.3" font-family="Arial" font-size="14.00" fill="#666666">[BASE TABLE]</text>
<polygon fill="none" stroke="#000000" points="1877,-806.5 1877,-836.5 2182,-836.5 2182,-806.5 1877,-806.5"/>
<text text-anchor="start" x="1884" y="-817.9" font-family="Arial" font-size="14.00" fill="#000000">announcement_id </text>
<text text-anchor="start" x="1999.157" y="-817.9" font-family="Arial" font-size="14.00" fill="#666666">[char(36)]</text>
<polygon fill="none" stroke="#000000" points="1877,-776.5 1877,-806.5 2182,-806.5 2182,-776.5 1877,-776.5"/>
<text text-anchor="start" x="1884" y="-787.9" font-family="Arial" font-size="14.00" fill="#000000">user_id </text>
<text text-anchor="start" x="1933.7882" y="-787.9" font-family="Arial" font-size="14.00" fill="#666666">[char(36)]</text>
<polygon fill="none" stroke="#000000" points="1877,-746.5 1877,-776.5 2182,-776.5 2182,-746.5 1877,-746.5"/>
<text text-anchor="start" x="1884" y="-757.9" font-family="Arial" font-size="14.00" fill="#000000">created_at </text>
<text text-anchor="start" x="1954.028" y="-757.9" font-family="Arial" font-size="14.00" fill="#666666">[datetime(6)]</text>
<polygon fill="none" stroke="#000000" points="1877,-716.5 1877,-746.5 2182,-746.5 2182,-716.5 1877,-716.5"/>
<text text-anchor="start" x="1884" y="-727.9" font-family="Arial" font-size="14.00" fill="#000000">delete_at </text>
<text text-anchor="start" x="1945.474" y="-727.9" font-family="Arial" font-size="14.00" fill="#666666">[datetime(6)]</text>
</g>
<!-- unread_announcements&#45;&gt;users -->
<g id="edge9" class="edge">
<title>unread_announcements:user_id&#45;&gt;users:id</title>
<path fill="none" stroke="#000000" d="M1866.7485,-790.6411C1814.2248,-780.8821 1870.7355,-690.3893 1824,-644 1700.6443,-521.5581 1628.8063,-514.5 1455,-514.5"/>
<polygon fill="#000000" stroke="#000000" points="1867.0349,-790.665 1876.6242,-795.9843 1872.0175,-791.0825 1877,-791.5 1877,-791.5 1877,-791.5 1872.0175,-791.0825 1877.3758,-787.0157 1867.0349,-790.665 1867.0349,-790.665"/>
<text text-anchor="start" x="1703.945" y="-775.5" font-family="Arial" font-size="10.00" fill="#000000">FOREIGN KEY (user_id) REFERENCES users (id)</text>
</g>
</g>
</svg>
