<?xml version="1.0" encoding="UTF-8" standalone="no"?>
<!DOCTYPE svg PUBLIC "-//W3C//DTD SVG 1.1//EN"
 "http://www.w3.org/Graphics/SVG/1.1/DTD/svg11.dtd">
<!-- Generated by graphviz version 2.40.1 (20161225.0304)
 -->
<!-- Title: attendances Pages: 1 -->
<svg width="1962pt" height="616pt"
 viewBox="0.00 0.00 1961.50 616.00" xmlns="http://www.w3.org/2000/svg" xmlns:xlink="http://www.w3.org/1999/xlink">
<g id="graph0" class="graph" transform="scale(1 1) rotate(0) translate(4 612)">
<title>attendances</title>
<polygon fill="#ffffff" stroke="transparent" points="-4,4 -4,-612 1957.5,-612 1957.5,4 -4,4"/>
<!-- attendances -->
<g id="node1" class="node">
<title>attendances</title>
<polygon fill="#efefef" stroke="transparent" points="662,-484.5 662,-519.5 871,-519.5 871,-484.5 662,-484.5"/>
<polygon fill="none" stroke="#000000" points="662,-484.5 662,-519.5 871,-519.5 871,-484.5 662,-484.5"/>
<text text-anchor="start" x="668.8492" y="-497.3" font-family="Arial Bold" font-size="18.00" fill="#000000">attendances</text>
<text text-anchor="start" x="766.897" y="-497.3" font-family="Arial" font-size="14.00" fill="#000000"> </text>
<text text-anchor="start" x="770.7876" y="-497.3" font-family="Arial" font-size="14.00" fill="#666666">[BASE TABLE]</text>
<polygon fill="none" stroke="#000000" points="662,-454.5 662,-484.5 871,-484.5 871,-454.5 662,-454.5"/>
<text text-anchor="start" x="669" y="-465.9" font-family="Arial" font-size="14.00" fill="#000000">class_id </text>
<text text-anchor="start" x="723.4516" y="-465.9" font-family="Arial" font-size="14.00" fill="#666666">[char(36)]</text>
<polygon fill="none" stroke="#000000" points="662,-424.5 662,-454.5 871,-454.5 871,-424.5 662,-424.5"/>
<text text-anchor="start" x="669" y="-435.9" font-family="Arial" font-size="14.00" fill="#000000">user_id </text>
<text text-anchor="start" x="718.7882" y="-435.9" font-family="Arial" font-size="14.00" fill="#666666">[char(36)]</text>
<polygon fill="none" stroke="#000000" points="662,-394.5 662,-424.5 871,-424.5 871,-394.5 662,-394.5"/>
<text text-anchor="start" x="669" y="-405.9" font-family="Arial" font-size="14.00" fill="#000000">created_at </text>
<text text-anchor="start" x="739.028" y="-405.9" font-family="Arial" font-size="14.00" fill="#666666">[datetime(6)]</text>
<polygon fill="none" stroke="#000000" stroke-width="3" points="660,-393.5 660,-521.5 872,-521.5 872,-393.5 660,-393.5"/>
</g>
<!-- classes -->
<g id="node2" class="node">
<title>classes</title>
<polygon fill="#efefef" stroke="transparent" points="370,-177.5 370,-212.5 541,-212.5 541,-177.5 370,-177.5"/>
<polygon fill="none" stroke="#000000" points="370,-177.5 370,-212.5 541,-212.5 541,-177.5 370,-177.5"/>
<text text-anchor="start" x="376.8698" y="-190.3" font-family="Arial Bold" font-size="18.00" fill="#000000">classes</text>
<text text-anchor="start" x="436.8764" y="-190.3" font-family="Arial" font-size="14.00" fill="#000000"> </text>
<text text-anchor="start" x="440.767" y="-190.3" font-family="Arial" font-size="14.00" fill="#666666">[BASE TABLE]</text>
<polygon fill="none" stroke="#000000" points="370,-147.5 370,-177.5 541,-177.5 541,-147.5 370,-147.5"/>
<text text-anchor="start" x="377" y="-158.9" font-family="Arial" font-size="14.00" fill="#000000">id </text>
<text text-anchor="start" x="391.7798" y="-158.9" font-family="Arial" font-size="14.00" fill="#666666">[char(36)]</text>
<polygon fill="none" stroke="#000000" points="370,-117.5 370,-147.5 541,-147.5 541,-117.5 370,-117.5"/>
<text text-anchor="start" x="377" y="-128.9" font-family="Arial" font-size="14.00" fill="#000000">title </text>
<text text-anchor="start" x="402.6676" y="-128.9" font-family="Arial" font-size="14.00" fill="#666666">[varchar(255)]</text>
<polygon fill="none" stroke="#000000" points="370,-87.5 370,-117.5 541,-117.5 541,-87.5 370,-87.5"/>
<text text-anchor="start" x="377" y="-98.9" font-family="Arial" font-size="14.00" fill="#000000">description </text>
<text text-anchor="start" x="448.568" y="-98.9" font-family="Arial" font-size="14.00" fill="#666666">[text]</text>
<polygon fill="none" stroke="#000000" points="370,-57.5 370,-87.5 541,-87.5 541,-57.5 370,-57.5"/>
<text text-anchor="start" x="377" y="-68.9" font-family="Arial" font-size="14.00" fill="#000000">attendance_code </text>
<text text-anchor="start" x="488.2804" y="-68.9" font-family="Arial" font-size="14.00" fill="#666666">[tinyint]</text>
</g>
<!-- attendances&#45;&gt;classes -->
<g id="edge1" class="edge">
<title>attendances:class_id&#45;&gt;classes:id</title>
<path fill="none" stroke="#000000" d="M651.68,-468.8587C590.1662,-460.615 632.7683,-374.55 606,-307 580.0569,-241.5323 611.4206,-162.5 541,-162.5"/>
<polygon fill="#000000" stroke="#000000" points="652.0193,-468.8797 661.7209,-473.9913 657.0096,-469.1898 662,-469.5 662,-469.5 662,-469.5 657.0096,-469.1898 662.2791,-465.0087 652.0193,-468.8797 652.0193,-468.8797"/>
<text text-anchor="start" x="416.8345" y="-479.5" font-family="Arial" font-size="10.00" fill="#000000">FOREIGN KEY (class_id) REFERENCES classes (id)</text>
</g>
<!-- users -->
<g id="node5" class="node">
<title>users</title>
<polygon fill="#efefef" stroke="transparent" points="1138,-192.5 1138,-227.5 1340,-227.5 1340,-192.5 1138,-192.5"/>
<polygon fill="none" stroke="#000000" points="1138,-192.5 1138,-227.5 1340,-227.5 1340,-192.5 1138,-192.5"/>
<text text-anchor="start" x="1168.3708" y="-205.3" font-family="Arial Bold" font-size="18.00" fill="#000000">users</text>
<text text-anchor="start" x="1212.3754" y="-205.3" font-family="Arial" font-size="14.00" fill="#000000"> </text>
<text text-anchor="start" x="1216.266" y="-205.3" font-family="Arial" font-size="14.00" fill="#666666">[BASE TABLE]</text>
<polygon fill="none" stroke="#000000" points="1138,-162.5 1138,-192.5 1340,-192.5 1340,-162.5 1138,-162.5"/>
<text text-anchor="start" x="1145" y="-173.9" font-family="Arial" font-size="14.00" fill="#000000">id </text>
<text text-anchor="start" x="1159.7798" y="-173.9" font-family="Arial" font-size="14.00" fill="#666666">[char(36)]</text>
<polygon fill="none" stroke="#000000" points="1138,-132.5 1138,-162.5 1340,-162.5 1340,-132.5 1138,-132.5"/>
<text text-anchor="start" x="1145" y="-143.9" font-family="Arial" font-size="14.00" fill="#000000">name </text>
<text text-anchor="start" x="1183.899" y="-143.9" font-family="Arial" font-size="14.00" fill="#666666">[varchar(255)]</text>
<polygon fill="none" stroke="#000000" points="1138,-102.5 1138,-132.5 1340,-132.5 1340,-102.5 1138,-102.5"/>
<text text-anchor="start" x="1145" y="-113.9" font-family="Arial" font-size="14.00" fill="#000000">mail_address </text>
<text text-anchor="start" x="1232.1206" y="-113.9" font-family="Arial" font-size="14.00" fill="#666666">[varchar(255)]</text>
<polygon fill="none" stroke="#000000" points="1138,-72.5 1138,-102.5 1340,-102.5 1340,-72.5 1138,-72.5"/>
<text text-anchor="start" x="1144.8668" y="-83.9" font-family="Arial" font-size="14.00" fill="#000000">hashed_password </text>
<text text-anchor="start" x="1262.3506" y="-83.9" font-family="Arial" font-size="14.00" fill="#666666">[binary(60)]</text>
<polygon fill="none" stroke="#000000" points="1138,-42.5 1138,-72.5 1340,-72.5 1340,-42.5 1138,-42.5"/>
<text text-anchor="start" x="1145" y="-53.9" font-family="Arial" font-size="14.00" fill="#000000">type </text>
<text text-anchor="start" x="1175.3464" y="-53.9" font-family="Arial" font-size="14.00" fill="#666666">[enum(&#39;student&#39;,&#39;faculty&#39;)]</text>
</g>
<!-- attendances&#45;&gt;users -->
<g id="edge4" class="edge">
<title>attendances:user_id&#45;&gt;users:id</title>
<path fill="none" stroke="#000000" d="M881.0412,-438.6579C928.9502,-429.7672 886.1703,-352.5647 925,-307 996.86,-222.6758 1027.21,-177.5 1138,-177.5"/>
<polygon fill="#000000" stroke="#000000" points="880.965,-438.6642 870.6239,-435.0157 875.9825,-439.0821 871,-439.5 871,-439.5 871,-439.5 875.9825,-439.0821 871.3761,-443.9843 880.965,-438.6642 880.965,-438.6642"/>
<text text-anchor="start" x="877.945" y="-449.5" font-family="Arial" font-size="10.00" fill="#000000">FOREIGN KEY (user_id) REFERENCES users (id)</text>
</g>
<!-- assignment -->
<g id="node3" class="node">
<title>assignment</title>
<polygon fill="#efefef" stroke="transparent" points="49,-529.5 49,-564.5 252,-564.5 252,-529.5 49,-529.5"/>
<polygon fill="none" stroke="#000000" points="49,-529.5 49,-564.5 252,-564.5 252,-529.5 49,-529.5"/>
<text text-anchor="start" x="55.8633" y="-542.3" font-family="Arial Bold" font-size="18.00" fill="#000000">assignment</text>
<text text-anchor="start" x="147.8829" y="-542.3" font-family="Arial" font-size="14.00" fill="#000000"> </text>
<text text-anchor="start" x="151.7735" y="-542.3" font-family="Arial" font-size="14.00" fill="#666666">[BASE TABLE]</text>
<polygon fill="none" stroke="#000000" points="49,-499.5 49,-529.5 252,-529.5 252,-499.5 49,-499.5"/>
<text text-anchor="start" x="56" y="-510.9" font-family="Arial" font-size="14.00" fill="#000000">id </text>
<text text-anchor="start" x="70.7798" y="-510.9" font-family="Arial" font-size="14.00" fill="#666666">[char(36)]</text>
<polygon fill="none" stroke="#000000" points="49,-469.5 49,-499.5 252,-499.5 252,-469.5 49,-469.5"/>
<text text-anchor="start" x="56" y="-480.9" font-family="Arial" font-size="14.00" fill="#000000">class_id </text>
<text text-anchor="start" x="110.4516" y="-480.9" font-family="Arial" font-size="14.00" fill="#666666">[char(36)]</text>
<polygon fill="none" stroke="#000000" points="49,-439.5 49,-469.5 252,-469.5 252,-439.5 49,-439.5"/>
<text text-anchor="start" x="56" y="-450.9" font-family="Arial" font-size="14.00" fill="#000000">name </text>
<text text-anchor="start" x="94.899" y="-450.9" font-family="Arial" font-size="14.00" fill="#666666">[varchar(255)]</text>
<polygon fill="none" stroke="#000000" points="49,-409.5 49,-439.5 252,-439.5 252,-409.5 49,-409.5"/>
<text text-anchor="start" x="56" y="-420.9" font-family="Arial" font-size="14.00" fill="#000000">description </text>
<text text-anchor="start" x="127.568" y="-420.9" font-family="Arial" font-size="14.00" fill="#666666">[text]</text>
<polygon fill="none" stroke="#000000" points="49,-379.5 49,-409.5 252,-409.5 252,-379.5 49,-379.5"/>
<text text-anchor="start" x="56" y="-390.9" font-family="Arial" font-size="14.00" fill="#000000">deadline </text>
<text text-anchor="start" x="112.7994" y="-390.9" font-family="Arial" font-size="14.00" fill="#666666">[datetime(6)]</text>
<polygon fill="none" stroke="#000000" points="49,-349.5 49,-379.5 252,-379.5 252,-349.5 49,-349.5"/>
<text text-anchor="start" x="56" y="-360.9" font-family="Arial" font-size="14.00" fill="#000000">created_at </text>
<text text-anchor="start" x="126.028" y="-360.9" font-family="Arial" font-size="14.00" fill="#666666">[datetime(6)]</text>
</g>
<!-- assignment&#45;&gt;classes -->
<g id="edge2" class="edge">
<title>assignment:class_id&#45;&gt;classes:id</title>
<path fill="none" stroke="#000000" d="M262.2238,-483.9023C328.8898,-475.5101 275.6061,-380.4514 303,-307 327.7369,-240.6728 299.2101,-162.5 370,-162.5"/>
<polygon fill="#000000" stroke="#000000" points="261.983,-483.9163 251.7373,-480.0077 256.9915,-484.2081 252,-484.5 252,-484.5 252,-484.5 256.9915,-484.2081 252.2627,-488.9923 261.983,-483.9163 261.983,-483.9163"/>
<text text-anchor="start" x="6.8345" y="-494.5" font-family="Arial" font-size="10.00" fill="#000000">FOREIGN KEY (class_id) REFERENCES classes (id)</text>
</g>
<!-- documents -->
<g id="node4" class="node">
<title>documents</title>
<polygon fill="#efefef" stroke="transparent" points="356,-499.5 356,-534.5 555,-534.5 555,-499.5 356,-499.5"/>
<polygon fill="none" stroke="#000000" points="356,-499.5 356,-534.5 555,-534.5 555,-499.5 356,-499.5"/>
<text text-anchor="start" x="362.8604" y="-512.3" font-family="Arial Bold" font-size="18.00" fill="#000000">documents</text>
<text text-anchor="start" x="450.8858" y="-512.3" font-family="Arial" font-size="14.00" fill="#000000"> </text>
<text text-anchor="start" x="454.7764" y="-512.3" font-family="Arial" font-size="14.00" fill="#666666">[BASE TABLE]</text>
<polygon fill="none" stroke="#000000" points="356,-469.5 356,-499.5 555,-499.5 555,-469.5 356,-469.5"/>
<text text-anchor="start" x="363" y="-480.9" font-family="Arial" font-size="14.00" fill="#000000">id </text>
<text text-anchor="start" x="377.7798" y="-480.9" font-family="Arial" font-size="14.00" fill="#666666">[char(36)]</text>
<polygon fill="none" stroke="#000000" points="356,-439.5 356,-469.5 555,-469.5 555,-439.5 356,-439.5"/>
<text text-anchor="start" x="363" y="-450.9" font-family="Arial" font-size="14.00" fill="#000000">class_id </text>
<text text-anchor="start" x="417.4516" y="-450.9" font-family="Arial" font-size="14.00" fill="#666666">[char(36)]</text>
<polygon fill="none" stroke="#000000" points="356,-409.5 356,-439.5 555,-439.5 555,-409.5 356,-409.5"/>
<text text-anchor="start" x="363" y="-420.9" font-family="Arial" font-size="14.00" fill="#000000">name </text>
<text text-anchor="start" x="401.899" y="-420.9" font-family="Arial" font-size="14.00" fill="#666666">[text]</text>
<polygon fill="none" stroke="#000000" points="356,-379.5 356,-409.5 555,-409.5 555,-379.5 356,-379.5"/>
<text text-anchor="start" x="363" y="-390.9" font-family="Arial" font-size="14.00" fill="#000000">created_at </text>
<text text-anchor="start" x="433.028" y="-390.9" font-family="Arial" font-size="14.00" fill="#666666">[datetime(6)]</text>
</g>
<!-- documents&#45;&gt;classes -->
<g id="edge3" class="edge">
<title>documents:class_id&#45;&gt;classes:id</title>
<path fill="none" stroke="#000000" d="M346.0458,-451.9756C292.7202,-423.4358 308.5893,-162.5 370,-162.5"/>
<polygon fill="#000000" stroke="#000000" points="346.3068,-452.0418 354.8938,-458.8619 351.1534,-453.2709 356,-454.5 356,-454.5 356,-454.5 351.1534,-453.2709 357.1062,-450.1381 346.3068,-452.0418 346.3068,-452.0418"/>
<text text-anchor="start" x="362.8345" y="-438.5" font-family="Arial" font-size="10.00" fill="#000000">FOREIGN KEY (class_id) REFERENCES classes (id)</text>
</g>
<!-- registrations -->
<g id="node6" class="node">
<title>registrations</title>
<polygon fill="#efefef" stroke="transparent" points="978,-499.5 978,-534.5 1187,-534.5 1187,-499.5 978,-499.5"/>
<polygon fill="none" stroke="#000000" points="978,-499.5 978,-534.5 1187,-534.5 1187,-499.5 978,-499.5"/>
<text text-anchor="start" x="984.869" y="-512.3" font-family="Arial Bold" font-size="18.00" fill="#000000">registrations</text>
<text text-anchor="start" x="1082.8772" y="-512.3" font-family="Arial" font-size="14.00" fill="#000000"> </text>
<text text-anchor="start" x="1086.7678" y="-512.3" font-family="Arial" font-size="14.00" fill="#666666">[BASE TABLE]</text>
<polygon fill="none" stroke="#000000" points="978,-469.5 978,-499.5 1187,-499.5 1187,-469.5 978,-469.5"/>
<text text-anchor="start" x="985" y="-480.9" font-family="Arial" font-size="14.00" fill="#000000">course_id </text>
<text text-anchor="start" x="1049.5708" y="-480.9" font-family="Arial" font-size="14.00" fill="#666666">[char(36)]</text>
<polygon fill="none" stroke="#000000" points="978,-439.5 978,-469.5 1187,-469.5 1187,-439.5 978,-439.5"/>
<text text-anchor="start" x="985" y="-450.9" font-family="Arial" font-size="14.00" fill="#000000">user_id </text>
<text text-anchor="start" x="1034.7882" y="-450.9" font-family="Arial" font-size="14.00" fill="#666666">[char(36)]</text>
<polygon fill="none" stroke="#000000" points="978,-409.5 978,-439.5 1187,-439.5 1187,-409.5 978,-409.5"/>
<text text-anchor="start" x="985" y="-420.9" font-family="Arial" font-size="14.00" fill="#000000">created_at </text>
<text text-anchor="start" x="1055.028" y="-420.9" font-family="Arial" font-size="14.00" fill="#666666">[datetime(6)]</text>
<polygon fill="none" stroke="#000000" points="978,-379.5 978,-409.5 1187,-409.5 1187,-379.5 978,-379.5"/>
<text text-anchor="start" x="985" y="-390.9" font-family="Arial" font-size="14.00" fill="#000000">delete_at </text>
<text text-anchor="start" x="1046.474" y="-390.9" font-family="Arial" font-size="14.00" fill="#666666">[datetime(6)]</text>
</g>
<!-- registrations&#45;&gt;users -->
<g id="edge5" class="edge">
<title>registrations:user_id&#45;&gt;users:id</title>
<path fill="none" stroke="#000000" d="M1197.2165,-453.4129C1234.011,-444.5195 1202.1768,-382.9024 1187,-337 1175.5314,-302.313 1149.4686,-305.687 1138,-271 1124.9549,-231.5451 1096.4444,-177.5 1138,-177.5"/>
<polygon fill="#000000" stroke="#000000" points="1196.9439,-453.4418 1186.5238,-450.0253 1191.9719,-453.9709 1187,-454.5 1187,-454.5 1187,-454.5 1191.9719,-453.9709 1187.4762,-458.9747 1196.9439,-453.4418 1196.9439,-453.4418"/>
<text text-anchor="start" x="1193.945" y="-464.5" font-family="Arial" font-size="10.00" fill="#000000">FOREIGN KEY (user_id) REFERENCES users (id)</text>
</g>
<!-- submissions -->
<g id="node7" class="node">
<title>submissions</title>
<polygon fill="#efefef" stroke="transparent" points="1291,-514.5 1291,-549.5 1501,-549.5 1501,-514.5 1291,-514.5"/>
<polygon fill="none" stroke="#000000" points="1291,-514.5 1291,-549.5 1501,-549.5 1501,-514.5 1291,-514.5"/>
<text text-anchor="start" x="1297.8704" y="-527.3" font-family="Arial Bold" font-size="18.00" fill="#000000">submissions</text>
<text text-anchor="start" x="1396.8758" y="-527.3" font-family="Arial" font-size="14.00" fill="#000000"> </text>
<text text-anchor="start" x="1400.7664" y="-527.3" font-family="Arial" font-size="14.00" fill="#666666">[BASE TABLE]</text>
<polygon fill="none" stroke="#000000" points="1291,-484.5 1291,-514.5 1501,-514.5 1501,-484.5 1291,-484.5"/>
<text text-anchor="start" x="1298" y="-495.9" font-family="Arial" font-size="14.00" fill="#000000">id </text>
<text text-anchor="start" x="1312.7798" y="-495.9" font-family="Arial" font-size="14.00" fill="#666666">[char(36)]</text>
<polygon fill="none" stroke="#000000" points="1291,-454.5 1291,-484.5 1501,-484.5 1501,-454.5 1291,-454.5"/>
<text text-anchor="start" x="1298" y="-465.9" font-family="Arial" font-size="14.00" fill="#000000">user_id </text>
<text text-anchor="start" x="1347.7882" y="-465.9" font-family="Arial" font-size="14.00" fill="#666666">[char(36)]</text>
<polygon fill="none" stroke="#000000" points="1291,-424.5 1291,-454.5 1501,-454.5 1501,-424.5 1291,-424.5"/>
<text text-anchor="start" x="1298" y="-435.9" font-family="Arial" font-size="14.00" fill="#000000">assignment_id </text>
<text text-anchor="start" x="1392.1332" y="-435.9" font-family="Arial" font-size="14.00" fill="#666666">[char(36)]</text>
<polygon fill="none" stroke="#000000" points="1291,-394.5 1291,-424.5 1501,-424.5 1501,-394.5 1291,-394.5"/>
<text text-anchor="start" x="1298" y="-405.9" font-family="Arial" font-size="14.00" fill="#000000">name </text>
<text text-anchor="start" x="1336.899" y="-405.9" font-family="Arial" font-size="14.00" fill="#666666">[varchar(255)]</text>
<polygon fill="none" stroke="#000000" points="1291,-364.5 1291,-394.5 1501,-394.5 1501,-364.5 1291,-364.5"/>
<text text-anchor="start" x="1298" y="-375.9" font-family="Arial" font-size="14.00" fill="#000000">created_at </text>
<text text-anchor="start" x="1368.028" y="-375.9" font-family="Arial" font-size="14.00" fill="#666666">[datetime(6)]</text>
</g>
<!-- submissions&#45;&gt;users -->
<g id="edge6" class="edge">
<title>submissions:user_id&#45;&gt;users:id</title>
<path fill="none" stroke="#000000" d="M1280.8646,-468.6861C1230.0443,-459.763 1267.9064,-379.3687 1291,-322 1302.738,-292.8406 1328.262,-300.1594 1340,-271 1355.518,-232.4506 1381.5556,-177.5 1340,-177.5"/>
<polygon fill="#000000" stroke="#000000" points="1281.0321,-468.6995 1290.6398,-473.9856 1286.016,-469.0998 1291,-469.5 1291,-469.5 1291,-469.5 1286.016,-469.0998 1291.3602,-465.0144 1281.0321,-468.6995 1281.0321,-468.6995"/>
<text text-anchor="start" x="1297.945" y="-479.5" font-family="Arial" font-size="10.00" fill="#000000">FOREIGN KEY (user_id) REFERENCES users (id)</text>
</g>
<!-- unread_announcements -->
<g id="node8" class="node">
<title>unread_announcements</title>
<polygon fill="#efefef" stroke="transparent" points="1606,-499.5 1606,-534.5 1911,-534.5 1911,-499.5 1606,-499.5"/>
<polygon fill="none" stroke="#000000" points="1606,-499.5 1606,-534.5 1911,-534.5 1911,-499.5 1606,-499.5"/>
<text text-anchor="start" x="1612.8333" y="-512.3" font-family="Arial Bold" font-size="18.00" fill="#000000">unread_announcements</text>
<text text-anchor="start" x="1806.9129" y="-512.3" font-family="Arial" font-size="14.00" fill="#000000"> </text>
<text text-anchor="start" x="1810.8035" y="-512.3" font-family="Arial" font-size="14.00" fill="#666666">[BASE TABLE]</text>
<polygon fill="none" stroke="#000000" points="1606,-469.5 1606,-499.5 1911,-499.5 1911,-469.5 1606,-469.5"/>
<text text-anchor="start" x="1613" y="-480.9" font-family="Arial" font-size="14.00" fill="#000000">announcement_id </text>
<text text-anchor="start" x="1728.157" y="-480.9" font-family="Arial" font-size="14.00" fill="#666666">[char(36)]</text>
<polygon fill="none" stroke="#000000" points="1606,-439.5 1606,-469.5 1911,-469.5 1911,-439.5 1606,-439.5"/>
<text text-anchor="start" x="1613" y="-450.9" font-family="Arial" font-size="14.00" fill="#000000">user_id </text>
<text text-anchor="start" x="1662.7882" y="-450.9" font-family="Arial" font-size="14.00" fill="#666666">[char(36)]</text>
<polygon fill="none" stroke="#000000" points="1606,-409.5 1606,-439.5 1911,-439.5 1911,-409.5 1606,-409.5"/>
<text text-anchor="start" x="1613" y="-420.9" font-family="Arial" font-size="14.00" fill="#000000">created_at </text>
<text text-anchor="start" x="1683.028" y="-420.9" font-family="Arial" font-size="14.00" fill="#666666">[datetime(6)]</text>
<polygon fill="none" stroke="#000000" points="1606,-379.5 1606,-409.5 1911,-409.5 1911,-379.5 1606,-379.5"/>
<text text-anchor="start" x="1613" y="-390.9" font-family="Arial" font-size="14.00" fill="#000000">delete_at </text>
<text text-anchor="start" x="1674.474" y="-390.9" font-family="Arial" font-size="14.00" fill="#666666">[datetime(6)]</text>
</g>
<!-- unread_announcements&#45;&gt;users -->
<g id="edge7" class="edge">
<title>unread_announcements:user_id&#45;&gt;users:id</title>
<path fill="none" stroke="#000000" d="M1595.7028,-453.6825C1542.6684,-444.3871 1594.6481,-358.006 1553,-307 1482.9283,-221.1841 1450.79,-177.5 1340,-177.5"/>
<polygon fill="#000000" stroke="#000000" points="1596.0314,-453.7085 1605.6438,-458.9859 1601.0157,-454.1042 1606,-454.5 1606,-454.5 1606,-454.5 1601.0157,-454.1042 1606.3562,-450.0141 1596.0314,-453.7085 1596.0314,-453.7085"/>
<text text-anchor="start" x="1432.945" y="-438.5" font-family="Arial" font-size="10.00" fill="#000000">FOREIGN KEY (user_id) REFERENCES users (id)</text>
</g>
</g>
</svg>
