<?xml version="1.0" encoding="UTF-8" standalone="no"?>
<!DOCTYPE svg PUBLIC "-//W3C//DTD SVG 1.1//EN"
 "http://www.w3.org/Graphics/SVG/1.1/DTD/svg11.dtd">
<!-- Generated by graphviz version 2.40.1 (20161225.0304)
 -->
<!-- Title: attendances Pages: 1 -->
<svg width="709pt" height="532pt"
 viewBox="0.00 0.00 709.00 532.00" xmlns="http://www.w3.org/2000/svg" xmlns:xlink="http://www.w3.org/1999/xlink">
<g id="graph0" class="graph" transform="scale(1 1) rotate(0) translate(4 528)">
<title>attendances</title>
<polygon fill="#ffffff" stroke="transparent" points="-4,4 -4,-528 705,-528 705,4 -4,4"/>
<!-- attendances -->
<g id="node1" class="node">
<title>attendances</title>
<polygon fill="#efefef" stroke="transparent" points="252,-442.5 252,-477.5 461,-477.5 461,-442.5 252,-442.5"/>
<polygon fill="none" stroke="#000000" points="252,-442.5 252,-477.5 461,-477.5 461,-442.5 252,-442.5"/>
<text text-anchor="start" x="258.8492" y="-455.3" font-family="Arial Bold" font-size="18.00" fill="#000000">attendances</text>
<text text-anchor="start" x="356.897" y="-455.3" font-family="Arial" font-size="14.00" fill="#000000"> </text>
<text text-anchor="start" x="360.7876" y="-455.3" font-family="Arial" font-size="14.00" fill="#666666">[BASE TABLE]</text>
<polygon fill="none" stroke="#000000" points="252,-412.5 252,-442.5 461,-442.5 461,-412.5 252,-412.5"/>
<text text-anchor="start" x="259" y="-423.9" font-family="Arial" font-size="14.00" fill="#000000">class_id </text>
<text text-anchor="start" x="313.4516" y="-423.9" font-family="Arial" font-size="14.00" fill="#666666">[char(36)]</text>
<polygon fill="none" stroke="#000000" points="252,-382.5 252,-412.5 461,-412.5 461,-382.5 252,-382.5"/>
<text text-anchor="start" x="259" y="-393.9" font-family="Arial" font-size="14.00" fill="#000000">user_id </text>
<text text-anchor="start" x="308.7882" y="-393.9" font-family="Arial" font-size="14.00" fill="#666666">[char(36)]</text>
<polygon fill="none" stroke="#000000" points="252,-352.5 252,-382.5 461,-382.5 461,-352.5 252,-352.5"/>
<text text-anchor="start" x="259" y="-363.9" font-family="Arial" font-size="14.00" fill="#000000">created_at </text>
<text text-anchor="start" x="329.028" y="-363.9" font-family="Arial" font-size="14.00" fill="#666666">[datetime(6)]</text>
<polygon fill="none" stroke="#000000" stroke-width="3" points="250,-351.5 250,-479.5 462,-479.5 462,-351.5 250,-351.5"/>
</g>
<!-- classes -->
<g id="node2" class="node">
<title>classes</title>
<polygon fill="#efefef" stroke="transparent" points="96,-192.5 96,-227.5 308,-227.5 308,-192.5 96,-192.5"/>
<polygon fill="none" stroke="#000000" points="96,-192.5 96,-227.5 308,-227.5 308,-192.5 96,-192.5"/>
<text text-anchor="start" x="123.3698" y="-205.3" font-family="Arial Bold" font-size="18.00" fill="#000000">classes</text>
<text text-anchor="start" x="183.3764" y="-205.3" font-family="Arial" font-size="14.00" fill="#000000"> </text>
<text text-anchor="start" x="187.267" y="-205.3" font-family="Arial" font-size="14.00" fill="#666666">[BASE TABLE]</text>
<polygon fill="none" stroke="#000000" points="96,-162.5 96,-192.5 308,-192.5 308,-162.5 96,-162.5"/>
<text text-anchor="start" x="103" y="-173.9" font-family="Arial" font-size="14.00" fill="#000000">id </text>
<text text-anchor="start" x="117.7798" y="-173.9" font-family="Arial" font-size="14.00" fill="#666666">[char(36)]</text>
<polygon fill="none" stroke="#000000" points="96,-132.5 96,-162.5 308,-162.5 308,-132.5 96,-132.5"/>
<text text-anchor="start" x="103" y="-143.9" font-family="Arial" font-size="14.00" fill="#000000">course_id </text>
<text text-anchor="start" x="167.5708" y="-143.9" font-family="Arial" font-size="14.00" fill="#666666">[char(36)]</text>
<polygon fill="none" stroke="#000000" points="96,-102.5 96,-132.5 308,-132.5 308,-102.5 96,-102.5"/>
<text text-anchor="start" x="103" y="-113.9" font-family="Arial" font-size="14.00" fill="#000000">title </text>
<text text-anchor="start" x="128.6676" y="-113.9" font-family="Arial" font-size="14.00" fill="#666666">[varchar(255)]</text>
<polygon fill="none" stroke="#000000" points="96,-72.5 96,-102.5 308,-102.5 308,-72.5 96,-72.5"/>
<text text-anchor="start" x="103" y="-83.9" font-family="Arial" font-size="14.00" fill="#000000">description </text>
<text text-anchor="start" x="174.568" y="-83.9" font-family="Arial" font-size="14.00" fill="#666666">[text]</text>
<polygon fill="none" stroke="#000000" points="96,-42.5 96,-72.5 308,-72.5 308,-42.5 96,-42.5"/>
<text text-anchor="start" x="102.8002" y="-53.9" font-family="Arial" font-size="14.00" fill="#000000">attendance_code </text>
<text text-anchor="start" x="214.0806" y="-53.9" font-family="Arial" font-size="14.00" fill="#666666">[varchar(255)]</text>
</g>
<!-- attendances&#45;&gt;classes -->
<g id="edge1" class="edge">
<title>attendances:class_id&#45;&gt;classes:id</title>
<path fill="none" stroke="#000000" d="M241.882,-426.4447C202.3558,-417.2959 228.1413,-350.7012 252,-307 266.1783,-281.0301 293.8217,-296.9699 308,-271 327.9129,-234.5262 349.5556,-177.5 308,-177.5"/>
<polygon fill="#000000" stroke="#000000" points="242.0539,-426.4626 251.5332,-431.9757 247.027,-426.9813 252,-427.5 252,-427.5 252,-427.5 247.027,-426.9813 252.4668,-423.0243 242.0539,-426.4626 242.0539,-426.4626"/>
<text text-anchor="start" x="6.8345" y="-437.5" font-family="Arial" font-size="10.00" fill="#000000">FOREIGN KEY (class_id) REFERENCES classes (id)</text>
</g>
<!-- users -->
<g id="node3" class="node">
<title>users</title>
<polygon fill="#efefef" stroke="transparent" points="412,-192.5 412,-227.5 614,-227.5 614,-192.5 412,-192.5"/>
<polygon fill="none" stroke="#000000" points="412,-192.5 412,-227.5 614,-227.5 614,-192.5 412,-192.5"/>
<text text-anchor="start" x="442.3708" y="-205.3" font-family="Arial Bold" font-size="18.00" fill="#000000">users</text>
<text text-anchor="start" x="486.3754" y="-205.3" font-family="Arial" font-size="14.00" fill="#000000"> </text>
<text text-anchor="start" x="490.266" y="-205.3" font-family="Arial" font-size="14.00" fill="#666666">[BASE TABLE]</text>
<polygon fill="none" stroke="#000000" points="412,-162.5 412,-192.5 614,-192.5 614,-162.5 412,-162.5"/>
<text text-anchor="start" x="419" y="-173.9" font-family="Arial" font-size="14.00" fill="#000000">id </text>
<text text-anchor="start" x="433.7798" y="-173.9" font-family="Arial" font-size="14.00" fill="#666666">[char(36)]</text>
<polygon fill="none" stroke="#000000" points="412,-132.5 412,-162.5 614,-162.5 614,-132.5 412,-132.5"/>
<text text-anchor="start" x="419" y="-143.9" font-family="Arial" font-size="14.00" fill="#000000">name </text>
<text text-anchor="start" x="457.899" y="-143.9" font-family="Arial" font-size="14.00" fill="#666666">[varchar(255)]</text>
<polygon fill="none" stroke="#000000" points="412,-102.5 412,-132.5 614,-132.5 614,-102.5 412,-102.5"/>
<text text-anchor="start" x="419" y="-113.9" font-family="Arial" font-size="14.00" fill="#000000">mail_address </text>
<text text-anchor="start" x="506.1206" y="-113.9" font-family="Arial" font-size="14.00" fill="#666666">[varchar(255)]</text>
<polygon fill="none" stroke="#000000" points="412,-72.5 412,-102.5 614,-102.5 614,-72.5 412,-72.5"/>
<text text-anchor="start" x="418.8668" y="-83.9" font-family="Arial" font-size="14.00" fill="#000000">hashed_password </text>
<text text-anchor="start" x="536.3506" y="-83.9" font-family="Arial" font-size="14.00" fill="#666666">[binary(60)]</text>
<polygon fill="none" stroke="#000000" points="412,-42.5 412,-72.5 614,-72.5 614,-42.5 412,-42.5"/>
<text text-anchor="start" x="419" y="-53.9" font-family="Arial" font-size="14.00" fill="#000000">type </text>
<text text-anchor="start" x="449.3464" y="-53.9" font-family="Arial" font-size="14.00" fill="#666666">[enum(&#39;student&#39;,&#39;faculty&#39;)]</text>
</g>
<!-- attendances&#45;&gt;users -->
<g id="edge2" class="edge">
<title>attendances:user_id&#45;&gt;users:id</title>
<path fill="none" stroke="#000000" d="M471.0637,-396.0058C496.9513,-387.0119 477.3913,-339.3821 461,-307 448.7956,-282.8893 424.2044,-295.1107 412,-271 393.2326,-233.9237 370.4444,-177.5 412,-177.5"/>
<polygon fill="#000000" stroke="#000000" points="470.8916,-396.0313 460.3391,-393.0488 465.9458,-396.7656 461,-397.5 461,-397.5 461,-397.5 465.9458,-396.7656 461.6609,-401.9512 470.8916,-396.0313 470.8916,-396.0313"/>
<text text-anchor="start" x="467.945" y="-407.5" font-family="Arial" font-size="10.00" fill="#000000">FOREIGN KEY (user_id) REFERENCES users (id)</text>
</g>
</g>
</svg>
