<?xml version="1.0" encoding="UTF-8" standalone="no"?>
<!DOCTYPE svg PUBLIC "-//W3C//DTD SVG 1.1//EN"
 "http://www.w3.org/Graphics/SVG/1.1/DTD/svg11.dtd">
<!-- Generated by graphviz version 2.40.1 (20161225.0304)
 -->
<!-- Title: classes Pages: 1 -->
<svg width="2504pt" height="1266pt"
 viewBox="0.00 0.00 2503.50 1266.00" xmlns="http://www.w3.org/2000/svg" xmlns:xlink="http://www.w3.org/1999/xlink">
<g id="graph0" class="graph" transform="scale(1 1) rotate(0) translate(4 1262)">
<title>classes</title>
<polygon fill="#ffffff" stroke="transparent" points="-4,4 -4,-1262 2499.5,-1262 2499.5,4 -4,4"/>
<!-- classes -->
<g id="node1" class="node">
<title>classes</title>
<polygon fill="#efefef" stroke="transparent" points="1717.5,-532.5 1717.5,-567.5 1947.5,-567.5 1947.5,-532.5 1717.5,-532.5"/>
<polygon fill="none" stroke="#000000" points="1717.5,-532.5 1717.5,-567.5 1947.5,-567.5 1947.5,-532.5 1717.5,-532.5"/>
<text text-anchor="start" x="1753.8698" y="-545.3" font-family="Arial Bold" font-size="18.00" fill="#000000">classes</text>
<text text-anchor="start" x="1813.8764" y="-545.3" font-family="Arial" font-size="14.00" fill="#000000"> </text>
<text text-anchor="start" x="1817.767" y="-545.3" font-family="Arial" font-size="14.00" fill="#666666">[BASE TABLE]</text>
<polygon fill="none" stroke="#000000" points="1717.5,-502.5 1717.5,-532.5 1947.5,-532.5 1947.5,-502.5 1717.5,-502.5"/>
<text text-anchor="start" x="1724.5" y="-513.9" font-family="Arial" font-size="14.00" fill="#000000">id </text>
<text text-anchor="start" x="1739.2798" y="-513.9" font-family="Arial" font-size="14.00" fill="#666666">[char(36)]</text>
<polygon fill="none" stroke="#000000" points="1717.5,-472.5 1717.5,-502.5 1947.5,-502.5 1947.5,-472.5 1717.5,-472.5"/>
<text text-anchor="start" x="1724.5" y="-483.9" font-family="Arial" font-size="14.00" fill="#000000">course_id </text>
<text text-anchor="start" x="1789.0708" y="-483.9" font-family="Arial" font-size="14.00" fill="#666666">[char(36)]</text>
<polygon fill="none" stroke="#000000" points="1717.5,-442.5 1717.5,-472.5 1947.5,-472.5 1947.5,-442.5 1717.5,-442.5"/>
<text text-anchor="start" x="1724.5" y="-453.9" font-family="Arial" font-size="14.00" fill="#000000">title </text>
<text text-anchor="start" x="1750.1676" y="-453.9" font-family="Arial" font-size="14.00" fill="#666666">[varchar(255)]</text>
<polygon fill="none" stroke="#000000" points="1717.5,-412.5 1717.5,-442.5 1947.5,-442.5 1947.5,-412.5 1717.5,-412.5"/>
<text text-anchor="start" x="1724.5" y="-423.9" font-family="Arial" font-size="14.00" fill="#000000">description </text>
<text text-anchor="start" x="1796.068" y="-423.9" font-family="Arial" font-size="14.00" fill="#666666">[text]</text>
<polygon fill="none" stroke="#000000" points="1717.5,-382.5 1717.5,-412.5 1947.5,-412.5 1947.5,-382.5 1717.5,-382.5"/>
<text text-anchor="start" x="1724.343" y="-393.9" font-family="Arial" font-size="14.00" fill="#000000">attendance_code </text>
<text text-anchor="start" x="1835.6234" y="-393.9" font-family="Arial" font-size="14.00" fill="#666666">[tinyint unsigned]</text>
<polygon fill="none" stroke="#000000" stroke-width="3" points="1716,-381.5 1716,-569.5 1949,-569.5 1949,-381.5 1716,-381.5"/>
</g>
<!-- courses -->
<g id="node7" class="node">
<title>courses</title>
<polygon fill="#efefef" stroke="transparent" points="811.5,-222.5 811.5,-257.5 985.5,-257.5 985.5,-222.5 811.5,-222.5"/>
<polygon fill="none" stroke="#000000" points="811.5,-222.5 811.5,-257.5 985.5,-257.5 985.5,-222.5 811.5,-222.5"/>
<text text-anchor="start" x="818.3677" y="-235.3" font-family="Arial Bold" font-size="18.00" fill="#000000">courses</text>
<text text-anchor="start" x="881.3785" y="-235.3" font-family="Arial" font-size="14.00" fill="#000000"> </text>
<text text-anchor="start" x="885.2691" y="-235.3" font-family="Arial" font-size="14.00" fill="#666666">[BASE TABLE]</text>
<polygon fill="none" stroke="#000000" points="811.5,-192.5 811.5,-222.5 985.5,-222.5 985.5,-192.5 811.5,-192.5"/>
<text text-anchor="start" x="818.5" y="-203.9" font-family="Arial" font-size="14.00" fill="#000000">id </text>
<text text-anchor="start" x="833.2798" y="-203.9" font-family="Arial" font-size="14.00" fill="#666666">[char(36)]</text>
<polygon fill="none" stroke="#000000" points="811.5,-162.5 811.5,-192.5 985.5,-192.5 985.5,-162.5 811.5,-162.5"/>
<text text-anchor="start" x="818.5" y="-173.9" font-family="Arial" font-size="14.00" fill="#000000">name </text>
<text text-anchor="start" x="857.399" y="-173.9" font-family="Arial" font-size="14.00" fill="#666666">[varchar(255)]</text>
<polygon fill="none" stroke="#000000" points="811.5,-132.5 811.5,-162.5 985.5,-162.5 985.5,-132.5 811.5,-132.5"/>
<text text-anchor="start" x="818.5" y="-143.9" font-family="Arial" font-size="14.00" fill="#000000">description </text>
<text text-anchor="start" x="890.068" y="-143.9" font-family="Arial" font-size="14.00" fill="#666666">[text]</text>
<polygon fill="none" stroke="#000000" points="811.5,-102.5 811.5,-132.5 985.5,-132.5 985.5,-102.5 811.5,-102.5"/>
<text text-anchor="start" x="818.5" y="-113.9" font-family="Arial" font-size="14.00" fill="#000000">credit </text>
<text text-anchor="start" x="856.6136" y="-113.9" font-family="Arial" font-size="14.00" fill="#666666">[tinyint unsigned]</text>
<polygon fill="none" stroke="#000000" points="811.5,-72.5 811.5,-102.5 985.5,-102.5 985.5,-72.5 811.5,-72.5"/>
<text text-anchor="start" x="818.5" y="-83.9" font-family="Arial" font-size="14.00" fill="#000000">classroom </text>
<text text-anchor="start" x="886.1662" y="-83.9" font-family="Arial" font-size="14.00" fill="#666666">[varchar(255)]</text>
<polygon fill="none" stroke="#000000" points="811.5,-42.5 811.5,-72.5 985.5,-72.5 985.5,-42.5 811.5,-42.5"/>
<text text-anchor="start" x="818.5" y="-53.9" font-family="Arial" font-size="14.00" fill="#000000">capacity </text>
<text text-anchor="start" x="873.7356" y="-53.9" font-family="Arial" font-size="14.00" fill="#666666">[int unsigned]</text>
</g>
<!-- classes&#45;&gt;courses -->
<g id="edge6" class="edge">
<title>classes:course_id&#45;&gt;courses:id</title>
<path fill="none" stroke="#000000" d="M1707.3485,-486.6527C1653.1536,-476.6494 1713.1237,-380.6523 1661.5,-337 1544.7044,-238.2393 1138.4538,-207.5 985.5,-207.5"/>
<polygon fill="#000000" stroke="#000000" points="1707.5346,-486.6682 1717.1257,-491.9844 1712.5173,-487.0841 1717.5,-487.5 1717.5,-487.5 1717.5,-487.5 1712.5173,-487.0841 1717.8743,-483.0156 1707.5346,-486.6682 1707.5346,-486.6682"/>
<text text-anchor="start" x="1463.886" y="-497.5" font-family="Arial" font-size="10.00" fill="#000000">FOREIGN KEY (course_id) REFERENCES courses (id)</text>
</g>
<!-- assignment -->
<g id="node2" class="node">
<title>assignment</title>
<polygon fill="#efefef" stroke="transparent" points="1429.5,-872.5 1429.5,-907.5 1632.5,-907.5 1632.5,-872.5 1429.5,-872.5"/>
<polygon fill="none" stroke="#000000" points="1429.5,-872.5 1429.5,-907.5 1632.5,-907.5 1632.5,-872.5 1429.5,-872.5"/>
<text text-anchor="start" x="1436.3633" y="-885.3" font-family="Arial Bold" font-size="18.00" fill="#000000">assignment</text>
<text text-anchor="start" x="1528.3829" y="-885.3" font-family="Arial" font-size="14.00" fill="#000000"> </text>
<text text-anchor="start" x="1532.2735" y="-885.3" font-family="Arial" font-size="14.00" fill="#666666">[BASE TABLE]</text>
<polygon fill="none" stroke="#000000" points="1429.5,-842.5 1429.5,-872.5 1632.5,-872.5 1632.5,-842.5 1429.5,-842.5"/>
<text text-anchor="start" x="1436.5" y="-853.9" font-family="Arial" font-size="14.00" fill="#000000">id </text>
<text text-anchor="start" x="1451.2798" y="-853.9" font-family="Arial" font-size="14.00" fill="#666666">[char(36)]</text>
<polygon fill="none" stroke="#000000" points="1429.5,-812.5 1429.5,-842.5 1632.5,-842.5 1632.5,-812.5 1429.5,-812.5"/>
<text text-anchor="start" x="1436.5" y="-823.9" font-family="Arial" font-size="14.00" fill="#000000">class_id </text>
<text text-anchor="start" x="1490.9516" y="-823.9" font-family="Arial" font-size="14.00" fill="#666666">[char(36)]</text>
<polygon fill="none" stroke="#000000" points="1429.5,-782.5 1429.5,-812.5 1632.5,-812.5 1632.5,-782.5 1429.5,-782.5"/>
<text text-anchor="start" x="1436.5" y="-793.9" font-family="Arial" font-size="14.00" fill="#000000">name </text>
<text text-anchor="start" x="1475.399" y="-793.9" font-family="Arial" font-size="14.00" fill="#666666">[varchar(255)]</text>
<polygon fill="none" stroke="#000000" points="1429.5,-752.5 1429.5,-782.5 1632.5,-782.5 1632.5,-752.5 1429.5,-752.5"/>
<text text-anchor="start" x="1436.5" y="-763.9" font-family="Arial" font-size="14.00" fill="#000000">description </text>
<text text-anchor="start" x="1508.068" y="-763.9" font-family="Arial" font-size="14.00" fill="#666666">[text]</text>
<polygon fill="none" stroke="#000000" points="1429.5,-722.5 1429.5,-752.5 1632.5,-752.5 1632.5,-722.5 1429.5,-722.5"/>
<text text-anchor="start" x="1436.5" y="-733.9" font-family="Arial" font-size="14.00" fill="#000000">deadline </text>
<text text-anchor="start" x="1493.2994" y="-733.9" font-family="Arial" font-size="14.00" fill="#666666">[datetime(6)]</text>
<polygon fill="none" stroke="#000000" points="1429.5,-692.5 1429.5,-722.5 1632.5,-722.5 1632.5,-692.5 1429.5,-692.5"/>
<text text-anchor="start" x="1436.5" y="-703.9" font-family="Arial" font-size="14.00" fill="#000000">created_at </text>
<text text-anchor="start" x="1506.528" y="-703.9" font-family="Arial" font-size="14.00" fill="#666666">[datetime(6)]</text>
</g>
<!-- assignment&#45;&gt;classes -->
<g id="edge1" class="edge">
<title>assignment:class_id&#45;&gt;classes:id</title>
<path fill="none" stroke="#000000" d="M1642.4158,-825.183C1698.3883,-796.815 1649.6958,-517.5 1717.5,-517.5"/>
<polygon fill="#000000" stroke="#000000" points="1642.2377,-825.2245 1631.476,-823.118 1637.3688,-826.3623 1632.5,-827.5 1632.5,-827.5 1632.5,-827.5 1637.3688,-826.3623 1633.524,-831.882 1642.2377,-825.2245 1642.2377,-825.2245"/>
<text text-anchor="start" x="1639.3345" y="-837.5" font-family="Arial" font-size="10.00" fill="#000000">FOREIGN KEY (class_id) REFERENCES classes (id)</text>
</g>
<!-- submissions -->
<g id="node3" class="node">
<title>submissions</title>
<polygon fill="#efefef" stroke="transparent" points="1426.5,-1179.5 1426.5,-1214.5 1636.5,-1214.5 1636.5,-1179.5 1426.5,-1179.5"/>
<polygon fill="none" stroke="#000000" points="1426.5,-1179.5 1426.5,-1214.5 1636.5,-1214.5 1636.5,-1179.5 1426.5,-1179.5"/>
<text text-anchor="start" x="1433.3704" y="-1192.3" font-family="Arial Bold" font-size="18.00" fill="#000000">submissions</text>
<text text-anchor="start" x="1532.3758" y="-1192.3" font-family="Arial" font-size="14.00" fill="#000000"> </text>
<text text-anchor="start" x="1536.2664" y="-1192.3" font-family="Arial" font-size="14.00" fill="#666666">[BASE TABLE]</text>
<polygon fill="none" stroke="#000000" points="1426.5,-1149.5 1426.5,-1179.5 1636.5,-1179.5 1636.5,-1149.5 1426.5,-1149.5"/>
<text text-anchor="start" x="1433.5" y="-1160.9" font-family="Arial" font-size="14.00" fill="#000000">id </text>
<text text-anchor="start" x="1448.2798" y="-1160.9" font-family="Arial" font-size="14.00" fill="#666666">[char(36)]</text>
<polygon fill="none" stroke="#000000" points="1426.5,-1119.5 1426.5,-1149.5 1636.5,-1149.5 1636.5,-1119.5 1426.5,-1119.5"/>
<text text-anchor="start" x="1433.5" y="-1130.9" font-family="Arial" font-size="14.00" fill="#000000">user_id </text>
<text text-anchor="start" x="1483.2882" y="-1130.9" font-family="Arial" font-size="14.00" fill="#666666">[char(36)]</text>
<polygon fill="none" stroke="#000000" points="1426.5,-1089.5 1426.5,-1119.5 1636.5,-1119.5 1636.5,-1089.5 1426.5,-1089.5"/>
<text text-anchor="start" x="1433.5" y="-1100.9" font-family="Arial" font-size="14.00" fill="#000000">assignment_id </text>
<text text-anchor="start" x="1527.6332" y="-1100.9" font-family="Arial" font-size="14.00" fill="#666666">[char(36)]</text>
<polygon fill="none" stroke="#000000" points="1426.5,-1059.5 1426.5,-1089.5 1636.5,-1089.5 1636.5,-1059.5 1426.5,-1059.5"/>
<text text-anchor="start" x="1433.5" y="-1070.9" font-family="Arial" font-size="14.00" fill="#000000">name </text>
<text text-anchor="start" x="1472.399" y="-1070.9" font-family="Arial" font-size="14.00" fill="#666666">[varchar(255)]</text>
<polygon fill="none" stroke="#000000" points="1426.5,-1029.5 1426.5,-1059.5 1636.5,-1059.5 1636.5,-1029.5 1426.5,-1029.5"/>
<text text-anchor="start" x="1433.5" y="-1040.9" font-family="Arial" font-size="14.00" fill="#000000">created_at </text>
<text text-anchor="start" x="1503.528" y="-1040.9" font-family="Arial" font-size="14.00" fill="#666666">[datetime(6)]</text>
</g>
<!-- submissions&#45;&gt;assignment -->
<g id="edge2" class="edge">
<title>submissions:assignment_id&#45;&gt;assignment:id</title>
<path fill="none" stroke="#000000" d="M1416.5157,-1103.3902C1376.9708,-1093.7842 1395.2641,-1024.168 1426.5,-987 1486.2969,-915.847 1572.7031,-1022.153 1632.5,-951 1659.2356,-919.1869 1674.0556,-857.5 1632.5,-857.5"/>
<polygon fill="#000000" stroke="#000000" points="1416.5612,-1103.3952 1426.0028,-1108.9725 1421.5306,-1103.9476 1426.5,-1104.5 1426.5,-1104.5 1426.5,-1104.5 1421.5306,-1103.9476 1426.9972,-1100.0275 1416.5612,-1103.3952 1416.5612,-1103.3952"/>
<text text-anchor="start" x="1135.27" y="-1114.5" font-family="Arial" font-size="10.00" fill="#000000">FOREIGN KEY (assignment_id) REFERENCES assignment (id)</text>
</g>
<!-- attendances -->
<g id="node4" class="node">
<title>attendances</title>
<polygon fill="#efefef" stroke="transparent" points="2046.5,-827.5 2046.5,-862.5 2255.5,-862.5 2255.5,-827.5 2046.5,-827.5"/>
<polygon fill="none" stroke="#000000" points="2046.5,-827.5 2046.5,-862.5 2255.5,-862.5 2255.5,-827.5 2046.5,-827.5"/>
<text text-anchor="start" x="2053.3492" y="-840.3" font-family="Arial Bold" font-size="18.00" fill="#000000">attendances</text>
<text text-anchor="start" x="2151.397" y="-840.3" font-family="Arial" font-size="14.00" fill="#000000"> </text>
<text text-anchor="start" x="2155.2876" y="-840.3" font-family="Arial" font-size="14.00" fill="#666666">[BASE TABLE]</text>
<polygon fill="none" stroke="#000000" points="2046.5,-797.5 2046.5,-827.5 2255.5,-827.5 2255.5,-797.5 2046.5,-797.5"/>
<text text-anchor="start" x="2053.5" y="-808.9" font-family="Arial" font-size="14.00" fill="#000000">class_id </text>
<text text-anchor="start" x="2107.9516" y="-808.9" font-family="Arial" font-size="14.00" fill="#666666">[char(36)]</text>
<polygon fill="none" stroke="#000000" points="2046.5,-767.5 2046.5,-797.5 2255.5,-797.5 2255.5,-767.5 2046.5,-767.5"/>
<text text-anchor="start" x="2053.5" y="-778.9" font-family="Arial" font-size="14.00" fill="#000000">user_id </text>
<text text-anchor="start" x="2103.2882" y="-778.9" font-family="Arial" font-size="14.00" fill="#666666">[char(36)]</text>
<polygon fill="none" stroke="#000000" points="2046.5,-737.5 2046.5,-767.5 2255.5,-767.5 2255.5,-737.5 2046.5,-737.5"/>
<text text-anchor="start" x="2053.5" y="-748.9" font-family="Arial" font-size="14.00" fill="#000000">created_at </text>
<text text-anchor="start" x="2123.528" y="-748.9" font-family="Arial" font-size="14.00" fill="#666666">[datetime(6)]</text>
</g>
<!-- attendances&#45;&gt;classes -->
<g id="edge3" class="edge">
<title>attendances:class_id&#45;&gt;classes:id</title>
<path fill="none" stroke="#000000" d="M2036.4334,-810.1254C1981.1944,-782.2071 2013.0021,-517.5 1947.5,-517.5"/>
<polygon fill="#000000" stroke="#000000" points="2036.7671,-810.2041 2045.4668,-816.8798 2041.6336,-811.352 2046.5,-812.5 2046.5,-812.5 2046.5,-812.5 2041.6336,-811.352 2047.5332,-808.1202 2036.7671,-810.2041 2036.7671,-810.2041"/>
<text text-anchor="start" x="1990.3345" y="-796.5" font-family="Arial" font-size="10.00" fill="#000000">FOREIGN KEY (class_id) REFERENCES classes (id)</text>
</g>
<!-- users -->
<g id="node5" class="node">
<title>users</title>
<polygon fill="#efefef" stroke="transparent" points="2054.5,-532.5 2054.5,-567.5 2256.5,-567.5 2256.5,-532.5 2054.5,-532.5"/>
<polygon fill="none" stroke="#000000" points="2054.5,-532.5 2054.5,-567.5 2256.5,-567.5 2256.5,-532.5 2054.5,-532.5"/>
<text text-anchor="start" x="2084.8708" y="-545.3" font-family="Arial Bold" font-size="18.00" fill="#000000">users</text>
<text text-anchor="start" x="2128.8754" y="-545.3" font-family="Arial" font-size="14.00" fill="#000000"> </text>
<text text-anchor="start" x="2132.766" y="-545.3" font-family="Arial" font-size="14.00" fill="#666666">[BASE TABLE]</text>
<polygon fill="none" stroke="#000000" points="2054.5,-502.5 2054.5,-532.5 2256.5,-532.5 2256.5,-502.5 2054.5,-502.5"/>
<text text-anchor="start" x="2061.5" y="-513.9" font-family="Arial" font-size="14.00" fill="#000000">id </text>
<text text-anchor="start" x="2076.2798" y="-513.9" font-family="Arial" font-size="14.00" fill="#666666">[char(36)]</text>
<polygon fill="none" stroke="#000000" points="2054.5,-472.5 2054.5,-502.5 2256.5,-502.5 2256.5,-472.5 2054.5,-472.5"/>
<text text-anchor="start" x="2061.5" y="-483.9" font-family="Arial" font-size="14.00" fill="#000000">name </text>
<text text-anchor="start" x="2100.399" y="-483.9" font-family="Arial" font-size="14.00" fill="#666666">[varchar(255)]</text>
<polygon fill="none" stroke="#000000" points="2054.5,-442.5 2054.5,-472.5 2256.5,-472.5 2256.5,-442.5 2054.5,-442.5"/>
<text text-anchor="start" x="2061.5" y="-453.9" font-family="Arial" font-size="14.00" fill="#000000">mail_address </text>
<text text-anchor="start" x="2148.6206" y="-453.9" font-family="Arial" font-size="14.00" fill="#666666">[varchar(255)]</text>
<polygon fill="none" stroke="#000000" points="2054.5,-412.5 2054.5,-442.5 2256.5,-442.5 2256.5,-412.5 2054.5,-412.5"/>
<text text-anchor="start" x="2061.3668" y="-423.9" font-family="Arial" font-size="14.00" fill="#000000">hashed_password </text>
<text text-anchor="start" x="2178.8506" y="-423.9" font-family="Arial" font-size="14.00" fill="#666666">[binary(60)]</text>
<polygon fill="none" stroke="#000000" points="2054.5,-382.5 2054.5,-412.5 2256.5,-412.5 2256.5,-382.5 2054.5,-382.5"/>
<text text-anchor="start" x="2061.5" y="-393.9" font-family="Arial" font-size="14.00" fill="#000000">type </text>
<text text-anchor="start" x="2091.8464" y="-393.9" font-family="Arial" font-size="14.00" fill="#666666">[enum(&#39;student&#39;,&#39;faculty&#39;)]</text>
</g>
<!-- attendances&#45;&gt;users -->
<g id="edge4" class="edge">
<title>attendances:user_id&#45;&gt;users:id</title>
<path fill="none" stroke="#000000" d="M2265.6636,-780.8756C2290.8243,-771.5363 2274.8654,-724.0815 2255.5,-695 2201.8363,-614.412 2108.1637,-691.588 2054.5,-611 2031.4674,-576.4115 2012.9444,-517.5 2054.5,-517.5"/>
<polygon fill="#000000" stroke="#000000" points="2265.3747,-780.9217 2254.7898,-778.0564 2260.4373,-781.7108 2255.5,-782.5 2255.5,-782.5 2255.5,-782.5 2260.4373,-781.7108 2256.2102,-786.9436 2265.3747,-780.9217 2265.3747,-780.9217"/>
<text text-anchor="start" x="2262.445" y="-792.5" font-family="Arial" font-size="10.00" fill="#000000">FOREIGN KEY (user_id) REFERENCES users (id)</text>
</g>
<!-- documents -->
<g id="node6" class="node">
<title>documents</title>
<polygon fill="#efefef" stroke="transparent" points="1736.5,-842.5 1736.5,-877.5 1935.5,-877.5 1935.5,-842.5 1736.5,-842.5"/>
<polygon fill="none" stroke="#000000" points="1736.5,-842.5 1736.5,-877.5 1935.5,-877.5 1935.5,-842.5 1736.5,-842.5"/>
<text text-anchor="start" x="1743.3604" y="-855.3" font-family="Arial Bold" font-size="18.00" fill="#000000">documents</text>
<text text-anchor="start" x="1831.3858" y="-855.3" font-family="Arial" font-size="14.00" fill="#000000"> </text>
<text text-anchor="start" x="1835.2764" y="-855.3" font-family="Arial" font-size="14.00" fill="#666666">[BASE TABLE]</text>
<polygon fill="none" stroke="#000000" points="1736.5,-812.5 1736.5,-842.5 1935.5,-842.5 1935.5,-812.5 1736.5,-812.5"/>
<text text-anchor="start" x="1743.5" y="-823.9" font-family="Arial" font-size="14.00" fill="#000000">id </text>
<text text-anchor="start" x="1758.2798" y="-823.9" font-family="Arial" font-size="14.00" fill="#666666">[char(36)]</text>
<polygon fill="none" stroke="#000000" points="1736.5,-782.5 1736.5,-812.5 1935.5,-812.5 1935.5,-782.5 1736.5,-782.5"/>
<text text-anchor="start" x="1743.5" y="-793.9" font-family="Arial" font-size="14.00" fill="#000000">class_id </text>
<text text-anchor="start" x="1797.9516" y="-793.9" font-family="Arial" font-size="14.00" fill="#666666">[char(36)]</text>
<polygon fill="none" stroke="#000000" points="1736.5,-752.5 1736.5,-782.5 1935.5,-782.5 1935.5,-752.5 1736.5,-752.5"/>
<text text-anchor="start" x="1743.5" y="-763.9" font-family="Arial" font-size="14.00" fill="#000000">name </text>
<text text-anchor="start" x="1782.399" y="-763.9" font-family="Arial" font-size="14.00" fill="#666666">[text]</text>
<polygon fill="none" stroke="#000000" points="1736.5,-722.5 1736.5,-752.5 1935.5,-752.5 1935.5,-722.5 1736.5,-722.5"/>
<text text-anchor="start" x="1743.5" y="-733.9" font-family="Arial" font-size="14.00" fill="#000000">created_at </text>
<text text-anchor="start" x="1813.528" y="-733.9" font-family="Arial" font-size="14.00" fill="#666666">[datetime(6)]</text>
</g>
<!-- documents&#45;&gt;classes -->
<g id="edge5" class="edge">
<title>documents:class_id&#45;&gt;classes:id</title>
<path fill="none" stroke="#000000" d="M1726.5525,-796.4192C1687.32,-787.0588 1707.7471,-719.1204 1736.5,-680 1794.6914,-600.8263 1889.3086,-693.1737 1947.5,-614 1972.9,-579.4414 1990.3889,-517.5 1947.5,-517.5"/>
<polygon fill="#000000" stroke="#000000" points="1726.5585,-796.4198 1736.0139,-801.9737 1731.5293,-796.9599 1736.5,-797.5 1736.5,-797.5 1736.5,-797.5 1731.5293,-796.9599 1736.9861,-793.0263 1726.5585,-796.4198 1726.5585,-796.4198"/>
<text text-anchor="start" x="1554.3345" y="-781.5" font-family="Arial" font-size="10.00" fill="#000000">FOREIGN KEY (class_id) REFERENCES classes (id)</text>
</g>
<!-- announcements -->
<g id="node8" class="node">
<title>announcements</title>
<polygon fill="#efefef" stroke="transparent" points="43.5,-532.5 43.5,-567.5 282.5,-567.5 282.5,-532.5 43.5,-532.5"/>
<polygon fill="none" stroke="#000000" points="43.5,-532.5 43.5,-567.5 282.5,-567.5 282.5,-532.5 43.5,-532.5"/>
<text text-anchor="start" x="50.348" y="-545.3" font-family="Arial Bold" font-size="18.00" fill="#000000">announcements</text>
<text text-anchor="start" x="178.3982" y="-545.3" font-family="Arial" font-size="14.00" fill="#000000"> </text>
<text text-anchor="start" x="182.2888" y="-545.3" font-family="Arial" font-size="14.00" fill="#666666">[BASE TABLE]</text>
<polygon fill="none" stroke="#000000" points="43.5,-502.5 43.5,-532.5 282.5,-532.5 282.5,-502.5 43.5,-502.5"/>
<text text-anchor="start" x="50.5" y="-513.9" font-family="Arial" font-size="14.00" fill="#000000">id </text>
<text text-anchor="start" x="65.2798" y="-513.9" font-family="Arial" font-size="14.00" fill="#666666">[char(36)]</text>
<polygon fill="none" stroke="#000000" points="43.5,-472.5 43.5,-502.5 282.5,-502.5 282.5,-472.5 43.5,-472.5"/>
<text text-anchor="start" x="50.5" y="-483.9" font-family="Arial" font-size="14.00" fill="#000000">course_id </text>
<text text-anchor="start" x="115.0708" y="-483.9" font-family="Arial" font-size="14.00" fill="#666666">[char(36)]</text>
<polygon fill="none" stroke="#000000" points="43.5,-442.5 43.5,-472.5 282.5,-472.5 282.5,-442.5 43.5,-442.5"/>
<text text-anchor="start" x="50.5" y="-453.9" font-family="Arial" font-size="14.00" fill="#000000">title </text>
<text text-anchor="start" x="76.1676" y="-453.9" font-family="Arial" font-size="14.00" fill="#666666">[varchar(255)]</text>
<polygon fill="none" stroke="#000000" points="43.5,-412.5 43.5,-442.5 282.5,-442.5 282.5,-412.5 43.5,-412.5"/>
<text text-anchor="start" x="50.5" y="-423.9" font-family="Arial" font-size="14.00" fill="#000000">message </text>
<text text-anchor="start" x="111.1816" y="-423.9" font-family="Arial" font-size="14.00" fill="#666666">[text]</text>
<polygon fill="none" stroke="#000000" points="43.5,-382.5 43.5,-412.5 282.5,-412.5 282.5,-382.5 43.5,-382.5"/>
<text text-anchor="start" x="50.5" y="-393.9" font-family="Arial" font-size="14.00" fill="#000000">created_at </text>
<text text-anchor="start" x="120.528" y="-393.9" font-family="Arial" font-size="14.00" fill="#666666">[datetime(6)]</text>
</g>
<!-- announcements&#45;&gt;courses -->
<g id="edge7" class="edge">
<title>announcements:course_id&#45;&gt;courses:id</title>
<path fill="none" stroke="#000000" d="M292.5562,-486.6704C346.1761,-476.8732 285.5234,-382.774 334.5,-337 414.7458,-262.0015 701.663,-207.5 811.5,-207.5"/>
<polygon fill="#000000" stroke="#000000" points="292.4661,-486.6778 282.13,-483.0152 287.4831,-487.0889 282.5,-487.5 282.5,-487.5 282.5,-487.5 287.4831,-487.0889 282.87,-491.9848 292.4661,-486.6778 292.4661,-486.6778"/>
<text text-anchor="start" x="159.386" y="-471.5" font-family="Arial" font-size="10.00" fill="#000000">FOREIGN KEY (course_id) REFERENCES courses (id)</text>
</g>
<!-- course_requirements -->
<g id="node9" class="node">
<title>course_requirements</title>
<polygon fill="#efefef" stroke="transparent" points="386.5,-487.5 386.5,-522.5 666.5,-522.5 666.5,-487.5 386.5,-487.5"/>
<polygon fill="none" stroke="#000000" points="386.5,-487.5 386.5,-522.5 666.5,-522.5 666.5,-487.5 386.5,-487.5"/>
<text text-anchor="start" x="393.3595" y="-500.3" font-family="Arial Bold" font-size="18.00" fill="#000000">course_requirements</text>
<text text-anchor="start" x="562.3867" y="-500.3" font-family="Arial" font-size="14.00" fill="#000000"> </text>
<text text-anchor="start" x="566.2773" y="-500.3" font-family="Arial" font-size="14.00" fill="#666666">[BASE TABLE]</text>
<polygon fill="none" stroke="#000000" points="386.5,-457.5 386.5,-487.5 666.5,-487.5 666.5,-457.5 386.5,-457.5"/>
<text text-anchor="start" x="393.5" y="-468.9" font-family="Arial" font-size="14.00" fill="#000000">course_id </text>
<text text-anchor="start" x="458.0708" y="-468.9" font-family="Arial" font-size="14.00" fill="#666666">[char(36)]</text>
<polygon fill="none" stroke="#000000" points="386.5,-427.5 386.5,-457.5 666.5,-457.5 666.5,-427.5 386.5,-427.5"/>
<text text-anchor="start" x="393.5" y="-438.9" font-family="Arial" font-size="14.00" fill="#000000">required_course_id </text>
<text text-anchor="start" x="517.1942" y="-438.9" font-family="Arial" font-size="14.00" fill="#666666">[char(36)]</text>
</g>
<!-- course_requirements&#45;&gt;courses -->
<g id="edge8" class="edge">
<title>course_requirements:course_id&#45;&gt;courses:id</title>
<path fill="none" stroke="#000000" d="M676.7666,-471.7094C726.2041,-463.3496 689.6742,-390.4472 718.5,-337 752.1367,-274.6328 740.6404,-207.5 811.5,-207.5"/>
<polygon fill="#000000" stroke="#000000" points="676.4705,-471.7321 666.1545,-468.0133 671.4852,-472.1161 666.5,-472.5 666.5,-472.5 666.5,-472.5 671.4852,-472.1161 666.8455,-476.9867 676.4705,-471.7321 676.4705,-471.7321"/>
<text text-anchor="start" x="543.386" y="-456.5" font-family="Arial" font-size="10.00" fill="#000000">FOREIGN KEY (course_id) REFERENCES courses (id)</text>
</g>
<!-- course_requirements&#45;&gt;courses -->
<g id="edge9" class="edge">
<title>course_requirements:required_course_id&#45;&gt;courses:id</title>
<path fill="none" stroke="#000000" d="M676.8811,-441.5286C715.0401,-433.5811 693.6027,-378.4998 718.5,-337 754.9541,-276.2367 740.6404,-207.5 811.5,-207.5"/>
<polygon fill="#000000" stroke="#000000" points="676.4565,-441.5683 666.0807,-438.0196 671.4783,-442.0341 666.5,-442.5 666.5,-442.5 666.5,-442.5 671.4783,-442.0341 666.9193,-446.9804 676.4565,-441.5683 676.4565,-441.5683"/>
<text text-anchor="start" x="522.2705" y="-426.5" font-family="Arial" font-size="10.00" fill="#000000">FOREIGN KEY (required_course_id) REFERENCES courses (id)</text>
</g>
<!-- course_schedules -->
<g id="node10" class="node">
<title>course_schedules</title>
<polygon fill="#efefef" stroke="transparent" points="770.5,-487.5 770.5,-522.5 1026.5,-522.5 1026.5,-487.5 770.5,-487.5"/>
<polygon fill="none" stroke="#000000" points="770.5,-487.5 770.5,-522.5 1026.5,-522.5 1026.5,-487.5 770.5,-487.5"/>
<text text-anchor="start" x="777.352" y="-500.3" font-family="Arial Bold" font-size="18.00" fill="#000000">course_schedules</text>
<text text-anchor="start" x="922.3942" y="-500.3" font-family="Arial" font-size="14.00" fill="#000000"> </text>
<text text-anchor="start" x="926.2848" y="-500.3" font-family="Arial" font-size="14.00" fill="#666666">[BASE TABLE]</text>
<polygon fill="none" stroke="#000000" points="770.5,-457.5 770.5,-487.5 1026.5,-487.5 1026.5,-457.5 770.5,-457.5"/>
<text text-anchor="start" x="777.5" y="-468.9" font-family="Arial" font-size="14.00" fill="#000000">course_id </text>
<text text-anchor="start" x="842.0708" y="-468.9" font-family="Arial" font-size="14.00" fill="#666666">[char(36)]</text>
<polygon fill="none" stroke="#000000" points="770.5,-427.5 770.5,-457.5 1026.5,-457.5 1026.5,-427.5 770.5,-427.5"/>
<text text-anchor="start" x="777.5" y="-438.9" font-family="Arial" font-size="14.00" fill="#000000">schedule_id </text>
<text text-anchor="start" x="856.082" y="-438.9" font-family="Arial" font-size="14.00" fill="#666666">[char(36)]</text>
</g>
<!-- course_schedules&#45;&gt;courses -->
<g id="edge10" class="edge">
<title>course_schedules:course_id&#45;&gt;courses:id</title>
<path fill="none" stroke="#000000" d="M1036.2358,-469.7032C1081.0566,-441.3816 1041.4816,-207.5 985.5,-207.5"/>
<polygon fill="#000000" stroke="#000000" points="1036.1113,-469.7389 1025.2575,-468.1749 1031.3056,-471.1195 1026.5,-472.5 1026.5,-472.5 1026.5,-472.5 1031.3056,-471.1195 1027.7425,-476.8251 1036.1113,-469.7389 1036.1113,-469.7389"/>
<text text-anchor="start" x="903.386" y="-456.5" font-family="Arial" font-size="10.00" fill="#000000">FOREIGN KEY (course_id) REFERENCES courses (id)</text>
</g>
<!-- grades -->
<g id="node11" class="node">
<title>grades</title>
<polygon fill="#efefef" stroke="transparent" points="1130.5,-517.5 1130.5,-552.5 1296.5,-552.5 1296.5,-517.5 1130.5,-517.5"/>
<polygon fill="none" stroke="#000000" points="1130.5,-517.5 1130.5,-552.5 1296.5,-552.5 1296.5,-517.5 1130.5,-517.5"/>
<text text-anchor="start" x="1137.3646" y="-530.3" font-family="Arial Bold" font-size="18.00" fill="#000000">grades</text>
<text text-anchor="start" x="1192.3816" y="-530.3" font-family="Arial" font-size="14.00" fill="#000000"> </text>
<text text-anchor="start" x="1196.2722" y="-530.3" font-family="Arial" font-size="14.00" fill="#666666">[BASE TABLE]</text>
<polygon fill="none" stroke="#000000" points="1130.5,-487.5 1130.5,-517.5 1296.5,-517.5 1296.5,-487.5 1130.5,-487.5"/>
<text text-anchor="start" x="1137.5" y="-498.9" font-family="Arial" font-size="14.00" fill="#000000">id </text>
<text text-anchor="start" x="1152.2798" y="-498.9" font-family="Arial" font-size="14.00" fill="#666666">[char(36)]</text>
<polygon fill="none" stroke="#000000" points="1130.5,-457.5 1130.5,-487.5 1296.5,-487.5 1296.5,-457.5 1130.5,-457.5"/>
<text text-anchor="start" x="1137.5" y="-468.9" font-family="Arial" font-size="14.00" fill="#000000">user_id </text>
<text text-anchor="start" x="1187.2882" y="-468.9" font-family="Arial" font-size="14.00" fill="#666666">[char(36)]</text>
<polygon fill="none" stroke="#000000" points="1130.5,-427.5 1130.5,-457.5 1296.5,-457.5 1296.5,-427.5 1130.5,-427.5"/>
<text text-anchor="start" x="1137.5" y="-438.9" font-family="Arial" font-size="14.00" fill="#000000">course_id </text>
<text text-anchor="start" x="1202.0708" y="-438.9" font-family="Arial" font-size="14.00" fill="#666666">[char(36)]</text>
<polygon fill="none" stroke="#000000" points="1130.5,-397.5 1130.5,-427.5 1296.5,-427.5 1296.5,-397.5 1130.5,-397.5"/>
<text text-anchor="start" x="1137.5" y="-408.9" font-family="Arial" font-size="14.00" fill="#000000">grade </text>
<text text-anchor="start" x="1177.1816" y="-408.9" font-family="Arial" font-size="14.00" fill="#666666">[int unsigned]</text>
</g>
<!-- grades&#45;&gt;courses -->
<g id="edge11" class="edge">
<title>grades:course_id&#45;&gt;courses:id</title>
<path fill="none" stroke="#000000" d="M1120.1189,-441.5286C1081.9599,-433.5811 1103.3973,-378.4998 1078.5,-337 1042.0459,-276.2367 1056.3596,-207.5 985.5,-207.5"/>
<polygon fill="#000000" stroke="#000000" points="1120.5435,-441.5683 1130.0807,-446.9804 1125.5217,-442.0341 1130.5,-442.5 1130.5,-442.5 1130.5,-442.5 1125.5217,-442.0341 1130.9193,-438.0196 1120.5435,-441.5683 1120.5435,-441.5683"/>
<text text-anchor="start" x="942.136" y="-426.5" font-family="Arial" font-size="10.00" fill="#000000">FOREIGN KEY (course_id) REFERENCES courses (id)</text>
</g>
<!-- registrations -->
<g id="node12" class="node">
<title>registrations</title>
<polygon fill="#efefef" stroke="transparent" points="1401.5,-517.5 1401.5,-552.5 1610.5,-552.5 1610.5,-517.5 1401.5,-517.5"/>
<polygon fill="none" stroke="#000000" points="1401.5,-517.5 1401.5,-552.5 1610.5,-552.5 1610.5,-517.5 1401.5,-517.5"/>
<text text-anchor="start" x="1408.369" y="-530.3" font-family="Arial Bold" font-size="18.00" fill="#000000">registrations</text>
<text text-anchor="start" x="1506.3772" y="-530.3" font-family="Arial" font-size="14.00" fill="#000000"> </text>
<text text-anchor="start" x="1510.2678" y="-530.3" font-family="Arial" font-size="14.00" fill="#666666">[BASE TABLE]</text>
<polygon fill="none" stroke="#000000" points="1401.5,-487.5 1401.5,-517.5 1610.5,-517.5 1610.5,-487.5 1401.5,-487.5"/>
<text text-anchor="start" x="1408.5" y="-498.9" font-family="Arial" font-size="14.00" fill="#000000">course_id </text>
<text text-anchor="start" x="1473.0708" y="-498.9" font-family="Arial" font-size="14.00" fill="#666666">[char(36)]</text>
<polygon fill="none" stroke="#000000" points="1401.5,-457.5 1401.5,-487.5 1610.5,-487.5 1610.5,-457.5 1401.5,-457.5"/>
<text text-anchor="start" x="1408.5" y="-468.9" font-family="Arial" font-size="14.00" fill="#000000">user_id </text>
<text text-anchor="start" x="1458.2882" y="-468.9" font-family="Arial" font-size="14.00" fill="#666666">[char(36)]</text>
<polygon fill="none" stroke="#000000" points="1401.5,-427.5 1401.5,-457.5 1610.5,-457.5 1610.5,-427.5 1401.5,-427.5"/>
<text text-anchor="start" x="1408.5" y="-438.9" font-family="Arial" font-size="14.00" fill="#000000">created_at </text>
<text text-anchor="start" x="1478.528" y="-438.9" font-family="Arial" font-size="14.00" fill="#666666">[datetime(6)]</text>
<polygon fill="none" stroke="#000000" points="1401.5,-397.5 1401.5,-427.5 1610.5,-427.5 1610.5,-397.5 1401.5,-397.5"/>
<text text-anchor="start" x="1408.5" y="-408.9" font-family="Arial" font-size="14.00" fill="#000000">delete_at </text>
<text text-anchor="start" x="1469.974" y="-408.9" font-family="Arial" font-size="14.00" fill="#666666">[datetime(6)]</text>
</g>
<!-- registrations&#45;&gt;courses -->
<g id="edge12" class="edge">
<title>registrations:course_id&#45;&gt;courses:id</title>
<path fill="none" stroke="#000000" d="M1391.2628,-501.7324C1331.5629,-491.8878 1399.5893,-389.7906 1348.5,-337 1229.3777,-213.9108 1156.7924,-207.5 985.5,-207.5"/>
<polygon fill="#000000" stroke="#000000" points="1391.528,-501.7522 1401.1635,-506.9874 1396.514,-502.1261 1401.5,-502.5 1401.5,-502.5 1401.5,-502.5 1396.514,-502.1261 1401.8365,-498.0126 1391.528,-501.7522 1391.528,-501.7522"/>
<text text-anchor="start" x="1408.886" y="-512.5" font-family="Arial" font-size="10.00" fill="#000000">FOREIGN KEY (course_id) REFERENCES courses (id)</text>
</g>
</g>
</svg>
