<?xml version="1.0" encoding="UTF-8" standalone="no"?>
<!DOCTYPE svg PUBLIC "-//W3C//DTD SVG 1.1//EN"
 "http://www.w3.org/Graphics/SVG/1.1/DTD/svg11.dtd">
<!-- Generated by graphviz version 2.40.1 (20161225.0304)
 -->
<!-- Title: classes Pages: 1 -->
<svg width="743pt" height="1199pt"
 viewBox="0.00 0.00 743.00 1199.00" xmlns="http://www.w3.org/2000/svg" xmlns:xlink="http://www.w3.org/1999/xlink">
<g id="graph0" class="graph" transform="scale(1 1) rotate(0) translate(4 1195)">
<title>classes</title>
<polygon fill="#ffffff" stroke="transparent" points="-4,4 -4,-1195 739,-1195 739,4 -4,4"/>
<!-- classes -->
<g id="node1" class="node">
<title>classes</title>
<polygon fill="#efefef" stroke="transparent" points="261,-772.5 261,-807.5 495,-807.5 495,-772.5 261,-772.5"/>
<polygon fill="none" stroke="#000000" points="261,-772.5 261,-807.5 495,-807.5 495,-772.5 261,-772.5"/>
<text text-anchor="start" x="299.3698" y="-785.3" font-family="Arial Bold" font-size="18.00" fill="#000000">classes</text>
<text text-anchor="start" x="359.3764" y="-785.3" font-family="Arial" font-size="14.00" fill="#000000"> </text>
<text text-anchor="start" x="363.267" y="-785.3" font-family="Arial" font-size="14.00" fill="#666666">[BASE TABLE]</text>
<polygon fill="none" stroke="#000000" points="261,-742.5 261,-772.5 495,-772.5 495,-742.5 261,-742.5"/>
<text text-anchor="start" x="268" y="-753.9" font-family="Arial" font-size="14.00" fill="#000000">id </text>
<text text-anchor="start" x="282.7798" y="-753.9" font-family="Arial" font-size="14.00" fill="#666666">[char(36)]</text>
<polygon fill="none" stroke="#000000" points="261,-712.5 261,-742.5 495,-742.5 495,-712.5 261,-712.5"/>
<text text-anchor="start" x="268" y="-723.9" font-family="Arial" font-size="14.00" fill="#000000">course_id </text>
<text text-anchor="start" x="332.5708" y="-723.9" font-family="Arial" font-size="14.00" fill="#666666">[char(36)]</text>
<polygon fill="none" stroke="#000000" points="261,-682.5 261,-712.5 495,-712.5 495,-682.5 261,-682.5"/>
<text text-anchor="start" x="268" y="-693.9" font-family="Arial" font-size="14.00" fill="#000000">part </text>
<text text-anchor="start" x="296.007" y="-693.9" font-family="Arial" font-size="14.00" fill="#666666">[tinyint unsigned]</text>
<polygon fill="none" stroke="#000000" points="261,-652.5 261,-682.5 495,-682.5 495,-652.5 261,-652.5"/>
<text text-anchor="start" x="268" y="-663.9" font-family="Arial" font-size="14.00" fill="#000000">title </text>
<text text-anchor="start" x="293.6676" y="-663.9" font-family="Arial" font-size="14.00" fill="#666666">[varchar(255)]</text>
<polygon fill="none" stroke="#000000" points="261,-622.5 261,-652.5 495,-652.5 495,-622.5 261,-622.5"/>
<text text-anchor="start" x="268" y="-633.9" font-family="Arial" font-size="14.00" fill="#000000">description </text>
<text text-anchor="start" x="339.568" y="-633.9" font-family="Arial" font-size="14.00" fill="#666666">[text]</text>
<polygon fill="none" stroke="#000000" points="261,-592.5 261,-622.5 495,-622.5 495,-592.5 261,-592.5"/>
<text text-anchor="start" x="268" y="-603.9" font-family="Arial" font-size="14.00" fill="#000000">created_at </text>
<text text-anchor="start" x="338.028" y="-603.9" font-family="Arial" font-size="14.00" fill="#666666">[datetime(6)]</text>
<polygon fill="none" stroke="#000000" points="261,-562.5 261,-592.5 495,-592.5 495,-562.5 261,-562.5"/>
<text text-anchor="start" x="267.9243" y="-573.9" font-family="Arial" font-size="14.00" fill="#000000">submission_closed_at </text>
<text text-anchor="start" x="409.5119" y="-573.9" font-family="Arial" font-size="14.00" fill="#666666">[datetime(6)]</text>
<polygon fill="none" stroke="#000000" stroke-width="3" points="259.5,-561.5 259.5,-809.5 496.5,-809.5 496.5,-561.5 259.5,-561.5"/>
</g>
<!-- courses -->
<g id="node3" class="node">
<title>courses</title>
<polygon fill="#efefef" stroke="transparent" points="90,-402.5 90,-437.5 665,-437.5 665,-402.5 90,-402.5"/>
<polygon fill="none" stroke="#000000" points="90,-402.5 90,-437.5 665,-437.5 665,-402.5 90,-402.5"/>
<text text-anchor="start" x="297.3677" y="-415.3" font-family="Arial Bold" font-size="18.00" fill="#000000">courses</text>
<text text-anchor="start" x="360.3785" y="-415.3" font-family="Arial" font-size="14.00" fill="#000000"> </text>
<text text-anchor="start" x="364.2691" y="-415.3" font-family="Arial" font-size="14.00" fill="#666666">[BASE TABLE]</text>
<polygon fill="none" stroke="#000000" points="90,-372.5 90,-402.5 665,-402.5 665,-372.5 90,-372.5"/>
<text text-anchor="start" x="97" y="-383.9" font-family="Arial" font-size="14.00" fill="#000000">id </text>
<text text-anchor="start" x="111.7798" y="-383.9" font-family="Arial" font-size="14.00" fill="#666666">[char(36)]</text>
<polygon fill="none" stroke="#000000" points="90,-342.5 90,-372.5 665,-372.5 665,-342.5 90,-342.5"/>
<text text-anchor="start" x="97" y="-353.9" font-family="Arial" font-size="14.00" fill="#000000">code </text>
<text text-anchor="start" x="131.2384" y="-353.9" font-family="Arial" font-size="14.00" fill="#666666">[varchar(255)]</text>
<polygon fill="none" stroke="#000000" points="90,-312.5 90,-342.5 665,-342.5 665,-312.5 90,-312.5"/>
<text text-anchor="start" x="97" y="-323.9" font-family="Arial" font-size="14.00" fill="#000000">type </text>
<text text-anchor="start" x="127.3464" y="-323.9" font-family="Arial" font-size="14.00" fill="#666666">[enum(&#39;liberal&#45;arts&#39;,&#39;major&#45;subjects&#39;)]</text>
<polygon fill="none" stroke="#000000" points="90,-282.5 90,-312.5 665,-312.5 665,-282.5 90,-282.5"/>
<text text-anchor="start" x="97" y="-293.9" font-family="Arial" font-size="14.00" fill="#000000">name </text>
<text text-anchor="start" x="135.899" y="-293.9" font-family="Arial" font-size="14.00" fill="#666666">[varchar(255)]</text>
<polygon fill="none" stroke="#000000" points="90,-252.5 90,-282.5 665,-282.5 665,-252.5 90,-252.5"/>
<text text-anchor="start" x="97" y="-263.9" font-family="Arial" font-size="14.00" fill="#000000">description </text>
<text text-anchor="start" x="168.568" y="-263.9" font-family="Arial" font-size="14.00" fill="#666666">[text]</text>
<polygon fill="none" stroke="#000000" points="90,-222.5 90,-252.5 665,-252.5 665,-222.5 90,-222.5"/>
<text text-anchor="start" x="97" y="-233.9" font-family="Arial" font-size="14.00" fill="#000000">credit </text>
<text text-anchor="start" x="135.1136" y="-233.9" font-family="Arial" font-size="14.00" fill="#666666">[tinyint unsigned]</text>
<polygon fill="none" stroke="#000000" points="90,-192.5 90,-222.5 665,-222.5 665,-192.5 90,-192.5"/>
<text text-anchor="start" x="97" y="-203.9" font-family="Arial" font-size="14.00" fill="#000000">period </text>
<text text-anchor="start" x="139.7882" y="-203.9" font-family="Arial" font-size="14.00" fill="#666666">[tinyint unsigned]</text>
<polygon fill="none" stroke="#000000" points="90,-162.5 90,-192.5 665,-192.5 665,-162.5 90,-162.5"/>
<text text-anchor="start" x="96.7762" y="-173.9" font-family="Arial" font-size="14.00" fill="#000000">day_of_week </text>
<text text-anchor="start" x="183.1422" y="-173.9" font-family="Arial" font-size="14.00" fill="#666666">[enum(&#39;sunday&#39;,&#39;monday&#39;,&#39;tuesday&#39;,&#39;wednesday&#39;,&#39;thursday&#39;,&#39;friday&#39;,&#39;saturday&#39;)]</text>
<polygon fill="none" stroke="#000000" points="90,-132.5 90,-162.5 665,-162.5 665,-132.5 90,-132.5"/>
<text text-anchor="start" x="97" y="-143.9" font-family="Arial" font-size="14.00" fill="#000000">teacher_id </text>
<text text-anchor="start" x="166.244" y="-143.9" font-family="Arial" font-size="14.00" fill="#666666">[char(36)]</text>
<polygon fill="none" stroke="#000000" points="90,-102.5 90,-132.5 665,-132.5 665,-102.5 90,-102.5"/>
<text text-anchor="start" x="97" y="-113.9" font-family="Arial" font-size="14.00" fill="#000000">keywords </text>
<text text-anchor="start" x="160.0056" y="-113.9" font-family="Arial" font-size="14.00" fill="#666666">[text]</text>
<polygon fill="none" stroke="#000000" points="90,-72.5 90,-102.5 665,-102.5 665,-72.5 90,-72.5"/>
<text text-anchor="start" x="97" y="-83.9" font-family="Arial" font-size="14.00" fill="#000000">status </text>
<text text-anchor="start" x="138.237" y="-83.9" font-family="Arial" font-size="14.00" fill="#666666">[enum(&#39;registration&#39;,&#39;in&#45;progress&#39;,&#39;closed&#39;)]</text>
<polygon fill="none" stroke="#000000" points="90,-42.5 90,-72.5 665,-72.5 665,-42.5 90,-42.5"/>
<text text-anchor="start" x="97" y="-53.9" font-family="Arial" font-size="14.00" fill="#000000">created_at </text>
<text text-anchor="start" x="167.028" y="-53.9" font-family="Arial" font-size="14.00" fill="#666666">[datetime(6)]</text>
</g>
<!-- classes&#45;&gt;courses -->
<g id="edge2" class="edge">
<title>classes:course_id&#45;&gt;courses:id</title>
<path fill="none" stroke="#000000" d="M250.5985,-726.8651C169.8699,-716.558 200.317,-583.3308 261,-517 321.8399,-450.4977 604.1601,-547.5023 665,-481 693.0499,-450.3395 706.5556,-387.5 665,-387.5"/>
<polygon fill="#000000" stroke="#000000" points="251.0186,-726.8907 260.7258,-731.9916 256.0093,-727.1953 261,-727.5 261,-727.5 261,-727.5 256.0093,-727.1953 261.2742,-723.0084 251.0186,-726.8907 251.0186,-726.8907"/>
<text text-anchor="start" x="7.386" y="-737.5" font-family="Arial" font-size="10.00" fill="#000000">FOREIGN KEY (course_id) REFERENCES courses (id)</text>
</g>
<!-- submissions -->
<g id="node2" class="node">
<title>submissions</title>
<polygon fill="#efefef" stroke="transparent" points="273,-1112.5 273,-1147.5 483,-1147.5 483,-1112.5 273,-1112.5"/>
<polygon fill="none" stroke="#000000" points="273,-1112.5 273,-1147.5 483,-1147.5 483,-1112.5 273,-1112.5"/>
<text text-anchor="start" x="279.8704" y="-1125.3" font-family="Arial Bold" font-size="18.00" fill="#000000">submissions</text>
<text text-anchor="start" x="378.8758" y="-1125.3" font-family="Arial" font-size="14.00" fill="#000000"> </text>
<text text-anchor="start" x="382.7664" y="-1125.3" font-family="Arial" font-size="14.00" fill="#666666">[BASE TABLE]</text>
<polygon fill="none" stroke="#000000" points="273,-1082.5 273,-1112.5 483,-1112.5 483,-1082.5 273,-1082.5"/>
<text text-anchor="start" x="280" y="-1093.9" font-family="Arial" font-size="14.00" fill="#000000">id </text>
<text text-anchor="start" x="294.7798" y="-1093.9" font-family="Arial" font-size="14.00" fill="#666666">[char(36)]</text>
<polygon fill="none" stroke="#000000" points="273,-1052.5 273,-1082.5 483,-1082.5 483,-1052.5 273,-1052.5"/>
<text text-anchor="start" x="280" y="-1063.9" font-family="Arial" font-size="14.00" fill="#000000">user_id </text>
<text text-anchor="start" x="329.7882" y="-1063.9" font-family="Arial" font-size="14.00" fill="#666666">[char(36)]</text>
<polygon fill="none" stroke="#000000" points="273,-1022.5 273,-1052.5 483,-1052.5 483,-1022.5 273,-1022.5"/>
<text text-anchor="start" x="280" y="-1033.9" font-family="Arial" font-size="14.00" fill="#000000">class_id </text>
<text text-anchor="start" x="334.4516" y="-1033.9" font-family="Arial" font-size="14.00" fill="#666666">[char(36)]</text>
<polygon fill="none" stroke="#000000" points="273,-992.5 273,-1022.5 483,-1022.5 483,-992.5 273,-992.5"/>
<text text-anchor="start" x="280" y="-1003.9" font-family="Arial" font-size="14.00" fill="#000000">name </text>
<text text-anchor="start" x="318.899" y="-1003.9" font-family="Arial" font-size="14.00" fill="#666666">[varchar(255)]</text>
<polygon fill="none" stroke="#000000" points="273,-962.5 273,-992.5 483,-992.5 483,-962.5 273,-962.5"/>
<text text-anchor="start" x="280" y="-973.9" font-family="Arial" font-size="14.00" fill="#000000">score </text>
<text text-anchor="start" x="318.1164" y="-973.9" font-family="Arial" font-size="14.00" fill="#666666">[tinyint unsigned]</text>
<polygon fill="none" stroke="#000000" points="273,-932.5 273,-962.5 483,-962.5 483,-932.5 273,-932.5"/>
<text text-anchor="start" x="280" y="-943.9" font-family="Arial" font-size="14.00" fill="#000000">created_at </text>
<text text-anchor="start" x="350.028" y="-943.9" font-family="Arial" font-size="14.00" fill="#666666">[datetime(6)]</text>
</g>
<!-- submissions&#45;&gt;classes -->
<g id="edge1" class="edge">
<title>submissions:class_id&#45;&gt;classes:id</title>
<path fill="none" stroke="#000000" d="M493.3112,-1036.839C608.1288,-1021.8652 616.0311,-757.5 495,-757.5"/>
<polygon fill="#000000" stroke="#000000" points="492.9795,-1036.8602 482.7121,-1033.0092 487.9898,-1037.1801 483,-1037.5 483,-1037.5 483,-1037.5 487.9898,-1037.1801 483.2879,-1041.9908 492.9795,-1036.8602 492.9795,-1036.8602"/>
<text text-anchor="start" x="489.8345" y="-1047.5" font-family="Arial" font-size="10.00" fill="#000000">FOREIGN KEY (class_id) REFERENCES classes (id)</text>
</g>
</g>
</svg>
