<?xml version="1.0" encoding="UTF-8" standalone="no"?>
<!DOCTYPE svg PUBLIC "-//W3C//DTD SVG 1.1//EN"
 "http://www.w3.org/Graphics/SVG/1.1/DTD/svg11.dtd">
<!-- Generated by graphviz version 2.40.1 (20161225.0304)
 -->
<!-- Title: classes Pages: 1 -->
<svg width="1111pt" height="616pt"
 viewBox="0.00 0.00 1110.50 616.00" xmlns="http://www.w3.org/2000/svg" xmlns:xlink="http://www.w3.org/1999/xlink">
<g id="graph0" class="graph" transform="scale(1 1) rotate(0) translate(4 612)">
<title>classes</title>
<polygon fill="#ffffff" stroke="transparent" points="-4,4 -4,-612 1106.5,-612 1106.5,4 -4,4"/>
<!-- classes -->
<g id="node1" class="node">
<title>classes</title>
<polygon fill="#efefef" stroke="transparent" points="364.5,-177.5 364.5,-212.5 535.5,-212.5 535.5,-177.5 364.5,-177.5"/>
<polygon fill="none" stroke="#000000" points="364.5,-177.5 364.5,-212.5 535.5,-212.5 535.5,-177.5 364.5,-177.5"/>
<text text-anchor="start" x="371.3698" y="-190.3" font-family="Arial Bold" font-size="18.00" fill="#000000">classes</text>
<text text-anchor="start" x="431.3764" y="-190.3" font-family="Arial" font-size="14.00" fill="#000000"> </text>
<text text-anchor="start" x="435.267" y="-190.3" font-family="Arial" font-size="14.00" fill="#666666">[BASE TABLE]</text>
<polygon fill="none" stroke="#000000" points="364.5,-147.5 364.5,-177.5 535.5,-177.5 535.5,-147.5 364.5,-147.5"/>
<text text-anchor="start" x="371.5" y="-158.9" font-family="Arial" font-size="14.00" fill="#000000">id </text>
<text text-anchor="start" x="386.2798" y="-158.9" font-family="Arial" font-size="14.00" fill="#666666">[char(36)]</text>
<polygon fill="none" stroke="#000000" points="364.5,-117.5 364.5,-147.5 535.5,-147.5 535.5,-117.5 364.5,-117.5"/>
<text text-anchor="start" x="371.5" y="-128.9" font-family="Arial" font-size="14.00" fill="#000000">title </text>
<text text-anchor="start" x="397.1676" y="-128.9" font-family="Arial" font-size="14.00" fill="#666666">[varchar(255)]</text>
<polygon fill="none" stroke="#000000" points="364.5,-87.5 364.5,-117.5 535.5,-117.5 535.5,-87.5 364.5,-87.5"/>
<text text-anchor="start" x="371.5" y="-98.9" font-family="Arial" font-size="14.00" fill="#000000">description </text>
<text text-anchor="start" x="443.068" y="-98.9" font-family="Arial" font-size="14.00" fill="#666666">[text]</text>
<polygon fill="none" stroke="#000000" points="364.5,-57.5 364.5,-87.5 535.5,-87.5 535.5,-57.5 364.5,-57.5"/>
<text text-anchor="start" x="371.5" y="-68.9" font-family="Arial" font-size="14.00" fill="#000000">attendance_code </text>
<text text-anchor="start" x="482.7804" y="-68.9" font-family="Arial" font-size="14.00" fill="#666666">[tinyint]</text>
<polygon fill="none" stroke="#000000" stroke-width="3" points="362.5,-56.5 362.5,-214.5 536.5,-214.5 536.5,-56.5 362.5,-56.5"/>
</g>
<!-- assignment -->
<g id="node2" class="node">
<title>assignment</title>
<polygon fill="#efefef" stroke="transparent" points="43.5,-529.5 43.5,-564.5 246.5,-564.5 246.5,-529.5 43.5,-529.5"/>
<polygon fill="none" stroke="#000000" points="43.5,-529.5 43.5,-564.5 246.5,-564.5 246.5,-529.5 43.5,-529.5"/>
<text text-anchor="start" x="50.3633" y="-542.3" font-family="Arial Bold" font-size="18.00" fill="#000000">assignment</text>
<text text-anchor="start" x="142.3829" y="-542.3" font-family="Arial" font-size="14.00" fill="#000000"> </text>
<text text-anchor="start" x="146.2735" y="-542.3" font-family="Arial" font-size="14.00" fill="#666666">[BASE TABLE]</text>
<polygon fill="none" stroke="#000000" points="43.5,-499.5 43.5,-529.5 246.5,-529.5 246.5,-499.5 43.5,-499.5"/>
<text text-anchor="start" x="50.5" y="-510.9" font-family="Arial" font-size="14.00" fill="#000000">id </text>
<text text-anchor="start" x="65.2798" y="-510.9" font-family="Arial" font-size="14.00" fill="#666666">[char(36)]</text>
<polygon fill="none" stroke="#000000" points="43.5,-469.5 43.5,-499.5 246.5,-499.5 246.5,-469.5 43.5,-469.5"/>
<text text-anchor="start" x="50.5" y="-480.9" font-family="Arial" font-size="14.00" fill="#000000">class_id </text>
<text text-anchor="start" x="104.9516" y="-480.9" font-family="Arial" font-size="14.00" fill="#666666">[char(36)]</text>
<polygon fill="none" stroke="#000000" points="43.5,-439.5 43.5,-469.5 246.5,-469.5 246.5,-439.5 43.5,-439.5"/>
<text text-anchor="start" x="50.5" y="-450.9" font-family="Arial" font-size="14.00" fill="#000000">name </text>
<text text-anchor="start" x="89.399" y="-450.9" font-family="Arial" font-size="14.00" fill="#666666">[varchar(255)]</text>
<polygon fill="none" stroke="#000000" points="43.5,-409.5 43.5,-439.5 246.5,-439.5 246.5,-409.5 43.5,-409.5"/>
<text text-anchor="start" x="50.5" y="-420.9" font-family="Arial" font-size="14.00" fill="#000000">description </text>
<text text-anchor="start" x="122.068" y="-420.9" font-family="Arial" font-size="14.00" fill="#666666">[text]</text>
<polygon fill="none" stroke="#000000" points="43.5,-379.5 43.5,-409.5 246.5,-409.5 246.5,-379.5 43.5,-379.5"/>
<text text-anchor="start" x="50.5" y="-390.9" font-family="Arial" font-size="14.00" fill="#000000">deadline </text>
<text text-anchor="start" x="107.2994" y="-390.9" font-family="Arial" font-size="14.00" fill="#666666">[datetime(6)]</text>
<polygon fill="none" stroke="#000000" points="43.5,-349.5 43.5,-379.5 246.5,-379.5 246.5,-349.5 43.5,-349.5"/>
<text text-anchor="start" x="50.5" y="-360.9" font-family="Arial" font-size="14.00" fill="#000000">created_at </text>
<text text-anchor="start" x="120.528" y="-360.9" font-family="Arial" font-size="14.00" fill="#666666">[datetime(6)]</text>
</g>
<!-- assignment&#45;&gt;classes -->
<g id="edge1" class="edge">
<title>assignment:class_id&#45;&gt;classes:id</title>
<path fill="none" stroke="#000000" d="M256.7238,-483.9023C323.3898,-475.5101 270.1061,-380.4514 297.5,-307 322.2369,-240.6728 293.7101,-162.5 364.5,-162.5"/>
<polygon fill="#000000" stroke="#000000" points="256.483,-483.9163 246.2373,-480.0077 251.4915,-484.2081 246.5,-484.5 246.5,-484.5 246.5,-484.5 251.4915,-484.2081 246.7627,-488.9923 256.483,-483.9163 256.483,-483.9163"/>
<text text-anchor="start" x="127.3345" y="-468.5" font-family="Arial" font-size="10.00" fill="#000000">FOREIGN KEY (class_id) REFERENCES classes (id)</text>
</g>
<!-- attendances -->
<g id="node3" class="node">
<title>attendances</title>
<polygon fill="#efefef" stroke="transparent" points="653.5,-484.5 653.5,-519.5 862.5,-519.5 862.5,-484.5 653.5,-484.5"/>
<polygon fill="none" stroke="#000000" points="653.5,-484.5 653.5,-519.5 862.5,-519.5 862.5,-484.5 653.5,-484.5"/>
<text text-anchor="start" x="660.3492" y="-497.3" font-family="Arial Bold" font-size="18.00" fill="#000000">attendances</text>
<text text-anchor="start" x="758.397" y="-497.3" font-family="Arial" font-size="14.00" fill="#000000"> </text>
<text text-anchor="start" x="762.2876" y="-497.3" font-family="Arial" font-size="14.00" fill="#666666">[BASE TABLE]</text>
<polygon fill="none" stroke="#000000" points="653.5,-454.5 653.5,-484.5 862.5,-484.5 862.5,-454.5 653.5,-454.5"/>
<text text-anchor="start" x="660.5" y="-465.9" font-family="Arial" font-size="14.00" fill="#000000">class_id </text>
<text text-anchor="start" x="714.9516" y="-465.9" font-family="Arial" font-size="14.00" fill="#666666">[char(36)]</text>
<polygon fill="none" stroke="#000000" points="653.5,-424.5 653.5,-454.5 862.5,-454.5 862.5,-424.5 653.5,-424.5"/>
<text text-anchor="start" x="660.5" y="-435.9" font-family="Arial" font-size="14.00" fill="#000000">user_id </text>
<text text-anchor="start" x="710.2882" y="-435.9" font-family="Arial" font-size="14.00" fill="#666666">[char(36)]</text>
<polygon fill="none" stroke="#000000" points="653.5,-394.5 653.5,-424.5 862.5,-424.5 862.5,-394.5 653.5,-394.5"/>
<text text-anchor="start" x="660.5" y="-405.9" font-family="Arial" font-size="14.00" fill="#000000">created_at </text>
<text text-anchor="start" x="730.528" y="-405.9" font-family="Arial" font-size="14.00" fill="#666666">[datetime(6)]</text>
</g>
<!-- attendances&#45;&gt;classes -->
<g id="edge2" class="edge">
<title>attendances:class_id&#45;&gt;classes:id</title>
<path fill="none" stroke="#000000" d="M643.2519,-468.8576C582.2666,-460.5997 626.5614,-374.3937 600.5,-307 575.101,-241.3193 605.9206,-162.5 535.5,-162.5"/>
<polygon fill="#000000" stroke="#000000" points="643.5196,-468.8743 653.2184,-473.9912 648.5098,-469.1871 653.5,-469.5 653.5,-469.5 653.5,-469.5 648.5098,-469.1871 653.7816,-465.0088 643.5196,-468.8743 643.5196,-468.8743"/>
<text text-anchor="start" x="660.3345" y="-479.5" font-family="Arial" font-size="10.00" fill="#000000">FOREIGN KEY (class_id) REFERENCES classes (id)</text>
</g>
<!-- users -->
<g id="node4" class="node">
<title>users</title>
<polygon fill="#efefef" stroke="transparent" points="657.5,-192.5 657.5,-227.5 859.5,-227.5 859.5,-192.5 657.5,-192.5"/>
<polygon fill="none" stroke="#000000" points="657.5,-192.5 657.5,-227.5 859.5,-227.5 859.5,-192.5 657.5,-192.5"/>
<text text-anchor="start" x="687.8708" y="-205.3" font-family="Arial Bold" font-size="18.00" fill="#000000">users</text>
<text text-anchor="start" x="731.8754" y="-205.3" font-family="Arial" font-size="14.00" fill="#000000"> </text>
<text text-anchor="start" x="735.766" y="-205.3" font-family="Arial" font-size="14.00" fill="#666666">[BASE TABLE]</text>
<polygon fill="none" stroke="#000000" points="657.5,-162.5 657.5,-192.5 859.5,-192.5 859.5,-162.5 657.5,-162.5"/>
<text text-anchor="start" x="664.5" y="-173.9" font-family="Arial" font-size="14.00" fill="#000000">id </text>
<text text-anchor="start" x="679.2798" y="-173.9" font-family="Arial" font-size="14.00" fill="#666666">[char(36)]</text>
<polygon fill="none" stroke="#000000" points="657.5,-132.5 657.5,-162.5 859.5,-162.5 859.5,-132.5 657.5,-132.5"/>
<text text-anchor="start" x="664.5" y="-143.9" font-family="Arial" font-size="14.00" fill="#000000">name </text>
<text text-anchor="start" x="703.399" y="-143.9" font-family="Arial" font-size="14.00" fill="#666666">[varchar(255)]</text>
<polygon fill="none" stroke="#000000" points="657.5,-102.5 657.5,-132.5 859.5,-132.5 859.5,-102.5 657.5,-102.5"/>
<text text-anchor="start" x="664.5" y="-113.9" font-family="Arial" font-size="14.00" fill="#000000">mail_address </text>
<text text-anchor="start" x="751.6206" y="-113.9" font-family="Arial" font-size="14.00" fill="#666666">[varchar(255)]</text>
<polygon fill="none" stroke="#000000" points="657.5,-72.5 657.5,-102.5 859.5,-102.5 859.5,-72.5 657.5,-72.5"/>
<text text-anchor="start" x="664.3668" y="-83.9" font-family="Arial" font-size="14.00" fill="#000000">hashed_password </text>
<text text-anchor="start" x="781.8506" y="-83.9" font-family="Arial" font-size="14.00" fill="#666666">[binary(60)]</text>
<polygon fill="none" stroke="#000000" points="657.5,-42.5 657.5,-72.5 859.5,-72.5 859.5,-42.5 657.5,-42.5"/>
<text text-anchor="start" x="664.5" y="-53.9" font-family="Arial" font-size="14.00" fill="#000000">type </text>
<text text-anchor="start" x="694.8464" y="-53.9" font-family="Arial" font-size="14.00" fill="#666666">[enum(&#39;student&#39;,&#39;faculty&#39;)]</text>
</g>
<!-- attendances&#45;&gt;users -->
<g id="edge3" class="edge">
<title>attendances:user_id&#45;&gt;users:id</title>
<path fill="none" stroke="#000000" d="M872.6724,-437.8697C897.8819,-428.4975 882.1488,-380.8907 862.5,-352 807.407,-270.9939 712.593,-352.0061 657.5,-271 634.1303,-236.6383 615.9444,-177.5 657.5,-177.5"/>
<polygon fill="#000000" stroke="#000000" points="872.374,-437.9174 861.7878,-435.0567 867.437,-438.7087 862.5,-439.5 862.5,-439.5 862.5,-439.5 867.437,-438.7087 863.2122,-443.9433 872.374,-437.9174 872.374,-437.9174"/>
<text text-anchor="start" x="869.445" y="-449.5" font-family="Arial" font-size="10.00" fill="#000000">FOREIGN KEY (user_id) REFERENCES users (id)</text>
</g>
<!-- documents -->
<g id="node5" class="node">
<title>documents</title>
<polygon fill="#efefef" stroke="transparent" points="350.5,-499.5 350.5,-534.5 549.5,-534.5 549.5,-499.5 350.5,-499.5"/>
<polygon fill="none" stroke="#000000" points="350.5,-499.5 350.5,-534.5 549.5,-534.5 549.5,-499.5 350.5,-499.5"/>
<text text-anchor="start" x="357.3604" y="-512.3" font-family="Arial Bold" font-size="18.00" fill="#000000">documents</text>
<text text-anchor="start" x="445.3858" y="-512.3" font-family="Arial" font-size="14.00" fill="#000000"> </text>
<text text-anchor="start" x="449.2764" y="-512.3" font-family="Arial" font-size="14.00" fill="#666666">[BASE TABLE]</text>
<polygon fill="none" stroke="#000000" points="350.5,-469.5 350.5,-499.5 549.5,-499.5 549.5,-469.5 350.5,-469.5"/>
<text text-anchor="start" x="357.5" y="-480.9" font-family="Arial" font-size="14.00" fill="#000000">id </text>
<text text-anchor="start" x="372.2798" y="-480.9" font-family="Arial" font-size="14.00" fill="#666666">[char(36)]</text>
<polygon fill="none" stroke="#000000" points="350.5,-439.5 350.5,-469.5 549.5,-469.5 549.5,-439.5 350.5,-439.5"/>
<text text-anchor="start" x="357.5" y="-450.9" font-family="Arial" font-size="14.00" fill="#000000">class_id </text>
<text text-anchor="start" x="411.9516" y="-450.9" font-family="Arial" font-size="14.00" fill="#666666">[char(36)]</text>
<polygon fill="none" stroke="#000000" points="350.5,-409.5 350.5,-439.5 549.5,-439.5 549.5,-409.5 350.5,-409.5"/>
<text text-anchor="start" x="357.5" y="-420.9" font-family="Arial" font-size="14.00" fill="#000000">name </text>
<text text-anchor="start" x="396.399" y="-420.9" font-family="Arial" font-size="14.00" fill="#666666">[text]</text>
<polygon fill="none" stroke="#000000" points="350.5,-379.5 350.5,-409.5 549.5,-409.5 549.5,-379.5 350.5,-379.5"/>
<text text-anchor="start" x="357.5" y="-390.9" font-family="Arial" font-size="14.00" fill="#000000">created_at </text>
<text text-anchor="start" x="427.528" y="-390.9" font-family="Arial" font-size="14.00" fill="#666666">[datetime(6)]</text>
</g>
<!-- documents&#45;&gt;classes -->
<g id="edge4" class="edge">
<title>documents:class_id&#45;&gt;classes:id</title>
<path fill="none" stroke="#000000" d="M340.5458,-451.9756C287.2202,-423.4358 303.0893,-162.5 364.5,-162.5"/>
<polygon fill="#000000" stroke="#000000" points="340.8068,-452.0418 349.3938,-458.8619 345.6534,-453.2709 350.5,-454.5 350.5,-454.5 350.5,-454.5 345.6534,-453.2709 351.6062,-450.1381 340.8068,-452.0418 340.8068,-452.0418"/>
<text text-anchor="start" x="105.3345" y="-438.5" font-family="Arial" font-size="10.00" fill="#000000">FOREIGN KEY (class_id) REFERENCES classes (id)</text>
</g>
</g>
</svg>
