<?xml version="1.0" encoding="UTF-8" standalone="no"?>
<!DOCTYPE svg PUBLIC "-//W3C//DTD SVG 1.1//EN"
 "http://www.w3.org/Graphics/SVG/1.1/DTD/svg11.dtd">
<!-- Generated by graphviz version 2.40.1 (20161225.0304)
 -->
<!-- Title: classes Pages: 1 -->
<svg width="933pt" height="1049pt"
 viewBox="0.00 0.00 933.00 1049.00" xmlns="http://www.w3.org/2000/svg" xmlns:xlink="http://www.w3.org/1999/xlink">
<g id="graph0" class="graph" transform="scale(1 1) rotate(0) translate(4 1045)">
<title>classes</title>
<polygon fill="#ffffff" stroke="transparent" points="-4,4 -4,-1045 929,-1045 929,4 -4,4"/>
<!-- classes -->
<g id="node1" class="node">
<title>classes</title>
<polygon fill="#efefef" stroke="transparent" points="359,-652.5 359,-687.5 571,-687.5 571,-652.5 359,-652.5"/>
<polygon fill="none" stroke="#000000" points="359,-652.5 359,-687.5 571,-687.5 571,-652.5 359,-652.5"/>
<text text-anchor="start" x="386.3698" y="-665.3" font-family="Arial Bold" font-size="18.00" fill="#000000">classes</text>
<text text-anchor="start" x="446.3764" y="-665.3" font-family="Arial" font-size="14.00" fill="#000000"> </text>
<text text-anchor="start" x="450.267" y="-665.3" font-family="Arial" font-size="14.00" fill="#666666">[BASE TABLE]</text>
<polygon fill="none" stroke="#000000" points="359,-622.5 359,-652.5 571,-652.5 571,-622.5 359,-622.5"/>
<text text-anchor="start" x="366" y="-633.9" font-family="Arial" font-size="14.00" fill="#000000">id </text>
<text text-anchor="start" x="380.7798" y="-633.9" font-family="Arial" font-size="14.00" fill="#666666">[char(36)]</text>
<polygon fill="none" stroke="#000000" points="359,-592.5 359,-622.5 571,-622.5 571,-592.5 359,-592.5"/>
<text text-anchor="start" x="366" y="-603.9" font-family="Arial" font-size="14.00" fill="#000000">course_id </text>
<text text-anchor="start" x="430.5708" y="-603.9" font-family="Arial" font-size="14.00" fill="#666666">[char(36)]</text>
<polygon fill="none" stroke="#000000" points="359,-562.5 359,-592.5 571,-592.5 571,-562.5 359,-562.5"/>
<text text-anchor="start" x="366" y="-573.9" font-family="Arial" font-size="14.00" fill="#000000">title </text>
<text text-anchor="start" x="391.6676" y="-573.9" font-family="Arial" font-size="14.00" fill="#666666">[varchar(255)]</text>
<polygon fill="none" stroke="#000000" points="359,-532.5 359,-562.5 571,-562.5 571,-532.5 359,-532.5"/>
<text text-anchor="start" x="366" y="-543.9" font-family="Arial" font-size="14.00" fill="#000000">description </text>
<text text-anchor="start" x="437.568" y="-543.9" font-family="Arial" font-size="14.00" fill="#666666">[text]</text>
<polygon fill="none" stroke="#000000" points="359,-502.5 359,-532.5 571,-532.5 571,-502.5 359,-502.5"/>
<text text-anchor="start" x="365.8002" y="-513.9" font-family="Arial" font-size="14.00" fill="#000000">attendance_code </text>
<text text-anchor="start" x="477.0806" y="-513.9" font-family="Arial" font-size="14.00" fill="#666666">[varchar(255)]</text>
<polygon fill="none" stroke="#000000" stroke-width="3" points="357.5,-501.5 357.5,-689.5 572.5,-689.5 572.5,-501.5 357.5,-501.5"/>
</g>
<!-- courses -->
<g id="node5" class="node">
<title>courses</title>
<polygon fill="#efefef" stroke="transparent" points="330,-342.5 330,-377.5 599,-377.5 599,-342.5 330,-342.5"/>
<polygon fill="none" stroke="#000000" points="330,-342.5 330,-377.5 599,-377.5 599,-342.5 330,-342.5"/>
<text text-anchor="start" x="384.3677" y="-355.3" font-family="Arial Bold" font-size="18.00" fill="#000000">courses</text>
<text text-anchor="start" x="447.3785" y="-355.3" font-family="Arial" font-size="14.00" fill="#000000"> </text>
<text text-anchor="start" x="451.2691" y="-355.3" font-family="Arial" font-size="14.00" fill="#666666">[BASE TABLE]</text>
<polygon fill="none" stroke="#000000" points="330,-312.5 330,-342.5 599,-342.5 599,-312.5 330,-312.5"/>
<text text-anchor="start" x="337" y="-323.9" font-family="Arial" font-size="14.00" fill="#000000">id </text>
<text text-anchor="start" x="351.7798" y="-323.9" font-family="Arial" font-size="14.00" fill="#666666">[char(36)]</text>
<polygon fill="none" stroke="#000000" points="330,-282.5 330,-312.5 599,-312.5 599,-282.5 330,-282.5"/>
<text text-anchor="start" x="337" y="-293.9" font-family="Arial" font-size="14.00" fill="#000000">code </text>
<text text-anchor="start" x="371.2384" y="-293.9" font-family="Arial" font-size="14.00" fill="#666666">[varchar(255)]</text>
<polygon fill="none" stroke="#000000" points="330,-252.5 330,-282.5 599,-282.5 599,-252.5 330,-252.5"/>
<text text-anchor="start" x="336.9803" y="-263.9" font-family="Arial" font-size="14.00" fill="#000000">type </text>
<text text-anchor="start" x="367.3267" y="-263.9" font-family="Arial" font-size="14.00" fill="#666666">[enum(&#39;liberal&#45;arts&#39;,&#39;major&#45;subjects&#39;)]</text>
<polygon fill="none" stroke="#000000" points="330,-222.5 330,-252.5 599,-252.5 599,-222.5 330,-222.5"/>
<text text-anchor="start" x="337" y="-233.9" font-family="Arial" font-size="14.00" fill="#000000">name </text>
<text text-anchor="start" x="375.899" y="-233.9" font-family="Arial" font-size="14.00" fill="#666666">[varchar(255)]</text>
<polygon fill="none" stroke="#000000" points="330,-192.5 330,-222.5 599,-222.5 599,-192.5 330,-192.5"/>
<text text-anchor="start" x="337" y="-203.9" font-family="Arial" font-size="14.00" fill="#000000">description </text>
<text text-anchor="start" x="408.568" y="-203.9" font-family="Arial" font-size="14.00" fill="#666666">[text]</text>
<polygon fill="none" stroke="#000000" points="330,-162.5 330,-192.5 599,-192.5 599,-162.5 330,-162.5"/>
<text text-anchor="start" x="337" y="-173.9" font-family="Arial" font-size="14.00" fill="#000000">credit </text>
<text text-anchor="start" x="375.1136" y="-173.9" font-family="Arial" font-size="14.00" fill="#666666">[tinyint unsigned]</text>
<polygon fill="none" stroke="#000000" points="330,-132.5 330,-162.5 599,-162.5 599,-132.5 330,-132.5"/>
<text text-anchor="start" x="337" y="-143.9" font-family="Arial" font-size="14.00" fill="#000000">classroom </text>
<text text-anchor="start" x="404.6662" y="-143.9" font-family="Arial" font-size="14.00" fill="#666666">[varchar(255)]</text>
<polygon fill="none" stroke="#000000" points="330,-102.5 330,-132.5 599,-132.5 599,-102.5 330,-102.5"/>
<text text-anchor="start" x="337" y="-113.9" font-family="Arial" font-size="14.00" fill="#000000">capacity </text>
<text text-anchor="start" x="392.2356" y="-113.9" font-family="Arial" font-size="14.00" fill="#666666">[int unsigned]</text>
<polygon fill="none" stroke="#000000" points="330,-72.5 330,-102.5 599,-102.5 599,-72.5 330,-72.5"/>
<text text-anchor="start" x="337" y="-83.9" font-family="Arial" font-size="14.00" fill="#000000">teacher_id </text>
<text text-anchor="start" x="406.244" y="-83.9" font-family="Arial" font-size="14.00" fill="#666666">[char(36)]</text>
<polygon fill="none" stroke="#000000" points="330,-42.5 330,-72.5 599,-72.5 599,-42.5 330,-42.5"/>
<text text-anchor="start" x="337" y="-53.9" font-family="Arial" font-size="14.00" fill="#000000">keywords </text>
<text text-anchor="start" x="400.0056" y="-53.9" font-family="Arial" font-size="14.00" fill="#666666">[text]</text>
</g>
<!-- classes&#45;&gt;courses -->
<g id="edge4" class="edge">
<title>classes:course_id&#45;&gt;courses:id</title>
<path fill="none" stroke="#000000" d="M348.8233,-606.6288C294.714,-596.7296 317.7383,-504.9126 359,-457 429.3847,-375.2701 528.6153,-502.7299 599,-421 626.1173,-389.5117 640.5556,-327.5 599,-327.5"/>
<polygon fill="#000000" stroke="#000000" points="349.0364,-606.647 358.6161,-611.9836 354.0182,-607.0735 359,-607.5 359,-607.5 359,-607.5 354.0182,-607.0735 359.3839,-603.0164 349.0364,-606.647 349.0364,-606.647"/>
<text text-anchor="start" x="105.386" y="-617.5" font-family="Arial" font-size="10.00" fill="#000000">FOREIGN KEY (course_id) REFERENCES courses (id)</text>
</g>
<!-- assignments -->
<g id="node2" class="node">
<title>assignments</title>
<polygon fill="#efefef" stroke="transparent" points="43,-962.5 43,-997.5 255,-997.5 255,-962.5 43,-962.5"/>
<polygon fill="none" stroke="#000000" points="43,-962.5 43,-997.5 255,-997.5 255,-962.5 43,-962.5"/>
<text text-anchor="start" x="49.8633" y="-975.3" font-family="Arial Bold" font-size="18.00" fill="#000000">assignments</text>
<text text-anchor="start" x="150.8829" y="-975.3" font-family="Arial" font-size="14.00" fill="#000000"> </text>
<text text-anchor="start" x="154.7735" y="-975.3" font-family="Arial" font-size="14.00" fill="#666666">[BASE TABLE]</text>
<polygon fill="none" stroke="#000000" points="43,-932.5 43,-962.5 255,-962.5 255,-932.5 43,-932.5"/>
<text text-anchor="start" x="50" y="-943.9" font-family="Arial" font-size="14.00" fill="#000000">id </text>
<text text-anchor="start" x="64.7798" y="-943.9" font-family="Arial" font-size="14.00" fill="#666666">[char(36)]</text>
<polygon fill="none" stroke="#000000" points="43,-902.5 43,-932.5 255,-932.5 255,-902.5 43,-902.5"/>
<text text-anchor="start" x="50" y="-913.9" font-family="Arial" font-size="14.00" fill="#000000">class_id </text>
<text text-anchor="start" x="104.4516" y="-913.9" font-family="Arial" font-size="14.00" fill="#666666">[char(36)]</text>
<polygon fill="none" stroke="#000000" points="43,-872.5 43,-902.5 255,-902.5 255,-872.5 43,-872.5"/>
<text text-anchor="start" x="50" y="-883.9" font-family="Arial" font-size="14.00" fill="#000000">name </text>
<text text-anchor="start" x="88.899" y="-883.9" font-family="Arial" font-size="14.00" fill="#666666">[varchar(255)]</text>
<polygon fill="none" stroke="#000000" points="43,-842.5 43,-872.5 255,-872.5 255,-842.5 43,-842.5"/>
<text text-anchor="start" x="50" y="-853.9" font-family="Arial" font-size="14.00" fill="#000000">description </text>
<text text-anchor="start" x="121.568" y="-853.9" font-family="Arial" font-size="14.00" fill="#666666">[text]</text>
<polygon fill="none" stroke="#000000" points="43,-812.5 43,-842.5 255,-842.5 255,-812.5 43,-812.5"/>
<text text-anchor="start" x="50" y="-823.9" font-family="Arial" font-size="14.00" fill="#000000">created_at </text>
<text text-anchor="start" x="120.028" y="-823.9" font-family="Arial" font-size="14.00" fill="#666666">[datetime(6)]</text>
</g>
<!-- assignments&#45;&gt;classes -->
<g id="edge1" class="edge">
<title>assignments:class_id&#45;&gt;classes:id</title>
<path fill="none" stroke="#000000" d="M265.0944,-916.8275C320.2887,-908.8615 284.0229,-831.7054 307,-770 329.0757,-710.7152 295.7384,-637.5 359,-637.5"/>
<polygon fill="#000000" stroke="#000000" points="264.9779,-916.8352 254.7008,-913.01 259.9889,-917.1676 255,-917.5 255,-917.5 255,-917.5 259.9889,-917.1676 255.2992,-921.99 264.9779,-916.8352 264.9779,-916.8352"/>
<text text-anchor="start" x="261.8345" y="-927.5" font-family="Arial" font-size="10.00" fill="#000000">FOREIGN KEY (class_id) REFERENCES classes (id)</text>
</g>
<!-- attendances -->
<g id="node3" class="node">
<title>attendances</title>
<polygon fill="#efefef" stroke="transparent" points="360,-932.5 360,-967.5 569,-967.5 569,-932.5 360,-932.5"/>
<polygon fill="none" stroke="#000000" points="360,-932.5 360,-967.5 569,-967.5 569,-932.5 360,-932.5"/>
<text text-anchor="start" x="366.8492" y="-945.3" font-family="Arial Bold" font-size="18.00" fill="#000000">attendances</text>
<text text-anchor="start" x="464.897" y="-945.3" font-family="Arial" font-size="14.00" fill="#000000"> </text>
<text text-anchor="start" x="468.7876" y="-945.3" font-family="Arial" font-size="14.00" fill="#666666">[BASE TABLE]</text>
<polygon fill="none" stroke="#000000" points="360,-902.5 360,-932.5 569,-932.5 569,-902.5 360,-902.5"/>
<text text-anchor="start" x="367" y="-913.9" font-family="Arial" font-size="14.00" fill="#000000">class_id </text>
<text text-anchor="start" x="421.4516" y="-913.9" font-family="Arial" font-size="14.00" fill="#666666">[char(36)]</text>
<polygon fill="none" stroke="#000000" points="360,-872.5 360,-902.5 569,-902.5 569,-872.5 360,-872.5"/>
<text text-anchor="start" x="367" y="-883.9" font-family="Arial" font-size="14.00" fill="#000000">user_id </text>
<text text-anchor="start" x="416.7882" y="-883.9" font-family="Arial" font-size="14.00" fill="#666666">[char(36)]</text>
<polygon fill="none" stroke="#000000" points="360,-842.5 360,-872.5 569,-872.5 569,-842.5 360,-842.5"/>
<text text-anchor="start" x="367" y="-853.9" font-family="Arial" font-size="14.00" fill="#000000">created_at </text>
<text text-anchor="start" x="437.028" y="-853.9" font-family="Arial" font-size="14.00" fill="#666666">[datetime(6)]</text>
</g>
<!-- attendances&#45;&gt;classes -->
<g id="edge2" class="edge">
<title>attendances:class_id&#45;&gt;classes:id</title>
<path fill="none" stroke="#000000" d="M578.9471,-916.4195C618.1763,-907.0615 597.7263,-839.1399 569,-800 511.1133,-721.1287 416.8867,-812.8713 359,-734 333.6234,-699.4242 316.1111,-637.5 359,-637.5"/>
<polygon fill="#000000" stroke="#000000" points="578.9415,-916.42 568.514,-913.0263 573.9708,-916.96 569,-917.5 569,-917.5 569,-917.5 573.9708,-916.96 569.486,-921.9737 578.9415,-916.42 578.9415,-916.42"/>
<text text-anchor="start" x="575.8345" y="-927.5" font-family="Arial" font-size="10.00" fill="#000000">FOREIGN KEY (class_id) REFERENCES classes (id)</text>
</g>
<!-- documents -->
<g id="node4" class="node">
<title>documents</title>
<polygon fill="#efefef" stroke="transparent" points="673,-947.5 673,-982.5 872,-982.5 872,-947.5 673,-947.5"/>
<polygon fill="none" stroke="#000000" points="673,-947.5 673,-982.5 872,-982.5 872,-947.5 673,-947.5"/>
<text text-anchor="start" x="679.8604" y="-960.3" font-family="Arial Bold" font-size="18.00" fill="#000000">documents</text>
<text text-anchor="start" x="767.8858" y="-960.3" font-family="Arial" font-size="14.00" fill="#000000"> </text>
<text text-anchor="start" x="771.7764" y="-960.3" font-family="Arial" font-size="14.00" fill="#666666">[BASE TABLE]</text>
<polygon fill="none" stroke="#000000" points="673,-917.5 673,-947.5 872,-947.5 872,-917.5 673,-917.5"/>
<text text-anchor="start" x="680" y="-928.9" font-family="Arial" font-size="14.00" fill="#000000">id </text>
<text text-anchor="start" x="694.7798" y="-928.9" font-family="Arial" font-size="14.00" fill="#666666">[char(36)]</text>
<polygon fill="none" stroke="#000000" points="673,-887.5 673,-917.5 872,-917.5 872,-887.5 673,-887.5"/>
<text text-anchor="start" x="680" y="-898.9" font-family="Arial" font-size="14.00" fill="#000000">class_id </text>
<text text-anchor="start" x="734.4516" y="-898.9" font-family="Arial" font-size="14.00" fill="#666666">[char(36)]</text>
<polygon fill="none" stroke="#000000" points="673,-857.5 673,-887.5 872,-887.5 872,-857.5 673,-857.5"/>
<text text-anchor="start" x="680" y="-868.9" font-family="Arial" font-size="14.00" fill="#000000">name </text>
<text text-anchor="start" x="718.899" y="-868.9" font-family="Arial" font-size="14.00" fill="#666666">[text]</text>
<polygon fill="none" stroke="#000000" points="673,-827.5 673,-857.5 872,-857.5 872,-827.5 673,-827.5"/>
<text text-anchor="start" x="680" y="-838.9" font-family="Arial" font-size="14.00" fill="#000000">created_at </text>
<text text-anchor="start" x="750.028" y="-838.9" font-family="Arial" font-size="14.00" fill="#666666">[datetime(6)]</text>
</g>
<!-- documents&#45;&gt;classes -->
<g id="edge3" class="edge">
<title>documents:class_id&#45;&gt;classes:id</title>
<path fill="none" stroke="#000000" d="M663.0863,-900.0458C612.3609,-873.3306 630.5265,-637.5 571,-637.5"/>
<polygon fill="#000000" stroke="#000000" points="663.293,-900.0969 671.9186,-906.8681 668.1465,-901.2985 673,-902.5 673,-902.5 673,-902.5 668.1465,-901.2985 674.0814,-898.1319 663.293,-900.0969 663.293,-900.0969"/>
<text text-anchor="start" x="679.8345" y="-886.5" font-family="Arial" font-size="10.00" fill="#000000">FOREIGN KEY (class_id) REFERENCES classes (id)</text>
</g>
</g>
</svg>
