<?xml version="1.0" encoding="UTF-8" standalone="no"?>
<!DOCTYPE svg PUBLIC "-//W3C//DTD SVG 1.1//EN"
 "http://www.w3.org/Graphics/SVG/1.1/DTD/svg11.dtd">
<!-- Generated by graphviz version 2.40.1 (20161225.0304)
 -->
<!-- Title: classes Pages: 1 -->
<svg width="923pt" height="959pt"
 viewBox="0.00 0.00 922.50 959.00" xmlns="http://www.w3.org/2000/svg" xmlns:xlink="http://www.w3.org/1999/xlink">
<g id="graph0" class="graph" transform="scale(1 1) rotate(0) translate(4 955)">
<title>classes</title>
<polygon fill="#ffffff" stroke="transparent" points="-4,4 -4,-955 918.5,-955 918.5,4 -4,4"/>
<!-- classes -->
<g id="node1" class="node">
<title>classes</title>
<polygon fill="#efefef" stroke="transparent" points="359,-532.5 359,-567.5 571,-567.5 571,-532.5 359,-532.5"/>
<polygon fill="none" stroke="#000000" points="359,-532.5 359,-567.5 571,-567.5 571,-532.5 359,-532.5"/>
<text text-anchor="start" x="386.3698" y="-545.3" font-family="Arial Bold" font-size="18.00" fill="#000000">classes</text>
<text text-anchor="start" x="446.3764" y="-545.3" font-family="Arial" font-size="14.00" fill="#000000"> </text>
<text text-anchor="start" x="450.267" y="-545.3" font-family="Arial" font-size="14.00" fill="#666666">[BASE TABLE]</text>
<polygon fill="none" stroke="#000000" points="359,-502.5 359,-532.5 571,-532.5 571,-502.5 359,-502.5"/>
<text text-anchor="start" x="366" y="-513.9" font-family="Arial" font-size="14.00" fill="#000000">id </text>
<text text-anchor="start" x="380.7798" y="-513.9" font-family="Arial" font-size="14.00" fill="#666666">[char(36)]</text>
<polygon fill="none" stroke="#000000" points="359,-472.5 359,-502.5 571,-502.5 571,-472.5 359,-472.5"/>
<text text-anchor="start" x="366" y="-483.9" font-family="Arial" font-size="14.00" fill="#000000">course_id </text>
<text text-anchor="start" x="430.5708" y="-483.9" font-family="Arial" font-size="14.00" fill="#666666">[char(36)]</text>
<polygon fill="none" stroke="#000000" points="359,-442.5 359,-472.5 571,-472.5 571,-442.5 359,-442.5"/>
<text text-anchor="start" x="366" y="-453.9" font-family="Arial" font-size="14.00" fill="#000000">title </text>
<text text-anchor="start" x="391.6676" y="-453.9" font-family="Arial" font-size="14.00" fill="#666666">[varchar(255)]</text>
<polygon fill="none" stroke="#000000" points="359,-412.5 359,-442.5 571,-442.5 571,-412.5 359,-412.5"/>
<text text-anchor="start" x="366" y="-423.9" font-family="Arial" font-size="14.00" fill="#000000">description </text>
<text text-anchor="start" x="437.568" y="-423.9" font-family="Arial" font-size="14.00" fill="#666666">[text]</text>
<polygon fill="none" stroke="#000000" points="359,-382.5 359,-412.5 571,-412.5 571,-382.5 359,-382.5"/>
<text text-anchor="start" x="365.8002" y="-393.9" font-family="Arial" font-size="14.00" fill="#000000">attendance_code </text>
<text text-anchor="start" x="477.0806" y="-393.9" font-family="Arial" font-size="14.00" fill="#666666">[varchar(255)]</text>
<polygon fill="none" stroke="#000000" stroke-width="3" points="357.5,-381.5 357.5,-569.5 572.5,-569.5 572.5,-381.5 357.5,-381.5"/>
</g>
<!-- courses -->
<g id="node5" class="node">
<title>courses</title>
<polygon fill="#efefef" stroke="transparent" points="378,-222.5 378,-257.5 552,-257.5 552,-222.5 378,-222.5"/>
<polygon fill="none" stroke="#000000" points="378,-222.5 378,-257.5 552,-257.5 552,-222.5 378,-222.5"/>
<text text-anchor="start" x="384.8677" y="-235.3" font-family="Arial Bold" font-size="18.00" fill="#000000">courses</text>
<text text-anchor="start" x="447.8785" y="-235.3" font-family="Arial" font-size="14.00" fill="#000000"> </text>
<text text-anchor="start" x="451.7691" y="-235.3" font-family="Arial" font-size="14.00" fill="#666666">[BASE TABLE]</text>
<polygon fill="none" stroke="#000000" points="378,-192.5 378,-222.5 552,-222.5 552,-192.5 378,-192.5"/>
<text text-anchor="start" x="385" y="-203.9" font-family="Arial" font-size="14.00" fill="#000000">id </text>
<text text-anchor="start" x="399.7798" y="-203.9" font-family="Arial" font-size="14.00" fill="#666666">[char(36)]</text>
<polygon fill="none" stroke="#000000" points="378,-162.5 378,-192.5 552,-192.5 552,-162.5 378,-162.5"/>
<text text-anchor="start" x="385" y="-173.9" font-family="Arial" font-size="14.00" fill="#000000">name </text>
<text text-anchor="start" x="423.899" y="-173.9" font-family="Arial" font-size="14.00" fill="#666666">[varchar(255)]</text>
<polygon fill="none" stroke="#000000" points="378,-132.5 378,-162.5 552,-162.5 552,-132.5 378,-132.5"/>
<text text-anchor="start" x="385" y="-143.9" font-family="Arial" font-size="14.00" fill="#000000">description </text>
<text text-anchor="start" x="456.568" y="-143.9" font-family="Arial" font-size="14.00" fill="#666666">[text]</text>
<polygon fill="none" stroke="#000000" points="378,-102.5 378,-132.5 552,-132.5 552,-102.5 378,-102.5"/>
<text text-anchor="start" x="385" y="-113.9" font-family="Arial" font-size="14.00" fill="#000000">credit </text>
<text text-anchor="start" x="423.1136" y="-113.9" font-family="Arial" font-size="14.00" fill="#666666">[tinyint unsigned]</text>
<polygon fill="none" stroke="#000000" points="378,-72.5 378,-102.5 552,-102.5 552,-72.5 378,-72.5"/>
<text text-anchor="start" x="385" y="-83.9" font-family="Arial" font-size="14.00" fill="#000000">classroom </text>
<text text-anchor="start" x="452.6662" y="-83.9" font-family="Arial" font-size="14.00" fill="#666666">[varchar(255)]</text>
<polygon fill="none" stroke="#000000" points="378,-42.5 378,-72.5 552,-72.5 552,-42.5 378,-42.5"/>
<text text-anchor="start" x="385" y="-53.9" font-family="Arial" font-size="14.00" fill="#000000">capacity </text>
<text text-anchor="start" x="440.2356" y="-53.9" font-family="Arial" font-size="14.00" fill="#666666">[int unsigned]</text>
</g>
<!-- classes&#45;&gt;courses -->
<g id="edge4" class="edge">
<title>classes:course_id&#45;&gt;courses:id</title>
<path fill="none" stroke="#000000" d="M581.2523,-486.839C694.5697,-471.8652 673.1982,-207.5 552,-207.5"/>
<polygon fill="#000000" stroke="#000000" points="580.9793,-486.8565 570.7104,-483.0093 575.9896,-487.1783 571,-487.5 571,-487.5 571,-487.5 575.9896,-487.1783 571.2896,-491.9907 580.9793,-486.8565 580.9793,-486.8565"/>
<text text-anchor="start" x="578.386" y="-497.5" font-family="Arial" font-size="10.00" fill="#000000">FOREIGN KEY (course_id) REFERENCES courses (id)</text>
</g>
<!-- assignments -->
<g id="node2" class="node">
<title>assignments</title>
<polygon fill="#efefef" stroke="transparent" points="43,-872.5 43,-907.5 255,-907.5 255,-872.5 43,-872.5"/>
<polygon fill="none" stroke="#000000" points="43,-872.5 43,-907.5 255,-907.5 255,-872.5 43,-872.5"/>
<text text-anchor="start" x="49.8633" y="-885.3" font-family="Arial Bold" font-size="18.00" fill="#000000">assignments</text>
<text text-anchor="start" x="150.8829" y="-885.3" font-family="Arial" font-size="14.00" fill="#000000"> </text>
<text text-anchor="start" x="154.7735" y="-885.3" font-family="Arial" font-size="14.00" fill="#666666">[BASE TABLE]</text>
<polygon fill="none" stroke="#000000" points="43,-842.5 43,-872.5 255,-872.5 255,-842.5 43,-842.5"/>
<text text-anchor="start" x="50" y="-853.9" font-family="Arial" font-size="14.00" fill="#000000">id </text>
<text text-anchor="start" x="64.7798" y="-853.9" font-family="Arial" font-size="14.00" fill="#666666">[char(36)]</text>
<polygon fill="none" stroke="#000000" points="43,-812.5 43,-842.5 255,-842.5 255,-812.5 43,-812.5"/>
<text text-anchor="start" x="50" y="-823.9" font-family="Arial" font-size="14.00" fill="#000000">class_id </text>
<text text-anchor="start" x="104.4516" y="-823.9" font-family="Arial" font-size="14.00" fill="#666666">[char(36)]</text>
<polygon fill="none" stroke="#000000" points="43,-782.5 43,-812.5 255,-812.5 255,-782.5 43,-782.5"/>
<text text-anchor="start" x="50" y="-793.9" font-family="Arial" font-size="14.00" fill="#000000">name </text>
<text text-anchor="start" x="88.899" y="-793.9" font-family="Arial" font-size="14.00" fill="#666666">[varchar(255)]</text>
<polygon fill="none" stroke="#000000" points="43,-752.5 43,-782.5 255,-782.5 255,-752.5 43,-752.5"/>
<text text-anchor="start" x="50" y="-763.9" font-family="Arial" font-size="14.00" fill="#000000">description </text>
<text text-anchor="start" x="121.568" y="-763.9" font-family="Arial" font-size="14.00" fill="#666666">[text]</text>
<polygon fill="none" stroke="#000000" points="43,-722.5 43,-752.5 255,-752.5 255,-722.5 43,-722.5"/>
<text text-anchor="start" x="50" y="-733.9" font-family="Arial" font-size="14.00" fill="#000000">deadline </text>
<text text-anchor="start" x="106.7994" y="-733.9" font-family="Arial" font-size="14.00" fill="#666666">[datetime(6)]</text>
<polygon fill="none" stroke="#000000" points="43,-692.5 43,-722.5 255,-722.5 255,-692.5 43,-692.5"/>
<text text-anchor="start" x="50" y="-703.9" font-family="Arial" font-size="14.00" fill="#000000">created_at </text>
<text text-anchor="start" x="120.028" y="-703.9" font-family="Arial" font-size="14.00" fill="#666666">[datetime(6)]</text>
</g>
<!-- assignments&#45;&gt;classes -->
<g id="edge1" class="edge">
<title>assignments:class_id&#45;&gt;classes:id</title>
<path fill="none" stroke="#000000" d="M265.257,-826.9073C332.2695,-818.5853 281.5972,-724.2885 307,-650 327.4685,-590.1413 295.7384,-517.5 359,-517.5"/>
<polygon fill="#000000" stroke="#000000" points="264.9833,-826.9231 254.7404,-823.0075 259.9917,-827.2115 255,-827.5 255,-827.5 255,-827.5 259.9917,-827.2115 255.2596,-831.9925 264.9833,-826.9231 264.9833,-826.9231"/>
<text text-anchor="start" x="261.8345" y="-837.5" font-family="Arial" font-size="10.00" fill="#000000">FOREIGN KEY (class_id) REFERENCES classes (id)</text>
</g>
<!-- attendances -->
<g id="node3" class="node">
<title>attendances</title>
<polygon fill="#efefef" stroke="transparent" points="360,-827.5 360,-862.5 569,-862.5 569,-827.5 360,-827.5"/>
<polygon fill="none" stroke="#000000" points="360,-827.5 360,-862.5 569,-862.5 569,-827.5 360,-827.5"/>
<text text-anchor="start" x="366.8492" y="-840.3" font-family="Arial Bold" font-size="18.00" fill="#000000">attendances</text>
<text text-anchor="start" x="464.897" y="-840.3" font-family="Arial" font-size="14.00" fill="#000000"> </text>
<text text-anchor="start" x="468.7876" y="-840.3" font-family="Arial" font-size="14.00" fill="#666666">[BASE TABLE]</text>
<polygon fill="none" stroke="#000000" points="360,-797.5 360,-827.5 569,-827.5 569,-797.5 360,-797.5"/>
<text text-anchor="start" x="367" y="-808.9" font-family="Arial" font-size="14.00" fill="#000000">class_id </text>
<text text-anchor="start" x="421.4516" y="-808.9" font-family="Arial" font-size="14.00" fill="#666666">[char(36)]</text>
<polygon fill="none" stroke="#000000" points="360,-767.5 360,-797.5 569,-797.5 569,-767.5 360,-767.5"/>
<text text-anchor="start" x="367" y="-778.9" font-family="Arial" font-size="14.00" fill="#000000">user_id </text>
<text text-anchor="start" x="416.7882" y="-778.9" font-family="Arial" font-size="14.00" fill="#666666">[char(36)]</text>
<polygon fill="none" stroke="#000000" points="360,-737.5 360,-767.5 569,-767.5 569,-737.5 360,-737.5"/>
<text text-anchor="start" x="367" y="-748.9" font-family="Arial" font-size="14.00" fill="#000000">created_at </text>
<text text-anchor="start" x="437.028" y="-748.9" font-family="Arial" font-size="14.00" fill="#666666">[datetime(6)]</text>
</g>
<!-- attendances&#45;&gt;classes -->
<g id="edge2" class="edge">
<title>attendances:class_id&#45;&gt;classes:id</title>
<path fill="none" stroke="#000000" d="M579.4177,-811.3131C617.8181,-801.6234 596.3516,-734.8655 569,-695 512.4057,-612.5125 415.5943,-696.4875 359,-614 334.736,-578.6346 316.1111,-517.5 359,-517.5"/>
<polygon fill="#000000" stroke="#000000" points="578.9357,-811.368 568.4906,-808.0289 573.9679,-811.934 569,-812.5 569,-812.5 569,-812.5 573.9679,-811.934 569.5094,-816.9711 578.9357,-811.368 578.9357,-811.368"/>
<text text-anchor="start" x="449.8345" y="-796.5" font-family="Arial" font-size="10.00" fill="#000000">FOREIGN KEY (class_id) REFERENCES classes (id)</text>
</g>
<!-- documents -->
<g id="node4" class="node">
<title>documents</title>
<polygon fill="#efefef" stroke="transparent" points="673,-842.5 673,-877.5 872,-877.5 872,-842.5 673,-842.5"/>
<polygon fill="none" stroke="#000000" points="673,-842.5 673,-877.5 872,-877.5 872,-842.5 673,-842.5"/>
<text text-anchor="start" x="679.8604" y="-855.3" font-family="Arial Bold" font-size="18.00" fill="#000000">documents</text>
<text text-anchor="start" x="767.8858" y="-855.3" font-family="Arial" font-size="14.00" fill="#000000"> </text>
<text text-anchor="start" x="771.7764" y="-855.3" font-family="Arial" font-size="14.00" fill="#666666">[BASE TABLE]</text>
<polygon fill="none" stroke="#000000" points="673,-812.5 673,-842.5 872,-842.5 872,-812.5 673,-812.5"/>
<text text-anchor="start" x="680" y="-823.9" font-family="Arial" font-size="14.00" fill="#000000">id </text>
<text text-anchor="start" x="694.7798" y="-823.9" font-family="Arial" font-size="14.00" fill="#666666">[char(36)]</text>
<polygon fill="none" stroke="#000000" points="673,-782.5 673,-812.5 872,-812.5 872,-782.5 673,-782.5"/>
<text text-anchor="start" x="680" y="-793.9" font-family="Arial" font-size="14.00" fill="#000000">class_id </text>
<text text-anchor="start" x="734.4516" y="-793.9" font-family="Arial" font-size="14.00" fill="#666666">[char(36)]</text>
<polygon fill="none" stroke="#000000" points="673,-752.5 673,-782.5 872,-782.5 872,-752.5 673,-752.5"/>
<text text-anchor="start" x="680" y="-763.9" font-family="Arial" font-size="14.00" fill="#000000">name </text>
<text text-anchor="start" x="718.899" y="-763.9" font-family="Arial" font-size="14.00" fill="#666666">[text]</text>
<polygon fill="none" stroke="#000000" points="673,-722.5 673,-752.5 872,-752.5 872,-722.5 673,-722.5"/>
<text text-anchor="start" x="680" y="-733.9" font-family="Arial" font-size="14.00" fill="#000000">created_at </text>
<text text-anchor="start" x="750.028" y="-733.9" font-family="Arial" font-size="14.00" fill="#666666">[datetime(6)]</text>
</g>
<!-- documents&#45;&gt;classes -->
<g id="edge3" class="edge">
<title>documents:class_id&#45;&gt;classes:id</title>
<path fill="none" stroke="#000000" d="M662.9711,-795.0794C609.8185,-767.7124 633.6007,-517.5 571,-517.5"/>
<polygon fill="#000000" stroke="#000000" points="663.2791,-795.1537 671.9441,-801.8744 668.1396,-796.3268 673,-797.5 673,-797.5 673,-797.5 668.1396,-796.3268 674.0559,-793.1256 663.2791,-795.1537 663.2791,-795.1537"/>
<text text-anchor="start" x="490.8345" y="-781.5" font-family="Arial" font-size="10.00" fill="#000000">FOREIGN KEY (class_id) REFERENCES classes (id)</text>
</g>
</g>
</svg>
