<?xml version="1.0" encoding="UTF-8" standalone="no"?>
<!DOCTYPE svg PUBLIC "-//W3C//DTD SVG 1.1//EN"
 "http://www.w3.org/Graphics/SVG/1.1/DTD/svg11.dtd">
<!-- Generated by graphviz version 2.40.1 (20161225.0304)
 -->
<!-- Title: classes Pages: 1 -->
<svg width="708pt" height="1199pt"
 viewBox="0.00 0.00 707.50 1199.00" xmlns="http://www.w3.org/2000/svg" xmlns:xlink="http://www.w3.org/1999/xlink">
<g id="graph0" class="graph" transform="scale(1 1) rotate(0) translate(4 1195)">
<title>classes</title>
<polygon fill="#ffffff" stroke="transparent" points="-4,4 -4,-1195 703.5,-1195 703.5,4 -4,4"/>
<!-- classes -->
<g id="node1" class="node">
<title>classes</title>
<polygon fill="#efefef" stroke="transparent" points="261,-772.5 261,-807.5 478,-807.5 478,-772.5 261,-772.5"/>
<polygon fill="none" stroke="#000000" points="261,-772.5 261,-807.5 478,-807.5 478,-772.5 261,-772.5"/>
<text text-anchor="start" x="290.8698" y="-785.3" font-family="Arial Bold" font-size="18.00" fill="#000000">classes</text>
<text text-anchor="start" x="350.8764" y="-785.3" font-family="Arial" font-size="14.00" fill="#000000"> </text>
<text text-anchor="start" x="354.767" y="-785.3" font-family="Arial" font-size="14.00" fill="#666666">[BASE TABLE]</text>
<polygon fill="none" stroke="#000000" points="261,-742.5 261,-772.5 478,-772.5 478,-742.5 261,-742.5"/>
<text text-anchor="start" x="268" y="-753.9" font-family="Arial" font-size="14.00" fill="#000000">id </text>
<text text-anchor="start" x="282.7798" y="-753.9" font-family="Arial" font-size="14.00" fill="#666666">[char(36)]</text>
<polygon fill="none" stroke="#000000" points="261,-712.5 261,-742.5 478,-742.5 478,-712.5 261,-712.5"/>
<text text-anchor="start" x="268" y="-723.9" font-family="Arial" font-size="14.00" fill="#000000">course_id </text>
<text text-anchor="start" x="332.5708" y="-723.9" font-family="Arial" font-size="14.00" fill="#666666">[char(36)]</text>
<polygon fill="none" stroke="#000000" points="261,-682.5 261,-712.5 478,-712.5 478,-682.5 261,-682.5"/>
<text text-anchor="start" x="268" y="-693.9" font-family="Arial" font-size="14.00" fill="#000000">part </text>
<text text-anchor="start" x="296.007" y="-693.9" font-family="Arial" font-size="14.00" fill="#666666">[tinyint unsigned]</text>
<polygon fill="none" stroke="#000000" points="261,-652.5 261,-682.5 478,-682.5 478,-652.5 261,-652.5"/>
<text text-anchor="start" x="268" y="-663.9" font-family="Arial" font-size="14.00" fill="#000000">title </text>
<text text-anchor="start" x="293.6676" y="-663.9" font-family="Arial" font-size="14.00" fill="#666666">[varchar(255)]</text>
<polygon fill="none" stroke="#000000" points="261,-622.5 261,-652.5 478,-652.5 478,-622.5 261,-622.5"/>
<text text-anchor="start" x="268" y="-633.9" font-family="Arial" font-size="14.00" fill="#000000">description </text>
<text text-anchor="start" x="339.568" y="-633.9" font-family="Arial" font-size="14.00" fill="#666666">[text]</text>
<polygon fill="none" stroke="#000000" points="261,-592.5 261,-622.5 478,-622.5 478,-592.5 261,-592.5"/>
<text text-anchor="start" x="268" y="-603.9" font-family="Arial" font-size="14.00" fill="#000000">created_at </text>
<text text-anchor="start" x="338.028" y="-603.9" font-family="Arial" font-size="14.00" fill="#666666">[datetime]</text>
<polygon fill="none" stroke="#000000" points="261,-562.5 261,-592.5 478,-592.5 478,-562.5 261,-562.5"/>
<text text-anchor="start" x="267.9762" y="-573.9" font-family="Arial" font-size="14.00" fill="#000000">submission_closed_at </text>
<text text-anchor="start" x="409.5638" y="-573.9" font-family="Arial" font-size="14.00" fill="#666666">[datetime]</text>
<polygon fill="none" stroke="#000000" stroke-width="3" points="259,-561.5 259,-809.5 479,-809.5 479,-561.5 259,-561.5"/>
</g>
<!-- courses -->
<g id="node3" class="node">
<title>courses</title>
<polygon fill="#efefef" stroke="transparent" points="82,-402.5 82,-437.5 657,-437.5 657,-402.5 82,-402.5"/>
<polygon fill="none" stroke="#000000" points="82,-402.5 82,-437.5 657,-437.5 657,-402.5 82,-402.5"/>
<text text-anchor="start" x="289.3677" y="-415.3" font-family="Arial Bold" font-size="18.00" fill="#000000">courses</text>
<text text-anchor="start" x="352.3785" y="-415.3" font-family="Arial" font-size="14.00" fill="#000000"> </text>
<text text-anchor="start" x="356.2691" y="-415.3" font-family="Arial" font-size="14.00" fill="#666666">[BASE TABLE]</text>
<polygon fill="none" stroke="#000000" points="82,-372.5 82,-402.5 657,-402.5 657,-372.5 82,-372.5"/>
<text text-anchor="start" x="89" y="-383.9" font-family="Arial" font-size="14.00" fill="#000000">id </text>
<text text-anchor="start" x="103.7798" y="-383.9" font-family="Arial" font-size="14.00" fill="#666666">[char(36)]</text>
<polygon fill="none" stroke="#000000" points="82,-342.5 82,-372.5 657,-372.5 657,-342.5 82,-342.5"/>
<text text-anchor="start" x="89" y="-353.9" font-family="Arial" font-size="14.00" fill="#000000">code </text>
<text text-anchor="start" x="123.2384" y="-353.9" font-family="Arial" font-size="14.00" fill="#666666">[varchar(255)]</text>
<polygon fill="none" stroke="#000000" points="82,-312.5 82,-342.5 657,-342.5 657,-312.5 82,-312.5"/>
<text text-anchor="start" x="89" y="-323.9" font-family="Arial" font-size="14.00" fill="#000000">type </text>
<text text-anchor="start" x="119.3464" y="-323.9" font-family="Arial" font-size="14.00" fill="#666666">[enum(&#39;liberal&#45;arts&#39;,&#39;major&#45;subjects&#39;)]</text>
<polygon fill="none" stroke="#000000" points="82,-282.5 82,-312.5 657,-312.5 657,-282.5 82,-282.5"/>
<text text-anchor="start" x="89" y="-293.9" font-family="Arial" font-size="14.00" fill="#000000">name </text>
<text text-anchor="start" x="127.899" y="-293.9" font-family="Arial" font-size="14.00" fill="#666666">[varchar(255)]</text>
<polygon fill="none" stroke="#000000" points="82,-252.5 82,-282.5 657,-282.5 657,-252.5 82,-252.5"/>
<text text-anchor="start" x="89" y="-263.9" font-family="Arial" font-size="14.00" fill="#000000">description </text>
<text text-anchor="start" x="160.568" y="-263.9" font-family="Arial" font-size="14.00" fill="#666666">[text]</text>
<polygon fill="none" stroke="#000000" points="82,-222.5 82,-252.5 657,-252.5 657,-222.5 82,-222.5"/>
<text text-anchor="start" x="89" y="-233.9" font-family="Arial" font-size="14.00" fill="#000000">credit </text>
<text text-anchor="start" x="127.1136" y="-233.9" font-family="Arial" font-size="14.00" fill="#666666">[tinyint unsigned]</text>
<polygon fill="none" stroke="#000000" points="82,-192.5 82,-222.5 657,-222.5 657,-192.5 82,-192.5"/>
<text text-anchor="start" x="89" y="-203.9" font-family="Arial" font-size="14.00" fill="#000000">period </text>
<text text-anchor="start" x="131.7882" y="-203.9" font-family="Arial" font-size="14.00" fill="#666666">[tinyint unsigned]</text>
<polygon fill="none" stroke="#000000" points="82,-162.5 82,-192.5 657,-192.5 657,-162.5 82,-162.5"/>
<text text-anchor="start" x="88.7762" y="-173.9" font-family="Arial" font-size="14.00" fill="#000000">day_of_week </text>
<text text-anchor="start" x="175.1422" y="-173.9" font-family="Arial" font-size="14.00" fill="#666666">[enum(&#39;sunday&#39;,&#39;monday&#39;,&#39;tuesday&#39;,&#39;wednesday&#39;,&#39;thursday&#39;,&#39;friday&#39;,&#39;saturday&#39;)]</text>
<polygon fill="none" stroke="#000000" points="82,-132.5 82,-162.5 657,-162.5 657,-132.5 82,-132.5"/>
<text text-anchor="start" x="89" y="-143.9" font-family="Arial" font-size="14.00" fill="#000000">teacher_id </text>
<text text-anchor="start" x="158.244" y="-143.9" font-family="Arial" font-size="14.00" fill="#666666">[char(36)]</text>
<polygon fill="none" stroke="#000000" points="82,-102.5 82,-132.5 657,-132.5 657,-102.5 82,-102.5"/>
<text text-anchor="start" x="89" y="-113.9" font-family="Arial" font-size="14.00" fill="#000000">keywords </text>
<text text-anchor="start" x="152.0056" y="-113.9" font-family="Arial" font-size="14.00" fill="#666666">[text]</text>
<polygon fill="none" stroke="#000000" points="82,-72.5 82,-102.5 657,-102.5 657,-72.5 82,-72.5"/>
<text text-anchor="start" x="89" y="-83.9" font-family="Arial" font-size="14.00" fill="#000000">status </text>
<text text-anchor="start" x="130.237" y="-83.9" font-family="Arial" font-size="14.00" fill="#666666">[enum(&#39;registration&#39;,&#39;in&#45;progress&#39;,&#39;closed&#39;)]</text>
<polygon fill="none" stroke="#000000" points="82,-42.5 82,-72.5 657,-72.5 657,-42.5 82,-42.5"/>
<text text-anchor="start" x="89" y="-53.9" font-family="Arial" font-size="14.00" fill="#000000">created_at </text>
<text text-anchor="start" x="159.028" y="-53.9" font-family="Arial" font-size="14.00" fill="#666666">[datetime]</text>
</g>
<!-- classes&#45;&gt;courses -->
<g id="edge2" class="edge">
<title>classes:course_id&#45;&gt;courses:id</title>
<path fill="none" stroke="#000000" d="M250.8563,-726.058C162.3619,-702.0947 -.1348,-387.5 82,-387.5"/>
<polygon fill="#000000" stroke="#000000" points="251.0995,-726.0925 260.3666,-731.9552 256.0498,-726.7963 261,-727.5 261,-727.5 261,-727.5 256.0498,-726.7963 261.6334,-723.0448 251.0995,-726.0925 251.0995,-726.0925"/>
<text text-anchor="start" x="7.386" y="-737.5" font-family="Arial" font-size="10.00" fill="#000000">FOREIGN KEY (course_id) REFERENCES courses (id)</text>
</g>
<!-- submissions -->
<g id="node2" class="node">
<title>submissions</title>
<polygon fill="#efefef" stroke="transparent" points="265,-1112.5 265,-1147.5 475,-1147.5 475,-1112.5 265,-1112.5"/>
<polygon fill="none" stroke="#000000" points="265,-1112.5 265,-1147.5 475,-1147.5 475,-1112.5 265,-1112.5"/>
<text text-anchor="start" x="271.8704" y="-1125.3" font-family="Arial Bold" font-size="18.00" fill="#000000">submissions</text>
<text text-anchor="start" x="370.8758" y="-1125.3" font-family="Arial" font-size="14.00" fill="#000000"> </text>
<text text-anchor="start" x="374.7664" y="-1125.3" font-family="Arial" font-size="14.00" fill="#666666">[BASE TABLE]</text>
<polygon fill="none" stroke="#000000" points="265,-1082.5 265,-1112.5 475,-1112.5 475,-1082.5 265,-1082.5"/>
<text text-anchor="start" x="272" y="-1093.9" font-family="Arial" font-size="14.00" fill="#000000">id </text>
<text text-anchor="start" x="286.7798" y="-1093.9" font-family="Arial" font-size="14.00" fill="#666666">[char(36)]</text>
<polygon fill="none" stroke="#000000" points="265,-1052.5 265,-1082.5 475,-1082.5 475,-1052.5 265,-1052.5"/>
<text text-anchor="start" x="272" y="-1063.9" font-family="Arial" font-size="14.00" fill="#000000">user_id </text>
<text text-anchor="start" x="321.7882" y="-1063.9" font-family="Arial" font-size="14.00" fill="#666666">[char(36)]</text>
<polygon fill="none" stroke="#000000" points="265,-1022.5 265,-1052.5 475,-1052.5 475,-1022.5 265,-1022.5"/>
<text text-anchor="start" x="272" y="-1033.9" font-family="Arial" font-size="14.00" fill="#000000">class_id </text>
<text text-anchor="start" x="326.4516" y="-1033.9" font-family="Arial" font-size="14.00" fill="#666666">[char(36)]</text>
<polygon fill="none" stroke="#000000" points="265,-992.5 265,-1022.5 475,-1022.5 475,-992.5 265,-992.5"/>
<text text-anchor="start" x="272" y="-1003.9" font-family="Arial" font-size="14.00" fill="#000000">file_name </text>
<text text-anchor="start" x="336.568" y="-1003.9" font-family="Arial" font-size="14.00" fill="#666666">[varchar(255)]</text>
<polygon fill="none" stroke="#000000" points="265,-962.5 265,-992.5 475,-992.5 475,-962.5 265,-962.5"/>
<text text-anchor="start" x="272" y="-973.9" font-family="Arial" font-size="14.00" fill="#000000">score </text>
<text text-anchor="start" x="310.1164" y="-973.9" font-family="Arial" font-size="14.00" fill="#666666">[tinyint unsigned]</text>
<polygon fill="none" stroke="#000000" points="265,-932.5 265,-962.5 475,-962.5 475,-932.5 265,-932.5"/>
<text text-anchor="start" x="272" y="-943.9" font-family="Arial" font-size="14.00" fill="#000000">created_at </text>
<text text-anchor="start" x="342.028" y="-943.9" font-family="Arial" font-size="14.00" fill="#666666">[datetime]</text>
</g>
<!-- submissions&#45;&gt;classes -->
<g id="edge1" class="edge">
<title>submissions:class_id&#45;&gt;classes:id</title>
<path fill="none" stroke="#000000" d="M255.0301,-1036.6495C202.0433,-1026.9851 224.9978,-937.3304 265,-890 326.9743,-816.6722 416.0257,-927.3278 478,-854 505.6849,-821.2433 520.8889,-757.5 478,-757.5"/>
<polygon fill="#000000" stroke="#000000" points="255.0362,-1036.6499 264.6175,-1041.9837 260.0181,-1037.075 265,-1037.5 265,-1037.5 265,-1037.5 260.0181,-1037.075 265.3825,-1033.0163 255.0362,-1036.6499 255.0362,-1036.6499"/>
<text text-anchor="start" x="19.8345" y="-1047.5" font-family="Arial" font-size="10.00" fill="#000000">FOREIGN KEY (class_id) REFERENCES classes (id)</text>
</g>
</g>
</svg>
