<?xml version="1.0" encoding="UTF-8" standalone="no"?>
<!DOCTYPE svg PUBLIC "-//W3C//DTD SVG 1.1//EN"
 "http://www.w3.org/Graphics/SVG/1.1/DTD/svg11.dtd">
<!-- Generated by graphviz version 2.40.1 (20161225.0304)
 -->
<!-- Title: courses Pages: 1 -->
<svg width="1033pt" height="1169pt"
 viewBox="0.00 0.00 1033.00 1169.00" xmlns="http://www.w3.org/2000/svg" xmlns:xlink="http://www.w3.org/1999/xlink">
<g id="graph0" class="graph" transform="scale(1 1) rotate(0) translate(4 1165)">
<title>courses</title>
<polygon fill="#ffffff" stroke="transparent" points="-4,4 -4,-1165 1029,-1165 1029,4 -4,4"/>
<!-- courses -->
<g id="node1" class="node">
<title>courses</title>
<polygon fill="#efefef" stroke="transparent" points="254,-712.5 254,-747.5 829,-747.5 829,-712.5 254,-712.5"/>
<polygon fill="none" stroke="#000000" points="254,-712.5 254,-747.5 829,-747.5 829,-712.5 254,-712.5"/>
<text text-anchor="start" x="461.3677" y="-725.3" font-family="Arial Bold" font-size="18.00" fill="#000000">courses</text>
<text text-anchor="start" x="524.3785" y="-725.3" font-family="Arial" font-size="14.00" fill="#000000"> </text>
<text text-anchor="start" x="528.2691" y="-725.3" font-family="Arial" font-size="14.00" fill="#666666">[BASE TABLE]</text>
<polygon fill="none" stroke="#000000" points="254,-682.5 254,-712.5 829,-712.5 829,-682.5 254,-682.5"/>
<text text-anchor="start" x="261" y="-693.9" font-family="Arial" font-size="14.00" fill="#000000">id </text>
<text text-anchor="start" x="275.7798" y="-693.9" font-family="Arial" font-size="14.00" fill="#666666">[char(36)]</text>
<polygon fill="none" stroke="#000000" points="254,-652.5 254,-682.5 829,-682.5 829,-652.5 254,-652.5"/>
<text text-anchor="start" x="261" y="-663.9" font-family="Arial" font-size="14.00" fill="#000000">code </text>
<text text-anchor="start" x="295.2384" y="-663.9" font-family="Arial" font-size="14.00" fill="#666666">[varchar(255)]</text>
<polygon fill="none" stroke="#000000" points="254,-622.5 254,-652.5 829,-652.5 829,-622.5 254,-622.5"/>
<text text-anchor="start" x="261" y="-633.9" font-family="Arial" font-size="14.00" fill="#000000">type </text>
<text text-anchor="start" x="291.3464" y="-633.9" font-family="Arial" font-size="14.00" fill="#666666">[enum(&#39;liberal&#45;arts&#39;,&#39;major&#45;subjects&#39;)]</text>
<polygon fill="none" stroke="#000000" points="254,-592.5 254,-622.5 829,-622.5 829,-592.5 254,-592.5"/>
<text text-anchor="start" x="261" y="-603.9" font-family="Arial" font-size="14.00" fill="#000000">name </text>
<text text-anchor="start" x="299.899" y="-603.9" font-family="Arial" font-size="14.00" fill="#666666">[varchar(255)]</text>
<polygon fill="none" stroke="#000000" points="254,-562.5 254,-592.5 829,-592.5 829,-562.5 254,-562.5"/>
<text text-anchor="start" x="261" y="-573.9" font-family="Arial" font-size="14.00" fill="#000000">description </text>
<text text-anchor="start" x="332.568" y="-573.9" font-family="Arial" font-size="14.00" fill="#666666">[text]</text>
<polygon fill="none" stroke="#000000" points="254,-532.5 254,-562.5 829,-562.5 829,-532.5 254,-532.5"/>
<text text-anchor="start" x="261" y="-543.9" font-family="Arial" font-size="14.00" fill="#000000">credit </text>
<text text-anchor="start" x="299.1136" y="-543.9" font-family="Arial" font-size="14.00" fill="#666666">[tinyint unsigned]</text>
<polygon fill="none" stroke="#000000" points="254,-502.5 254,-532.5 829,-532.5 829,-502.5 254,-502.5"/>
<text text-anchor="start" x="261" y="-513.9" font-family="Arial" font-size="14.00" fill="#000000">period </text>
<text text-anchor="start" x="303.7882" y="-513.9" font-family="Arial" font-size="14.00" fill="#666666">[tinyint unsigned]</text>
<polygon fill="none" stroke="#000000" points="254,-472.5 254,-502.5 829,-502.5 829,-472.5 254,-472.5"/>
<text text-anchor="start" x="260.7762" y="-483.9" font-family="Arial" font-size="14.00" fill="#000000">day_of_week </text>
<text text-anchor="start" x="347.1422" y="-483.9" font-family="Arial" font-size="14.00" fill="#666666">[enum(&#39;sunday&#39;,&#39;monday&#39;,&#39;tuesday&#39;,&#39;wednesday&#39;,&#39;thursday&#39;,&#39;friday&#39;,&#39;saturday&#39;)]</text>
<polygon fill="none" stroke="#000000" points="254,-442.5 254,-472.5 829,-472.5 829,-442.5 254,-442.5"/>
<text text-anchor="start" x="261" y="-453.9" font-family="Arial" font-size="14.00" fill="#000000">teacher_id </text>
<text text-anchor="start" x="330.244" y="-453.9" font-family="Arial" font-size="14.00" fill="#666666">[char(36)]</text>
<polygon fill="none" stroke="#000000" points="254,-412.5 254,-442.5 829,-442.5 829,-412.5 254,-412.5"/>
<text text-anchor="start" x="261" y="-423.9" font-family="Arial" font-size="14.00" fill="#000000">keywords </text>
<text text-anchor="start" x="324.0056" y="-423.9" font-family="Arial" font-size="14.00" fill="#666666">[text]</text>
<polygon fill="none" stroke="#000000" points="254,-382.5 254,-412.5 829,-412.5 829,-382.5 254,-382.5"/>
<text text-anchor="start" x="261" y="-393.9" font-family="Arial" font-size="14.00" fill="#000000">status </text>
<text text-anchor="start" x="302.237" y="-393.9" font-family="Arial" font-size="14.00" fill="#666666">[enum(&#39;registration&#39;,&#39;in&#45;progress&#39;,&#39;closed&#39;)]</text>
<polygon fill="none" stroke="#000000" points="254,-352.5 254,-382.5 829,-382.5 829,-352.5 254,-352.5"/>
<text text-anchor="start" x="261" y="-363.9" font-family="Arial" font-size="14.00" fill="#000000">created_at </text>
<text text-anchor="start" x="331.028" y="-363.9" font-family="Arial" font-size="14.00" fill="#666666">[datetime(6)]</text>
<polygon fill="none" stroke="#000000" stroke-width="3" points="252,-351.5 252,-749.5 830,-749.5 830,-351.5 252,-351.5"/>
</g>
<!-- users -->
<g id="node5" class="node">
<title>users</title>
<polygon fill="#efefef" stroke="transparent" points="439,-192.5 439,-227.5 644,-227.5 644,-192.5 439,-192.5"/>
<polygon fill="none" stroke="#000000" points="439,-192.5 439,-227.5 644,-227.5 644,-192.5 439,-192.5"/>
<text text-anchor="start" x="470.8708" y="-205.3" font-family="Arial Bold" font-size="18.00" fill="#000000">users</text>
<text text-anchor="start" x="514.8754" y="-205.3" font-family="Arial" font-size="14.00" fill="#000000"> </text>
<text text-anchor="start" x="518.766" y="-205.3" font-family="Arial" font-size="14.00" fill="#666666">[BASE TABLE]</text>
<polygon fill="none" stroke="#000000" points="439,-162.5 439,-192.5 644,-192.5 644,-162.5 439,-162.5"/>
<text text-anchor="start" x="446" y="-173.9" font-family="Arial" font-size="14.00" fill="#000000">id </text>
<text text-anchor="start" x="460.7798" y="-173.9" font-family="Arial" font-size="14.00" fill="#666666">[char(36)]</text>
<polygon fill="none" stroke="#000000" points="439,-132.5 439,-162.5 644,-162.5 644,-132.5 439,-132.5"/>
<text text-anchor="start" x="446" y="-143.9" font-family="Arial" font-size="14.00" fill="#000000">code </text>
<text text-anchor="start" x="480.2384" y="-143.9" font-family="Arial" font-size="14.00" fill="#666666">[char(8)]</text>
<polygon fill="none" stroke="#000000" points="439,-102.5 439,-132.5 644,-132.5 644,-102.5 439,-102.5"/>
<text text-anchor="start" x="446" y="-113.9" font-family="Arial" font-size="14.00" fill="#000000">name </text>
<text text-anchor="start" x="484.899" y="-113.9" font-family="Arial" font-size="14.00" fill="#666666">[varchar(255)]</text>
<polygon fill="none" stroke="#000000" points="439,-72.5 439,-102.5 644,-102.5 644,-72.5 439,-72.5"/>
<text text-anchor="start" x="446" y="-83.9" font-family="Arial" font-size="14.00" fill="#000000">hashed_password </text>
<text text-anchor="start" x="563.4838" y="-83.9" font-family="Arial" font-size="14.00" fill="#666666">[binary(60)]</text>
<polygon fill="none" stroke="#000000" points="439,-42.5 439,-72.5 644,-72.5 644,-42.5 439,-42.5"/>
<text text-anchor="start" x="445.8443" y="-53.9" font-family="Arial" font-size="14.00" fill="#000000">type </text>
<text text-anchor="start" x="476.1907" y="-53.9" font-family="Arial" font-size="14.00" fill="#666666">[enum(&#39;student&#39;,&#39;teacher&#39;)]</text>
</g>
<!-- courses&#45;&gt;users -->
<g id="edge4" class="edge">
<title>courses:teacher_id&#45;&gt;users:id</title>
<path fill="none" stroke="#000000" d="M243.6678,-457.0075C113.8578,-443.995 293.4875,-177.5 439,-177.5"/>
<polygon fill="#000000" stroke="#000000" points="244.0113,-457.0238 253.7857,-461.9949 249.0057,-457.2619 254,-457.5 254,-457.5 254,-457.5 249.0057,-457.2619 254.2143,-453.0051 244.0113,-457.0238 244.0113,-457.0238"/>
<text text-anchor="start" x="6.9965" y="-467.5" font-family="Arial" font-size="10.00" fill="#000000">FOREIGN KEY (teacher_id) REFERENCES users (id)</text>
</g>
<!-- announcements -->
<g id="node2" class="node">
<title>announcements</title>
<polygon fill="#efefef" stroke="transparent" points="82,-1052.5 82,-1087.5 321,-1087.5 321,-1052.5 82,-1052.5"/>
<polygon fill="none" stroke="#000000" points="82,-1052.5 82,-1087.5 321,-1087.5 321,-1052.5 82,-1052.5"/>
<text text-anchor="start" x="88.848" y="-1065.3" font-family="Arial Bold" font-size="18.00" fill="#000000">announcements</text>
<text text-anchor="start" x="216.8982" y="-1065.3" font-family="Arial" font-size="14.00" fill="#000000"> </text>
<text text-anchor="start" x="220.7888" y="-1065.3" font-family="Arial" font-size="14.00" fill="#666666">[BASE TABLE]</text>
<polygon fill="none" stroke="#000000" points="82,-1022.5 82,-1052.5 321,-1052.5 321,-1022.5 82,-1022.5"/>
<text text-anchor="start" x="89" y="-1033.9" font-family="Arial" font-size="14.00" fill="#000000">id </text>
<text text-anchor="start" x="103.7798" y="-1033.9" font-family="Arial" font-size="14.00" fill="#666666">[char(36)]</text>
<polygon fill="none" stroke="#000000" points="82,-992.5 82,-1022.5 321,-1022.5 321,-992.5 82,-992.5"/>
<text text-anchor="start" x="89" y="-1003.9" font-family="Arial" font-size="14.00" fill="#000000">course_id </text>
<text text-anchor="start" x="153.5708" y="-1003.9" font-family="Arial" font-size="14.00" fill="#666666">[char(36)]</text>
<polygon fill="none" stroke="#000000" points="82,-962.5 82,-992.5 321,-992.5 321,-962.5 82,-962.5"/>
<text text-anchor="start" x="89" y="-973.9" font-family="Arial" font-size="14.00" fill="#000000">title </text>
<text text-anchor="start" x="114.6676" y="-973.9" font-family="Arial" font-size="14.00" fill="#666666">[varchar(255)]</text>
<polygon fill="none" stroke="#000000" points="82,-932.5 82,-962.5 321,-962.5 321,-932.5 82,-932.5"/>
<text text-anchor="start" x="89" y="-943.9" font-family="Arial" font-size="14.00" fill="#000000">message </text>
<text text-anchor="start" x="149.6816" y="-943.9" font-family="Arial" font-size="14.00" fill="#666666">[text]</text>
<polygon fill="none" stroke="#000000" points="82,-902.5 82,-932.5 321,-932.5 321,-902.5 82,-902.5"/>
<text text-anchor="start" x="89" y="-913.9" font-family="Arial" font-size="14.00" fill="#000000">created_at </text>
<text text-anchor="start" x="159.028" y="-913.9" font-family="Arial" font-size="14.00" fill="#666666">[datetime(6)]</text>
</g>
<!-- announcements&#45;&gt;courses -->
<g id="edge1" class="edge">
<title>announcements:course_id&#45;&gt;courses:id</title>
<path fill="none" stroke="#000000" d="M331.143,-1006.683C382.0449,-997.7264 344.8807,-917.0456 321,-860 304.8591,-821.4431 270.1409,-832.5569 254,-794 237.4383,-754.4378 211.1111,-697.5 254,-697.5"/>
<polygon fill="#000000" stroke="#000000" points="330.9677,-1006.6971 320.6387,-1003.0145 325.9839,-1007.0985 321,-1007.5 321,-1007.5 321,-1007.5 325.9839,-1007.0985 321.3613,-1011.9855 330.9677,-1006.6971 330.9677,-1006.6971"/>
<text text-anchor="start" x="328.386" y="-1017.5" font-family="Arial" font-size="10.00" fill="#000000">FOREIGN KEY (course_id) REFERENCES courses (id)</text>
</g>
<!-- classes -->
<g id="node3" class="node">
<title>classes</title>
<polygon fill="#efefef" stroke="transparent" points="425,-1082.5 425,-1117.5 659,-1117.5 659,-1082.5 425,-1082.5"/>
<polygon fill="none" stroke="#000000" points="425,-1082.5 425,-1117.5 659,-1117.5 659,-1082.5 425,-1082.5"/>
<text text-anchor="start" x="463.3698" y="-1095.3" font-family="Arial Bold" font-size="18.00" fill="#000000">classes</text>
<text text-anchor="start" x="523.3764" y="-1095.3" font-family="Arial" font-size="14.00" fill="#000000"> </text>
<text text-anchor="start" x="527.267" y="-1095.3" font-family="Arial" font-size="14.00" fill="#666666">[BASE TABLE]</text>
<polygon fill="none" stroke="#000000" points="425,-1052.5 425,-1082.5 659,-1082.5 659,-1052.5 425,-1052.5"/>
<text text-anchor="start" x="432" y="-1063.9" font-family="Arial" font-size="14.00" fill="#000000">id </text>
<text text-anchor="start" x="446.7798" y="-1063.9" font-family="Arial" font-size="14.00" fill="#666666">[char(36)]</text>
<polygon fill="none" stroke="#000000" points="425,-1022.5 425,-1052.5 659,-1052.5 659,-1022.5 425,-1022.5"/>
<text text-anchor="start" x="432" y="-1033.9" font-family="Arial" font-size="14.00" fill="#000000">course_id </text>
<text text-anchor="start" x="496.5708" y="-1033.9" font-family="Arial" font-size="14.00" fill="#666666">[char(36)]</text>
<polygon fill="none" stroke="#000000" points="425,-992.5 425,-1022.5 659,-1022.5 659,-992.5 425,-992.5"/>
<text text-anchor="start" x="432" y="-1003.9" font-family="Arial" font-size="14.00" fill="#000000">part </text>
<text text-anchor="start" x="460.007" y="-1003.9" font-family="Arial" font-size="14.00" fill="#666666">[tinyint unsigned]</text>
<polygon fill="none" stroke="#000000" points="425,-962.5 425,-992.5 659,-992.5 659,-962.5 425,-962.5"/>
<text text-anchor="start" x="432" y="-973.9" font-family="Arial" font-size="14.00" fill="#000000">title </text>
<text text-anchor="start" x="457.6676" y="-973.9" font-family="Arial" font-size="14.00" fill="#666666">[varchar(255)]</text>
<polygon fill="none" stroke="#000000" points="425,-932.5 425,-962.5 659,-962.5 659,-932.5 425,-932.5"/>
<text text-anchor="start" x="432" y="-943.9" font-family="Arial" font-size="14.00" fill="#000000">description </text>
<text text-anchor="start" x="503.568" y="-943.9" font-family="Arial" font-size="14.00" fill="#666666">[text]</text>
<polygon fill="none" stroke="#000000" points="425,-902.5 425,-932.5 659,-932.5 659,-902.5 425,-902.5"/>
<text text-anchor="start" x="432" y="-913.9" font-family="Arial" font-size="14.00" fill="#000000">created_at </text>
<text text-anchor="start" x="502.028" y="-913.9" font-family="Arial" font-size="14.00" fill="#666666">[datetime(6)]</text>
<polygon fill="none" stroke="#000000" points="425,-872.5 425,-902.5 659,-902.5 659,-872.5 425,-872.5"/>
<text text-anchor="start" x="431.9243" y="-883.9" font-family="Arial" font-size="14.00" fill="#000000">submission_closed_at </text>
<text text-anchor="start" x="573.5119" y="-883.9" font-family="Arial" font-size="14.00" fill="#666666">[datetime(6)]</text>
</g>
<!-- classes&#45;&gt;courses -->
<g id="edge2" class="edge">
<title>classes:course_id&#45;&gt;courses:id</title>
<path fill="none" stroke="#000000" d="M415.29,-1034.4727C381.329,-1011.2452 396.3068,-861.3638 425,-830 485.8399,-763.4977 768.1601,-860.5023 829,-794 857.9499,-762.3557 871.8889,-697.5 829,-697.5"/>
<polygon fill="#000000" stroke="#000000" points="415.4532,-1034.5236 423.6606,-1041.7961 420.2266,-1036.0118 425,-1037.5 425,-1037.5 425,-1037.5 420.2266,-1036.0118 426.3394,-1033.2039 415.4532,-1034.5236 415.4532,-1034.5236"/>
<text text-anchor="start" x="432.386" y="-1047.5" font-family="Arial" font-size="10.00" fill="#000000">FOREIGN KEY (course_id) REFERENCES courses (id)</text>
</g>
<!-- registrations -->
<g id="node4" class="node">
<title>registrations</title>
<polygon fill="#efefef" stroke="transparent" points="764,-1037.5 764,-1072.5 973,-1072.5 973,-1037.5 764,-1037.5"/>
<polygon fill="none" stroke="#000000" points="764,-1037.5 764,-1072.5 973,-1072.5 973,-1037.5 764,-1037.5"/>
<text text-anchor="start" x="770.869" y="-1050.3" font-family="Arial Bold" font-size="18.00" fill="#000000">registrations</text>
<text text-anchor="start" x="868.8772" y="-1050.3" font-family="Arial" font-size="14.00" fill="#000000"> </text>
<text text-anchor="start" x="872.7678" y="-1050.3" font-family="Arial" font-size="14.00" fill="#666666">[BASE TABLE]</text>
<polygon fill="none" stroke="#000000" points="764,-1007.5 764,-1037.5 973,-1037.5 973,-1007.5 764,-1007.5"/>
<text text-anchor="start" x="771" y="-1018.9" font-family="Arial" font-size="14.00" fill="#000000">course_id </text>
<text text-anchor="start" x="835.5708" y="-1018.9" font-family="Arial" font-size="14.00" fill="#666666">[char(36)]</text>
<polygon fill="none" stroke="#000000" points="764,-977.5 764,-1007.5 973,-1007.5 973,-977.5 764,-977.5"/>
<text text-anchor="start" x="771" y="-988.9" font-family="Arial" font-size="14.00" fill="#000000">user_id </text>
<text text-anchor="start" x="820.7882" y="-988.9" font-family="Arial" font-size="14.00" fill="#666666">[char(36)]</text>
<polygon fill="none" stroke="#000000" points="764,-947.5 764,-977.5 973,-977.5 973,-947.5 764,-947.5"/>
<text text-anchor="start" x="771" y="-958.9" font-family="Arial" font-size="14.00" fill="#000000">created_at </text>
<text text-anchor="start" x="841.028" y="-958.9" font-family="Arial" font-size="14.00" fill="#666666">[datetime(6)]</text>
<polygon fill="none" stroke="#000000" points="764,-917.5 764,-947.5 973,-947.5 973,-917.5 764,-917.5"/>
<text text-anchor="start" x="771" y="-928.9" font-family="Arial" font-size="14.00" fill="#000000">deleted_at </text>
<text text-anchor="start" x="840.2566" y="-928.9" font-family="Arial" font-size="14.00" fill="#666666">[datetime(6)]</text>
</g>
<!-- registrations&#45;&gt;courses -->
<g id="edge3" class="edge">
<title>registrations:course_id&#45;&gt;courses:id</title>
<path fill="none" stroke="#000000" d="M753.8894,-1021.6955C703.3365,-1012.8731 743.4858,-933.3409 764,-875 779.3114,-831.4554 813.6886,-837.5446 829,-794 843.2269,-753.5395 871.8889,-697.5 829,-697.5"/>
<polygon fill="#000000" stroke="#000000" points="754.0315,-1021.7067 763.643,-1026.9858 759.0158,-1022.1034 764,-1022.5 764,-1022.5 764,-1022.5 759.0158,-1022.1034 764.357,-1018.0142 754.0315,-1021.7067 754.0315,-1021.7067"/>
<text text-anchor="start" x="771.386" y="-1032.5" font-family="Arial" font-size="10.00" fill="#000000">FOREIGN KEY (course_id) REFERENCES courses (id)</text>
</g>
</g>
</svg>
