<?xml version="1.0" encoding="UTF-8" standalone="no"?>
<!DOCTYPE svg PUBLIC "-//W3C//DTD SVG 1.1//EN"
 "http://www.w3.org/Graphics/SVG/1.1/DTD/svg11.dtd">
<!-- Generated by graphviz version 2.40.1 (20161225.0304)
 -->
<!-- Title: courses Pages: 1 -->
<svg width="1023pt" height="1169pt"
 viewBox="0.00 0.00 1023.00 1169.00" xmlns="http://www.w3.org/2000/svg" xmlns:xlink="http://www.w3.org/1999/xlink">
<g id="graph0" class="graph" transform="scale(1 1) rotate(0) translate(4 1165)">
<title>courses</title>
<polygon fill="#ffffff" stroke="transparent" points="-4,4 -4,-1165 1019,-1165 1019,4 -4,4"/>
<!-- courses -->
<g id="node1" class="node">
<title>courses</title>
<polygon fill="#efefef" stroke="transparent" points="254,-712.5 254,-747.5 829,-747.5 829,-712.5 254,-712.5"/>
<polygon fill="none" stroke="#000000" points="254,-712.5 254,-747.5 829,-747.5 829,-712.5 254,-712.5"/>
<text text-anchor="start" x="461.3677" y="-725.3" font-family="Arial Bold" font-size="18.00" fill="#000000">courses</text>
<text text-anchor="start" x="524.3785" y="-725.3" font-family="Arial" font-size="14.00" fill="#000000"> </text>
<text text-anchor="start" x="528.2691" y="-725.3" font-family="Arial" font-size="14.00" fill="#666666">[BASE TABLE]</text>
<polygon fill="none" stroke="#000000" points="254,-682.5 254,-712.5 829,-712.5 829,-682.5 254,-682.5"/>
<text text-anchor="start" x="261" y="-693.9" font-family="Arial" font-size="14.00" fill="#000000">id </text>
<text text-anchor="start" x="275.7798" y="-693.9" font-family="Arial" font-size="14.00" fill="#666666">[char(36)]</text>
<polygon fill="none" stroke="#000000" points="254,-652.5 254,-682.5 829,-682.5 829,-652.5 254,-652.5"/>
<text text-anchor="start" x="261" y="-663.9" font-family="Arial" font-size="14.00" fill="#000000">code </text>
<text text-anchor="start" x="295.2384" y="-663.9" font-family="Arial" font-size="14.00" fill="#666666">[varchar(255)]</text>
<polygon fill="none" stroke="#000000" points="254,-622.5 254,-652.5 829,-652.5 829,-622.5 254,-622.5"/>
<text text-anchor="start" x="261" y="-633.9" font-family="Arial" font-size="14.00" fill="#000000">type </text>
<text text-anchor="start" x="291.3464" y="-633.9" font-family="Arial" font-size="14.00" fill="#666666">[enum(&#39;liberal&#45;arts&#39;,&#39;major&#45;subjects&#39;)]</text>
<polygon fill="none" stroke="#000000" points="254,-592.5 254,-622.5 829,-622.5 829,-592.5 254,-592.5"/>
<text text-anchor="start" x="261" y="-603.9" font-family="Arial" font-size="14.00" fill="#000000">name </text>
<text text-anchor="start" x="299.899" y="-603.9" font-family="Arial" font-size="14.00" fill="#666666">[varchar(255)]</text>
<polygon fill="none" stroke="#000000" points="254,-562.5 254,-592.5 829,-592.5 829,-562.5 254,-562.5"/>
<text text-anchor="start" x="261" y="-573.9" font-family="Arial" font-size="14.00" fill="#000000">description </text>
<text text-anchor="start" x="332.568" y="-573.9" font-family="Arial" font-size="14.00" fill="#666666">[text]</text>
<polygon fill="none" stroke="#000000" points="254,-532.5 254,-562.5 829,-562.5 829,-532.5 254,-532.5"/>
<text text-anchor="start" x="261" y="-543.9" font-family="Arial" font-size="14.00" fill="#000000">credit </text>
<text text-anchor="start" x="299.1136" y="-543.9" font-family="Arial" font-size="14.00" fill="#666666">[tinyint unsigned]</text>
<polygon fill="none" stroke="#000000" points="254,-502.5 254,-532.5 829,-532.5 829,-502.5 254,-502.5"/>
<text text-anchor="start" x="261" y="-513.9" font-family="Arial" font-size="14.00" fill="#000000">period </text>
<text text-anchor="start" x="303.7882" y="-513.9" font-family="Arial" font-size="14.00" fill="#666666">[tinyint unsigned]</text>
<polygon fill="none" stroke="#000000" points="254,-472.5 254,-502.5 829,-502.5 829,-472.5 254,-472.5"/>
<text text-anchor="start" x="260.7762" y="-483.9" font-family="Arial" font-size="14.00" fill="#000000">day_of_week </text>
<text text-anchor="start" x="347.1422" y="-483.9" font-family="Arial" font-size="14.00" fill="#666666">[enum(&#39;sunday&#39;,&#39;monday&#39;,&#39;tuesday&#39;,&#39;wednesday&#39;,&#39;thursday&#39;,&#39;friday&#39;,&#39;saturday&#39;)]</text>
<polygon fill="none" stroke="#000000" points="254,-442.5 254,-472.5 829,-472.5 829,-442.5 254,-442.5"/>
<text text-anchor="start" x="261" y="-453.9" font-family="Arial" font-size="14.00" fill="#000000">teacher_id </text>
<text text-anchor="start" x="330.244" y="-453.9" font-family="Arial" font-size="14.00" fill="#666666">[char(36)]</text>
<polygon fill="none" stroke="#000000" points="254,-412.5 254,-442.5 829,-442.5 829,-412.5 254,-412.5"/>
<text text-anchor="start" x="261" y="-423.9" font-family="Arial" font-size="14.00" fill="#000000">keywords </text>
<text text-anchor="start" x="324.0056" y="-423.9" font-family="Arial" font-size="14.00" fill="#666666">[text]</text>
<polygon fill="none" stroke="#000000" points="254,-382.5 254,-412.5 829,-412.5 829,-382.5 254,-382.5"/>
<text text-anchor="start" x="261" y="-393.9" font-family="Arial" font-size="14.00" fill="#000000">status </text>
<text text-anchor="start" x="302.237" y="-393.9" font-family="Arial" font-size="14.00" fill="#666666">[enum(&#39;registration&#39;,&#39;in&#45;progress&#39;,&#39;closed&#39;)]</text>
<polygon fill="none" stroke="#000000" points="254,-352.5 254,-382.5 829,-382.5 829,-352.5 254,-352.5"/>
<text text-anchor="start" x="261" y="-363.9" font-family="Arial" font-size="14.00" fill="#000000">created_at </text>
<text text-anchor="start" x="331.028" y="-363.9" font-family="Arial" font-size="14.00" fill="#666666">[datetime]</text>
<polygon fill="none" stroke="#000000" stroke-width="3" points="252,-351.5 252,-749.5 830,-749.5 830,-351.5 252,-351.5"/>
</g>
<!-- users -->
<g id="node5" class="node">
<title>users</title>
<polygon fill="#efefef" stroke="transparent" points="439,-192.5 439,-227.5 644,-227.5 644,-192.5 439,-192.5"/>
<polygon fill="none" stroke="#000000" points="439,-192.5 439,-227.5 644,-227.5 644,-192.5 439,-192.5"/>
<text text-anchor="start" x="470.8708" y="-205.3" font-family="Arial Bold" font-size="18.00" fill="#000000">users</text>
<text text-anchor="start" x="514.8754" y="-205.3" font-family="Arial" font-size="14.00" fill="#000000"> </text>
<text text-anchor="start" x="518.766" y="-205.3" font-family="Arial" font-size="14.00" fill="#666666">[BASE TABLE]</text>
<polygon fill="none" stroke="#000000" points="439,-162.5 439,-192.5 644,-192.5 644,-162.5 439,-162.5"/>
<text text-anchor="start" x="446" y="-173.9" font-family="Arial" font-size="14.00" fill="#000000">id </text>
<text text-anchor="start" x="460.7798" y="-173.9" font-family="Arial" font-size="14.00" fill="#666666">[char(36)]</text>
<polygon fill="none" stroke="#000000" points="439,-132.5 439,-162.5 644,-162.5 644,-132.5 439,-132.5"/>
<text text-anchor="start" x="446" y="-143.9" font-family="Arial" font-size="14.00" fill="#000000">code </text>
<text text-anchor="start" x="480.2384" y="-143.9" font-family="Arial" font-size="14.00" fill="#666666">[char(8)]</text>
<polygon fill="none" stroke="#000000" points="439,-102.5 439,-132.5 644,-132.5 644,-102.5 439,-102.5"/>
<text text-anchor="start" x="446" y="-113.9" font-family="Arial" font-size="14.00" fill="#000000">name </text>
<text text-anchor="start" x="484.899" y="-113.9" font-family="Arial" font-size="14.00" fill="#666666">[varchar(255)]</text>
<polygon fill="none" stroke="#000000" points="439,-72.5 439,-102.5 644,-102.5 644,-72.5 439,-72.5"/>
<text text-anchor="start" x="446" y="-83.9" font-family="Arial" font-size="14.00" fill="#000000">hashed_password </text>
<text text-anchor="start" x="563.4838" y="-83.9" font-family="Arial" font-size="14.00" fill="#666666">[binary(60)]</text>
<polygon fill="none" stroke="#000000" points="439,-42.5 439,-72.5 644,-72.5 644,-42.5 439,-42.5"/>
<text text-anchor="start" x="445.8443" y="-53.9" font-family="Arial" font-size="14.00" fill="#000000">type </text>
<text text-anchor="start" x="476.1907" y="-53.9" font-family="Arial" font-size="14.00" fill="#666666">[enum(&#39;student&#39;,&#39;teacher&#39;)]</text>
</g>
<!-- courses&#45;&gt;users -->
<g id="edge4" class="edge">
<title>courses:teacher_id&#45;&gt;users:id</title>
<path fill="none" stroke="#000000" d="M243.6678,-457.0075C113.8578,-443.995 293.4875,-177.5 439,-177.5"/>
<polygon fill="#000000" stroke="#000000" points="244.0113,-457.0238 253.7857,-461.9949 249.0057,-457.2619 254,-457.5 254,-457.5 254,-457.5 249.0057,-457.2619 254.2143,-453.0051 244.0113,-457.0238 244.0113,-457.0238"/>
<text text-anchor="start" x="6.9965" y="-467.5" font-family="Arial" font-size="10.00" fill="#000000">FOREIGN KEY (teacher_id) REFERENCES users (id)</text>
</g>
<!-- announcements -->
<g id="node2" class="node">
<title>announcements</title>
<polygon fill="#efefef" stroke="transparent" points="90,-1052.5 90,-1087.5 329,-1087.5 329,-1052.5 90,-1052.5"/>
<polygon fill="none" stroke="#000000" points="90,-1052.5 90,-1087.5 329,-1087.5 329,-1052.5 90,-1052.5"/>
<text text-anchor="start" x="96.848" y="-1065.3" font-family="Arial Bold" font-size="18.00" fill="#000000">announcements</text>
<text text-anchor="start" x="224.8982" y="-1065.3" font-family="Arial" font-size="14.00" fill="#000000"> </text>
<text text-anchor="start" x="228.7888" y="-1065.3" font-family="Arial" font-size="14.00" fill="#666666">[BASE TABLE]</text>
<polygon fill="none" stroke="#000000" points="90,-1022.5 90,-1052.5 329,-1052.5 329,-1022.5 90,-1022.5"/>
<text text-anchor="start" x="97" y="-1033.9" font-family="Arial" font-size="14.00" fill="#000000">id </text>
<text text-anchor="start" x="111.7798" y="-1033.9" font-family="Arial" font-size="14.00" fill="#666666">[char(36)]</text>
<polygon fill="none" stroke="#000000" points="90,-992.5 90,-1022.5 329,-1022.5 329,-992.5 90,-992.5"/>
<text text-anchor="start" x="97" y="-1003.9" font-family="Arial" font-size="14.00" fill="#000000">course_id </text>
<text text-anchor="start" x="161.5708" y="-1003.9" font-family="Arial" font-size="14.00" fill="#666666">[char(36)]</text>
<polygon fill="none" stroke="#000000" points="90,-962.5 90,-992.5 329,-992.5 329,-962.5 90,-962.5"/>
<text text-anchor="start" x="97" y="-973.9" font-family="Arial" font-size="14.00" fill="#000000">title </text>
<text text-anchor="start" x="122.6676" y="-973.9" font-family="Arial" font-size="14.00" fill="#666666">[varchar(255)]</text>
<polygon fill="none" stroke="#000000" points="90,-932.5 90,-962.5 329,-962.5 329,-932.5 90,-932.5"/>
<text text-anchor="start" x="97" y="-943.9" font-family="Arial" font-size="14.00" fill="#000000">message </text>
<text text-anchor="start" x="157.6816" y="-943.9" font-family="Arial" font-size="14.00" fill="#666666">[text]</text>
<polygon fill="none" stroke="#000000" points="90,-902.5 90,-932.5 329,-932.5 329,-902.5 90,-902.5"/>
<text text-anchor="start" x="97" y="-913.9" font-family="Arial" font-size="14.00" fill="#000000">created_at </text>
<text text-anchor="start" x="167.028" y="-913.9" font-family="Arial" font-size="14.00" fill="#666666">[datetime]</text>
</g>
<!-- announcements&#45;&gt;courses -->
<g id="edge1" class="edge">
<title>announcements:course_id&#45;&gt;courses:id</title>
<path fill="none" stroke="#000000" d="M339.1584,-1006.6764C390.2255,-997.6478 354.4747,-916.3518 329,-860 310.7094,-819.54 272.2906,-834.46 254,-794 236.3328,-754.919 211.1111,-697.5 254,-697.5"/>
<polygon fill="#000000" stroke="#000000" points="338.9673,-1006.6918 328.6363,-1003.0147 333.9836,-1007.0959 329,-1007.5 329,-1007.5 329,-1007.5 333.9836,-1007.0959 329.3637,-1011.9853 338.9673,-1006.6918 338.9673,-1006.6918"/>
<text text-anchor="start" x="336.386" y="-1017.5" font-family="Arial" font-size="10.00" fill="#000000">FOREIGN KEY (course_id) REFERENCES courses (id)</text>
</g>
<!-- classes -->
<g id="node3" class="node">
<title>classes</title>
<polygon fill="#efefef" stroke="transparent" points="433,-1082.5 433,-1117.5 650,-1117.5 650,-1082.5 433,-1082.5"/>
<polygon fill="none" stroke="#000000" points="433,-1082.5 433,-1117.5 650,-1117.5 650,-1082.5 433,-1082.5"/>
<text text-anchor="start" x="462.8698" y="-1095.3" font-family="Arial Bold" font-size="18.00" fill="#000000">classes</text>
<text text-anchor="start" x="522.8764" y="-1095.3" font-family="Arial" font-size="14.00" fill="#000000"> </text>
<text text-anchor="start" x="526.767" y="-1095.3" font-family="Arial" font-size="14.00" fill="#666666">[BASE TABLE]</text>
<polygon fill="none" stroke="#000000" points="433,-1052.5 433,-1082.5 650,-1082.5 650,-1052.5 433,-1052.5"/>
<text text-anchor="start" x="440" y="-1063.9" font-family="Arial" font-size="14.00" fill="#000000">id </text>
<text text-anchor="start" x="454.7798" y="-1063.9" font-family="Arial" font-size="14.00" fill="#666666">[char(36)]</text>
<polygon fill="none" stroke="#000000" points="433,-1022.5 433,-1052.5 650,-1052.5 650,-1022.5 433,-1022.5"/>
<text text-anchor="start" x="440" y="-1033.9" font-family="Arial" font-size="14.00" fill="#000000">course_id </text>
<text text-anchor="start" x="504.5708" y="-1033.9" font-family="Arial" font-size="14.00" fill="#666666">[char(36)]</text>
<polygon fill="none" stroke="#000000" points="433,-992.5 433,-1022.5 650,-1022.5 650,-992.5 433,-992.5"/>
<text text-anchor="start" x="440" y="-1003.9" font-family="Arial" font-size="14.00" fill="#000000">part </text>
<text text-anchor="start" x="468.007" y="-1003.9" font-family="Arial" font-size="14.00" fill="#666666">[tinyint unsigned]</text>
<polygon fill="none" stroke="#000000" points="433,-962.5 433,-992.5 650,-992.5 650,-962.5 433,-962.5"/>
<text text-anchor="start" x="440" y="-973.9" font-family="Arial" font-size="14.00" fill="#000000">title </text>
<text text-anchor="start" x="465.6676" y="-973.9" font-family="Arial" font-size="14.00" fill="#666666">[varchar(255)]</text>
<polygon fill="none" stroke="#000000" points="433,-932.5 433,-962.5 650,-962.5 650,-932.5 433,-932.5"/>
<text text-anchor="start" x="440" y="-943.9" font-family="Arial" font-size="14.00" fill="#000000">description </text>
<text text-anchor="start" x="511.568" y="-943.9" font-family="Arial" font-size="14.00" fill="#666666">[text]</text>
<polygon fill="none" stroke="#000000" points="433,-902.5 433,-932.5 650,-932.5 650,-902.5 433,-902.5"/>
<text text-anchor="start" x="440" y="-913.9" font-family="Arial" font-size="14.00" fill="#000000">created_at </text>
<text text-anchor="start" x="510.028" y="-913.9" font-family="Arial" font-size="14.00" fill="#666666">[datetime]</text>
<polygon fill="none" stroke="#000000" points="433,-872.5 433,-902.5 650,-902.5 650,-872.5 433,-872.5"/>
<text text-anchor="start" x="439.9762" y="-883.9" font-family="Arial" font-size="14.00" fill="#000000">submission_closed_at </text>
<text text-anchor="start" x="581.5638" y="-883.9" font-family="Arial" font-size="14.00" fill="#666666">[datetime]</text>
</g>
<!-- classes&#45;&gt;courses -->
<g id="edge2" class="edge">
<title>classes:course_id&#45;&gt;courses:id</title>
<path fill="none" stroke="#000000" d="M422.7557,-1036.8751C346.0291,-1026.7293 443.7563,-895.5817 380,-830 339.4027,-788.2404 289.0724,-840.4965 254,-794 228.1725,-759.7597 211.1111,-697.5 254,-697.5"/>
<polygon fill="#000000" stroke="#000000" points="423.0186,-1036.891 432.726,-1041.9917 428.0093,-1037.1955 433,-1037.5 433,-1037.5 433,-1037.5 428.0093,-1037.1955 433.274,-1033.0083 423.0186,-1036.891 423.0186,-1036.891"/>
<text text-anchor="start" x="440.386" y="-1047.5" font-family="Arial" font-size="10.00" fill="#000000">FOREIGN KEY (course_id) REFERENCES courses (id)</text>
</g>
<!-- registrations -->
<g id="node4" class="node">
<title>registrations</title>
<polygon fill="#efefef" stroke="transparent" points="754,-1022.5 754,-1057.5 963,-1057.5 963,-1022.5 754,-1022.5"/>
<polygon fill="none" stroke="#000000" points="754,-1022.5 754,-1057.5 963,-1057.5 963,-1022.5 754,-1022.5"/>
<text text-anchor="start" x="760.869" y="-1035.3" font-family="Arial Bold" font-size="18.00" fill="#000000">registrations</text>
<text text-anchor="start" x="858.8772" y="-1035.3" font-family="Arial" font-size="14.00" fill="#000000"> </text>
<text text-anchor="start" x="862.7678" y="-1035.3" font-family="Arial" font-size="14.00" fill="#666666">[BASE TABLE]</text>
<polygon fill="none" stroke="#000000" points="754,-992.5 754,-1022.5 963,-1022.5 963,-992.5 754,-992.5"/>
<text text-anchor="start" x="761" y="-1003.9" font-family="Arial" font-size="14.00" fill="#000000">course_id </text>
<text text-anchor="start" x="825.5708" y="-1003.9" font-family="Arial" font-size="14.00" fill="#666666">[char(36)]</text>
<polygon fill="none" stroke="#000000" points="754,-962.5 754,-992.5 963,-992.5 963,-962.5 754,-962.5"/>
<text text-anchor="start" x="761" y="-973.9" font-family="Arial" font-size="14.00" fill="#000000">user_id </text>
<text text-anchor="start" x="810.7882" y="-973.9" font-family="Arial" font-size="14.00" fill="#666666">[char(36)]</text>
<polygon fill="none" stroke="#000000" points="754,-932.5 754,-962.5 963,-962.5 963,-932.5 754,-932.5"/>
<text text-anchor="start" x="761" y="-943.9" font-family="Arial" font-size="14.00" fill="#000000">created_at </text>
<text text-anchor="start" x="831.028" y="-943.9" font-family="Arial" font-size="14.00" fill="#666666">[datetime]</text>
</g>
<!-- registrations&#45;&gt;courses -->
<g id="edge3" class="edge">
<title>registrations:course_id&#45;&gt;courses:id</title>
<path fill="none" stroke="#000000" d="M743.7742,-1006.4098C706.9055,-997.4913 738.2605,-935.7126 754,-890 771.6269,-838.8058 811.3731,-845.1942 829,-794 842.9628,-753.4476 871.8889,-697.5 829,-697.5"/>
<polygon fill="#000000" stroke="#000000" points="744.0564,-1006.4398 753.5229,-1011.9746 749.0282,-1006.9699 754,-1007.5 754,-1007.5 754,-1007.5 749.0282,-1006.9699 754.4771,-1003.0254 744.0564,-1006.4398 744.0564,-1006.4398"/>
<text text-anchor="start" x="761.386" y="-1017.5" font-family="Arial" font-size="10.00" fill="#000000">FOREIGN KEY (course_id) REFERENCES courses (id)</text>
</g>
</g>
</svg>
