<?xml version="1.0" encoding="UTF-8" standalone="no"?>
<!DOCTYPE svg PUBLIC "-//W3C//DTD SVG 1.1//EN"
 "http://www.w3.org/Graphics/SVG/1.1/DTD/svg11.dtd">
<!-- Generated by graphviz version 2.40.1 (20161225.0304)
 -->
<!-- Title: course_schedules Pages: 1 -->
<svg width="2139pt" height="616pt"
 viewBox="0.00 0.00 2139.00 616.00" xmlns="http://www.w3.org/2000/svg" xmlns:xlink="http://www.w3.org/1999/xlink">
<g id="graph0" class="graph" transform="scale(1 1) rotate(0) translate(4 612)">
<title>course_schedules</title>
<polygon fill="#ffffff" stroke="transparent" points="-4,4 -4,-612 2135,-612 2135,4 -4,4"/>
<!-- course_schedules -->
<g id="node1" class="node">
<title>course_schedules</title>
<polygon fill="#efefef" stroke="transparent" points="1673.5,-484.5 1673.5,-519.5 1929.5,-519.5 1929.5,-484.5 1673.5,-484.5"/>
<polygon fill="none" stroke="#000000" points="1673.5,-484.5 1673.5,-519.5 1929.5,-519.5 1929.5,-484.5 1673.5,-484.5"/>
<text text-anchor="start" x="1680.352" y="-497.3" font-family="Arial Bold" font-size="18.00" fill="#000000">course_schedules</text>
<text text-anchor="start" x="1825.3942" y="-497.3" font-family="Arial" font-size="14.00" fill="#000000"> </text>
<text text-anchor="start" x="1829.2848" y="-497.3" font-family="Arial" font-size="14.00" fill="#666666">[BASE TABLE]</text>
<polygon fill="none" stroke="#000000" points="1673.5,-454.5 1673.5,-484.5 1929.5,-484.5 1929.5,-454.5 1673.5,-454.5"/>
<text text-anchor="start" x="1680.5" y="-465.9" font-family="Arial" font-size="14.00" fill="#000000">course_id </text>
<text text-anchor="start" x="1745.0708" y="-465.9" font-family="Arial" font-size="14.00" fill="#666666">[char(36)]</text>
<polygon fill="none" stroke="#000000" points="1673.5,-424.5 1673.5,-454.5 1929.5,-454.5 1929.5,-424.5 1673.5,-424.5"/>
<text text-anchor="start" x="1680.5" y="-435.9" font-family="Arial" font-size="14.00" fill="#000000">schedule_id </text>
<text text-anchor="start" x="1759.082" y="-435.9" font-family="Arial" font-size="14.00" fill="#666666">[char(36)]</text>
<polygon fill="none" stroke="#000000" stroke-width="3" points="1672,-423.5 1672,-521.5 1931,-521.5 1931,-423.5 1672,-423.5"/>
</g>
<!-- courses -->
<g id="node2" class="node">
<title>courses</title>
<polygon fill="#efefef" stroke="transparent" points="755.5,-222.5 755.5,-257.5 929.5,-257.5 929.5,-222.5 755.5,-222.5"/>
<polygon fill="none" stroke="#000000" points="755.5,-222.5 755.5,-257.5 929.5,-257.5 929.5,-222.5 755.5,-222.5"/>
<text text-anchor="start" x="762.3677" y="-235.3" font-family="Arial Bold" font-size="18.00" fill="#000000">courses</text>
<text text-anchor="start" x="825.3785" y="-235.3" font-family="Arial" font-size="14.00" fill="#000000"> </text>
<text text-anchor="start" x="829.2691" y="-235.3" font-family="Arial" font-size="14.00" fill="#666666">[BASE TABLE]</text>
<polygon fill="none" stroke="#000000" points="755.5,-192.5 755.5,-222.5 929.5,-222.5 929.5,-192.5 755.5,-192.5"/>
<text text-anchor="start" x="762.5" y="-203.9" font-family="Arial" font-size="14.00" fill="#000000">id </text>
<text text-anchor="start" x="777.2798" y="-203.9" font-family="Arial" font-size="14.00" fill="#666666">[char(36)]</text>
<polygon fill="none" stroke="#000000" points="755.5,-162.5 755.5,-192.5 929.5,-192.5 929.5,-162.5 755.5,-162.5"/>
<text text-anchor="start" x="762.5" y="-173.9" font-family="Arial" font-size="14.00" fill="#000000">name </text>
<text text-anchor="start" x="801.399" y="-173.9" font-family="Arial" font-size="14.00" fill="#666666">[varchar(255)]</text>
<polygon fill="none" stroke="#000000" points="755.5,-132.5 755.5,-162.5 929.5,-162.5 929.5,-132.5 755.5,-132.5"/>
<text text-anchor="start" x="762.5" y="-143.9" font-family="Arial" font-size="14.00" fill="#000000">description </text>
<text text-anchor="start" x="834.068" y="-143.9" font-family="Arial" font-size="14.00" fill="#666666">[text]</text>
<polygon fill="none" stroke="#000000" points="755.5,-102.5 755.5,-132.5 929.5,-132.5 929.5,-102.5 755.5,-102.5"/>
<text text-anchor="start" x="762.5" y="-113.9" font-family="Arial" font-size="14.00" fill="#000000">credit </text>
<text text-anchor="start" x="800.6136" y="-113.9" font-family="Arial" font-size="14.00" fill="#666666">[tinyint unsigned]</text>
<polygon fill="none" stroke="#000000" points="755.5,-72.5 755.5,-102.5 929.5,-102.5 929.5,-72.5 755.5,-72.5"/>
<text text-anchor="start" x="762.5" y="-83.9" font-family="Arial" font-size="14.00" fill="#000000">classroom </text>
<text text-anchor="start" x="830.1662" y="-83.9" font-family="Arial" font-size="14.00" fill="#666666">[varchar(255)]</text>
<polygon fill="none" stroke="#000000" points="755.5,-42.5 755.5,-72.5 929.5,-72.5 929.5,-42.5 755.5,-42.5"/>
<text text-anchor="start" x="762.5" y="-53.9" font-family="Arial" font-size="14.00" fill="#000000">capacity </text>
<text text-anchor="start" x="817.7356" y="-53.9" font-family="Arial" font-size="14.00" fill="#666666">[int unsigned]</text>
</g>
<!-- course_schedules&#45;&gt;courses -->
<g id="edge1" class="edge">
<title>course_schedules:course_id&#45;&gt;courses:id</title>
<path fill="none" stroke="#000000" d="M1663.5028,-468.5781C1616.1985,-458.8591 1665.1145,-374.8162 1618.5,-337 1603.3767,-324.7312 948.974,-207.5 929.5,-207.5"/>
<polygon fill="#000000" stroke="#000000" points="1663.5422,-468.5816 1673.0867,-473.981 1668.5211,-469.0408 1673.5,-469.5 1673.5,-469.5 1673.5,-469.5 1668.5211,-469.0408 1673.9133,-465.019 1663.5422,-468.5816 1663.5422,-468.5816"/>
<text text-anchor="start" x="1680.886" y="-479.5" font-family="Arial" font-size="10.00" fill="#000000">FOREIGN KEY (course_id) REFERENCES courses (id)</text>
</g>
<!-- schedules -->
<g id="node8" class="node">
<title>schedules</title>
<polygon fill="#efefef" stroke="transparent" points="1513.5,-207.5 1513.5,-242.5 2088.5,-242.5 2088.5,-207.5 1513.5,-207.5"/>
<polygon fill="none" stroke="#000000" points="1513.5,-207.5 1513.5,-242.5 2088.5,-242.5 2088.5,-207.5 1513.5,-207.5"/>
<text text-anchor="start" x="1711.8605" y="-220.3" font-family="Arial Bold" font-size="18.00" fill="#000000">schedules</text>
<text text-anchor="start" x="1792.8857" y="-220.3" font-family="Arial" font-size="14.00" fill="#000000"> </text>
<text text-anchor="start" x="1796.7763" y="-220.3" font-family="Arial" font-size="14.00" fill="#666666">[BASE TABLE]</text>
<polygon fill="none" stroke="#000000" points="1513.5,-177.5 1513.5,-207.5 2088.5,-207.5 2088.5,-177.5 1513.5,-177.5"/>
<text text-anchor="start" x="1520.5" y="-188.9" font-family="Arial" font-size="14.00" fill="#000000">id </text>
<text text-anchor="start" x="1535.2798" y="-188.9" font-family="Arial" font-size="14.00" fill="#666666">[char(36)]</text>
<polygon fill="none" stroke="#000000" points="1513.5,-147.5 1513.5,-177.5 2088.5,-177.5 2088.5,-147.5 1513.5,-147.5"/>
<text text-anchor="start" x="1520.5" y="-158.9" font-family="Arial" font-size="14.00" fill="#000000">period </text>
<text text-anchor="start" x="1563.2882" y="-158.9" font-family="Arial" font-size="14.00" fill="#666666">[tinyint unsigned]</text>
<polygon fill="none" stroke="#000000" points="1513.5,-117.5 1513.5,-147.5 2088.5,-147.5 2088.5,-117.5 1513.5,-117.5"/>
<text text-anchor="start" x="1520.2762" y="-128.9" font-family="Arial" font-size="14.00" fill="#000000">day_of_week </text>
<text text-anchor="start" x="1606.6422" y="-128.9" font-family="Arial" font-size="14.00" fill="#666666">[enum(&#39;sunday&#39;,&#39;monday&#39;,&#39;tuesday&#39;,&#39;wednesday&#39;,&#39;thursday&#39;,&#39;friday&#39;,&#39;saturday&#39;)]</text>
<polygon fill="none" stroke="#000000" points="1513.5,-87.5 1513.5,-117.5 2088.5,-117.5 2088.5,-87.5 1513.5,-87.5"/>
<text text-anchor="start" x="1520.5" y="-98.9" font-family="Arial" font-size="14.00" fill="#000000">semester </text>
<text text-anchor="start" x="1581.9502" y="-98.9" font-family="Arial" font-size="14.00" fill="#666666">[enum(&#39;first&#39;,&#39;second&#39;)]</text>
<polygon fill="none" stroke="#000000" points="1513.5,-57.5 1513.5,-87.5 2088.5,-87.5 2088.5,-57.5 1513.5,-57.5"/>
<text text-anchor="start" x="1520.5" y="-68.9" font-family="Arial" font-size="14.00" fill="#000000">year </text>
<text text-anchor="start" x="1551.6164" y="-68.9" font-family="Arial" font-size="14.00" fill="#666666">[int unsigned]</text>
</g>
<!-- course_schedules&#45;&gt;schedules -->
<g id="edge8" class="edge">
<title>course_schedules:schedule_id&#45;&gt;schedules:id</title>
<path fill="none" stroke="#000000" d="M1801.9037,-414.2153C1812.1623,-288.9621 2015.1083,-402.9079 2088.5,-286 2110.5946,-250.8049 2130.0556,-192.5 2088.5,-192.5"/>
<polygon fill="#000000" stroke="#000000" points="1801.8923,-414.5077 1797.0035,-424.3234 1801.6962,-419.5038 1801.5,-424.5 1801.5,-424.5 1801.5,-424.5 1801.6962,-419.5038 1805.9965,-424.6766 1801.8923,-414.5077 1801.8923,-414.5077"/>
<text text-anchor="start" x="1808.878" y="-434.5" font-family="Arial" font-size="10.00" fill="#000000">FOREIGN KEY (schedule_id) REFERENCES schedules (id)</text>
</g>
<!-- announcements -->
<g id="node3" class="node">
<title>announcements</title>
<polygon fill="#efefef" stroke="transparent" points="43.5,-529.5 43.5,-564.5 282.5,-564.5 282.5,-529.5 43.5,-529.5"/>
<polygon fill="none" stroke="#000000" points="43.5,-529.5 43.5,-564.5 282.5,-564.5 282.5,-529.5 43.5,-529.5"/>
<text text-anchor="start" x="50.348" y="-542.3" font-family="Arial Bold" font-size="18.00" fill="#000000">announcements</text>
<text text-anchor="start" x="178.3982" y="-542.3" font-family="Arial" font-size="14.00" fill="#000000"> </text>
<text text-anchor="start" x="182.2888" y="-542.3" font-family="Arial" font-size="14.00" fill="#666666">[BASE TABLE]</text>
<polygon fill="none" stroke="#000000" points="43.5,-499.5 43.5,-529.5 282.5,-529.5 282.5,-499.5 43.5,-499.5"/>
<text text-anchor="start" x="50.5" y="-510.9" font-family="Arial" font-size="14.00" fill="#000000">id </text>
<text text-anchor="start" x="65.2798" y="-510.9" font-family="Arial" font-size="14.00" fill="#666666">[char(36)]</text>
<polygon fill="none" stroke="#000000" points="43.5,-469.5 43.5,-499.5 282.5,-499.5 282.5,-469.5 43.5,-469.5"/>
<text text-anchor="start" x="50.5" y="-480.9" font-family="Arial" font-size="14.00" fill="#000000">course_id </text>
<text text-anchor="start" x="115.0708" y="-480.9" font-family="Arial" font-size="14.00" fill="#666666">[char(36)]</text>
<polygon fill="none" stroke="#000000" points="43.5,-439.5 43.5,-469.5 282.5,-469.5 282.5,-439.5 43.5,-439.5"/>
<text text-anchor="start" x="50.5" y="-450.9" font-family="Arial" font-size="14.00" fill="#000000">title </text>
<text text-anchor="start" x="76.1676" y="-450.9" font-family="Arial" font-size="14.00" fill="#666666">[varchar(255)]</text>
<polygon fill="none" stroke="#000000" points="43.5,-409.5 43.5,-439.5 282.5,-439.5 282.5,-409.5 43.5,-409.5"/>
<text text-anchor="start" x="50.5" y="-420.9" font-family="Arial" font-size="14.00" fill="#000000">message </text>
<text text-anchor="start" x="111.1816" y="-420.9" font-family="Arial" font-size="14.00" fill="#666666">[text]</text>
<polygon fill="none" stroke="#000000" points="43.5,-379.5 43.5,-409.5 282.5,-409.5 282.5,-379.5 43.5,-379.5"/>
<text text-anchor="start" x="50.5" y="-390.9" font-family="Arial" font-size="14.00" fill="#000000">created_at </text>
<text text-anchor="start" x="120.528" y="-390.9" font-family="Arial" font-size="14.00" fill="#666666">[datetime(6)]</text>
</g>
<!-- announcements&#45;&gt;courses -->
<g id="edge2" class="edge">
<title>announcements:course_id&#45;&gt;courses:id</title>
<path fill="none" stroke="#000000" d="M292.7151,-483.6332C344.9635,-473.7862 287.1051,-382.5122 334.5,-337 405.1008,-269.2037 657.6184,-207.5 755.5,-207.5"/>
<polygon fill="#000000" stroke="#000000" points="292.4642,-483.6544 282.1195,-480.0161 287.4821,-484.0772 282.5,-484.5 282.5,-484.5 282.5,-484.5 287.4821,-484.0772 282.8805,-488.9839 292.4642,-483.6544 292.4642,-483.6544"/>
<text text-anchor="start" x="159.386" y="-468.5" font-family="Arial" font-size="10.00" fill="#000000">FOREIGN KEY (course_id) REFERENCES courses (id)</text>
</g>
<!-- classes -->
<g id="node4" class="node">
<title>classes</title>
<polygon fill="#efefef" stroke="transparent" points="386.5,-529.5 386.5,-564.5 598.5,-564.5 598.5,-529.5 386.5,-529.5"/>
<polygon fill="none" stroke="#000000" points="386.5,-529.5 386.5,-564.5 598.5,-564.5 598.5,-529.5 386.5,-529.5"/>
<text text-anchor="start" x="413.8698" y="-542.3" font-family="Arial Bold" font-size="18.00" fill="#000000">classes</text>
<text text-anchor="start" x="473.8764" y="-542.3" font-family="Arial" font-size="14.00" fill="#000000"> </text>
<text text-anchor="start" x="477.767" y="-542.3" font-family="Arial" font-size="14.00" fill="#666666">[BASE TABLE]</text>
<polygon fill="none" stroke="#000000" points="386.5,-499.5 386.5,-529.5 598.5,-529.5 598.5,-499.5 386.5,-499.5"/>
<text text-anchor="start" x="393.5" y="-510.9" font-family="Arial" font-size="14.00" fill="#000000">id </text>
<text text-anchor="start" x="408.2798" y="-510.9" font-family="Arial" font-size="14.00" fill="#666666">[char(36)]</text>
<polygon fill="none" stroke="#000000" points="386.5,-469.5 386.5,-499.5 598.5,-499.5 598.5,-469.5 386.5,-469.5"/>
<text text-anchor="start" x="393.5" y="-480.9" font-family="Arial" font-size="14.00" fill="#000000">course_id </text>
<text text-anchor="start" x="458.0708" y="-480.9" font-family="Arial" font-size="14.00" fill="#666666">[char(36)]</text>
<polygon fill="none" stroke="#000000" points="386.5,-439.5 386.5,-469.5 598.5,-469.5 598.5,-439.5 386.5,-439.5"/>
<text text-anchor="start" x="393.5" y="-450.9" font-family="Arial" font-size="14.00" fill="#000000">title </text>
<text text-anchor="start" x="419.1676" y="-450.9" font-family="Arial" font-size="14.00" fill="#666666">[varchar(255)]</text>
<polygon fill="none" stroke="#000000" points="386.5,-409.5 386.5,-439.5 598.5,-439.5 598.5,-409.5 386.5,-409.5"/>
<text text-anchor="start" x="393.5" y="-420.9" font-family="Arial" font-size="14.00" fill="#000000">description </text>
<text text-anchor="start" x="465.068" y="-420.9" font-family="Arial" font-size="14.00" fill="#666666">[text]</text>
<polygon fill="none" stroke="#000000" points="386.5,-379.5 386.5,-409.5 598.5,-409.5 598.5,-379.5 386.5,-379.5"/>
<text text-anchor="start" x="393.3002" y="-390.9" font-family="Arial" font-size="14.00" fill="#000000">attendance_code </text>
<text text-anchor="start" x="504.5806" y="-390.9" font-family="Arial" font-size="14.00" fill="#666666">[varchar(255)]</text>
</g>
<!-- classes&#45;&gt;courses -->
<g id="edge3" class="edge">
<title>classes:course_id&#45;&gt;courses:id</title>
<path fill="none" stroke="#000000" d="M608.5178,-483.7921C662.8211,-475.414 618.3494,-394.4617 650.5,-337 686.6803,-272.3362 681.4026,-207.5 755.5,-207.5"/>
<polygon fill="#000000" stroke="#000000" points="608.4751,-483.795 598.1828,-480.0112 603.4876,-484.1475 598.5,-484.5 598.5,-484.5 598.5,-484.5 603.4876,-484.1475 598.8172,-488.9888 608.4751,-483.795 608.4751,-483.795"/>
<text text-anchor="start" x="605.886" y="-494.5" font-family="Arial" font-size="10.00" fill="#000000">FOREIGN KEY (course_id) REFERENCES courses (id)</text>
</g>
<!-- course_requirements -->
<g id="node5" class="node">
<title>course_requirements</title>
<polygon fill="#efefef" stroke="transparent" points="702.5,-484.5 702.5,-519.5 982.5,-519.5 982.5,-484.5 702.5,-484.5"/>
<polygon fill="none" stroke="#000000" points="702.5,-484.5 702.5,-519.5 982.5,-519.5 982.5,-484.5 702.5,-484.5"/>
<text text-anchor="start" x="709.3595" y="-497.3" font-family="Arial Bold" font-size="18.00" fill="#000000">course_requirements</text>
<text text-anchor="start" x="878.3867" y="-497.3" font-family="Arial" font-size="14.00" fill="#000000"> </text>
<text text-anchor="start" x="882.2773" y="-497.3" font-family="Arial" font-size="14.00" fill="#666666">[BASE TABLE]</text>
<polygon fill="none" stroke="#000000" points="702.5,-454.5 702.5,-484.5 982.5,-484.5 982.5,-454.5 702.5,-454.5"/>
<text text-anchor="start" x="709.5" y="-465.9" font-family="Arial" font-size="14.00" fill="#000000">course_id </text>
<text text-anchor="start" x="774.0708" y="-465.9" font-family="Arial" font-size="14.00" fill="#666666">[char(36)]</text>
<polygon fill="none" stroke="#000000" points="702.5,-424.5 702.5,-454.5 982.5,-454.5 982.5,-424.5 702.5,-424.5"/>
<text text-anchor="start" x="709.5" y="-435.9" font-family="Arial" font-size="14.00" fill="#000000">required_course_id </text>
<text text-anchor="start" x="833.1942" y="-435.9" font-family="Arial" font-size="14.00" fill="#666666">[char(36)]</text>
</g>
<!-- course_requirements&#45;&gt;courses -->
<g id="edge4" class="edge">
<title>course_requirements:course_id&#45;&gt;courses:id</title>
<path fill="none" stroke="#000000" d="M992.3465,-466.5576C1035.2515,-437.7734 985.1889,-207.5 929.5,-207.5"/>
<polygon fill="#000000" stroke="#000000" points="992.0814,-466.6368 981.2115,-465.1884 987.2907,-468.0684 982.5,-469.5 982.5,-469.5 982.5,-469.5 987.2907,-468.0684 983.7885,-473.8116 992.0814,-466.6368 992.0814,-466.6368"/>
<text text-anchor="start" x="859.386" y="-453.5" font-family="Arial" font-size="10.00" fill="#000000">FOREIGN KEY (course_id) REFERENCES courses (id)</text>
</g>
<!-- course_requirements&#45;&gt;courses -->
<g id="edge5" class="edge">
<title>course_requirements:required_course_id&#45;&gt;courses:id</title>
<path fill="none" stroke="#000000" d="M843.04,-414.4805C849.4077,-357.9662 910.2888,-361.6294 929.5,-301 942.0523,-261.3856 971.0556,-207.5 929.5,-207.5"/>
<polygon fill="#000000" stroke="#000000" points="843.0383,-414.5145 838.0065,-424.2578 842.7691,-419.5072 842.5,-424.5 842.5,-424.5 842.5,-424.5 842.7691,-419.5072 846.9935,-424.7422 843.0383,-414.5145 843.0383,-414.5145"/>
<text text-anchor="start" x="546.7705" y="-434.5" font-family="Arial" font-size="10.00" fill="#000000">FOREIGN KEY (required_course_id) REFERENCES courses (id)</text>
</g>
<!-- grades -->
<g id="node6" class="node">
<title>grades</title>
<polygon fill="#efefef" stroke="transparent" points="1086.5,-514.5 1086.5,-549.5 1252.5,-549.5 1252.5,-514.5 1086.5,-514.5"/>
<polygon fill="none" stroke="#000000" points="1086.5,-514.5 1086.5,-549.5 1252.5,-549.5 1252.5,-514.5 1086.5,-514.5"/>
<text text-anchor="start" x="1093.3646" y="-527.3" font-family="Arial Bold" font-size="18.00" fill="#000000">grades</text>
<text text-anchor="start" x="1148.3816" y="-527.3" font-family="Arial" font-size="14.00" fill="#000000"> </text>
<text text-anchor="start" x="1152.2722" y="-527.3" font-family="Arial" font-size="14.00" fill="#666666">[BASE TABLE]</text>
<polygon fill="none" stroke="#000000" points="1086.5,-484.5 1086.5,-514.5 1252.5,-514.5 1252.5,-484.5 1086.5,-484.5"/>
<text text-anchor="start" x="1093.5" y="-495.9" font-family="Arial" font-size="14.00" fill="#000000">id </text>
<text text-anchor="start" x="1108.2798" y="-495.9" font-family="Arial" font-size="14.00" fill="#666666">[char(36)]</text>
<polygon fill="none" stroke="#000000" points="1086.5,-454.5 1086.5,-484.5 1252.5,-484.5 1252.5,-454.5 1086.5,-454.5"/>
<text text-anchor="start" x="1093.5" y="-465.9" font-family="Arial" font-size="14.00" fill="#000000">user_id </text>
<text text-anchor="start" x="1143.2882" y="-465.9" font-family="Arial" font-size="14.00" fill="#666666">[char(36)]</text>
<polygon fill="none" stroke="#000000" points="1086.5,-424.5 1086.5,-454.5 1252.5,-454.5 1252.5,-424.5 1086.5,-424.5"/>
<text text-anchor="start" x="1093.5" y="-435.9" font-family="Arial" font-size="14.00" fill="#000000">course_id </text>
<text text-anchor="start" x="1158.0708" y="-435.9" font-family="Arial" font-size="14.00" fill="#666666">[char(36)]</text>
<polygon fill="none" stroke="#000000" points="1086.5,-394.5 1086.5,-424.5 1252.5,-424.5 1252.5,-394.5 1086.5,-394.5"/>
<text text-anchor="start" x="1093.5" y="-405.9" font-family="Arial" font-size="14.00" fill="#000000">grade </text>
<text text-anchor="start" x="1133.1816" y="-405.9" font-family="Arial" font-size="14.00" fill="#666666">[int unsigned]</text>
</g>
<!-- grades&#45;&gt;courses -->
<g id="edge6" class="edge">
<title>grades:course_id&#45;&gt;courses:id</title>
<path fill="none" stroke="#000000" d="M1076.3603,-438.5456C1039.1062,-430.7392 1060.2342,-376.6764 1034.5,-337 994.179,-274.8338 1003.5974,-207.5 929.5,-207.5"/>
<polygon fill="#000000" stroke="#000000" points="1076.544,-438.5628 1086.0783,-443.9802 1081.522,-439.0314 1086.5,-439.5 1086.5,-439.5 1086.5,-439.5 1081.522,-439.0314 1086.9217,-435.0198 1076.544,-438.5628 1076.544,-438.5628"/>
<text text-anchor="start" x="898.136" y="-423.5" font-family="Arial" font-size="10.00" fill="#000000">FOREIGN KEY (course_id) REFERENCES courses (id)</text>
</g>
<!-- registrations -->
<g id="node7" class="node">
<title>registrations</title>
<polygon fill="#efefef" stroke="transparent" points="1357.5,-514.5 1357.5,-549.5 1566.5,-549.5 1566.5,-514.5 1357.5,-514.5"/>
<polygon fill="none" stroke="#000000" points="1357.5,-514.5 1357.5,-549.5 1566.5,-549.5 1566.5,-514.5 1357.5,-514.5"/>
<text text-anchor="start" x="1364.369" y="-527.3" font-family="Arial Bold" font-size="18.00" fill="#000000">registrations</text>
<text text-anchor="start" x="1462.3772" y="-527.3" font-family="Arial" font-size="14.00" fill="#000000"> </text>
<text text-anchor="start" x="1466.2678" y="-527.3" font-family="Arial" font-size="14.00" fill="#666666">[BASE TABLE]</text>
<polygon fill="none" stroke="#000000" points="1357.5,-484.5 1357.5,-514.5 1566.5,-514.5 1566.5,-484.5 1357.5,-484.5"/>
<text text-anchor="start" x="1364.5" y="-495.9" font-family="Arial" font-size="14.00" fill="#000000">course_id </text>
<text text-anchor="start" x="1429.0708" y="-495.9" font-family="Arial" font-size="14.00" fill="#666666">[char(36)]</text>
<polygon fill="none" stroke="#000000" points="1357.5,-454.5 1357.5,-484.5 1566.5,-484.5 1566.5,-454.5 1357.5,-454.5"/>
<text text-anchor="start" x="1364.5" y="-465.9" font-family="Arial" font-size="14.00" fill="#000000">user_id </text>
<text text-anchor="start" x="1414.2882" y="-465.9" font-family="Arial" font-size="14.00" fill="#666666">[char(36)]</text>
<polygon fill="none" stroke="#000000" points="1357.5,-424.5 1357.5,-454.5 1566.5,-454.5 1566.5,-424.5 1357.5,-424.5"/>
<text text-anchor="start" x="1364.5" y="-435.9" font-family="Arial" font-size="14.00" fill="#000000">created_at </text>
<text text-anchor="start" x="1434.528" y="-435.9" font-family="Arial" font-size="14.00" fill="#666666">[datetime(6)]</text>
<polygon fill="none" stroke="#000000" points="1357.5,-394.5 1357.5,-424.5 1566.5,-424.5 1566.5,-394.5 1357.5,-394.5"/>
<text text-anchor="start" x="1364.5" y="-405.9" font-family="Arial" font-size="14.00" fill="#000000">deleted_at </text>
<text text-anchor="start" x="1433.7566" y="-405.9" font-family="Arial" font-size="14.00" fill="#666666">[datetime(6)]</text>
</g>
<!-- registrations&#45;&gt;courses -->
<g id="edge7" class="edge">
<title>registrations:course_id&#45;&gt;courses:id</title>
<path fill="none" stroke="#000000" d="M1347.4278,-498.7441C1288.668,-489.0507 1355.1514,-388.532 1304.5,-337 1180.8987,-211.2497 1105.8248,-207.5 929.5,-207.5"/>
<polygon fill="#000000" stroke="#000000" points="1347.528,-498.7516 1357.1632,-503.9874 1352.514,-499.1258 1357.5,-499.5 1357.5,-499.5 1357.5,-499.5 1352.514,-499.1258 1357.8368,-495.0126 1347.528,-498.7516 1347.528,-498.7516"/>
<text text-anchor="start" x="1103.886" y="-509.5" font-family="Arial" font-size="10.00" fill="#000000">FOREIGN KEY (course_id) REFERENCES courses (id)</text>
</g>
</g>
</svg>
