<?xml version="1.0" encoding="UTF-8" standalone="no"?>
<!DOCTYPE svg PUBLIC "-//W3C//DTD SVG 1.1//EN"
 "http://www.w3.org/Graphics/SVG/1.1/DTD/svg11.dtd">
<!-- Generated by graphviz version 2.40.1 (20161225.0304)
 -->
<!-- Title: courses Pages: 1 -->
<svg width="2213pt" height="959pt"
 viewBox="0.00 0.00 2212.50 959.00" xmlns="http://www.w3.org/2000/svg" xmlns:xlink="http://www.w3.org/1999/xlink">
<g id="graph0" class="graph" transform="scale(1 1) rotate(0) translate(4 955)">
<title>courses</title>
<polygon fill="#ffffff" stroke="transparent" points="-4,4 -4,-955 2208.5,-955 2208.5,4 -4,4"/>
<!-- courses -->
<g id="node1" class="node">
<title>courses</title>
<polygon fill="#efefef" stroke="transparent" points="981.5,-225.5 981.5,-260.5 1155.5,-260.5 1155.5,-225.5 981.5,-225.5"/>
<polygon fill="none" stroke="#000000" points="981.5,-225.5 981.5,-260.5 1155.5,-260.5 1155.5,-225.5 981.5,-225.5"/>
<text text-anchor="start" x="988.3677" y="-238.3" font-family="Arial Bold" font-size="18.00" fill="#000000">courses</text>
<text text-anchor="start" x="1051.3785" y="-238.3" font-family="Arial" font-size="14.00" fill="#000000"> </text>
<text text-anchor="start" x="1055.2691" y="-238.3" font-family="Arial" font-size="14.00" fill="#666666">[BASE TABLE]</text>
<polygon fill="none" stroke="#000000" points="981.5,-195.5 981.5,-225.5 1155.5,-225.5 1155.5,-195.5 981.5,-195.5"/>
<text text-anchor="start" x="988.5" y="-206.9" font-family="Arial" font-size="14.00" fill="#000000">id </text>
<text text-anchor="start" x="1003.2798" y="-206.9" font-family="Arial" font-size="14.00" fill="#666666">[char(36)]</text>
<polygon fill="none" stroke="#000000" points="981.5,-165.5 981.5,-195.5 1155.5,-195.5 1155.5,-165.5 981.5,-165.5"/>
<text text-anchor="start" x="988.5" y="-176.9" font-family="Arial" font-size="14.00" fill="#000000">name </text>
<text text-anchor="start" x="1027.399" y="-176.9" font-family="Arial" font-size="14.00" fill="#666666">[varchar(255)]</text>
<polygon fill="none" stroke="#000000" points="981.5,-135.5 981.5,-165.5 1155.5,-165.5 1155.5,-135.5 981.5,-135.5"/>
<text text-anchor="start" x="988.5" y="-146.9" font-family="Arial" font-size="14.00" fill="#000000">description </text>
<text text-anchor="start" x="1060.068" y="-146.9" font-family="Arial" font-size="14.00" fill="#666666">[text]</text>
<polygon fill="none" stroke="#000000" points="981.5,-105.5 981.5,-135.5 1155.5,-135.5 1155.5,-105.5 981.5,-105.5"/>
<text text-anchor="start" x="988.5" y="-116.9" font-family="Arial" font-size="14.00" fill="#000000">credit </text>
<text text-anchor="start" x="1026.6136" y="-116.9" font-family="Arial" font-size="14.00" fill="#666666">[tinyint unsigned]</text>
<polygon fill="none" stroke="#000000" points="981.5,-75.5 981.5,-105.5 1155.5,-105.5 1155.5,-75.5 981.5,-75.5"/>
<text text-anchor="start" x="988.5" y="-86.9" font-family="Arial" font-size="14.00" fill="#000000">classroom </text>
<text text-anchor="start" x="1056.1662" y="-86.9" font-family="Arial" font-size="14.00" fill="#666666">[varchar(255)]</text>
<polygon fill="none" stroke="#000000" points="981.5,-45.5 981.5,-75.5 1155.5,-75.5 1155.5,-45.5 981.5,-45.5"/>
<text text-anchor="start" x="988.5" y="-56.9" font-family="Arial" font-size="14.00" fill="#000000">capacity </text>
<text text-anchor="start" x="1043.7356" y="-56.9" font-family="Arial" font-size="14.00" fill="#666666">[int unsigned]</text>
<polygon fill="none" stroke="#000000" stroke-width="3" points="980,-44.5 980,-262.5 1157,-262.5 1157,-44.5 980,-44.5"/>
</g>
<!-- announcements -->
<g id="node2" class="node">
<title>announcements</title>
<polygon fill="#efefef" stroke="transparent" points="241.5,-535.5 241.5,-570.5 480.5,-570.5 480.5,-535.5 241.5,-535.5"/>
<polygon fill="none" stroke="#000000" points="241.5,-535.5 241.5,-570.5 480.5,-570.5 480.5,-535.5 241.5,-535.5"/>
<text text-anchor="start" x="248.348" y="-548.3" font-family="Arial Bold" font-size="18.00" fill="#000000">announcements</text>
<text text-anchor="start" x="376.3982" y="-548.3" font-family="Arial" font-size="14.00" fill="#000000"> </text>
<text text-anchor="start" x="380.2888" y="-548.3" font-family="Arial" font-size="14.00" fill="#666666">[BASE TABLE]</text>
<polygon fill="none" stroke="#000000" points="241.5,-505.5 241.5,-535.5 480.5,-535.5 480.5,-505.5 241.5,-505.5"/>
<text text-anchor="start" x="248.5" y="-516.9" font-family="Arial" font-size="14.00" fill="#000000">id </text>
<text text-anchor="start" x="263.2798" y="-516.9" font-family="Arial" font-size="14.00" fill="#666666">[char(36)]</text>
<polygon fill="none" stroke="#000000" points="241.5,-475.5 241.5,-505.5 480.5,-505.5 480.5,-475.5 241.5,-475.5"/>
<text text-anchor="start" x="248.5" y="-486.9" font-family="Arial" font-size="14.00" fill="#000000">course_id </text>
<text text-anchor="start" x="313.0708" y="-486.9" font-family="Arial" font-size="14.00" fill="#666666">[char(36)]</text>
<polygon fill="none" stroke="#000000" points="241.5,-445.5 241.5,-475.5 480.5,-475.5 480.5,-445.5 241.5,-445.5"/>
<text text-anchor="start" x="248.5" y="-456.9" font-family="Arial" font-size="14.00" fill="#000000">title </text>
<text text-anchor="start" x="274.1676" y="-456.9" font-family="Arial" font-size="14.00" fill="#666666">[varchar(255)]</text>
<polygon fill="none" stroke="#000000" points="241.5,-415.5 241.5,-445.5 480.5,-445.5 480.5,-415.5 241.5,-415.5"/>
<text text-anchor="start" x="248.5" y="-426.9" font-family="Arial" font-size="14.00" fill="#000000">message </text>
<text text-anchor="start" x="309.1816" y="-426.9" font-family="Arial" font-size="14.00" fill="#666666">[text]</text>
<polygon fill="none" stroke="#000000" points="241.5,-385.5 241.5,-415.5 480.5,-415.5 480.5,-385.5 241.5,-385.5"/>
<text text-anchor="start" x="248.5" y="-396.9" font-family="Arial" font-size="14.00" fill="#000000">created_at </text>
<text text-anchor="start" x="318.528" y="-396.9" font-family="Arial" font-size="14.00" fill="#666666">[datetime(6)]</text>
</g>
<!-- announcements&#45;&gt;courses -->
<g id="edge1" class="edge">
<title>announcements:course_id&#45;&gt;courses:id</title>
<path fill="none" stroke="#000000" d="M490.6762,-489.6887C545.396,-480.1072 492.4391,-388.0719 542.5,-343 618.2304,-274.8167 879.5978,-210.5 981.5,-210.5"/>
<polygon fill="#000000" stroke="#000000" points="490.4684,-489.7052 480.1423,-486.0142 485.4842,-490.1026 480.5,-490.5 480.5,-490.5 480.5,-490.5 485.4842,-490.1026 480.8577,-494.9858 490.4684,-489.7052 490.4684,-489.7052"/>
<text text-anchor="start" x="357.386" y="-474.5" font-family="Arial" font-size="10.00" fill="#000000">FOREIGN KEY (course_id) REFERENCES courses (id)</text>
</g>
<!-- unread_announcements -->
<g id="node3" class="node">
<title>unread_announcements</title>
<polygon fill="#efefef" stroke="transparent" points="43.5,-842.5 43.5,-877.5 348.5,-877.5 348.5,-842.5 43.5,-842.5"/>
<polygon fill="none" stroke="#000000" points="43.5,-842.5 43.5,-877.5 348.5,-877.5 348.5,-842.5 43.5,-842.5"/>
<text text-anchor="start" x="50.3333" y="-855.3" font-family="Arial Bold" font-size="18.00" fill="#000000">unread_announcements</text>
<text text-anchor="start" x="244.4129" y="-855.3" font-family="Arial" font-size="14.00" fill="#000000"> </text>
<text text-anchor="start" x="248.3035" y="-855.3" font-family="Arial" font-size="14.00" fill="#666666">[BASE TABLE]</text>
<polygon fill="none" stroke="#000000" points="43.5,-812.5 43.5,-842.5 348.5,-842.5 348.5,-812.5 43.5,-812.5"/>
<text text-anchor="start" x="50.5" y="-823.9" font-family="Arial" font-size="14.00" fill="#000000">announcement_id </text>
<text text-anchor="start" x="165.657" y="-823.9" font-family="Arial" font-size="14.00" fill="#666666">[char(36)]</text>
<polygon fill="none" stroke="#000000" points="43.5,-782.5 43.5,-812.5 348.5,-812.5 348.5,-782.5 43.5,-782.5"/>
<text text-anchor="start" x="50.5" y="-793.9" font-family="Arial" font-size="14.00" fill="#000000">user_id </text>
<text text-anchor="start" x="100.2882" y="-793.9" font-family="Arial" font-size="14.00" fill="#666666">[char(36)]</text>
<polygon fill="none" stroke="#000000" points="43.5,-752.5 43.5,-782.5 348.5,-782.5 348.5,-752.5 43.5,-752.5"/>
<text text-anchor="start" x="50.5" y="-763.9" font-family="Arial" font-size="14.00" fill="#000000">created_at </text>
<text text-anchor="start" x="120.528" y="-763.9" font-family="Arial" font-size="14.00" fill="#666666">[datetime(6)]</text>
<polygon fill="none" stroke="#000000" points="43.5,-722.5 43.5,-752.5 348.5,-752.5 348.5,-722.5 43.5,-722.5"/>
<text text-anchor="start" x="50.5" y="-733.9" font-family="Arial" font-size="14.00" fill="#000000">delete_at </text>
<text text-anchor="start" x="111.974" y="-733.9" font-family="Arial" font-size="14.00" fill="#666666">[datetime(6)]</text>
</g>
<!-- unread_announcements&#45;&gt;announcements -->
<g id="edge2" class="edge">
<title>unread_announcements:announcement_id&#45;&gt;announcements:id</title>
<path fill="none" stroke="#000000" d="M358.7033,-826.6537C410.2538,-817.3816 378.6388,-734.0013 348.5,-680 321.2696,-631.2098 268.7304,-662.7902 241.5,-614 221.248,-577.7134 199.9444,-520.5 241.5,-520.5"/>
<polygon fill="#000000" stroke="#000000" points="358.4658,-826.6733 348.128,-823.0154 353.4829,-827.0867 348.5,-827.5 348.5,-827.5 348.5,-827.5 353.4829,-827.0867 348.872,-831.9846 358.4658,-826.6733 358.4658,-826.6733"/>
<text text-anchor="start" x="355.753" y="-837.5" font-family="Arial" font-size="10.00" fill="#000000">FOREIGN KEY (announcement_id) REFERENCES announcements (id)</text>
</g>
<!-- classes -->
<g id="node4" class="node">
<title>classes</title>
<polygon fill="#efefef" stroke="transparent" points="594.5,-535.5 594.5,-570.5 824.5,-570.5 824.5,-535.5 594.5,-535.5"/>
<polygon fill="none" stroke="#000000" points="594.5,-535.5 594.5,-570.5 824.5,-570.5 824.5,-535.5 594.5,-535.5"/>
<text text-anchor="start" x="630.8698" y="-548.3" font-family="Arial Bold" font-size="18.00" fill="#000000">classes</text>
<text text-anchor="start" x="690.8764" y="-548.3" font-family="Arial" font-size="14.00" fill="#000000"> </text>
<text text-anchor="start" x="694.767" y="-548.3" font-family="Arial" font-size="14.00" fill="#666666">[BASE TABLE]</text>
<polygon fill="none" stroke="#000000" points="594.5,-505.5 594.5,-535.5 824.5,-535.5 824.5,-505.5 594.5,-505.5"/>
<text text-anchor="start" x="601.5" y="-516.9" font-family="Arial" font-size="14.00" fill="#000000">id </text>
<text text-anchor="start" x="616.2798" y="-516.9" font-family="Arial" font-size="14.00" fill="#666666">[char(36)]</text>
<polygon fill="none" stroke="#000000" points="594.5,-475.5 594.5,-505.5 824.5,-505.5 824.5,-475.5 594.5,-475.5"/>
<text text-anchor="start" x="601.5" y="-486.9" font-family="Arial" font-size="14.00" fill="#000000">course_id </text>
<text text-anchor="start" x="666.0708" y="-486.9" font-family="Arial" font-size="14.00" fill="#666666">[char(36)]</text>
<polygon fill="none" stroke="#000000" points="594.5,-445.5 594.5,-475.5 824.5,-475.5 824.5,-445.5 594.5,-445.5"/>
<text text-anchor="start" x="601.5" y="-456.9" font-family="Arial" font-size="14.00" fill="#000000">title </text>
<text text-anchor="start" x="627.1676" y="-456.9" font-family="Arial" font-size="14.00" fill="#666666">[varchar(255)]</text>
<polygon fill="none" stroke="#000000" points="594.5,-415.5 594.5,-445.5 824.5,-445.5 824.5,-415.5 594.5,-415.5"/>
<text text-anchor="start" x="601.5" y="-426.9" font-family="Arial" font-size="14.00" fill="#000000">description </text>
<text text-anchor="start" x="673.068" y="-426.9" font-family="Arial" font-size="14.00" fill="#666666">[text]</text>
<polygon fill="none" stroke="#000000" points="594.5,-385.5 594.5,-415.5 824.5,-415.5 824.5,-385.5 594.5,-385.5"/>
<text text-anchor="start" x="601.343" y="-396.9" font-family="Arial" font-size="14.00" fill="#000000">attendance_code </text>
<text text-anchor="start" x="712.6234" y="-396.9" font-family="Arial" font-size="14.00" fill="#666666">[tinyint unsigned]</text>
</g>
<!-- classes&#45;&gt;courses -->
<g id="edge3" class="edge">
<title>classes:course_id&#45;&gt;courses:id</title>
<path fill="none" stroke="#000000" d="M834.5205,-489.7936C888.8551,-481.4328 844.671,-400.6404 876.5,-343 912.8213,-277.2243 906.3623,-210.5 981.5,-210.5"/>
<polygon fill="#000000" stroke="#000000" points="834.4752,-489.7967 824.1835,-486.0111 829.4876,-490.1483 824.5,-490.5 824.5,-490.5 824.5,-490.5 829.4876,-490.1483 824.8165,-494.9889 834.4752,-489.7967 834.4752,-489.7967"/>
<text text-anchor="start" x="831.886" y="-500.5" font-family="Arial" font-size="10.00" fill="#000000">FOREIGN KEY (course_id) REFERENCES courses (id)</text>
</g>
<!-- assignment -->
<g id="node5" class="node">
<title>assignment</title>
<polygon fill="#efefef" stroke="transparent" points="452.5,-872.5 452.5,-907.5 655.5,-907.5 655.5,-872.5 452.5,-872.5"/>
<polygon fill="none" stroke="#000000" points="452.5,-872.5 452.5,-907.5 655.5,-907.5 655.5,-872.5 452.5,-872.5"/>
<text text-anchor="start" x="459.3633" y="-885.3" font-family="Arial Bold" font-size="18.00" fill="#000000">assignment</text>
<text text-anchor="start" x="551.3829" y="-885.3" font-family="Arial" font-size="14.00" fill="#000000"> </text>
<text text-anchor="start" x="555.2735" y="-885.3" font-family="Arial" font-size="14.00" fill="#666666">[BASE TABLE]</text>
<polygon fill="none" stroke="#000000" points="452.5,-842.5 452.5,-872.5 655.5,-872.5 655.5,-842.5 452.5,-842.5"/>
<text text-anchor="start" x="459.5" y="-853.9" font-family="Arial" font-size="14.00" fill="#000000">id </text>
<text text-anchor="start" x="474.2798" y="-853.9" font-family="Arial" font-size="14.00" fill="#666666">[char(36)]</text>
<polygon fill="none" stroke="#000000" points="452.5,-812.5 452.5,-842.5 655.5,-842.5 655.5,-812.5 452.5,-812.5"/>
<text text-anchor="start" x="459.5" y="-823.9" font-family="Arial" font-size="14.00" fill="#000000">class_id </text>
<text text-anchor="start" x="513.9516" y="-823.9" font-family="Arial" font-size="14.00" fill="#666666">[char(36)]</text>
<polygon fill="none" stroke="#000000" points="452.5,-782.5 452.5,-812.5 655.5,-812.5 655.5,-782.5 452.5,-782.5"/>
<text text-anchor="start" x="459.5" y="-793.9" font-family="Arial" font-size="14.00" fill="#000000">name </text>
<text text-anchor="start" x="498.399" y="-793.9" font-family="Arial" font-size="14.00" fill="#666666">[varchar(255)]</text>
<polygon fill="none" stroke="#000000" points="452.5,-752.5 452.5,-782.5 655.5,-782.5 655.5,-752.5 452.5,-752.5"/>
<text text-anchor="start" x="459.5" y="-763.9" font-family="Arial" font-size="14.00" fill="#000000">description </text>
<text text-anchor="start" x="531.068" y="-763.9" font-family="Arial" font-size="14.00" fill="#666666">[text]</text>
<polygon fill="none" stroke="#000000" points="452.5,-722.5 452.5,-752.5 655.5,-752.5 655.5,-722.5 452.5,-722.5"/>
<text text-anchor="start" x="459.5" y="-733.9" font-family="Arial" font-size="14.00" fill="#000000">deadline </text>
<text text-anchor="start" x="516.2994" y="-733.9" font-family="Arial" font-size="14.00" fill="#666666">[datetime(6)]</text>
<polygon fill="none" stroke="#000000" points="452.5,-692.5 452.5,-722.5 655.5,-722.5 655.5,-692.5 452.5,-692.5"/>
<text text-anchor="start" x="459.5" y="-703.9" font-family="Arial" font-size="14.00" fill="#000000">created_at </text>
<text text-anchor="start" x="529.528" y="-703.9" font-family="Arial" font-size="14.00" fill="#666666">[datetime(6)]</text>
</g>
<!-- assignment&#45;&gt;classes -->
<g id="edge4" class="edge">
<title>assignment:class_id&#45;&gt;classes:id</title>
<path fill="none" stroke="#000000" d="M665.8239,-826.7969C730.6618,-817.3709 692.7839,-715.2962 655.5,-650 639.8903,-622.6623 610.1097,-641.3377 594.5,-614 573.8944,-577.913 552.9444,-520.5 594.5,-520.5"/>
<polygon fill="#000000" stroke="#000000" points="665.4769,-826.8205 655.1942,-823.0104 660.4884,-827.1602 655.5,-827.5 655.5,-827.5 655.5,-827.5 660.4884,-827.1602 655.8058,-831.9896 665.4769,-826.8205 665.4769,-826.8205"/>
<text text-anchor="start" x="410.3345" y="-811.5" font-family="Arial" font-size="10.00" fill="#000000">FOREIGN KEY (class_id) REFERENCES classes (id)</text>
</g>
<!-- attendances -->
<g id="node6" class="node">
<title>attendances</title>
<polygon fill="#efefef" stroke="transparent" points="759.5,-827.5 759.5,-862.5 968.5,-862.5 968.5,-827.5 759.5,-827.5"/>
<polygon fill="none" stroke="#000000" points="759.5,-827.5 759.5,-862.5 968.5,-862.5 968.5,-827.5 759.5,-827.5"/>
<text text-anchor="start" x="766.3492" y="-840.3" font-family="Arial Bold" font-size="18.00" fill="#000000">attendances</text>
<text text-anchor="start" x="864.397" y="-840.3" font-family="Arial" font-size="14.00" fill="#000000"> </text>
<text text-anchor="start" x="868.2876" y="-840.3" font-family="Arial" font-size="14.00" fill="#666666">[BASE TABLE]</text>
<polygon fill="none" stroke="#000000" points="759.5,-797.5 759.5,-827.5 968.5,-827.5 968.5,-797.5 759.5,-797.5"/>
<text text-anchor="start" x="766.5" y="-808.9" font-family="Arial" font-size="14.00" fill="#000000">class_id </text>
<text text-anchor="start" x="820.9516" y="-808.9" font-family="Arial" font-size="14.00" fill="#666666">[char(36)]</text>
<polygon fill="none" stroke="#000000" points="759.5,-767.5 759.5,-797.5 968.5,-797.5 968.5,-767.5 759.5,-767.5"/>
<text text-anchor="start" x="766.5" y="-778.9" font-family="Arial" font-size="14.00" fill="#000000">user_id </text>
<text text-anchor="start" x="816.2882" y="-778.9" font-family="Arial" font-size="14.00" fill="#666666">[char(36)]</text>
<polygon fill="none" stroke="#000000" points="759.5,-737.5 759.5,-767.5 968.5,-767.5 968.5,-737.5 759.5,-737.5"/>
<text text-anchor="start" x="766.5" y="-748.9" font-family="Arial" font-size="14.00" fill="#000000">created_at </text>
<text text-anchor="start" x="836.528" y="-748.9" font-family="Arial" font-size="14.00" fill="#666666">[datetime(6)]</text>
</g>
<!-- attendances&#45;&gt;classes -->
<g id="edge5" class="edge">
<title>attendances:class_id&#45;&gt;classes:id</title>
<path fill="none" stroke="#000000" d="M749.2693,-811.4081C712.3613,-802.4759 743.4627,-740.6089 759.5,-695 774.8114,-651.4554 809.1886,-657.5446 824.5,-614 838.2847,-574.7974 866.0556,-520.5 824.5,-520.5"/>
<polygon fill="#000000" stroke="#000000" points="749.5565,-811.4386 759.0224,-816.9746 754.5282,-811.9693 759.5,-812.5 759.5,-812.5 759.5,-812.5 754.5282,-811.9693 759.9776,-808.0254 749.5565,-811.4386 749.5565,-811.4386"/>
<text text-anchor="start" x="766.3345" y="-822.5" font-family="Arial" font-size="10.00" fill="#000000">FOREIGN KEY (class_id) REFERENCES classes (id)</text>
</g>
<!-- documents -->
<g id="node7" class="node">
<title>documents</title>
<polygon fill="#efefef" stroke="transparent" points="1072.5,-842.5 1072.5,-877.5 1271.5,-877.5 1271.5,-842.5 1072.5,-842.5"/>
<polygon fill="none" stroke="#000000" points="1072.5,-842.5 1072.5,-877.5 1271.5,-877.5 1271.5,-842.5 1072.5,-842.5"/>
<text text-anchor="start" x="1079.3604" y="-855.3" font-family="Arial Bold" font-size="18.00" fill="#000000">documents</text>
<text text-anchor="start" x="1167.3858" y="-855.3" font-family="Arial" font-size="14.00" fill="#000000"> </text>
<text text-anchor="start" x="1171.2764" y="-855.3" font-family="Arial" font-size="14.00" fill="#666666">[BASE TABLE]</text>
<polygon fill="none" stroke="#000000" points="1072.5,-812.5 1072.5,-842.5 1271.5,-842.5 1271.5,-812.5 1072.5,-812.5"/>
<text text-anchor="start" x="1079.5" y="-823.9" font-family="Arial" font-size="14.00" fill="#000000">id </text>
<text text-anchor="start" x="1094.2798" y="-823.9" font-family="Arial" font-size="14.00" fill="#666666">[char(36)]</text>
<polygon fill="none" stroke="#000000" points="1072.5,-782.5 1072.5,-812.5 1271.5,-812.5 1271.5,-782.5 1072.5,-782.5"/>
<text text-anchor="start" x="1079.5" y="-793.9" font-family="Arial" font-size="14.00" fill="#000000">class_id </text>
<text text-anchor="start" x="1133.9516" y="-793.9" font-family="Arial" font-size="14.00" fill="#666666">[char(36)]</text>
<polygon fill="none" stroke="#000000" points="1072.5,-752.5 1072.5,-782.5 1271.5,-782.5 1271.5,-752.5 1072.5,-752.5"/>
<text text-anchor="start" x="1079.5" y="-763.9" font-family="Arial" font-size="14.00" fill="#000000">name </text>
<text text-anchor="start" x="1118.399" y="-763.9" font-family="Arial" font-size="14.00" fill="#666666">[text]</text>
<polygon fill="none" stroke="#000000" points="1072.5,-722.5 1072.5,-752.5 1271.5,-752.5 1271.5,-722.5 1072.5,-722.5"/>
<text text-anchor="start" x="1079.5" y="-733.9" font-family="Arial" font-size="14.00" fill="#000000">created_at </text>
<text text-anchor="start" x="1149.528" y="-733.9" font-family="Arial" font-size="14.00" fill="#666666">[datetime(6)]</text>
</g>
<!-- documents&#45;&gt;classes -->
<g id="edge6" class="edge">
<title>documents:class_id&#45;&gt;classes:id</title>
<path fill="none" stroke="#000000" d="M1062.267,-796.6216C1009.9501,-786.6447 1068.2948,-694.2181 1019.5,-650 970.9356,-605.9908 928.4779,-653.92 876.5,-614 838.7888,-585.0371 872.0498,-520.5 824.5,-520.5"/>
<polygon fill="#000000" stroke="#000000" points="1062.5366,-796.6446 1072.1151,-801.9835 1067.5183,-797.0723 1072.5,-797.5 1072.5,-797.5 1072.5,-797.5 1067.5183,-797.0723 1072.8849,-793.0165 1062.5366,-796.6446 1062.5366,-796.6446"/>
<text text-anchor="start" x="1079.3345" y="-807.5" font-family="Arial" font-size="10.00" fill="#000000">FOREIGN KEY (class_id) REFERENCES classes (id)</text>
</g>
<!-- course_requirements -->
<g id="node8" class="node">
<title>course_requirements</title>
<polygon fill="#efefef" stroke="transparent" points="928.5,-490.5 928.5,-525.5 1208.5,-525.5 1208.5,-490.5 928.5,-490.5"/>
<polygon fill="none" stroke="#000000" points="928.5,-490.5 928.5,-525.5 1208.5,-525.5 1208.5,-490.5 928.5,-490.5"/>
<text text-anchor="start" x="935.3595" y="-503.3" font-family="Arial Bold" font-size="18.00" fill="#000000">course_requirements</text>
<text text-anchor="start" x="1104.3867" y="-503.3" font-family="Arial" font-size="14.00" fill="#000000"> </text>
<text text-anchor="start" x="1108.2773" y="-503.3" font-family="Arial" font-size="14.00" fill="#666666">[BASE TABLE]</text>
<polygon fill="none" stroke="#000000" points="928.5,-460.5 928.5,-490.5 1208.5,-490.5 1208.5,-460.5 928.5,-460.5"/>
<text text-anchor="start" x="935.5" y="-471.9" font-family="Arial" font-size="14.00" fill="#000000">course_id </text>
<text text-anchor="start" x="1000.0708" y="-471.9" font-family="Arial" font-size="14.00" fill="#666666">[char(36)]</text>
<polygon fill="none" stroke="#000000" points="928.5,-430.5 928.5,-460.5 1208.5,-460.5 1208.5,-430.5 928.5,-430.5"/>
<text text-anchor="start" x="935.5" y="-441.9" font-family="Arial" font-size="14.00" fill="#000000">required_course_id </text>
<text text-anchor="start" x="1059.1942" y="-441.9" font-family="Arial" font-size="14.00" fill="#666666">[char(36)]</text>
</g>
<!-- course_requirements&#45;&gt;courses -->
<g id="edge7" class="edge">
<title>course_requirements:course_id&#45;&gt;courses:id</title>
<path fill="none" stroke="#000000" d="M1215.1908,-467.8549C1227.9989,-424.4053 1182.4779,-210.5 1155.5,-210.5"/>
<polygon fill="#000000" stroke="#000000" points="1215.0858,-467.9748 1205.1137,-472.5364 1211.7929,-471.7374 1208.5,-475.5 1208.5,-475.5 1208.5,-475.5 1211.7929,-471.7374 1211.8863,-478.4636 1215.0858,-467.9748 1215.0858,-467.9748"/>
<text text-anchor="start" x="1085.386" y="-459.5" font-family="Arial" font-size="10.00" fill="#000000">FOREIGN KEY (course_id) REFERENCES courses (id)</text>
</g>
<!-- course_requirements&#45;&gt;courses -->
<g id="edge8" class="edge">
<title>course_requirements:required_course_id&#45;&gt;courses:id</title>
<path fill="none" stroke="#000000" d="M1069.04,-420.4805C1075.4077,-363.9662 1136.2888,-367.6294 1155.5,-307 1168.4551,-266.1145 1198.3889,-210.5 1155.5,-210.5"/>
<polygon fill="#000000" stroke="#000000" points="1069.0383,-420.5145 1064.0065,-430.2578 1068.7691,-425.5072 1068.5,-430.5 1068.5,-430.5 1068.5,-430.5 1068.7691,-425.5072 1072.9935,-430.7422 1069.0383,-420.5145 1069.0383,-420.5145"/>
<text text-anchor="start" x="772.7705" y="-440.5" font-family="Arial" font-size="10.00" fill="#000000">FOREIGN KEY (required_course_id) REFERENCES courses (id)</text>
</g>
<!-- course_schedules -->
<g id="node9" class="node">
<title>course_schedules</title>
<polygon fill="#efefef" stroke="transparent" points="1312.5,-490.5 1312.5,-525.5 1568.5,-525.5 1568.5,-490.5 1312.5,-490.5"/>
<polygon fill="none" stroke="#000000" points="1312.5,-490.5 1312.5,-525.5 1568.5,-525.5 1568.5,-490.5 1312.5,-490.5"/>
<text text-anchor="start" x="1319.352" y="-503.3" font-family="Arial Bold" font-size="18.00" fill="#000000">course_schedules</text>
<text text-anchor="start" x="1464.3942" y="-503.3" font-family="Arial" font-size="14.00" fill="#000000"> </text>
<text text-anchor="start" x="1468.2848" y="-503.3" font-family="Arial" font-size="14.00" fill="#666666">[BASE TABLE]</text>
<polygon fill="none" stroke="#000000" points="1312.5,-460.5 1312.5,-490.5 1568.5,-490.5 1568.5,-460.5 1312.5,-460.5"/>
<text text-anchor="start" x="1319.5" y="-471.9" font-family="Arial" font-size="14.00" fill="#000000">course_id </text>
<text text-anchor="start" x="1384.0708" y="-471.9" font-family="Arial" font-size="14.00" fill="#666666">[char(36)]</text>
<polygon fill="none" stroke="#000000" points="1312.5,-430.5 1312.5,-460.5 1568.5,-460.5 1568.5,-430.5 1312.5,-430.5"/>
<text text-anchor="start" x="1319.5" y="-441.9" font-family="Arial" font-size="14.00" fill="#000000">schedule_id </text>
<text text-anchor="start" x="1398.082" y="-441.9" font-family="Arial" font-size="14.00" fill="#666666">[char(36)]</text>
</g>
<!-- course_schedules&#45;&gt;courses -->
<g id="edge9" class="edge">
<title>course_schedules:course_id&#45;&gt;courses:id</title>
<path fill="none" stroke="#000000" d="M1302.504,-474.6748C1254.774,-465.9599 1296.8054,-390.209 1260.5,-343 1244.0261,-321.5785 1229.5512,-327.1104 1211.5,-307 1178.3766,-270.098 1205.0874,-210.5 1155.5,-210.5"/>
<polygon fill="#000000" stroke="#000000" points="1302.5339,-474.6772 1312.1297,-479.9847 1307.5169,-475.0886 1312.5,-475.5 1312.5,-475.5 1312.5,-475.5 1307.5169,-475.0886 1312.8703,-471.0153 1302.5339,-474.6772 1302.5339,-474.6772"/>
<text text-anchor="start" x="1058.886" y="-485.5" font-family="Arial" font-size="10.00" fill="#000000">FOREIGN KEY (course_id) REFERENCES courses (id)</text>
</g>
<!-- schedules -->
<g id="node10" class="node">
<title>schedules</title>
<polygon fill="#efefef" stroke="transparent" points="1263.5,-210.5 1263.5,-245.5 1838.5,-245.5 1838.5,-210.5 1263.5,-210.5"/>
<polygon fill="none" stroke="#000000" points="1263.5,-210.5 1263.5,-245.5 1838.5,-245.5 1838.5,-210.5 1263.5,-210.5"/>
<text text-anchor="start" x="1461.8605" y="-223.3" font-family="Arial Bold" font-size="18.00" fill="#000000">schedules</text>
<text text-anchor="start" x="1542.8857" y="-223.3" font-family="Arial" font-size="14.00" fill="#000000"> </text>
<text text-anchor="start" x="1546.7763" y="-223.3" font-family="Arial" font-size="14.00" fill="#666666">[BASE TABLE]</text>
<polygon fill="none" stroke="#000000" points="1263.5,-180.5 1263.5,-210.5 1838.5,-210.5 1838.5,-180.5 1263.5,-180.5"/>
<text text-anchor="start" x="1270.5" y="-191.9" font-family="Arial" font-size="14.00" fill="#000000">id </text>
<text text-anchor="start" x="1285.2798" y="-191.9" font-family="Arial" font-size="14.00" fill="#666666">[char(36)]</text>
<polygon fill="none" stroke="#000000" points="1263.5,-150.5 1263.5,-180.5 1838.5,-180.5 1838.5,-150.5 1263.5,-150.5"/>
<text text-anchor="start" x="1270.5" y="-161.9" font-family="Arial" font-size="14.00" fill="#000000">period </text>
<text text-anchor="start" x="1313.2882" y="-161.9" font-family="Arial" font-size="14.00" fill="#666666">[tinyint unsigned]</text>
<polygon fill="none" stroke="#000000" points="1263.5,-120.5 1263.5,-150.5 1838.5,-150.5 1838.5,-120.5 1263.5,-120.5"/>
<text text-anchor="start" x="1270.2762" y="-131.9" font-family="Arial" font-size="14.00" fill="#000000">day_of_week </text>
<text text-anchor="start" x="1356.6422" y="-131.9" font-family="Arial" font-size="14.00" fill="#666666">[enum(&#39;sunday&#39;,&#39;monday&#39;,&#39;tuesday&#39;,&#39;wednesday&#39;,&#39;thursday&#39;,&#39;friday&#39;,&#39;saturday&#39;)]</text>
<polygon fill="none" stroke="#000000" points="1263.5,-90.5 1263.5,-120.5 1838.5,-120.5 1838.5,-90.5 1263.5,-90.5"/>
<text text-anchor="start" x="1270.5" y="-101.9" font-family="Arial" font-size="14.00" fill="#000000">semester </text>
<text text-anchor="start" x="1331.9502" y="-101.9" font-family="Arial" font-size="14.00" fill="#666666">[enum(&#39;first&#39;,&#39;second&#39;)]</text>
<polygon fill="none" stroke="#000000" points="1263.5,-60.5 1263.5,-90.5 1838.5,-90.5 1838.5,-60.5 1263.5,-60.5"/>
<text text-anchor="start" x="1270.5" y="-71.9" font-family="Arial" font-size="14.00" fill="#000000">year </text>
<text text-anchor="start" x="1301.6164" y="-71.9" font-family="Arial" font-size="14.00" fill="#666666">[int unsigned]</text>
</g>
<!-- course_schedules&#45;&gt;schedules -->
<g id="edge10" class="edge">
<title>course_schedules:schedule_id&#45;&gt;schedules:id</title>
<path fill="none" stroke="#000000" d="M1578.3036,-442.7602C1590.479,-433.8509 1581.0593,-405.281 1568.5,-388 1484.713,-272.7132 1347.287,-404.2868 1263.5,-289 1239.0692,-255.3845 1221.9444,-195.5 1263.5,-195.5"/>
<polygon fill="#000000" stroke="#000000" points="1578.131,-442.8084 1567.2888,-441.1661 1573.3155,-444.1542 1568.5,-445.5 1568.5,-445.5 1568.5,-445.5 1573.3155,-444.1542 1569.7112,-449.8339 1578.131,-442.8084 1578.131,-442.8084"/>
<text text-anchor="start" x="1435.378" y="-429.5" font-family="Arial" font-size="10.00" fill="#000000">FOREIGN KEY (schedule_id) REFERENCES schedules (id)</text>
</g>
<!-- grades -->
<g id="node11" class="node">
<title>grades</title>
<polygon fill="#efefef" stroke="transparent" points="1672.5,-520.5 1672.5,-555.5 1838.5,-555.5 1838.5,-520.5 1672.5,-520.5"/>
<polygon fill="none" stroke="#000000" points="1672.5,-520.5 1672.5,-555.5 1838.5,-555.5 1838.5,-520.5 1672.5,-520.5"/>
<text text-anchor="start" x="1679.3646" y="-533.3" font-family="Arial Bold" font-size="18.00" fill="#000000">grades</text>
<text text-anchor="start" x="1734.3816" y="-533.3" font-family="Arial" font-size="14.00" fill="#000000"> </text>
<text text-anchor="start" x="1738.2722" y="-533.3" font-family="Arial" font-size="14.00" fill="#666666">[BASE TABLE]</text>
<polygon fill="none" stroke="#000000" points="1672.5,-490.5 1672.5,-520.5 1838.5,-520.5 1838.5,-490.5 1672.5,-490.5"/>
<text text-anchor="start" x="1679.5" y="-501.9" font-family="Arial" font-size="14.00" fill="#000000">id </text>
<text text-anchor="start" x="1694.2798" y="-501.9" font-family="Arial" font-size="14.00" fill="#666666">[char(36)]</text>
<polygon fill="none" stroke="#000000" points="1672.5,-460.5 1672.5,-490.5 1838.5,-490.5 1838.5,-460.5 1672.5,-460.5"/>
<text text-anchor="start" x="1679.5" y="-471.9" font-family="Arial" font-size="14.00" fill="#000000">user_id </text>
<text text-anchor="start" x="1729.2882" y="-471.9" font-family="Arial" font-size="14.00" fill="#666666">[char(36)]</text>
<polygon fill="none" stroke="#000000" points="1672.5,-430.5 1672.5,-460.5 1838.5,-460.5 1838.5,-430.5 1672.5,-430.5"/>
<text text-anchor="start" x="1679.5" y="-441.9" font-family="Arial" font-size="14.00" fill="#000000">course_id </text>
<text text-anchor="start" x="1744.0708" y="-441.9" font-family="Arial" font-size="14.00" fill="#666666">[char(36)]</text>
<polygon fill="none" stroke="#000000" points="1672.5,-400.5 1672.5,-430.5 1838.5,-430.5 1838.5,-400.5 1672.5,-400.5"/>
<text text-anchor="start" x="1679.5" y="-411.9" font-family="Arial" font-size="14.00" fill="#000000">grade </text>
<text text-anchor="start" x="1719.1816" y="-411.9" font-family="Arial" font-size="14.00" fill="#666666">[int unsigned]</text>
</g>
<!-- grades&#45;&gt;courses -->
<g id="edge11" class="edge">
<title>grades:course_id&#45;&gt;courses:id</title>
<path fill="none" stroke="#000000" d="M1662.1369,-444.2039C1627.3751,-434.2315 1659.5108,-369.3779 1620.5,-343 1469.3333,-240.7856 1365.4854,-404.9166 1211.5,-307 1169.6559,-280.3921 1205.0874,-210.5 1155.5,-210.5"/>
<polygon fill="#000000" stroke="#000000" points="1662.5773,-444.2589 1671.9415,-449.9652 1667.5387,-444.8795 1672.5,-445.5 1672.5,-445.5 1672.5,-445.5 1667.5387,-444.8795 1673.0585,-441.0348 1662.5773,-444.2589 1662.5773,-444.2589"/>
<text text-anchor="start" x="1418.886" y="-455.5" font-family="Arial" font-size="10.00" fill="#000000">FOREIGN KEY (course_id) REFERENCES courses (id)</text>
</g>
<!-- users -->
<g id="node12" class="node">
<title>users</title>
<polygon fill="#efefef" stroke="transparent" points="1944.5,-210.5 1944.5,-245.5 2146.5,-245.5 2146.5,-210.5 1944.5,-210.5"/>
<polygon fill="none" stroke="#000000" points="1944.5,-210.5 1944.5,-245.5 2146.5,-245.5 2146.5,-210.5 1944.5,-210.5"/>
<text text-anchor="start" x="1974.8708" y="-223.3" font-family="Arial Bold" font-size="18.00" fill="#000000">users</text>
<text text-anchor="start" x="2018.8754" y="-223.3" font-family="Arial" font-size="14.00" fill="#000000"> </text>
<text text-anchor="start" x="2022.766" y="-223.3" font-family="Arial" font-size="14.00" fill="#666666">[BASE TABLE]</text>
<polygon fill="none" stroke="#000000" points="1944.5,-180.5 1944.5,-210.5 2146.5,-210.5 2146.5,-180.5 1944.5,-180.5"/>
<text text-anchor="start" x="1951.5" y="-191.9" font-family="Arial" font-size="14.00" fill="#000000">id </text>
<text text-anchor="start" x="1966.2798" y="-191.9" font-family="Arial" font-size="14.00" fill="#666666">[char(36)]</text>
<polygon fill="none" stroke="#000000" points="1944.5,-150.5 1944.5,-180.5 2146.5,-180.5 2146.5,-150.5 1944.5,-150.5"/>
<text text-anchor="start" x="1951.5" y="-161.9" font-family="Arial" font-size="14.00" fill="#000000">name </text>
<text text-anchor="start" x="1990.399" y="-161.9" font-family="Arial" font-size="14.00" fill="#666666">[varchar(255)]</text>
<polygon fill="none" stroke="#000000" points="1944.5,-120.5 1944.5,-150.5 2146.5,-150.5 2146.5,-120.5 1944.5,-120.5"/>
<text text-anchor="start" x="1951.5" y="-131.9" font-family="Arial" font-size="14.00" fill="#000000">mail_address </text>
<text text-anchor="start" x="2038.6206" y="-131.9" font-family="Arial" font-size="14.00" fill="#666666">[varchar(255)]</text>
<polygon fill="none" stroke="#000000" points="1944.5,-90.5 1944.5,-120.5 2146.5,-120.5 2146.5,-90.5 1944.5,-90.5"/>
<text text-anchor="start" x="1951.3668" y="-101.9" font-family="Arial" font-size="14.00" fill="#000000">hashed_password </text>
<text text-anchor="start" x="2068.8506" y="-101.9" font-family="Arial" font-size="14.00" fill="#666666">[binary(60)]</text>
<polygon fill="none" stroke="#000000" points="1944.5,-60.5 1944.5,-90.5 2146.5,-90.5 2146.5,-60.5 1944.5,-60.5"/>
<text text-anchor="start" x="1951.5" y="-71.9" font-family="Arial" font-size="14.00" fill="#000000">type </text>
<text text-anchor="start" x="1981.8464" y="-71.9" font-family="Arial" font-size="14.00" fill="#666666">[enum(&#39;student&#39;,&#39;faculty&#39;)]</text>
</g>
<!-- grades&#45;&gt;users -->
<g id="edge12" class="edge">
<title>grades:user_id&#45;&gt;users:id</title>
<path fill="none" stroke="#000000" d="M1848.2721,-473.2462C1902.4376,-446.7474 1881.4768,-195.5 1944.5,-195.5"/>
<polygon fill="#000000" stroke="#000000" points="1848.2442,-473.2525 1837.4886,-471.1151 1843.3721,-474.3763 1838.5,-475.5 1838.5,-475.5 1838.5,-475.5 1843.3721,-474.3763 1839.5114,-479.8849 1848.2442,-473.2525 1848.2442,-473.2525"/>
<text text-anchor="start" x="1845.445" y="-485.5" font-family="Arial" font-size="10.00" fill="#000000">FOREIGN KEY (user_id) REFERENCES users (id)</text>
</g>
<!-- registrations -->
<g id="node13" class="node">
<title>registrations</title>
<polygon fill="#efefef" stroke="transparent" points="1943.5,-520.5 1943.5,-555.5 2152.5,-555.5 2152.5,-520.5 1943.5,-520.5"/>
<polygon fill="none" stroke="#000000" points="1943.5,-520.5 1943.5,-555.5 2152.5,-555.5 2152.5,-520.5 1943.5,-520.5"/>
<text text-anchor="start" x="1950.369" y="-533.3" font-family="Arial Bold" font-size="18.00" fill="#000000">registrations</text>
<text text-anchor="start" x="2048.3772" y="-533.3" font-family="Arial" font-size="14.00" fill="#000000"> </text>
<text text-anchor="start" x="2052.2678" y="-533.3" font-family="Arial" font-size="14.00" fill="#666666">[BASE TABLE]</text>
<polygon fill="none" stroke="#000000" points="1943.5,-490.5 1943.5,-520.5 2152.5,-520.5 2152.5,-490.5 1943.5,-490.5"/>
<text text-anchor="start" x="1950.5" y="-501.9" font-family="Arial" font-size="14.00" fill="#000000">course_id </text>
<text text-anchor="start" x="2015.0708" y="-501.9" font-family="Arial" font-size="14.00" fill="#666666">[char(36)]</text>
<polygon fill="none" stroke="#000000" points="1943.5,-460.5 1943.5,-490.5 2152.5,-490.5 2152.5,-460.5 1943.5,-460.5"/>
<text text-anchor="start" x="1950.5" y="-471.9" font-family="Arial" font-size="14.00" fill="#000000">user_id </text>
<text text-anchor="start" x="2000.2882" y="-471.9" font-family="Arial" font-size="14.00" fill="#666666">[char(36)]</text>
<polygon fill="none" stroke="#000000" points="1943.5,-430.5 1943.5,-460.5 2152.5,-460.5 2152.5,-430.5 1943.5,-430.5"/>
<text text-anchor="start" x="1950.5" y="-441.9" font-family="Arial" font-size="14.00" fill="#000000">created_at </text>
<text text-anchor="start" x="2020.528" y="-441.9" font-family="Arial" font-size="14.00" fill="#666666">[datetime(6)]</text>
<polygon fill="none" stroke="#000000" points="1943.5,-400.5 1943.5,-430.5 2152.5,-430.5 2152.5,-400.5 1943.5,-400.5"/>
<text text-anchor="start" x="1950.5" y="-411.9" font-family="Arial" font-size="14.00" fill="#000000">delete_at </text>
<text text-anchor="start" x="2011.974" y="-411.9" font-family="Arial" font-size="14.00" fill="#666666">[datetime(6)]</text>
</g>
<!-- registrations&#45;&gt;courses -->
<g id="edge13" class="edge">
<title>registrations:course_id&#45;&gt;courses:id</title>
<path fill="none" stroke="#000000" d="M1933.4756,-504.6901C1875.3208,-494.3125 1947.8366,-386.9729 1890.5,-343 1770.6004,-251.046 1340.3981,-385.8464 1211.5,-307 1169.1989,-281.1246 1205.0874,-210.5 1155.5,-210.5"/>
<polygon fill="#000000" stroke="#000000" points="1933.5325,-504.6946 1943.1376,-509.9854 1938.5162,-505.0973 1943.5,-505.5 1943.5,-505.5 1943.5,-505.5 1938.5162,-505.0973 1943.8624,-501.0146 1933.5325,-504.6946 1933.5325,-504.6946"/>
<text text-anchor="start" x="1950.886" y="-515.5" font-family="Arial" font-size="10.00" fill="#000000">FOREIGN KEY (course_id) REFERENCES courses (id)</text>
</g>
<!-- registrations&#45;&gt;users -->
<g id="edge14" class="edge">
<title>registrations:user_id&#45;&gt;users:id</title>
<path fill="none" stroke="#000000" d="M1933.0691,-474.3039C1894.5629,-464.54 1915.3472,-397.3038 1943.5,-358 1998.9897,-280.5314 2091.0103,-366.4686 2146.5,-289 2170.6984,-255.2169 2188.0556,-195.5 2146.5,-195.5"/>
<polygon fill="#000000" stroke="#000000" points="1933.5651,-474.3607 1942.9873,-479.9707 1938.5326,-474.9303 1943.5,-475.5 1943.5,-475.5 1943.5,-475.5 1938.5326,-474.9303 1944.0127,-471.0293 1933.5651,-474.3607 1933.5651,-474.3607"/>
<text text-anchor="start" x="1890.445" y="-459.5" font-family="Arial" font-size="10.00" fill="#000000">FOREIGN KEY (user_id) REFERENCES users (id)</text>
</g>
</g>
</svg>
