<?xml version="1.0" encoding="UTF-8" standalone="no"?>
<!DOCTYPE svg PUBLIC "-//W3C//DTD SVG 1.1//EN"
 "http://www.w3.org/Graphics/SVG/1.1/DTD/svg11.dtd">
<!-- Generated by graphviz version 2.40.1 (20161225.0304)
 -->
<!-- Title: course_schedules Pages: 1 -->
<svg width="2157pt" height="616pt"
 viewBox="0.00 0.00 2157.00 616.00" xmlns="http://www.w3.org/2000/svg" xmlns:xlink="http://www.w3.org/1999/xlink">
<g id="graph0" class="graph" transform="scale(1 1) rotate(0) translate(4 612)">
<title>course_schedules</title>
<polygon fill="#ffffff" stroke="transparent" points="-4,4 -4,-612 2153,-612 2153,4 -4,4"/>
<!-- course_schedules -->
<g id="node1" class="node">
<title>course_schedules</title>
<polygon fill="#efefef" stroke="transparent" points="1691.5,-484.5 1691.5,-519.5 1947.5,-519.5 1947.5,-484.5 1691.5,-484.5"/>
<polygon fill="none" stroke="#000000" points="1691.5,-484.5 1691.5,-519.5 1947.5,-519.5 1947.5,-484.5 1691.5,-484.5"/>
<text text-anchor="start" x="1698.352" y="-497.3" font-family="Arial Bold" font-size="18.00" fill="#000000">course_schedules</text>
<text text-anchor="start" x="1843.3942" y="-497.3" font-family="Arial" font-size="14.00" fill="#000000"> </text>
<text text-anchor="start" x="1847.2848" y="-497.3" font-family="Arial" font-size="14.00" fill="#666666">[BASE TABLE]</text>
<polygon fill="none" stroke="#000000" points="1691.5,-454.5 1691.5,-484.5 1947.5,-484.5 1947.5,-454.5 1691.5,-454.5"/>
<text text-anchor="start" x="1698.5" y="-465.9" font-family="Arial" font-size="14.00" fill="#000000">course_id </text>
<text text-anchor="start" x="1763.0708" y="-465.9" font-family="Arial" font-size="14.00" fill="#666666">[char(36)]</text>
<polygon fill="none" stroke="#000000" points="1691.5,-424.5 1691.5,-454.5 1947.5,-454.5 1947.5,-424.5 1691.5,-424.5"/>
<text text-anchor="start" x="1698.5" y="-435.9" font-family="Arial" font-size="14.00" fill="#000000">schedule_id </text>
<text text-anchor="start" x="1777.082" y="-435.9" font-family="Arial" font-size="14.00" fill="#666666">[char(36)]</text>
<polygon fill="none" stroke="#000000" stroke-width="3" points="1690,-423.5 1690,-521.5 1949,-521.5 1949,-423.5 1690,-423.5"/>
</g>
<!-- courses -->
<g id="node2" class="node">
<title>courses</title>
<polygon fill="#efefef" stroke="transparent" points="773.5,-222.5 773.5,-257.5 947.5,-257.5 947.5,-222.5 773.5,-222.5"/>
<polygon fill="none" stroke="#000000" points="773.5,-222.5 773.5,-257.5 947.5,-257.5 947.5,-222.5 773.5,-222.5"/>
<text text-anchor="start" x="780.3677" y="-235.3" font-family="Arial Bold" font-size="18.00" fill="#000000">courses</text>
<text text-anchor="start" x="843.3785" y="-235.3" font-family="Arial" font-size="14.00" fill="#000000"> </text>
<text text-anchor="start" x="847.2691" y="-235.3" font-family="Arial" font-size="14.00" fill="#666666">[BASE TABLE]</text>
<polygon fill="none" stroke="#000000" points="773.5,-192.5 773.5,-222.5 947.5,-222.5 947.5,-192.5 773.5,-192.5"/>
<text text-anchor="start" x="780.5" y="-203.9" font-family="Arial" font-size="14.00" fill="#000000">id </text>
<text text-anchor="start" x="795.2798" y="-203.9" font-family="Arial" font-size="14.00" fill="#666666">[char(36)]</text>
<polygon fill="none" stroke="#000000" points="773.5,-162.5 773.5,-192.5 947.5,-192.5 947.5,-162.5 773.5,-162.5"/>
<text text-anchor="start" x="780.5" y="-173.9" font-family="Arial" font-size="14.00" fill="#000000">name </text>
<text text-anchor="start" x="819.399" y="-173.9" font-family="Arial" font-size="14.00" fill="#666666">[varchar(255)]</text>
<polygon fill="none" stroke="#000000" points="773.5,-132.5 773.5,-162.5 947.5,-162.5 947.5,-132.5 773.5,-132.5"/>
<text text-anchor="start" x="780.5" y="-143.9" font-family="Arial" font-size="14.00" fill="#000000">description </text>
<text text-anchor="start" x="852.068" y="-143.9" font-family="Arial" font-size="14.00" fill="#666666">[text]</text>
<polygon fill="none" stroke="#000000" points="773.5,-102.5 773.5,-132.5 947.5,-132.5 947.5,-102.5 773.5,-102.5"/>
<text text-anchor="start" x="780.5" y="-113.9" font-family="Arial" font-size="14.00" fill="#000000">credit </text>
<text text-anchor="start" x="818.6136" y="-113.9" font-family="Arial" font-size="14.00" fill="#666666">[tinyint unsigned]</text>
<polygon fill="none" stroke="#000000" points="773.5,-72.5 773.5,-102.5 947.5,-102.5 947.5,-72.5 773.5,-72.5"/>
<text text-anchor="start" x="780.5" y="-83.9" font-family="Arial" font-size="14.00" fill="#000000">classroom </text>
<text text-anchor="start" x="848.1662" y="-83.9" font-family="Arial" font-size="14.00" fill="#666666">[varchar(255)]</text>
<polygon fill="none" stroke="#000000" points="773.5,-42.5 773.5,-72.5 947.5,-72.5 947.5,-42.5 773.5,-42.5"/>
<text text-anchor="start" x="780.5" y="-53.9" font-family="Arial" font-size="14.00" fill="#000000">capacity </text>
<text text-anchor="start" x="835.7356" y="-53.9" font-family="Arial" font-size="14.00" fill="#666666">[int unsigned]</text>
</g>
<!-- course_schedules&#45;&gt;courses -->
<g id="edge1" class="edge">
<title>course_schedules:course_id&#45;&gt;courses:id</title>
<path fill="none" stroke="#000000" d="M1681.5028,-468.5781C1634.1985,-458.8591 1683.1145,-374.8162 1636.5,-337 1621.3767,-324.7312 966.974,-207.5 947.5,-207.5"/>
<polygon fill="#000000" stroke="#000000" points="1681.5422,-468.5816 1691.0867,-473.981 1686.5211,-469.0408 1691.5,-469.5 1691.5,-469.5 1691.5,-469.5 1686.5211,-469.0408 1691.9133,-465.019 1681.5422,-468.5816 1681.5422,-468.5816"/>
<text text-anchor="start" x="1698.886" y="-479.5" font-family="Arial" font-size="10.00" fill="#000000">FOREIGN KEY (course_id) REFERENCES courses (id)</text>
</g>
<!-- schedules -->
<g id="node8" class="node">
<title>schedules</title>
<polygon fill="#efefef" stroke="transparent" points="1531.5,-207.5 1531.5,-242.5 2106.5,-242.5 2106.5,-207.5 1531.5,-207.5"/>
<polygon fill="none" stroke="#000000" points="1531.5,-207.5 1531.5,-242.5 2106.5,-242.5 2106.5,-207.5 1531.5,-207.5"/>
<text text-anchor="start" x="1729.8605" y="-220.3" font-family="Arial Bold" font-size="18.00" fill="#000000">schedules</text>
<text text-anchor="start" x="1810.8857" y="-220.3" font-family="Arial" font-size="14.00" fill="#000000"> </text>
<text text-anchor="start" x="1814.7763" y="-220.3" font-family="Arial" font-size="14.00" fill="#666666">[BASE TABLE]</text>
<polygon fill="none" stroke="#000000" points="1531.5,-177.5 1531.5,-207.5 2106.5,-207.5 2106.5,-177.5 1531.5,-177.5"/>
<text text-anchor="start" x="1538.5" y="-188.9" font-family="Arial" font-size="14.00" fill="#000000">id </text>
<text text-anchor="start" x="1553.2798" y="-188.9" font-family="Arial" font-size="14.00" fill="#666666">[char(36)]</text>
<polygon fill="none" stroke="#000000" points="1531.5,-147.5 1531.5,-177.5 2106.5,-177.5 2106.5,-147.5 1531.5,-147.5"/>
<text text-anchor="start" x="1538.5" y="-158.9" font-family="Arial" font-size="14.00" fill="#000000">period </text>
<text text-anchor="start" x="1581.2882" y="-158.9" font-family="Arial" font-size="14.00" fill="#666666">[tinyint unsigned]</text>
<polygon fill="none" stroke="#000000" points="1531.5,-117.5 1531.5,-147.5 2106.5,-147.5 2106.5,-117.5 1531.5,-117.5"/>
<text text-anchor="start" x="1538.2762" y="-128.9" font-family="Arial" font-size="14.00" fill="#000000">day_of_week </text>
<text text-anchor="start" x="1624.6422" y="-128.9" font-family="Arial" font-size="14.00" fill="#666666">[enum(&#39;sunday&#39;,&#39;monday&#39;,&#39;tuesday&#39;,&#39;wednesday&#39;,&#39;thursday&#39;,&#39;friday&#39;,&#39;saturday&#39;)]</text>
<polygon fill="none" stroke="#000000" points="1531.5,-87.5 1531.5,-117.5 2106.5,-117.5 2106.5,-87.5 1531.5,-87.5"/>
<text text-anchor="start" x="1538.5" y="-98.9" font-family="Arial" font-size="14.00" fill="#000000">semester </text>
<text text-anchor="start" x="1599.9502" y="-98.9" font-family="Arial" font-size="14.00" fill="#666666">[enum(&#39;first&#39;,&#39;second&#39;)]</text>
<polygon fill="none" stroke="#000000" points="1531.5,-57.5 1531.5,-87.5 2106.5,-87.5 2106.5,-57.5 1531.5,-57.5"/>
<text text-anchor="start" x="1538.5" y="-68.9" font-family="Arial" font-size="14.00" fill="#000000">year </text>
<text text-anchor="start" x="1569.6164" y="-68.9" font-family="Arial" font-size="14.00" fill="#666666">[int unsigned]</text>
</g>
<!-- course_schedules&#45;&gt;schedules -->
<g id="edge8" class="edge">
<title>course_schedules:schedule_id&#45;&gt;schedules:id</title>
<path fill="none" stroke="#000000" d="M1819.9037,-414.2153C1830.1623,-288.9621 2033.1083,-402.9079 2106.5,-286 2128.5946,-250.8049 2148.0556,-192.5 2106.5,-192.5"/>
<polygon fill="#000000" stroke="#000000" points="1819.8923,-414.5077 1815.0035,-424.3234 1819.6962,-419.5038 1819.5,-424.5 1819.5,-424.5 1819.5,-424.5 1819.6962,-419.5038 1823.9965,-424.6766 1819.8923,-414.5077 1819.8923,-414.5077"/>
<text text-anchor="start" x="1826.878" y="-434.5" font-family="Arial" font-size="10.00" fill="#000000">FOREIGN KEY (schedule_id) REFERENCES schedules (id)</text>
</g>
<!-- announcements -->
<g id="node3" class="node">
<title>announcements</title>
<polygon fill="#efefef" stroke="transparent" points="43.5,-529.5 43.5,-564.5 282.5,-564.5 282.5,-529.5 43.5,-529.5"/>
<polygon fill="none" stroke="#000000" points="43.5,-529.5 43.5,-564.5 282.5,-564.5 282.5,-529.5 43.5,-529.5"/>
<text text-anchor="start" x="50.348" y="-542.3" font-family="Arial Bold" font-size="18.00" fill="#000000">announcements</text>
<text text-anchor="start" x="178.3982" y="-542.3" font-family="Arial" font-size="14.00" fill="#000000"> </text>
<text text-anchor="start" x="182.2888" y="-542.3" font-family="Arial" font-size="14.00" fill="#666666">[BASE TABLE]</text>
<polygon fill="none" stroke="#000000" points="43.5,-499.5 43.5,-529.5 282.5,-529.5 282.5,-499.5 43.5,-499.5"/>
<text text-anchor="start" x="50.5" y="-510.9" font-family="Arial" font-size="14.00" fill="#000000">id </text>
<text text-anchor="start" x="65.2798" y="-510.9" font-family="Arial" font-size="14.00" fill="#666666">[char(36)]</text>
<polygon fill="none" stroke="#000000" points="43.5,-469.5 43.5,-499.5 282.5,-499.5 282.5,-469.5 43.5,-469.5"/>
<text text-anchor="start" x="50.5" y="-480.9" font-family="Arial" font-size="14.00" fill="#000000">course_id </text>
<text text-anchor="start" x="115.0708" y="-480.9" font-family="Arial" font-size="14.00" fill="#666666">[char(36)]</text>
<polygon fill="none" stroke="#000000" points="43.5,-439.5 43.5,-469.5 282.5,-469.5 282.5,-439.5 43.5,-439.5"/>
<text text-anchor="start" x="50.5" y="-450.9" font-family="Arial" font-size="14.00" fill="#000000">title </text>
<text text-anchor="start" x="76.1676" y="-450.9" font-family="Arial" font-size="14.00" fill="#666666">[varchar(255)]</text>
<polygon fill="none" stroke="#000000" points="43.5,-409.5 43.5,-439.5 282.5,-439.5 282.5,-409.5 43.5,-409.5"/>
<text text-anchor="start" x="50.5" y="-420.9" font-family="Arial" font-size="14.00" fill="#000000">message </text>
<text text-anchor="start" x="111.1816" y="-420.9" font-family="Arial" font-size="14.00" fill="#666666">[text]</text>
<polygon fill="none" stroke="#000000" points="43.5,-379.5 43.5,-409.5 282.5,-409.5 282.5,-379.5 43.5,-379.5"/>
<text text-anchor="start" x="50.5" y="-390.9" font-family="Arial" font-size="14.00" fill="#000000">created_at </text>
<text text-anchor="start" x="120.528" y="-390.9" font-family="Arial" font-size="14.00" fill="#666666">[datetime(6)]</text>
</g>
<!-- announcements&#45;&gt;courses -->
<g id="edge2" class="edge">
<title>announcements:course_id&#45;&gt;courses:id</title>
<path fill="none" stroke="#000000" d="M292.7127,-483.6307C344.9348,-473.7562 286.8428,-382.2375 334.5,-337 408.2694,-266.9762 671.7884,-207.5 773.5,-207.5"/>
<polygon fill="#000000" stroke="#000000" points="292.464,-483.6518 282.1183,-480.0162 287.482,-484.0759 282.5,-484.5 282.5,-484.5 282.5,-484.5 287.482,-484.0759 282.8817,-488.9838 292.464,-483.6518 292.464,-483.6518"/>
<text text-anchor="start" x="159.386" y="-468.5" font-family="Arial" font-size="10.00" fill="#000000">FOREIGN KEY (course_id) REFERENCES courses (id)</text>
</g>
<!-- classes -->
<g id="node4" class="node">
<title>classes</title>
<polygon fill="#efefef" stroke="transparent" points="386.5,-529.5 386.5,-564.5 616.5,-564.5 616.5,-529.5 386.5,-529.5"/>
<polygon fill="none" stroke="#000000" points="386.5,-529.5 386.5,-564.5 616.5,-564.5 616.5,-529.5 386.5,-529.5"/>
<text text-anchor="start" x="422.8698" y="-542.3" font-family="Arial Bold" font-size="18.00" fill="#000000">classes</text>
<text text-anchor="start" x="482.8764" y="-542.3" font-family="Arial" font-size="14.00" fill="#000000"> </text>
<text text-anchor="start" x="486.767" y="-542.3" font-family="Arial" font-size="14.00" fill="#666666">[BASE TABLE]</text>
<polygon fill="none" stroke="#000000" points="386.5,-499.5 386.5,-529.5 616.5,-529.5 616.5,-499.5 386.5,-499.5"/>
<text text-anchor="start" x="393.5" y="-510.9" font-family="Arial" font-size="14.00" fill="#000000">id </text>
<text text-anchor="start" x="408.2798" y="-510.9" font-family="Arial" font-size="14.00" fill="#666666">[char(36)]</text>
<polygon fill="none" stroke="#000000" points="386.5,-469.5 386.5,-499.5 616.5,-499.5 616.5,-469.5 386.5,-469.5"/>
<text text-anchor="start" x="393.5" y="-480.9" font-family="Arial" font-size="14.00" fill="#000000">course_id </text>
<text text-anchor="start" x="458.0708" y="-480.9" font-family="Arial" font-size="14.00" fill="#666666">[char(36)]</text>
<polygon fill="none" stroke="#000000" points="386.5,-439.5 386.5,-469.5 616.5,-469.5 616.5,-439.5 386.5,-439.5"/>
<text text-anchor="start" x="393.5" y="-450.9" font-family="Arial" font-size="14.00" fill="#000000">title </text>
<text text-anchor="start" x="419.1676" y="-450.9" font-family="Arial" font-size="14.00" fill="#666666">[varchar(255)]</text>
<polygon fill="none" stroke="#000000" points="386.5,-409.5 386.5,-439.5 616.5,-439.5 616.5,-409.5 386.5,-409.5"/>
<text text-anchor="start" x="393.5" y="-420.9" font-family="Arial" font-size="14.00" fill="#000000">description </text>
<text text-anchor="start" x="465.068" y="-420.9" font-family="Arial" font-size="14.00" fill="#666666">[text]</text>
<polygon fill="none" stroke="#000000" points="386.5,-379.5 386.5,-409.5 616.5,-409.5 616.5,-379.5 386.5,-379.5"/>
<text text-anchor="start" x="393.343" y="-390.9" font-family="Arial" font-size="14.00" fill="#000000">attendance_code </text>
<text text-anchor="start" x="504.6234" y="-390.9" font-family="Arial" font-size="14.00" fill="#666666">[tinyint unsigned]</text>
</g>
<!-- classes&#45;&gt;courses -->
<g id="edge3" class="edge">
<title>classes:course_id&#45;&gt;courses:id</title>
<path fill="none" stroke="#000000" d="M626.5178,-483.7921C680.8211,-475.414 636.3494,-394.4617 668.5,-337 704.6803,-272.3362 699.4026,-207.5 773.5,-207.5"/>
<polygon fill="#000000" stroke="#000000" points="626.4751,-483.795 616.1828,-480.0112 621.4876,-484.1475 616.5,-484.5 616.5,-484.5 616.5,-484.5 621.4876,-484.1475 616.8172,-488.9888 626.4751,-483.795 626.4751,-483.795"/>
<text text-anchor="start" x="623.886" y="-494.5" font-family="Arial" font-size="10.00" fill="#000000">FOREIGN KEY (course_id) REFERENCES courses (id)</text>
</g>
<!-- course_requirements -->
<g id="node5" class="node">
<title>course_requirements</title>
<polygon fill="#efefef" stroke="transparent" points="720.5,-484.5 720.5,-519.5 1000.5,-519.5 1000.5,-484.5 720.5,-484.5"/>
<polygon fill="none" stroke="#000000" points="720.5,-484.5 720.5,-519.5 1000.5,-519.5 1000.5,-484.5 720.5,-484.5"/>
<text text-anchor="start" x="727.3595" y="-497.3" font-family="Arial Bold" font-size="18.00" fill="#000000">course_requirements</text>
<text text-anchor="start" x="896.3867" y="-497.3" font-family="Arial" font-size="14.00" fill="#000000"> </text>
<text text-anchor="start" x="900.2773" y="-497.3" font-family="Arial" font-size="14.00" fill="#666666">[BASE TABLE]</text>
<polygon fill="none" stroke="#000000" points="720.5,-454.5 720.5,-484.5 1000.5,-484.5 1000.5,-454.5 720.5,-454.5"/>
<text text-anchor="start" x="727.5" y="-465.9" font-family="Arial" font-size="14.00" fill="#000000">course_id </text>
<text text-anchor="start" x="792.0708" y="-465.9" font-family="Arial" font-size="14.00" fill="#666666">[char(36)]</text>
<polygon fill="none" stroke="#000000" points="720.5,-424.5 720.5,-454.5 1000.5,-454.5 1000.5,-424.5 720.5,-424.5"/>
<text text-anchor="start" x="727.5" y="-435.9" font-family="Arial" font-size="14.00" fill="#000000">required_course_id </text>
<text text-anchor="start" x="851.1942" y="-435.9" font-family="Arial" font-size="14.00" fill="#666666">[char(36)]</text>
</g>
<!-- course_requirements&#45;&gt;courses -->
<g id="edge4" class="edge">
<title>course_requirements:course_id&#45;&gt;courses:id</title>
<path fill="none" stroke="#000000" d="M1010.3465,-466.5576C1053.2515,-437.7734 1003.1889,-207.5 947.5,-207.5"/>
<polygon fill="#000000" stroke="#000000" points="1010.0814,-466.6368 999.2115,-465.1884 1005.2907,-468.0684 1000.5,-469.5 1000.5,-469.5 1000.5,-469.5 1005.2907,-468.0684 1001.7885,-473.8116 1010.0814,-466.6368 1010.0814,-466.6368"/>
<text text-anchor="start" x="877.386" y="-453.5" font-family="Arial" font-size="10.00" fill="#000000">FOREIGN KEY (course_id) REFERENCES courses (id)</text>
</g>
<!-- course_requirements&#45;&gt;courses -->
<g id="edge5" class="edge">
<title>course_requirements:required_course_id&#45;&gt;courses:id</title>
<path fill="none" stroke="#000000" d="M861.04,-414.4805C867.4077,-357.9662 928.2888,-361.6294 947.5,-301 960.0523,-261.3856 989.0556,-207.5 947.5,-207.5"/>
<polygon fill="#000000" stroke="#000000" points="861.0383,-414.5145 856.0065,-424.2578 860.7691,-419.5072 860.5,-424.5 860.5,-424.5 860.5,-424.5 860.7691,-419.5072 864.9935,-424.7422 861.0383,-414.5145 861.0383,-414.5145"/>
<text text-anchor="start" x="564.7705" y="-434.5" font-family="Arial" font-size="10.00" fill="#000000">FOREIGN KEY (required_course_id) REFERENCES courses (id)</text>
</g>
<!-- grades -->
<g id="node6" class="node">
<title>grades</title>
<polygon fill="#efefef" stroke="transparent" points="1104.5,-514.5 1104.5,-549.5 1270.5,-549.5 1270.5,-514.5 1104.5,-514.5"/>
<polygon fill="none" stroke="#000000" points="1104.5,-514.5 1104.5,-549.5 1270.5,-549.5 1270.5,-514.5 1104.5,-514.5"/>
<text text-anchor="start" x="1111.3646" y="-527.3" font-family="Arial Bold" font-size="18.00" fill="#000000">grades</text>
<text text-anchor="start" x="1166.3816" y="-527.3" font-family="Arial" font-size="14.00" fill="#000000"> </text>
<text text-anchor="start" x="1170.2722" y="-527.3" font-family="Arial" font-size="14.00" fill="#666666">[BASE TABLE]</text>
<polygon fill="none" stroke="#000000" points="1104.5,-484.5 1104.5,-514.5 1270.5,-514.5 1270.5,-484.5 1104.5,-484.5"/>
<text text-anchor="start" x="1111.5" y="-495.9" font-family="Arial" font-size="14.00" fill="#000000">id </text>
<text text-anchor="start" x="1126.2798" y="-495.9" font-family="Arial" font-size="14.00" fill="#666666">[char(36)]</text>
<polygon fill="none" stroke="#000000" points="1104.5,-454.5 1104.5,-484.5 1270.5,-484.5 1270.5,-454.5 1104.5,-454.5"/>
<text text-anchor="start" x="1111.5" y="-465.9" font-family="Arial" font-size="14.00" fill="#000000">user_id </text>
<text text-anchor="start" x="1161.2882" y="-465.9" font-family="Arial" font-size="14.00" fill="#666666">[char(36)]</text>
<polygon fill="none" stroke="#000000" points="1104.5,-424.5 1104.5,-454.5 1270.5,-454.5 1270.5,-424.5 1104.5,-424.5"/>
<text text-anchor="start" x="1111.5" y="-435.9" font-family="Arial" font-size="14.00" fill="#000000">course_id </text>
<text text-anchor="start" x="1176.0708" y="-435.9" font-family="Arial" font-size="14.00" fill="#666666">[char(36)]</text>
<polygon fill="none" stroke="#000000" points="1104.5,-394.5 1104.5,-424.5 1270.5,-424.5 1270.5,-394.5 1104.5,-394.5"/>
<text text-anchor="start" x="1111.5" y="-405.9" font-family="Arial" font-size="14.00" fill="#000000">grade </text>
<text text-anchor="start" x="1151.1816" y="-405.9" font-family="Arial" font-size="14.00" fill="#666666">[int unsigned]</text>
</g>
<!-- grades&#45;&gt;courses -->
<g id="edge6" class="edge">
<title>grades:course_id&#45;&gt;courses:id</title>
<path fill="none" stroke="#000000" d="M1094.3603,-438.5456C1057.1062,-430.7392 1078.2342,-376.6764 1052.5,-337 1012.179,-274.8338 1021.5974,-207.5 947.5,-207.5"/>
<polygon fill="#000000" stroke="#000000" points="1094.544,-438.5628 1104.0783,-443.9802 1099.522,-439.0314 1104.5,-439.5 1104.5,-439.5 1104.5,-439.5 1099.522,-439.0314 1104.9217,-435.0198 1094.544,-438.5628 1094.544,-438.5628"/>
<text text-anchor="start" x="916.136" y="-423.5" font-family="Arial" font-size="10.00" fill="#000000">FOREIGN KEY (course_id) REFERENCES courses (id)</text>
</g>
<!-- registrations -->
<g id="node7" class="node">
<title>registrations</title>
<polygon fill="#efefef" stroke="transparent" points="1375.5,-514.5 1375.5,-549.5 1584.5,-549.5 1584.5,-514.5 1375.5,-514.5"/>
<polygon fill="none" stroke="#000000" points="1375.5,-514.5 1375.5,-549.5 1584.5,-549.5 1584.5,-514.5 1375.5,-514.5"/>
<text text-anchor="start" x="1382.369" y="-527.3" font-family="Arial Bold" font-size="18.00" fill="#000000">registrations</text>
<text text-anchor="start" x="1480.3772" y="-527.3" font-family="Arial" font-size="14.00" fill="#000000"> </text>
<text text-anchor="start" x="1484.2678" y="-527.3" font-family="Arial" font-size="14.00" fill="#666666">[BASE TABLE]</text>
<polygon fill="none" stroke="#000000" points="1375.5,-484.5 1375.5,-514.5 1584.5,-514.5 1584.5,-484.5 1375.5,-484.5"/>
<text text-anchor="start" x="1382.5" y="-495.9" font-family="Arial" font-size="14.00" fill="#000000">course_id </text>
<text text-anchor="start" x="1447.0708" y="-495.9" font-family="Arial" font-size="14.00" fill="#666666">[char(36)]</text>
<polygon fill="none" stroke="#000000" points="1375.5,-454.5 1375.5,-484.5 1584.5,-484.5 1584.5,-454.5 1375.5,-454.5"/>
<text text-anchor="start" x="1382.5" y="-465.9" font-family="Arial" font-size="14.00" fill="#000000">user_id </text>
<text text-anchor="start" x="1432.2882" y="-465.9" font-family="Arial" font-size="14.00" fill="#666666">[char(36)]</text>
<polygon fill="none" stroke="#000000" points="1375.5,-424.5 1375.5,-454.5 1584.5,-454.5 1584.5,-424.5 1375.5,-424.5"/>
<text text-anchor="start" x="1382.5" y="-435.9" font-family="Arial" font-size="14.00" fill="#000000">created_at </text>
<text text-anchor="start" x="1452.528" y="-435.9" font-family="Arial" font-size="14.00" fill="#666666">[datetime(6)]</text>
<polygon fill="none" stroke="#000000" points="1375.5,-394.5 1375.5,-424.5 1584.5,-424.5 1584.5,-394.5 1375.5,-394.5"/>
<text text-anchor="start" x="1382.5" y="-405.9" font-family="Arial" font-size="14.00" fill="#000000">delete_at </text>
<text text-anchor="start" x="1443.974" y="-405.9" font-family="Arial" font-size="14.00" fill="#666666">[datetime(6)]</text>
</g>
<!-- registrations&#45;&gt;courses -->
<g id="edge7" class="edge">
<title>registrations:course_id&#45;&gt;courses:id</title>
<path fill="none" stroke="#000000" d="M1365.4278,-498.7441C1306.668,-489.0507 1373.1514,-388.532 1322.5,-337 1198.8987,-211.2497 1123.8248,-207.5 947.5,-207.5"/>
<polygon fill="#000000" stroke="#000000" points="1365.528,-498.7516 1375.1632,-503.9874 1370.514,-499.1258 1375.5,-499.5 1375.5,-499.5 1375.5,-499.5 1370.514,-499.1258 1375.8368,-495.0126 1365.528,-498.7516 1365.528,-498.7516"/>
<text text-anchor="start" x="1121.886" y="-509.5" font-family="Arial" font-size="10.00" fill="#000000">FOREIGN KEY (course_id) REFERENCES courses (id)</text>
</g>
</g>
</svg>
