<?xml version="1.0" encoding="UTF-8" standalone="no"?>
<!DOCTYPE svg PUBLIC "-//W3C//DTD SVG 1.1//EN"
 "http://www.w3.org/Graphics/SVG/1.1/DTD/svg11.dtd">
<!-- Generated by graphviz version 2.40.1 (20161225.0304)
 -->
<!-- Title: courses Pages: 1 -->
<svg width="2211pt" height="959pt"
 viewBox="0.00 0.00 2210.50 959.00" xmlns="http://www.w3.org/2000/svg" xmlns:xlink="http://www.w3.org/1999/xlink">
<g id="graph0" class="graph" transform="scale(1 1) rotate(0) translate(4 955)">
<title>courses</title>
<polygon fill="#ffffff" stroke="transparent" points="-4,4 -4,-955 2206.5,-955 2206.5,4 -4,4"/>
<!-- courses -->
<g id="node1" class="node">
<title>courses</title>
<polygon fill="#efefef" stroke="transparent" points="979.5,-225.5 979.5,-260.5 1153.5,-260.5 1153.5,-225.5 979.5,-225.5"/>
<polygon fill="none" stroke="#000000" points="979.5,-225.5 979.5,-260.5 1153.5,-260.5 1153.5,-225.5 979.5,-225.5"/>
<text text-anchor="start" x="986.3677" y="-238.3" font-family="Arial Bold" font-size="18.00" fill="#000000">courses</text>
<text text-anchor="start" x="1049.3785" y="-238.3" font-family="Arial" font-size="14.00" fill="#000000"> </text>
<text text-anchor="start" x="1053.2691" y="-238.3" font-family="Arial" font-size="14.00" fill="#666666">[BASE TABLE]</text>
<polygon fill="none" stroke="#000000" points="979.5,-195.5 979.5,-225.5 1153.5,-225.5 1153.5,-195.5 979.5,-195.5"/>
<text text-anchor="start" x="986.5" y="-206.9" font-family="Arial" font-size="14.00" fill="#000000">id </text>
<text text-anchor="start" x="1001.2798" y="-206.9" font-family="Arial" font-size="14.00" fill="#666666">[char(36)]</text>
<polygon fill="none" stroke="#000000" points="979.5,-165.5 979.5,-195.5 1153.5,-195.5 1153.5,-165.5 979.5,-165.5"/>
<text text-anchor="start" x="986.5" y="-176.9" font-family="Arial" font-size="14.00" fill="#000000">name </text>
<text text-anchor="start" x="1025.399" y="-176.9" font-family="Arial" font-size="14.00" fill="#666666">[varchar(255)]</text>
<polygon fill="none" stroke="#000000" points="979.5,-135.5 979.5,-165.5 1153.5,-165.5 1153.5,-135.5 979.5,-135.5"/>
<text text-anchor="start" x="986.5" y="-146.9" font-family="Arial" font-size="14.00" fill="#000000">description </text>
<text text-anchor="start" x="1058.068" y="-146.9" font-family="Arial" font-size="14.00" fill="#666666">[text]</text>
<polygon fill="none" stroke="#000000" points="979.5,-105.5 979.5,-135.5 1153.5,-135.5 1153.5,-105.5 979.5,-105.5"/>
<text text-anchor="start" x="986.5" y="-116.9" font-family="Arial" font-size="14.00" fill="#000000">credit </text>
<text text-anchor="start" x="1024.6136" y="-116.9" font-family="Arial" font-size="14.00" fill="#666666">[tinyint unsigned]</text>
<polygon fill="none" stroke="#000000" points="979.5,-75.5 979.5,-105.5 1153.5,-105.5 1153.5,-75.5 979.5,-75.5"/>
<text text-anchor="start" x="986.5" y="-86.9" font-family="Arial" font-size="14.00" fill="#000000">classroom </text>
<text text-anchor="start" x="1054.1662" y="-86.9" font-family="Arial" font-size="14.00" fill="#666666">[varchar(255)]</text>
<polygon fill="none" stroke="#000000" points="979.5,-45.5 979.5,-75.5 1153.5,-75.5 1153.5,-45.5 979.5,-45.5"/>
<text text-anchor="start" x="986.5" y="-56.9" font-family="Arial" font-size="14.00" fill="#000000">capacity </text>
<text text-anchor="start" x="1041.7356" y="-56.9" font-family="Arial" font-size="14.00" fill="#666666">[int unsigned]</text>
<polygon fill="none" stroke="#000000" stroke-width="3" points="978,-44.5 978,-262.5 1155,-262.5 1155,-44.5 978,-44.5"/>
</g>
<!-- announcements -->
<g id="node2" class="node">
<title>announcements</title>
<polygon fill="#efefef" stroke="transparent" points="251.5,-535.5 251.5,-570.5 490.5,-570.5 490.5,-535.5 251.5,-535.5"/>
<polygon fill="none" stroke="#000000" points="251.5,-535.5 251.5,-570.5 490.5,-570.5 490.5,-535.5 251.5,-535.5"/>
<text text-anchor="start" x="258.348" y="-548.3" font-family="Arial Bold" font-size="18.00" fill="#000000">announcements</text>
<text text-anchor="start" x="386.3982" y="-548.3" font-family="Arial" font-size="14.00" fill="#000000"> </text>
<text text-anchor="start" x="390.2888" y="-548.3" font-family="Arial" font-size="14.00" fill="#666666">[BASE TABLE]</text>
<polygon fill="none" stroke="#000000" points="251.5,-505.5 251.5,-535.5 490.5,-535.5 490.5,-505.5 251.5,-505.5"/>
<text text-anchor="start" x="258.5" y="-516.9" font-family="Arial" font-size="14.00" fill="#000000">id </text>
<text text-anchor="start" x="273.2798" y="-516.9" font-family="Arial" font-size="14.00" fill="#666666">[char(36)]</text>
<polygon fill="none" stroke="#000000" points="251.5,-475.5 251.5,-505.5 490.5,-505.5 490.5,-475.5 251.5,-475.5"/>
<text text-anchor="start" x="258.5" y="-486.9" font-family="Arial" font-size="14.00" fill="#000000">course_id </text>
<text text-anchor="start" x="323.0708" y="-486.9" font-family="Arial" font-size="14.00" fill="#666666">[char(36)]</text>
<polygon fill="none" stroke="#000000" points="251.5,-445.5 251.5,-475.5 490.5,-475.5 490.5,-445.5 251.5,-445.5"/>
<text text-anchor="start" x="258.5" y="-456.9" font-family="Arial" font-size="14.00" fill="#000000">title </text>
<text text-anchor="start" x="284.1676" y="-456.9" font-family="Arial" font-size="14.00" fill="#666666">[varchar(255)]</text>
<polygon fill="none" stroke="#000000" points="251.5,-415.5 251.5,-445.5 490.5,-445.5 490.5,-415.5 251.5,-415.5"/>
<text text-anchor="start" x="258.5" y="-426.9" font-family="Arial" font-size="14.00" fill="#000000">message </text>
<text text-anchor="start" x="319.1816" y="-426.9" font-family="Arial" font-size="14.00" fill="#666666">[text]</text>
<polygon fill="none" stroke="#000000" points="251.5,-385.5 251.5,-415.5 490.5,-415.5 490.5,-385.5 251.5,-385.5"/>
<text text-anchor="start" x="258.5" y="-396.9" font-family="Arial" font-size="14.00" fill="#000000">created_at </text>
<text text-anchor="start" x="328.528" y="-396.9" font-family="Arial" font-size="14.00" fill="#666666">[datetime(6)]</text>
</g>
<!-- announcements&#45;&gt;courses -->
<g id="edge1" class="edge">
<title>announcements:course_id&#45;&gt;courses:id</title>
<path fill="none" stroke="#000000" d="M500.519,-489.7478C557.0489,-480.4984 507.0699,-388.2777 558.5,-343 705.7321,-213.3807 783.3407,-210.5 979.5,-210.5"/>
<polygon fill="#000000" stroke="#000000" points="500.4719,-489.7513 490.1631,-486.0126 495.486,-490.1256 490.5,-490.5 490.5,-490.5 490.5,-490.5 495.486,-490.1256 490.8369,-494.9874 500.4719,-489.7513 500.4719,-489.7513"/>
<text text-anchor="start" x="367.386" y="-474.5" font-family="Arial" font-size="10.00" fill="#000000">FOREIGN KEY (course_id) REFERENCES courses (id)</text>
</g>
<!-- unread_announcements -->
<g id="node3" class="node">
<title>unread_announcements</title>
<polygon fill="#efefef" stroke="transparent" points="43.5,-842.5 43.5,-877.5 348.5,-877.5 348.5,-842.5 43.5,-842.5"/>
<polygon fill="none" stroke="#000000" points="43.5,-842.5 43.5,-877.5 348.5,-877.5 348.5,-842.5 43.5,-842.5"/>
<text text-anchor="start" x="50.3333" y="-855.3" font-family="Arial Bold" font-size="18.00" fill="#000000">unread_announcements</text>
<text text-anchor="start" x="244.4129" y="-855.3" font-family="Arial" font-size="14.00" fill="#000000"> </text>
<text text-anchor="start" x="248.3035" y="-855.3" font-family="Arial" font-size="14.00" fill="#666666">[BASE TABLE]</text>
<polygon fill="none" stroke="#000000" points="43.5,-812.5 43.5,-842.5 348.5,-842.5 348.5,-812.5 43.5,-812.5"/>
<text text-anchor="start" x="50.5" y="-823.9" font-family="Arial" font-size="14.00" fill="#000000">announcement_id </text>
<text text-anchor="start" x="165.657" y="-823.9" font-family="Arial" font-size="14.00" fill="#666666">[char(36)]</text>
<polygon fill="none" stroke="#000000" points="43.5,-782.5 43.5,-812.5 348.5,-812.5 348.5,-782.5 43.5,-782.5"/>
<text text-anchor="start" x="50.5" y="-793.9" font-family="Arial" font-size="14.00" fill="#000000">user_id </text>
<text text-anchor="start" x="100.2882" y="-793.9" font-family="Arial" font-size="14.00" fill="#666666">[char(36)]</text>
<polygon fill="none" stroke="#000000" points="43.5,-752.5 43.5,-782.5 348.5,-782.5 348.5,-752.5 43.5,-752.5"/>
<text text-anchor="start" x="50.5" y="-763.9" font-family="Arial" font-size="14.00" fill="#000000">created_at </text>
<text text-anchor="start" x="120.528" y="-763.9" font-family="Arial" font-size="14.00" fill="#666666">[datetime(6)]</text>
<polygon fill="none" stroke="#000000" points="43.5,-722.5 43.5,-752.5 348.5,-752.5 348.5,-722.5 43.5,-722.5"/>
<text text-anchor="start" x="50.5" y="-733.9" font-family="Arial" font-size="14.00" fill="#000000">deleted_at </text>
<text text-anchor="start" x="119.7566" y="-733.9" font-family="Arial" font-size="14.00" fill="#666666">[datetime(6)]</text>
</g>
<!-- unread_announcements&#45;&gt;announcements -->
<g id="edge2" class="edge">
<title>unread_announcements:announcement_id&#45;&gt;announcements:id</title>
<path fill="none" stroke="#000000" d="M358.6915,-826.6601C410.1161,-817.4564 377.4227,-734.6623 348.5,-680 324.113,-633.91 275.887,-660.09 251.5,-614 232.0651,-577.2692 209.9444,-520.5 251.5,-520.5"/>
<polygon fill="#000000" stroke="#000000" points="358.4662,-826.6786 348.1304,-823.0152 353.4831,-827.0893 348.5,-827.5 348.5,-827.5 348.5,-827.5 353.4831,-827.0893 348.8696,-831.9848 358.4662,-826.6786 358.4662,-826.6786"/>
<text text-anchor="start" x="355.753" y="-837.5" font-family="Arial" font-size="10.00" fill="#000000">FOREIGN KEY (announcement_id) REFERENCES announcements (id)</text>
</g>
<!-- classes -->
<g id="node4" class="node">
<title>classes</title>
<polygon fill="#efefef" stroke="transparent" points="610.5,-535.5 610.5,-570.5 822.5,-570.5 822.5,-535.5 610.5,-535.5"/>
<polygon fill="none" stroke="#000000" points="610.5,-535.5 610.5,-570.5 822.5,-570.5 822.5,-535.5 610.5,-535.5"/>
<text text-anchor="start" x="637.8698" y="-548.3" font-family="Arial Bold" font-size="18.00" fill="#000000">classes</text>
<text text-anchor="start" x="697.8764" y="-548.3" font-family="Arial" font-size="14.00" fill="#000000"> </text>
<text text-anchor="start" x="701.767" y="-548.3" font-family="Arial" font-size="14.00" fill="#666666">[BASE TABLE]</text>
<polygon fill="none" stroke="#000000" points="610.5,-505.5 610.5,-535.5 822.5,-535.5 822.5,-505.5 610.5,-505.5"/>
<text text-anchor="start" x="617.5" y="-516.9" font-family="Arial" font-size="14.00" fill="#000000">id </text>
<text text-anchor="start" x="632.2798" y="-516.9" font-family="Arial" font-size="14.00" fill="#666666">[char(36)]</text>
<polygon fill="none" stroke="#000000" points="610.5,-475.5 610.5,-505.5 822.5,-505.5 822.5,-475.5 610.5,-475.5"/>
<text text-anchor="start" x="617.5" y="-486.9" font-family="Arial" font-size="14.00" fill="#000000">course_id </text>
<text text-anchor="start" x="682.0708" y="-486.9" font-family="Arial" font-size="14.00" fill="#666666">[char(36)]</text>
<polygon fill="none" stroke="#000000" points="610.5,-445.5 610.5,-475.5 822.5,-475.5 822.5,-445.5 610.5,-445.5"/>
<text text-anchor="start" x="617.5" y="-456.9" font-family="Arial" font-size="14.00" fill="#000000">title </text>
<text text-anchor="start" x="643.1676" y="-456.9" font-family="Arial" font-size="14.00" fill="#666666">[varchar(255)]</text>
<polygon fill="none" stroke="#000000" points="610.5,-415.5 610.5,-445.5 822.5,-445.5 822.5,-415.5 610.5,-415.5"/>
<text text-anchor="start" x="617.5" y="-426.9" font-family="Arial" font-size="14.00" fill="#000000">description </text>
<text text-anchor="start" x="689.068" y="-426.9" font-family="Arial" font-size="14.00" fill="#666666">[text]</text>
<polygon fill="none" stroke="#000000" points="610.5,-385.5 610.5,-415.5 822.5,-415.5 822.5,-385.5 610.5,-385.5"/>
<text text-anchor="start" x="617.3002" y="-396.9" font-family="Arial" font-size="14.00" fill="#000000">attendance_code </text>
<text text-anchor="start" x="728.5806" y="-396.9" font-family="Arial" font-size="14.00" fill="#666666">[varchar(255)]</text>
</g>
<!-- classes&#45;&gt;courses -->
<g id="edge3" class="edge">
<title>classes:course_id&#45;&gt;courses:id</title>
<path fill="none" stroke="#000000" d="M832.5205,-489.7936C886.8551,-481.4328 842.671,-400.6404 874.5,-343 910.8213,-277.2243 904.3623,-210.5 979.5,-210.5"/>
<polygon fill="#000000" stroke="#000000" points="832.4752,-489.7967 822.1835,-486.0111 827.4876,-490.1483 822.5,-490.5 822.5,-490.5 822.5,-490.5 827.4876,-490.1483 822.8165,-494.9889 832.4752,-489.7967 832.4752,-489.7967"/>
<text text-anchor="start" x="829.886" y="-500.5" font-family="Arial" font-size="10.00" fill="#000000">FOREIGN KEY (course_id) REFERENCES courses (id)</text>
</g>
<!-- assignments -->
<g id="node5" class="node">
<title>assignments</title>
<polygon fill="#efefef" stroke="transparent" points="452.5,-872.5 452.5,-907.5 664.5,-907.5 664.5,-872.5 452.5,-872.5"/>
<polygon fill="none" stroke="#000000" points="452.5,-872.5 452.5,-907.5 664.5,-907.5 664.5,-872.5 452.5,-872.5"/>
<text text-anchor="start" x="459.3633" y="-885.3" font-family="Arial Bold" font-size="18.00" fill="#000000">assignments</text>
<text text-anchor="start" x="560.3829" y="-885.3" font-family="Arial" font-size="14.00" fill="#000000"> </text>
<text text-anchor="start" x="564.2735" y="-885.3" font-family="Arial" font-size="14.00" fill="#666666">[BASE TABLE]</text>
<polygon fill="none" stroke="#000000" points="452.5,-842.5 452.5,-872.5 664.5,-872.5 664.5,-842.5 452.5,-842.5"/>
<text text-anchor="start" x="459.5" y="-853.9" font-family="Arial" font-size="14.00" fill="#000000">id </text>
<text text-anchor="start" x="474.2798" y="-853.9" font-family="Arial" font-size="14.00" fill="#666666">[char(36)]</text>
<polygon fill="none" stroke="#000000" points="452.5,-812.5 452.5,-842.5 664.5,-842.5 664.5,-812.5 452.5,-812.5"/>
<text text-anchor="start" x="459.5" y="-823.9" font-family="Arial" font-size="14.00" fill="#000000">class_id </text>
<text text-anchor="start" x="513.9516" y="-823.9" font-family="Arial" font-size="14.00" fill="#666666">[char(36)]</text>
<polygon fill="none" stroke="#000000" points="452.5,-782.5 452.5,-812.5 664.5,-812.5 664.5,-782.5 452.5,-782.5"/>
<text text-anchor="start" x="459.5" y="-793.9" font-family="Arial" font-size="14.00" fill="#000000">name </text>
<text text-anchor="start" x="498.399" y="-793.9" font-family="Arial" font-size="14.00" fill="#666666">[varchar(255)]</text>
<polygon fill="none" stroke="#000000" points="452.5,-752.5 452.5,-782.5 664.5,-782.5 664.5,-752.5 452.5,-752.5"/>
<text text-anchor="start" x="459.5" y="-763.9" font-family="Arial" font-size="14.00" fill="#000000">description </text>
<text text-anchor="start" x="531.068" y="-763.9" font-family="Arial" font-size="14.00" fill="#666666">[text]</text>
<polygon fill="none" stroke="#000000" points="452.5,-722.5 452.5,-752.5 664.5,-752.5 664.5,-722.5 452.5,-722.5"/>
<text text-anchor="start" x="459.5" y="-733.9" font-family="Arial" font-size="14.00" fill="#000000">deadline </text>
<text text-anchor="start" x="516.2994" y="-733.9" font-family="Arial" font-size="14.00" fill="#666666">[datetime(6)]</text>
<polygon fill="none" stroke="#000000" points="452.5,-692.5 452.5,-722.5 664.5,-722.5 664.5,-692.5 452.5,-692.5"/>
<text text-anchor="start" x="459.5" y="-703.9" font-family="Arial" font-size="14.00" fill="#000000">created_at </text>
<text text-anchor="start" x="529.528" y="-703.9" font-family="Arial" font-size="14.00" fill="#666666">[datetime(6)]</text>
</g>
<!-- assignments&#45;&gt;classes -->
<g id="edge4" class="edge">
<title>assignments:class_id&#45;&gt;classes:id</title>
<path fill="none" stroke="#000000" d="M674.812,-826.8035C739.4926,-817.4644 699.9795,-716.294 664.5,-650 650.8895,-624.5686 624.1105,-639.4314 610.5,-614 590.8917,-577.3615 568.9444,-520.5 610.5,-520.5"/>
<polygon fill="#000000" stroke="#000000" points="674.4773,-826.826 664.1967,-823.0102 669.4886,-827.163 664.5,-827.5 664.5,-827.5 664.5,-827.5 669.4886,-827.163 664.8033,-831.9898 674.4773,-826.826 674.4773,-826.826"/>
<text text-anchor="start" x="419.3345" y="-811.5" font-family="Arial" font-size="10.00" fill="#000000">FOREIGN KEY (class_id) REFERENCES classes (id)</text>
</g>
<!-- attendances -->
<g id="node6" class="node">
<title>attendances</title>
<polygon fill="#efefef" stroke="transparent" points="769.5,-827.5 769.5,-862.5 978.5,-862.5 978.5,-827.5 769.5,-827.5"/>
<polygon fill="none" stroke="#000000" points="769.5,-827.5 769.5,-862.5 978.5,-862.5 978.5,-827.5 769.5,-827.5"/>
<text text-anchor="start" x="776.3492" y="-840.3" font-family="Arial Bold" font-size="18.00" fill="#000000">attendances</text>
<text text-anchor="start" x="874.397" y="-840.3" font-family="Arial" font-size="14.00" fill="#000000"> </text>
<text text-anchor="start" x="878.2876" y="-840.3" font-family="Arial" font-size="14.00" fill="#666666">[BASE TABLE]</text>
<polygon fill="none" stroke="#000000" points="769.5,-797.5 769.5,-827.5 978.5,-827.5 978.5,-797.5 769.5,-797.5"/>
<text text-anchor="start" x="776.5" y="-808.9" font-family="Arial" font-size="14.00" fill="#000000">class_id </text>
<text text-anchor="start" x="830.9516" y="-808.9" font-family="Arial" font-size="14.00" fill="#666666">[char(36)]</text>
<polygon fill="none" stroke="#000000" points="769.5,-767.5 769.5,-797.5 978.5,-797.5 978.5,-767.5 769.5,-767.5"/>
<text text-anchor="start" x="776.5" y="-778.9" font-family="Arial" font-size="14.00" fill="#000000">user_id </text>
<text text-anchor="start" x="826.2882" y="-778.9" font-family="Arial" font-size="14.00" fill="#666666">[char(36)]</text>
<polygon fill="none" stroke="#000000" points="769.5,-737.5 769.5,-767.5 978.5,-767.5 978.5,-737.5 769.5,-737.5"/>
<text text-anchor="start" x="776.5" y="-748.9" font-family="Arial" font-size="14.00" fill="#000000">created_at </text>
<text text-anchor="start" x="846.528" y="-748.9" font-family="Arial" font-size="14.00" fill="#666666">[datetime(6)]</text>
</g>
<!-- attendances&#45;&gt;classes -->
<g id="edge5" class="edge">
<title>attendances:class_id&#45;&gt;classes:id</title>
<path fill="none" stroke="#000000" d="M759.2621,-812.0309C654.445,-801.768 818.7939,-626.4329 822.5,-614 834.3711,-574.1761 864.0556,-520.5 822.5,-520.5"/>
<polygon fill="#000000" stroke="#000000" points="759.5105,-812.0422 769.294,-816.9953 764.5052,-812.2711 769.5,-812.5 769.5,-812.5 769.5,-812.5 764.5052,-812.2711 769.706,-808.0047 759.5105,-812.0422 759.5105,-812.0422"/>
<text text-anchor="start" x="776.3345" y="-822.5" font-family="Arial" font-size="10.00" fill="#000000">FOREIGN KEY (class_id) REFERENCES classes (id)</text>
</g>
<!-- documents -->
<g id="node7" class="node">
<title>documents</title>
<polygon fill="#efefef" stroke="transparent" points="1082.5,-842.5 1082.5,-877.5 1281.5,-877.5 1281.5,-842.5 1082.5,-842.5"/>
<polygon fill="none" stroke="#000000" points="1082.5,-842.5 1082.5,-877.5 1281.5,-877.5 1281.5,-842.5 1082.5,-842.5"/>
<text text-anchor="start" x="1089.3604" y="-855.3" font-family="Arial Bold" font-size="18.00" fill="#000000">documents</text>
<text text-anchor="start" x="1177.3858" y="-855.3" font-family="Arial" font-size="14.00" fill="#000000"> </text>
<text text-anchor="start" x="1181.2764" y="-855.3" font-family="Arial" font-size="14.00" fill="#666666">[BASE TABLE]</text>
<polygon fill="none" stroke="#000000" points="1082.5,-812.5 1082.5,-842.5 1281.5,-842.5 1281.5,-812.5 1082.5,-812.5"/>
<text text-anchor="start" x="1089.5" y="-823.9" font-family="Arial" font-size="14.00" fill="#000000">id </text>
<text text-anchor="start" x="1104.2798" y="-823.9" font-family="Arial" font-size="14.00" fill="#666666">[char(36)]</text>
<polygon fill="none" stroke="#000000" points="1082.5,-782.5 1082.5,-812.5 1281.5,-812.5 1281.5,-782.5 1082.5,-782.5"/>
<text text-anchor="start" x="1089.5" y="-793.9" font-family="Arial" font-size="14.00" fill="#000000">class_id </text>
<text text-anchor="start" x="1143.9516" y="-793.9" font-family="Arial" font-size="14.00" fill="#666666">[char(36)]</text>
<polygon fill="none" stroke="#000000" points="1082.5,-752.5 1082.5,-782.5 1281.5,-782.5 1281.5,-752.5 1082.5,-752.5"/>
<text text-anchor="start" x="1089.5" y="-763.9" font-family="Arial" font-size="14.00" fill="#000000">name </text>
<text text-anchor="start" x="1128.399" y="-763.9" font-family="Arial" font-size="14.00" fill="#666666">[text]</text>
<polygon fill="none" stroke="#000000" points="1082.5,-722.5 1082.5,-752.5 1281.5,-752.5 1281.5,-722.5 1082.5,-722.5"/>
<text text-anchor="start" x="1089.5" y="-733.9" font-family="Arial" font-size="14.00" fill="#000000">created_at </text>
<text text-anchor="start" x="1159.528" y="-733.9" font-family="Arial" font-size="14.00" fill="#666666">[datetime(6)]</text>
</g>
<!-- documents&#45;&gt;classes -->
<g id="edge6" class="edge">
<title>documents:class_id&#45;&gt;classes:id</title>
<path fill="none" stroke="#000000" d="M1072.2706,-796.6175C1019.9944,-786.5953 1078.6998,-693.767 1029.5,-650 976.6594,-602.9942 930.9834,-656.5594 874.5,-614 836.5237,-585.3855 870.0498,-520.5 822.5,-520.5"/>
<polygon fill="#000000" stroke="#000000" points="1072.537,-796.6404 1082.1132,-801.9833 1077.5185,-797.0702 1082.5,-797.5 1082.5,-797.5 1082.5,-797.5 1077.5185,-797.0702 1082.8868,-793.0167 1072.537,-796.6404 1072.537,-796.6404"/>
<text text-anchor="start" x="1089.3345" y="-807.5" font-family="Arial" font-size="10.00" fill="#000000">FOREIGN KEY (class_id) REFERENCES classes (id)</text>
</g>
<!-- course_requirements -->
<g id="node8" class="node">
<title>course_requirements</title>
<polygon fill="#efefef" stroke="transparent" points="926.5,-490.5 926.5,-525.5 1206.5,-525.5 1206.5,-490.5 926.5,-490.5"/>
<polygon fill="none" stroke="#000000" points="926.5,-490.5 926.5,-525.5 1206.5,-525.5 1206.5,-490.5 926.5,-490.5"/>
<text text-anchor="start" x="933.3595" y="-503.3" font-family="Arial Bold" font-size="18.00" fill="#000000">course_requirements</text>
<text text-anchor="start" x="1102.3867" y="-503.3" font-family="Arial" font-size="14.00" fill="#000000"> </text>
<text text-anchor="start" x="1106.2773" y="-503.3" font-family="Arial" font-size="14.00" fill="#666666">[BASE TABLE]</text>
<polygon fill="none" stroke="#000000" points="926.5,-460.5 926.5,-490.5 1206.5,-490.5 1206.5,-460.5 926.5,-460.5"/>
<text text-anchor="start" x="933.5" y="-471.9" font-family="Arial" font-size="14.00" fill="#000000">course_id </text>
<text text-anchor="start" x="998.0708" y="-471.9" font-family="Arial" font-size="14.00" fill="#666666">[char(36)]</text>
<polygon fill="none" stroke="#000000" points="926.5,-430.5 926.5,-460.5 1206.5,-460.5 1206.5,-430.5 926.5,-430.5"/>
<text text-anchor="start" x="933.5" y="-441.9" font-family="Arial" font-size="14.00" fill="#000000">required_course_id </text>
<text text-anchor="start" x="1057.1942" y="-441.9" font-family="Arial" font-size="14.00" fill="#666666">[char(36)]</text>
</g>
<!-- course_requirements&#45;&gt;courses -->
<g id="edge7" class="edge">
<title>course_requirements:course_id&#45;&gt;courses:id</title>
<path fill="none" stroke="#000000" d="M1213.1908,-467.8549C1225.9989,-424.4053 1180.4779,-210.5 1153.5,-210.5"/>
<polygon fill="#000000" stroke="#000000" points="1213.0858,-467.9748 1203.1137,-472.5364 1209.7929,-471.7374 1206.5,-475.5 1206.5,-475.5 1206.5,-475.5 1209.7929,-471.7374 1209.8863,-478.4636 1213.0858,-467.9748 1213.0858,-467.9748"/>
<text text-anchor="start" x="1083.386" y="-459.5" font-family="Arial" font-size="10.00" fill="#000000">FOREIGN KEY (course_id) REFERENCES courses (id)</text>
</g>
<!-- course_requirements&#45;&gt;courses -->
<g id="edge8" class="edge">
<title>course_requirements:required_course_id&#45;&gt;courses:id</title>
<path fill="none" stroke="#000000" d="M1067.04,-420.4805C1073.4077,-363.9662 1134.2888,-367.6294 1153.5,-307 1166.4551,-266.1145 1196.3889,-210.5 1153.5,-210.5"/>
<polygon fill="#000000" stroke="#000000" points="1067.0383,-420.5145 1062.0065,-430.2578 1066.7691,-425.5072 1066.5,-430.5 1066.5,-430.5 1066.5,-430.5 1066.7691,-425.5072 1070.9935,-430.7422 1067.0383,-420.5145 1067.0383,-420.5145"/>
<text text-anchor="start" x="770.7705" y="-440.5" font-family="Arial" font-size="10.00" fill="#000000">FOREIGN KEY (required_course_id) REFERENCES courses (id)</text>
</g>
<!-- course_schedules -->
<g id="node9" class="node">
<title>course_schedules</title>
<polygon fill="#efefef" stroke="transparent" points="1310.5,-490.5 1310.5,-525.5 1566.5,-525.5 1566.5,-490.5 1310.5,-490.5"/>
<polygon fill="none" stroke="#000000" points="1310.5,-490.5 1310.5,-525.5 1566.5,-525.5 1566.5,-490.5 1310.5,-490.5"/>
<text text-anchor="start" x="1317.352" y="-503.3" font-family="Arial Bold" font-size="18.00" fill="#000000">course_schedules</text>
<text text-anchor="start" x="1462.3942" y="-503.3" font-family="Arial" font-size="14.00" fill="#000000"> </text>
<text text-anchor="start" x="1466.2848" y="-503.3" font-family="Arial" font-size="14.00" fill="#666666">[BASE TABLE]</text>
<polygon fill="none" stroke="#000000" points="1310.5,-460.5 1310.5,-490.5 1566.5,-490.5 1566.5,-460.5 1310.5,-460.5"/>
<text text-anchor="start" x="1317.5" y="-471.9" font-family="Arial" font-size="14.00" fill="#000000">course_id </text>
<text text-anchor="start" x="1382.0708" y="-471.9" font-family="Arial" font-size="14.00" fill="#666666">[char(36)]</text>
<polygon fill="none" stroke="#000000" points="1310.5,-430.5 1310.5,-460.5 1566.5,-460.5 1566.5,-430.5 1310.5,-430.5"/>
<text text-anchor="start" x="1317.5" y="-441.9" font-family="Arial" font-size="14.00" fill="#000000">schedule_id </text>
<text text-anchor="start" x="1396.082" y="-441.9" font-family="Arial" font-size="14.00" fill="#666666">[char(36)]</text>
</g>
<!-- course_schedules&#45;&gt;courses -->
<g id="edge9" class="edge">
<title>course_schedules:course_id&#45;&gt;courses:id</title>
<path fill="none" stroke="#000000" d="M1300.504,-474.6748C1252.774,-465.9599 1294.8054,-390.209 1258.5,-343 1242.0261,-321.5785 1227.5512,-327.1104 1209.5,-307 1176.3766,-270.098 1203.0874,-210.5 1153.5,-210.5"/>
<polygon fill="#000000" stroke="#000000" points="1300.5339,-474.6772 1310.1297,-479.9847 1305.5169,-475.0886 1310.5,-475.5 1310.5,-475.5 1310.5,-475.5 1305.5169,-475.0886 1310.8703,-471.0153 1300.5339,-474.6772 1300.5339,-474.6772"/>
<text text-anchor="start" x="1056.886" y="-485.5" font-family="Arial" font-size="10.00" fill="#000000">FOREIGN KEY (course_id) REFERENCES courses (id)</text>
</g>
<!-- schedules -->
<g id="node10" class="node">
<title>schedules</title>
<polygon fill="#efefef" stroke="transparent" points="1261.5,-210.5 1261.5,-245.5 1836.5,-245.5 1836.5,-210.5 1261.5,-210.5"/>
<polygon fill="none" stroke="#000000" points="1261.5,-210.5 1261.5,-245.5 1836.5,-245.5 1836.5,-210.5 1261.5,-210.5"/>
<text text-anchor="start" x="1459.8605" y="-223.3" font-family="Arial Bold" font-size="18.00" fill="#000000">schedules</text>
<text text-anchor="start" x="1540.8857" y="-223.3" font-family="Arial" font-size="14.00" fill="#000000"> </text>
<text text-anchor="start" x="1544.7763" y="-223.3" font-family="Arial" font-size="14.00" fill="#666666">[BASE TABLE]</text>
<polygon fill="none" stroke="#000000" points="1261.5,-180.5 1261.5,-210.5 1836.5,-210.5 1836.5,-180.5 1261.5,-180.5"/>
<text text-anchor="start" x="1268.5" y="-191.9" font-family="Arial" font-size="14.00" fill="#000000">id </text>
<text text-anchor="start" x="1283.2798" y="-191.9" font-family="Arial" font-size="14.00" fill="#666666">[char(36)]</text>
<polygon fill="none" stroke="#000000" points="1261.5,-150.5 1261.5,-180.5 1836.5,-180.5 1836.5,-150.5 1261.5,-150.5"/>
<text text-anchor="start" x="1268.5" y="-161.9" font-family="Arial" font-size="14.00" fill="#000000">period </text>
<text text-anchor="start" x="1311.2882" y="-161.9" font-family="Arial" font-size="14.00" fill="#666666">[tinyint unsigned]</text>
<polygon fill="none" stroke="#000000" points="1261.5,-120.5 1261.5,-150.5 1836.5,-150.5 1836.5,-120.5 1261.5,-120.5"/>
<text text-anchor="start" x="1268.2762" y="-131.9" font-family="Arial" font-size="14.00" fill="#000000">day_of_week </text>
<text text-anchor="start" x="1354.6422" y="-131.9" font-family="Arial" font-size="14.00" fill="#666666">[enum(&#39;sunday&#39;,&#39;monday&#39;,&#39;tuesday&#39;,&#39;wednesday&#39;,&#39;thursday&#39;,&#39;friday&#39;,&#39;saturday&#39;)]</text>
<polygon fill="none" stroke="#000000" points="1261.5,-90.5 1261.5,-120.5 1836.5,-120.5 1836.5,-90.5 1261.5,-90.5"/>
<text text-anchor="start" x="1268.5" y="-101.9" font-family="Arial" font-size="14.00" fill="#000000">semester </text>
<text text-anchor="start" x="1329.9502" y="-101.9" font-family="Arial" font-size="14.00" fill="#666666">[enum(&#39;first&#39;,&#39;second&#39;)]</text>
<polygon fill="none" stroke="#000000" points="1261.5,-60.5 1261.5,-90.5 1836.5,-90.5 1836.5,-60.5 1261.5,-60.5"/>
<text text-anchor="start" x="1268.5" y="-71.9" font-family="Arial" font-size="14.00" fill="#000000">year </text>
<text text-anchor="start" x="1299.6164" y="-71.9" font-family="Arial" font-size="14.00" fill="#666666">[int unsigned]</text>
</g>
<!-- course_schedules&#45;&gt;schedules -->
<g id="edge10" class="edge">
<title>course_schedules:schedule_id&#45;&gt;schedules:id</title>
<path fill="none" stroke="#000000" d="M1576.3036,-442.7602C1588.479,-433.8509 1579.0593,-405.281 1566.5,-388 1482.713,-272.7132 1345.287,-404.2868 1261.5,-289 1237.0692,-255.3845 1219.9444,-195.5 1261.5,-195.5"/>
<polygon fill="#000000" stroke="#000000" points="1576.131,-442.8084 1565.2888,-441.1661 1571.3155,-444.1542 1566.5,-445.5 1566.5,-445.5 1566.5,-445.5 1571.3155,-444.1542 1567.7112,-449.8339 1576.131,-442.8084 1576.131,-442.8084"/>
<text text-anchor="start" x="1433.378" y="-429.5" font-family="Arial" font-size="10.00" fill="#000000">FOREIGN KEY (schedule_id) REFERENCES schedules (id)</text>
</g>
<!-- grades -->
<g id="node11" class="node">
<title>grades</title>
<polygon fill="#efefef" stroke="transparent" points="1670.5,-520.5 1670.5,-555.5 1836.5,-555.5 1836.5,-520.5 1670.5,-520.5"/>
<polygon fill="none" stroke="#000000" points="1670.5,-520.5 1670.5,-555.5 1836.5,-555.5 1836.5,-520.5 1670.5,-520.5"/>
<text text-anchor="start" x="1677.3646" y="-533.3" font-family="Arial Bold" font-size="18.00" fill="#000000">grades</text>
<text text-anchor="start" x="1732.3816" y="-533.3" font-family="Arial" font-size="14.00" fill="#000000"> </text>
<text text-anchor="start" x="1736.2722" y="-533.3" font-family="Arial" font-size="14.00" fill="#666666">[BASE TABLE]</text>
<polygon fill="none" stroke="#000000" points="1670.5,-490.5 1670.5,-520.5 1836.5,-520.5 1836.5,-490.5 1670.5,-490.5"/>
<text text-anchor="start" x="1677.5" y="-501.9" font-family="Arial" font-size="14.00" fill="#000000">id </text>
<text text-anchor="start" x="1692.2798" y="-501.9" font-family="Arial" font-size="14.00" fill="#666666">[char(36)]</text>
<polygon fill="none" stroke="#000000" points="1670.5,-460.5 1670.5,-490.5 1836.5,-490.5 1836.5,-460.5 1670.5,-460.5"/>
<text text-anchor="start" x="1677.5" y="-471.9" font-family="Arial" font-size="14.00" fill="#000000">user_id </text>
<text text-anchor="start" x="1727.2882" y="-471.9" font-family="Arial" font-size="14.00" fill="#666666">[char(36)]</text>
<polygon fill="none" stroke="#000000" points="1670.5,-430.5 1670.5,-460.5 1836.5,-460.5 1836.5,-430.5 1670.5,-430.5"/>
<text text-anchor="start" x="1677.5" y="-441.9" font-family="Arial" font-size="14.00" fill="#000000">course_id </text>
<text text-anchor="start" x="1742.0708" y="-441.9" font-family="Arial" font-size="14.00" fill="#666666">[char(36)]</text>
<polygon fill="none" stroke="#000000" points="1670.5,-400.5 1670.5,-430.5 1836.5,-430.5 1836.5,-400.5 1670.5,-400.5"/>
<text text-anchor="start" x="1677.5" y="-411.9" font-family="Arial" font-size="14.00" fill="#000000">grade </text>
<text text-anchor="start" x="1717.1816" y="-411.9" font-family="Arial" font-size="14.00" fill="#666666">[int unsigned]</text>
</g>
<!-- grades&#45;&gt;courses -->
<g id="edge11" class="edge">
<title>grades:course_id&#45;&gt;courses:id</title>
<path fill="none" stroke="#000000" d="M1660.1369,-444.2039C1625.3751,-434.2315 1657.5108,-369.3779 1618.5,-343 1467.3333,-240.7856 1363.4854,-404.9166 1209.5,-307 1167.6559,-280.3921 1203.0874,-210.5 1153.5,-210.5"/>
<polygon fill="#000000" stroke="#000000" points="1660.5773,-444.2589 1669.9415,-449.9652 1665.5387,-444.8795 1670.5,-445.5 1670.5,-445.5 1670.5,-445.5 1665.5387,-444.8795 1671.0585,-441.0348 1660.5773,-444.2589 1660.5773,-444.2589"/>
<text text-anchor="start" x="1416.886" y="-455.5" font-family="Arial" font-size="10.00" fill="#000000">FOREIGN KEY (course_id) REFERENCES courses (id)</text>
</g>
<!-- users -->
<g id="node12" class="node">
<title>users</title>
<polygon fill="#efefef" stroke="transparent" points="1942.5,-210.5 1942.5,-245.5 2144.5,-245.5 2144.5,-210.5 1942.5,-210.5"/>
<polygon fill="none" stroke="#000000" points="1942.5,-210.5 1942.5,-245.5 2144.5,-245.5 2144.5,-210.5 1942.5,-210.5"/>
<text text-anchor="start" x="1972.8708" y="-223.3" font-family="Arial Bold" font-size="18.00" fill="#000000">users</text>
<text text-anchor="start" x="2016.8754" y="-223.3" font-family="Arial" font-size="14.00" fill="#000000"> </text>
<text text-anchor="start" x="2020.766" y="-223.3" font-family="Arial" font-size="14.00" fill="#666666">[BASE TABLE]</text>
<polygon fill="none" stroke="#000000" points="1942.5,-180.5 1942.5,-210.5 2144.5,-210.5 2144.5,-180.5 1942.5,-180.5"/>
<text text-anchor="start" x="1949.5" y="-191.9" font-family="Arial" font-size="14.00" fill="#000000">id </text>
<text text-anchor="start" x="1964.2798" y="-191.9" font-family="Arial" font-size="14.00" fill="#666666">[char(36)]</text>
<polygon fill="none" stroke="#000000" points="1942.5,-150.5 1942.5,-180.5 2144.5,-180.5 2144.5,-150.5 1942.5,-150.5"/>
<text text-anchor="start" x="1949.5" y="-161.9" font-family="Arial" font-size="14.00" fill="#000000">name </text>
<text text-anchor="start" x="1988.399" y="-161.9" font-family="Arial" font-size="14.00" fill="#666666">[varchar(255)]</text>
<polygon fill="none" stroke="#000000" points="1942.5,-120.5 1942.5,-150.5 2144.5,-150.5 2144.5,-120.5 1942.5,-120.5"/>
<text text-anchor="start" x="1949.5" y="-131.9" font-family="Arial" font-size="14.00" fill="#000000">mail_address </text>
<text text-anchor="start" x="2036.6206" y="-131.9" font-family="Arial" font-size="14.00" fill="#666666">[varchar(255)]</text>
<polygon fill="none" stroke="#000000" points="1942.5,-90.5 1942.5,-120.5 2144.5,-120.5 2144.5,-90.5 1942.5,-90.5"/>
<text text-anchor="start" x="1949.3668" y="-101.9" font-family="Arial" font-size="14.00" fill="#000000">hashed_password </text>
<text text-anchor="start" x="2066.8506" y="-101.9" font-family="Arial" font-size="14.00" fill="#666666">[binary(60)]</text>
<polygon fill="none" stroke="#000000" points="1942.5,-60.5 1942.5,-90.5 2144.5,-90.5 2144.5,-60.5 1942.5,-60.5"/>
<text text-anchor="start" x="1949.5" y="-71.9" font-family="Arial" font-size="14.00" fill="#000000">type </text>
<text text-anchor="start" x="1979.8464" y="-71.9" font-family="Arial" font-size="14.00" fill="#666666">[enum(&#39;student&#39;,&#39;faculty&#39;)]</text>
</g>
<!-- grades&#45;&gt;users -->
<g id="edge12" class="edge">
<title>grades:user_id&#45;&gt;users:id</title>
<path fill="none" stroke="#000000" d="M1846.2721,-473.2462C1900.4376,-446.7474 1879.4768,-195.5 1942.5,-195.5"/>
<polygon fill="#000000" stroke="#000000" points="1846.2442,-473.2525 1835.4886,-471.1151 1841.3721,-474.3763 1836.5,-475.5 1836.5,-475.5 1836.5,-475.5 1841.3721,-474.3763 1837.5114,-479.8849 1846.2442,-473.2525 1846.2442,-473.2525"/>
<text text-anchor="start" x="1843.445" y="-485.5" font-family="Arial" font-size="10.00" fill="#000000">FOREIGN KEY (user_id) REFERENCES users (id)</text>
</g>
<!-- registrations -->
<g id="node13" class="node">
<title>registrations</title>
<polygon fill="#efefef" stroke="transparent" points="1941.5,-520.5 1941.5,-555.5 2150.5,-555.5 2150.5,-520.5 1941.5,-520.5"/>
<polygon fill="none" stroke="#000000" points="1941.5,-520.5 1941.5,-555.5 2150.5,-555.5 2150.5,-520.5 1941.5,-520.5"/>
<text text-anchor="start" x="1948.369" y="-533.3" font-family="Arial Bold" font-size="18.00" fill="#000000">registrations</text>
<text text-anchor="start" x="2046.3772" y="-533.3" font-family="Arial" font-size="14.00" fill="#000000"> </text>
<text text-anchor="start" x="2050.2678" y="-533.3" font-family="Arial" font-size="14.00" fill="#666666">[BASE TABLE]</text>
<polygon fill="none" stroke="#000000" points="1941.5,-490.5 1941.5,-520.5 2150.5,-520.5 2150.5,-490.5 1941.5,-490.5"/>
<text text-anchor="start" x="1948.5" y="-501.9" font-family="Arial" font-size="14.00" fill="#000000">course_id </text>
<text text-anchor="start" x="2013.0708" y="-501.9" font-family="Arial" font-size="14.00" fill="#666666">[char(36)]</text>
<polygon fill="none" stroke="#000000" points="1941.5,-460.5 1941.5,-490.5 2150.5,-490.5 2150.5,-460.5 1941.5,-460.5"/>
<text text-anchor="start" x="1948.5" y="-471.9" font-family="Arial" font-size="14.00" fill="#000000">user_id </text>
<text text-anchor="start" x="1998.2882" y="-471.9" font-family="Arial" font-size="14.00" fill="#666666">[char(36)]</text>
<polygon fill="none" stroke="#000000" points="1941.5,-430.5 1941.5,-460.5 2150.5,-460.5 2150.5,-430.5 1941.5,-430.5"/>
<text text-anchor="start" x="1948.5" y="-441.9" font-family="Arial" font-size="14.00" fill="#000000">created_at </text>
<text text-anchor="start" x="2018.528" y="-441.9" font-family="Arial" font-size="14.00" fill="#666666">[datetime(6)]</text>
<polygon fill="none" stroke="#000000" points="1941.5,-400.5 1941.5,-430.5 2150.5,-430.5 2150.5,-400.5 1941.5,-400.5"/>
<text text-anchor="start" x="1948.5" y="-411.9" font-family="Arial" font-size="14.00" fill="#000000">deleted_at </text>
<text text-anchor="start" x="2017.7566" y="-411.9" font-family="Arial" font-size="14.00" fill="#666666">[datetime(6)]</text>
</g>
<!-- registrations&#45;&gt;courses -->
<g id="edge13" class="edge">
<title>registrations:course_id&#45;&gt;courses:id</title>
<path fill="none" stroke="#000000" d="M1931.4756,-504.6901C1873.3208,-494.3125 1945.8366,-386.9729 1888.5,-343 1768.6004,-251.046 1338.3981,-385.8464 1209.5,-307 1167.1989,-281.1246 1203.0874,-210.5 1153.5,-210.5"/>
<polygon fill="#000000" stroke="#000000" points="1931.5325,-504.6946 1941.1376,-509.9854 1936.5162,-505.0973 1941.5,-505.5 1941.5,-505.5 1941.5,-505.5 1936.5162,-505.0973 1941.8624,-501.0146 1931.5325,-504.6946 1931.5325,-504.6946"/>
<text text-anchor="start" x="1948.886" y="-515.5" font-family="Arial" font-size="10.00" fill="#000000">FOREIGN KEY (course_id) REFERENCES courses (id)</text>
</g>
<!-- registrations&#45;&gt;users -->
<g id="edge14" class="edge">
<title>registrations:user_id&#45;&gt;users:id</title>
<path fill="none" stroke="#000000" d="M1931.0691,-474.3039C1892.5629,-464.54 1913.3472,-397.3038 1941.5,-358 1996.9897,-280.5314 2089.0103,-366.4686 2144.5,-289 2168.6984,-255.2169 2186.0556,-195.5 2144.5,-195.5"/>
<polygon fill="#000000" stroke="#000000" points="1931.5651,-474.3607 1940.9873,-479.9707 1936.5326,-474.9303 1941.5,-475.5 1941.5,-475.5 1941.5,-475.5 1936.5326,-474.9303 1942.0127,-471.0293 1931.5651,-474.3607 1931.5651,-474.3607"/>
<text text-anchor="start" x="1888.445" y="-459.5" font-family="Arial" font-size="10.00" fill="#000000">FOREIGN KEY (user_id) REFERENCES users (id)</text>
</g>
</g>
</svg>
