<?xml version="1.0" encoding="UTF-8" standalone="no"?>
<!DOCTYPE svg PUBLIC "-//W3C//DTD SVG 1.1//EN"
 "http://www.w3.org/Graphics/SVG/1.1/DTD/svg11.dtd">
<!-- Generated by graphviz version 2.40.1 (20161225.0304)
 -->
<!-- Title: course_schedules Pages: 1 -->
<svg width="1553pt" height="616pt"
 viewBox="0.00 0.00 1553.00 616.00" xmlns="http://www.w3.org/2000/svg" xmlns:xlink="http://www.w3.org/1999/xlink">
<g id="graph0" class="graph" transform="scale(1 1) rotate(0) translate(4 612)">
<title>course_schedules</title>
<polygon fill="#ffffff" stroke="transparent" points="-4,4 -4,-612 1549,-612 1549,4 -4,4"/>
<!-- course_schedules -->
<g id="node1" class="node">
<title>course_schedules</title>
<polygon fill="#efefef" stroke="transparent" points="1087.5,-484.5 1087.5,-519.5 1343.5,-519.5 1343.5,-484.5 1087.5,-484.5"/>
<polygon fill="none" stroke="#000000" points="1087.5,-484.5 1087.5,-519.5 1343.5,-519.5 1343.5,-484.5 1087.5,-484.5"/>
<text text-anchor="start" x="1094.352" y="-497.3" font-family="Arial Bold" font-size="18.00" fill="#000000">course_schedules</text>
<text text-anchor="start" x="1239.3942" y="-497.3" font-family="Arial" font-size="14.00" fill="#000000"> </text>
<text text-anchor="start" x="1243.2848" y="-497.3" font-family="Arial" font-size="14.00" fill="#666666">[BASE TABLE]</text>
<polygon fill="none" stroke="#000000" points="1087.5,-454.5 1087.5,-484.5 1343.5,-484.5 1343.5,-454.5 1087.5,-454.5"/>
<text text-anchor="start" x="1094.5" y="-465.9" font-family="Arial" font-size="14.00" fill="#000000">course_id </text>
<text text-anchor="start" x="1159.0708" y="-465.9" font-family="Arial" font-size="14.00" fill="#666666">[char(36)]</text>
<polygon fill="none" stroke="#000000" points="1087.5,-424.5 1087.5,-454.5 1343.5,-454.5 1343.5,-424.5 1087.5,-424.5"/>
<text text-anchor="start" x="1094.5" y="-435.9" font-family="Arial" font-size="14.00" fill="#000000">schedule_id </text>
<text text-anchor="start" x="1173.082" y="-435.9" font-family="Arial" font-size="14.00" fill="#666666">[char(36)]</text>
<polygon fill="none" stroke="#000000" stroke-width="3" points="1086,-423.5 1086,-521.5 1345,-521.5 1345,-423.5 1086,-423.5"/>
</g>
<!-- courses -->
<g id="node2" class="node">
<title>courses</title>
<polygon fill="#efefef" stroke="transparent" points="439.5,-222.5 439.5,-257.5 613.5,-257.5 613.5,-222.5 439.5,-222.5"/>
<polygon fill="none" stroke="#000000" points="439.5,-222.5 439.5,-257.5 613.5,-257.5 613.5,-222.5 439.5,-222.5"/>
<text text-anchor="start" x="446.3677" y="-235.3" font-family="Arial Bold" font-size="18.00" fill="#000000">courses</text>
<text text-anchor="start" x="509.3785" y="-235.3" font-family="Arial" font-size="14.00" fill="#000000"> </text>
<text text-anchor="start" x="513.2691" y="-235.3" font-family="Arial" font-size="14.00" fill="#666666">[BASE TABLE]</text>
<polygon fill="none" stroke="#000000" points="439.5,-192.5 439.5,-222.5 613.5,-222.5 613.5,-192.5 439.5,-192.5"/>
<text text-anchor="start" x="446.5" y="-203.9" font-family="Arial" font-size="14.00" fill="#000000">id </text>
<text text-anchor="start" x="461.2798" y="-203.9" font-family="Arial" font-size="14.00" fill="#666666">[char(36)]</text>
<polygon fill="none" stroke="#000000" points="439.5,-162.5 439.5,-192.5 613.5,-192.5 613.5,-162.5 439.5,-162.5"/>
<text text-anchor="start" x="446.5" y="-173.9" font-family="Arial" font-size="14.00" fill="#000000">name </text>
<text text-anchor="start" x="485.399" y="-173.9" font-family="Arial" font-size="14.00" fill="#666666">[varchar(255)]</text>
<polygon fill="none" stroke="#000000" points="439.5,-132.5 439.5,-162.5 613.5,-162.5 613.5,-132.5 439.5,-132.5"/>
<text text-anchor="start" x="446.5" y="-143.9" font-family="Arial" font-size="14.00" fill="#000000">description </text>
<text text-anchor="start" x="518.068" y="-143.9" font-family="Arial" font-size="14.00" fill="#666666">[text]</text>
<polygon fill="none" stroke="#000000" points="439.5,-102.5 439.5,-132.5 613.5,-132.5 613.5,-102.5 439.5,-102.5"/>
<text text-anchor="start" x="446.5" y="-113.9" font-family="Arial" font-size="14.00" fill="#000000">credit </text>
<text text-anchor="start" x="484.6136" y="-113.9" font-family="Arial" font-size="14.00" fill="#666666">[tinyint unsigned]</text>
<polygon fill="none" stroke="#000000" points="439.5,-72.5 439.5,-102.5 613.5,-102.5 613.5,-72.5 439.5,-72.5"/>
<text text-anchor="start" x="446.5" y="-83.9" font-family="Arial" font-size="14.00" fill="#000000">classroom </text>
<text text-anchor="start" x="514.1662" y="-83.9" font-family="Arial" font-size="14.00" fill="#666666">[varchar(255)]</text>
<polygon fill="none" stroke="#000000" points="439.5,-42.5 439.5,-72.5 613.5,-72.5 613.5,-42.5 439.5,-42.5"/>
<text text-anchor="start" x="446.5" y="-53.9" font-family="Arial" font-size="14.00" fill="#000000">capacity </text>
<text text-anchor="start" x="501.7356" y="-53.9" font-family="Arial" font-size="14.00" fill="#666666">[int unsigned]</text>
</g>
<!-- course_schedules&#45;&gt;courses -->
<g id="edge1" class="edge">
<title>course_schedules:course_id&#45;&gt;courses:id</title>
<path fill="none" stroke="#000000" d="M1077.495,-468.5875C1030.1096,-458.9665 1078.3563,-375.7321 1032.5,-337 977.8094,-290.8061 944.2191,-321.0653 875.5,-301 756.8186,-266.3462 737.1373,-207.5 613.5,-207.5"/>
<polygon fill="#000000" stroke="#000000" points="1077.5413,-468.5917 1087.0913,-473.9814 1082.5207,-469.0458 1087.5,-469.5 1087.5,-469.5 1087.5,-469.5 1082.5207,-469.0458 1087.9087,-465.0186 1077.5413,-468.5917 1077.5413,-468.5917"/>
<text text-anchor="start" x="833.886" y="-479.5" font-family="Arial" font-size="10.00" fill="#000000">FOREIGN KEY (course_id) REFERENCES courses (id)</text>
</g>
<!-- schedules -->
<g id="node6" class="node">
<title>schedules</title>
<polygon fill="#efefef" stroke="transparent" points="927.5,-207.5 927.5,-242.5 1502.5,-242.5 1502.5,-207.5 927.5,-207.5"/>
<polygon fill="none" stroke="#000000" points="927.5,-207.5 927.5,-242.5 1502.5,-242.5 1502.5,-207.5 927.5,-207.5"/>
<text text-anchor="start" x="1125.8605" y="-220.3" font-family="Arial Bold" font-size="18.00" fill="#000000">schedules</text>
<text text-anchor="start" x="1206.8857" y="-220.3" font-family="Arial" font-size="14.00" fill="#000000"> </text>
<text text-anchor="start" x="1210.7763" y="-220.3" font-family="Arial" font-size="14.00" fill="#666666">[BASE TABLE]</text>
<polygon fill="none" stroke="#000000" points="927.5,-177.5 927.5,-207.5 1502.5,-207.5 1502.5,-177.5 927.5,-177.5"/>
<text text-anchor="start" x="934.5" y="-188.9" font-family="Arial" font-size="14.00" fill="#000000">id </text>
<text text-anchor="start" x="949.2798" y="-188.9" font-family="Arial" font-size="14.00" fill="#666666">[char(36)]</text>
<polygon fill="none" stroke="#000000" points="927.5,-147.5 927.5,-177.5 1502.5,-177.5 1502.5,-147.5 927.5,-147.5"/>
<text text-anchor="start" x="934.5" y="-158.9" font-family="Arial" font-size="14.00" fill="#000000">period </text>
<text text-anchor="start" x="977.2882" y="-158.9" font-family="Arial" font-size="14.00" fill="#666666">[tinyint unsigned]</text>
<polygon fill="none" stroke="#000000" points="927.5,-117.5 927.5,-147.5 1502.5,-147.5 1502.5,-117.5 927.5,-117.5"/>
<text text-anchor="start" x="934.2762" y="-128.9" font-family="Arial" font-size="14.00" fill="#000000">day_of_week </text>
<text text-anchor="start" x="1020.6422" y="-128.9" font-family="Arial" font-size="14.00" fill="#666666">[enum(&#39;sunday&#39;,&#39;monday&#39;,&#39;tuesday&#39;,&#39;wednesday&#39;,&#39;thursday&#39;,&#39;friday&#39;,&#39;saturday&#39;)]</text>
<polygon fill="none" stroke="#000000" points="927.5,-87.5 927.5,-117.5 1502.5,-117.5 1502.5,-87.5 927.5,-87.5"/>
<text text-anchor="start" x="934.5" y="-98.9" font-family="Arial" font-size="14.00" fill="#000000">semester </text>
<text text-anchor="start" x="995.9502" y="-98.9" font-family="Arial" font-size="14.00" fill="#666666">[enum(&#39;first&#39;,&#39;second&#39;)]</text>
<polygon fill="none" stroke="#000000" points="927.5,-57.5 927.5,-87.5 1502.5,-87.5 1502.5,-57.5 927.5,-57.5"/>
<text text-anchor="start" x="934.5" y="-68.9" font-family="Arial" font-size="14.00" fill="#000000">year </text>
<text text-anchor="start" x="965.6164" y="-68.9" font-family="Arial" font-size="14.00" fill="#666666">[smallint unsigned]</text>
</g>
<!-- course_schedules&#45;&gt;schedules -->
<g id="edge6" class="edge">
<title>course_schedules:schedule_id&#45;&gt;schedules:id</title>
<path fill="none" stroke="#000000" d="M1215.9037,-414.2153C1226.1623,-288.9621 1429.1083,-402.9079 1502.5,-286 1524.5946,-250.8049 1544.0556,-192.5 1502.5,-192.5"/>
<polygon fill="#000000" stroke="#000000" points="1215.8923,-414.5077 1211.0035,-424.3234 1215.6962,-419.5038 1215.5,-424.5 1215.5,-424.5 1215.5,-424.5 1215.6962,-419.5038 1219.9965,-424.6766 1215.8923,-414.5077 1215.8923,-414.5077"/>
<text text-anchor="start" x="1222.878" y="-434.5" font-family="Arial" font-size="10.00" fill="#000000">FOREIGN KEY (schedule_id) REFERENCES schedules (id)</text>
</g>
<!-- announcements -->
<g id="node3" class="node">
<title>announcements</title>
<polygon fill="#efefef" stroke="transparent" points="43.5,-529.5 43.5,-564.5 282.5,-564.5 282.5,-529.5 43.5,-529.5"/>
<polygon fill="none" stroke="#000000" points="43.5,-529.5 43.5,-564.5 282.5,-564.5 282.5,-529.5 43.5,-529.5"/>
<text text-anchor="start" x="50.348" y="-542.3" font-family="Arial Bold" font-size="18.00" fill="#000000">announcements</text>
<text text-anchor="start" x="178.3982" y="-542.3" font-family="Arial" font-size="14.00" fill="#000000"> </text>
<text text-anchor="start" x="182.2888" y="-542.3" font-family="Arial" font-size="14.00" fill="#666666">[BASE TABLE]</text>
<polygon fill="none" stroke="#000000" points="43.5,-499.5 43.5,-529.5 282.5,-529.5 282.5,-499.5 43.5,-499.5"/>
<text text-anchor="start" x="50.5" y="-510.9" font-family="Arial" font-size="14.00" fill="#000000">id </text>
<text text-anchor="start" x="65.2798" y="-510.9" font-family="Arial" font-size="14.00" fill="#666666">[char(36)]</text>
<polygon fill="none" stroke="#000000" points="43.5,-469.5 43.5,-499.5 282.5,-499.5 282.5,-469.5 43.5,-469.5"/>
<text text-anchor="start" x="50.5" y="-480.9" font-family="Arial" font-size="14.00" fill="#000000">course_id </text>
<text text-anchor="start" x="115.0708" y="-480.9" font-family="Arial" font-size="14.00" fill="#666666">[char(36)]</text>
<polygon fill="none" stroke="#000000" points="43.5,-439.5 43.5,-469.5 282.5,-469.5 282.5,-439.5 43.5,-439.5"/>
<text text-anchor="start" x="50.5" y="-450.9" font-family="Arial" font-size="14.00" fill="#000000">title </text>
<text text-anchor="start" x="76.1676" y="-450.9" font-family="Arial" font-size="14.00" fill="#666666">[varchar(255)]</text>
<polygon fill="none" stroke="#000000" points="43.5,-409.5 43.5,-439.5 282.5,-439.5 282.5,-409.5 43.5,-409.5"/>
<text text-anchor="start" x="50.5" y="-420.9" font-family="Arial" font-size="14.00" fill="#000000">message </text>
<text text-anchor="start" x="111.1816" y="-420.9" font-family="Arial" font-size="14.00" fill="#666666">[text]</text>
<polygon fill="none" stroke="#000000" points="43.5,-379.5 43.5,-409.5 282.5,-409.5 282.5,-379.5 43.5,-379.5"/>
<text text-anchor="start" x="50.5" y="-390.9" font-family="Arial" font-size="14.00" fill="#000000">created_at </text>
<text text-anchor="start" x="120.528" y="-390.9" font-family="Arial" font-size="14.00" fill="#666666">[datetime(6)]</text>
</g>
<!-- announcements&#45;&gt;courses -->
<g id="edge2" class="edge">
<title>announcements:course_id&#45;&gt;courses:id</title>
<path fill="none" stroke="#000000" d="M292.5178,-483.7921C346.8211,-475.414 302.3494,-394.4617 334.5,-337 370.6803,-272.3362 365.4026,-207.5 439.5,-207.5"/>
<polygon fill="#000000" stroke="#000000" points="292.4751,-483.795 282.1828,-480.0112 287.4876,-484.1475 282.5,-484.5 282.5,-484.5 282.5,-484.5 287.4876,-484.1475 282.8172,-488.9888 292.4751,-483.795 292.4751,-483.795"/>
<text text-anchor="start" x="289.886" y="-494.5" font-family="Arial" font-size="10.00" fill="#000000">FOREIGN KEY (course_id) REFERENCES courses (id)</text>
</g>
<!-- course_requirements -->
<g id="node4" class="node">
<title>course_requirements</title>
<polygon fill="#efefef" stroke="transparent" points="386.5,-484.5 386.5,-519.5 666.5,-519.5 666.5,-484.5 386.5,-484.5"/>
<polygon fill="none" stroke="#000000" points="386.5,-484.5 386.5,-519.5 666.5,-519.5 666.5,-484.5 386.5,-484.5"/>
<text text-anchor="start" x="393.3595" y="-497.3" font-family="Arial Bold" font-size="18.00" fill="#000000">course_requirements</text>
<text text-anchor="start" x="562.3867" y="-497.3" font-family="Arial" font-size="14.00" fill="#000000"> </text>
<text text-anchor="start" x="566.2773" y="-497.3" font-family="Arial" font-size="14.00" fill="#666666">[BASE TABLE]</text>
<polygon fill="none" stroke="#000000" points="386.5,-454.5 386.5,-484.5 666.5,-484.5 666.5,-454.5 386.5,-454.5"/>
<text text-anchor="start" x="393.5" y="-465.9" font-family="Arial" font-size="14.00" fill="#000000">course_id </text>
<text text-anchor="start" x="458.0708" y="-465.9" font-family="Arial" font-size="14.00" fill="#666666">[char(36)]</text>
<polygon fill="none" stroke="#000000" points="386.5,-424.5 386.5,-454.5 666.5,-454.5 666.5,-424.5 386.5,-424.5"/>
<text text-anchor="start" x="393.5" y="-435.9" font-family="Arial" font-size="14.00" fill="#000000">required_course_id </text>
<text text-anchor="start" x="517.1942" y="-435.9" font-family="Arial" font-size="14.00" fill="#666666">[char(36)]</text>
</g>
<!-- course_requirements&#45;&gt;courses -->
<g id="edge3" class="edge">
<title>course_requirements:course_id&#45;&gt;courses:id</title>
<path fill="none" stroke="#000000" d="M676.3465,-466.5576C719.2515,-437.7734 669.1889,-207.5 613.5,-207.5"/>
<polygon fill="#000000" stroke="#000000" points="676.0814,-466.6368 665.2115,-465.1884 671.2907,-468.0684 666.5,-469.5 666.5,-469.5 666.5,-469.5 671.2907,-468.0684 667.7885,-473.8116 676.0814,-466.6368 676.0814,-466.6368"/>
<text text-anchor="start" x="412.886" y="-453.5" font-family="Arial" font-size="10.00" fill="#000000">FOREIGN KEY (course_id) REFERENCES courses (id)</text>
</g>
<!-- course_requirements&#45;&gt;courses -->
<g id="edge4" class="edge">
<title>course_requirements:required_course_id&#45;&gt;courses:id</title>
<path fill="none" stroke="#000000" d="M527.04,-414.4805C533.4077,-357.9662 594.2888,-361.6294 613.5,-301 626.0523,-261.3856 655.0556,-207.5 613.5,-207.5"/>
<polygon fill="#000000" stroke="#000000" points="527.0383,-414.5145 522.0065,-424.2578 526.7691,-419.5072 526.5,-424.5 526.5,-424.5 526.5,-424.5 526.7691,-419.5072 530.9935,-424.7422 527.0383,-414.5145 527.0383,-414.5145"/>
<text text-anchor="start" x="382.2705" y="-408.5" font-family="Arial" font-size="10.00" fill="#000000">FOREIGN KEY (required_course_id) REFERENCES courses (id)</text>
</g>
<!-- registrations -->
<g id="node5" class="node">
<title>registrations</title>
<polygon fill="#efefef" stroke="transparent" points="771.5,-514.5 771.5,-549.5 980.5,-549.5 980.5,-514.5 771.5,-514.5"/>
<polygon fill="none" stroke="#000000" points="771.5,-514.5 771.5,-549.5 980.5,-549.5 980.5,-514.5 771.5,-514.5"/>
<text text-anchor="start" x="778.369" y="-527.3" font-family="Arial Bold" font-size="18.00" fill="#000000">registrations</text>
<text text-anchor="start" x="876.3772" y="-527.3" font-family="Arial" font-size="14.00" fill="#000000"> </text>
<text text-anchor="start" x="880.2678" y="-527.3" font-family="Arial" font-size="14.00" fill="#666666">[BASE TABLE]</text>
<polygon fill="none" stroke="#000000" points="771.5,-484.5 771.5,-514.5 980.5,-514.5 980.5,-484.5 771.5,-484.5"/>
<text text-anchor="start" x="778.5" y="-495.9" font-family="Arial" font-size="14.00" fill="#000000">course_id </text>
<text text-anchor="start" x="843.0708" y="-495.9" font-family="Arial" font-size="14.00" fill="#666666">[char(36)]</text>
<polygon fill="none" stroke="#000000" points="771.5,-454.5 771.5,-484.5 980.5,-484.5 980.5,-454.5 771.5,-454.5"/>
<text text-anchor="start" x="778.5" y="-465.9" font-family="Arial" font-size="14.00" fill="#000000">user_id </text>
<text text-anchor="start" x="828.2882" y="-465.9" font-family="Arial" font-size="14.00" fill="#666666">[char(36)]</text>
<polygon fill="none" stroke="#000000" points="771.5,-424.5 771.5,-454.5 980.5,-454.5 980.5,-424.5 771.5,-424.5"/>
<text text-anchor="start" x="778.5" y="-435.9" font-family="Arial" font-size="14.00" fill="#000000">created_at </text>
<text text-anchor="start" x="848.528" y="-435.9" font-family="Arial" font-size="14.00" fill="#666666">[datetime(6)]</text>
<polygon fill="none" stroke="#000000" points="771.5,-394.5 771.5,-424.5 980.5,-424.5 980.5,-394.5 771.5,-394.5"/>
<text text-anchor="start" x="778.5" y="-405.9" font-family="Arial" font-size="14.00" fill="#000000">delete_at </text>
<text text-anchor="start" x="839.974" y="-405.9" font-family="Arial" font-size="14.00" fill="#666666">[datetime(6)]</text>
</g>
<!-- registrations&#45;&gt;courses -->
<g id="edge5" class="edge">
<title>registrations:course_id&#45;&gt;courses:id</title>
<path fill="none" stroke="#000000" d="M761.3125,-498.8295C701.0939,-490.2166 753.0333,-400.4709 718.5,-337 683.0873,-271.9127 687.5974,-207.5 613.5,-207.5"/>
<polygon fill="#000000" stroke="#000000" points="761.5216,-498.8432 771.2044,-503.9903 766.5108,-499.1716 771.5,-499.5 771.5,-499.5 771.5,-499.5 766.5108,-499.1716 771.7956,-495.0097 761.5216,-498.8432 761.5216,-498.8432"/>
<text text-anchor="start" x="778.886" y="-509.5" font-family="Arial" font-size="10.00" fill="#000000">FOREIGN KEY (course_id) REFERENCES courses (id)</text>
</g>
</g>
</svg>
