<?xml version="1.0" encoding="UTF-8" standalone="no"?>
<!DOCTYPE svg PUBLIC "-//W3C//DTD SVG 1.1//EN"
 "http://www.w3.org/Graphics/SVG/1.1/DTD/svg11.dtd">
<!-- Generated by graphviz version 2.40.1 (20161225.0304)
 -->
<!-- Title: course_schedules Pages: 1 -->
<svg width="1042pt" height="652pt"
 viewBox="0.00 0.00 1042.00 652.00" xmlns="http://www.w3.org/2000/svg" xmlns:xlink="http://www.w3.org/1999/xlink">
<g id="graph0" class="graph" transform="scale(1 1) rotate(0) translate(4 648)">
<title>course_schedules</title>
<polygon fill="#ffffff" stroke="transparent" points="-4,4 -4,-648 1038,-648 1038,4 -4,4"/>
<!-- course_schedules -->
<g id="node1" class="node">
<title>course_schedules</title>
<polygon fill="#efefef" stroke="transparent" points="313.5,-562.5 313.5,-597.5 569.5,-597.5 569.5,-562.5 313.5,-562.5"/>
<polygon fill="none" stroke="#000000" points="313.5,-562.5 313.5,-597.5 569.5,-597.5 569.5,-562.5 313.5,-562.5"/>
<text text-anchor="start" x="320.352" y="-575.3" font-family="Arial Bold" font-size="18.00" fill="#000000">course_schedules</text>
<text text-anchor="start" x="465.3942" y="-575.3" font-family="Arial" font-size="14.00" fill="#000000"> </text>
<text text-anchor="start" x="469.2848" y="-575.3" font-family="Arial" font-size="14.00" fill="#666666">[BASE TABLE]</text>
<polygon fill="none" stroke="#000000" points="313.5,-532.5 313.5,-562.5 569.5,-562.5 569.5,-532.5 313.5,-532.5"/>
<text text-anchor="start" x="320.5" y="-543.9" font-family="Arial" font-size="14.00" fill="#000000">course_id </text>
<text text-anchor="start" x="385.0708" y="-543.9" font-family="Arial" font-size="14.00" fill="#666666">[char(36)]</text>
<polygon fill="none" stroke="#000000" points="313.5,-502.5 313.5,-532.5 569.5,-532.5 569.5,-502.5 313.5,-502.5"/>
<text text-anchor="start" x="320.5" y="-513.9" font-family="Arial" font-size="14.00" fill="#000000">schedule_id </text>
<text text-anchor="start" x="399.082" y="-513.9" font-family="Arial" font-size="14.00" fill="#666666">[char(36)]</text>
<polygon fill="none" stroke="#000000" stroke-width="3" points="312,-501.5 312,-599.5 571,-599.5 571,-501.5 312,-501.5"/>
</g>
<!-- courses -->
<g id="node2" class="node">
<title>courses</title>
<polygon fill="#efefef" stroke="transparent" points="43.5,-342.5 43.5,-377.5 312.5,-377.5 312.5,-342.5 43.5,-342.5"/>
<polygon fill="none" stroke="#000000" points="43.5,-342.5 43.5,-377.5 312.5,-377.5 312.5,-342.5 43.5,-342.5"/>
<text text-anchor="start" x="97.8677" y="-355.3" font-family="Arial Bold" font-size="18.00" fill="#000000">courses</text>
<text text-anchor="start" x="160.8785" y="-355.3" font-family="Arial" font-size="14.00" fill="#000000"> </text>
<text text-anchor="start" x="164.7691" y="-355.3" font-family="Arial" font-size="14.00" fill="#666666">[BASE TABLE]</text>
<polygon fill="none" stroke="#000000" points="43.5,-312.5 43.5,-342.5 312.5,-342.5 312.5,-312.5 43.5,-312.5"/>
<text text-anchor="start" x="50.5" y="-323.9" font-family="Arial" font-size="14.00" fill="#000000">id </text>
<text text-anchor="start" x="65.2798" y="-323.9" font-family="Arial" font-size="14.00" fill="#666666">[char(36)]</text>
<polygon fill="none" stroke="#000000" points="43.5,-282.5 43.5,-312.5 312.5,-312.5 312.5,-282.5 43.5,-282.5"/>
<text text-anchor="start" x="50.5" y="-293.9" font-family="Arial" font-size="14.00" fill="#000000">code </text>
<text text-anchor="start" x="84.7384" y="-293.9" font-family="Arial" font-size="14.00" fill="#666666">[varchar(255)]</text>
<polygon fill="none" stroke="#000000" points="43.5,-252.5 43.5,-282.5 312.5,-282.5 312.5,-252.5 43.5,-252.5"/>
<text text-anchor="start" x="50.4803" y="-263.9" font-family="Arial" font-size="14.00" fill="#000000">type </text>
<text text-anchor="start" x="80.8267" y="-263.9" font-family="Arial" font-size="14.00" fill="#666666">[enum(&#39;liberal&#45;arts&#39;,&#39;major&#45;subjects&#39;)]</text>
<polygon fill="none" stroke="#000000" points="43.5,-222.5 43.5,-252.5 312.5,-252.5 312.5,-222.5 43.5,-222.5"/>
<text text-anchor="start" x="50.5" y="-233.9" font-family="Arial" font-size="14.00" fill="#000000">name </text>
<text text-anchor="start" x="89.399" y="-233.9" font-family="Arial" font-size="14.00" fill="#666666">[varchar(255)]</text>
<polygon fill="none" stroke="#000000" points="43.5,-192.5 43.5,-222.5 312.5,-222.5 312.5,-192.5 43.5,-192.5"/>
<text text-anchor="start" x="50.5" y="-203.9" font-family="Arial" font-size="14.00" fill="#000000">description </text>
<text text-anchor="start" x="122.068" y="-203.9" font-family="Arial" font-size="14.00" fill="#666666">[text]</text>
<polygon fill="none" stroke="#000000" points="43.5,-162.5 43.5,-192.5 312.5,-192.5 312.5,-162.5 43.5,-162.5"/>
<text text-anchor="start" x="50.5" y="-173.9" font-family="Arial" font-size="14.00" fill="#000000">credit </text>
<text text-anchor="start" x="88.6136" y="-173.9" font-family="Arial" font-size="14.00" fill="#666666">[tinyint unsigned]</text>
<polygon fill="none" stroke="#000000" points="43.5,-132.5 43.5,-162.5 312.5,-162.5 312.5,-132.5 43.5,-132.5"/>
<text text-anchor="start" x="50.5" y="-143.9" font-family="Arial" font-size="14.00" fill="#000000">classroom </text>
<text text-anchor="start" x="118.1662" y="-143.9" font-family="Arial" font-size="14.00" fill="#666666">[varchar(255)]</text>
<polygon fill="none" stroke="#000000" points="43.5,-102.5 43.5,-132.5 312.5,-132.5 312.5,-102.5 43.5,-102.5"/>
<text text-anchor="start" x="50.5" y="-113.9" font-family="Arial" font-size="14.00" fill="#000000">capacity </text>
<text text-anchor="start" x="105.7356" y="-113.9" font-family="Arial" font-size="14.00" fill="#666666">[int unsigned]</text>
<polygon fill="none" stroke="#000000" points="43.5,-72.5 43.5,-102.5 312.5,-102.5 312.5,-72.5 43.5,-72.5"/>
<text text-anchor="start" x="50.5" y="-83.9" font-family="Arial" font-size="14.00" fill="#000000">teacher_id </text>
<text text-anchor="start" x="119.744" y="-83.9" font-family="Arial" font-size="14.00" fill="#666666">[char(36)]</text>
<polygon fill="none" stroke="#000000" points="43.5,-42.5 43.5,-72.5 312.5,-72.5 312.5,-42.5 43.5,-42.5"/>
<text text-anchor="start" x="50.5" y="-53.9" font-family="Arial" font-size="14.00" fill="#000000">keywords </text>
<text text-anchor="start" x="113.5056" y="-53.9" font-family="Arial" font-size="14.00" fill="#666666">[text]</text>
</g>
<!-- course_schedules&#45;&gt;courses -->
<g id="edge1" class="edge">
<title>course_schedules:course_id&#45;&gt;courses:id</title>
<path fill="none" stroke="#000000" d="M303.3449,-546.5191C230.475,-530.6482 406.4593,-327.5 312.5,-327.5"/>
<polygon fill="#000000" stroke="#000000" points="303.5463,-546.5385 313.0673,-551.9792 308.5232,-547.0193 313.5,-547.5 313.5,-547.5 313.5,-547.5 308.5232,-547.0193 313.9327,-543.0208 303.5463,-546.5385 303.5463,-546.5385"/>
<text text-anchor="start" x="59.886" y="-557.5" font-family="Arial" font-size="10.00" fill="#000000">FOREIGN KEY (course_id) REFERENCES courses (id)</text>
</g>
<!-- schedules -->
<g id="node3" class="node">
<title>schedules</title>
<polygon fill="#efefef" stroke="transparent" points="416.5,-267.5 416.5,-302.5 991.5,-302.5 991.5,-267.5 416.5,-267.5"/>
<polygon fill="none" stroke="#000000" points="416.5,-267.5 416.5,-302.5 991.5,-302.5 991.5,-267.5 416.5,-267.5"/>
<text text-anchor="start" x="614.8605" y="-280.3" font-family="Arial Bold" font-size="18.00" fill="#000000">schedules</text>
<text text-anchor="start" x="695.8857" y="-280.3" font-family="Arial" font-size="14.00" fill="#000000"> </text>
<text text-anchor="start" x="699.7763" y="-280.3" font-family="Arial" font-size="14.00" fill="#666666">[BASE TABLE]</text>
<polygon fill="none" stroke="#000000" points="416.5,-237.5 416.5,-267.5 991.5,-267.5 991.5,-237.5 416.5,-237.5"/>
<text text-anchor="start" x="423.5" y="-248.9" font-family="Arial" font-size="14.00" fill="#000000">id </text>
<text text-anchor="start" x="438.2798" y="-248.9" font-family="Arial" font-size="14.00" fill="#666666">[char(36)]</text>
<polygon fill="none" stroke="#000000" points="416.5,-207.5 416.5,-237.5 991.5,-237.5 991.5,-207.5 416.5,-207.5"/>
<text text-anchor="start" x="423.5" y="-218.9" font-family="Arial" font-size="14.00" fill="#000000">period </text>
<text text-anchor="start" x="466.2882" y="-218.9" font-family="Arial" font-size="14.00" fill="#666666">[tinyint unsigned]</text>
<polygon fill="none" stroke="#000000" points="416.5,-177.5 416.5,-207.5 991.5,-207.5 991.5,-177.5 416.5,-177.5"/>
<text text-anchor="start" x="423.2762" y="-188.9" font-family="Arial" font-size="14.00" fill="#000000">day_of_week </text>
<text text-anchor="start" x="509.6422" y="-188.9" font-family="Arial" font-size="14.00" fill="#666666">[enum(&#39;sunday&#39;,&#39;monday&#39;,&#39;tuesday&#39;,&#39;wednesday&#39;,&#39;thursday&#39;,&#39;friday&#39;,&#39;saturday&#39;)]</text>
<polygon fill="none" stroke="#000000" points="416.5,-147.5 416.5,-177.5 991.5,-177.5 991.5,-147.5 416.5,-147.5"/>
<text text-anchor="start" x="423.5" y="-158.9" font-family="Arial" font-size="14.00" fill="#000000">semester </text>
<text text-anchor="start" x="484.9502" y="-158.9" font-family="Arial" font-size="14.00" fill="#666666">[enum(&#39;first&#39;,&#39;second&#39;)]</text>
<polygon fill="none" stroke="#000000" points="416.5,-117.5 416.5,-147.5 991.5,-147.5 991.5,-117.5 416.5,-117.5"/>
<text text-anchor="start" x="423.5" y="-128.9" font-family="Arial" font-size="14.00" fill="#000000">year </text>
<text text-anchor="start" x="454.6164" y="-128.9" font-family="Arial" font-size="14.00" fill="#666666">[int unsigned]</text>
</g>
<!-- course_schedules&#45;&gt;schedules -->
<g id="edge2" class="edge">
<title>course_schedules:schedule_id&#45;&gt;schedules:id</title>
<path fill="none" stroke="#000000" d="M579.228,-515.0107C591.8635,-506.3868 579.8069,-477.2112 569.5,-457 531.3342,-382.1592 454.6658,-420.8408 416.5,-346 397.6214,-308.9802 374.9444,-252.5 416.5,-252.5"/>
<polygon fill="#000000" stroke="#000000" points="579.1879,-515.0209 568.3844,-513.1405 574.3439,-516.2605 569.5,-517.5 569.5,-517.5 569.5,-517.5 574.3439,-516.2605 570.6156,-521.8595 579.1879,-515.0209 579.1879,-515.0209"/>
<text text-anchor="start" x="576.878" y="-527.5" font-family="Arial" font-size="10.00" fill="#000000">FOREIGN KEY (schedule_id) REFERENCES schedules (id)</text>
</g>
</g>
</svg>
