<?xml version="1.0" encoding="UTF-8" standalone="no"?>
<!DOCTYPE svg PUBLIC "-//W3C//DTD SVG 1.1//EN"
 "http://www.w3.org/Graphics/SVG/1.1/DTD/svg11.dtd">
<!-- Generated by graphviz version 2.40.1 (20161225.0304)
 -->
<!-- Title: course_requirements Pages: 1 -->
<svg width="595pt" height="652pt"
 viewBox="0.00 0.00 595.00 652.00" xmlns="http://www.w3.org/2000/svg" xmlns:xlink="http://www.w3.org/1999/xlink">
<g id="graph0" class="graph" transform="scale(1 1) rotate(0) translate(4 648)">
<title>course_requirements</title>
<polygon fill="#ffffff" stroke="transparent" points="-4,4 -4,-648 591,-648 591,4 -4,4"/>
<!-- course_requirements -->
<g id="node1" class="node">
<title>course_requirements</title>
<polygon fill="#efefef" stroke="transparent" points="261,-562.5 261,-597.5 541,-597.5 541,-562.5 261,-562.5"/>
<polygon fill="none" stroke="#000000" points="261,-562.5 261,-597.5 541,-597.5 541,-562.5 261,-562.5"/>
<text text-anchor="start" x="267.8595" y="-575.3" font-family="Arial Bold" font-size="18.00" fill="#000000">course_requirements</text>
<text text-anchor="start" x="436.8867" y="-575.3" font-family="Arial" font-size="14.00" fill="#000000"> </text>
<text text-anchor="start" x="440.7773" y="-575.3" font-family="Arial" font-size="14.00" fill="#666666">[BASE TABLE]</text>
<polygon fill="none" stroke="#000000" points="261,-532.5 261,-562.5 541,-562.5 541,-532.5 261,-532.5"/>
<text text-anchor="start" x="268" y="-543.9" font-family="Arial" font-size="14.00" fill="#000000">course_id </text>
<text text-anchor="start" x="332.5708" y="-543.9" font-family="Arial" font-size="14.00" fill="#666666">[char(36)]</text>
<polygon fill="none" stroke="#000000" points="261,-502.5 261,-532.5 541,-532.5 541,-502.5 261,-502.5"/>
<text text-anchor="start" x="268" y="-513.9" font-family="Arial" font-size="14.00" fill="#000000">required_course_id </text>
<text text-anchor="start" x="391.6942" y="-513.9" font-family="Arial" font-size="14.00" fill="#666666">[char(36)]</text>
<polygon fill="none" stroke="#000000" stroke-width="3" points="259.5,-501.5 259.5,-599.5 542.5,-599.5 542.5,-501.5 259.5,-501.5"/>
</g>
<!-- courses -->
<g id="node2" class="node">
<title>courses</title>
<polygon fill="#efefef" stroke="transparent" points="266,-342.5 266,-377.5 535,-377.5 535,-342.5 266,-342.5"/>
<polygon fill="none" stroke="#000000" points="266,-342.5 266,-377.5 535,-377.5 535,-342.5 266,-342.5"/>
<text text-anchor="start" x="320.3677" y="-355.3" font-family="Arial Bold" font-size="18.00" fill="#000000">courses</text>
<text text-anchor="start" x="383.3785" y="-355.3" font-family="Arial" font-size="14.00" fill="#000000"> </text>
<text text-anchor="start" x="387.2691" y="-355.3" font-family="Arial" font-size="14.00" fill="#666666">[BASE TABLE]</text>
<polygon fill="none" stroke="#000000" points="266,-312.5 266,-342.5 535,-342.5 535,-312.5 266,-312.5"/>
<text text-anchor="start" x="273" y="-323.9" font-family="Arial" font-size="14.00" fill="#000000">id </text>
<text text-anchor="start" x="287.7798" y="-323.9" font-family="Arial" font-size="14.00" fill="#666666">[char(36)]</text>
<polygon fill="none" stroke="#000000" points="266,-282.5 266,-312.5 535,-312.5 535,-282.5 266,-282.5"/>
<text text-anchor="start" x="273" y="-293.9" font-family="Arial" font-size="14.00" fill="#000000">code </text>
<text text-anchor="start" x="307.2384" y="-293.9" font-family="Arial" font-size="14.00" fill="#666666">[varchar(255)]</text>
<polygon fill="none" stroke="#000000" points="266,-252.5 266,-282.5 535,-282.5 535,-252.5 266,-252.5"/>
<text text-anchor="start" x="272.9803" y="-263.9" font-family="Arial" font-size="14.00" fill="#000000">type </text>
<text text-anchor="start" x="303.3267" y="-263.9" font-family="Arial" font-size="14.00" fill="#666666">[enum(&#39;liberal&#45;arts&#39;,&#39;major&#45;subjects&#39;)]</text>
<polygon fill="none" stroke="#000000" points="266,-222.5 266,-252.5 535,-252.5 535,-222.5 266,-222.5"/>
<text text-anchor="start" x="273" y="-233.9" font-family="Arial" font-size="14.00" fill="#000000">name </text>
<text text-anchor="start" x="311.899" y="-233.9" font-family="Arial" font-size="14.00" fill="#666666">[varchar(255)]</text>
<polygon fill="none" stroke="#000000" points="266,-192.5 266,-222.5 535,-222.5 535,-192.5 266,-192.5"/>
<text text-anchor="start" x="273" y="-203.9" font-family="Arial" font-size="14.00" fill="#000000">description </text>
<text text-anchor="start" x="344.568" y="-203.9" font-family="Arial" font-size="14.00" fill="#666666">[text]</text>
<polygon fill="none" stroke="#000000" points="266,-162.5 266,-192.5 535,-192.5 535,-162.5 266,-162.5"/>
<text text-anchor="start" x="273" y="-173.9" font-family="Arial" font-size="14.00" fill="#000000">credit </text>
<text text-anchor="start" x="311.1136" y="-173.9" font-family="Arial" font-size="14.00" fill="#666666">[tinyint unsigned]</text>
<polygon fill="none" stroke="#000000" points="266,-132.5 266,-162.5 535,-162.5 535,-132.5 266,-132.5"/>
<text text-anchor="start" x="273" y="-143.9" font-family="Arial" font-size="14.00" fill="#000000">classroom </text>
<text text-anchor="start" x="340.6662" y="-143.9" font-family="Arial" font-size="14.00" fill="#666666">[varchar(255)]</text>
<polygon fill="none" stroke="#000000" points="266,-102.5 266,-132.5 535,-132.5 535,-102.5 266,-102.5"/>
<text text-anchor="start" x="273" y="-113.9" font-family="Arial" font-size="14.00" fill="#000000">capacity </text>
<text text-anchor="start" x="328.2356" y="-113.9" font-family="Arial" font-size="14.00" fill="#666666">[int unsigned]</text>
<polygon fill="none" stroke="#000000" points="266,-72.5 266,-102.5 535,-102.5 535,-72.5 266,-72.5"/>
<text text-anchor="start" x="273" y="-83.9" font-family="Arial" font-size="14.00" fill="#000000">teacher_id </text>
<text text-anchor="start" x="342.244" y="-83.9" font-family="Arial" font-size="14.00" fill="#666666">[char(36)]</text>
<polygon fill="none" stroke="#000000" points="266,-42.5 266,-72.5 535,-72.5 535,-42.5 266,-42.5"/>
<text text-anchor="start" x="273" y="-53.9" font-family="Arial" font-size="14.00" fill="#000000">keywords </text>
<text text-anchor="start" x="336.0056" y="-53.9" font-family="Arial" font-size="14.00" fill="#666666">[text]</text>
</g>
<!-- course_requirements&#45;&gt;courses -->
<g id="edge1" class="edge">
<title>course_requirements:course_id&#45;&gt;courses:id</title>
<path fill="none" stroke="#000000" d="M251.0754,-545.9854C223.4589,-536.4646 236.9624,-484.4025 261,-457 341.9958,-364.6663 454.0042,-513.3337 535,-421 562.4036,-389.7605 576.5556,-327.5 535,-327.5"/>
<polygon fill="#000000" stroke="#000000" points="251.1144,-545.9913 260.3211,-551.9485 256.0572,-546.7457 261,-547.5 261,-547.5 261,-547.5 256.0572,-546.7457 261.6789,-543.0515 251.1144,-545.9913 251.1144,-545.9913"/>
<text text-anchor="start" x="7.386" y="-557.5" font-family="Arial" font-size="10.00" fill="#000000">FOREIGN KEY (course_id) REFERENCES courses (id)</text>
</g>
<!-- course_requirements&#45;&gt;courses -->
<g id="edge2" class="edge">
<title>course_requirements:required_course_id&#45;&gt;courses:id</title>
<path fill="none" stroke="#000000" d="M401.8087,-492.4289C411.3472,-437.6534 502.64,-478.5569 535,-421 555.3655,-384.777 576.5556,-327.5 535,-327.5"/>
<polygon fill="#000000" stroke="#000000" points="401.8005,-492.5321 396.5144,-502.1398 401.4002,-497.516 401,-502.5 401,-502.5 401,-502.5 401.4002,-497.516 405.4856,-502.8602 401.8005,-492.5321 401.8005,-492.5321"/>
<text text-anchor="start" x="105.2705" y="-512.5" font-family="Arial" font-size="10.00" fill="#000000">FOREIGN KEY (required_course_id) REFERENCES courses (id)</text>
</g>
</g>
</svg>
