<?xml version="1.0" encoding="UTF-8" standalone="no"?>
<!DOCTYPE svg PUBLIC "-//W3C//DTD SVG 1.1//EN"
 "http://www.w3.org/Graphics/SVG/1.1/DTD/svg11.dtd">
<!-- Generated by graphviz version 2.40.1 (20161225.0304)
 -->
<!-- Title: courses Pages: 1 -->
<svg width="2204pt" height="959pt"
 viewBox="0.00 0.00 2203.50 959.00" xmlns="http://www.w3.org/2000/svg" xmlns:xlink="http://www.w3.org/1999/xlink">
<g id="graph0" class="graph" transform="scale(1 1) rotate(0) translate(4 955)">
<title>courses</title>
<polygon fill="#ffffff" stroke="transparent" points="-4,4 -4,-955 2199.5,-955 2199.5,4 -4,4"/>
<!-- courses -->
<g id="node1" class="node">
<title>courses</title>
<polygon fill="#efefef" stroke="transparent" points="972.5,-225.5 972.5,-260.5 1146.5,-260.5 1146.5,-225.5 972.5,-225.5"/>
<polygon fill="none" stroke="#000000" points="972.5,-225.5 972.5,-260.5 1146.5,-260.5 1146.5,-225.5 972.5,-225.5"/>
<text text-anchor="start" x="979.3677" y="-238.3" font-family="Arial Bold" font-size="18.00" fill="#000000">courses</text>
<text text-anchor="start" x="1042.3785" y="-238.3" font-family="Arial" font-size="14.00" fill="#000000"> </text>
<text text-anchor="start" x="1046.2691" y="-238.3" font-family="Arial" font-size="14.00" fill="#666666">[BASE TABLE]</text>
<polygon fill="none" stroke="#000000" points="972.5,-195.5 972.5,-225.5 1146.5,-225.5 1146.5,-195.5 972.5,-195.5"/>
<text text-anchor="start" x="979.5" y="-206.9" font-family="Arial" font-size="14.00" fill="#000000">id </text>
<text text-anchor="start" x="994.2798" y="-206.9" font-family="Arial" font-size="14.00" fill="#666666">[char(36)]</text>
<polygon fill="none" stroke="#000000" points="972.5,-165.5 972.5,-195.5 1146.5,-195.5 1146.5,-165.5 972.5,-165.5"/>
<text text-anchor="start" x="979.5" y="-176.9" font-family="Arial" font-size="14.00" fill="#000000">name </text>
<text text-anchor="start" x="1018.399" y="-176.9" font-family="Arial" font-size="14.00" fill="#666666">[varchar(255)]</text>
<polygon fill="none" stroke="#000000" points="972.5,-135.5 972.5,-165.5 1146.5,-165.5 1146.5,-135.5 972.5,-135.5"/>
<text text-anchor="start" x="979.5" y="-146.9" font-family="Arial" font-size="14.00" fill="#000000">description </text>
<text text-anchor="start" x="1051.068" y="-146.9" font-family="Arial" font-size="14.00" fill="#666666">[text]</text>
<polygon fill="none" stroke="#000000" points="972.5,-105.5 972.5,-135.5 1146.5,-135.5 1146.5,-105.5 972.5,-105.5"/>
<text text-anchor="start" x="979.5" y="-116.9" font-family="Arial" font-size="14.00" fill="#000000">credit </text>
<text text-anchor="start" x="1017.6136" y="-116.9" font-family="Arial" font-size="14.00" fill="#666666">[tinyint unsigned]</text>
<polygon fill="none" stroke="#000000" points="972.5,-75.5 972.5,-105.5 1146.5,-105.5 1146.5,-75.5 972.5,-75.5"/>
<text text-anchor="start" x="979.5" y="-86.9" font-family="Arial" font-size="14.00" fill="#000000">classroom </text>
<text text-anchor="start" x="1047.1662" y="-86.9" font-family="Arial" font-size="14.00" fill="#666666">[varchar(255)]</text>
<polygon fill="none" stroke="#000000" points="972.5,-45.5 972.5,-75.5 1146.5,-75.5 1146.5,-45.5 972.5,-45.5"/>
<text text-anchor="start" x="979.5" y="-56.9" font-family="Arial" font-size="14.00" fill="#000000">capacity </text>
<text text-anchor="start" x="1034.7356" y="-56.9" font-family="Arial" font-size="14.00" fill="#666666">[int unsigned]</text>
<polygon fill="none" stroke="#000000" stroke-width="3" points="971,-44.5 971,-262.5 1148,-262.5 1148,-44.5 971,-44.5"/>
</g>
<!-- announcements -->
<g id="node2" class="node">
<title>announcements</title>
<polygon fill="#efefef" stroke="transparent" points="246.5,-535.5 246.5,-570.5 485.5,-570.5 485.5,-535.5 246.5,-535.5"/>
<polygon fill="none" stroke="#000000" points="246.5,-535.5 246.5,-570.5 485.5,-570.5 485.5,-535.5 246.5,-535.5"/>
<text text-anchor="start" x="253.348" y="-548.3" font-family="Arial Bold" font-size="18.00" fill="#000000">announcements</text>
<text text-anchor="start" x="381.3982" y="-548.3" font-family="Arial" font-size="14.00" fill="#000000"> </text>
<text text-anchor="start" x="385.2888" y="-548.3" font-family="Arial" font-size="14.00" fill="#666666">[BASE TABLE]</text>
<polygon fill="none" stroke="#000000" points="246.5,-505.5 246.5,-535.5 485.5,-535.5 485.5,-505.5 246.5,-505.5"/>
<text text-anchor="start" x="253.5" y="-516.9" font-family="Arial" font-size="14.00" fill="#000000">id </text>
<text text-anchor="start" x="268.2798" y="-516.9" font-family="Arial" font-size="14.00" fill="#666666">[char(36)]</text>
<polygon fill="none" stroke="#000000" points="246.5,-475.5 246.5,-505.5 485.5,-505.5 485.5,-475.5 246.5,-475.5"/>
<text text-anchor="start" x="253.5" y="-486.9" font-family="Arial" font-size="14.00" fill="#000000">course_id </text>
<text text-anchor="start" x="318.0708" y="-486.9" font-family="Arial" font-size="14.00" fill="#666666">[char(36)]</text>
<polygon fill="none" stroke="#000000" points="246.5,-445.5 246.5,-475.5 485.5,-475.5 485.5,-445.5 246.5,-445.5"/>
<text text-anchor="start" x="253.5" y="-456.9" font-family="Arial" font-size="14.00" fill="#000000">title </text>
<text text-anchor="start" x="279.1676" y="-456.9" font-family="Arial" font-size="14.00" fill="#666666">[varchar(255)]</text>
<polygon fill="none" stroke="#000000" points="246.5,-415.5 246.5,-445.5 485.5,-445.5 485.5,-415.5 246.5,-415.5"/>
<text text-anchor="start" x="253.5" y="-426.9" font-family="Arial" font-size="14.00" fill="#000000">message </text>
<text text-anchor="start" x="314.1816" y="-426.9" font-family="Arial" font-size="14.00" fill="#666666">[text]</text>
<polygon fill="none" stroke="#000000" points="246.5,-385.5 246.5,-415.5 485.5,-415.5 485.5,-385.5 246.5,-385.5"/>
<text text-anchor="start" x="253.5" y="-396.9" font-family="Arial" font-size="14.00" fill="#000000">created_at </text>
<text text-anchor="start" x="323.528" y="-396.9" font-family="Arial" font-size="14.00" fill="#666666">[datetime(6)]</text>
</g>
<!-- announcements&#45;&gt;courses -->
<g id="edge1" class="edge">
<title>announcements:course_id&#45;&gt;courses:id</title>
<path fill="none" stroke="#000000" d="M495.8026,-489.6901C551.3627,-480.125 500.6906,-388.2407 551.5,-343 698.0014,-212.5553 776.3407,-210.5 972.5,-210.5"/>
<polygon fill="#000000" stroke="#000000" points="495.4692,-489.7163 485.1473,-486.0138 490.4846,-490.1081 485.5,-490.5 485.5,-490.5 485.5,-490.5 490.4846,-490.1081 485.8527,-494.9862 495.4692,-489.7163 495.4692,-489.7163"/>
<text text-anchor="start" x="362.386" y="-474.5" font-family="Arial" font-size="10.00" fill="#000000">FOREIGN KEY (course_id) REFERENCES courses (id)</text>
</g>
<!-- unread_announcements -->
<g id="node3" class="node">
<title>unread_announcements</title>
<polygon fill="#efefef" stroke="transparent" points="43.5,-842.5 43.5,-877.5 348.5,-877.5 348.5,-842.5 43.5,-842.5"/>
<polygon fill="none" stroke="#000000" points="43.5,-842.5 43.5,-877.5 348.5,-877.5 348.5,-842.5 43.5,-842.5"/>
<text text-anchor="start" x="50.3333" y="-855.3" font-family="Arial Bold" font-size="18.00" fill="#000000">unread_announcements</text>
<text text-anchor="start" x="244.4129" y="-855.3" font-family="Arial" font-size="14.00" fill="#000000"> </text>
<text text-anchor="start" x="248.3035" y="-855.3" font-family="Arial" font-size="14.00" fill="#666666">[BASE TABLE]</text>
<polygon fill="none" stroke="#000000" points="43.5,-812.5 43.5,-842.5 348.5,-842.5 348.5,-812.5 43.5,-812.5"/>
<text text-anchor="start" x="50.5" y="-823.9" font-family="Arial" font-size="14.00" fill="#000000">announcement_id </text>
<text text-anchor="start" x="165.657" y="-823.9" font-family="Arial" font-size="14.00" fill="#666666">[char(36)]</text>
<polygon fill="none" stroke="#000000" points="43.5,-782.5 43.5,-812.5 348.5,-812.5 348.5,-782.5 43.5,-782.5"/>
<text text-anchor="start" x="50.5" y="-793.9" font-family="Arial" font-size="14.00" fill="#000000">user_id </text>
<text text-anchor="start" x="100.2882" y="-793.9" font-family="Arial" font-size="14.00" fill="#666666">[char(36)]</text>
<polygon fill="none" stroke="#000000" points="43.5,-752.5 43.5,-782.5 348.5,-782.5 348.5,-752.5 43.5,-752.5"/>
<text text-anchor="start" x="50.5" y="-763.9" font-family="Arial" font-size="14.00" fill="#000000">created_at </text>
<text text-anchor="start" x="120.528" y="-763.9" font-family="Arial" font-size="14.00" fill="#666666">[datetime(6)]</text>
<polygon fill="none" stroke="#000000" points="43.5,-722.5 43.5,-752.5 348.5,-752.5 348.5,-722.5 43.5,-722.5"/>
<text text-anchor="start" x="50.5" y="-733.9" font-family="Arial" font-size="14.00" fill="#000000">deleted_at </text>
<text text-anchor="start" x="119.7566" y="-733.9" font-family="Arial" font-size="14.00" fill="#666666">[datetime(6)]</text>
</g>
<!-- unread_announcements&#45;&gt;announcements -->
<g id="edge2" class="edge">
<title>unread_announcements:announcement_id&#45;&gt;announcements:id</title>
<path fill="none" stroke="#000000" d="M358.6976,-826.6568C410.1875,-817.4181 378.0536,-734.3238 348.5,-680 322.6962,-632.5688 272.3038,-661.4312 246.5,-614 226.6412,-577.4967 204.9444,-520.5 246.5,-520.5"/>
<polygon fill="#000000" stroke="#000000" points="358.466,-826.6759 348.1292,-823.0153 353.483,-827.0879 348.5,-827.5 348.5,-827.5 348.5,-827.5 353.483,-827.0879 348.8708,-831.9847 358.466,-826.6759 358.466,-826.6759"/>
<text text-anchor="start" x="355.753" y="-837.5" font-family="Arial" font-size="10.00" fill="#000000">FOREIGN KEY (announcement_id) REFERENCES announcements (id)</text>
</g>
<!-- classes -->
<g id="node4" class="node">
<title>classes</title>
<polygon fill="#efefef" stroke="transparent" points="603.5,-535.5 603.5,-570.5 815.5,-570.5 815.5,-535.5 603.5,-535.5"/>
<polygon fill="none" stroke="#000000" points="603.5,-535.5 603.5,-570.5 815.5,-570.5 815.5,-535.5 603.5,-535.5"/>
<text text-anchor="start" x="630.8698" y="-548.3" font-family="Arial Bold" font-size="18.00" fill="#000000">classes</text>
<text text-anchor="start" x="690.8764" y="-548.3" font-family="Arial" font-size="14.00" fill="#000000"> </text>
<text text-anchor="start" x="694.767" y="-548.3" font-family="Arial" font-size="14.00" fill="#666666">[BASE TABLE]</text>
<polygon fill="none" stroke="#000000" points="603.5,-505.5 603.5,-535.5 815.5,-535.5 815.5,-505.5 603.5,-505.5"/>
<text text-anchor="start" x="610.5" y="-516.9" font-family="Arial" font-size="14.00" fill="#000000">id </text>
<text text-anchor="start" x="625.2798" y="-516.9" font-family="Arial" font-size="14.00" fill="#666666">[char(36)]</text>
<polygon fill="none" stroke="#000000" points="603.5,-475.5 603.5,-505.5 815.5,-505.5 815.5,-475.5 603.5,-475.5"/>
<text text-anchor="start" x="610.5" y="-486.9" font-family="Arial" font-size="14.00" fill="#000000">course_id </text>
<text text-anchor="start" x="675.0708" y="-486.9" font-family="Arial" font-size="14.00" fill="#666666">[char(36)]</text>
<polygon fill="none" stroke="#000000" points="603.5,-445.5 603.5,-475.5 815.5,-475.5 815.5,-445.5 603.5,-445.5"/>
<text text-anchor="start" x="610.5" y="-456.9" font-family="Arial" font-size="14.00" fill="#000000">title </text>
<text text-anchor="start" x="636.1676" y="-456.9" font-family="Arial" font-size="14.00" fill="#666666">[varchar(255)]</text>
<polygon fill="none" stroke="#000000" points="603.5,-415.5 603.5,-445.5 815.5,-445.5 815.5,-415.5 603.5,-415.5"/>
<text text-anchor="start" x="610.5" y="-426.9" font-family="Arial" font-size="14.00" fill="#000000">description </text>
<text text-anchor="start" x="682.068" y="-426.9" font-family="Arial" font-size="14.00" fill="#666666">[text]</text>
<polygon fill="none" stroke="#000000" points="603.5,-385.5 603.5,-415.5 815.5,-415.5 815.5,-385.5 603.5,-385.5"/>
<text text-anchor="start" x="610.3002" y="-396.9" font-family="Arial" font-size="14.00" fill="#000000">attendance_code </text>
<text text-anchor="start" x="721.5806" y="-396.9" font-family="Arial" font-size="14.00" fill="#666666">[varchar(255)]</text>
</g>
<!-- classes&#45;&gt;courses -->
<g id="edge3" class="edge">
<title>classes:course_id&#45;&gt;courses:id</title>
<path fill="none" stroke="#000000" d="M825.5205,-489.7936C879.8551,-481.4328 835.671,-400.6404 867.5,-343 903.8213,-277.2243 897.3623,-210.5 972.5,-210.5"/>
<polygon fill="#000000" stroke="#000000" points="825.4752,-489.7967 815.1835,-486.0111 820.4876,-490.1483 815.5,-490.5 815.5,-490.5 815.5,-490.5 820.4876,-490.1483 815.8165,-494.9889 825.4752,-489.7967 825.4752,-489.7967"/>
<text text-anchor="start" x="822.886" y="-500.5" font-family="Arial" font-size="10.00" fill="#000000">FOREIGN KEY (course_id) REFERENCES courses (id)</text>
</g>
<!-- assignment -->
<g id="node5" class="node">
<title>assignment</title>
<polygon fill="#efefef" stroke="transparent" points="452.5,-872.5 452.5,-907.5 655.5,-907.5 655.5,-872.5 452.5,-872.5"/>
<polygon fill="none" stroke="#000000" points="452.5,-872.5 452.5,-907.5 655.5,-907.5 655.5,-872.5 452.5,-872.5"/>
<text text-anchor="start" x="459.3633" y="-885.3" font-family="Arial Bold" font-size="18.00" fill="#000000">assignment</text>
<text text-anchor="start" x="551.3829" y="-885.3" font-family="Arial" font-size="14.00" fill="#000000"> </text>
<text text-anchor="start" x="555.2735" y="-885.3" font-family="Arial" font-size="14.00" fill="#666666">[BASE TABLE]</text>
<polygon fill="none" stroke="#000000" points="452.5,-842.5 452.5,-872.5 655.5,-872.5 655.5,-842.5 452.5,-842.5"/>
<text text-anchor="start" x="459.5" y="-853.9" font-family="Arial" font-size="14.00" fill="#000000">id </text>
<text text-anchor="start" x="474.2798" y="-853.9" font-family="Arial" font-size="14.00" fill="#666666">[char(36)]</text>
<polygon fill="none" stroke="#000000" points="452.5,-812.5 452.5,-842.5 655.5,-842.5 655.5,-812.5 452.5,-812.5"/>
<text text-anchor="start" x="459.5" y="-823.9" font-family="Arial" font-size="14.00" fill="#000000">class_id </text>
<text text-anchor="start" x="513.9516" y="-823.9" font-family="Arial" font-size="14.00" fill="#666666">[char(36)]</text>
<polygon fill="none" stroke="#000000" points="452.5,-782.5 452.5,-812.5 655.5,-812.5 655.5,-782.5 452.5,-782.5"/>
<text text-anchor="start" x="459.5" y="-793.9" font-family="Arial" font-size="14.00" fill="#000000">name </text>
<text text-anchor="start" x="498.399" y="-793.9" font-family="Arial" font-size="14.00" fill="#666666">[varchar(255)]</text>
<polygon fill="none" stroke="#000000" points="452.5,-752.5 452.5,-782.5 655.5,-782.5 655.5,-752.5 452.5,-752.5"/>
<text text-anchor="start" x="459.5" y="-763.9" font-family="Arial" font-size="14.00" fill="#000000">description </text>
<text text-anchor="start" x="531.068" y="-763.9" font-family="Arial" font-size="14.00" fill="#666666">[text]</text>
<polygon fill="none" stroke="#000000" points="452.5,-722.5 452.5,-752.5 655.5,-752.5 655.5,-722.5 452.5,-722.5"/>
<text text-anchor="start" x="459.5" y="-733.9" font-family="Arial" font-size="14.00" fill="#000000">deadline </text>
<text text-anchor="start" x="516.2994" y="-733.9" font-family="Arial" font-size="14.00" fill="#666666">[datetime(6)]</text>
<polygon fill="none" stroke="#000000" points="452.5,-692.5 452.5,-722.5 655.5,-722.5 655.5,-692.5 452.5,-692.5"/>
<text text-anchor="start" x="459.5" y="-703.9" font-family="Arial" font-size="14.00" fill="#000000">created_at </text>
<text text-anchor="start" x="529.528" y="-703.9" font-family="Arial" font-size="14.00" fill="#666666">[datetime(6)]</text>
</g>
<!-- assignment&#45;&gt;classes -->
<g id="edge4" class="edge">
<title>assignment:class_id&#45;&gt;classes:id</title>
<path fill="none" stroke="#000000" d="M665.8081,-826.8056C730.438,-817.4934 690.3966,-716.6026 655.5,-650 642.4544,-625.1015 616.5456,-638.8985 603.5,-614 584.2138,-577.1909 561.9444,-520.5 603.5,-520.5"/>
<polygon fill="#000000" stroke="#000000" points="665.4774,-826.8277 655.1975,-823.0102 660.4887,-827.1639 655.5,-827.5 655.5,-827.5 655.5,-827.5 660.4887,-827.1639 655.8025,-831.9898 665.4774,-826.8277 665.4774,-826.8277"/>
<text text-anchor="start" x="410.3345" y="-811.5" font-family="Arial" font-size="10.00" fill="#000000">FOREIGN KEY (class_id) REFERENCES classes (id)</text>
</g>
<!-- attendances -->
<g id="node6" class="node">
<title>attendances</title>
<polygon fill="#efefef" stroke="transparent" points="759.5,-827.5 759.5,-862.5 968.5,-862.5 968.5,-827.5 759.5,-827.5"/>
<polygon fill="none" stroke="#000000" points="759.5,-827.5 759.5,-862.5 968.5,-862.5 968.5,-827.5 759.5,-827.5"/>
<text text-anchor="start" x="766.3492" y="-840.3" font-family="Arial Bold" font-size="18.00" fill="#000000">attendances</text>
<text text-anchor="start" x="864.397" y="-840.3" font-family="Arial" font-size="14.00" fill="#000000"> </text>
<text text-anchor="start" x="868.2876" y="-840.3" font-family="Arial" font-size="14.00" fill="#666666">[BASE TABLE]</text>
<polygon fill="none" stroke="#000000" points="759.5,-797.5 759.5,-827.5 968.5,-827.5 968.5,-797.5 759.5,-797.5"/>
<text text-anchor="start" x="766.5" y="-808.9" font-family="Arial" font-size="14.00" fill="#000000">class_id </text>
<text text-anchor="start" x="820.9516" y="-808.9" font-family="Arial" font-size="14.00" fill="#666666">[char(36)]</text>
<polygon fill="none" stroke="#000000" points="759.5,-767.5 759.5,-797.5 968.5,-797.5 968.5,-767.5 759.5,-767.5"/>
<text text-anchor="start" x="766.5" y="-778.9" font-family="Arial" font-size="14.00" fill="#000000">user_id </text>
<text text-anchor="start" x="816.2882" y="-778.9" font-family="Arial" font-size="14.00" fill="#666666">[char(36)]</text>
<polygon fill="none" stroke="#000000" points="759.5,-737.5 759.5,-767.5 968.5,-767.5 968.5,-737.5 759.5,-737.5"/>
<text text-anchor="start" x="766.5" y="-748.9" font-family="Arial" font-size="14.00" fill="#000000">created_at </text>
<text text-anchor="start" x="836.528" y="-748.9" font-family="Arial" font-size="14.00" fill="#666666">[datetime(6)]</text>
</g>
<!-- attendances&#45;&gt;classes -->
<g id="edge5" class="edge">
<title>attendances:class_id&#45;&gt;classes:id</title>
<path fill="none" stroke="#000000" d="M749.4556,-812.1C638.4305,-802.6983 810.3343,-630.5556 815.5,-614 827.8778,-574.3307 857.0556,-520.5 815.5,-520.5"/>
<polygon fill="#000000" stroke="#000000" points="749.5079,-812.102 759.3209,-816.9964 754.504,-812.301 759.5,-812.5 759.5,-812.5 759.5,-812.5 754.504,-812.301 759.6791,-808.0036 749.5079,-812.102 749.5079,-812.102"/>
<text text-anchor="start" x="766.3345" y="-822.5" font-family="Arial" font-size="10.00" fill="#000000">FOREIGN KEY (class_id) REFERENCES classes (id)</text>
</g>
<!-- documents -->
<g id="node7" class="node">
<title>documents</title>
<polygon fill="#efefef" stroke="transparent" points="1072.5,-842.5 1072.5,-877.5 1271.5,-877.5 1271.5,-842.5 1072.5,-842.5"/>
<polygon fill="none" stroke="#000000" points="1072.5,-842.5 1072.5,-877.5 1271.5,-877.5 1271.5,-842.5 1072.5,-842.5"/>
<text text-anchor="start" x="1079.3604" y="-855.3" font-family="Arial Bold" font-size="18.00" fill="#000000">documents</text>
<text text-anchor="start" x="1167.3858" y="-855.3" font-family="Arial" font-size="14.00" fill="#000000"> </text>
<text text-anchor="start" x="1171.2764" y="-855.3" font-family="Arial" font-size="14.00" fill="#666666">[BASE TABLE]</text>
<polygon fill="none" stroke="#000000" points="1072.5,-812.5 1072.5,-842.5 1271.5,-842.5 1271.5,-812.5 1072.5,-812.5"/>
<text text-anchor="start" x="1079.5" y="-823.9" font-family="Arial" font-size="14.00" fill="#000000">id </text>
<text text-anchor="start" x="1094.2798" y="-823.9" font-family="Arial" font-size="14.00" fill="#666666">[char(36)]</text>
<polygon fill="none" stroke="#000000" points="1072.5,-782.5 1072.5,-812.5 1271.5,-812.5 1271.5,-782.5 1072.5,-782.5"/>
<text text-anchor="start" x="1079.5" y="-793.9" font-family="Arial" font-size="14.00" fill="#000000">class_id </text>
<text text-anchor="start" x="1133.9516" y="-793.9" font-family="Arial" font-size="14.00" fill="#666666">[char(36)]</text>
<polygon fill="none" stroke="#000000" points="1072.5,-752.5 1072.5,-782.5 1271.5,-782.5 1271.5,-752.5 1072.5,-752.5"/>
<text text-anchor="start" x="1079.5" y="-763.9" font-family="Arial" font-size="14.00" fill="#000000">name </text>
<text text-anchor="start" x="1118.399" y="-763.9" font-family="Arial" font-size="14.00" fill="#666666">[text]</text>
<polygon fill="none" stroke="#000000" points="1072.5,-722.5 1072.5,-752.5 1271.5,-752.5 1271.5,-722.5 1072.5,-722.5"/>
<text text-anchor="start" x="1079.5" y="-733.9" font-family="Arial" font-size="14.00" fill="#000000">created_at </text>
<text text-anchor="start" x="1149.528" y="-733.9" font-family="Arial" font-size="14.00" fill="#666666">[datetime(6)]</text>
</g>
<!-- documents&#45;&gt;classes -->
<g id="edge6" class="edge">
<title>documents:class_id&#45;&gt;classes:id</title>
<path fill="none" stroke="#000000" d="M1062.2697,-796.6185C1009.984,-786.607 1068.6046,-693.8738 1019.5,-650 967.7296,-603.7444 922.8558,-655.8986 867.5,-614 829.586,-585.303 863.0498,-520.5 815.5,-520.5"/>
<polygon fill="#000000" stroke="#000000" points="1062.5369,-796.6414 1072.1136,-801.9834 1067.5185,-797.0707 1072.5,-797.5 1072.5,-797.5 1072.5,-797.5 1067.5185,-797.0707 1072.8864,-793.0166 1062.5369,-796.6414 1062.5369,-796.6414"/>
<text text-anchor="start" x="1079.3345" y="-807.5" font-family="Arial" font-size="10.00" fill="#000000">FOREIGN KEY (class_id) REFERENCES classes (id)</text>
</g>
<!-- course_requirements -->
<g id="node8" class="node">
<title>course_requirements</title>
<polygon fill="#efefef" stroke="transparent" points="919.5,-490.5 919.5,-525.5 1199.5,-525.5 1199.5,-490.5 919.5,-490.5"/>
<polygon fill="none" stroke="#000000" points="919.5,-490.5 919.5,-525.5 1199.5,-525.5 1199.5,-490.5 919.5,-490.5"/>
<text text-anchor="start" x="926.3595" y="-503.3" font-family="Arial Bold" font-size="18.00" fill="#000000">course_requirements</text>
<text text-anchor="start" x="1095.3867" y="-503.3" font-family="Arial" font-size="14.00" fill="#000000"> </text>
<text text-anchor="start" x="1099.2773" y="-503.3" font-family="Arial" font-size="14.00" fill="#666666">[BASE TABLE]</text>
<polygon fill="none" stroke="#000000" points="919.5,-460.5 919.5,-490.5 1199.5,-490.5 1199.5,-460.5 919.5,-460.5"/>
<text text-anchor="start" x="926.5" y="-471.9" font-family="Arial" font-size="14.00" fill="#000000">course_id </text>
<text text-anchor="start" x="991.0708" y="-471.9" font-family="Arial" font-size="14.00" fill="#666666">[char(36)]</text>
<polygon fill="none" stroke="#000000" points="919.5,-430.5 919.5,-460.5 1199.5,-460.5 1199.5,-430.5 919.5,-430.5"/>
<text text-anchor="start" x="926.5" y="-441.9" font-family="Arial" font-size="14.00" fill="#000000">required_course_id </text>
<text text-anchor="start" x="1050.1942" y="-441.9" font-family="Arial" font-size="14.00" fill="#666666">[char(36)]</text>
</g>
<!-- course_requirements&#45;&gt;courses -->
<g id="edge7" class="edge">
<title>course_requirements:course_id&#45;&gt;courses:id</title>
<path fill="none" stroke="#000000" d="M1206.1908,-467.8549C1218.9989,-424.4053 1173.4779,-210.5 1146.5,-210.5"/>
<polygon fill="#000000" stroke="#000000" points="1206.0858,-467.9748 1196.1137,-472.5364 1202.7929,-471.7374 1199.5,-475.5 1199.5,-475.5 1199.5,-475.5 1202.7929,-471.7374 1202.8863,-478.4636 1206.0858,-467.9748 1206.0858,-467.9748"/>
<text text-anchor="start" x="1076.386" y="-459.5" font-family="Arial" font-size="10.00" fill="#000000">FOREIGN KEY (course_id) REFERENCES courses (id)</text>
</g>
<!-- course_requirements&#45;&gt;courses -->
<g id="edge8" class="edge">
<title>course_requirements:required_course_id&#45;&gt;courses:id</title>
<path fill="none" stroke="#000000" d="M1060.04,-420.4805C1066.4077,-363.9662 1127.2888,-367.6294 1146.5,-307 1159.4551,-266.1145 1189.3889,-210.5 1146.5,-210.5"/>
<polygon fill="#000000" stroke="#000000" points="1060.0383,-420.5145 1055.0065,-430.2578 1059.7691,-425.5072 1059.5,-430.5 1059.5,-430.5 1059.5,-430.5 1059.7691,-425.5072 1063.9935,-430.7422 1060.0383,-420.5145 1060.0383,-420.5145"/>
<text text-anchor="start" x="763.7705" y="-440.5" font-family="Arial" font-size="10.00" fill="#000000">FOREIGN KEY (required_course_id) REFERENCES courses (id)</text>
</g>
<!-- course_schedules -->
<g id="node9" class="node">
<title>course_schedules</title>
<polygon fill="#efefef" stroke="transparent" points="1303.5,-490.5 1303.5,-525.5 1559.5,-525.5 1559.5,-490.5 1303.5,-490.5"/>
<polygon fill="none" stroke="#000000" points="1303.5,-490.5 1303.5,-525.5 1559.5,-525.5 1559.5,-490.5 1303.5,-490.5"/>
<text text-anchor="start" x="1310.352" y="-503.3" font-family="Arial Bold" font-size="18.00" fill="#000000">course_schedules</text>
<text text-anchor="start" x="1455.3942" y="-503.3" font-family="Arial" font-size="14.00" fill="#000000"> </text>
<text text-anchor="start" x="1459.2848" y="-503.3" font-family="Arial" font-size="14.00" fill="#666666">[BASE TABLE]</text>
<polygon fill="none" stroke="#000000" points="1303.5,-460.5 1303.5,-490.5 1559.5,-490.5 1559.5,-460.5 1303.5,-460.5"/>
<text text-anchor="start" x="1310.5" y="-471.9" font-family="Arial" font-size="14.00" fill="#000000">course_id </text>
<text text-anchor="start" x="1375.0708" y="-471.9" font-family="Arial" font-size="14.00" fill="#666666">[char(36)]</text>
<polygon fill="none" stroke="#000000" points="1303.5,-430.5 1303.5,-460.5 1559.5,-460.5 1559.5,-430.5 1303.5,-430.5"/>
<text text-anchor="start" x="1310.5" y="-441.9" font-family="Arial" font-size="14.00" fill="#000000">schedule_id </text>
<text text-anchor="start" x="1389.082" y="-441.9" font-family="Arial" font-size="14.00" fill="#666666">[char(36)]</text>
</g>
<!-- course_schedules&#45;&gt;courses -->
<g id="edge9" class="edge">
<title>course_schedules:course_id&#45;&gt;courses:id</title>
<path fill="none" stroke="#000000" d="M1293.504,-474.6748C1245.774,-465.9599 1287.8054,-390.209 1251.5,-343 1235.0261,-321.5785 1220.5512,-327.1104 1202.5,-307 1169.3766,-270.098 1196.0874,-210.5 1146.5,-210.5"/>
<polygon fill="#000000" stroke="#000000" points="1293.5339,-474.6772 1303.1297,-479.9847 1298.5169,-475.0886 1303.5,-475.5 1303.5,-475.5 1303.5,-475.5 1298.5169,-475.0886 1303.8703,-471.0153 1293.5339,-474.6772 1293.5339,-474.6772"/>
<text text-anchor="start" x="1049.886" y="-485.5" font-family="Arial" font-size="10.00" fill="#000000">FOREIGN KEY (course_id) REFERENCES courses (id)</text>
</g>
<!-- schedules -->
<g id="node10" class="node">
<title>schedules</title>
<polygon fill="#efefef" stroke="transparent" points="1254.5,-210.5 1254.5,-245.5 1829.5,-245.5 1829.5,-210.5 1254.5,-210.5"/>
<polygon fill="none" stroke="#000000" points="1254.5,-210.5 1254.5,-245.5 1829.5,-245.5 1829.5,-210.5 1254.5,-210.5"/>
<text text-anchor="start" x="1452.8605" y="-223.3" font-family="Arial Bold" font-size="18.00" fill="#000000">schedules</text>
<text text-anchor="start" x="1533.8857" y="-223.3" font-family="Arial" font-size="14.00" fill="#000000"> </text>
<text text-anchor="start" x="1537.7763" y="-223.3" font-family="Arial" font-size="14.00" fill="#666666">[BASE TABLE]</text>
<polygon fill="none" stroke="#000000" points="1254.5,-180.5 1254.5,-210.5 1829.5,-210.5 1829.5,-180.5 1254.5,-180.5"/>
<text text-anchor="start" x="1261.5" y="-191.9" font-family="Arial" font-size="14.00" fill="#000000">id </text>
<text text-anchor="start" x="1276.2798" y="-191.9" font-family="Arial" font-size="14.00" fill="#666666">[char(36)]</text>
<polygon fill="none" stroke="#000000" points="1254.5,-150.5 1254.5,-180.5 1829.5,-180.5 1829.5,-150.5 1254.5,-150.5"/>
<text text-anchor="start" x="1261.5" y="-161.9" font-family="Arial" font-size="14.00" fill="#000000">period </text>
<text text-anchor="start" x="1304.2882" y="-161.9" font-family="Arial" font-size="14.00" fill="#666666">[tinyint unsigned]</text>
<polygon fill="none" stroke="#000000" points="1254.5,-120.5 1254.5,-150.5 1829.5,-150.5 1829.5,-120.5 1254.5,-120.5"/>
<text text-anchor="start" x="1261.2762" y="-131.9" font-family="Arial" font-size="14.00" fill="#000000">day_of_week </text>
<text text-anchor="start" x="1347.6422" y="-131.9" font-family="Arial" font-size="14.00" fill="#666666">[enum(&#39;sunday&#39;,&#39;monday&#39;,&#39;tuesday&#39;,&#39;wednesday&#39;,&#39;thursday&#39;,&#39;friday&#39;,&#39;saturday&#39;)]</text>
<polygon fill="none" stroke="#000000" points="1254.5,-90.5 1254.5,-120.5 1829.5,-120.5 1829.5,-90.5 1254.5,-90.5"/>
<text text-anchor="start" x="1261.5" y="-101.9" font-family="Arial" font-size="14.00" fill="#000000">semester </text>
<text text-anchor="start" x="1322.9502" y="-101.9" font-family="Arial" font-size="14.00" fill="#666666">[enum(&#39;first&#39;,&#39;second&#39;)]</text>
<polygon fill="none" stroke="#000000" points="1254.5,-60.5 1254.5,-90.5 1829.5,-90.5 1829.5,-60.5 1254.5,-60.5"/>
<text text-anchor="start" x="1261.5" y="-71.9" font-family="Arial" font-size="14.00" fill="#000000">year </text>
<text text-anchor="start" x="1292.6164" y="-71.9" font-family="Arial" font-size="14.00" fill="#666666">[int unsigned]</text>
</g>
<!-- course_schedules&#45;&gt;schedules -->
<g id="edge10" class="edge">
<title>course_schedules:schedule_id&#45;&gt;schedules:id</title>
<path fill="none" stroke="#000000" d="M1569.3036,-442.7602C1581.479,-433.8509 1572.0593,-405.281 1559.5,-388 1475.713,-272.7132 1338.287,-404.2868 1254.5,-289 1230.0692,-255.3845 1212.9444,-195.5 1254.5,-195.5"/>
<polygon fill="#000000" stroke="#000000" points="1569.131,-442.8084 1558.2888,-441.1661 1564.3155,-444.1542 1559.5,-445.5 1559.5,-445.5 1559.5,-445.5 1564.3155,-444.1542 1560.7112,-449.8339 1569.131,-442.8084 1569.131,-442.8084"/>
<text text-anchor="start" x="1426.378" y="-429.5" font-family="Arial" font-size="10.00" fill="#000000">FOREIGN KEY (schedule_id) REFERENCES schedules (id)</text>
</g>
<!-- grades -->
<g id="node11" class="node">
<title>grades</title>
<polygon fill="#efefef" stroke="transparent" points="1663.5,-520.5 1663.5,-555.5 1829.5,-555.5 1829.5,-520.5 1663.5,-520.5"/>
<polygon fill="none" stroke="#000000" points="1663.5,-520.5 1663.5,-555.5 1829.5,-555.5 1829.5,-520.5 1663.5,-520.5"/>
<text text-anchor="start" x="1670.3646" y="-533.3" font-family="Arial Bold" font-size="18.00" fill="#000000">grades</text>
<text text-anchor="start" x="1725.3816" y="-533.3" font-family="Arial" font-size="14.00" fill="#000000"> </text>
<text text-anchor="start" x="1729.2722" y="-533.3" font-family="Arial" font-size="14.00" fill="#666666">[BASE TABLE]</text>
<polygon fill="none" stroke="#000000" points="1663.5,-490.5 1663.5,-520.5 1829.5,-520.5 1829.5,-490.5 1663.5,-490.5"/>
<text text-anchor="start" x="1670.5" y="-501.9" font-family="Arial" font-size="14.00" fill="#000000">id </text>
<text text-anchor="start" x="1685.2798" y="-501.9" font-family="Arial" font-size="14.00" fill="#666666">[char(36)]</text>
<polygon fill="none" stroke="#000000" points="1663.5,-460.5 1663.5,-490.5 1829.5,-490.5 1829.5,-460.5 1663.5,-460.5"/>
<text text-anchor="start" x="1670.5" y="-471.9" font-family="Arial" font-size="14.00" fill="#000000">user_id </text>
<text text-anchor="start" x="1720.2882" y="-471.9" font-family="Arial" font-size="14.00" fill="#666666">[char(36)]</text>
<polygon fill="none" stroke="#000000" points="1663.5,-430.5 1663.5,-460.5 1829.5,-460.5 1829.5,-430.5 1663.5,-430.5"/>
<text text-anchor="start" x="1670.5" y="-441.9" font-family="Arial" font-size="14.00" fill="#000000">course_id </text>
<text text-anchor="start" x="1735.0708" y="-441.9" font-family="Arial" font-size="14.00" fill="#666666">[char(36)]</text>
<polygon fill="none" stroke="#000000" points="1663.5,-400.5 1663.5,-430.5 1829.5,-430.5 1829.5,-400.5 1663.5,-400.5"/>
<text text-anchor="start" x="1670.5" y="-411.9" font-family="Arial" font-size="14.00" fill="#000000">grade </text>
<text text-anchor="start" x="1710.1816" y="-411.9" font-family="Arial" font-size="14.00" fill="#666666">[int unsigned]</text>
</g>
<!-- grades&#45;&gt;courses -->
<g id="edge11" class="edge">
<title>grades:course_id&#45;&gt;courses:id</title>
<path fill="none" stroke="#000000" d="M1653.1369,-444.2039C1618.3751,-434.2315 1650.5108,-369.3779 1611.5,-343 1460.3333,-240.7856 1356.4854,-404.9166 1202.5,-307 1160.6559,-280.3921 1196.0874,-210.5 1146.5,-210.5"/>
<polygon fill="#000000" stroke="#000000" points="1653.5773,-444.2589 1662.9415,-449.9652 1658.5387,-444.8795 1663.5,-445.5 1663.5,-445.5 1663.5,-445.5 1658.5387,-444.8795 1664.0585,-441.0348 1653.5773,-444.2589 1653.5773,-444.2589"/>
<text text-anchor="start" x="1409.886" y="-455.5" font-family="Arial" font-size="10.00" fill="#000000">FOREIGN KEY (course_id) REFERENCES courses (id)</text>
</g>
<!-- users -->
<g id="node12" class="node">
<title>users</title>
<polygon fill="#efefef" stroke="transparent" points="1935.5,-210.5 1935.5,-245.5 2137.5,-245.5 2137.5,-210.5 1935.5,-210.5"/>
<polygon fill="none" stroke="#000000" points="1935.5,-210.5 1935.5,-245.5 2137.5,-245.5 2137.5,-210.5 1935.5,-210.5"/>
<text text-anchor="start" x="1965.8708" y="-223.3" font-family="Arial Bold" font-size="18.00" fill="#000000">users</text>
<text text-anchor="start" x="2009.8754" y="-223.3" font-family="Arial" font-size="14.00" fill="#000000"> </text>
<text text-anchor="start" x="2013.766" y="-223.3" font-family="Arial" font-size="14.00" fill="#666666">[BASE TABLE]</text>
<polygon fill="none" stroke="#000000" points="1935.5,-180.5 1935.5,-210.5 2137.5,-210.5 2137.5,-180.5 1935.5,-180.5"/>
<text text-anchor="start" x="1942.5" y="-191.9" font-family="Arial" font-size="14.00" fill="#000000">id </text>
<text text-anchor="start" x="1957.2798" y="-191.9" font-family="Arial" font-size="14.00" fill="#666666">[char(36)]</text>
<polygon fill="none" stroke="#000000" points="1935.5,-150.5 1935.5,-180.5 2137.5,-180.5 2137.5,-150.5 1935.5,-150.5"/>
<text text-anchor="start" x="1942.5" y="-161.9" font-family="Arial" font-size="14.00" fill="#000000">name </text>
<text text-anchor="start" x="1981.399" y="-161.9" font-family="Arial" font-size="14.00" fill="#666666">[varchar(255)]</text>
<polygon fill="none" stroke="#000000" points="1935.5,-120.5 1935.5,-150.5 2137.5,-150.5 2137.5,-120.5 1935.5,-120.5"/>
<text text-anchor="start" x="1942.5" y="-131.9" font-family="Arial" font-size="14.00" fill="#000000">mail_address </text>
<text text-anchor="start" x="2029.6206" y="-131.9" font-family="Arial" font-size="14.00" fill="#666666">[varchar(255)]</text>
<polygon fill="none" stroke="#000000" points="1935.5,-90.5 1935.5,-120.5 2137.5,-120.5 2137.5,-90.5 1935.5,-90.5"/>
<text text-anchor="start" x="1942.3668" y="-101.9" font-family="Arial" font-size="14.00" fill="#000000">hashed_password </text>
<text text-anchor="start" x="2059.8506" y="-101.9" font-family="Arial" font-size="14.00" fill="#666666">[binary(60)]</text>
<polygon fill="none" stroke="#000000" points="1935.5,-60.5 1935.5,-90.5 2137.5,-90.5 2137.5,-60.5 1935.5,-60.5"/>
<text text-anchor="start" x="1942.5" y="-71.9" font-family="Arial" font-size="14.00" fill="#000000">type </text>
<text text-anchor="start" x="1972.8464" y="-71.9" font-family="Arial" font-size="14.00" fill="#666666">[enum(&#39;student&#39;,&#39;faculty&#39;)]</text>
</g>
<!-- grades&#45;&gt;users -->
<g id="edge12" class="edge">
<title>grades:user_id&#45;&gt;users:id</title>
<path fill="none" stroke="#000000" d="M1839.2721,-473.2462C1893.4376,-446.7474 1872.4768,-195.5 1935.5,-195.5"/>
<polygon fill="#000000" stroke="#000000" points="1839.2442,-473.2525 1828.4886,-471.1151 1834.3721,-474.3763 1829.5,-475.5 1829.5,-475.5 1829.5,-475.5 1834.3721,-474.3763 1830.5114,-479.8849 1839.2442,-473.2525 1839.2442,-473.2525"/>
<text text-anchor="start" x="1836.445" y="-485.5" font-family="Arial" font-size="10.00" fill="#000000">FOREIGN KEY (user_id) REFERENCES users (id)</text>
</g>
<!-- registrations -->
<g id="node13" class="node">
<title>registrations</title>
<polygon fill="#efefef" stroke="transparent" points="1934.5,-520.5 1934.5,-555.5 2143.5,-555.5 2143.5,-520.5 1934.5,-520.5"/>
<polygon fill="none" stroke="#000000" points="1934.5,-520.5 1934.5,-555.5 2143.5,-555.5 2143.5,-520.5 1934.5,-520.5"/>
<text text-anchor="start" x="1941.369" y="-533.3" font-family="Arial Bold" font-size="18.00" fill="#000000">registrations</text>
<text text-anchor="start" x="2039.3772" y="-533.3" font-family="Arial" font-size="14.00" fill="#000000"> </text>
<text text-anchor="start" x="2043.2678" y="-533.3" font-family="Arial" font-size="14.00" fill="#666666">[BASE TABLE]</text>
<polygon fill="none" stroke="#000000" points="1934.5,-490.5 1934.5,-520.5 2143.5,-520.5 2143.5,-490.5 1934.5,-490.5"/>
<text text-anchor="start" x="1941.5" y="-501.9" font-family="Arial" font-size="14.00" fill="#000000">course_id </text>
<text text-anchor="start" x="2006.0708" y="-501.9" font-family="Arial" font-size="14.00" fill="#666666">[char(36)]</text>
<polygon fill="none" stroke="#000000" points="1934.5,-460.5 1934.5,-490.5 2143.5,-490.5 2143.5,-460.5 1934.5,-460.5"/>
<text text-anchor="start" x="1941.5" y="-471.9" font-family="Arial" font-size="14.00" fill="#000000">user_id </text>
<text text-anchor="start" x="1991.2882" y="-471.9" font-family="Arial" font-size="14.00" fill="#666666">[char(36)]</text>
<polygon fill="none" stroke="#000000" points="1934.5,-430.5 1934.5,-460.5 2143.5,-460.5 2143.5,-430.5 1934.5,-430.5"/>
<text text-anchor="start" x="1941.5" y="-441.9" font-family="Arial" font-size="14.00" fill="#000000">created_at </text>
<text text-anchor="start" x="2011.528" y="-441.9" font-family="Arial" font-size="14.00" fill="#666666">[datetime(6)]</text>
<polygon fill="none" stroke="#000000" points="1934.5,-400.5 1934.5,-430.5 2143.5,-430.5 2143.5,-400.5 1934.5,-400.5"/>
<text text-anchor="start" x="1941.5" y="-411.9" font-family="Arial" font-size="14.00" fill="#000000">deleted_at </text>
<text text-anchor="start" x="2010.7566" y="-411.9" font-family="Arial" font-size="14.00" fill="#666666">[datetime(6)]</text>
</g>
<!-- registrations&#45;&gt;courses -->
<g id="edge13" class="edge">
<title>registrations:course_id&#45;&gt;courses:id</title>
<path fill="none" stroke="#000000" d="M1924.4756,-504.6901C1866.3208,-494.3125 1938.8366,-386.9729 1881.5,-343 1761.6004,-251.046 1331.3981,-385.8464 1202.5,-307 1160.1989,-281.1246 1196.0874,-210.5 1146.5,-210.5"/>
<polygon fill="#000000" stroke="#000000" points="1924.5325,-504.6946 1934.1376,-509.9854 1929.5162,-505.0973 1934.5,-505.5 1934.5,-505.5 1934.5,-505.5 1929.5162,-505.0973 1934.8624,-501.0146 1924.5325,-504.6946 1924.5325,-504.6946"/>
<text text-anchor="start" x="1941.886" y="-515.5" font-family="Arial" font-size="10.00" fill="#000000">FOREIGN KEY (course_id) REFERENCES courses (id)</text>
</g>
<!-- registrations&#45;&gt;users -->
<g id="edge14" class="edge">
<title>registrations:user_id&#45;&gt;users:id</title>
<path fill="none" stroke="#000000" d="M1924.0691,-474.3039C1885.5629,-464.54 1906.3472,-397.3038 1934.5,-358 1989.9897,-280.5314 2082.0103,-366.4686 2137.5,-289 2161.6984,-255.2169 2179.0556,-195.5 2137.5,-195.5"/>
<polygon fill="#000000" stroke="#000000" points="1924.5651,-474.3607 1933.9873,-479.9707 1929.5326,-474.9303 1934.5,-475.5 1934.5,-475.5 1934.5,-475.5 1929.5326,-474.9303 1935.0127,-471.0293 1924.5651,-474.3607 1924.5651,-474.3607"/>
<text text-anchor="start" x="1881.445" y="-459.5" font-family="Arial" font-size="10.00" fill="#000000">FOREIGN KEY (user_id) REFERENCES users (id)</text>
</g>
</g>
</svg>
