<?xml version="1.0" encoding="UTF-8" standalone="no"?>
<!DOCTYPE svg PUBLIC "-//W3C//DTD SVG 1.1//EN"
 "http://www.w3.org/Graphics/SVG/1.1/DTD/svg11.dtd">
<!-- Generated by graphviz version 2.40.1 (20161225.0304)
 -->
<!-- Title: courses Pages: 1 -->
<svg width="1987pt" height="622pt"
 viewBox="0.00 0.00 1986.50 622.00" xmlns="http://www.w3.org/2000/svg" xmlns:xlink="http://www.w3.org/1999/xlink">
<g id="graph0" class="graph" transform="scale(1 1) rotate(0) translate(4 618)">
<title>courses</title>
<polygon fill="#ffffff" stroke="transparent" points="-4,4 -4,-618 1982.5,-618 1982.5,4 -4,4"/>
<!-- courses -->
<g id="node1" class="node">
<title>courses</title>
<polygon fill="#efefef" stroke="transparent" points="755.5,-225.5 755.5,-260.5 929.5,-260.5 929.5,-225.5 755.5,-225.5"/>
<polygon fill="none" stroke="#000000" points="755.5,-225.5 755.5,-260.5 929.5,-260.5 929.5,-225.5 755.5,-225.5"/>
<text text-anchor="start" x="762.3677" y="-238.3" font-family="Arial Bold" font-size="18.00" fill="#000000">courses</text>
<text text-anchor="start" x="825.3785" y="-238.3" font-family="Arial" font-size="14.00" fill="#000000"> </text>
<text text-anchor="start" x="829.2691" y="-238.3" font-family="Arial" font-size="14.00" fill="#666666">[BASE TABLE]</text>
<polygon fill="none" stroke="#000000" points="755.5,-195.5 755.5,-225.5 929.5,-225.5 929.5,-195.5 755.5,-195.5"/>
<text text-anchor="start" x="762.5" y="-206.9" font-family="Arial" font-size="14.00" fill="#000000">id </text>
<text text-anchor="start" x="777.2798" y="-206.9" font-family="Arial" font-size="14.00" fill="#666666">[char(36)]</text>
<polygon fill="none" stroke="#000000" points="755.5,-165.5 755.5,-195.5 929.5,-195.5 929.5,-165.5 755.5,-165.5"/>
<text text-anchor="start" x="762.5" y="-176.9" font-family="Arial" font-size="14.00" fill="#000000">name </text>
<text text-anchor="start" x="801.399" y="-176.9" font-family="Arial" font-size="14.00" fill="#666666">[varchar(255)]</text>
<polygon fill="none" stroke="#000000" points="755.5,-135.5 755.5,-165.5 929.5,-165.5 929.5,-135.5 755.5,-135.5"/>
<text text-anchor="start" x="762.5" y="-146.9" font-family="Arial" font-size="14.00" fill="#000000">description </text>
<text text-anchor="start" x="834.068" y="-146.9" font-family="Arial" font-size="14.00" fill="#666666">[text]</text>
<polygon fill="none" stroke="#000000" points="755.5,-105.5 755.5,-135.5 929.5,-135.5 929.5,-105.5 755.5,-105.5"/>
<text text-anchor="start" x="762.5" y="-116.9" font-family="Arial" font-size="14.00" fill="#000000">credit </text>
<text text-anchor="start" x="800.6136" y="-116.9" font-family="Arial" font-size="14.00" fill="#666666">[tinyint unsigned]</text>
<polygon fill="none" stroke="#000000" points="755.5,-75.5 755.5,-105.5 929.5,-105.5 929.5,-75.5 755.5,-75.5"/>
<text text-anchor="start" x="762.5" y="-86.9" font-family="Arial" font-size="14.00" fill="#000000">classroom </text>
<text text-anchor="start" x="830.1662" y="-86.9" font-family="Arial" font-size="14.00" fill="#666666">[varchar(255)]</text>
<polygon fill="none" stroke="#000000" points="755.5,-45.5 755.5,-75.5 929.5,-75.5 929.5,-45.5 755.5,-45.5"/>
<text text-anchor="start" x="762.5" y="-56.9" font-family="Arial" font-size="14.00" fill="#000000">capacity </text>
<text text-anchor="start" x="817.7356" y="-56.9" font-family="Arial" font-size="14.00" fill="#666666">[int unsigned]</text>
<polygon fill="none" stroke="#000000" stroke-width="3" points="754,-44.5 754,-262.5 931,-262.5 931,-44.5 754,-44.5"/>
</g>
<!-- announcements -->
<g id="node2" class="node">
<title>announcements</title>
<polygon fill="#efefef" stroke="transparent" points="43.5,-535.5 43.5,-570.5 282.5,-570.5 282.5,-535.5 43.5,-535.5"/>
<polygon fill="none" stroke="#000000" points="43.5,-535.5 43.5,-570.5 282.5,-570.5 282.5,-535.5 43.5,-535.5"/>
<text text-anchor="start" x="50.348" y="-548.3" font-family="Arial Bold" font-size="18.00" fill="#000000">announcements</text>
<text text-anchor="start" x="178.3982" y="-548.3" font-family="Arial" font-size="14.00" fill="#000000"> </text>
<text text-anchor="start" x="182.2888" y="-548.3" font-family="Arial" font-size="14.00" fill="#666666">[BASE TABLE]</text>
<polygon fill="none" stroke="#000000" points="43.5,-505.5 43.5,-535.5 282.5,-535.5 282.5,-505.5 43.5,-505.5"/>
<text text-anchor="start" x="50.5" y="-516.9" font-family="Arial" font-size="14.00" fill="#000000">id </text>
<text text-anchor="start" x="65.2798" y="-516.9" font-family="Arial" font-size="14.00" fill="#666666">[char(36)]</text>
<polygon fill="none" stroke="#000000" points="43.5,-475.5 43.5,-505.5 282.5,-505.5 282.5,-475.5 43.5,-475.5"/>
<text text-anchor="start" x="50.5" y="-486.9" font-family="Arial" font-size="14.00" fill="#000000">course_id </text>
<text text-anchor="start" x="115.0708" y="-486.9" font-family="Arial" font-size="14.00" fill="#666666">[char(36)]</text>
<polygon fill="none" stroke="#000000" points="43.5,-445.5 43.5,-475.5 282.5,-475.5 282.5,-445.5 43.5,-445.5"/>
<text text-anchor="start" x="50.5" y="-456.9" font-family="Arial" font-size="14.00" fill="#000000">title </text>
<text text-anchor="start" x="76.1676" y="-456.9" font-family="Arial" font-size="14.00" fill="#666666">[varchar(255)]</text>
<polygon fill="none" stroke="#000000" points="43.5,-415.5 43.5,-445.5 282.5,-445.5 282.5,-415.5 43.5,-415.5"/>
<text text-anchor="start" x="50.5" y="-426.9" font-family="Arial" font-size="14.00" fill="#000000">message </text>
<text text-anchor="start" x="111.1816" y="-426.9" font-family="Arial" font-size="14.00" fill="#666666">[text]</text>
<polygon fill="none" stroke="#000000" points="43.5,-385.5 43.5,-415.5 282.5,-415.5 282.5,-385.5 43.5,-385.5"/>
<text text-anchor="start" x="50.5" y="-396.9" font-family="Arial" font-size="14.00" fill="#000000">created_at </text>
<text text-anchor="start" x="120.528" y="-396.9" font-family="Arial" font-size="14.00" fill="#666666">[datetime(6)]</text>
</g>
<!-- announcements&#45;&gt;courses -->
<g id="edge1" class="edge">
<title>announcements:course_id&#45;&gt;courses:id</title>
<path fill="none" stroke="#000000" d="M292.7164,-489.6346C344.9797,-479.803 287.2532,-388.666 334.5,-343 405.0226,-274.8371 657.4204,-210.5 755.5,-210.5"/>
<polygon fill="#000000" stroke="#000000" points="292.4643,-489.6558 282.1201,-486.0161 287.4822,-490.0779 282.5,-490.5 282.5,-490.5 282.5,-490.5 287.4822,-490.0779 282.8799,-494.9839 292.4643,-489.6558 292.4643,-489.6558"/>
<text text-anchor="start" x="159.386" y="-474.5" font-family="Arial" font-size="10.00" fill="#000000">FOREIGN KEY (course_id) REFERENCES courses (id)</text>
</g>
<!-- classes -->
<g id="node3" class="node">
<title>classes</title>
<polygon fill="#efefef" stroke="transparent" points="386.5,-535.5 386.5,-570.5 598.5,-570.5 598.5,-535.5 386.5,-535.5"/>
<polygon fill="none" stroke="#000000" points="386.5,-535.5 386.5,-570.5 598.5,-570.5 598.5,-535.5 386.5,-535.5"/>
<text text-anchor="start" x="413.8698" y="-548.3" font-family="Arial Bold" font-size="18.00" fill="#000000">classes</text>
<text text-anchor="start" x="473.8764" y="-548.3" font-family="Arial" font-size="14.00" fill="#000000"> </text>
<text text-anchor="start" x="477.767" y="-548.3" font-family="Arial" font-size="14.00" fill="#666666">[BASE TABLE]</text>
<polygon fill="none" stroke="#000000" points="386.5,-505.5 386.5,-535.5 598.5,-535.5 598.5,-505.5 386.5,-505.5"/>
<text text-anchor="start" x="393.5" y="-516.9" font-family="Arial" font-size="14.00" fill="#000000">id </text>
<text text-anchor="start" x="408.2798" y="-516.9" font-family="Arial" font-size="14.00" fill="#666666">[char(36)]</text>
<polygon fill="none" stroke="#000000" points="386.5,-475.5 386.5,-505.5 598.5,-505.5 598.5,-475.5 386.5,-475.5"/>
<text text-anchor="start" x="393.5" y="-486.9" font-family="Arial" font-size="14.00" fill="#000000">course_id </text>
<text text-anchor="start" x="458.0708" y="-486.9" font-family="Arial" font-size="14.00" fill="#666666">[char(36)]</text>
<polygon fill="none" stroke="#000000" points="386.5,-445.5 386.5,-475.5 598.5,-475.5 598.5,-445.5 386.5,-445.5"/>
<text text-anchor="start" x="393.5" y="-456.9" font-family="Arial" font-size="14.00" fill="#000000">title </text>
<text text-anchor="start" x="419.1676" y="-456.9" font-family="Arial" font-size="14.00" fill="#666666">[varchar(255)]</text>
<polygon fill="none" stroke="#000000" points="386.5,-415.5 386.5,-445.5 598.5,-445.5 598.5,-415.5 386.5,-415.5"/>
<text text-anchor="start" x="393.5" y="-426.9" font-family="Arial" font-size="14.00" fill="#000000">description </text>
<text text-anchor="start" x="465.068" y="-426.9" font-family="Arial" font-size="14.00" fill="#666666">[text]</text>
<polygon fill="none" stroke="#000000" points="386.5,-385.5 386.5,-415.5 598.5,-415.5 598.5,-385.5 386.5,-385.5"/>
<text text-anchor="start" x="393.3002" y="-396.9" font-family="Arial" font-size="14.00" fill="#000000">attendance_code </text>
<text text-anchor="start" x="504.5806" y="-396.9" font-family="Arial" font-size="14.00" fill="#666666">[varchar(255)]</text>
</g>
<!-- classes&#45;&gt;courses -->
<g id="edge2" class="edge">
<title>classes:course_id&#45;&gt;courses:id</title>
<path fill="none" stroke="#000000" d="M608.5205,-489.7936C662.8551,-481.4328 618.671,-400.6404 650.5,-343 686.8213,-277.2243 680.3623,-210.5 755.5,-210.5"/>
<polygon fill="#000000" stroke="#000000" points="608.4752,-489.7967 598.1835,-486.0111 603.4876,-490.1483 598.5,-490.5 598.5,-490.5 598.5,-490.5 603.4876,-490.1483 598.8165,-494.9889 608.4752,-489.7967 608.4752,-489.7967"/>
<text text-anchor="start" x="605.886" y="-500.5" font-family="Arial" font-size="10.00" fill="#000000">FOREIGN KEY (course_id) REFERENCES courses (id)</text>
</g>
<!-- course_requirements -->
<g id="node4" class="node">
<title>course_requirements</title>
<polygon fill="#efefef" stroke="transparent" points="702.5,-490.5 702.5,-525.5 982.5,-525.5 982.5,-490.5 702.5,-490.5"/>
<polygon fill="none" stroke="#000000" points="702.5,-490.5 702.5,-525.5 982.5,-525.5 982.5,-490.5 702.5,-490.5"/>
<text text-anchor="start" x="709.3595" y="-503.3" font-family="Arial Bold" font-size="18.00" fill="#000000">course_requirements</text>
<text text-anchor="start" x="878.3867" y="-503.3" font-family="Arial" font-size="14.00" fill="#000000"> </text>
<text text-anchor="start" x="882.2773" y="-503.3" font-family="Arial" font-size="14.00" fill="#666666">[BASE TABLE]</text>
<polygon fill="none" stroke="#000000" points="702.5,-460.5 702.5,-490.5 982.5,-490.5 982.5,-460.5 702.5,-460.5"/>
<text text-anchor="start" x="709.5" y="-471.9" font-family="Arial" font-size="14.00" fill="#000000">course_id </text>
<text text-anchor="start" x="774.0708" y="-471.9" font-family="Arial" font-size="14.00" fill="#666666">[char(36)]</text>
<polygon fill="none" stroke="#000000" points="702.5,-430.5 702.5,-460.5 982.5,-460.5 982.5,-430.5 702.5,-430.5"/>
<text text-anchor="start" x="709.5" y="-441.9" font-family="Arial" font-size="14.00" fill="#000000">required_course_id </text>
<text text-anchor="start" x="833.1942" y="-441.9" font-family="Arial" font-size="14.00" fill="#666666">[char(36)]</text>
</g>
<!-- course_requirements&#45;&gt;courses -->
<g id="edge3" class="edge">
<title>course_requirements:course_id&#45;&gt;courses:id</title>
<path fill="none" stroke="#000000" d="M992.1886,-472.7032C1036.1113,-444.3816 985.919,-210.5 929.5,-210.5"/>
<polygon fill="#000000" stroke="#000000" points="992.1077,-472.7265 981.2519,-471.1765 987.3039,-474.1133 982.5,-475.5 982.5,-475.5 982.5,-475.5 987.3039,-474.1133 983.7481,-479.8235 992.1077,-472.7265 992.1077,-472.7265"/>
<text text-anchor="start" x="859.386" y="-459.5" font-family="Arial" font-size="10.00" fill="#000000">FOREIGN KEY (course_id) REFERENCES courses (id)</text>
</g>
<!-- course_requirements&#45;&gt;courses -->
<g id="edge4" class="edge">
<title>course_requirements:required_course_id&#45;&gt;courses:id</title>
<path fill="none" stroke="#000000" d="M843.04,-420.4805C849.4077,-363.9662 910.2888,-367.6294 929.5,-307 942.4551,-266.1145 972.3889,-210.5 929.5,-210.5"/>
<polygon fill="#000000" stroke="#000000" points="843.0383,-420.5145 838.0065,-430.2578 842.7691,-425.5072 842.5,-430.5 842.5,-430.5 842.5,-430.5 842.7691,-425.5072 846.9935,-430.7422 843.0383,-420.5145 843.0383,-420.5145"/>
<text text-anchor="start" x="546.7705" y="-440.5" font-family="Arial" font-size="10.00" fill="#000000">FOREIGN KEY (required_course_id) REFERENCES courses (id)</text>
</g>
<!-- course_schedules -->
<g id="node5" class="node">
<title>course_schedules</title>
<polygon fill="#efefef" stroke="transparent" points="1086.5,-490.5 1086.5,-525.5 1342.5,-525.5 1342.5,-490.5 1086.5,-490.5"/>
<polygon fill="none" stroke="#000000" points="1086.5,-490.5 1086.5,-525.5 1342.5,-525.5 1342.5,-490.5 1086.5,-490.5"/>
<text text-anchor="start" x="1093.352" y="-503.3" font-family="Arial Bold" font-size="18.00" fill="#000000">course_schedules</text>
<text text-anchor="start" x="1238.3942" y="-503.3" font-family="Arial" font-size="14.00" fill="#000000"> </text>
<text text-anchor="start" x="1242.2848" y="-503.3" font-family="Arial" font-size="14.00" fill="#666666">[BASE TABLE]</text>
<polygon fill="none" stroke="#000000" points="1086.5,-460.5 1086.5,-490.5 1342.5,-490.5 1342.5,-460.5 1086.5,-460.5"/>
<text text-anchor="start" x="1093.5" y="-471.9" font-family="Arial" font-size="14.00" fill="#000000">course_id </text>
<text text-anchor="start" x="1158.0708" y="-471.9" font-family="Arial" font-size="14.00" fill="#666666">[char(36)]</text>
<polygon fill="none" stroke="#000000" points="1086.5,-430.5 1086.5,-460.5 1342.5,-460.5 1342.5,-430.5 1086.5,-430.5"/>
<text text-anchor="start" x="1093.5" y="-441.9" font-family="Arial" font-size="14.00" fill="#000000">schedule_id </text>
<text text-anchor="start" x="1172.082" y="-441.9" font-family="Arial" font-size="14.00" fill="#666666">[char(36)]</text>
</g>
<!-- course_schedules&#45;&gt;courses -->
<g id="edge5" class="edge">
<title>course_schedules:course_id&#45;&gt;courses:id</title>
<path fill="none" stroke="#000000" d="M1076.436,-474.7203C1027.9997,-466.477 1064.1976,-394.622 1034.5,-343 997.0318,-277.8708 1004.6377,-210.5 929.5,-210.5"/>
<polygon fill="#000000" stroke="#000000" points="1076.5299,-474.7275 1086.1524,-479.9866 1081.5149,-475.1137 1086.5,-475.5 1086.5,-475.5 1086.5,-475.5 1081.5149,-475.1137 1086.8476,-471.0134 1076.5299,-474.7275 1076.5299,-474.7275"/>
<text text-anchor="start" x="832.886" y="-485.5" font-family="Arial" font-size="10.00" fill="#000000">FOREIGN KEY (course_id) REFERENCES courses (id)</text>
</g>
<!-- grades -->
<g id="node6" class="node">
<title>grades</title>
<polygon fill="#efefef" stroke="transparent" points="1446.5,-535.5 1446.5,-570.5 1612.5,-570.5 1612.5,-535.5 1446.5,-535.5"/>
<polygon fill="none" stroke="#000000" points="1446.5,-535.5 1446.5,-570.5 1612.5,-570.5 1612.5,-535.5 1446.5,-535.5"/>
<text text-anchor="start" x="1453.3646" y="-548.3" font-family="Arial Bold" font-size="18.00" fill="#000000">grades</text>
<text text-anchor="start" x="1508.3816" y="-548.3" font-family="Arial" font-size="14.00" fill="#000000"> </text>
<text text-anchor="start" x="1512.2722" y="-548.3" font-family="Arial" font-size="14.00" fill="#666666">[BASE TABLE]</text>
<polygon fill="none" stroke="#000000" points="1446.5,-505.5 1446.5,-535.5 1612.5,-535.5 1612.5,-505.5 1446.5,-505.5"/>
<text text-anchor="start" x="1453.5" y="-516.9" font-family="Arial" font-size="14.00" fill="#000000">id </text>
<text text-anchor="start" x="1468.2798" y="-516.9" font-family="Arial" font-size="14.00" fill="#666666">[char(36)]</text>
<polygon fill="none" stroke="#000000" points="1446.5,-475.5 1446.5,-505.5 1612.5,-505.5 1612.5,-475.5 1446.5,-475.5"/>
<text text-anchor="start" x="1453.5" y="-486.9" font-family="Arial" font-size="14.00" fill="#000000">user_id </text>
<text text-anchor="start" x="1503.2882" y="-486.9" font-family="Arial" font-size="14.00" fill="#666666">[char(36)]</text>
<polygon fill="none" stroke="#000000" points="1446.5,-445.5 1446.5,-475.5 1612.5,-475.5 1612.5,-445.5 1446.5,-445.5"/>
<text text-anchor="start" x="1453.5" y="-456.9" font-family="Arial" font-size="14.00" fill="#000000">course_id </text>
<text text-anchor="start" x="1518.0708" y="-456.9" font-family="Arial" font-size="14.00" fill="#666666">[char(36)]</text>
<polygon fill="none" stroke="#000000" points="1446.5,-415.5 1446.5,-445.5 1612.5,-445.5 1612.5,-415.5 1446.5,-415.5"/>
<text text-anchor="start" x="1453.5" y="-426.9" font-family="Arial" font-size="14.00" fill="#000000">grade </text>
<text text-anchor="start" x="1493.1816" y="-426.9" font-family="Arial" font-size="14.00" fill="#666666">[int unsigned]</text>
<polygon fill="none" stroke="#000000" points="1446.5,-385.5 1446.5,-415.5 1612.5,-415.5 1612.5,-385.5 1446.5,-385.5"/>
<text text-anchor="start" x="1453.5" y="-396.9" font-family="Arial" font-size="14.00" fill="#000000">created_at </text>
<text text-anchor="start" x="1523.528" y="-396.9" font-family="Arial" font-size="14.00" fill="#666666">[datetime(6)]</text>
</g>
<!-- grades&#45;&gt;courses -->
<g id="edge6" class="edge">
<title>grades:course_id&#45;&gt;courses:id</title>
<path fill="none" stroke="#000000" d="M1436.4586,-459.4773C1395.3909,-450.0597 1434.7276,-377.9895 1394.5,-343 1313.4292,-272.4856 1036.9465,-210.5 929.5,-210.5"/>
<polygon fill="#000000" stroke="#000000" points="1436.5515,-459.4866 1446.044,-464.9768 1441.5257,-459.9933 1446.5,-460.5 1446.5,-460.5 1446.5,-460.5 1441.5257,-459.9933 1446.956,-456.0232 1436.5515,-459.4866 1436.5515,-459.4866"/>
<text text-anchor="start" x="1192.886" y="-470.5" font-family="Arial" font-size="10.00" fill="#000000">FOREIGN KEY (course_id) REFERENCES courses (id)</text>
</g>
<!-- registrations -->
<g id="node7" class="node">
<title>registrations</title>
<polygon fill="#efefef" stroke="transparent" points="1717.5,-520.5 1717.5,-555.5 1926.5,-555.5 1926.5,-520.5 1717.5,-520.5"/>
<polygon fill="none" stroke="#000000" points="1717.5,-520.5 1717.5,-555.5 1926.5,-555.5 1926.5,-520.5 1717.5,-520.5"/>
<text text-anchor="start" x="1724.369" y="-533.3" font-family="Arial Bold" font-size="18.00" fill="#000000">registrations</text>
<text text-anchor="start" x="1822.3772" y="-533.3" font-family="Arial" font-size="14.00" fill="#000000"> </text>
<text text-anchor="start" x="1826.2678" y="-533.3" font-family="Arial" font-size="14.00" fill="#666666">[BASE TABLE]</text>
<polygon fill="none" stroke="#000000" points="1717.5,-490.5 1717.5,-520.5 1926.5,-520.5 1926.5,-490.5 1717.5,-490.5"/>
<text text-anchor="start" x="1724.5" y="-501.9" font-family="Arial" font-size="14.00" fill="#000000">course_id </text>
<text text-anchor="start" x="1789.0708" y="-501.9" font-family="Arial" font-size="14.00" fill="#666666">[char(36)]</text>
<polygon fill="none" stroke="#000000" points="1717.5,-460.5 1717.5,-490.5 1926.5,-490.5 1926.5,-460.5 1717.5,-460.5"/>
<text text-anchor="start" x="1724.5" y="-471.9" font-family="Arial" font-size="14.00" fill="#000000">user_id </text>
<text text-anchor="start" x="1774.2882" y="-471.9" font-family="Arial" font-size="14.00" fill="#666666">[char(36)]</text>
<polygon fill="none" stroke="#000000" points="1717.5,-430.5 1717.5,-460.5 1926.5,-460.5 1926.5,-430.5 1717.5,-430.5"/>
<text text-anchor="start" x="1724.5" y="-441.9" font-family="Arial" font-size="14.00" fill="#000000">created_at </text>
<text text-anchor="start" x="1794.528" y="-441.9" font-family="Arial" font-size="14.00" fill="#666666">[datetime(6)]</text>
<polygon fill="none" stroke="#000000" points="1717.5,-400.5 1717.5,-430.5 1926.5,-430.5 1926.5,-400.5 1717.5,-400.5"/>
<text text-anchor="start" x="1724.5" y="-411.9" font-family="Arial" font-size="14.00" fill="#000000">deleted_at </text>
<text text-anchor="start" x="1793.7566" y="-411.9" font-family="Arial" font-size="14.00" fill="#666666">[datetime(6)]</text>
</g>
<!-- registrations&#45;&gt;courses -->
<g id="edge7" class="edge">
<title>registrations:course_id&#45;&gt;courses:id</title>
<path fill="none" stroke="#000000" d="M1707.4551,-504.7151C1649.0408,-494.6549 1718.969,-390.4788 1664.5,-343 1539.3913,-233.947 1095.4661,-210.5 929.5,-210.5"/>
<polygon fill="#000000" stroke="#000000" points="1707.5304,-504.7209 1717.1494,-509.9863 1712.5152,-505.1105 1717.5,-505.5 1717.5,-505.5 1717.5,-505.5 1712.5152,-505.1105 1717.8506,-501.0137 1707.5304,-504.7209 1707.5304,-504.7209"/>
<text text-anchor="start" x="1724.886" y="-515.5" font-family="Arial" font-size="10.00" fill="#000000">FOREIGN KEY (course_id) REFERENCES courses (id)</text>
</g>
</g>
</svg>
