<?xml version="1.0" encoding="UTF-8" standalone="no"?>
<!DOCTYPE svg PUBLIC "-//W3C//DTD SVG 1.1//EN"
 "http://www.w3.org/Graphics/SVG/1.1/DTD/svg11.dtd">
<!-- Generated by graphviz version 2.40.1 (20161225.0304)
 -->
<!-- Title: course_requirements Pages: 1 -->
<svg width="712pt" height="532pt"
 viewBox="0.00 0.00 712.00 532.00" xmlns="http://www.w3.org/2000/svg" xmlns:xlink="http://www.w3.org/1999/xlink">
<g id="graph0" class="graph" transform="scale(1 1) rotate(0) translate(4 528)">
<title>course_requirements</title>
<polygon fill="#ffffff" stroke="transparent" points="-4,4 -4,-528 708,-528 708,4 -4,4"/>
<!-- course_requirements -->
<g id="node1" class="node">
<title>course_requirements</title>
<polygon fill="#efefef" stroke="transparent" points="163,-442.5 163,-477.5 443,-477.5 443,-442.5 163,-442.5"/>
<polygon fill="none" stroke="#000000" points="163,-442.5 163,-477.5 443,-477.5 443,-442.5 163,-442.5"/>
<text text-anchor="start" x="169.8595" y="-455.3" font-family="Arial Bold" font-size="18.00" fill="#000000">course_requirements</text>
<text text-anchor="start" x="338.8867" y="-455.3" font-family="Arial" font-size="14.00" fill="#000000"> </text>
<text text-anchor="start" x="342.7773" y="-455.3" font-family="Arial" font-size="14.00" fill="#666666">[BASE TABLE]</text>
<polygon fill="none" stroke="#000000" points="163,-412.5 163,-442.5 443,-442.5 443,-412.5 163,-412.5"/>
<text text-anchor="start" x="170" y="-423.9" font-family="Arial" font-size="14.00" fill="#000000">course_id </text>
<text text-anchor="start" x="234.5708" y="-423.9" font-family="Arial" font-size="14.00" fill="#666666">[char(36)]</text>
<polygon fill="none" stroke="#000000" points="163,-382.5 163,-412.5 443,-412.5 443,-382.5 163,-382.5"/>
<text text-anchor="start" x="170" y="-393.9" font-family="Arial" font-size="14.00" fill="#000000">required_course_id </text>
<text text-anchor="start" x="293.6942" y="-393.9" font-family="Arial" font-size="14.00" fill="#666666">[char(36)]</text>
<polygon fill="none" stroke="#000000" stroke-width="3" points="161.5,-381.5 161.5,-479.5 444.5,-479.5 444.5,-381.5 161.5,-381.5"/>
</g>
<!-- courses -->
<g id="node2" class="node">
<title>courses</title>
<polygon fill="#efefef" stroke="transparent" points="216,-222.5 216,-257.5 390,-257.5 390,-222.5 216,-222.5"/>
<polygon fill="none" stroke="#000000" points="216,-222.5 216,-257.5 390,-257.5 390,-222.5 216,-222.5"/>
<text text-anchor="start" x="222.8677" y="-235.3" font-family="Arial Bold" font-size="18.00" fill="#000000">courses</text>
<text text-anchor="start" x="285.8785" y="-235.3" font-family="Arial" font-size="14.00" fill="#000000"> </text>
<text text-anchor="start" x="289.7691" y="-235.3" font-family="Arial" font-size="14.00" fill="#666666">[BASE TABLE]</text>
<polygon fill="none" stroke="#000000" points="216,-192.5 216,-222.5 390,-222.5 390,-192.5 216,-192.5"/>
<text text-anchor="start" x="223" y="-203.9" font-family="Arial" font-size="14.00" fill="#000000">id </text>
<text text-anchor="start" x="237.7798" y="-203.9" font-family="Arial" font-size="14.00" fill="#666666">[char(36)]</text>
<polygon fill="none" stroke="#000000" points="216,-162.5 216,-192.5 390,-192.5 390,-162.5 216,-162.5"/>
<text text-anchor="start" x="223" y="-173.9" font-family="Arial" font-size="14.00" fill="#000000">name </text>
<text text-anchor="start" x="261.899" y="-173.9" font-family="Arial" font-size="14.00" fill="#666666">[varchar(255)]</text>
<polygon fill="none" stroke="#000000" points="216,-132.5 216,-162.5 390,-162.5 390,-132.5 216,-132.5"/>
<text text-anchor="start" x="223" y="-143.9" font-family="Arial" font-size="14.00" fill="#000000">description </text>
<text text-anchor="start" x="294.568" y="-143.9" font-family="Arial" font-size="14.00" fill="#666666">[text]</text>
<polygon fill="none" stroke="#000000" points="216,-102.5 216,-132.5 390,-132.5 390,-102.5 216,-102.5"/>
<text text-anchor="start" x="223" y="-113.9" font-family="Arial" font-size="14.00" fill="#000000">credit </text>
<text text-anchor="start" x="261.1136" y="-113.9" font-family="Arial" font-size="14.00" fill="#666666">[tinyint unsigned]</text>
<polygon fill="none" stroke="#000000" points="216,-72.5 216,-102.5 390,-102.5 390,-72.5 216,-72.5"/>
<text text-anchor="start" x="223" y="-83.9" font-family="Arial" font-size="14.00" fill="#000000">classroom </text>
<text text-anchor="start" x="290.6662" y="-83.9" font-family="Arial" font-size="14.00" fill="#666666">[varchar(255)]</text>
<polygon fill="none" stroke="#000000" points="216,-42.5 216,-72.5 390,-72.5 390,-42.5 216,-42.5"/>
<text text-anchor="start" x="223" y="-53.9" font-family="Arial" font-size="14.00" fill="#000000">capacity </text>
<text text-anchor="start" x="278.2356" y="-53.9" font-family="Arial" font-size="14.00" fill="#666666">[int unsigned]</text>
</g>
<!-- course_requirements&#45;&gt;courses -->
<g id="edge1" class="edge">
<title>course_requirements:course_id&#45;&gt;courses:id</title>
<path fill="none" stroke="#000000" d="M453.0427,-426.7034C539.7898,-412.3032 487.0393,-207.5 390,-207.5"/>
<polygon fill="#000000" stroke="#000000" points="452.9687,-426.7092 442.6441,-423.0141 447.9843,-427.1046 443,-427.5 443,-427.5 443,-427.5 447.9843,-427.1046 443.3559,-431.9859 452.9687,-426.7092 452.9687,-426.7092"/>
<text text-anchor="start" x="450.386" y="-437.5" font-family="Arial" font-size="10.00" fill="#000000">FOREIGN KEY (course_id) REFERENCES courses (id)</text>
</g>
<!-- course_requirements&#45;&gt;courses -->
<g id="edge2" class="edge">
<title>course_requirements:required_course_id&#45;&gt;courses:id</title>
<path fill="none" stroke="#000000" d="M303.9393,-372.3585C312.0494,-332.0035 370.4101,-346.1942 390,-301 406.5268,-262.8722 431.5556,-207.5 390,-207.5"/>
<polygon fill="#000000" stroke="#000000" points="303.9224,-372.5426 298.5192,-382.0849 303.4612,-377.5213 303,-382.5 303,-382.5 303,-382.5 303.4612,-377.5213 307.4808,-382.9151 303.9224,-372.5426 303.9224,-372.5426"/>
<text text-anchor="start" x="7.2705" y="-392.5" font-family="Arial" font-size="10.00" fill="#000000">FOREIGN KEY (required_course_id) REFERENCES courses (id)</text>
</g>
</g>
</svg>
