<?xml version="1.0" encoding="UTF-8" standalone="no"?>
<!DOCTYPE svg PUBLIC "-//W3C//DTD SVG 1.1//EN"
 "http://www.w3.org/Graphics/SVG/1.1/DTD/svg11.dtd">
<!-- Generated by graphviz version 2.40.1 (20161225.0304)
 -->
<!-- Title: course_requirements Pages: 1 -->
<svg width="1398pt" height="616pt"
 viewBox="0.00 0.00 1397.50 616.00" xmlns="http://www.w3.org/2000/svg" xmlns:xlink="http://www.w3.org/1999/xlink">
<g id="graph0" class="graph" transform="scale(1 1) rotate(0) translate(4 612)">
<title>course_requirements</title>
<polygon fill="#ffffff" stroke="transparent" points="-4,4 -4,-612 1393.5,-612 1393.5,4 -4,4"/>
<!-- course_requirements -->
<g id="node1" class="node">
<title>course_requirements</title>
<polygon fill="#efefef" stroke="transparent" points="46,-484.5 46,-519.5 326,-519.5 326,-484.5 46,-484.5"/>
<polygon fill="none" stroke="#000000" points="46,-484.5 46,-519.5 326,-519.5 326,-484.5 46,-484.5"/>
<text text-anchor="start" x="52.8595" y="-497.3" font-family="Arial Bold" font-size="18.00" fill="#000000">course_requirements</text>
<text text-anchor="start" x="221.8867" y="-497.3" font-family="Arial" font-size="14.00" fill="#000000"> </text>
<text text-anchor="start" x="225.7773" y="-497.3" font-family="Arial" font-size="14.00" fill="#666666">[BASE TABLE]</text>
<polygon fill="none" stroke="#000000" points="46,-454.5 46,-484.5 326,-484.5 326,-454.5 46,-454.5"/>
<text text-anchor="start" x="53" y="-465.9" font-family="Arial" font-size="14.00" fill="#000000">course_id </text>
<text text-anchor="start" x="117.5708" y="-465.9" font-family="Arial" font-size="14.00" fill="#666666">[char(36)]</text>
<polygon fill="none" stroke="#000000" points="46,-424.5 46,-454.5 326,-454.5 326,-424.5 46,-424.5"/>
<text text-anchor="start" x="53" y="-435.9" font-family="Arial" font-size="14.00" fill="#000000">required_course_id </text>
<text text-anchor="start" x="176.6942" y="-435.9" font-family="Arial" font-size="14.00" fill="#666666">[char(36)]</text>
<polygon fill="none" stroke="#000000" stroke-width="3" points="44.5,-423.5 44.5,-521.5 327.5,-521.5 327.5,-423.5 44.5,-423.5"/>
</g>
<!-- courses -->
<g id="node2" class="node">
<title>courses</title>
<polygon fill="#efefef" stroke="transparent" points="467,-222.5 467,-257.5 641,-257.5 641,-222.5 467,-222.5"/>
<polygon fill="none" stroke="#000000" points="467,-222.5 467,-257.5 641,-257.5 641,-222.5 467,-222.5"/>
<text text-anchor="start" x="473.8677" y="-235.3" font-family="Arial Bold" font-size="18.00" fill="#000000">courses</text>
<text text-anchor="start" x="536.8785" y="-235.3" font-family="Arial" font-size="14.00" fill="#000000"> </text>
<text text-anchor="start" x="540.7691" y="-235.3" font-family="Arial" font-size="14.00" fill="#666666">[BASE TABLE]</text>
<polygon fill="none" stroke="#000000" points="467,-192.5 467,-222.5 641,-222.5 641,-192.5 467,-192.5"/>
<text text-anchor="start" x="474" y="-203.9" font-family="Arial" font-size="14.00" fill="#000000">id </text>
<text text-anchor="start" x="488.7798" y="-203.9" font-family="Arial" font-size="14.00" fill="#666666">[char(36)]</text>
<polygon fill="none" stroke="#000000" points="467,-162.5 467,-192.5 641,-192.5 641,-162.5 467,-162.5"/>
<text text-anchor="start" x="474" y="-173.9" font-family="Arial" font-size="14.00" fill="#000000">name </text>
<text text-anchor="start" x="512.899" y="-173.9" font-family="Arial" font-size="14.00" fill="#666666">[varchar(255)]</text>
<polygon fill="none" stroke="#000000" points="467,-132.5 467,-162.5 641,-162.5 641,-132.5 467,-132.5"/>
<text text-anchor="start" x="474" y="-143.9" font-family="Arial" font-size="14.00" fill="#000000">description </text>
<text text-anchor="start" x="545.568" y="-143.9" font-family="Arial" font-size="14.00" fill="#666666">[text]</text>
<polygon fill="none" stroke="#000000" points="467,-102.5 467,-132.5 641,-132.5 641,-102.5 467,-102.5"/>
<text text-anchor="start" x="474" y="-113.9" font-family="Arial" font-size="14.00" fill="#000000">credit </text>
<text text-anchor="start" x="512.1136" y="-113.9" font-family="Arial" font-size="14.00" fill="#666666">[tinyint unsigned]</text>
<polygon fill="none" stroke="#000000" points="467,-72.5 467,-102.5 641,-102.5 641,-72.5 467,-72.5"/>
<text text-anchor="start" x="474" y="-83.9" font-family="Arial" font-size="14.00" fill="#000000">classroom </text>
<text text-anchor="start" x="541.6662" y="-83.9" font-family="Arial" font-size="14.00" fill="#666666">[varchar(255)]</text>
<polygon fill="none" stroke="#000000" points="467,-42.5 467,-72.5 641,-72.5 641,-42.5 467,-42.5"/>
<text text-anchor="start" x="474" y="-53.9" font-family="Arial" font-size="14.00" fill="#000000">capacity </text>
<text text-anchor="start" x="529.2356" y="-53.9" font-family="Arial" font-size="14.00" fill="#666666">[int unsigned]</text>
</g>
<!-- course_requirements&#45;&gt;courses -->
<g id="edge1" class="edge">
<title>course_requirements:course_id&#45;&gt;courses:id</title>
<path fill="none" stroke="#000000" d="M336.1865,-468.7341C385.4547,-460.6346 352.7596,-389.9665 381,-337 413.506,-276.0333 397.9089,-207.5 467,-207.5"/>
<polygon fill="#000000" stroke="#000000" points="335.9719,-468.7502 325.6626,-465.0127 330.9859,-469.1251 326,-469.5 326,-469.5 326,-469.5 330.9859,-469.1251 326.3374,-473.9873 335.9719,-468.7502 335.9719,-468.7502"/>
<text text-anchor="start" x="333.386" y="-479.5" font-family="Arial" font-size="10.00" fill="#000000">FOREIGN KEY (course_id) REFERENCES courses (id)</text>
</g>
<!-- course_requirements&#45;&gt;courses -->
<g id="edge3" class="edge">
<title>course_requirements:required_course_id&#45;&gt;courses:id</title>
<path fill="none" stroke="#000000" d="M336.3236,-438.5686C374.5225,-430.9458 356.4188,-378.068 381,-337 416.4838,-277.717 397.9089,-207.5 467,-207.5"/>
<polygon fill="#000000" stroke="#000000" points="335.9596,-438.6014 325.5956,-435.0182 330.9798,-439.0507 326,-439.5 326,-439.5 326,-439.5 330.9798,-439.0507 326.4044,-443.9818 335.9596,-438.6014 335.9596,-438.6014"/>
<text text-anchor="start" x="333.2705" y="-449.5" font-family="Arial" font-size="10.00" fill="#000000">FOREIGN KEY (required_course_id) REFERENCES courses (id)</text>
</g>
<!-- announcements -->
<g id="node3" class="node">
<title>announcements</title>
<polygon fill="#efefef" stroke="transparent" points="434,-529.5 434,-564.5 673,-564.5 673,-529.5 434,-529.5"/>
<polygon fill="none" stroke="#000000" points="434,-529.5 434,-564.5 673,-564.5 673,-529.5 434,-529.5"/>
<text text-anchor="start" x="440.848" y="-542.3" font-family="Arial Bold" font-size="18.00" fill="#000000">announcements</text>
<text text-anchor="start" x="568.8982" y="-542.3" font-family="Arial" font-size="14.00" fill="#000000"> </text>
<text text-anchor="start" x="572.7888" y="-542.3" font-family="Arial" font-size="14.00" fill="#666666">[BASE TABLE]</text>
<polygon fill="none" stroke="#000000" points="434,-499.5 434,-529.5 673,-529.5 673,-499.5 434,-499.5"/>
<text text-anchor="start" x="441" y="-510.9" font-family="Arial" font-size="14.00" fill="#000000">id </text>
<text text-anchor="start" x="455.7798" y="-510.9" font-family="Arial" font-size="14.00" fill="#666666">[char(36)]</text>
<polygon fill="none" stroke="#000000" points="434,-469.5 434,-499.5 673,-499.5 673,-469.5 434,-469.5"/>
<text text-anchor="start" x="441" y="-480.9" font-family="Arial" font-size="14.00" fill="#000000">course_id </text>
<text text-anchor="start" x="505.5708" y="-480.9" font-family="Arial" font-size="14.00" fill="#666666">[char(36)]</text>
<polygon fill="none" stroke="#000000" points="434,-439.5 434,-469.5 673,-469.5 673,-439.5 434,-439.5"/>
<text text-anchor="start" x="441" y="-450.9" font-family="Arial" font-size="14.00" fill="#000000">title </text>
<text text-anchor="start" x="466.6676" y="-450.9" font-family="Arial" font-size="14.00" fill="#666666">[varchar(255)]</text>
<polygon fill="none" stroke="#000000" points="434,-409.5 434,-439.5 673,-439.5 673,-409.5 434,-409.5"/>
<text text-anchor="start" x="441" y="-420.9" font-family="Arial" font-size="14.00" fill="#000000">message </text>
<text text-anchor="start" x="501.6816" y="-420.9" font-family="Arial" font-size="14.00" fill="#666666">[text]</text>
<polygon fill="none" stroke="#000000" points="434,-379.5 434,-409.5 673,-409.5 673,-379.5 434,-379.5"/>
<text text-anchor="start" x="441" y="-390.9" font-family="Arial" font-size="14.00" fill="#000000">created_at </text>
<text text-anchor="start" x="511.028" y="-390.9" font-family="Arial" font-size="14.00" fill="#666666">[datetime(6)]</text>
</g>
<!-- announcements&#45;&gt;courses -->
<g id="edge2" class="edge">
<title>announcements:course_id&#45;&gt;courses:id</title>
<path fill="none" stroke="#000000" d="M682.9687,-483.6505C735.9423,-473.9973 712.87,-384.4418 673,-337 613.2031,-265.847 526.7969,-372.153 467,-301 440.2644,-269.1869 425.4444,-207.5 467,-207.5"/>
<polygon fill="#000000" stroke="#000000" points="682.9639,-483.6508 672.6179,-480.0163 677.9819,-484.0754 673,-484.5 673,-484.5 673,-484.5 677.9819,-484.0754 673.3821,-488.9837 682.9639,-483.6508 682.9639,-483.6508"/>
<text text-anchor="start" x="680.386" y="-494.5" font-family="Arial" font-size="10.00" fill="#000000">FOREIGN KEY (course_id) REFERENCES courses (id)</text>
</g>
<!-- course_schedules -->
<g id="node4" class="node">
<title>course_schedules</title>
<polygon fill="#efefef" stroke="transparent" points="777,-484.5 777,-519.5 1033,-519.5 1033,-484.5 777,-484.5"/>
<polygon fill="none" stroke="#000000" points="777,-484.5 777,-519.5 1033,-519.5 1033,-484.5 777,-484.5"/>
<text text-anchor="start" x="783.852" y="-497.3" font-family="Arial Bold" font-size="18.00" fill="#000000">course_schedules</text>
<text text-anchor="start" x="928.8942" y="-497.3" font-family="Arial" font-size="14.00" fill="#000000"> </text>
<text text-anchor="start" x="932.7848" y="-497.3" font-family="Arial" font-size="14.00" fill="#666666">[BASE TABLE]</text>
<polygon fill="none" stroke="#000000" points="777,-454.5 777,-484.5 1033,-484.5 1033,-454.5 777,-454.5"/>
<text text-anchor="start" x="784" y="-465.9" font-family="Arial" font-size="14.00" fill="#000000">course_id </text>
<text text-anchor="start" x="848.5708" y="-465.9" font-family="Arial" font-size="14.00" fill="#666666">[char(36)]</text>
<polygon fill="none" stroke="#000000" points="777,-424.5 777,-454.5 1033,-454.5 1033,-424.5 777,-424.5"/>
<text text-anchor="start" x="784" y="-435.9" font-family="Arial" font-size="14.00" fill="#000000">schedule_id </text>
<text text-anchor="start" x="862.582" y="-435.9" font-family="Arial" font-size="14.00" fill="#666666">[char(36)]</text>
</g>
<!-- course_schedules&#45;&gt;courses -->
<g id="edge4" class="edge">
<title>course_schedules:course_id&#45;&gt;courses:id</title>
<path fill="none" stroke="#000000" d="M766.9105,-468.7342C718.2095,-460.6349 752.221,-389.9697 725,-337 693.6431,-275.9823 709.6034,-207.5 641,-207.5"/>
<polygon fill="#000000" stroke="#000000" points="767.0287,-468.7431 776.6594,-473.9871 772.0143,-469.1215 777,-469.5 777,-469.5 777,-469.5 772.0143,-469.1215 777.3406,-465.0129 767.0287,-468.7431 767.0287,-468.7431"/>
<text text-anchor="start" x="784.386" y="-453.5" font-family="Arial" font-size="10.00" fill="#000000">FOREIGN KEY (course_id) REFERENCES courses (id)</text>
</g>
<!-- registrations -->
<g id="node5" class="node">
<title>registrations</title>
<polygon fill="#efefef" stroke="transparent" points="1138,-514.5 1138,-549.5 1347,-549.5 1347,-514.5 1138,-514.5"/>
<polygon fill="none" stroke="#000000" points="1138,-514.5 1138,-549.5 1347,-549.5 1347,-514.5 1138,-514.5"/>
<text text-anchor="start" x="1144.869" y="-527.3" font-family="Arial Bold" font-size="18.00" fill="#000000">registrations</text>
<text text-anchor="start" x="1242.8772" y="-527.3" font-family="Arial" font-size="14.00" fill="#000000"> </text>
<text text-anchor="start" x="1246.7678" y="-527.3" font-family="Arial" font-size="14.00" fill="#666666">[BASE TABLE]</text>
<polygon fill="none" stroke="#000000" points="1138,-484.5 1138,-514.5 1347,-514.5 1347,-484.5 1138,-484.5"/>
<text text-anchor="start" x="1145" y="-495.9" font-family="Arial" font-size="14.00" fill="#000000">course_id </text>
<text text-anchor="start" x="1209.5708" y="-495.9" font-family="Arial" font-size="14.00" fill="#666666">[char(36)]</text>
<polygon fill="none" stroke="#000000" points="1138,-454.5 1138,-484.5 1347,-484.5 1347,-454.5 1138,-454.5"/>
<text text-anchor="start" x="1145" y="-465.9" font-family="Arial" font-size="14.00" fill="#000000">user_id </text>
<text text-anchor="start" x="1194.7882" y="-465.9" font-family="Arial" font-size="14.00" fill="#666666">[char(36)]</text>
<polygon fill="none" stroke="#000000" points="1138,-424.5 1138,-454.5 1347,-454.5 1347,-424.5 1138,-424.5"/>
<text text-anchor="start" x="1145" y="-435.9" font-family="Arial" font-size="14.00" fill="#000000">created_at </text>
<text text-anchor="start" x="1215.028" y="-435.9" font-family="Arial" font-size="14.00" fill="#666666">[datetime(6)]</text>
<polygon fill="none" stroke="#000000" points="1138,-394.5 1138,-424.5 1347,-424.5 1347,-394.5 1138,-394.5"/>
<text text-anchor="start" x="1145" y="-405.9" font-family="Arial" font-size="14.00" fill="#000000">delete_at </text>
<text text-anchor="start" x="1206.474" y="-405.9" font-family="Arial" font-size="14.00" fill="#666666">[datetime(6)]</text>
</g>
<!-- registrations&#45;&gt;courses -->
<g id="edge5" class="edge">
<title>registrations:course_id&#45;&gt;courses:id</title>
<path fill="none" stroke="#000000" d="M1127.9367,-498.7352C1069.2891,-488.9287 1136.8915,-387.283 1085,-337 1011.1902,-265.478 743.7778,-207.5 641,-207.5"/>
<polygon fill="#000000" stroke="#000000" points="1128.0288,-498.7421 1137.6589,-503.9871 1133.0144,-499.1211 1138,-499.5 1138,-499.5 1138,-499.5 1133.0144,-499.1211 1138.3411,-495.0129 1128.0288,-498.7421 1128.0288,-498.7421"/>
<text text-anchor="start" x="949.636" y="-483.5" font-family="Arial" font-size="10.00" fill="#000000">FOREIGN KEY (course_id) REFERENCES courses (id)</text>
</g>
</g>
</svg>
