<?xml version="1.0" encoding="UTF-8" standalone="no"?>
<!DOCTYPE svg PUBLIC "-//W3C//DTD SVG 1.1//EN"
 "http://www.w3.org/Graphics/SVG/1.1/DTD/svg11.dtd">
<!-- Generated by graphviz version 2.40.1 (20161225.0304)
 -->
<!-- Title: courses Pages: 1 -->
<svg width="1053pt" height="1169pt"
 viewBox="0.00 0.00 1052.50 1169.00" xmlns="http://www.w3.org/2000/svg" xmlns:xlink="http://www.w3.org/1999/xlink">
<g id="graph0" class="graph" transform="scale(1 1) rotate(0) translate(4 1165)">
<title>courses</title>
<polygon fill="#ffffff" stroke="transparent" points="-4,4 -4,-1165 1048.5,-1165 1048.5,4 -4,4"/>
<!-- courses -->
<g id="node1" class="node">
<title>courses</title>
<polygon fill="#efefef" stroke="transparent" points="215.5,-712.5 215.5,-747.5 790.5,-747.5 790.5,-712.5 215.5,-712.5"/>
<polygon fill="none" stroke="#000000" points="215.5,-712.5 215.5,-747.5 790.5,-747.5 790.5,-712.5 215.5,-712.5"/>
<text text-anchor="start" x="422.8677" y="-725.3" font-family="Arial Bold" font-size="18.00" fill="#000000">courses</text>
<text text-anchor="start" x="485.8785" y="-725.3" font-family="Arial" font-size="14.00" fill="#000000"> </text>
<text text-anchor="start" x="489.7691" y="-725.3" font-family="Arial" font-size="14.00" fill="#666666">[BASE TABLE]</text>
<polygon fill="none" stroke="#000000" points="215.5,-682.5 215.5,-712.5 790.5,-712.5 790.5,-682.5 215.5,-682.5"/>
<text text-anchor="start" x="222.5" y="-693.9" font-family="Arial" font-size="14.00" fill="#000000">id </text>
<text text-anchor="start" x="237.2798" y="-693.9" font-family="Arial" font-size="14.00" fill="#666666">[char(36)]</text>
<polygon fill="none" stroke="#000000" points="215.5,-652.5 215.5,-682.5 790.5,-682.5 790.5,-652.5 215.5,-652.5"/>
<text text-anchor="start" x="222.5" y="-663.9" font-family="Arial" font-size="14.00" fill="#000000">code </text>
<text text-anchor="start" x="256.7384" y="-663.9" font-family="Arial" font-size="14.00" fill="#666666">[varchar(255)]</text>
<polygon fill="none" stroke="#000000" points="215.5,-622.5 215.5,-652.5 790.5,-652.5 790.5,-622.5 215.5,-622.5"/>
<text text-anchor="start" x="222.5" y="-633.9" font-family="Arial" font-size="14.00" fill="#000000">type </text>
<text text-anchor="start" x="252.8464" y="-633.9" font-family="Arial" font-size="14.00" fill="#666666">[enum(&#39;liberal&#45;arts&#39;,&#39;major&#45;subjects&#39;)]</text>
<polygon fill="none" stroke="#000000" points="215.5,-592.5 215.5,-622.5 790.5,-622.5 790.5,-592.5 215.5,-592.5"/>
<text text-anchor="start" x="222.5" y="-603.9" font-family="Arial" font-size="14.00" fill="#000000">name </text>
<text text-anchor="start" x="261.399" y="-603.9" font-family="Arial" font-size="14.00" fill="#666666">[varchar(255)]</text>
<polygon fill="none" stroke="#000000" points="215.5,-562.5 215.5,-592.5 790.5,-592.5 790.5,-562.5 215.5,-562.5"/>
<text text-anchor="start" x="222.5" y="-573.9" font-family="Arial" font-size="14.00" fill="#000000">description </text>
<text text-anchor="start" x="294.068" y="-573.9" font-family="Arial" font-size="14.00" fill="#666666">[text]</text>
<polygon fill="none" stroke="#000000" points="215.5,-532.5 215.5,-562.5 790.5,-562.5 790.5,-532.5 215.5,-532.5"/>
<text text-anchor="start" x="222.5" y="-543.9" font-family="Arial" font-size="14.00" fill="#000000">credit </text>
<text text-anchor="start" x="260.6136" y="-543.9" font-family="Arial" font-size="14.00" fill="#666666">[tinyint unsigned]</text>
<polygon fill="none" stroke="#000000" points="215.5,-502.5 215.5,-532.5 790.5,-532.5 790.5,-502.5 215.5,-502.5"/>
<text text-anchor="start" x="222.5" y="-513.9" font-family="Arial" font-size="14.00" fill="#000000">period </text>
<text text-anchor="start" x="265.2882" y="-513.9" font-family="Arial" font-size="14.00" fill="#666666">[tinyint unsigned]</text>
<polygon fill="none" stroke="#000000" points="215.5,-472.5 215.5,-502.5 790.5,-502.5 790.5,-472.5 215.5,-472.5"/>
<text text-anchor="start" x="222.2762" y="-483.9" font-family="Arial" font-size="14.00" fill="#000000">day_of_week </text>
<text text-anchor="start" x="308.6422" y="-483.9" font-family="Arial" font-size="14.00" fill="#666666">[enum(&#39;sunday&#39;,&#39;monday&#39;,&#39;tuesday&#39;,&#39;wednesday&#39;,&#39;thursday&#39;,&#39;friday&#39;,&#39;saturday&#39;)]</text>
<polygon fill="none" stroke="#000000" points="215.5,-442.5 215.5,-472.5 790.5,-472.5 790.5,-442.5 215.5,-442.5"/>
<text text-anchor="start" x="222.5" y="-453.9" font-family="Arial" font-size="14.00" fill="#000000">teacher_id </text>
<text text-anchor="start" x="291.744" y="-453.9" font-family="Arial" font-size="14.00" fill="#666666">[char(36)]</text>
<polygon fill="none" stroke="#000000" points="215.5,-412.5 215.5,-442.5 790.5,-442.5 790.5,-412.5 215.5,-412.5"/>
<text text-anchor="start" x="222.5" y="-423.9" font-family="Arial" font-size="14.00" fill="#000000">keywords </text>
<text text-anchor="start" x="285.5056" y="-423.9" font-family="Arial" font-size="14.00" fill="#666666">[text]</text>
<polygon fill="none" stroke="#000000" points="215.5,-382.5 215.5,-412.5 790.5,-412.5 790.5,-382.5 215.5,-382.5"/>
<text text-anchor="start" x="222.5" y="-393.9" font-family="Arial" font-size="14.00" fill="#000000">status </text>
<text text-anchor="start" x="263.737" y="-393.9" font-family="Arial" font-size="14.00" fill="#666666">[enum(&#39;reg&#39;,&#39;class&#39;,&#39;result&#39;)]</text>
<polygon fill="none" stroke="#000000" points="215.5,-352.5 215.5,-382.5 790.5,-382.5 790.5,-352.5 215.5,-352.5"/>
<text text-anchor="start" x="222.5" y="-363.9" font-family="Arial" font-size="14.00" fill="#000000">created_at </text>
<text text-anchor="start" x="292.528" y="-363.9" font-family="Arial" font-size="14.00" fill="#666666">[datetime(6)]</text>
<polygon fill="none" stroke="#000000" stroke-width="3" points="213.5,-351.5 213.5,-749.5 791.5,-749.5 791.5,-351.5 213.5,-351.5"/>
</g>
<!-- users -->
<g id="node5" class="node">
<title>users</title>
<polygon fill="#efefef" stroke="transparent" points="402.5,-192.5 402.5,-227.5 604.5,-227.5 604.5,-192.5 402.5,-192.5"/>
<polygon fill="none" stroke="#000000" points="402.5,-192.5 402.5,-227.5 604.5,-227.5 604.5,-192.5 402.5,-192.5"/>
<text text-anchor="start" x="432.8708" y="-205.3" font-family="Arial Bold" font-size="18.00" fill="#000000">users</text>
<text text-anchor="start" x="476.8754" y="-205.3" font-family="Arial" font-size="14.00" fill="#000000"> </text>
<text text-anchor="start" x="480.766" y="-205.3" font-family="Arial" font-size="14.00" fill="#666666">[BASE TABLE]</text>
<polygon fill="none" stroke="#000000" points="402.5,-162.5 402.5,-192.5 604.5,-192.5 604.5,-162.5 402.5,-162.5"/>
<text text-anchor="start" x="409.5" y="-173.9" font-family="Arial" font-size="14.00" fill="#000000">id </text>
<text text-anchor="start" x="424.2798" y="-173.9" font-family="Arial" font-size="14.00" fill="#666666">[char(36)]</text>
<polygon fill="none" stroke="#000000" points="402.5,-132.5 402.5,-162.5 604.5,-162.5 604.5,-132.5 402.5,-132.5"/>
<text text-anchor="start" x="409.5" y="-143.9" font-family="Arial" font-size="14.00" fill="#000000">code </text>
<text text-anchor="start" x="443.7384" y="-143.9" font-family="Arial" font-size="14.00" fill="#666666">[char(8)]</text>
<polygon fill="none" stroke="#000000" points="402.5,-102.5 402.5,-132.5 604.5,-132.5 604.5,-102.5 402.5,-102.5"/>
<text text-anchor="start" x="409.5" y="-113.9" font-family="Arial" font-size="14.00" fill="#000000">name </text>
<text text-anchor="start" x="448.399" y="-113.9" font-family="Arial" font-size="14.00" fill="#666666">[varchar(255)]</text>
<polygon fill="none" stroke="#000000" points="402.5,-72.5 402.5,-102.5 604.5,-102.5 604.5,-72.5 402.5,-72.5"/>
<text text-anchor="start" x="409.3668" y="-83.9" font-family="Arial" font-size="14.00" fill="#000000">hashed_password </text>
<text text-anchor="start" x="526.8506" y="-83.9" font-family="Arial" font-size="14.00" fill="#666666">[binary(60)]</text>
<polygon fill="none" stroke="#000000" points="402.5,-42.5 402.5,-72.5 604.5,-72.5 604.5,-42.5 402.5,-42.5"/>
<text text-anchor="start" x="409.5" y="-53.9" font-family="Arial" font-size="14.00" fill="#000000">type </text>
<text text-anchor="start" x="439.8464" y="-53.9" font-family="Arial" font-size="14.00" fill="#666666">[enum(&#39;student&#39;,&#39;faculty&#39;)]</text>
</g>
<!-- courses&#45;&gt;users -->
<g id="edge4" class="edge">
<title>courses:teacher_id&#45;&gt;users:id</title>
<path fill="none" stroke="#000000" d="M800.6887,-456.6182C854.9319,-446.6003 833.0956,-353.7307 790.5,-307 732.1668,-243.0039 460.8332,-334.9961 402.5,-271 374.506,-240.2884 360.9444,-177.5 402.5,-177.5"/>
<polygon fill="#000000" stroke="#000000" points="800.4628,-456.6377 790.1119,-453.0168 795.4814,-457.0688 790.5,-457.5 790.5,-457.5 790.5,-457.5 795.4814,-457.0688 790.8881,-461.9832 800.4628,-456.6377 800.4628,-456.6377"/>
<text text-anchor="start" x="797.4965" y="-467.5" font-family="Arial" font-size="10.00" fill="#000000">FOREIGN KEY (teacher_id) REFERENCES users (id)</text>
</g>
<!-- announcements -->
<g id="node2" class="node">
<title>announcements</title>
<polygon fill="#efefef" stroke="transparent" points="43.5,-1052.5 43.5,-1087.5 282.5,-1087.5 282.5,-1052.5 43.5,-1052.5"/>
<polygon fill="none" stroke="#000000" points="43.5,-1052.5 43.5,-1087.5 282.5,-1087.5 282.5,-1052.5 43.5,-1052.5"/>
<text text-anchor="start" x="50.348" y="-1065.3" font-family="Arial Bold" font-size="18.00" fill="#000000">announcements</text>
<text text-anchor="start" x="178.3982" y="-1065.3" font-family="Arial" font-size="14.00" fill="#000000"> </text>
<text text-anchor="start" x="182.2888" y="-1065.3" font-family="Arial" font-size="14.00" fill="#666666">[BASE TABLE]</text>
<polygon fill="none" stroke="#000000" points="43.5,-1022.5 43.5,-1052.5 282.5,-1052.5 282.5,-1022.5 43.5,-1022.5"/>
<text text-anchor="start" x="50.5" y="-1033.9" font-family="Arial" font-size="14.00" fill="#000000">id </text>
<text text-anchor="start" x="65.2798" y="-1033.9" font-family="Arial" font-size="14.00" fill="#666666">[char(36)]</text>
<polygon fill="none" stroke="#000000" points="43.5,-992.5 43.5,-1022.5 282.5,-1022.5 282.5,-992.5 43.5,-992.5"/>
<text text-anchor="start" x="50.5" y="-1003.9" font-family="Arial" font-size="14.00" fill="#000000">course_id </text>
<text text-anchor="start" x="115.0708" y="-1003.9" font-family="Arial" font-size="14.00" fill="#666666">[char(36)]</text>
<polygon fill="none" stroke="#000000" points="43.5,-962.5 43.5,-992.5 282.5,-992.5 282.5,-962.5 43.5,-962.5"/>
<text text-anchor="start" x="50.5" y="-973.9" font-family="Arial" font-size="14.00" fill="#000000">title </text>
<text text-anchor="start" x="76.1676" y="-973.9" font-family="Arial" font-size="14.00" fill="#666666">[varchar(255)]</text>
<polygon fill="none" stroke="#000000" points="43.5,-932.5 43.5,-962.5 282.5,-962.5 282.5,-932.5 43.5,-932.5"/>
<text text-anchor="start" x="50.5" y="-943.9" font-family="Arial" font-size="14.00" fill="#000000">message </text>
<text text-anchor="start" x="111.1816" y="-943.9" font-family="Arial" font-size="14.00" fill="#666666">[text]</text>
<polygon fill="none" stroke="#000000" points="43.5,-902.5 43.5,-932.5 282.5,-932.5 282.5,-902.5 43.5,-902.5"/>
<text text-anchor="start" x="50.5" y="-913.9" font-family="Arial" font-size="14.00" fill="#000000">created_at </text>
<text text-anchor="start" x="120.528" y="-913.9" font-family="Arial" font-size="14.00" fill="#666666">[datetime(6)]</text>
</g>
<!-- announcements&#45;&gt;courses -->
<g id="edge1" class="edge">
<title>announcements:course_id&#45;&gt;courses:id</title>
<path fill="none" stroke="#000000" d="M292.643,-1006.683C343.5449,-997.7264 306.3807,-917.0456 282.5,-860 266.3591,-821.4431 231.6409,-832.5569 215.5,-794 198.9383,-754.4378 172.6111,-697.5 215.5,-697.5"/>
<polygon fill="#000000" stroke="#000000" points="292.4677,-1006.6971 282.1387,-1003.0145 287.4839,-1007.0985 282.5,-1007.5 282.5,-1007.5 282.5,-1007.5 287.4839,-1007.0985 282.8613,-1011.9855 292.4677,-1006.6971 292.4677,-1006.6971"/>
<text text-anchor="start" x="289.886" y="-1017.5" font-family="Arial" font-size="10.00" fill="#000000">FOREIGN KEY (course_id) REFERENCES courses (id)</text>
</g>
<!-- classes -->
<g id="node3" class="node">
<title>classes</title>
<polygon fill="#efefef" stroke="transparent" points="386.5,-1082.5 386.5,-1117.5 620.5,-1117.5 620.5,-1082.5 386.5,-1082.5"/>
<polygon fill="none" stroke="#000000" points="386.5,-1082.5 386.5,-1117.5 620.5,-1117.5 620.5,-1082.5 386.5,-1082.5"/>
<text text-anchor="start" x="424.8698" y="-1095.3" font-family="Arial Bold" font-size="18.00" fill="#000000">classes</text>
<text text-anchor="start" x="484.8764" y="-1095.3" font-family="Arial" font-size="14.00" fill="#000000"> </text>
<text text-anchor="start" x="488.767" y="-1095.3" font-family="Arial" font-size="14.00" fill="#666666">[BASE TABLE]</text>
<polygon fill="none" stroke="#000000" points="386.5,-1052.5 386.5,-1082.5 620.5,-1082.5 620.5,-1052.5 386.5,-1052.5"/>
<text text-anchor="start" x="393.5" y="-1063.9" font-family="Arial" font-size="14.00" fill="#000000">id </text>
<text text-anchor="start" x="408.2798" y="-1063.9" font-family="Arial" font-size="14.00" fill="#666666">[char(36)]</text>
<polygon fill="none" stroke="#000000" points="386.5,-1022.5 386.5,-1052.5 620.5,-1052.5 620.5,-1022.5 386.5,-1022.5"/>
<text text-anchor="start" x="393.5" y="-1033.9" font-family="Arial" font-size="14.00" fill="#000000">course_id </text>
<text text-anchor="start" x="458.0708" y="-1033.9" font-family="Arial" font-size="14.00" fill="#666666">[char(36)]</text>
<polygon fill="none" stroke="#000000" points="386.5,-992.5 386.5,-1022.5 620.5,-1022.5 620.5,-992.5 386.5,-992.5"/>
<text text-anchor="start" x="393.5" y="-1003.9" font-family="Arial" font-size="14.00" fill="#000000">part </text>
<text text-anchor="start" x="421.507" y="-1003.9" font-family="Arial" font-size="14.00" fill="#666666">[tinyint unsigned]</text>
<polygon fill="none" stroke="#000000" points="386.5,-962.5 386.5,-992.5 620.5,-992.5 620.5,-962.5 386.5,-962.5"/>
<text text-anchor="start" x="393.5" y="-973.9" font-family="Arial" font-size="14.00" fill="#000000">title </text>
<text text-anchor="start" x="419.1676" y="-973.9" font-family="Arial" font-size="14.00" fill="#666666">[varchar(255)]</text>
<polygon fill="none" stroke="#000000" points="386.5,-932.5 386.5,-962.5 620.5,-962.5 620.5,-932.5 386.5,-932.5"/>
<text text-anchor="start" x="393.5" y="-943.9" font-family="Arial" font-size="14.00" fill="#000000">description </text>
<text text-anchor="start" x="465.068" y="-943.9" font-family="Arial" font-size="14.00" fill="#666666">[text]</text>
<polygon fill="none" stroke="#000000" points="386.5,-902.5 386.5,-932.5 620.5,-932.5 620.5,-902.5 386.5,-902.5"/>
<text text-anchor="start" x="393.5" y="-913.9" font-family="Arial" font-size="14.00" fill="#000000">created_at </text>
<text text-anchor="start" x="463.528" y="-913.9" font-family="Arial" font-size="14.00" fill="#666666">[datetime(6)]</text>
<polygon fill="none" stroke="#000000" points="386.5,-872.5 386.5,-902.5 620.5,-902.5 620.5,-872.5 386.5,-872.5"/>
<text text-anchor="start" x="393.4243" y="-883.9" font-family="Arial" font-size="14.00" fill="#000000">submission_closed_at </text>
<text text-anchor="start" x="535.0119" y="-883.9" font-family="Arial" font-size="14.00" fill="#666666">[datetime(6)]</text>
</g>
<!-- classes&#45;&gt;courses -->
<g id="edge2" class="edge">
<title>classes:course_id&#45;&gt;courses:id</title>
<path fill="none" stroke="#000000" d="M376.79,-1034.4727C342.829,-1011.2452 357.8068,-861.3638 386.5,-830 447.3399,-763.4977 729.6601,-860.5023 790.5,-794 819.4499,-762.3557 833.3889,-697.5 790.5,-697.5"/>
<polygon fill="#000000" stroke="#000000" points="376.9532,-1034.5236 385.1606,-1041.7961 381.7266,-1036.0118 386.5,-1037.5 386.5,-1037.5 386.5,-1037.5 381.7266,-1036.0118 387.8394,-1033.2039 376.9532,-1034.5236 376.9532,-1034.5236"/>
<text text-anchor="start" x="393.886" y="-1047.5" font-family="Arial" font-size="10.00" fill="#000000">FOREIGN KEY (course_id) REFERENCES courses (id)</text>
</g>
<!-- registrations -->
<g id="node4" class="node">
<title>registrations</title>
<polygon fill="#efefef" stroke="transparent" points="725.5,-1037.5 725.5,-1072.5 934.5,-1072.5 934.5,-1037.5 725.5,-1037.5"/>
<polygon fill="none" stroke="#000000" points="725.5,-1037.5 725.5,-1072.5 934.5,-1072.5 934.5,-1037.5 725.5,-1037.5"/>
<text text-anchor="start" x="732.369" y="-1050.3" font-family="Arial Bold" font-size="18.00" fill="#000000">registrations</text>
<text text-anchor="start" x="830.3772" y="-1050.3" font-family="Arial" font-size="14.00" fill="#000000"> </text>
<text text-anchor="start" x="834.2678" y="-1050.3" font-family="Arial" font-size="14.00" fill="#666666">[BASE TABLE]</text>
<polygon fill="none" stroke="#000000" points="725.5,-1007.5 725.5,-1037.5 934.5,-1037.5 934.5,-1007.5 725.5,-1007.5"/>
<text text-anchor="start" x="732.5" y="-1018.9" font-family="Arial" font-size="14.00" fill="#000000">course_id </text>
<text text-anchor="start" x="797.0708" y="-1018.9" font-family="Arial" font-size="14.00" fill="#666666">[char(36)]</text>
<polygon fill="none" stroke="#000000" points="725.5,-977.5 725.5,-1007.5 934.5,-1007.5 934.5,-977.5 725.5,-977.5"/>
<text text-anchor="start" x="732.5" y="-988.9" font-family="Arial" font-size="14.00" fill="#000000">user_id </text>
<text text-anchor="start" x="782.2882" y="-988.9" font-family="Arial" font-size="14.00" fill="#666666">[char(36)]</text>
<polygon fill="none" stroke="#000000" points="725.5,-947.5 725.5,-977.5 934.5,-977.5 934.5,-947.5 725.5,-947.5"/>
<text text-anchor="start" x="732.5" y="-958.9" font-family="Arial" font-size="14.00" fill="#000000">created_at </text>
<text text-anchor="start" x="802.528" y="-958.9" font-family="Arial" font-size="14.00" fill="#666666">[datetime(6)]</text>
<polygon fill="none" stroke="#000000" points="725.5,-917.5 725.5,-947.5 934.5,-947.5 934.5,-917.5 725.5,-917.5"/>
<text text-anchor="start" x="732.5" y="-928.9" font-family="Arial" font-size="14.00" fill="#000000">deleted_at </text>
<text text-anchor="start" x="801.7566" y="-928.9" font-family="Arial" font-size="14.00" fill="#666666">[datetime(6)]</text>
</g>
<!-- registrations&#45;&gt;courses -->
<g id="edge3" class="edge">
<title>registrations:course_id&#45;&gt;courses:id</title>
<path fill="none" stroke="#000000" d="M715.3894,-1021.6955C664.8365,-1012.8731 704.9858,-933.3409 725.5,-875 740.8114,-831.4554 775.1886,-837.5446 790.5,-794 804.7269,-753.5395 833.3889,-697.5 790.5,-697.5"/>
<polygon fill="#000000" stroke="#000000" points="715.5315,-1021.7067 725.143,-1026.9858 720.5158,-1022.1034 725.5,-1022.5 725.5,-1022.5 725.5,-1022.5 720.5158,-1022.1034 725.857,-1018.0142 715.5315,-1021.7067 715.5315,-1021.7067"/>
<text text-anchor="start" x="732.886" y="-1032.5" font-family="Arial" font-size="10.00" fill="#000000">FOREIGN KEY (course_id) REFERENCES courses (id)</text>
</g>
</g>
</svg>
