<?xml version="1.0" encoding="UTF-8" standalone="no"?>
<!DOCTYPE svg PUBLIC "-//W3C//DTD SVG 1.1//EN"
 "http://www.w3.org/Graphics/SVG/1.1/DTD/svg11.dtd">
<!-- Generated by graphviz version 2.40.1 (20161225.0304)
 -->
<!-- Title: course_schedules Pages: 1 -->
<svg width="967pt" height="532pt"
 viewBox="0.00 0.00 966.50 532.00" xmlns="http://www.w3.org/2000/svg" xmlns:xlink="http://www.w3.org/1999/xlink">
<g id="graph0" class="graph" transform="scale(1 1) rotate(0) translate(4 528)">
<title>course_schedules</title>
<polygon fill="#ffffff" stroke="transparent" points="-4,4 -4,-528 962.5,-528 962.5,4 -4,4"/>
<!-- course_schedules -->
<g id="node1" class="node">
<title>course_schedules</title>
<polygon fill="#efefef" stroke="transparent" points="261,-442.5 261,-477.5 517,-477.5 517,-442.5 261,-442.5"/>
<polygon fill="none" stroke="#000000" points="261,-442.5 261,-477.5 517,-477.5 517,-442.5 261,-442.5"/>
<text text-anchor="start" x="267.852" y="-455.3" font-family="Arial Bold" font-size="18.00" fill="#000000">course_schedules</text>
<text text-anchor="start" x="412.8942" y="-455.3" font-family="Arial" font-size="14.00" fill="#000000"> </text>
<text text-anchor="start" x="416.7848" y="-455.3" font-family="Arial" font-size="14.00" fill="#666666">[BASE TABLE]</text>
<polygon fill="none" stroke="#000000" points="261,-412.5 261,-442.5 517,-442.5 517,-412.5 261,-412.5"/>
<text text-anchor="start" x="268" y="-423.9" font-family="Arial" font-size="14.00" fill="#000000">course_id </text>
<text text-anchor="start" x="332.5708" y="-423.9" font-family="Arial" font-size="14.00" fill="#666666">[char(36)]</text>
<polygon fill="none" stroke="#000000" points="261,-382.5 261,-412.5 517,-412.5 517,-382.5 261,-382.5"/>
<text text-anchor="start" x="268" y="-393.9" font-family="Arial" font-size="14.00" fill="#000000">schedule_id </text>
<text text-anchor="start" x="346.582" y="-393.9" font-family="Arial" font-size="14.00" fill="#666666">[char(36)]</text>
<polygon fill="none" stroke="#000000" stroke-width="3" points="259.5,-381.5 259.5,-479.5 518.5,-479.5 518.5,-381.5 259.5,-381.5"/>
</g>
<!-- courses -->
<g id="node2" class="node">
<title>courses</title>
<polygon fill="#efefef" stroke="transparent" points="62,-222.5 62,-257.5 236,-257.5 236,-222.5 62,-222.5"/>
<polygon fill="none" stroke="#000000" points="62,-222.5 62,-257.5 236,-257.5 236,-222.5 62,-222.5"/>
<text text-anchor="start" x="68.8677" y="-235.3" font-family="Arial Bold" font-size="18.00" fill="#000000">courses</text>
<text text-anchor="start" x="131.8785" y="-235.3" font-family="Arial" font-size="14.00" fill="#000000"> </text>
<text text-anchor="start" x="135.7691" y="-235.3" font-family="Arial" font-size="14.00" fill="#666666">[BASE TABLE]</text>
<polygon fill="none" stroke="#000000" points="62,-192.5 62,-222.5 236,-222.5 236,-192.5 62,-192.5"/>
<text text-anchor="start" x="69" y="-203.9" font-family="Arial" font-size="14.00" fill="#000000">id </text>
<text text-anchor="start" x="83.7798" y="-203.9" font-family="Arial" font-size="14.00" fill="#666666">[char(36)]</text>
<polygon fill="none" stroke="#000000" points="62,-162.5 62,-192.5 236,-192.5 236,-162.5 62,-162.5"/>
<text text-anchor="start" x="69" y="-173.9" font-family="Arial" font-size="14.00" fill="#000000">name </text>
<text text-anchor="start" x="107.899" y="-173.9" font-family="Arial" font-size="14.00" fill="#666666">[varchar(255)]</text>
<polygon fill="none" stroke="#000000" points="62,-132.5 62,-162.5 236,-162.5 236,-132.5 62,-132.5"/>
<text text-anchor="start" x="69" y="-143.9" font-family="Arial" font-size="14.00" fill="#000000">description </text>
<text text-anchor="start" x="140.568" y="-143.9" font-family="Arial" font-size="14.00" fill="#666666">[text]</text>
<polygon fill="none" stroke="#000000" points="62,-102.5 62,-132.5 236,-132.5 236,-102.5 62,-102.5"/>
<text text-anchor="start" x="69" y="-113.9" font-family="Arial" font-size="14.00" fill="#000000">credit </text>
<text text-anchor="start" x="107.1136" y="-113.9" font-family="Arial" font-size="14.00" fill="#666666">[tinyint unsigned]</text>
<polygon fill="none" stroke="#000000" points="62,-72.5 62,-102.5 236,-102.5 236,-72.5 62,-72.5"/>
<text text-anchor="start" x="69" y="-83.9" font-family="Arial" font-size="14.00" fill="#000000">classroom </text>
<text text-anchor="start" x="136.6662" y="-83.9" font-family="Arial" font-size="14.00" fill="#666666">[varchar(255)]</text>
<polygon fill="none" stroke="#000000" points="62,-42.5 62,-72.5 236,-72.5 236,-42.5 62,-42.5"/>
<text text-anchor="start" x="69" y="-53.9" font-family="Arial" font-size="14.00" fill="#000000">capacity </text>
<text text-anchor="start" x="124.2356" y="-53.9" font-family="Arial" font-size="14.00" fill="#666666">[int unsigned]</text>
</g>
<!-- course_schedules&#45;&gt;courses -->
<g id="edge1" class="edge">
<title>course_schedules:course_id&#45;&gt;courses:id</title>
<path fill="none" stroke="#000000" d="M250.6727,-426.5191C175.6036,-410.6482 330.563,-207.5 236,-207.5"/>
<polygon fill="#000000" stroke="#000000" points="251.0448,-426.5544 260.5745,-431.9798 256.0224,-427.0272 261,-427.5 261,-427.5 261,-427.5 256.0224,-427.0272 261.4255,-423.0202 251.0448,-426.5544 251.0448,-426.5544"/>
<text text-anchor="start" x="7.386" y="-437.5" font-family="Arial" font-size="10.00" fill="#000000">FOREIGN KEY (course_id) REFERENCES courses (id)</text>
</g>
<!-- schedules -->
<g id="node3" class="node">
<title>schedules</title>
<polygon fill="#efefef" stroke="transparent" points="341,-207.5 341,-242.5 916,-242.5 916,-207.5 341,-207.5"/>
<polygon fill="none" stroke="#000000" points="341,-207.5 341,-242.5 916,-242.5 916,-207.5 341,-207.5"/>
<text text-anchor="start" x="539.3605" y="-220.3" font-family="Arial Bold" font-size="18.00" fill="#000000">schedules</text>
<text text-anchor="start" x="620.3857" y="-220.3" font-family="Arial" font-size="14.00" fill="#000000"> </text>
<text text-anchor="start" x="624.2763" y="-220.3" font-family="Arial" font-size="14.00" fill="#666666">[BASE TABLE]</text>
<polygon fill="none" stroke="#000000" points="341,-177.5 341,-207.5 916,-207.5 916,-177.5 341,-177.5"/>
<text text-anchor="start" x="348" y="-188.9" font-family="Arial" font-size="14.00" fill="#000000">id </text>
<text text-anchor="start" x="362.7798" y="-188.9" font-family="Arial" font-size="14.00" fill="#666666">[char(36)]</text>
<polygon fill="none" stroke="#000000" points="341,-147.5 341,-177.5 916,-177.5 916,-147.5 341,-147.5"/>
<text text-anchor="start" x="348" y="-158.9" font-family="Arial" font-size="14.00" fill="#000000">period </text>
<text text-anchor="start" x="390.7882" y="-158.9" font-family="Arial" font-size="14.00" fill="#666666">[tinyint unsigned]</text>
<polygon fill="none" stroke="#000000" points="341,-117.5 341,-147.5 916,-147.5 916,-117.5 341,-117.5"/>
<text text-anchor="start" x="347.7762" y="-128.9" font-family="Arial" font-size="14.00" fill="#000000">day_of_week </text>
<text text-anchor="start" x="434.1422" y="-128.9" font-family="Arial" font-size="14.00" fill="#666666">[enum(&#39;sunday&#39;,&#39;monday&#39;,&#39;tuesday&#39;,&#39;wednesday&#39;,&#39;thursday&#39;,&#39;friday&#39;,&#39;saturday&#39;)]</text>
<polygon fill="none" stroke="#000000" points="341,-87.5 341,-117.5 916,-117.5 916,-87.5 341,-87.5"/>
<text text-anchor="start" x="348" y="-98.9" font-family="Arial" font-size="14.00" fill="#000000">semester </text>
<text text-anchor="start" x="409.4502" y="-98.9" font-family="Arial" font-size="14.00" fill="#666666">[enum(&#39;first&#39;,&#39;second&#39;)]</text>
<polygon fill="none" stroke="#000000" points="341,-57.5 341,-87.5 916,-87.5 916,-57.5 341,-57.5"/>
<text text-anchor="start" x="348" y="-68.9" font-family="Arial" font-size="14.00" fill="#000000">year </text>
<text text-anchor="start" x="379.1164" y="-68.9" font-family="Arial" font-size="14.00" fill="#666666">[int unsigned]</text>
</g>
<!-- course_schedules&#45;&gt;schedules -->
<g id="edge2" class="edge">
<title>course_schedules:schedule_id&#45;&gt;schedules:id</title>
<path fill="none" stroke="#000000" d="M526.9713,-394.8589C540.4014,-385.739 530.6283,-355.1381 517,-337 468.0791,-271.8906 389.9209,-351.1094 341,-286 316.0376,-252.7773 299.4444,-192.5 341,-192.5"/>
<polygon fill="#000000" stroke="#000000" points="526.6667,-394.9395 515.8478,-393.15 521.8333,-396.2198 517,-397.5 517,-397.5 517,-397.5 521.8333,-396.2198 518.1522,-401.85 526.6667,-394.9395 526.6667,-394.9395"/>
<text text-anchor="start" x="524.378" y="-407.5" font-family="Arial" font-size="10.00" fill="#000000">FOREIGN KEY (schedule_id) REFERENCES schedules (id)</text>
</g>
</g>
</svg>
