<?xml version="1.0" encoding="UTF-8" standalone="no"?>
<!DOCTYPE svg PUBLIC "-//W3C//DTD SVG 1.1//EN"
 "http://www.w3.org/Graphics/SVG/1.1/DTD/svg11.dtd">
<!-- Generated by graphviz version 2.40.1 (20161225.0304)
 -->
<!-- Title: courses Pages: 1 -->
<svg width="2099pt" height="899pt"
 viewBox="0.00 0.00 2099.00 899.00" xmlns="http://www.w3.org/2000/svg" xmlns:xlink="http://www.w3.org/1999/xlink">
<g id="graph0" class="graph" transform="scale(1 1) rotate(0) translate(4 895)">
<title>courses</title>
<polygon fill="#ffffff" stroke="transparent" points="-4,4 -4,-895 2095,-895 2095,4 -4,4"/>
<!-- courses -->
<g id="node1" class="node">
<title>courses</title>
<polygon fill="#efefef" stroke="transparent" points="762,-225.5 762,-260.5 936,-260.5 936,-225.5 762,-225.5"/>
<polygon fill="none" stroke="#000000" points="762,-225.5 762,-260.5 936,-260.5 936,-225.5 762,-225.5"/>
<text text-anchor="start" x="768.8677" y="-238.3" font-family="Arial Bold" font-size="18.00" fill="#000000">courses</text>
<text text-anchor="start" x="831.8785" y="-238.3" font-family="Arial" font-size="14.00" fill="#000000"> </text>
<text text-anchor="start" x="835.7691" y="-238.3" font-family="Arial" font-size="14.00" fill="#666666">[BASE TABLE]</text>
<polygon fill="none" stroke="#000000" points="762,-195.5 762,-225.5 936,-225.5 936,-195.5 762,-195.5"/>
<text text-anchor="start" x="769" y="-206.9" font-family="Arial" font-size="14.00" fill="#000000">id </text>
<text text-anchor="start" x="783.7798" y="-206.9" font-family="Arial" font-size="14.00" fill="#666666">[char(36)]</text>
<polygon fill="none" stroke="#000000" points="762,-165.5 762,-195.5 936,-195.5 936,-165.5 762,-165.5"/>
<text text-anchor="start" x="769" y="-176.9" font-family="Arial" font-size="14.00" fill="#000000">name </text>
<text text-anchor="start" x="807.899" y="-176.9" font-family="Arial" font-size="14.00" fill="#666666">[varchar(255)]</text>
<polygon fill="none" stroke="#000000" points="762,-135.5 762,-165.5 936,-165.5 936,-135.5 762,-135.5"/>
<text text-anchor="start" x="769" y="-146.9" font-family="Arial" font-size="14.00" fill="#000000">description </text>
<text text-anchor="start" x="840.568" y="-146.9" font-family="Arial" font-size="14.00" fill="#666666">[text]</text>
<polygon fill="none" stroke="#000000" points="762,-105.5 762,-135.5 936,-135.5 936,-105.5 762,-105.5"/>
<text text-anchor="start" x="769" y="-116.9" font-family="Arial" font-size="14.00" fill="#000000">credit </text>
<text text-anchor="start" x="807.1136" y="-116.9" font-family="Arial" font-size="14.00" fill="#666666">[tinyint unsigned]</text>
<polygon fill="none" stroke="#000000" points="762,-75.5 762,-105.5 936,-105.5 936,-75.5 762,-75.5"/>
<text text-anchor="start" x="769" y="-86.9" font-family="Arial" font-size="14.00" fill="#000000">classroom </text>
<text text-anchor="start" x="836.6662" y="-86.9" font-family="Arial" font-size="14.00" fill="#666666">[varchar(255)]</text>
<polygon fill="none" stroke="#000000" points="762,-45.5 762,-75.5 936,-75.5 936,-45.5 762,-45.5"/>
<text text-anchor="start" x="769" y="-56.9" font-family="Arial" font-size="14.00" fill="#000000">capacity </text>
<text text-anchor="start" x="824.2356" y="-56.9" font-family="Arial" font-size="14.00" fill="#666666">[int unsigned]</text>
<polygon fill="none" stroke="#000000" stroke-width="3" points="760.5,-44.5 760.5,-262.5 937.5,-262.5 937.5,-44.5 760.5,-44.5"/>
</g>
<!-- announcements -->
<g id="node2" class="node">
<title>announcements</title>
<polygon fill="#efefef" stroke="transparent" points="366,-535.5 366,-570.5 605,-570.5 605,-535.5 366,-535.5"/>
<polygon fill="none" stroke="#000000" points="366,-535.5 366,-570.5 605,-570.5 605,-535.5 366,-535.5"/>
<text text-anchor="start" x="372.848" y="-548.3" font-family="Arial Bold" font-size="18.00" fill="#000000">announcements</text>
<text text-anchor="start" x="500.8982" y="-548.3" font-family="Arial" font-size="14.00" fill="#000000"> </text>
<text text-anchor="start" x="504.7888" y="-548.3" font-family="Arial" font-size="14.00" fill="#666666">[BASE TABLE]</text>
<polygon fill="none" stroke="#000000" points="366,-505.5 366,-535.5 605,-535.5 605,-505.5 366,-505.5"/>
<text text-anchor="start" x="373" y="-516.9" font-family="Arial" font-size="14.00" fill="#000000">id </text>
<text text-anchor="start" x="387.7798" y="-516.9" font-family="Arial" font-size="14.00" fill="#666666">[char(36)]</text>
<polygon fill="none" stroke="#000000" points="366,-475.5 366,-505.5 605,-505.5 605,-475.5 366,-475.5"/>
<text text-anchor="start" x="373" y="-486.9" font-family="Arial" font-size="14.00" fill="#000000">course_id </text>
<text text-anchor="start" x="437.5708" y="-486.9" font-family="Arial" font-size="14.00" fill="#666666">[char(36)]</text>
<polygon fill="none" stroke="#000000" points="366,-445.5 366,-475.5 605,-475.5 605,-445.5 366,-445.5"/>
<text text-anchor="start" x="373" y="-456.9" font-family="Arial" font-size="14.00" fill="#000000">title </text>
<text text-anchor="start" x="398.6676" y="-456.9" font-family="Arial" font-size="14.00" fill="#666666">[varchar(255)]</text>
<polygon fill="none" stroke="#000000" points="366,-415.5 366,-445.5 605,-445.5 605,-415.5 366,-415.5"/>
<text text-anchor="start" x="373" y="-426.9" font-family="Arial" font-size="14.00" fill="#000000">message </text>
<text text-anchor="start" x="433.6816" y="-426.9" font-family="Arial" font-size="14.00" fill="#666666">[text]</text>
<polygon fill="none" stroke="#000000" points="366,-385.5 366,-415.5 605,-415.5 605,-385.5 366,-385.5"/>
<text text-anchor="start" x="373" y="-396.9" font-family="Arial" font-size="14.00" fill="#000000">created_at </text>
<text text-anchor="start" x="443.028" y="-396.9" font-family="Arial" font-size="14.00" fill="#666666">[datetime(6)]</text>
</g>
<!-- announcements&#45;&gt;courses -->
<g id="edge1" class="edge">
<title>announcements:course_id&#45;&gt;courses:id</title>
<path fill="none" stroke="#000000" d="M615.0205,-489.7936C669.3551,-481.4328 625.171,-400.6404 657,-343 693.3213,-277.2243 686.8623,-210.5 762,-210.5"/>
<polygon fill="#000000" stroke="#000000" points="614.9752,-489.7967 604.6835,-486.0111 609.9876,-490.1483 605,-490.5 605,-490.5 605,-490.5 609.9876,-490.1483 605.3165,-494.9889 614.9752,-489.7967 614.9752,-489.7967"/>
<text text-anchor="start" x="612.386" y="-500.5" font-family="Arial" font-size="10.00" fill="#000000">FOREIGN KEY (course_id) REFERENCES courses (id)</text>
</g>
<!-- unread_announcements -->
<g id="node3" class="node">
<title>unread_announcements</title>
<polygon fill="#efefef" stroke="transparent" points="333,-812.5 333,-847.5 638,-847.5 638,-812.5 333,-812.5"/>
<polygon fill="none" stroke="#000000" points="333,-812.5 333,-847.5 638,-847.5 638,-812.5 333,-812.5"/>
<text text-anchor="start" x="339.8333" y="-825.3" font-family="Arial Bold" font-size="18.00" fill="#000000">unread_announcements</text>
<text text-anchor="start" x="533.9129" y="-825.3" font-family="Arial" font-size="14.00" fill="#000000"> </text>
<text text-anchor="start" x="537.8035" y="-825.3" font-family="Arial" font-size="14.00" fill="#666666">[BASE TABLE]</text>
<polygon fill="none" stroke="#000000" points="333,-782.5 333,-812.5 638,-812.5 638,-782.5 333,-782.5"/>
<text text-anchor="start" x="340" y="-793.9" font-family="Arial" font-size="14.00" fill="#000000">announcement_id </text>
<text text-anchor="start" x="455.157" y="-793.9" font-family="Arial" font-size="14.00" fill="#666666">[char(36)]</text>
<polygon fill="none" stroke="#000000" points="333,-752.5 333,-782.5 638,-782.5 638,-752.5 333,-752.5"/>
<text text-anchor="start" x="340" y="-763.9" font-family="Arial" font-size="14.00" fill="#000000">user_id </text>
<text text-anchor="start" x="389.7882" y="-763.9" font-family="Arial" font-size="14.00" fill="#666666">[char(36)]</text>
<polygon fill="none" stroke="#000000" points="333,-722.5 333,-752.5 638,-752.5 638,-722.5 333,-722.5"/>
<text text-anchor="start" x="340" y="-733.9" font-family="Arial" font-size="14.00" fill="#000000">created_at </text>
<text text-anchor="start" x="410.028" y="-733.9" font-family="Arial" font-size="14.00" fill="#666666">[datetime(6)]</text>
<polygon fill="none" stroke="#000000" points="333,-692.5 333,-722.5 638,-722.5 638,-692.5 333,-692.5"/>
<text text-anchor="start" x="340" y="-703.9" font-family="Arial" font-size="14.00" fill="#000000">delete_at </text>
<text text-anchor="start" x="401.474" y="-703.9" font-family="Arial" font-size="14.00" fill="#666666">[datetime(6)]</text>
</g>
<!-- unread_announcements&#45;&gt;announcements -->
<g id="edge2" class="edge">
<title>unread_announcements:announcement_id&#45;&gt;announcements:id</title>
<path fill="none" stroke="#000000" d="M322.8426,-796.8461C210.9604,-782.0327 245.5295,-520.5 366,-520.5"/>
<polygon fill="#000000" stroke="#000000" points="323.0207,-796.8575 332.7109,-801.9907 328.0103,-797.1787 333,-797.5 333,-797.5 333,-797.5 328.0103,-797.1787 333.2891,-793.0093 323.0207,-796.8575 323.0207,-796.8575"/>
<text text-anchor="start" x="7.253" y="-807.5" font-family="Arial" font-size="10.00" fill="#000000">FOREIGN KEY (announcement_id) REFERENCES announcements (id)</text>
</g>
<!-- course_requirements -->
<g id="node4" class="node">
<title>course_requirements</title>
<polygon fill="#efefef" stroke="transparent" points="709,-490.5 709,-525.5 989,-525.5 989,-490.5 709,-490.5"/>
<polygon fill="none" stroke="#000000" points="709,-490.5 709,-525.5 989,-525.5 989,-490.5 709,-490.5"/>
<text text-anchor="start" x="715.8595" y="-503.3" font-family="Arial Bold" font-size="18.00" fill="#000000">course_requirements</text>
<text text-anchor="start" x="884.8867" y="-503.3" font-family="Arial" font-size="14.00" fill="#000000"> </text>
<text text-anchor="start" x="888.7773" y="-503.3" font-family="Arial" font-size="14.00" fill="#666666">[BASE TABLE]</text>
<polygon fill="none" stroke="#000000" points="709,-460.5 709,-490.5 989,-490.5 989,-460.5 709,-460.5"/>
<text text-anchor="start" x="716" y="-471.9" font-family="Arial" font-size="14.00" fill="#000000">course_id </text>
<text text-anchor="start" x="780.5708" y="-471.9" font-family="Arial" font-size="14.00" fill="#666666">[char(36)]</text>
<polygon fill="none" stroke="#000000" points="709,-430.5 709,-460.5 989,-460.5 989,-430.5 709,-430.5"/>
<text text-anchor="start" x="716" y="-441.9" font-family="Arial" font-size="14.00" fill="#000000">required_course_id </text>
<text text-anchor="start" x="839.6942" y="-441.9" font-family="Arial" font-size="14.00" fill="#666666">[char(36)]</text>
</g>
<!-- course_requirements&#45;&gt;courses -->
<g id="edge3" class="edge">
<title>course_requirements:course_id&#45;&gt;courses:id</title>
<path fill="none" stroke="#000000" d="M995.6908,-467.8549C1008.4989,-424.4053 962.9779,-210.5 936,-210.5"/>
<polygon fill="#000000" stroke="#000000" points="995.5858,-467.9748 985.6137,-472.5364 992.2929,-471.7374 989,-475.5 989,-475.5 989,-475.5 992.2929,-471.7374 992.3863,-478.4636 995.5858,-467.9748 995.5858,-467.9748"/>
<text text-anchor="start" x="931.136" y="-459.5" font-family="Arial" font-size="10.00" fill="#000000">FOREIGN KEY (course_id) REFERENCES courses (id)</text>
</g>
<!-- course_requirements&#45;&gt;courses -->
<g id="edge4" class="edge">
<title>course_requirements:required_course_id&#45;&gt;courses:id</title>
<path fill="none" stroke="#000000" d="M849.54,-420.4805C855.9077,-363.9662 916.7888,-367.6294 936,-307 948.9551,-266.1145 978.8889,-210.5 936,-210.5"/>
<polygon fill="#000000" stroke="#000000" points="849.5383,-420.5145 844.5065,-430.2578 849.2691,-425.5072 849,-430.5 849,-430.5 849,-430.5 849.2691,-425.5072 853.4935,-430.7422 849.5383,-420.5145 849.5383,-420.5145"/>
<text text-anchor="start" x="780.5205" y="-414.5" font-family="Arial" font-size="10.00" fill="#000000">FOREIGN KEY (required_course_id) REFERENCES courses (id)</text>
</g>
<!-- course_schedules -->
<g id="node5" class="node">
<title>course_schedules</title>
<polygon fill="#efefef" stroke="transparent" points="1149,-490.5 1149,-525.5 1405,-525.5 1405,-490.5 1149,-490.5"/>
<polygon fill="none" stroke="#000000" points="1149,-490.5 1149,-525.5 1405,-525.5 1405,-490.5 1149,-490.5"/>
<text text-anchor="start" x="1155.852" y="-503.3" font-family="Arial Bold" font-size="18.00" fill="#000000">course_schedules</text>
<text text-anchor="start" x="1300.8942" y="-503.3" font-family="Arial" font-size="14.00" fill="#000000"> </text>
<text text-anchor="start" x="1304.7848" y="-503.3" font-family="Arial" font-size="14.00" fill="#666666">[BASE TABLE]</text>
<polygon fill="none" stroke="#000000" points="1149,-460.5 1149,-490.5 1405,-490.5 1405,-460.5 1149,-460.5"/>
<text text-anchor="start" x="1156" y="-471.9" font-family="Arial" font-size="14.00" fill="#000000">course_id </text>
<text text-anchor="start" x="1220.5708" y="-471.9" font-family="Arial" font-size="14.00" fill="#666666">[char(36)]</text>
<polygon fill="none" stroke="#000000" points="1149,-430.5 1149,-460.5 1405,-460.5 1405,-430.5 1149,-430.5"/>
<text text-anchor="start" x="1156" y="-441.9" font-family="Arial" font-size="14.00" fill="#000000">schedule_id </text>
<text text-anchor="start" x="1234.582" y="-441.9" font-family="Arial" font-size="14.00" fill="#666666">[char(36)]</text>
</g>
<!-- course_schedules&#45;&gt;courses -->
<g id="edge5" class="edge">
<title>course_schedules:course_id&#45;&gt;courses:id</title>
<path fill="none" stroke="#000000" d="M1138.9506,-474.9828C1075.0141,-468.0474 1093.4729,-392.9005 1041,-343 1021.4175,-324.3775 1010.0512,-327.1104 992,-307 958.8766,-270.098 985.5874,-210.5 936,-210.5"/>
<polygon fill="#000000" stroke="#000000" points="1139.0132,-474.9859 1148.7687,-479.9941 1144.0066,-475.243 1149,-475.5 1149,-475.5 1149,-475.5 1144.0066,-475.243 1149.2313,-471.0059 1139.0132,-474.9859 1139.0132,-474.9859"/>
<text text-anchor="start" x="895.386" y="-485.5" font-family="Arial" font-size="10.00" fill="#000000">FOREIGN KEY (course_id) REFERENCES courses (id)</text>
</g>
<!-- schedules -->
<g id="node6" class="node">
<title>schedules</title>
<polygon fill="#efefef" stroke="transparent" points="1044,-210.5 1044,-245.5 1619,-245.5 1619,-210.5 1044,-210.5"/>
<polygon fill="none" stroke="#000000" points="1044,-210.5 1044,-245.5 1619,-245.5 1619,-210.5 1044,-210.5"/>
<text text-anchor="start" x="1242.3605" y="-223.3" font-family="Arial Bold" font-size="18.00" fill="#000000">schedules</text>
<text text-anchor="start" x="1323.3857" y="-223.3" font-family="Arial" font-size="14.00" fill="#000000"> </text>
<text text-anchor="start" x="1327.2763" y="-223.3" font-family="Arial" font-size="14.00" fill="#666666">[BASE TABLE]</text>
<polygon fill="none" stroke="#000000" points="1044,-180.5 1044,-210.5 1619,-210.5 1619,-180.5 1044,-180.5"/>
<text text-anchor="start" x="1051" y="-191.9" font-family="Arial" font-size="14.00" fill="#000000">id </text>
<text text-anchor="start" x="1065.7798" y="-191.9" font-family="Arial" font-size="14.00" fill="#666666">[char(36)]</text>
<polygon fill="none" stroke="#000000" points="1044,-150.5 1044,-180.5 1619,-180.5 1619,-150.5 1044,-150.5"/>
<text text-anchor="start" x="1051" y="-161.9" font-family="Arial" font-size="14.00" fill="#000000">period </text>
<text text-anchor="start" x="1093.7882" y="-161.9" font-family="Arial" font-size="14.00" fill="#666666">[tinyint unsigned]</text>
<polygon fill="none" stroke="#000000" points="1044,-120.5 1044,-150.5 1619,-150.5 1619,-120.5 1044,-120.5"/>
<text text-anchor="start" x="1050.7762" y="-131.9" font-family="Arial" font-size="14.00" fill="#000000">day_of_week </text>
<text text-anchor="start" x="1137.1422" y="-131.9" font-family="Arial" font-size="14.00" fill="#666666">[enum(&#39;sunday&#39;,&#39;monday&#39;,&#39;tuesday&#39;,&#39;wednesday&#39;,&#39;thursday&#39;,&#39;friday&#39;,&#39;saturday&#39;)]</text>
<polygon fill="none" stroke="#000000" points="1044,-90.5 1044,-120.5 1619,-120.5 1619,-90.5 1044,-90.5"/>
<text text-anchor="start" x="1051" y="-101.9" font-family="Arial" font-size="14.00" fill="#000000">semester </text>
<text text-anchor="start" x="1112.4502" y="-101.9" font-family="Arial" font-size="14.00" fill="#666666">[enum(&#39;first&#39;,&#39;second&#39;)]</text>
<polygon fill="none" stroke="#000000" points="1044,-60.5 1044,-90.5 1619,-90.5 1619,-60.5 1044,-60.5"/>
<text text-anchor="start" x="1051" y="-71.9" font-family="Arial" font-size="14.00" fill="#000000">year </text>
<text text-anchor="start" x="1082.1164" y="-71.9" font-family="Arial" font-size="14.00" fill="#666666">[smallint unsigned]</text>
</g>
<!-- course_schedules&#45;&gt;schedules -->
<g id="edge6" class="edge">
<title>course_schedules:schedule_id&#45;&gt;schedules:id</title>
<path fill="none" stroke="#000000" d="M1276.5603,-420.373C1266.9268,-314.1751 1101.6707,-391.4957 1044,-289 1023.6224,-252.7837 1002.4444,-195.5 1044,-195.5"/>
<polygon fill="#000000" stroke="#000000" points="1276.5661,-420.5094 1272.5042,-430.6953 1276.783,-425.5047 1277,-430.5 1277,-430.5 1277,-430.5 1276.783,-425.5047 1281.4958,-430.3047 1276.5661,-420.5094 1276.5661,-420.5094"/>
<text text-anchor="start" x="1284.378" y="-440.5" font-family="Arial" font-size="10.00" fill="#000000">FOREIGN KEY (schedule_id) REFERENCES schedules (id)</text>
</g>
<!-- registrations -->
<g id="node7" class="node">
<title>registrations</title>
<polygon fill="#efefef" stroke="transparent" points="1642,-520.5 1642,-555.5 1851,-555.5 1851,-520.5 1642,-520.5"/>
<polygon fill="none" stroke="#000000" points="1642,-520.5 1642,-555.5 1851,-555.5 1851,-520.5 1642,-520.5"/>
<text text-anchor="start" x="1648.869" y="-533.3" font-family="Arial Bold" font-size="18.00" fill="#000000">registrations</text>
<text text-anchor="start" x="1746.8772" y="-533.3" font-family="Arial" font-size="14.00" fill="#000000"> </text>
<text text-anchor="start" x="1750.7678" y="-533.3" font-family="Arial" font-size="14.00" fill="#666666">[BASE TABLE]</text>
<polygon fill="none" stroke="#000000" points="1642,-490.5 1642,-520.5 1851,-520.5 1851,-490.5 1642,-490.5"/>
<text text-anchor="start" x="1649" y="-501.9" font-family="Arial" font-size="14.00" fill="#000000">course_id </text>
<text text-anchor="start" x="1713.5708" y="-501.9" font-family="Arial" font-size="14.00" fill="#666666">[char(36)]</text>
<polygon fill="none" stroke="#000000" points="1642,-460.5 1642,-490.5 1851,-490.5 1851,-460.5 1642,-460.5"/>
<text text-anchor="start" x="1649" y="-471.9" font-family="Arial" font-size="14.00" fill="#000000">user_id </text>
<text text-anchor="start" x="1698.7882" y="-471.9" font-family="Arial" font-size="14.00" fill="#666666">[char(36)]</text>
<polygon fill="none" stroke="#000000" points="1642,-430.5 1642,-460.5 1851,-460.5 1851,-430.5 1642,-430.5"/>
<text text-anchor="start" x="1649" y="-441.9" font-family="Arial" font-size="14.00" fill="#000000">created_at </text>
<text text-anchor="start" x="1719.028" y="-441.9" font-family="Arial" font-size="14.00" fill="#666666">[datetime(6)]</text>
<polygon fill="none" stroke="#000000" points="1642,-400.5 1642,-430.5 1851,-430.5 1851,-400.5 1642,-400.5"/>
<text text-anchor="start" x="1649" y="-411.9" font-family="Arial" font-size="14.00" fill="#000000">delete_at </text>
<text text-anchor="start" x="1710.474" y="-411.9" font-family="Arial" font-size="14.00" fill="#666666">[datetime(6)]</text>
</g>
<!-- registrations&#45;&gt;courses -->
<g id="edge7" class="edge">
<title>registrations:course_id&#45;&gt;courses:id</title>
<path fill="none" stroke="#000000" d="M1631.8306,-505.1328C1534.0609,-497.8471 1554.5912,-384.1462 1457,-343 1361.4987,-302.7349 1079.7498,-362.152 992,-307 950.0164,-280.6127 985.5874,-210.5 936,-210.5"/>
<polygon fill="#000000" stroke="#000000" points="1632.0065,-505.139 1641.8376,-509.9971 1637.0033,-505.3195 1642,-505.5 1642,-505.5 1642,-505.5 1637.0033,-505.3195 1642.1624,-501.0029 1632.0065,-505.139 1632.0065,-505.139"/>
<text text-anchor="start" x="1388.386" y="-515.5" font-family="Arial" font-size="10.00" fill="#000000">FOREIGN KEY (course_id) REFERENCES courses (id)</text>
</g>
<!-- users -->
<g id="node8" class="node">
<title>users</title>
<polygon fill="#efefef" stroke="transparent" points="1723,-210.5 1723,-245.5 1925,-245.5 1925,-210.5 1723,-210.5"/>
<polygon fill="none" stroke="#000000" points="1723,-210.5 1723,-245.5 1925,-245.5 1925,-210.5 1723,-210.5"/>
<text text-anchor="start" x="1753.3708" y="-223.3" font-family="Arial Bold" font-size="18.00" fill="#000000">users</text>
<text text-anchor="start" x="1797.3754" y="-223.3" font-family="Arial" font-size="14.00" fill="#000000"> </text>
<text text-anchor="start" x="1801.266" y="-223.3" font-family="Arial" font-size="14.00" fill="#666666">[BASE TABLE]</text>
<polygon fill="none" stroke="#000000" points="1723,-180.5 1723,-210.5 1925,-210.5 1925,-180.5 1723,-180.5"/>
<text text-anchor="start" x="1730" y="-191.9" font-family="Arial" font-size="14.00" fill="#000000">id </text>
<text text-anchor="start" x="1744.7798" y="-191.9" font-family="Arial" font-size="14.00" fill="#666666">[char(36)]</text>
<polygon fill="none" stroke="#000000" points="1723,-150.5 1723,-180.5 1925,-180.5 1925,-150.5 1723,-150.5"/>
<text text-anchor="start" x="1730" y="-161.9" font-family="Arial" font-size="14.00" fill="#000000">name </text>
<text text-anchor="start" x="1768.899" y="-161.9" font-family="Arial" font-size="14.00" fill="#666666">[varchar(255)]</text>
<polygon fill="none" stroke="#000000" points="1723,-120.5 1723,-150.5 1925,-150.5 1925,-120.5 1723,-120.5"/>
<text text-anchor="start" x="1730" y="-131.9" font-family="Arial" font-size="14.00" fill="#000000">mail_address </text>
<text text-anchor="start" x="1817.1206" y="-131.9" font-family="Arial" font-size="14.00" fill="#666666">[varchar(255)]</text>
<polygon fill="none" stroke="#000000" points="1723,-90.5 1723,-120.5 1925,-120.5 1925,-90.5 1723,-90.5"/>
<text text-anchor="start" x="1729.8668" y="-101.9" font-family="Arial" font-size="14.00" fill="#000000">hashed_password </text>
<text text-anchor="start" x="1847.3506" y="-101.9" font-family="Arial" font-size="14.00" fill="#666666">[binary(60)]</text>
<polygon fill="none" stroke="#000000" points="1723,-60.5 1723,-90.5 1925,-90.5 1925,-60.5 1723,-60.5"/>
<text text-anchor="start" x="1730" y="-71.9" font-family="Arial" font-size="14.00" fill="#000000">type </text>
<text text-anchor="start" x="1760.3464" y="-71.9" font-family="Arial" font-size="14.00" fill="#666666">[enum(&#39;student&#39;,&#39;faculty&#39;)]</text>
</g>
<!-- registrations&#45;&gt;users -->
<g id="edge8" class="edge">
<title>registrations:user_id&#45;&gt;users:id</title>
<path fill="none" stroke="#000000" d="M1861.3752,-474.3404C1899.4367,-464.8678 1875.7817,-399.5119 1851,-358 1817.8725,-302.508 1756.1275,-344.492 1723,-289 1701.6992,-253.3189 1681.4444,-195.5 1723,-195.5"/>
<polygon fill="#000000" stroke="#000000" points="1860.9381,-474.3891 1850.5001,-471.0278 1855.9691,-474.9446 1851,-475.5 1851,-475.5 1851,-475.5 1855.9691,-474.9446 1851.4999,-479.9722 1860.9381,-474.3891 1860.9381,-474.3891"/>
<text text-anchor="start" x="1857.945" y="-485.5" font-family="Arial" font-size="10.00" fill="#000000">FOREIGN KEY (user_id) REFERENCES users (id)</text>
</g>
</g>
</svg>
