<?xml version="1.0" encoding="UTF-8" standalone="no"?>
<!DOCTYPE svg PUBLIC "-//W3C//DTD SVG 1.1//EN"
 "http://www.w3.org/Graphics/SVG/1.1/DTD/svg11.dtd">
<!-- Generated by graphviz version 2.40.1 (20161225.0304)
 -->
<!-- Title: course_requirements Pages: 1 -->
<svg width="2011pt" height="616pt"
 viewBox="0.00 0.00 2011.00 616.00" xmlns="http://www.w3.org/2000/svg" xmlns:xlink="http://www.w3.org/1999/xlink">
<g id="graph0" class="graph" transform="scale(1 1) rotate(0) translate(4 612)">
<title>course_requirements</title>
<polygon fill="#ffffff" stroke="transparent" points="-4,4 -4,-612 2007,-612 2007,4 -4,4"/>
<!-- course_requirements -->
<g id="node1" class="node">
<title>course_requirements</title>
<polygon fill="#efefef" stroke="transparent" points="46,-484.5 46,-519.5 326,-519.5 326,-484.5 46,-484.5"/>
<polygon fill="none" stroke="#000000" points="46,-484.5 46,-519.5 326,-519.5 326,-484.5 46,-484.5"/>
<text text-anchor="start" x="52.8595" y="-497.3" font-family="Arial Bold" font-size="18.00" fill="#000000">course_requirements</text>
<text text-anchor="start" x="221.8867" y="-497.3" font-family="Arial" font-size="14.00" fill="#000000"> </text>
<text text-anchor="start" x="225.7773" y="-497.3" font-family="Arial" font-size="14.00" fill="#666666">[BASE TABLE]</text>
<polygon fill="none" stroke="#000000" points="46,-454.5 46,-484.5 326,-484.5 326,-454.5 46,-454.5"/>
<text text-anchor="start" x="53" y="-465.9" font-family="Arial" font-size="14.00" fill="#000000">course_id </text>
<text text-anchor="start" x="117.5708" y="-465.9" font-family="Arial" font-size="14.00" fill="#666666">[char(36)]</text>
<polygon fill="none" stroke="#000000" points="46,-424.5 46,-454.5 326,-454.5 326,-424.5 46,-424.5"/>
<text text-anchor="start" x="53" y="-435.9" font-family="Arial" font-size="14.00" fill="#000000">required_course_id </text>
<text text-anchor="start" x="176.6942" y="-435.9" font-family="Arial" font-size="14.00" fill="#666666">[char(36)]</text>
<polygon fill="none" stroke="#000000" stroke-width="3" points="44.5,-423.5 44.5,-521.5 327.5,-521.5 327.5,-423.5 44.5,-423.5"/>
</g>
<!-- courses -->
<g id="node2" class="node">
<title>courses</title>
<polygon fill="#efefef" stroke="transparent" points="805,-222.5 805,-257.5 979,-257.5 979,-222.5 805,-222.5"/>
<polygon fill="none" stroke="#000000" points="805,-222.5 805,-257.5 979,-257.5 979,-222.5 805,-222.5"/>
<text text-anchor="start" x="811.8677" y="-235.3" font-family="Arial Bold" font-size="18.00" fill="#000000">courses</text>
<text text-anchor="start" x="874.8785" y="-235.3" font-family="Arial" font-size="14.00" fill="#000000"> </text>
<text text-anchor="start" x="878.7691" y="-235.3" font-family="Arial" font-size="14.00" fill="#666666">[BASE TABLE]</text>
<polygon fill="none" stroke="#000000" points="805,-192.5 805,-222.5 979,-222.5 979,-192.5 805,-192.5"/>
<text text-anchor="start" x="812" y="-203.9" font-family="Arial" font-size="14.00" fill="#000000">id </text>
<text text-anchor="start" x="826.7798" y="-203.9" font-family="Arial" font-size="14.00" fill="#666666">[char(36)]</text>
<polygon fill="none" stroke="#000000" points="805,-162.5 805,-192.5 979,-192.5 979,-162.5 805,-162.5"/>
<text text-anchor="start" x="812" y="-173.9" font-family="Arial" font-size="14.00" fill="#000000">name </text>
<text text-anchor="start" x="850.899" y="-173.9" font-family="Arial" font-size="14.00" fill="#666666">[varchar(255)]</text>
<polygon fill="none" stroke="#000000" points="805,-132.5 805,-162.5 979,-162.5 979,-132.5 805,-132.5"/>
<text text-anchor="start" x="812" y="-143.9" font-family="Arial" font-size="14.00" fill="#000000">description </text>
<text text-anchor="start" x="883.568" y="-143.9" font-family="Arial" font-size="14.00" fill="#666666">[text]</text>
<polygon fill="none" stroke="#000000" points="805,-102.5 805,-132.5 979,-132.5 979,-102.5 805,-102.5"/>
<text text-anchor="start" x="812" y="-113.9" font-family="Arial" font-size="14.00" fill="#000000">credit </text>
<text text-anchor="start" x="850.1136" y="-113.9" font-family="Arial" font-size="14.00" fill="#666666">[tinyint unsigned]</text>
<polygon fill="none" stroke="#000000" points="805,-72.5 805,-102.5 979,-102.5 979,-72.5 805,-72.5"/>
<text text-anchor="start" x="812" y="-83.9" font-family="Arial" font-size="14.00" fill="#000000">classroom </text>
<text text-anchor="start" x="879.6662" y="-83.9" font-family="Arial" font-size="14.00" fill="#666666">[varchar(255)]</text>
<polygon fill="none" stroke="#000000" points="805,-42.5 805,-72.5 979,-72.5 979,-42.5 805,-42.5"/>
<text text-anchor="start" x="812" y="-53.9" font-family="Arial" font-size="14.00" fill="#000000">capacity </text>
<text text-anchor="start" x="867.2356" y="-53.9" font-family="Arial" font-size="14.00" fill="#666666">[int unsigned]</text>
</g>
<!-- course_requirements&#45;&gt;courses -->
<g id="edge1" class="edge">
<title>course_requirements:course_id&#45;&gt;courses:id</title>
<path fill="none" stroke="#000000" d="M336.0195,-468.604C383.5549,-459.1544 336.5478,-377.3357 381,-337 453.9597,-270.7967 706.481,-207.5 805,-207.5"/>
<polygon fill="#000000" stroke="#000000" points="335.9603,-468.6093 325.5992,-465.0179 330.9801,-469.0546 326,-469.5 326,-469.5 326,-469.5 330.9801,-469.0546 326.4008,-473.9821 335.9603,-468.6093 335.9603,-468.6093"/>
<text text-anchor="start" x="202.886" y="-453.5" font-family="Arial" font-size="10.00" fill="#000000">FOREIGN KEY (course_id) REFERENCES courses (id)</text>
</g>
<!-- course_requirements&#45;&gt;courses -->
<g id="edge4" class="edge">
<title>course_requirements:required_course_id&#45;&gt;courses:id</title>
<path fill="none" stroke="#000000" d="M336.1185,-438.3918C372.68,-429.3577 344.0062,-367.369 381,-337 533.2943,-211.9784 607.9621,-207.5 805,-207.5"/>
<polygon fill="#000000" stroke="#000000" points="335.9406,-438.4112 325.5101,-435.0267 330.9703,-438.9556 326,-439.5 326,-439.5 326,-439.5 330.9703,-438.9556 326.4899,-443.9733 335.9406,-438.4112 335.9406,-438.4112"/>
<text text-anchor="start" x="181.7705" y="-423.5" font-family="Arial" font-size="10.00" fill="#000000">FOREIGN KEY (required_course_id) REFERENCES courses (id)</text>
</g>
<!-- announcements -->
<g id="node3" class="node">
<title>announcements</title>
<polygon fill="#efefef" stroke="transparent" points="434,-529.5 434,-564.5 673,-564.5 673,-529.5 434,-529.5"/>
<polygon fill="none" stroke="#000000" points="434,-529.5 434,-564.5 673,-564.5 673,-529.5 434,-529.5"/>
<text text-anchor="start" x="440.848" y="-542.3" font-family="Arial Bold" font-size="18.00" fill="#000000">announcements</text>
<text text-anchor="start" x="568.8982" y="-542.3" font-family="Arial" font-size="14.00" fill="#000000"> </text>
<text text-anchor="start" x="572.7888" y="-542.3" font-family="Arial" font-size="14.00" fill="#666666">[BASE TABLE]</text>
<polygon fill="none" stroke="#000000" points="434,-499.5 434,-529.5 673,-529.5 673,-499.5 434,-499.5"/>
<text text-anchor="start" x="441" y="-510.9" font-family="Arial" font-size="14.00" fill="#000000">id </text>
<text text-anchor="start" x="455.7798" y="-510.9" font-family="Arial" font-size="14.00" fill="#666666">[char(36)]</text>
<polygon fill="none" stroke="#000000" points="434,-469.5 434,-499.5 673,-499.5 673,-469.5 434,-469.5"/>
<text text-anchor="start" x="441" y="-480.9" font-family="Arial" font-size="14.00" fill="#000000">course_id </text>
<text text-anchor="start" x="505.5708" y="-480.9" font-family="Arial" font-size="14.00" fill="#666666">[char(36)]</text>
<polygon fill="none" stroke="#000000" points="434,-439.5 434,-469.5 673,-469.5 673,-439.5 434,-439.5"/>
<text text-anchor="start" x="441" y="-450.9" font-family="Arial" font-size="14.00" fill="#000000">title </text>
<text text-anchor="start" x="466.6676" y="-450.9" font-family="Arial" font-size="14.00" fill="#666666">[varchar(255)]</text>
<polygon fill="none" stroke="#000000" points="434,-409.5 434,-439.5 673,-439.5 673,-409.5 434,-409.5"/>
<text text-anchor="start" x="441" y="-420.9" font-family="Arial" font-size="14.00" fill="#000000">message </text>
<text text-anchor="start" x="501.6816" y="-420.9" font-family="Arial" font-size="14.00" fill="#666666">[text]</text>
<polygon fill="none" stroke="#000000" points="434,-379.5 434,-409.5 673,-409.5 673,-379.5 434,-379.5"/>
<text text-anchor="start" x="441" y="-390.9" font-family="Arial" font-size="14.00" fill="#000000">created_at </text>
<text text-anchor="start" x="511.028" y="-390.9" font-family="Arial" font-size="14.00" fill="#666666">[datetime(6)]</text>
</g>
<!-- announcements&#45;&gt;courses -->
<g id="edge2" class="edge">
<title>announcements:course_id&#45;&gt;courses:id</title>
<path fill="none" stroke="#000000" d="M683.049,-483.8083C737.7154,-475.6183 696.5879,-396.3991 725,-337 754.1921,-275.97 737.3477,-207.5 805,-207.5"/>
<polygon fill="#000000" stroke="#000000" points="682.9764,-483.8132 672.6909,-480.0106 677.9882,-484.1566 673,-484.5 673,-484.5 673,-484.5 677.9882,-484.1566 673.3091,-488.9894 682.9764,-483.8132 682.9764,-483.8132"/>
<text text-anchor="start" x="680.386" y="-494.5" font-family="Arial" font-size="10.00" fill="#000000">FOREIGN KEY (course_id) REFERENCES courses (id)</text>
</g>
<!-- classes -->
<g id="node4" class="node">
<title>classes</title>
<polygon fill="#efefef" stroke="transparent" points="777,-529.5 777,-564.5 1007,-564.5 1007,-529.5 777,-529.5"/>
<polygon fill="none" stroke="#000000" points="777,-529.5 777,-564.5 1007,-564.5 1007,-529.5 777,-529.5"/>
<text text-anchor="start" x="813.3698" y="-542.3" font-family="Arial Bold" font-size="18.00" fill="#000000">classes</text>
<text text-anchor="start" x="873.3764" y="-542.3" font-family="Arial" font-size="14.00" fill="#000000"> </text>
<text text-anchor="start" x="877.267" y="-542.3" font-family="Arial" font-size="14.00" fill="#666666">[BASE TABLE]</text>
<polygon fill="none" stroke="#000000" points="777,-499.5 777,-529.5 1007,-529.5 1007,-499.5 777,-499.5"/>
<text text-anchor="start" x="784" y="-510.9" font-family="Arial" font-size="14.00" fill="#000000">id </text>
<text text-anchor="start" x="798.7798" y="-510.9" font-family="Arial" font-size="14.00" fill="#666666">[char(36)]</text>
<polygon fill="none" stroke="#000000" points="777,-469.5 777,-499.5 1007,-499.5 1007,-469.5 777,-469.5"/>
<text text-anchor="start" x="784" y="-480.9" font-family="Arial" font-size="14.00" fill="#000000">course_id </text>
<text text-anchor="start" x="848.5708" y="-480.9" font-family="Arial" font-size="14.00" fill="#666666">[char(36)]</text>
<polygon fill="none" stroke="#000000" points="777,-439.5 777,-469.5 1007,-469.5 1007,-439.5 777,-439.5"/>
<text text-anchor="start" x="784" y="-450.9" font-family="Arial" font-size="14.00" fill="#000000">title </text>
<text text-anchor="start" x="809.6676" y="-450.9" font-family="Arial" font-size="14.00" fill="#666666">[varchar(255)]</text>
<polygon fill="none" stroke="#000000" points="777,-409.5 777,-439.5 1007,-439.5 1007,-409.5 777,-409.5"/>
<text text-anchor="start" x="784" y="-420.9" font-family="Arial" font-size="14.00" fill="#000000">description </text>
<text text-anchor="start" x="855.568" y="-420.9" font-family="Arial" font-size="14.00" fill="#666666">[text]</text>
<polygon fill="none" stroke="#000000" points="777,-379.5 777,-409.5 1007,-409.5 1007,-379.5 777,-379.5"/>
<text text-anchor="start" x="783.843" y="-390.9" font-family="Arial" font-size="14.00" fill="#000000">attendance_code </text>
<text text-anchor="start" x="895.1234" y="-390.9" font-family="Arial" font-size="14.00" fill="#666666">[tinyint unsigned]</text>
</g>
<!-- classes&#45;&gt;courses -->
<g id="edge3" class="edge">
<title>classes:course_id&#45;&gt;courses:id</title>
<path fill="none" stroke="#000000" d="M1016.9611,-481.7584C1065.4717,-452.9901 1037.2441,-207.5 979,-207.5"/>
<polygon fill="#000000" stroke="#000000" points="1016.6415,-481.8463 1005.8058,-480.1613 1011.8207,-483.1732 1007,-484.5 1007,-484.5 1007,-484.5 1011.8207,-483.1732 1008.1942,-488.8387 1016.6415,-481.8463 1016.6415,-481.8463"/>
<text text-anchor="start" x="883.886" y="-468.5" font-family="Arial" font-size="10.00" fill="#000000">FOREIGN KEY (course_id) REFERENCES courses (id)</text>
</g>
<!-- course_schedules -->
<g id="node5" class="node">
<title>course_schedules</title>
<polygon fill="#efefef" stroke="transparent" points="1111,-484.5 1111,-519.5 1367,-519.5 1367,-484.5 1111,-484.5"/>
<polygon fill="none" stroke="#000000" points="1111,-484.5 1111,-519.5 1367,-519.5 1367,-484.5 1111,-484.5"/>
<text text-anchor="start" x="1117.852" y="-497.3" font-family="Arial Bold" font-size="18.00" fill="#000000">course_schedules</text>
<text text-anchor="start" x="1262.8942" y="-497.3" font-family="Arial" font-size="14.00" fill="#000000"> </text>
<text text-anchor="start" x="1266.7848" y="-497.3" font-family="Arial" font-size="14.00" fill="#666666">[BASE TABLE]</text>
<polygon fill="none" stroke="#000000" points="1111,-454.5 1111,-484.5 1367,-484.5 1367,-454.5 1111,-454.5"/>
<text text-anchor="start" x="1118" y="-465.9" font-family="Arial" font-size="14.00" fill="#000000">course_id </text>
<text text-anchor="start" x="1182.5708" y="-465.9" font-family="Arial" font-size="14.00" fill="#666666">[char(36)]</text>
<polygon fill="none" stroke="#000000" points="1111,-424.5 1111,-454.5 1367,-454.5 1367,-424.5 1111,-424.5"/>
<text text-anchor="start" x="1118" y="-435.9" font-family="Arial" font-size="14.00" fill="#000000">schedule_id </text>
<text text-anchor="start" x="1196.582" y="-435.9" font-family="Arial" font-size="14.00" fill="#666666">[char(36)]</text>
</g>
<!-- course_schedules&#45;&gt;courses -->
<g id="edge5" class="edge">
<title>course_schedules:course_id&#45;&gt;courses:id</title>
<path fill="none" stroke="#000000" d="M1100.9044,-468.7372C1052.1408,-460.6697 1085.6354,-390.2666 1059,-337 1028.743,-276.4909 1046.6523,-207.5 979,-207.5"/>
<polygon fill="#000000" stroke="#000000" points="1101.0284,-468.7465 1110.6609,-473.9872 1106.0142,-469.1233 1111,-469.5 1111,-469.5 1111,-469.5 1106.0142,-469.1233 1111.3391,-465.0128 1101.0284,-468.7465 1101.0284,-468.7465"/>
<text text-anchor="start" x="922.636" y="-453.5" font-family="Arial" font-size="10.00" fill="#000000">FOREIGN KEY (course_id) REFERENCES courses (id)</text>
</g>
<!-- grades -->
<g id="node6" class="node">
<title>grades</title>
<polygon fill="#efefef" stroke="transparent" points="1471,-514.5 1471,-549.5 1637,-549.5 1637,-514.5 1471,-514.5"/>
<polygon fill="none" stroke="#000000" points="1471,-514.5 1471,-549.5 1637,-549.5 1637,-514.5 1471,-514.5"/>
<text text-anchor="start" x="1477.8646" y="-527.3" font-family="Arial Bold" font-size="18.00" fill="#000000">grades</text>
<text text-anchor="start" x="1532.8816" y="-527.3" font-family="Arial" font-size="14.00" fill="#000000"> </text>
<text text-anchor="start" x="1536.7722" y="-527.3" font-family="Arial" font-size="14.00" fill="#666666">[BASE TABLE]</text>
<polygon fill="none" stroke="#000000" points="1471,-484.5 1471,-514.5 1637,-514.5 1637,-484.5 1471,-484.5"/>
<text text-anchor="start" x="1478" y="-495.9" font-family="Arial" font-size="14.00" fill="#000000">id </text>
<text text-anchor="start" x="1492.7798" y="-495.9" font-family="Arial" font-size="14.00" fill="#666666">[char(36)]</text>
<polygon fill="none" stroke="#000000" points="1471,-454.5 1471,-484.5 1637,-484.5 1637,-454.5 1471,-454.5"/>
<text text-anchor="start" x="1478" y="-465.9" font-family="Arial" font-size="14.00" fill="#000000">user_id </text>
<text text-anchor="start" x="1527.7882" y="-465.9" font-family="Arial" font-size="14.00" fill="#666666">[char(36)]</text>
<polygon fill="none" stroke="#000000" points="1471,-424.5 1471,-454.5 1637,-454.5 1637,-424.5 1471,-424.5"/>
<text text-anchor="start" x="1478" y="-435.9" font-family="Arial" font-size="14.00" fill="#000000">course_id </text>
<text text-anchor="start" x="1542.5708" y="-435.9" font-family="Arial" font-size="14.00" fill="#666666">[char(36)]</text>
<polygon fill="none" stroke="#000000" points="1471,-394.5 1471,-424.5 1637,-424.5 1637,-394.5 1471,-394.5"/>
<text text-anchor="start" x="1478" y="-405.9" font-family="Arial" font-size="14.00" fill="#000000">grade </text>
<text text-anchor="start" x="1517.6816" y="-405.9" font-family="Arial" font-size="14.00" fill="#666666">[int unsigned]</text>
</g>
<!-- grades&#45;&gt;courses -->
<g id="edge6" class="edge">
<title>grades:course_id&#45;&gt;courses:id</title>
<path fill="none" stroke="#000000" d="M1461.0358,-438.3897C1425.1834,-429.3385 1455.3594,-367.2401 1419,-337 1340.6364,-271.8249 1080.9247,-207.5 979,-207.5"/>
<polygon fill="#000000" stroke="#000000" points="1461.0615,-438.3925 1470.5016,-443.9723 1466.0308,-438.9462 1471,-439.5 1471,-439.5 1471,-439.5 1466.0308,-438.9462 1471.4984,-435.0277 1461.0615,-438.3925 1461.0615,-438.3925"/>
<text text-anchor="start" x="1217.386" y="-449.5" font-family="Arial" font-size="10.00" fill="#000000">FOREIGN KEY (course_id) REFERENCES courses (id)</text>
</g>
<!-- registrations -->
<g id="node7" class="node">
<title>registrations</title>
<polygon fill="#efefef" stroke="transparent" points="1742,-514.5 1742,-549.5 1951,-549.5 1951,-514.5 1742,-514.5"/>
<polygon fill="none" stroke="#000000" points="1742,-514.5 1742,-549.5 1951,-549.5 1951,-514.5 1742,-514.5"/>
<text text-anchor="start" x="1748.869" y="-527.3" font-family="Arial Bold" font-size="18.00" fill="#000000">registrations</text>
<text text-anchor="start" x="1846.8772" y="-527.3" font-family="Arial" font-size="14.00" fill="#000000"> </text>
<text text-anchor="start" x="1850.7678" y="-527.3" font-family="Arial" font-size="14.00" fill="#666666">[BASE TABLE]</text>
<polygon fill="none" stroke="#000000" points="1742,-484.5 1742,-514.5 1951,-514.5 1951,-484.5 1742,-484.5"/>
<text text-anchor="start" x="1749" y="-495.9" font-family="Arial" font-size="14.00" fill="#000000">course_id </text>
<text text-anchor="start" x="1813.5708" y="-495.9" font-family="Arial" font-size="14.00" fill="#666666">[char(36)]</text>
<polygon fill="none" stroke="#000000" points="1742,-454.5 1742,-484.5 1951,-484.5 1951,-454.5 1742,-454.5"/>
<text text-anchor="start" x="1749" y="-465.9" font-family="Arial" font-size="14.00" fill="#000000">user_id </text>
<text text-anchor="start" x="1798.7882" y="-465.9" font-family="Arial" font-size="14.00" fill="#666666">[char(36)]</text>
<polygon fill="none" stroke="#000000" points="1742,-424.5 1742,-454.5 1951,-454.5 1951,-424.5 1742,-424.5"/>
<text text-anchor="start" x="1749" y="-435.9" font-family="Arial" font-size="14.00" fill="#000000">created_at </text>
<text text-anchor="start" x="1819.028" y="-435.9" font-family="Arial" font-size="14.00" fill="#666666">[datetime(6)]</text>
<polygon fill="none" stroke="#000000" points="1742,-394.5 1742,-424.5 1951,-424.5 1951,-394.5 1742,-394.5"/>
<text text-anchor="start" x="1749" y="-405.9" font-family="Arial" font-size="14.00" fill="#000000">delete_at </text>
<text text-anchor="start" x="1810.474" y="-405.9" font-family="Arial" font-size="14.00" fill="#666666">[datetime(6)]</text>
</g>
<!-- registrations&#45;&gt;courses -->
<g id="edge7" class="edge">
<title>registrations:course_id&#45;&gt;courses:id</title>
<path fill="none" stroke="#000000" d="M1731.9548,-498.7155C1673.536,-488.6604 1743.4202,-384.5347 1689,-337 1568.21,-231.4928 1139.3808,-207.5 979,-207.5"/>
<polygon fill="#000000" stroke="#000000" points="1732.0304,-498.7214 1741.6496,-503.9863 1737.0152,-499.1107 1742,-499.5 1742,-499.5 1742,-499.5 1737.0152,-499.1107 1742.3504,-495.0137 1732.0304,-498.7214 1732.0304,-498.7214"/>
<text text-anchor="start" x="1749.386" y="-509.5" font-family="Arial" font-size="10.00" fill="#000000">FOREIGN KEY (course_id) REFERENCES courses (id)</text>
</g>
</g>
</svg>
