<?xml version="1.0" encoding="UTF-8" standalone="no"?>
<!DOCTYPE svg PUBLIC "-//W3C//DTD SVG 1.1//EN"
 "http://www.w3.org/Graphics/SVG/1.1/DTD/svg11.dtd">
<!-- Generated by graphviz version 2.40.1 (20161225.0304)
 -->
<!-- Title: courses Pages: 1 -->
<svg width="1987pt" height="1049pt"
 viewBox="0.00 0.00 1986.50 1049.00" xmlns="http://www.w3.org/2000/svg" xmlns:xlink="http://www.w3.org/1999/xlink">
<g id="graph0" class="graph" transform="scale(1 1) rotate(0) translate(4 1045)">
<title>courses</title>
<polygon fill="#ffffff" stroke="transparent" points="-4,4 -4,-1045 1982.5,-1045 1982.5,4 -4,4"/>
<!-- courses -->
<g id="node1" class="node">
<title>courses</title>
<polygon fill="#efefef" stroke="transparent" points="707.5,-652.5 707.5,-687.5 976.5,-687.5 976.5,-652.5 707.5,-652.5"/>
<polygon fill="none" stroke="#000000" points="707.5,-652.5 707.5,-687.5 976.5,-687.5 976.5,-652.5 707.5,-652.5"/>
<text text-anchor="start" x="761.8677" y="-665.3" font-family="Arial Bold" font-size="18.00" fill="#000000">courses</text>
<text text-anchor="start" x="824.8785" y="-665.3" font-family="Arial" font-size="14.00" fill="#000000"> </text>
<text text-anchor="start" x="828.7691" y="-665.3" font-family="Arial" font-size="14.00" fill="#666666">[BASE TABLE]</text>
<polygon fill="none" stroke="#000000" points="707.5,-622.5 707.5,-652.5 976.5,-652.5 976.5,-622.5 707.5,-622.5"/>
<text text-anchor="start" x="714.5" y="-633.9" font-family="Arial" font-size="14.00" fill="#000000">id </text>
<text text-anchor="start" x="729.2798" y="-633.9" font-family="Arial" font-size="14.00" fill="#666666">[char(36)]</text>
<polygon fill="none" stroke="#000000" points="707.5,-592.5 707.5,-622.5 976.5,-622.5 976.5,-592.5 707.5,-592.5"/>
<text text-anchor="start" x="714.5" y="-603.9" font-family="Arial" font-size="14.00" fill="#000000">code </text>
<text text-anchor="start" x="748.7384" y="-603.9" font-family="Arial" font-size="14.00" fill="#666666">[varchar(255)]</text>
<polygon fill="none" stroke="#000000" points="707.5,-562.5 707.5,-592.5 976.5,-592.5 976.5,-562.5 707.5,-562.5"/>
<text text-anchor="start" x="714.4803" y="-573.9" font-family="Arial" font-size="14.00" fill="#000000">type </text>
<text text-anchor="start" x="744.8267" y="-573.9" font-family="Arial" font-size="14.00" fill="#666666">[enum(&#39;liberal&#45;arts&#39;,&#39;major&#45;subjects&#39;)]</text>
<polygon fill="none" stroke="#000000" points="707.5,-532.5 707.5,-562.5 976.5,-562.5 976.5,-532.5 707.5,-532.5"/>
<text text-anchor="start" x="714.5" y="-543.9" font-family="Arial" font-size="14.00" fill="#000000">name </text>
<text text-anchor="start" x="753.399" y="-543.9" font-family="Arial" font-size="14.00" fill="#666666">[varchar(255)]</text>
<polygon fill="none" stroke="#000000" points="707.5,-502.5 707.5,-532.5 976.5,-532.5 976.5,-502.5 707.5,-502.5"/>
<text text-anchor="start" x="714.5" y="-513.9" font-family="Arial" font-size="14.00" fill="#000000">description </text>
<text text-anchor="start" x="786.068" y="-513.9" font-family="Arial" font-size="14.00" fill="#666666">[text]</text>
<polygon fill="none" stroke="#000000" points="707.5,-472.5 707.5,-502.5 976.5,-502.5 976.5,-472.5 707.5,-472.5"/>
<text text-anchor="start" x="714.5" y="-483.9" font-family="Arial" font-size="14.00" fill="#000000">credit </text>
<text text-anchor="start" x="752.6136" y="-483.9" font-family="Arial" font-size="14.00" fill="#666666">[tinyint unsigned]</text>
<polygon fill="none" stroke="#000000" points="707.5,-442.5 707.5,-472.5 976.5,-472.5 976.5,-442.5 707.5,-442.5"/>
<text text-anchor="start" x="714.5" y="-453.9" font-family="Arial" font-size="14.00" fill="#000000">classroom </text>
<text text-anchor="start" x="782.1662" y="-453.9" font-family="Arial" font-size="14.00" fill="#666666">[varchar(255)]</text>
<polygon fill="none" stroke="#000000" points="707.5,-412.5 707.5,-442.5 976.5,-442.5 976.5,-412.5 707.5,-412.5"/>
<text text-anchor="start" x="714.5" y="-423.9" font-family="Arial" font-size="14.00" fill="#000000">capacity </text>
<text text-anchor="start" x="769.7356" y="-423.9" font-family="Arial" font-size="14.00" fill="#666666">[int unsigned]</text>
<polygon fill="none" stroke="#000000" points="707.5,-382.5 707.5,-412.5 976.5,-412.5 976.5,-382.5 707.5,-382.5"/>
<text text-anchor="start" x="714.5" y="-393.9" font-family="Arial" font-size="14.00" fill="#000000">teacher_id </text>
<text text-anchor="start" x="783.744" y="-393.9" font-family="Arial" font-size="14.00" fill="#666666">[char(36)]</text>
<polygon fill="none" stroke="#000000" points="707.5,-352.5 707.5,-382.5 976.5,-382.5 976.5,-352.5 707.5,-352.5"/>
<text text-anchor="start" x="714.5" y="-363.9" font-family="Arial" font-size="14.00" fill="#000000">keywords </text>
<text text-anchor="start" x="777.5056" y="-363.9" font-family="Arial" font-size="14.00" fill="#666666">[text]</text>
<polygon fill="none" stroke="#000000" stroke-width="3" points="705.5,-351.5 705.5,-689.5 977.5,-689.5 977.5,-351.5 705.5,-351.5"/>
</g>
<!-- users -->
<g id="node8" class="node">
<title>users</title>
<polygon fill="#efefef" stroke="transparent" points="741.5,-192.5 741.5,-227.5 943.5,-227.5 943.5,-192.5 741.5,-192.5"/>
<polygon fill="none" stroke="#000000" points="741.5,-192.5 741.5,-227.5 943.5,-227.5 943.5,-192.5 741.5,-192.5"/>
<text text-anchor="start" x="771.8708" y="-205.3" font-family="Arial Bold" font-size="18.00" fill="#000000">users</text>
<text text-anchor="start" x="815.8754" y="-205.3" font-family="Arial" font-size="14.00" fill="#000000"> </text>
<text text-anchor="start" x="819.766" y="-205.3" font-family="Arial" font-size="14.00" fill="#666666">[BASE TABLE]</text>
<polygon fill="none" stroke="#000000" points="741.5,-162.5 741.5,-192.5 943.5,-192.5 943.5,-162.5 741.5,-162.5"/>
<text text-anchor="start" x="748.5" y="-173.9" font-family="Arial" font-size="14.00" fill="#000000">id </text>
<text text-anchor="start" x="763.2798" y="-173.9" font-family="Arial" font-size="14.00" fill="#666666">[char(36)]</text>
<polygon fill="none" stroke="#000000" points="741.5,-132.5 741.5,-162.5 943.5,-162.5 943.5,-132.5 741.5,-132.5"/>
<text text-anchor="start" x="748.5" y="-143.9" font-family="Arial" font-size="14.00" fill="#000000">name </text>
<text text-anchor="start" x="787.399" y="-143.9" font-family="Arial" font-size="14.00" fill="#666666">[varchar(255)]</text>
<polygon fill="none" stroke="#000000" points="741.5,-102.5 741.5,-132.5 943.5,-132.5 943.5,-102.5 741.5,-102.5"/>
<text text-anchor="start" x="748.5" y="-113.9" font-family="Arial" font-size="14.00" fill="#000000">mail_address </text>
<text text-anchor="start" x="835.6206" y="-113.9" font-family="Arial" font-size="14.00" fill="#666666">[varchar(255)]</text>
<polygon fill="none" stroke="#000000" points="741.5,-72.5 741.5,-102.5 943.5,-102.5 943.5,-72.5 741.5,-72.5"/>
<text text-anchor="start" x="748.3668" y="-83.9" font-family="Arial" font-size="14.00" fill="#000000">hashed_password </text>
<text text-anchor="start" x="865.8506" y="-83.9" font-family="Arial" font-size="14.00" fill="#666666">[binary(60)]</text>
<polygon fill="none" stroke="#000000" points="741.5,-42.5 741.5,-72.5 943.5,-72.5 943.5,-42.5 741.5,-42.5"/>
<text text-anchor="start" x="748.5" y="-53.9" font-family="Arial" font-size="14.00" fill="#000000">type </text>
<text text-anchor="start" x="778.8464" y="-53.9" font-family="Arial" font-size="14.00" fill="#666666">[enum(&#39;student&#39;,&#39;faculty&#39;)]</text>
</g>
<!-- courses&#45;&gt;users -->
<g id="edge8" class="edge">
<title>courses:teacher_id&#45;&gt;users:id</title>
<path fill="none" stroke="#000000" d="M986.4169,-395.9922C1013.986,-386.5125 1000.2435,-334.6578 976.5,-307 907.674,-226.8275 810.326,-351.1725 741.5,-271 714.4318,-239.4694 699.9444,-177.5 741.5,-177.5"/>
<polygon fill="#000000" stroke="#000000" points="986.3864,-395.9967 975.8235,-393.0511 981.4432,-396.7484 976.5,-397.5 976.5,-397.5 976.5,-397.5 981.4432,-396.7484 977.1765,-401.9489 986.3864,-395.9967 986.3864,-395.9967"/>
<text text-anchor="start" x="983.4965" y="-407.5" font-family="Arial" font-size="10.00" fill="#000000">FOREIGN KEY (teacher_id) REFERENCES users (id)</text>
</g>
<!-- announcements -->
<g id="node2" class="node">
<title>announcements</title>
<polygon fill="#efefef" stroke="transparent" points="43.5,-962.5 43.5,-997.5 282.5,-997.5 282.5,-962.5 43.5,-962.5"/>
<polygon fill="none" stroke="#000000" points="43.5,-962.5 43.5,-997.5 282.5,-997.5 282.5,-962.5 43.5,-962.5"/>
<text text-anchor="start" x="50.348" y="-975.3" font-family="Arial Bold" font-size="18.00" fill="#000000">announcements</text>
<text text-anchor="start" x="178.3982" y="-975.3" font-family="Arial" font-size="14.00" fill="#000000"> </text>
<text text-anchor="start" x="182.2888" y="-975.3" font-family="Arial" font-size="14.00" fill="#666666">[BASE TABLE]</text>
<polygon fill="none" stroke="#000000" points="43.5,-932.5 43.5,-962.5 282.5,-962.5 282.5,-932.5 43.5,-932.5"/>
<text text-anchor="start" x="50.5" y="-943.9" font-family="Arial" font-size="14.00" fill="#000000">id </text>
<text text-anchor="start" x="65.2798" y="-943.9" font-family="Arial" font-size="14.00" fill="#666666">[char(36)]</text>
<polygon fill="none" stroke="#000000" points="43.5,-902.5 43.5,-932.5 282.5,-932.5 282.5,-902.5 43.5,-902.5"/>
<text text-anchor="start" x="50.5" y="-913.9" font-family="Arial" font-size="14.00" fill="#000000">course_id </text>
<text text-anchor="start" x="115.0708" y="-913.9" font-family="Arial" font-size="14.00" fill="#666666">[char(36)]</text>
<polygon fill="none" stroke="#000000" points="43.5,-872.5 43.5,-902.5 282.5,-902.5 282.5,-872.5 43.5,-872.5"/>
<text text-anchor="start" x="50.5" y="-883.9" font-family="Arial" font-size="14.00" fill="#000000">title </text>
<text text-anchor="start" x="76.1676" y="-883.9" font-family="Arial" font-size="14.00" fill="#666666">[varchar(255)]</text>
<polygon fill="none" stroke="#000000" points="43.5,-842.5 43.5,-872.5 282.5,-872.5 282.5,-842.5 43.5,-842.5"/>
<text text-anchor="start" x="50.5" y="-853.9" font-family="Arial" font-size="14.00" fill="#000000">message </text>
<text text-anchor="start" x="111.1816" y="-853.9" font-family="Arial" font-size="14.00" fill="#666666">[text]</text>
<polygon fill="none" stroke="#000000" points="43.5,-812.5 43.5,-842.5 282.5,-842.5 282.5,-812.5 43.5,-812.5"/>
<text text-anchor="start" x="50.5" y="-823.9" font-family="Arial" font-size="14.00" fill="#000000">created_at </text>
<text text-anchor="start" x="120.528" y="-823.9" font-family="Arial" font-size="14.00" fill="#666666">[datetime(6)]</text>
</g>
<!-- announcements&#45;&gt;courses -->
<g id="edge1" class="edge">
<title>announcements:course_id&#45;&gt;courses:id</title>
<path fill="none" stroke="#000000" d="M292.724,-916.6422C345.0715,-906.8963 288.0924,-816.5185 334.5,-770 458.7504,-645.4527 531.5734,-637.5 707.5,-637.5"/>
<polygon fill="#000000" stroke="#000000" points="292.465,-916.6639 282.1237,-913.0158 287.4825,-917.0819 282.5,-917.5 282.5,-917.5 282.5,-917.5 287.4825,-917.0819 282.8763,-921.9842 292.465,-916.6639 292.465,-916.6639"/>
<text text-anchor="start" x="289.886" y="-927.5" font-family="Arial" font-size="10.00" fill="#000000">FOREIGN KEY (course_id) REFERENCES courses (id)</text>
</g>
<!-- classes -->
<g id="node3" class="node">
<title>classes</title>
<polygon fill="#efefef" stroke="transparent" points="386.5,-962.5 386.5,-997.5 598.5,-997.5 598.5,-962.5 386.5,-962.5"/>
<polygon fill="none" stroke="#000000" points="386.5,-962.5 386.5,-997.5 598.5,-997.5 598.5,-962.5 386.5,-962.5"/>
<text text-anchor="start" x="413.8698" y="-975.3" font-family="Arial Bold" font-size="18.00" fill="#000000">classes</text>
<text text-anchor="start" x="473.8764" y="-975.3" font-family="Arial" font-size="14.00" fill="#000000"> </text>
<text text-anchor="start" x="477.767" y="-975.3" font-family="Arial" font-size="14.00" fill="#666666">[BASE TABLE]</text>
<polygon fill="none" stroke="#000000" points="386.5,-932.5 386.5,-962.5 598.5,-962.5 598.5,-932.5 386.5,-932.5"/>
<text text-anchor="start" x="393.5" y="-943.9" font-family="Arial" font-size="14.00" fill="#000000">id </text>
<text text-anchor="start" x="408.2798" y="-943.9" font-family="Arial" font-size="14.00" fill="#666666">[char(36)]</text>
<polygon fill="none" stroke="#000000" points="386.5,-902.5 386.5,-932.5 598.5,-932.5 598.5,-902.5 386.5,-902.5"/>
<text text-anchor="start" x="393.5" y="-913.9" font-family="Arial" font-size="14.00" fill="#000000">course_id </text>
<text text-anchor="start" x="458.0708" y="-913.9" font-family="Arial" font-size="14.00" fill="#666666">[char(36)]</text>
<polygon fill="none" stroke="#000000" points="386.5,-872.5 386.5,-902.5 598.5,-902.5 598.5,-872.5 386.5,-872.5"/>
<text text-anchor="start" x="393.5" y="-883.9" font-family="Arial" font-size="14.00" fill="#000000">title </text>
<text text-anchor="start" x="419.1676" y="-883.9" font-family="Arial" font-size="14.00" fill="#666666">[varchar(255)]</text>
<polygon fill="none" stroke="#000000" points="386.5,-842.5 386.5,-872.5 598.5,-872.5 598.5,-842.5 386.5,-842.5"/>
<text text-anchor="start" x="393.5" y="-853.9" font-family="Arial" font-size="14.00" fill="#000000">description </text>
<text text-anchor="start" x="465.068" y="-853.9" font-family="Arial" font-size="14.00" fill="#666666">[text]</text>
<polygon fill="none" stroke="#000000" points="386.5,-812.5 386.5,-842.5 598.5,-842.5 598.5,-812.5 386.5,-812.5"/>
<text text-anchor="start" x="393.3002" y="-823.9" font-family="Arial" font-size="14.00" fill="#000000">attendance_code </text>
<text text-anchor="start" x="504.5806" y="-823.9" font-family="Arial" font-size="14.00" fill="#666666">[varchar(255)]</text>
</g>
<!-- classes&#45;&gt;courses -->
<g id="edge2" class="edge">
<title>classes:course_id&#45;&gt;courses:id</title>
<path fill="none" stroke="#000000" d="M608.5861,-916.8243C663.684,-908.8216 626.5302,-831.3266 650.5,-770 673.8372,-710.2919 643.3932,-637.5 707.5,-637.5"/>
<polygon fill="#000000" stroke="#000000" points="608.4776,-916.8315 598.1992,-913.0101 603.4888,-917.1658 598.5,-917.5 598.5,-917.5 598.5,-917.5 603.4888,-917.1658 598.8008,-921.9899 608.4776,-916.8315 608.4776,-916.8315"/>
<text text-anchor="start" x="605.886" y="-927.5" font-family="Arial" font-size="10.00" fill="#000000">FOREIGN KEY (course_id) REFERENCES courses (id)</text>
</g>
<!-- course_requirements -->
<g id="node4" class="node">
<title>course_requirements</title>
<polygon fill="#efefef" stroke="transparent" points="702.5,-917.5 702.5,-952.5 982.5,-952.5 982.5,-917.5 702.5,-917.5"/>
<polygon fill="none" stroke="#000000" points="702.5,-917.5 702.5,-952.5 982.5,-952.5 982.5,-917.5 702.5,-917.5"/>
<text text-anchor="start" x="709.3595" y="-930.3" font-family="Arial Bold" font-size="18.00" fill="#000000">course_requirements</text>
<text text-anchor="start" x="878.3867" y="-930.3" font-family="Arial" font-size="14.00" fill="#000000"> </text>
<text text-anchor="start" x="882.2773" y="-930.3" font-family="Arial" font-size="14.00" fill="#666666">[BASE TABLE]</text>
<polygon fill="none" stroke="#000000" points="702.5,-887.5 702.5,-917.5 982.5,-917.5 982.5,-887.5 702.5,-887.5"/>
<text text-anchor="start" x="709.5" y="-898.9" font-family="Arial" font-size="14.00" fill="#000000">course_id </text>
<text text-anchor="start" x="774.0708" y="-898.9" font-family="Arial" font-size="14.00" fill="#666666">[char(36)]</text>
<polygon fill="none" stroke="#000000" points="702.5,-857.5 702.5,-887.5 982.5,-887.5 982.5,-857.5 702.5,-857.5"/>
<text text-anchor="start" x="709.5" y="-868.9" font-family="Arial" font-size="14.00" fill="#000000">required_course_id </text>
<text text-anchor="start" x="833.1942" y="-868.9" font-family="Arial" font-size="14.00" fill="#666666">[char(36)]</text>
</g>
<!-- course_requirements&#45;&gt;courses -->
<g id="edge3" class="edge">
<title>course_requirements:course_id&#45;&gt;courses:id</title>
<path fill="none" stroke="#000000" d="M692.2885,-900.8418C666.8614,-891.3145 681.5874,-842.9895 702.5,-815 778.5075,-713.2715 900.4925,-835.7285 976.5,-734 1002.1708,-699.6421 1019.3889,-637.5 976.5,-637.5"/>
<polygon fill="#000000" stroke="#000000" points="692.6293,-900.897 701.7787,-906.9418 697.5646,-901.6985 702.5,-902.5 702.5,-902.5 702.5,-902.5 697.5646,-901.6985 703.2213,-898.0582 692.6293,-900.897 692.6293,-900.897"/>
<text text-anchor="start" x="709.886" y="-886.5" font-family="Arial" font-size="10.00" fill="#000000">FOREIGN KEY (course_id) REFERENCES courses (id)</text>
</g>
<!-- course_requirements&#45;&gt;courses -->
<g id="edge4" class="edge">
<title>course_requirements:required_course_id&#45;&gt;courses:id</title>
<path fill="none" stroke="#000000" d="M843.0989,-847.2473C851.4788,-779.1402 945.4481,-804.8472 976.5,-734 993.7168,-694.7185 1019.3889,-637.5 976.5,-637.5"/>
<polygon fill="#000000" stroke="#000000" points="843.0833,-847.517 838.0077,-857.2375 842.7916,-852.5085 842.5,-857.5 842.5,-857.5 842.5,-857.5 842.7916,-852.5085 846.9923,-857.7625 843.0833,-847.517 843.0833,-847.517"/>
<text text-anchor="start" x="698.2705" y="-841.5" font-family="Arial" font-size="10.00" fill="#000000">FOREIGN KEY (required_course_id) REFERENCES courses (id)</text>
</g>
<!-- course_schedules -->
<g id="node5" class="node">
<title>course_schedules</title>
<polygon fill="#efefef" stroke="transparent" points="1086.5,-917.5 1086.5,-952.5 1342.5,-952.5 1342.5,-917.5 1086.5,-917.5"/>
<polygon fill="none" stroke="#000000" points="1086.5,-917.5 1086.5,-952.5 1342.5,-952.5 1342.5,-917.5 1086.5,-917.5"/>
<text text-anchor="start" x="1093.352" y="-930.3" font-family="Arial Bold" font-size="18.00" fill="#000000">course_schedules</text>
<text text-anchor="start" x="1238.3942" y="-930.3" font-family="Arial" font-size="14.00" fill="#000000"> </text>
<text text-anchor="start" x="1242.2848" y="-930.3" font-family="Arial" font-size="14.00" fill="#666666">[BASE TABLE]</text>
<polygon fill="none" stroke="#000000" points="1086.5,-887.5 1086.5,-917.5 1342.5,-917.5 1342.5,-887.5 1086.5,-887.5"/>
<text text-anchor="start" x="1093.5" y="-898.9" font-family="Arial" font-size="14.00" fill="#000000">course_id </text>
<text text-anchor="start" x="1158.0708" y="-898.9" font-family="Arial" font-size="14.00" fill="#666666">[char(36)]</text>
<polygon fill="none" stroke="#000000" points="1086.5,-857.5 1086.5,-887.5 1342.5,-887.5 1342.5,-857.5 1086.5,-857.5"/>
<text text-anchor="start" x="1093.5" y="-868.9" font-family="Arial" font-size="14.00" fill="#000000">schedule_id </text>
<text text-anchor="start" x="1172.082" y="-868.9" font-family="Arial" font-size="14.00" fill="#666666">[char(36)]</text>
</g>
<!-- course_schedules&#45;&gt;courses -->
<g id="edge5" class="edge">
<title>course_schedules:course_id&#45;&gt;courses:id</title>
<path fill="none" stroke="#000000" d="M1076.3652,-901.7552C1027.1941,-893.8738 1057.3235,-825.0079 1034.5,-770 1009.8643,-710.6243 1040.7837,-637.5 976.5,-637.5"/>
<polygon fill="#000000" stroke="#000000" points="1076.5269,-901.767 1086.1701,-906.9879 1081.5134,-902.1335 1086.5,-902.5 1086.5,-902.5 1086.5,-902.5 1081.5134,-902.1335 1086.8299,-898.0121 1076.5269,-901.767 1076.5269,-901.767"/>
<text text-anchor="start" x="1093.886" y="-912.5" font-family="Arial" font-size="10.00" fill="#000000">FOREIGN KEY (course_id) REFERENCES courses (id)</text>
</g>
<!-- grades -->
<g id="node6" class="node">
<title>grades</title>
<polygon fill="#efefef" stroke="transparent" points="1446.5,-962.5 1446.5,-997.5 1612.5,-997.5 1612.5,-962.5 1446.5,-962.5"/>
<polygon fill="none" stroke="#000000" points="1446.5,-962.5 1446.5,-997.5 1612.5,-997.5 1612.5,-962.5 1446.5,-962.5"/>
<text text-anchor="start" x="1453.3646" y="-975.3" font-family="Arial Bold" font-size="18.00" fill="#000000">grades</text>
<text text-anchor="start" x="1508.3816" y="-975.3" font-family="Arial" font-size="14.00" fill="#000000"> </text>
<text text-anchor="start" x="1512.2722" y="-975.3" font-family="Arial" font-size="14.00" fill="#666666">[BASE TABLE]</text>
<polygon fill="none" stroke="#000000" points="1446.5,-932.5 1446.5,-962.5 1612.5,-962.5 1612.5,-932.5 1446.5,-932.5"/>
<text text-anchor="start" x="1453.5" y="-943.9" font-family="Arial" font-size="14.00" fill="#000000">id </text>
<text text-anchor="start" x="1468.2798" y="-943.9" font-family="Arial" font-size="14.00" fill="#666666">[char(36)]</text>
<polygon fill="none" stroke="#000000" points="1446.5,-902.5 1446.5,-932.5 1612.5,-932.5 1612.5,-902.5 1446.5,-902.5"/>
<text text-anchor="start" x="1453.5" y="-913.9" font-family="Arial" font-size="14.00" fill="#000000">user_id </text>
<text text-anchor="start" x="1503.2882" y="-913.9" font-family="Arial" font-size="14.00" fill="#666666">[char(36)]</text>
<polygon fill="none" stroke="#000000" points="1446.5,-872.5 1446.5,-902.5 1612.5,-902.5 1612.5,-872.5 1446.5,-872.5"/>
<text text-anchor="start" x="1453.5" y="-883.9" font-family="Arial" font-size="14.00" fill="#000000">course_id </text>
<text text-anchor="start" x="1518.0708" y="-883.9" font-family="Arial" font-size="14.00" fill="#666666">[char(36)]</text>
<polygon fill="none" stroke="#000000" points="1446.5,-842.5 1446.5,-872.5 1612.5,-872.5 1612.5,-842.5 1446.5,-842.5"/>
<text text-anchor="start" x="1453.5" y="-853.9" font-family="Arial" font-size="14.00" fill="#000000">grade </text>
<text text-anchor="start" x="1493.1816" y="-853.9" font-family="Arial" font-size="14.00" fill="#666666">[int unsigned]</text>
<polygon fill="none" stroke="#000000" points="1446.5,-812.5 1446.5,-842.5 1612.5,-842.5 1612.5,-812.5 1446.5,-812.5"/>
<text text-anchor="start" x="1453.5" y="-823.9" font-family="Arial" font-size="14.00" fill="#000000">created_at </text>
<text text-anchor="start" x="1523.528" y="-823.9" font-family="Arial" font-size="14.00" fill="#666666">[datetime(6)]</text>
</g>
<!-- grades&#45;&gt;courses -->
<g id="edge6" class="edge">
<title>grades:course_id&#45;&gt;courses:id</title>
<path fill="none" stroke="#000000" d="M1436.4518,-886.485C1395.3221,-877.1377 1434.2093,-805.5766 1394.5,-770 1249.3473,-639.954 1171.3879,-637.5 976.5,-637.5"/>
<polygon fill="#000000" stroke="#000000" points="1436.5506,-886.4949 1446.0477,-891.9772 1441.5253,-886.9975 1446.5,-887.5 1446.5,-887.5 1446.5,-887.5 1441.5253,-886.9975 1446.9523,-883.0228 1436.5506,-886.4949 1436.5506,-886.4949"/>
<text text-anchor="start" x="1258.136" y="-871.5" font-family="Arial" font-size="10.00" fill="#000000">FOREIGN KEY (course_id) REFERENCES courses (id)</text>
</g>
<!-- registrations -->
<g id="node7" class="node">
<title>registrations</title>
<polygon fill="#efefef" stroke="transparent" points="1717.5,-947.5 1717.5,-982.5 1926.5,-982.5 1926.5,-947.5 1717.5,-947.5"/>
<polygon fill="none" stroke="#000000" points="1717.5,-947.5 1717.5,-982.5 1926.5,-982.5 1926.5,-947.5 1717.5,-947.5"/>
<text text-anchor="start" x="1724.369" y="-960.3" font-family="Arial Bold" font-size="18.00" fill="#000000">registrations</text>
<text text-anchor="start" x="1822.3772" y="-960.3" font-family="Arial" font-size="14.00" fill="#000000"> </text>
<text text-anchor="start" x="1826.2678" y="-960.3" font-family="Arial" font-size="14.00" fill="#666666">[BASE TABLE]</text>
<polygon fill="none" stroke="#000000" points="1717.5,-917.5 1717.5,-947.5 1926.5,-947.5 1926.5,-917.5 1717.5,-917.5"/>
<text text-anchor="start" x="1724.5" y="-928.9" font-family="Arial" font-size="14.00" fill="#000000">course_id </text>
<text text-anchor="start" x="1789.0708" y="-928.9" font-family="Arial" font-size="14.00" fill="#666666">[char(36)]</text>
<polygon fill="none" stroke="#000000" points="1717.5,-887.5 1717.5,-917.5 1926.5,-917.5 1926.5,-887.5 1717.5,-887.5"/>
<text text-anchor="start" x="1724.5" y="-898.9" font-family="Arial" font-size="14.00" fill="#000000">user_id </text>
<text text-anchor="start" x="1774.2882" y="-898.9" font-family="Arial" font-size="14.00" fill="#666666">[char(36)]</text>
<polygon fill="none" stroke="#000000" points="1717.5,-857.5 1717.5,-887.5 1926.5,-887.5 1926.5,-857.5 1717.5,-857.5"/>
<text text-anchor="start" x="1724.5" y="-868.9" font-family="Arial" font-size="14.00" fill="#000000">created_at </text>
<text text-anchor="start" x="1794.528" y="-868.9" font-family="Arial" font-size="14.00" fill="#666666">[datetime(6)]</text>
<polygon fill="none" stroke="#000000" points="1717.5,-827.5 1717.5,-857.5 1926.5,-857.5 1926.5,-827.5 1717.5,-827.5"/>
<text text-anchor="start" x="1724.5" y="-838.9" font-family="Arial" font-size="14.00" fill="#000000">deleted_at </text>
<text text-anchor="start" x="1793.7566" y="-838.9" font-family="Arial" font-size="14.00" fill="#666666">[datetime(6)]</text>
</g>
<!-- registrations&#45;&gt;courses -->
<g id="edge7" class="edge">
<title>registrations:course_id&#45;&gt;courses:id</title>
<path fill="none" stroke="#000000" d="M1707.4531,-931.7175C1649.0131,-921.6865 1718.6855,-817.8021 1664.5,-770 1547.7422,-666.9971 1132.1984,-637.5 976.5,-637.5"/>
<polygon fill="#000000" stroke="#000000" points="1707.5302,-931.7234 1717.1505,-936.9864 1712.5151,-932.1117 1717.5,-932.5 1717.5,-932.5 1717.5,-932.5 1712.5151,-932.1117 1717.8495,-928.0136 1707.5302,-931.7234 1707.5302,-931.7234"/>
<text text-anchor="start" x="1724.886" y="-942.5" font-family="Arial" font-size="10.00" fill="#000000">FOREIGN KEY (course_id) REFERENCES courses (id)</text>
</g>
</g>
</svg>
