<?xml version="1.0" encoding="UTF-8" standalone="no"?>
<!DOCTYPE svg PUBLIC "-//W3C//DTD SVG 1.1//EN"
 "http://www.w3.org/Graphics/SVG/1.1/DTD/svg11.dtd">
<!-- Generated by graphviz version 2.40.1 (20161225.0304)
 -->
<!-- Title: course_requirements Pages: 1 -->
<svg width="1993pt" height="616pt"
 viewBox="0.00 0.00 1993.00 616.00" xmlns="http://www.w3.org/2000/svg" xmlns:xlink="http://www.w3.org/1999/xlink">
<g id="graph0" class="graph" transform="scale(1 1) rotate(0) translate(4 612)">
<title>course_requirements</title>
<polygon fill="#ffffff" stroke="transparent" points="-4,4 -4,-612 1989,-612 1989,4 -4,4"/>
<!-- course_requirements -->
<g id="node1" class="node">
<title>course_requirements</title>
<polygon fill="#efefef" stroke="transparent" points="46,-484.5 46,-519.5 326,-519.5 326,-484.5 46,-484.5"/>
<polygon fill="none" stroke="#000000" points="46,-484.5 46,-519.5 326,-519.5 326,-484.5 46,-484.5"/>
<text text-anchor="start" x="52.8595" y="-497.3" font-family="Arial Bold" font-size="18.00" fill="#000000">course_requirements</text>
<text text-anchor="start" x="221.8867" y="-497.3" font-family="Arial" font-size="14.00" fill="#000000"> </text>
<text text-anchor="start" x="225.7773" y="-497.3" font-family="Arial" font-size="14.00" fill="#666666">[BASE TABLE]</text>
<polygon fill="none" stroke="#000000" points="46,-454.5 46,-484.5 326,-484.5 326,-454.5 46,-454.5"/>
<text text-anchor="start" x="53" y="-465.9" font-family="Arial" font-size="14.00" fill="#000000">course_id </text>
<text text-anchor="start" x="117.5708" y="-465.9" font-family="Arial" font-size="14.00" fill="#666666">[char(36)]</text>
<polygon fill="none" stroke="#000000" points="46,-424.5 46,-454.5 326,-454.5 326,-424.5 46,-424.5"/>
<text text-anchor="start" x="53" y="-435.9" font-family="Arial" font-size="14.00" fill="#000000">required_course_id </text>
<text text-anchor="start" x="176.6942" y="-435.9" font-family="Arial" font-size="14.00" fill="#666666">[char(36)]</text>
<polygon fill="none" stroke="#000000" stroke-width="3" points="44.5,-423.5 44.5,-521.5 327.5,-521.5 327.5,-423.5 44.5,-423.5"/>
</g>
<!-- courses -->
<g id="node2" class="node">
<title>courses</title>
<polygon fill="#efefef" stroke="transparent" points="796,-222.5 796,-257.5 970,-257.5 970,-222.5 796,-222.5"/>
<polygon fill="none" stroke="#000000" points="796,-222.5 796,-257.5 970,-257.5 970,-222.5 796,-222.5"/>
<text text-anchor="start" x="802.8677" y="-235.3" font-family="Arial Bold" font-size="18.00" fill="#000000">courses</text>
<text text-anchor="start" x="865.8785" y="-235.3" font-family="Arial" font-size="14.00" fill="#000000"> </text>
<text text-anchor="start" x="869.7691" y="-235.3" font-family="Arial" font-size="14.00" fill="#666666">[BASE TABLE]</text>
<polygon fill="none" stroke="#000000" points="796,-192.5 796,-222.5 970,-222.5 970,-192.5 796,-192.5"/>
<text text-anchor="start" x="803" y="-203.9" font-family="Arial" font-size="14.00" fill="#000000">id </text>
<text text-anchor="start" x="817.7798" y="-203.9" font-family="Arial" font-size="14.00" fill="#666666">[char(36)]</text>
<polygon fill="none" stroke="#000000" points="796,-162.5 796,-192.5 970,-192.5 970,-162.5 796,-162.5"/>
<text text-anchor="start" x="803" y="-173.9" font-family="Arial" font-size="14.00" fill="#000000">name </text>
<text text-anchor="start" x="841.899" y="-173.9" font-family="Arial" font-size="14.00" fill="#666666">[varchar(255)]</text>
<polygon fill="none" stroke="#000000" points="796,-132.5 796,-162.5 970,-162.5 970,-132.5 796,-132.5"/>
<text text-anchor="start" x="803" y="-143.9" font-family="Arial" font-size="14.00" fill="#000000">description </text>
<text text-anchor="start" x="874.568" y="-143.9" font-family="Arial" font-size="14.00" fill="#666666">[text]</text>
<polygon fill="none" stroke="#000000" points="796,-102.5 796,-132.5 970,-132.5 970,-102.5 796,-102.5"/>
<text text-anchor="start" x="803" y="-113.9" font-family="Arial" font-size="14.00" fill="#000000">credit </text>
<text text-anchor="start" x="841.1136" y="-113.9" font-family="Arial" font-size="14.00" fill="#666666">[tinyint unsigned]</text>
<polygon fill="none" stroke="#000000" points="796,-72.5 796,-102.5 970,-102.5 970,-72.5 796,-72.5"/>
<text text-anchor="start" x="803" y="-83.9" font-family="Arial" font-size="14.00" fill="#000000">classroom </text>
<text text-anchor="start" x="870.6662" y="-83.9" font-family="Arial" font-size="14.00" fill="#666666">[varchar(255)]</text>
<polygon fill="none" stroke="#000000" points="796,-42.5 796,-72.5 970,-72.5 970,-42.5 796,-42.5"/>
<text text-anchor="start" x="803" y="-53.9" font-family="Arial" font-size="14.00" fill="#000000">capacity </text>
<text text-anchor="start" x="858.2356" y="-53.9" font-family="Arial" font-size="14.00" fill="#666666">[int unsigned]</text>
</g>
<!-- course_requirements&#45;&gt;courses -->
<g id="edge1" class="edge">
<title>course_requirements:course_id&#45;&gt;courses:id</title>
<path fill="none" stroke="#000000" d="M336.0208,-468.6054C383.5692,-459.1701 336.6699,-377.47 381,-337 452.3478,-271.8649 699.392,-207.5 796,-207.5"/>
<polygon fill="#000000" stroke="#000000" points="335.9604,-468.6107 325.5998,-465.0178 330.9802,-469.0554 326,-469.5 326,-469.5 326,-469.5 330.9802,-469.0554 326.4002,-473.9822 335.9604,-468.6107 335.9604,-468.6107"/>
<text text-anchor="start" x="202.886" y="-453.5" font-family="Arial" font-size="10.00" fill="#000000">FOREIGN KEY (course_id) REFERENCES courses (id)</text>
</g>
<!-- course_requirements&#45;&gt;courses -->
<g id="edge4" class="edge">
<title>course_requirements:required_course_id&#45;&gt;courses:id</title>
<path fill="none" stroke="#000000" d="M336.12,-438.3937C372.6936,-429.3742 344.0982,-367.4807 381,-337 529.9688,-213.9525 602.7841,-207.5 796,-207.5"/>
<polygon fill="#000000" stroke="#000000" points="335.9408,-438.4132 325.5109,-435.0267 330.9704,-438.9566 326,-439.5 326,-439.5 326,-439.5 330.9704,-438.9566 326.4891,-443.9733 335.9408,-438.4132 335.9408,-438.4132"/>
<text text-anchor="start" x="181.7705" y="-423.5" font-family="Arial" font-size="10.00" fill="#000000">FOREIGN KEY (required_course_id) REFERENCES courses (id)</text>
</g>
<!-- announcements -->
<g id="node3" class="node">
<title>announcements</title>
<polygon fill="#efefef" stroke="transparent" points="434,-529.5 434,-564.5 673,-564.5 673,-529.5 434,-529.5"/>
<polygon fill="none" stroke="#000000" points="434,-529.5 434,-564.5 673,-564.5 673,-529.5 434,-529.5"/>
<text text-anchor="start" x="440.848" y="-542.3" font-family="Arial Bold" font-size="18.00" fill="#000000">announcements</text>
<text text-anchor="start" x="568.8982" y="-542.3" font-family="Arial" font-size="14.00" fill="#000000"> </text>
<text text-anchor="start" x="572.7888" y="-542.3" font-family="Arial" font-size="14.00" fill="#666666">[BASE TABLE]</text>
<polygon fill="none" stroke="#000000" points="434,-499.5 434,-529.5 673,-529.5 673,-499.5 434,-499.5"/>
<text text-anchor="start" x="441" y="-510.9" font-family="Arial" font-size="14.00" fill="#000000">id </text>
<text text-anchor="start" x="455.7798" y="-510.9" font-family="Arial" font-size="14.00" fill="#666666">[char(36)]</text>
<polygon fill="none" stroke="#000000" points="434,-469.5 434,-499.5 673,-499.5 673,-469.5 434,-469.5"/>
<text text-anchor="start" x="441" y="-480.9" font-family="Arial" font-size="14.00" fill="#000000">course_id </text>
<text text-anchor="start" x="505.5708" y="-480.9" font-family="Arial" font-size="14.00" fill="#666666">[char(36)]</text>
<polygon fill="none" stroke="#000000" points="434,-439.5 434,-469.5 673,-469.5 673,-439.5 434,-439.5"/>
<text text-anchor="start" x="441" y="-450.9" font-family="Arial" font-size="14.00" fill="#000000">title </text>
<text text-anchor="start" x="466.6676" y="-450.9" font-family="Arial" font-size="14.00" fill="#666666">[varchar(255)]</text>
<polygon fill="none" stroke="#000000" points="434,-409.5 434,-439.5 673,-439.5 673,-409.5 434,-409.5"/>
<text text-anchor="start" x="441" y="-420.9" font-family="Arial" font-size="14.00" fill="#000000">message </text>
<text text-anchor="start" x="501.6816" y="-420.9" font-family="Arial" font-size="14.00" fill="#666666">[text]</text>
<polygon fill="none" stroke="#000000" points="434,-379.5 434,-409.5 673,-409.5 673,-379.5 434,-379.5"/>
<text text-anchor="start" x="441" y="-390.9" font-family="Arial" font-size="14.00" fill="#000000">created_at </text>
<text text-anchor="start" x="511.028" y="-390.9" font-family="Arial" font-size="14.00" fill="#666666">[datetime(6)]</text>
</g>
<!-- announcements&#45;&gt;courses -->
<g id="edge2" class="edge">
<title>announcements:course_id&#45;&gt;courses:id</title>
<path fill="none" stroke="#000000" d="M683.062,-483.8142C737.8789,-475.6939 698.1378,-397.1159 725,-337 751.7781,-277.0723 730.3616,-207.5 796,-207.5"/>
<polygon fill="#000000" stroke="#000000" points="682.9769,-483.8199 672.694,-480.0104 677.9884,-484.16 673,-484.5 673,-484.5 673,-484.5 677.9884,-484.16 673.306,-488.9896 682.9769,-483.8199 682.9769,-483.8199"/>
<text text-anchor="start" x="680.386" y="-494.5" font-family="Arial" font-size="10.00" fill="#000000">FOREIGN KEY (course_id) REFERENCES courses (id)</text>
</g>
<!-- classes -->
<g id="node4" class="node">
<title>classes</title>
<polygon fill="#efefef" stroke="transparent" points="777,-529.5 777,-564.5 989,-564.5 989,-529.5 777,-529.5"/>
<polygon fill="none" stroke="#000000" points="777,-529.5 777,-564.5 989,-564.5 989,-529.5 777,-529.5"/>
<text text-anchor="start" x="804.3698" y="-542.3" font-family="Arial Bold" font-size="18.00" fill="#000000">classes</text>
<text text-anchor="start" x="864.3764" y="-542.3" font-family="Arial" font-size="14.00" fill="#000000"> </text>
<text text-anchor="start" x="868.267" y="-542.3" font-family="Arial" font-size="14.00" fill="#666666">[BASE TABLE]</text>
<polygon fill="none" stroke="#000000" points="777,-499.5 777,-529.5 989,-529.5 989,-499.5 777,-499.5"/>
<text text-anchor="start" x="784" y="-510.9" font-family="Arial" font-size="14.00" fill="#000000">id </text>
<text text-anchor="start" x="798.7798" y="-510.9" font-family="Arial" font-size="14.00" fill="#666666">[char(36)]</text>
<polygon fill="none" stroke="#000000" points="777,-469.5 777,-499.5 989,-499.5 989,-469.5 777,-469.5"/>
<text text-anchor="start" x="784" y="-480.9" font-family="Arial" font-size="14.00" fill="#000000">course_id </text>
<text text-anchor="start" x="848.5708" y="-480.9" font-family="Arial" font-size="14.00" fill="#666666">[char(36)]</text>
<polygon fill="none" stroke="#000000" points="777,-439.5 777,-469.5 989,-469.5 989,-439.5 777,-439.5"/>
<text text-anchor="start" x="784" y="-450.9" font-family="Arial" font-size="14.00" fill="#000000">title </text>
<text text-anchor="start" x="809.6676" y="-450.9" font-family="Arial" font-size="14.00" fill="#666666">[varchar(255)]</text>
<polygon fill="none" stroke="#000000" points="777,-409.5 777,-439.5 989,-439.5 989,-409.5 777,-409.5"/>
<text text-anchor="start" x="784" y="-420.9" font-family="Arial" font-size="14.00" fill="#000000">description </text>
<text text-anchor="start" x="855.568" y="-420.9" font-family="Arial" font-size="14.00" fill="#666666">[text]</text>
<polygon fill="none" stroke="#000000" points="777,-379.5 777,-409.5 989,-409.5 989,-379.5 777,-379.5"/>
<text text-anchor="start" x="783.8002" y="-390.9" font-family="Arial" font-size="14.00" fill="#000000">attendance_code </text>
<text text-anchor="start" x="895.0806" y="-390.9" font-family="Arial" font-size="14.00" fill="#666666">[varchar(255)]</text>
</g>
<!-- classes&#45;&gt;courses -->
<g id="edge3" class="edge">
<title>classes:course_id&#45;&gt;courses:id</title>
<path fill="none" stroke="#000000" d="M998.7144,-481.9347C1048.4109,-454.0098 1028.2055,-207.5 970,-207.5"/>
<polygon fill="#000000" stroke="#000000" points="998.6686,-481.9467 987.851,-480.1491 993.8343,-483.2234 989,-484.5 989,-484.5 989,-484.5 993.8343,-483.2234 990.149,-488.8509 998.6686,-481.9467 998.6686,-481.9467"/>
<text text-anchor="start" x="865.886" y="-468.5" font-family="Arial" font-size="10.00" fill="#000000">FOREIGN KEY (course_id) REFERENCES courses (id)</text>
</g>
<!-- course_schedules -->
<g id="node5" class="node">
<title>course_schedules</title>
<polygon fill="#efefef" stroke="transparent" points="1093,-484.5 1093,-519.5 1349,-519.5 1349,-484.5 1093,-484.5"/>
<polygon fill="none" stroke="#000000" points="1093,-484.5 1093,-519.5 1349,-519.5 1349,-484.5 1093,-484.5"/>
<text text-anchor="start" x="1099.852" y="-497.3" font-family="Arial Bold" font-size="18.00" fill="#000000">course_schedules</text>
<text text-anchor="start" x="1244.8942" y="-497.3" font-family="Arial" font-size="14.00" fill="#000000"> </text>
<text text-anchor="start" x="1248.7848" y="-497.3" font-family="Arial" font-size="14.00" fill="#666666">[BASE TABLE]</text>
<polygon fill="none" stroke="#000000" points="1093,-454.5 1093,-484.5 1349,-484.5 1349,-454.5 1093,-454.5"/>
<text text-anchor="start" x="1100" y="-465.9" font-family="Arial" font-size="14.00" fill="#000000">course_id </text>
<text text-anchor="start" x="1164.5708" y="-465.9" font-family="Arial" font-size="14.00" fill="#666666">[char(36)]</text>
<polygon fill="none" stroke="#000000" points="1093,-424.5 1093,-454.5 1349,-454.5 1349,-424.5 1093,-424.5"/>
<text text-anchor="start" x="1100" y="-435.9" font-family="Arial" font-size="14.00" fill="#000000">schedule_id </text>
<text text-anchor="start" x="1178.582" y="-435.9" font-family="Arial" font-size="14.00" fill="#666666">[char(36)]</text>
</g>
<!-- course_schedules&#45;&gt;courses -->
<g id="edge5" class="edge">
<title>course_schedules:course_id&#45;&gt;courses:id</title>
<path fill="none" stroke="#000000" d="M1082.8901,-468.7442C1033.9779,-460.7486 1066.2452,-390.9394 1041,-337 1013.176,-277.5507 1035.6384,-207.5 970,-207.5"/>
<polygon fill="#000000" stroke="#000000" points="1083.0278,-468.7544 1092.6645,-473.9875 1088.0139,-469.1272 1093,-469.5 1093,-469.5 1093,-469.5 1088.0139,-469.1272 1093.3355,-465.0125 1083.0278,-468.7544 1083.0278,-468.7544"/>
<text text-anchor="start" x="904.636" y="-453.5" font-family="Arial" font-size="10.00" fill="#000000">FOREIGN KEY (course_id) REFERENCES courses (id)</text>
</g>
<!-- grades -->
<g id="node6" class="node">
<title>grades</title>
<polygon fill="#efefef" stroke="transparent" points="1453,-514.5 1453,-549.5 1619,-549.5 1619,-514.5 1453,-514.5"/>
<polygon fill="none" stroke="#000000" points="1453,-514.5 1453,-549.5 1619,-549.5 1619,-514.5 1453,-514.5"/>
<text text-anchor="start" x="1459.8646" y="-527.3" font-family="Arial Bold" font-size="18.00" fill="#000000">grades</text>
<text text-anchor="start" x="1514.8816" y="-527.3" font-family="Arial" font-size="14.00" fill="#000000"> </text>
<text text-anchor="start" x="1518.7722" y="-527.3" font-family="Arial" font-size="14.00" fill="#666666">[BASE TABLE]</text>
<polygon fill="none" stroke="#000000" points="1453,-484.5 1453,-514.5 1619,-514.5 1619,-484.5 1453,-484.5"/>
<text text-anchor="start" x="1460" y="-495.9" font-family="Arial" font-size="14.00" fill="#000000">id </text>
<text text-anchor="start" x="1474.7798" y="-495.9" font-family="Arial" font-size="14.00" fill="#666666">[char(36)]</text>
<polygon fill="none" stroke="#000000" points="1453,-454.5 1453,-484.5 1619,-484.5 1619,-454.5 1453,-454.5"/>
<text text-anchor="start" x="1460" y="-465.9" font-family="Arial" font-size="14.00" fill="#000000">user_id </text>
<text text-anchor="start" x="1509.7882" y="-465.9" font-family="Arial" font-size="14.00" fill="#666666">[char(36)]</text>
<polygon fill="none" stroke="#000000" points="1453,-424.5 1453,-454.5 1619,-454.5 1619,-424.5 1453,-424.5"/>
<text text-anchor="start" x="1460" y="-435.9" font-family="Arial" font-size="14.00" fill="#000000">course_id </text>
<text text-anchor="start" x="1524.5708" y="-435.9" font-family="Arial" font-size="14.00" fill="#666666">[char(36)]</text>
<polygon fill="none" stroke="#000000" points="1453,-394.5 1453,-424.5 1619,-424.5 1619,-394.5 1453,-394.5"/>
<text text-anchor="start" x="1460" y="-405.9" font-family="Arial" font-size="14.00" fill="#000000">grade </text>
<text text-anchor="start" x="1499.6816" y="-405.9" font-family="Arial" font-size="14.00" fill="#666666">[int unsigned]</text>
</g>
<!-- grades&#45;&gt;courses -->
<g id="edge6" class="edge">
<title>grades:course_id&#45;&gt;courses:id</title>
<path fill="none" stroke="#000000" d="M1443.0344,-438.3914C1407.1707,-429.3538 1437.2738,-367.3426 1401,-337 1247.5822,-208.6678 1170.0154,-207.5 970,-207.5"/>
<polygon fill="#000000" stroke="#000000" points="1443.0613,-438.3943 1452.5024,-443.9724 1448.0307,-438.9471 1453,-439.5 1453,-439.5 1453,-439.5 1448.0307,-438.9471 1453.4976,-435.0276 1443.0613,-438.3943 1443.0613,-438.3943"/>
<text text-anchor="start" x="1199.386" y="-449.5" font-family="Arial" font-size="10.00" fill="#000000">FOREIGN KEY (course_id) REFERENCES courses (id)</text>
</g>
<!-- registrations -->
<g id="node7" class="node">
<title>registrations</title>
<polygon fill="#efefef" stroke="transparent" points="1724,-514.5 1724,-549.5 1933,-549.5 1933,-514.5 1724,-514.5"/>
<polygon fill="none" stroke="#000000" points="1724,-514.5 1724,-549.5 1933,-549.5 1933,-514.5 1724,-514.5"/>
<text text-anchor="start" x="1730.869" y="-527.3" font-family="Arial Bold" font-size="18.00" fill="#000000">registrations</text>
<text text-anchor="start" x="1828.8772" y="-527.3" font-family="Arial" font-size="14.00" fill="#000000"> </text>
<text text-anchor="start" x="1832.7678" y="-527.3" font-family="Arial" font-size="14.00" fill="#666666">[BASE TABLE]</text>
<polygon fill="none" stroke="#000000" points="1724,-484.5 1724,-514.5 1933,-514.5 1933,-484.5 1724,-484.5"/>
<text text-anchor="start" x="1731" y="-495.9" font-family="Arial" font-size="14.00" fill="#000000">course_id </text>
<text text-anchor="start" x="1795.5708" y="-495.9" font-family="Arial" font-size="14.00" fill="#666666">[char(36)]</text>
<polygon fill="none" stroke="#000000" points="1724,-454.5 1724,-484.5 1933,-484.5 1933,-454.5 1724,-454.5"/>
<text text-anchor="start" x="1731" y="-465.9" font-family="Arial" font-size="14.00" fill="#000000">user_id </text>
<text text-anchor="start" x="1780.7882" y="-465.9" font-family="Arial" font-size="14.00" fill="#666666">[char(36)]</text>
<polygon fill="none" stroke="#000000" points="1724,-424.5 1724,-454.5 1933,-454.5 1933,-424.5 1724,-424.5"/>
<text text-anchor="start" x="1731" y="-435.9" font-family="Arial" font-size="14.00" fill="#000000">created_at </text>
<text text-anchor="start" x="1801.028" y="-435.9" font-family="Arial" font-size="14.00" fill="#666666">[datetime(6)]</text>
<polygon fill="none" stroke="#000000" points="1724,-394.5 1724,-424.5 1933,-424.5 1933,-394.5 1724,-394.5"/>
<text text-anchor="start" x="1731" y="-405.9" font-family="Arial" font-size="14.00" fill="#000000">deleted_at </text>
<text text-anchor="start" x="1800.2566" y="-405.9" font-family="Arial" font-size="14.00" fill="#666666">[datetime(6)]</text>
</g>
<!-- registrations&#45;&gt;courses -->
<g id="edge7" class="edge">
<title>registrations:course_id&#45;&gt;courses:id</title>
<path fill="none" stroke="#000000" d="M1713.9544,-498.716C1655.5307,-488.6664 1725.3663,-384.5963 1671,-337 1551.8096,-232.6518 1128.4136,-207.5 970,-207.5"/>
<polygon fill="#000000" stroke="#000000" points="1714.0303,-498.7218 1723.6498,-503.9864 1719.0152,-499.1109 1724,-499.5 1724,-499.5 1724,-499.5 1719.0152,-499.1109 1724.3502,-495.0136 1714.0303,-498.7218 1714.0303,-498.7218"/>
<text text-anchor="start" x="1731.386" y="-509.5" font-family="Arial" font-size="10.00" fill="#000000">FOREIGN KEY (course_id) REFERENCES courses (id)</text>
</g>
</g>
</svg>
