<?xml version="1.0" encoding="UTF-8" standalone="no"?>
<!DOCTYPE svg PUBLIC "-//W3C//DTD SVG 1.1//EN"
 "http://www.w3.org/Graphics/SVG/1.1/DTD/svg11.dtd">
<!-- Generated by graphviz version 2.40.1 (20161225.0304)
 -->
<!-- Title: documents Pages: 1 -->
<svg width="920pt" height="953pt"
 viewBox="0.00 0.00 919.50 953.00" xmlns="http://www.w3.org/2000/svg" xmlns:xlink="http://www.w3.org/1999/xlink">
<g id="graph0" class="graph" transform="scale(1 1) rotate(0) translate(4 949)">
<title>documents</title>
<polygon fill="#ffffff" stroke="transparent" points="-4,4 -4,-949 915.5,-949 915.5,4 -4,4"/>
<!-- documents -->
<g id="node1" class="node">
<title>documents</title>
<polygon fill="#efefef" stroke="transparent" points="46.5,-836.5 46.5,-871.5 245.5,-871.5 245.5,-836.5 46.5,-836.5"/>
<polygon fill="none" stroke="#000000" points="46.5,-836.5 46.5,-871.5 245.5,-871.5 245.5,-836.5 46.5,-836.5"/>
<text text-anchor="start" x="53.3604" y="-849.3" font-family="Arial Bold" font-size="18.00" fill="#000000">documents</text>
<text text-anchor="start" x="141.3858" y="-849.3" font-family="Arial" font-size="14.00" fill="#000000"> </text>
<text text-anchor="start" x="145.2764" y="-849.3" font-family="Arial" font-size="14.00" fill="#666666">[BASE TABLE]</text>
<polygon fill="none" stroke="#000000" points="46.5,-806.5 46.5,-836.5 245.5,-836.5 245.5,-806.5 46.5,-806.5"/>
<text text-anchor="start" x="53.5" y="-817.9" font-family="Arial" font-size="14.00" fill="#000000">id </text>
<text text-anchor="start" x="68.2798" y="-817.9" font-family="Arial" font-size="14.00" fill="#666666">[char(36)]</text>
<polygon fill="none" stroke="#000000" points="46.5,-776.5 46.5,-806.5 245.5,-806.5 245.5,-776.5 46.5,-776.5"/>
<text text-anchor="start" x="53.5" y="-787.9" font-family="Arial" font-size="14.00" fill="#000000">class_id </text>
<text text-anchor="start" x="107.9516" y="-787.9" font-family="Arial" font-size="14.00" fill="#666666">[char(36)]</text>
<polygon fill="none" stroke="#000000" points="46.5,-746.5 46.5,-776.5 245.5,-776.5 245.5,-746.5 46.5,-746.5"/>
<text text-anchor="start" x="53.5" y="-757.9" font-family="Arial" font-size="14.00" fill="#000000">name </text>
<text text-anchor="start" x="92.399" y="-757.9" font-family="Arial" font-size="14.00" fill="#666666">[text]</text>
<polygon fill="none" stroke="#000000" points="46.5,-716.5 46.5,-746.5 245.5,-746.5 245.5,-716.5 46.5,-716.5"/>
<text text-anchor="start" x="53.5" y="-727.9" font-family="Arial" font-size="14.00" fill="#000000">created_at </text>
<text text-anchor="start" x="123.528" y="-727.9" font-family="Arial" font-size="14.00" fill="#666666">[datetime(6)]</text>
<polygon fill="none" stroke="#000000" stroke-width="3" points="44.5,-715.5 44.5,-873.5 246.5,-873.5 246.5,-715.5 44.5,-715.5"/>
</g>
<!-- classes -->
<g id="node2" class="node">
<title>classes</title>
<polygon fill="#efefef" stroke="transparent" points="348.5,-529.5 348.5,-564.5 560.5,-564.5 560.5,-529.5 348.5,-529.5"/>
<polygon fill="none" stroke="#000000" points="348.5,-529.5 348.5,-564.5 560.5,-564.5 560.5,-529.5 348.5,-529.5"/>
<text text-anchor="start" x="375.8698" y="-542.3" font-family="Arial Bold" font-size="18.00" fill="#000000">classes</text>
<text text-anchor="start" x="435.8764" y="-542.3" font-family="Arial" font-size="14.00" fill="#000000"> </text>
<text text-anchor="start" x="439.767" y="-542.3" font-family="Arial" font-size="14.00" fill="#666666">[BASE TABLE]</text>
<polygon fill="none" stroke="#000000" points="348.5,-499.5 348.5,-529.5 560.5,-529.5 560.5,-499.5 348.5,-499.5"/>
<text text-anchor="start" x="355.5" y="-510.9" font-family="Arial" font-size="14.00" fill="#000000">id </text>
<text text-anchor="start" x="370.2798" y="-510.9" font-family="Arial" font-size="14.00" fill="#666666">[char(36)]</text>
<polygon fill="none" stroke="#000000" points="348.5,-469.5 348.5,-499.5 560.5,-499.5 560.5,-469.5 348.5,-469.5"/>
<text text-anchor="start" x="355.5" y="-480.9" font-family="Arial" font-size="14.00" fill="#000000">course_id </text>
<text text-anchor="start" x="420.0708" y="-480.9" font-family="Arial" font-size="14.00" fill="#666666">[char(36)]</text>
<polygon fill="none" stroke="#000000" points="348.5,-439.5 348.5,-469.5 560.5,-469.5 560.5,-439.5 348.5,-439.5"/>
<text text-anchor="start" x="355.5" y="-450.9" font-family="Arial" font-size="14.00" fill="#000000">title </text>
<text text-anchor="start" x="381.1676" y="-450.9" font-family="Arial" font-size="14.00" fill="#666666">[varchar(255)]</text>
<polygon fill="none" stroke="#000000" points="348.5,-409.5 348.5,-439.5 560.5,-439.5 560.5,-409.5 348.5,-409.5"/>
<text text-anchor="start" x="355.5" y="-420.9" font-family="Arial" font-size="14.00" fill="#000000">description </text>
<text text-anchor="start" x="427.068" y="-420.9" font-family="Arial" font-size="14.00" fill="#666666">[text]</text>
<polygon fill="none" stroke="#000000" points="348.5,-379.5 348.5,-409.5 560.5,-409.5 560.5,-379.5 348.5,-379.5"/>
<text text-anchor="start" x="355.3002" y="-390.9" font-family="Arial" font-size="14.00" fill="#000000">attendance_code </text>
<text text-anchor="start" x="466.5806" y="-390.9" font-family="Arial" font-size="14.00" fill="#666666">[varchar(255)]</text>
</g>
<!-- documents&#45;&gt;classes -->
<g id="edge1" class="edge">
<title>documents:class_id&#45;&gt;classes:id</title>
<path fill="none" stroke="#000000" d="M255.4617,-789.1053C308.3541,-762.0316 286.4182,-514.5 348.5,-514.5"/>
<polygon fill="#000000" stroke="#000000" points="255.223,-789.1626 244.4482,-787.1246 250.3615,-790.3313 245.5,-791.5 245.5,-791.5 245.5,-791.5 250.3615,-790.3313 246.5518,-795.8754 255.223,-789.1626 255.223,-789.1626"/>
<text text-anchor="start" x="252.3345" y="-801.5" font-family="Arial" font-size="10.00" fill="#000000">FOREIGN KEY (class_id) REFERENCES classes (id)</text>
</g>
<!-- courses -->
<g id="node5" class="node">
<title>courses</title>
<polygon fill="#efefef" stroke="transparent" points="367.5,-222.5 367.5,-257.5 541.5,-257.5 541.5,-222.5 367.5,-222.5"/>
<polygon fill="none" stroke="#000000" points="367.5,-222.5 367.5,-257.5 541.5,-257.5 541.5,-222.5 367.5,-222.5"/>
<text text-anchor="start" x="374.3677" y="-235.3" font-family="Arial Bold" font-size="18.00" fill="#000000">courses</text>
<text text-anchor="start" x="437.3785" y="-235.3" font-family="Arial" font-size="14.00" fill="#000000"> </text>
<text text-anchor="start" x="441.2691" y="-235.3" font-family="Arial" font-size="14.00" fill="#666666">[BASE TABLE]</text>
<polygon fill="none" stroke="#000000" points="367.5,-192.5 367.5,-222.5 541.5,-222.5 541.5,-192.5 367.5,-192.5"/>
<text text-anchor="start" x="374.5" y="-203.9" font-family="Arial" font-size="14.00" fill="#000000">id </text>
<text text-anchor="start" x="389.2798" y="-203.9" font-family="Arial" font-size="14.00" fill="#666666">[char(36)]</text>
<polygon fill="none" stroke="#000000" points="367.5,-162.5 367.5,-192.5 541.5,-192.5 541.5,-162.5 367.5,-162.5"/>
<text text-anchor="start" x="374.5" y="-173.9" font-family="Arial" font-size="14.00" fill="#000000">name </text>
<text text-anchor="start" x="413.399" y="-173.9" font-family="Arial" font-size="14.00" fill="#666666">[varchar(255)]</text>
<polygon fill="none" stroke="#000000" points="367.5,-132.5 367.5,-162.5 541.5,-162.5 541.5,-132.5 367.5,-132.5"/>
<text text-anchor="start" x="374.5" y="-143.9" font-family="Arial" font-size="14.00" fill="#000000">description </text>
<text text-anchor="start" x="446.068" y="-143.9" font-family="Arial" font-size="14.00" fill="#666666">[text]</text>
<polygon fill="none" stroke="#000000" points="367.5,-102.5 367.5,-132.5 541.5,-132.5 541.5,-102.5 367.5,-102.5"/>
<text text-anchor="start" x="374.5" y="-113.9" font-family="Arial" font-size="14.00" fill="#000000">credit </text>
<text text-anchor="start" x="412.6136" y="-113.9" font-family="Arial" font-size="14.00" fill="#666666">[tinyint unsigned]</text>
<polygon fill="none" stroke="#000000" points="367.5,-72.5 367.5,-102.5 541.5,-102.5 541.5,-72.5 367.5,-72.5"/>
<text text-anchor="start" x="374.5" y="-83.9" font-family="Arial" font-size="14.00" fill="#000000">classroom </text>
<text text-anchor="start" x="442.1662" y="-83.9" font-family="Arial" font-size="14.00" fill="#666666">[varchar(255)]</text>
<polygon fill="none" stroke="#000000" points="367.5,-42.5 367.5,-72.5 541.5,-72.5 541.5,-42.5 367.5,-42.5"/>
<text text-anchor="start" x="374.5" y="-53.9" font-family="Arial" font-size="14.00" fill="#000000">capacity </text>
<text text-anchor="start" x="429.7356" y="-53.9" font-family="Arial" font-size="14.00" fill="#666666">[int unsigned]</text>
</g>
<!-- classes&#45;&gt;courses -->
<g id="edge4" class="edge">
<title>classes:course_id&#45;&gt;courses:id</title>
<path fill="none" stroke="#000000" d="M570.6424,-483.8461C682.7405,-469.0327 661.4056,-207.5 541.5,-207.5"/>
<polygon fill="#000000" stroke="#000000" points="570.4793,-483.8565 560.2104,-480.0093 565.4896,-484.1783 560.5,-484.5 560.5,-484.5 560.5,-484.5 565.4896,-484.1783 560.7896,-488.9907 570.4793,-483.8565 570.4793,-483.8565"/>
<text text-anchor="start" x="567.886" y="-494.5" font-family="Arial" font-size="10.00" fill="#000000">FOREIGN KEY (course_id) REFERENCES courses (id)</text>
</g>
<!-- assignment -->
<g id="node3" class="node">
<title>assignment</title>
<polygon fill="#efefef" stroke="transparent" points="352.5,-866.5 352.5,-901.5 555.5,-901.5 555.5,-866.5 352.5,-866.5"/>
<polygon fill="none" stroke="#000000" points="352.5,-866.5 352.5,-901.5 555.5,-901.5 555.5,-866.5 352.5,-866.5"/>
<text text-anchor="start" x="359.3633" y="-879.3" font-family="Arial Bold" font-size="18.00" fill="#000000">assignment</text>
<text text-anchor="start" x="451.3829" y="-879.3" font-family="Arial" font-size="14.00" fill="#000000"> </text>
<text text-anchor="start" x="455.2735" y="-879.3" font-family="Arial" font-size="14.00" fill="#666666">[BASE TABLE]</text>
<polygon fill="none" stroke="#000000" points="352.5,-836.5 352.5,-866.5 555.5,-866.5 555.5,-836.5 352.5,-836.5"/>
<text text-anchor="start" x="359.5" y="-847.9" font-family="Arial" font-size="14.00" fill="#000000">id </text>
<text text-anchor="start" x="374.2798" y="-847.9" font-family="Arial" font-size="14.00" fill="#666666">[char(36)]</text>
<polygon fill="none" stroke="#000000" points="352.5,-806.5 352.5,-836.5 555.5,-836.5 555.5,-806.5 352.5,-806.5"/>
<text text-anchor="start" x="359.5" y="-817.9" font-family="Arial" font-size="14.00" fill="#000000">class_id </text>
<text text-anchor="start" x="413.9516" y="-817.9" font-family="Arial" font-size="14.00" fill="#666666">[char(36)]</text>
<polygon fill="none" stroke="#000000" points="352.5,-776.5 352.5,-806.5 555.5,-806.5 555.5,-776.5 352.5,-776.5"/>
<text text-anchor="start" x="359.5" y="-787.9" font-family="Arial" font-size="14.00" fill="#000000">name </text>
<text text-anchor="start" x="398.399" y="-787.9" font-family="Arial" font-size="14.00" fill="#666666">[varchar(255)]</text>
<polygon fill="none" stroke="#000000" points="352.5,-746.5 352.5,-776.5 555.5,-776.5 555.5,-746.5 352.5,-746.5"/>
<text text-anchor="start" x="359.5" y="-757.9" font-family="Arial" font-size="14.00" fill="#000000">description </text>
<text text-anchor="start" x="431.068" y="-757.9" font-family="Arial" font-size="14.00" fill="#666666">[text]</text>
<polygon fill="none" stroke="#000000" points="352.5,-716.5 352.5,-746.5 555.5,-746.5 555.5,-716.5 352.5,-716.5"/>
<text text-anchor="start" x="359.5" y="-727.9" font-family="Arial" font-size="14.00" fill="#000000">deadline </text>
<text text-anchor="start" x="416.2994" y="-727.9" font-family="Arial" font-size="14.00" fill="#666666">[datetime(6)]</text>
<polygon fill="none" stroke="#000000" points="352.5,-686.5 352.5,-716.5 555.5,-716.5 555.5,-686.5 352.5,-686.5"/>
<text text-anchor="start" x="359.5" y="-697.9" font-family="Arial" font-size="14.00" fill="#000000">created_at </text>
<text text-anchor="start" x="429.528" y="-697.9" font-family="Arial" font-size="14.00" fill="#666666">[datetime(6)]</text>
</g>
<!-- assignment&#45;&gt;classes -->
<g id="edge2" class="edge">
<title>assignment:class_id&#45;&gt;classes:id</title>
<path fill="none" stroke="#000000" d="M565.4914,-820.8067C631.8177,-811.0914 603.9984,-701.6609 555.5,-644 495.3922,-572.5364 408.6078,-679.4636 348.5,-608 321.7513,-576.1979 306.9444,-514.5 348.5,-514.5"/>
<polygon fill="#000000" stroke="#000000" points="565.476,-820.8077 555.1884,-817.0108 560.488,-821.1538 555.5,-821.5 555.5,-821.5 555.5,-821.5 560.488,-821.1538 555.8116,-825.9892 565.476,-820.8077 565.476,-820.8077"/>
<text text-anchor="start" x="310.3345" y="-831.5" font-family="Arial" font-size="10.00" fill="#000000">FOREIGN KEY (class_id) REFERENCES classes (id)</text>
</g>
<!-- attendances -->
<g id="node4" class="node">
<title>attendances</title>
<polygon fill="#efefef" stroke="transparent" points="659.5,-821.5 659.5,-856.5 868.5,-856.5 868.5,-821.5 659.5,-821.5"/>
<polygon fill="none" stroke="#000000" points="659.5,-821.5 659.5,-856.5 868.5,-856.5 868.5,-821.5 659.5,-821.5"/>
<text text-anchor="start" x="666.3492" y="-834.3" font-family="Arial Bold" font-size="18.00" fill="#000000">attendances</text>
<text text-anchor="start" x="764.397" y="-834.3" font-family="Arial" font-size="14.00" fill="#000000"> </text>
<text text-anchor="start" x="768.2876" y="-834.3" font-family="Arial" font-size="14.00" fill="#666666">[BASE TABLE]</text>
<polygon fill="none" stroke="#000000" points="659.5,-791.5 659.5,-821.5 868.5,-821.5 868.5,-791.5 659.5,-791.5"/>
<text text-anchor="start" x="666.5" y="-802.9" font-family="Arial" font-size="14.00" fill="#000000">class_id </text>
<text text-anchor="start" x="720.9516" y="-802.9" font-family="Arial" font-size="14.00" fill="#666666">[char(36)]</text>
<polygon fill="none" stroke="#000000" points="659.5,-761.5 659.5,-791.5 868.5,-791.5 868.5,-761.5 659.5,-761.5"/>
<text text-anchor="start" x="666.5" y="-772.9" font-family="Arial" font-size="14.00" fill="#000000">user_id </text>
<text text-anchor="start" x="716.2882" y="-772.9" font-family="Arial" font-size="14.00" fill="#666666">[char(36)]</text>
<polygon fill="none" stroke="#000000" points="659.5,-731.5 659.5,-761.5 868.5,-761.5 868.5,-731.5 659.5,-731.5"/>
<text text-anchor="start" x="666.5" y="-742.9" font-family="Arial" font-size="14.00" fill="#000000">created_at </text>
<text text-anchor="start" x="736.528" y="-742.9" font-family="Arial" font-size="14.00" fill="#666666">[datetime(6)]</text>
</g>
<!-- attendances&#45;&gt;classes -->
<g id="edge3" class="edge">
<title>attendances:class_id&#45;&gt;classes:id</title>
<path fill="none" stroke="#000000" d="M649.5181,-804.1496C594.6982,-776.5152 625.4037,-514.5 560.5,-514.5"/>
<polygon fill="#000000" stroke="#000000" points="649.7662,-804.2079 658.4686,-810.8802 654.6331,-805.354 659.5,-806.5 659.5,-806.5 659.5,-806.5 654.6331,-805.354 660.5314,-802.1198 649.7662,-804.2079 649.7662,-804.2079"/>
<text text-anchor="start" x="666.3345" y="-816.5" font-family="Arial" font-size="10.00" fill="#000000">FOREIGN KEY (class_id) REFERENCES classes (id)</text>
</g>
</g>
</svg>
