<?xml version="1.0" encoding="UTF-8" standalone="no"?>
<!DOCTYPE svg PUBLIC "-//W3C//DTD SVG 1.1//EN"
 "http://www.w3.org/Graphics/SVG/1.1/DTD/svg11.dtd">
<!-- Generated by graphviz version 2.40.1 (20161225.0304)
 -->
<!-- Title: documents Pages: 1 -->
<svg width="920pt" height="586pt"
 viewBox="0.00 0.00 919.50 586.00" xmlns="http://www.w3.org/2000/svg" xmlns:xlink="http://www.w3.org/1999/xlink">
<g id="graph0" class="graph" transform="scale(1 1) rotate(0) translate(4 582)">
<title>documents</title>
<polygon fill="#ffffff" stroke="transparent" points="-4,4 -4,-582 915.5,-582 915.5,4 -4,4"/>
<!-- documents -->
<g id="node1" class="node">
<title>documents</title>
<polygon fill="#efefef" stroke="transparent" points="46.5,-469.5 46.5,-504.5 245.5,-504.5 245.5,-469.5 46.5,-469.5"/>
<polygon fill="none" stroke="#000000" points="46.5,-469.5 46.5,-504.5 245.5,-504.5 245.5,-469.5 46.5,-469.5"/>
<text text-anchor="start" x="53.3604" y="-482.3" font-family="Arial Bold" font-size="18.00" fill="#000000">documents</text>
<text text-anchor="start" x="141.3858" y="-482.3" font-family="Arial" font-size="14.00" fill="#000000"> </text>
<text text-anchor="start" x="145.2764" y="-482.3" font-family="Arial" font-size="14.00" fill="#666666">[BASE TABLE]</text>
<polygon fill="none" stroke="#000000" points="46.5,-439.5 46.5,-469.5 245.5,-469.5 245.5,-439.5 46.5,-439.5"/>
<text text-anchor="start" x="53.5" y="-450.9" font-family="Arial" font-size="14.00" fill="#000000">id </text>
<text text-anchor="start" x="68.2798" y="-450.9" font-family="Arial" font-size="14.00" fill="#666666">[char(36)]</text>
<polygon fill="none" stroke="#000000" points="46.5,-409.5 46.5,-439.5 245.5,-439.5 245.5,-409.5 46.5,-409.5"/>
<text text-anchor="start" x="53.5" y="-420.9" font-family="Arial" font-size="14.00" fill="#000000">class_id </text>
<text text-anchor="start" x="107.9516" y="-420.9" font-family="Arial" font-size="14.00" fill="#666666">[char(36)]</text>
<polygon fill="none" stroke="#000000" points="46.5,-379.5 46.5,-409.5 245.5,-409.5 245.5,-379.5 46.5,-379.5"/>
<text text-anchor="start" x="53.5" y="-390.9" font-family="Arial" font-size="14.00" fill="#000000">name </text>
<text text-anchor="start" x="92.399" y="-390.9" font-family="Arial" font-size="14.00" fill="#666666">[text]</text>
<polygon fill="none" stroke="#000000" points="46.5,-349.5 46.5,-379.5 245.5,-379.5 245.5,-349.5 46.5,-349.5"/>
<text text-anchor="start" x="53.5" y="-360.9" font-family="Arial" font-size="14.00" fill="#000000">created_at </text>
<text text-anchor="start" x="123.528" y="-360.9" font-family="Arial" font-size="14.00" fill="#666666">[datetime(6)]</text>
<polygon fill="none" stroke="#000000" stroke-width="3" points="44.5,-348.5 44.5,-506.5 246.5,-506.5 246.5,-348.5 44.5,-348.5"/>
</g>
<!-- classes -->
<g id="node2" class="node">
<title>classes</title>
<polygon fill="#efefef" stroke="transparent" points="368.5,-162.5 368.5,-197.5 539.5,-197.5 539.5,-162.5 368.5,-162.5"/>
<polygon fill="none" stroke="#000000" points="368.5,-162.5 368.5,-197.5 539.5,-197.5 539.5,-162.5 368.5,-162.5"/>
<text text-anchor="start" x="375.3698" y="-175.3" font-family="Arial Bold" font-size="18.00" fill="#000000">classes</text>
<text text-anchor="start" x="435.3764" y="-175.3" font-family="Arial" font-size="14.00" fill="#000000"> </text>
<text text-anchor="start" x="439.267" y="-175.3" font-family="Arial" font-size="14.00" fill="#666666">[BASE TABLE]</text>
<polygon fill="none" stroke="#000000" points="368.5,-132.5 368.5,-162.5 539.5,-162.5 539.5,-132.5 368.5,-132.5"/>
<text text-anchor="start" x="375.5" y="-143.9" font-family="Arial" font-size="14.00" fill="#000000">id </text>
<text text-anchor="start" x="390.2798" y="-143.9" font-family="Arial" font-size="14.00" fill="#666666">[char(36)]</text>
<polygon fill="none" stroke="#000000" points="368.5,-102.5 368.5,-132.5 539.5,-132.5 539.5,-102.5 368.5,-102.5"/>
<text text-anchor="start" x="375.5" y="-113.9" font-family="Arial" font-size="14.00" fill="#000000">title </text>
<text text-anchor="start" x="401.1676" y="-113.9" font-family="Arial" font-size="14.00" fill="#666666">[varchar(255)]</text>
<polygon fill="none" stroke="#000000" points="368.5,-72.5 368.5,-102.5 539.5,-102.5 539.5,-72.5 368.5,-72.5"/>
<text text-anchor="start" x="375.5" y="-83.9" font-family="Arial" font-size="14.00" fill="#000000">description </text>
<text text-anchor="start" x="447.068" y="-83.9" font-family="Arial" font-size="14.00" fill="#666666">[text]</text>
<polygon fill="none" stroke="#000000" points="368.5,-42.5 368.5,-72.5 539.5,-72.5 539.5,-42.5 368.5,-42.5"/>
<text text-anchor="start" x="375.5" y="-53.9" font-family="Arial" font-size="14.00" fill="#000000">attendance_code </text>
<text text-anchor="start" x="486.7804" y="-53.9" font-family="Arial" font-size="14.00" fill="#666666">[tinyint]</text>
</g>
<!-- documents&#45;&gt;classes -->
<g id="edge1" class="edge">
<title>documents:class_id&#45;&gt;classes:id</title>
<path fill="none" stroke="#000000" d="M255.6197,-423.8164C310.8416,-415.7212 272.5199,-337.3751 299.5,-277 326.1074,-217.459 303.2843,-147.5 368.5,-147.5"/>
<polygon fill="#000000" stroke="#000000" points="255.4773,-423.8259 245.1967,-420.0102 250.4886,-424.163 245.5,-424.5 245.5,-424.5 245.5,-424.5 250.4886,-424.163 245.8033,-428.9898 255.4773,-423.8259 255.4773,-423.8259"/>
<text text-anchor="start" x="252.3345" y="-434.5" font-family="Arial" font-size="10.00" fill="#000000">FOREIGN KEY (class_id) REFERENCES classes (id)</text>
</g>
<!-- assignment -->
<g id="node3" class="node">
<title>assignment</title>
<polygon fill="#efefef" stroke="transparent" points="352.5,-499.5 352.5,-534.5 555.5,-534.5 555.5,-499.5 352.5,-499.5"/>
<polygon fill="none" stroke="#000000" points="352.5,-499.5 352.5,-534.5 555.5,-534.5 555.5,-499.5 352.5,-499.5"/>
<text text-anchor="start" x="359.3633" y="-512.3" font-family="Arial Bold" font-size="18.00" fill="#000000">assignment</text>
<text text-anchor="start" x="451.3829" y="-512.3" font-family="Arial" font-size="14.00" fill="#000000"> </text>
<text text-anchor="start" x="455.2735" y="-512.3" font-family="Arial" font-size="14.00" fill="#666666">[BASE TABLE]</text>
<polygon fill="none" stroke="#000000" points="352.5,-469.5 352.5,-499.5 555.5,-499.5 555.5,-469.5 352.5,-469.5"/>
<text text-anchor="start" x="359.5" y="-480.9" font-family="Arial" font-size="14.00" fill="#000000">id </text>
<text text-anchor="start" x="374.2798" y="-480.9" font-family="Arial" font-size="14.00" fill="#666666">[char(36)]</text>
<polygon fill="none" stroke="#000000" points="352.5,-439.5 352.5,-469.5 555.5,-469.5 555.5,-439.5 352.5,-439.5"/>
<text text-anchor="start" x="359.5" y="-450.9" font-family="Arial" font-size="14.00" fill="#000000">class_id </text>
<text text-anchor="start" x="413.9516" y="-450.9" font-family="Arial" font-size="14.00" fill="#666666">[char(36)]</text>
<polygon fill="none" stroke="#000000" points="352.5,-409.5 352.5,-439.5 555.5,-439.5 555.5,-409.5 352.5,-409.5"/>
<text text-anchor="start" x="359.5" y="-420.9" font-family="Arial" font-size="14.00" fill="#000000">name </text>
<text text-anchor="start" x="398.399" y="-420.9" font-family="Arial" font-size="14.00" fill="#666666">[varchar(255)]</text>
<polygon fill="none" stroke="#000000" points="352.5,-379.5 352.5,-409.5 555.5,-409.5 555.5,-379.5 352.5,-379.5"/>
<text text-anchor="start" x="359.5" y="-390.9" font-family="Arial" font-size="14.00" fill="#000000">description </text>
<text text-anchor="start" x="431.068" y="-390.9" font-family="Arial" font-size="14.00" fill="#666666">[text]</text>
<polygon fill="none" stroke="#000000" points="352.5,-349.5 352.5,-379.5 555.5,-379.5 555.5,-349.5 352.5,-349.5"/>
<text text-anchor="start" x="359.5" y="-360.9" font-family="Arial" font-size="14.00" fill="#000000">deadline </text>
<text text-anchor="start" x="416.2994" y="-360.9" font-family="Arial" font-size="14.00" fill="#666666">[datetime(6)]</text>
<polygon fill="none" stroke="#000000" points="352.5,-319.5 352.5,-349.5 555.5,-349.5 555.5,-319.5 352.5,-319.5"/>
<text text-anchor="start" x="359.5" y="-330.9" font-family="Arial" font-size="14.00" fill="#000000">created_at </text>
<text text-anchor="start" x="429.528" y="-330.9" font-family="Arial" font-size="14.00" fill="#666666">[datetime(6)]</text>
</g>
<!-- assignment&#45;&gt;classes -->
<g id="edge2" class="edge">
<title>assignment:class_id&#45;&gt;classes:id</title>
<path fill="none" stroke="#000000" d="M342.7408,-452.2054C285.9451,-424.112 303.6543,-147.5 368.5,-147.5"/>
<polygon fill="#000000" stroke="#000000" points="342.7655,-452.2111 351.47,-458.8805 347.6327,-453.3556 352.5,-454.5 352.5,-454.5 352.5,-454.5 347.6327,-453.3556 353.53,-450.1195 342.7655,-452.2111 342.7655,-452.2111"/>
<text text-anchor="start" x="359.3345" y="-464.5" font-family="Arial" font-size="10.00" fill="#000000">FOREIGN KEY (class_id) REFERENCES classes (id)</text>
</g>
<!-- attendances -->
<g id="node4" class="node">
<title>attendances</title>
<polygon fill="#efefef" stroke="transparent" points="659.5,-454.5 659.5,-489.5 868.5,-489.5 868.5,-454.5 659.5,-454.5"/>
<polygon fill="none" stroke="#000000" points="659.5,-454.5 659.5,-489.5 868.5,-489.5 868.5,-454.5 659.5,-454.5"/>
<text text-anchor="start" x="666.3492" y="-467.3" font-family="Arial Bold" font-size="18.00" fill="#000000">attendances</text>
<text text-anchor="start" x="764.397" y="-467.3" font-family="Arial" font-size="14.00" fill="#000000"> </text>
<text text-anchor="start" x="768.2876" y="-467.3" font-family="Arial" font-size="14.00" fill="#666666">[BASE TABLE]</text>
<polygon fill="none" stroke="#000000" points="659.5,-424.5 659.5,-454.5 868.5,-454.5 868.5,-424.5 659.5,-424.5"/>
<text text-anchor="start" x="666.5" y="-435.9" font-family="Arial" font-size="14.00" fill="#000000">class_id </text>
<text text-anchor="start" x="720.9516" y="-435.9" font-family="Arial" font-size="14.00" fill="#666666">[char(36)]</text>
<polygon fill="none" stroke="#000000" points="659.5,-394.5 659.5,-424.5 868.5,-424.5 868.5,-394.5 659.5,-394.5"/>
<text text-anchor="start" x="666.5" y="-405.9" font-family="Arial" font-size="14.00" fill="#000000">user_id </text>
<text text-anchor="start" x="716.2882" y="-405.9" font-family="Arial" font-size="14.00" fill="#666666">[char(36)]</text>
<polygon fill="none" stroke="#000000" points="659.5,-364.5 659.5,-394.5 868.5,-394.5 868.5,-364.5 659.5,-364.5"/>
<text text-anchor="start" x="666.5" y="-375.9" font-family="Arial" font-size="14.00" fill="#000000">created_at </text>
<text text-anchor="start" x="736.528" y="-375.9" font-family="Arial" font-size="14.00" fill="#666666">[datetime(6)]</text>
</g>
<!-- attendances&#45;&gt;classes -->
<g id="edge3" class="edge">
<title>attendances:class_id&#45;&gt;classes:id</title>
<path fill="none" stroke="#000000" d="M649.2898,-438.8514C588.6614,-430.5152 635.3625,-343.5284 607.5,-277 582.3877,-217.0384 604.5079,-147.5 539.5,-147.5"/>
<polygon fill="#000000" stroke="#000000" points="649.5201,-438.8659 659.2147,-443.9909 654.5101,-439.183 659.5,-439.5 659.5,-439.5 659.5,-439.5 654.5101,-439.183 659.7853,-435.0091 649.5201,-438.8659 649.5201,-438.8659"/>
<text text-anchor="start" x="666.3345" y="-449.5" font-family="Arial" font-size="10.00" fill="#000000">FOREIGN KEY (class_id) REFERENCES classes (id)</text>
</g>
</g>
</svg>
