<?xml version="1.0" encoding="UTF-8" standalone="no"?>
<!DOCTYPE svg PUBLIC "-//W3C//DTD SVG 1.1//EN"
 "http://www.w3.org/Graphics/SVG/1.1/DTD/svg11.dtd">
<!-- Generated by graphviz version 2.40.1 (20161225.0304)
 -->
<!-- Title: documents Pages: 1 -->
<svg width="930pt" height="953pt"
 viewBox="0.00 0.00 929.50 953.00" xmlns="http://www.w3.org/2000/svg" xmlns:xlink="http://www.w3.org/1999/xlink">
<g id="graph0" class="graph" transform="scale(1 1) rotate(0) translate(4 949)">
<title>documents</title>
<polygon fill="#ffffff" stroke="transparent" points="-4,4 -4,-949 925.5,-949 925.5,4 -4,4"/>
<!-- documents -->
<g id="node1" class="node">
<title>documents</title>
<polygon fill="#efefef" stroke="transparent" points="46.5,-836.5 46.5,-871.5 245.5,-871.5 245.5,-836.5 46.5,-836.5"/>
<polygon fill="none" stroke="#000000" points="46.5,-836.5 46.5,-871.5 245.5,-871.5 245.5,-836.5 46.5,-836.5"/>
<text text-anchor="start" x="53.3604" y="-849.3" font-family="Arial Bold" font-size="18.00" fill="#000000">documents</text>
<text text-anchor="start" x="141.3858" y="-849.3" font-family="Arial" font-size="14.00" fill="#000000"> </text>
<text text-anchor="start" x="145.2764" y="-849.3" font-family="Arial" font-size="14.00" fill="#666666">[BASE TABLE]</text>
<polygon fill="none" stroke="#000000" points="46.5,-806.5 46.5,-836.5 245.5,-836.5 245.5,-806.5 46.5,-806.5"/>
<text text-anchor="start" x="53.5" y="-817.9" font-family="Arial" font-size="14.00" fill="#000000">id </text>
<text text-anchor="start" x="68.2798" y="-817.9" font-family="Arial" font-size="14.00" fill="#666666">[char(36)]</text>
<polygon fill="none" stroke="#000000" points="46.5,-776.5 46.5,-806.5 245.5,-806.5 245.5,-776.5 46.5,-776.5"/>
<text text-anchor="start" x="53.5" y="-787.9" font-family="Arial" font-size="14.00" fill="#000000">class_id </text>
<text text-anchor="start" x="107.9516" y="-787.9" font-family="Arial" font-size="14.00" fill="#666666">[char(36)]</text>
<polygon fill="none" stroke="#000000" points="46.5,-746.5 46.5,-776.5 245.5,-776.5 245.5,-746.5 46.5,-746.5"/>
<text text-anchor="start" x="53.5" y="-757.9" font-family="Arial" font-size="14.00" fill="#000000">name </text>
<text text-anchor="start" x="92.399" y="-757.9" font-family="Arial" font-size="14.00" fill="#666666">[text]</text>
<polygon fill="none" stroke="#000000" points="46.5,-716.5 46.5,-746.5 245.5,-746.5 245.5,-716.5 46.5,-716.5"/>
<text text-anchor="start" x="53.5" y="-727.9" font-family="Arial" font-size="14.00" fill="#000000">created_at </text>
<text text-anchor="start" x="123.528" y="-727.9" font-family="Arial" font-size="14.00" fill="#666666">[datetime(6)]</text>
<polygon fill="none" stroke="#000000" stroke-width="3" points="44.5,-715.5 44.5,-873.5 246.5,-873.5 246.5,-715.5 44.5,-715.5"/>
</g>
<!-- classes -->
<g id="node2" class="node">
<title>classes</title>
<polygon fill="#efefef" stroke="transparent" points="352.5,-529.5 352.5,-564.5 564.5,-564.5 564.5,-529.5 352.5,-529.5"/>
<polygon fill="none" stroke="#000000" points="352.5,-529.5 352.5,-564.5 564.5,-564.5 564.5,-529.5 352.5,-529.5"/>
<text text-anchor="start" x="379.8698" y="-542.3" font-family="Arial Bold" font-size="18.00" fill="#000000">classes</text>
<text text-anchor="start" x="439.8764" y="-542.3" font-family="Arial" font-size="14.00" fill="#000000"> </text>
<text text-anchor="start" x="443.767" y="-542.3" font-family="Arial" font-size="14.00" fill="#666666">[BASE TABLE]</text>
<polygon fill="none" stroke="#000000" points="352.5,-499.5 352.5,-529.5 564.5,-529.5 564.5,-499.5 352.5,-499.5"/>
<text text-anchor="start" x="359.5" y="-510.9" font-family="Arial" font-size="14.00" fill="#000000">id </text>
<text text-anchor="start" x="374.2798" y="-510.9" font-family="Arial" font-size="14.00" fill="#666666">[char(36)]</text>
<polygon fill="none" stroke="#000000" points="352.5,-469.5 352.5,-499.5 564.5,-499.5 564.5,-469.5 352.5,-469.5"/>
<text text-anchor="start" x="359.5" y="-480.9" font-family="Arial" font-size="14.00" fill="#000000">course_id </text>
<text text-anchor="start" x="424.0708" y="-480.9" font-family="Arial" font-size="14.00" fill="#666666">[char(36)]</text>
<polygon fill="none" stroke="#000000" points="352.5,-439.5 352.5,-469.5 564.5,-469.5 564.5,-439.5 352.5,-439.5"/>
<text text-anchor="start" x="359.5" y="-450.9" font-family="Arial" font-size="14.00" fill="#000000">title </text>
<text text-anchor="start" x="385.1676" y="-450.9" font-family="Arial" font-size="14.00" fill="#666666">[varchar(255)]</text>
<polygon fill="none" stroke="#000000" points="352.5,-409.5 352.5,-439.5 564.5,-439.5 564.5,-409.5 352.5,-409.5"/>
<text text-anchor="start" x="359.5" y="-420.9" font-family="Arial" font-size="14.00" fill="#000000">description </text>
<text text-anchor="start" x="431.068" y="-420.9" font-family="Arial" font-size="14.00" fill="#666666">[text]</text>
<polygon fill="none" stroke="#000000" points="352.5,-379.5 352.5,-409.5 564.5,-409.5 564.5,-379.5 352.5,-379.5"/>
<text text-anchor="start" x="359.3002" y="-390.9" font-family="Arial" font-size="14.00" fill="#000000">attendance_code </text>
<text text-anchor="start" x="470.5806" y="-390.9" font-family="Arial" font-size="14.00" fill="#666666">[varchar(255)]</text>
</g>
<!-- documents&#45;&gt;classes -->
<g id="edge1" class="edge">
<title>documents:class_id&#45;&gt;classes:id</title>
<path fill="none" stroke="#000000" d="M255.5398,-789.1053C309.0286,-762.0316 290.1203,-514.5 352.5,-514.5"/>
<polygon fill="#000000" stroke="#000000" points="255.2271,-789.1798 244.4559,-787.1228 250.3636,-790.3399 245.5,-791.5 245.5,-791.5 245.5,-791.5 250.3636,-790.3399 246.5441,-795.8772 255.2271,-789.1798 255.2271,-789.1798"/>
<text text-anchor="start" x="252.3345" y="-801.5" font-family="Arial" font-size="10.00" fill="#000000">FOREIGN KEY (class_id) REFERENCES classes (id)</text>
</g>
<!-- courses -->
<g id="node5" class="node">
<title>courses</title>
<polygon fill="#efefef" stroke="transparent" points="371.5,-222.5 371.5,-257.5 545.5,-257.5 545.5,-222.5 371.5,-222.5"/>
<polygon fill="none" stroke="#000000" points="371.5,-222.5 371.5,-257.5 545.5,-257.5 545.5,-222.5 371.5,-222.5"/>
<text text-anchor="start" x="378.3677" y="-235.3" font-family="Arial Bold" font-size="18.00" fill="#000000">courses</text>
<text text-anchor="start" x="441.3785" y="-235.3" font-family="Arial" font-size="14.00" fill="#000000"> </text>
<text text-anchor="start" x="445.2691" y="-235.3" font-family="Arial" font-size="14.00" fill="#666666">[BASE TABLE]</text>
<polygon fill="none" stroke="#000000" points="371.5,-192.5 371.5,-222.5 545.5,-222.5 545.5,-192.5 371.5,-192.5"/>
<text text-anchor="start" x="378.5" y="-203.9" font-family="Arial" font-size="14.00" fill="#000000">id </text>
<text text-anchor="start" x="393.2798" y="-203.9" font-family="Arial" font-size="14.00" fill="#666666">[char(36)]</text>
<polygon fill="none" stroke="#000000" points="371.5,-162.5 371.5,-192.5 545.5,-192.5 545.5,-162.5 371.5,-162.5"/>
<text text-anchor="start" x="378.5" y="-173.9" font-family="Arial" font-size="14.00" fill="#000000">name </text>
<text text-anchor="start" x="417.399" y="-173.9" font-family="Arial" font-size="14.00" fill="#666666">[varchar(255)]</text>
<polygon fill="none" stroke="#000000" points="371.5,-132.5 371.5,-162.5 545.5,-162.5 545.5,-132.5 371.5,-132.5"/>
<text text-anchor="start" x="378.5" y="-143.9" font-family="Arial" font-size="14.00" fill="#000000">description </text>
<text text-anchor="start" x="450.068" y="-143.9" font-family="Arial" font-size="14.00" fill="#666666">[text]</text>
<polygon fill="none" stroke="#000000" points="371.5,-102.5 371.5,-132.5 545.5,-132.5 545.5,-102.5 371.5,-102.5"/>
<text text-anchor="start" x="378.5" y="-113.9" font-family="Arial" font-size="14.00" fill="#000000">credit </text>
<text text-anchor="start" x="416.6136" y="-113.9" font-family="Arial" font-size="14.00" fill="#666666">[tinyint unsigned]</text>
<polygon fill="none" stroke="#000000" points="371.5,-72.5 371.5,-102.5 545.5,-102.5 545.5,-72.5 371.5,-72.5"/>
<text text-anchor="start" x="378.5" y="-83.9" font-family="Arial" font-size="14.00" fill="#000000">classroom </text>
<text text-anchor="start" x="446.1662" y="-83.9" font-family="Arial" font-size="14.00" fill="#666666">[varchar(255)]</text>
<polygon fill="none" stroke="#000000" points="371.5,-42.5 371.5,-72.5 545.5,-72.5 545.5,-42.5 371.5,-42.5"/>
<text text-anchor="start" x="378.5" y="-53.9" font-family="Arial" font-size="14.00" fill="#000000">capacity </text>
<text text-anchor="start" x="433.7356" y="-53.9" font-family="Arial" font-size="14.00" fill="#666666">[int unsigned]</text>
</g>
<!-- classes&#45;&gt;courses -->
<g id="edge4" class="edge">
<title>classes:course_id&#45;&gt;courses:id</title>
<path fill="none" stroke="#000000" d="M574.6424,-483.8461C686.7405,-469.0327 665.4056,-207.5 545.5,-207.5"/>
<polygon fill="#000000" stroke="#000000" points="574.4793,-483.8565 564.2104,-480.0093 569.4896,-484.1783 564.5,-484.5 564.5,-484.5 564.5,-484.5 569.4896,-484.1783 564.7896,-488.9907 574.4793,-483.8565 574.4793,-483.8565"/>
<text text-anchor="start" x="571.886" y="-494.5" font-family="Arial" font-size="10.00" fill="#000000">FOREIGN KEY (course_id) REFERENCES courses (id)</text>
</g>
<!-- assignments -->
<g id="node3" class="node">
<title>assignments</title>
<polygon fill="#efefef" stroke="transparent" points="352.5,-866.5 352.5,-901.5 564.5,-901.5 564.5,-866.5 352.5,-866.5"/>
<polygon fill="none" stroke="#000000" points="352.5,-866.5 352.5,-901.5 564.5,-901.5 564.5,-866.5 352.5,-866.5"/>
<text text-anchor="start" x="359.3633" y="-879.3" font-family="Arial Bold" font-size="18.00" fill="#000000">assignments</text>
<text text-anchor="start" x="460.3829" y="-879.3" font-family="Arial" font-size="14.00" fill="#000000"> </text>
<text text-anchor="start" x="464.2735" y="-879.3" font-family="Arial" font-size="14.00" fill="#666666">[BASE TABLE]</text>
<polygon fill="none" stroke="#000000" points="352.5,-836.5 352.5,-866.5 564.5,-866.5 564.5,-836.5 352.5,-836.5"/>
<text text-anchor="start" x="359.5" y="-847.9" font-family="Arial" font-size="14.00" fill="#000000">id </text>
<text text-anchor="start" x="374.2798" y="-847.9" font-family="Arial" font-size="14.00" fill="#666666">[char(36)]</text>
<polygon fill="none" stroke="#000000" points="352.5,-806.5 352.5,-836.5 564.5,-836.5 564.5,-806.5 352.5,-806.5"/>
<text text-anchor="start" x="359.5" y="-817.9" font-family="Arial" font-size="14.00" fill="#000000">class_id </text>
<text text-anchor="start" x="413.9516" y="-817.9" font-family="Arial" font-size="14.00" fill="#666666">[char(36)]</text>
<polygon fill="none" stroke="#000000" points="352.5,-776.5 352.5,-806.5 564.5,-806.5 564.5,-776.5 352.5,-776.5"/>
<text text-anchor="start" x="359.5" y="-787.9" font-family="Arial" font-size="14.00" fill="#000000">name </text>
<text text-anchor="start" x="398.399" y="-787.9" font-family="Arial" font-size="14.00" fill="#666666">[varchar(255)]</text>
<polygon fill="none" stroke="#000000" points="352.5,-746.5 352.5,-776.5 564.5,-776.5 564.5,-746.5 352.5,-746.5"/>
<text text-anchor="start" x="359.5" y="-757.9" font-family="Arial" font-size="14.00" fill="#000000">description </text>
<text text-anchor="start" x="431.068" y="-757.9" font-family="Arial" font-size="14.00" fill="#666666">[text]</text>
<polygon fill="none" stroke="#000000" points="352.5,-716.5 352.5,-746.5 564.5,-746.5 564.5,-716.5 352.5,-716.5"/>
<text text-anchor="start" x="359.5" y="-727.9" font-family="Arial" font-size="14.00" fill="#000000">deadline </text>
<text text-anchor="start" x="416.2994" y="-727.9" font-family="Arial" font-size="14.00" fill="#666666">[datetime(6)]</text>
<polygon fill="none" stroke="#000000" points="352.5,-686.5 352.5,-716.5 564.5,-716.5 564.5,-686.5 352.5,-686.5"/>
<text text-anchor="start" x="359.5" y="-697.9" font-family="Arial" font-size="14.00" fill="#000000">created_at </text>
<text text-anchor="start" x="429.528" y="-697.9" font-family="Arial" font-size="14.00" fill="#666666">[datetime(6)]</text>
</g>
<!-- assignments&#45;&gt;classes -->
<g id="edge2" class="edge">
<title>assignments:class_id&#45;&gt;classes:id</title>
<path fill="none" stroke="#000000" d="M574.3654,-819.2054C632.5463,-791.112 629.2578,-514.5 564.5,-514.5"/>
<polygon fill="#000000" stroke="#000000" points="574.24,-819.2345 563.4805,-817.117 569.37,-820.3672 564.5,-821.5 564.5,-821.5 564.5,-821.5 569.37,-820.3672 565.5195,-825.883 574.24,-819.2345 574.24,-819.2345"/>
<text text-anchor="start" x="319.3345" y="-831.5" font-family="Arial" font-size="10.00" fill="#000000">FOREIGN KEY (class_id) REFERENCES classes (id)</text>
</g>
<!-- attendances -->
<g id="node4" class="node">
<title>attendances</title>
<polygon fill="#efefef" stroke="transparent" points="669.5,-821.5 669.5,-856.5 878.5,-856.5 878.5,-821.5 669.5,-821.5"/>
<polygon fill="none" stroke="#000000" points="669.5,-821.5 669.5,-856.5 878.5,-856.5 878.5,-821.5 669.5,-821.5"/>
<text text-anchor="start" x="676.3492" y="-834.3" font-family="Arial Bold" font-size="18.00" fill="#000000">attendances</text>
<text text-anchor="start" x="774.397" y="-834.3" font-family="Arial" font-size="14.00" fill="#000000"> </text>
<text text-anchor="start" x="778.2876" y="-834.3" font-family="Arial" font-size="14.00" fill="#666666">[BASE TABLE]</text>
<polygon fill="none" stroke="#000000" points="669.5,-791.5 669.5,-821.5 878.5,-821.5 878.5,-791.5 669.5,-791.5"/>
<text text-anchor="start" x="676.5" y="-802.9" font-family="Arial" font-size="14.00" fill="#000000">class_id </text>
<text text-anchor="start" x="730.9516" y="-802.9" font-family="Arial" font-size="14.00" fill="#666666">[char(36)]</text>
<polygon fill="none" stroke="#000000" points="669.5,-761.5 669.5,-791.5 878.5,-791.5 878.5,-761.5 669.5,-761.5"/>
<text text-anchor="start" x="676.5" y="-772.9" font-family="Arial" font-size="14.00" fill="#000000">user_id </text>
<text text-anchor="start" x="726.2882" y="-772.9" font-family="Arial" font-size="14.00" fill="#666666">[char(36)]</text>
<polygon fill="none" stroke="#000000" points="669.5,-731.5 669.5,-761.5 878.5,-761.5 878.5,-731.5 669.5,-731.5"/>
<text text-anchor="start" x="676.5" y="-742.9" font-family="Arial" font-size="14.00" fill="#000000">created_at </text>
<text text-anchor="start" x="746.528" y="-742.9" font-family="Arial" font-size="14.00" fill="#666666">[datetime(6)]</text>
</g>
<!-- attendances&#45;&gt;classes -->
<g id="edge3" class="edge">
<title>attendances:class_id&#45;&gt;classes:id</title>
<path fill="none" stroke="#000000" d="M659.242,-805.8613C598.1316,-797.6503 641.1788,-711.9122 616.5,-644 595.3168,-585.7073 626.5223,-514.5 564.5,-514.5"/>
<polygon fill="#000000" stroke="#000000" points="659.5193,-805.8785 669.2203,-810.9913 664.5097,-806.1892 669.5,-806.5 669.5,-806.5 669.5,-806.5 664.5097,-806.1892 669.7797,-802.0087 659.5193,-805.8785 659.5193,-805.8785"/>
<text text-anchor="start" x="676.3345" y="-816.5" font-family="Arial" font-size="10.00" fill="#000000">FOREIGN KEY (class_id) REFERENCES classes (id)</text>
</g>
</g>
</svg>
