<?xml version="1.0" encoding="UTF-8" standalone="no"?>
<!DOCTYPE svg PUBLIC "-//W3C//DTD SVG 1.1//EN"
 "http://www.w3.org/Graphics/SVG/1.1/DTD/svg11.dtd">
<!-- Generated by graphviz version 2.40.1 (20161225.0304)
 -->
<!-- Title: grades Pages: 1 -->
<svg width="3021pt" height="616pt"
 viewBox="0.00 0.00 3020.50 616.00" xmlns="http://www.w3.org/2000/svg" xmlns:xlink="http://www.w3.org/1999/xlink">
<g id="graph0" class="graph" transform="scale(1 1) rotate(0) translate(4 612)">
<title>grades</title>
<polygon fill="#ffffff" stroke="transparent" points="-4,4 -4,-612 3016.5,-612 3016.5,4 -4,4"/>
<!-- grades -->
<g id="node1" class="node">
<title>grades</title>
<polygon fill="#efefef" stroke="transparent" points="1396.5,-514.5 1396.5,-549.5 1562.5,-549.5 1562.5,-514.5 1396.5,-514.5"/>
<polygon fill="none" stroke="#000000" points="1396.5,-514.5 1396.5,-549.5 1562.5,-549.5 1562.5,-514.5 1396.5,-514.5"/>
<text text-anchor="start" x="1403.3646" y="-527.3" font-family="Arial Bold" font-size="18.00" fill="#000000">grades</text>
<text text-anchor="start" x="1458.3816" y="-527.3" font-family="Arial" font-size="14.00" fill="#000000"> </text>
<text text-anchor="start" x="1462.2722" y="-527.3" font-family="Arial" font-size="14.00" fill="#666666">[BASE TABLE]</text>
<polygon fill="none" stroke="#000000" points="1396.5,-484.5 1396.5,-514.5 1562.5,-514.5 1562.5,-484.5 1396.5,-484.5"/>
<text text-anchor="start" x="1403.5" y="-495.9" font-family="Arial" font-size="14.00" fill="#000000">id </text>
<text text-anchor="start" x="1418.2798" y="-495.9" font-family="Arial" font-size="14.00" fill="#666666">[char(36)]</text>
<polygon fill="none" stroke="#000000" points="1396.5,-454.5 1396.5,-484.5 1562.5,-484.5 1562.5,-454.5 1396.5,-454.5"/>
<text text-anchor="start" x="1403.5" y="-465.9" font-family="Arial" font-size="14.00" fill="#000000">user_id </text>
<text text-anchor="start" x="1453.2882" y="-465.9" font-family="Arial" font-size="14.00" fill="#666666">[char(36)]</text>
<polygon fill="none" stroke="#000000" points="1396.5,-424.5 1396.5,-454.5 1562.5,-454.5 1562.5,-424.5 1396.5,-424.5"/>
<text text-anchor="start" x="1403.5" y="-435.9" font-family="Arial" font-size="14.00" fill="#000000">course_id </text>
<text text-anchor="start" x="1468.0708" y="-435.9" font-family="Arial" font-size="14.00" fill="#666666">[char(36)]</text>
<polygon fill="none" stroke="#000000" points="1396.5,-394.5 1396.5,-424.5 1562.5,-424.5 1562.5,-394.5 1396.5,-394.5"/>
<text text-anchor="start" x="1403.5" y="-405.9" font-family="Arial" font-size="14.00" fill="#000000">grade </text>
<text text-anchor="start" x="1443.1816" y="-405.9" font-family="Arial" font-size="14.00" fill="#666666">[int unsigned]</text>
<polygon fill="none" stroke="#000000" stroke-width="3" points="1395,-393.5 1395,-551.5 1564,-551.5 1564,-393.5 1395,-393.5"/>
</g>
<!-- users -->
<g id="node2" class="node">
<title>users</title>
<polygon fill="#efefef" stroke="transparent" points="723.5,-207.5 723.5,-242.5 925.5,-242.5 925.5,-207.5 723.5,-207.5"/>
<polygon fill="none" stroke="#000000" points="723.5,-207.5 723.5,-242.5 925.5,-242.5 925.5,-207.5 723.5,-207.5"/>
<text text-anchor="start" x="753.8708" y="-220.3" font-family="Arial Bold" font-size="18.00" fill="#000000">users</text>
<text text-anchor="start" x="797.8754" y="-220.3" font-family="Arial" font-size="14.00" fill="#000000"> </text>
<text text-anchor="start" x="801.766" y="-220.3" font-family="Arial" font-size="14.00" fill="#666666">[BASE TABLE]</text>
<polygon fill="none" stroke="#000000" points="723.5,-177.5 723.5,-207.5 925.5,-207.5 925.5,-177.5 723.5,-177.5"/>
<text text-anchor="start" x="730.5" y="-188.9" font-family="Arial" font-size="14.00" fill="#000000">id </text>
<text text-anchor="start" x="745.2798" y="-188.9" font-family="Arial" font-size="14.00" fill="#666666">[char(36)]</text>
<polygon fill="none" stroke="#000000" points="723.5,-147.5 723.5,-177.5 925.5,-177.5 925.5,-147.5 723.5,-147.5"/>
<text text-anchor="start" x="730.5" y="-158.9" font-family="Arial" font-size="14.00" fill="#000000">name </text>
<text text-anchor="start" x="769.399" y="-158.9" font-family="Arial" font-size="14.00" fill="#666666">[varchar(255)]</text>
<polygon fill="none" stroke="#000000" points="723.5,-117.5 723.5,-147.5 925.5,-147.5 925.5,-117.5 723.5,-117.5"/>
<text text-anchor="start" x="730.5" y="-128.9" font-family="Arial" font-size="14.00" fill="#000000">mail_address </text>
<text text-anchor="start" x="817.6206" y="-128.9" font-family="Arial" font-size="14.00" fill="#666666">[varchar(255)]</text>
<polygon fill="none" stroke="#000000" points="723.5,-87.5 723.5,-117.5 925.5,-117.5 925.5,-87.5 723.5,-87.5"/>
<text text-anchor="start" x="730.3668" y="-98.9" font-family="Arial" font-size="14.00" fill="#000000">hashed_password </text>
<text text-anchor="start" x="847.8506" y="-98.9" font-family="Arial" font-size="14.00" fill="#666666">[binary(60)]</text>
<polygon fill="none" stroke="#000000" points="723.5,-57.5 723.5,-87.5 925.5,-87.5 925.5,-57.5 723.5,-57.5"/>
<text text-anchor="start" x="730.5" y="-68.9" font-family="Arial" font-size="14.00" fill="#000000">type </text>
<text text-anchor="start" x="760.8464" y="-68.9" font-family="Arial" font-size="14.00" fill="#666666">[enum(&#39;student&#39;,&#39;faculty&#39;)]</text>
</g>
<!-- grades&#45;&gt;users -->
<g id="edge1" class="edge">
<title>grades:user_id&#45;&gt;users:id</title>
<path fill="none" stroke="#000000" d="M1386.4725,-468.6126C1338.8546,-459.2522 1385.1801,-378.1706 1341.5,-337 1199.0704,-202.7532 1121.2253,-192.5 925.5,-192.5"/>
<polygon fill="#000000" stroke="#000000" points="1386.5389,-468.6184 1396.1033,-473.9825 1391.5195,-469.0592 1396.5,-469.5 1396.5,-469.5 1396.5,-469.5 1391.5195,-469.0592 1396.8967,-465.0175 1386.5389,-468.6184 1386.5389,-468.6184"/>
<text text-anchor="start" x="1163.445" y="-479.5" font-family="Arial" font-size="10.00" fill="#000000">FOREIGN KEY (user_id) REFERENCES users (id)</text>
</g>
<!-- courses -->
<g id="node7" class="node">
<title>courses</title>
<polygon fill="#efefef" stroke="transparent" points="2063.5,-222.5 2063.5,-257.5 2237.5,-257.5 2237.5,-222.5 2063.5,-222.5"/>
<polygon fill="none" stroke="#000000" points="2063.5,-222.5 2063.5,-257.5 2237.5,-257.5 2237.5,-222.5 2063.5,-222.5"/>
<text text-anchor="start" x="2070.3677" y="-235.3" font-family="Arial Bold" font-size="18.00" fill="#000000">courses</text>
<text text-anchor="start" x="2133.3785" y="-235.3" font-family="Arial" font-size="14.00" fill="#000000"> </text>
<text text-anchor="start" x="2137.2691" y="-235.3" font-family="Arial" font-size="14.00" fill="#666666">[BASE TABLE]</text>
<polygon fill="none" stroke="#000000" points="2063.5,-192.5 2063.5,-222.5 2237.5,-222.5 2237.5,-192.5 2063.5,-192.5"/>
<text text-anchor="start" x="2070.5" y="-203.9" font-family="Arial" font-size="14.00" fill="#000000">id </text>
<text text-anchor="start" x="2085.2798" y="-203.9" font-family="Arial" font-size="14.00" fill="#666666">[char(36)]</text>
<polygon fill="none" stroke="#000000" points="2063.5,-162.5 2063.5,-192.5 2237.5,-192.5 2237.5,-162.5 2063.5,-162.5"/>
<text text-anchor="start" x="2070.5" y="-173.9" font-family="Arial" font-size="14.00" fill="#000000">name </text>
<text text-anchor="start" x="2109.399" y="-173.9" font-family="Arial" font-size="14.00" fill="#666666">[varchar(255)]</text>
<polygon fill="none" stroke="#000000" points="2063.5,-132.5 2063.5,-162.5 2237.5,-162.5 2237.5,-132.5 2063.5,-132.5"/>
<text text-anchor="start" x="2070.5" y="-143.9" font-family="Arial" font-size="14.00" fill="#000000">description </text>
<text text-anchor="start" x="2142.068" y="-143.9" font-family="Arial" font-size="14.00" fill="#666666">[text]</text>
<polygon fill="none" stroke="#000000" points="2063.5,-102.5 2063.5,-132.5 2237.5,-132.5 2237.5,-102.5 2063.5,-102.5"/>
<text text-anchor="start" x="2070.5" y="-113.9" font-family="Arial" font-size="14.00" fill="#000000">credit </text>
<text text-anchor="start" x="2108.6136" y="-113.9" font-family="Arial" font-size="14.00" fill="#666666">[tinyint unsigned]</text>
<polygon fill="none" stroke="#000000" points="2063.5,-72.5 2063.5,-102.5 2237.5,-102.5 2237.5,-72.5 2063.5,-72.5"/>
<text text-anchor="start" x="2070.5" y="-83.9" font-family="Arial" font-size="14.00" fill="#000000">classroom </text>
<text text-anchor="start" x="2138.1662" y="-83.9" font-family="Arial" font-size="14.00" fill="#666666">[varchar(255)]</text>
<polygon fill="none" stroke="#000000" points="2063.5,-42.5 2063.5,-72.5 2237.5,-72.5 2237.5,-42.5 2063.5,-42.5"/>
<text text-anchor="start" x="2070.5" y="-53.9" font-family="Arial" font-size="14.00" fill="#000000">capacity </text>
<text text-anchor="start" x="2125.7356" y="-53.9" font-family="Arial" font-size="14.00" fill="#666666">[int unsigned]</text>
</g>
<!-- grades&#45;&gt;courses -->
<g id="edge6" class="edge">
<title>grades:course_id&#45;&gt;courses:id</title>
<path fill="none" stroke="#000000" d="M1572.6151,-438.3876C1609.1489,-429.3196 1580.297,-367.1123 1617.5,-337 1697.7198,-272.0697 1960.2955,-207.5 2063.5,-207.5"/>
<polygon fill="#000000" stroke="#000000" points="1572.4401,-438.4067 1562.008,-435.027 1567.47,-438.9534 1562.5,-439.5 1562.5,-439.5 1562.5,-439.5 1567.47,-438.9534 1562.992,-443.973 1572.4401,-438.4067 1572.4401,-438.4067"/>
<text text-anchor="start" x="1569.886" y="-449.5" font-family="Arial" font-size="10.00" fill="#000000">FOREIGN KEY (course_id) REFERENCES courses (id)</text>
</g>
<!-- attendances -->
<g id="node3" class="node">
<title>attendances</title>
<polygon fill="#efefef" stroke="transparent" points="43.5,-499.5 43.5,-534.5 252.5,-534.5 252.5,-499.5 43.5,-499.5"/>
<polygon fill="none" stroke="#000000" points="43.5,-499.5 43.5,-534.5 252.5,-534.5 252.5,-499.5 43.5,-499.5"/>
<text text-anchor="start" x="50.3492" y="-512.3" font-family="Arial Bold" font-size="18.00" fill="#000000">attendances</text>
<text text-anchor="start" x="148.397" y="-512.3" font-family="Arial" font-size="14.00" fill="#000000"> </text>
<text text-anchor="start" x="152.2876" y="-512.3" font-family="Arial" font-size="14.00" fill="#666666">[BASE TABLE]</text>
<polygon fill="none" stroke="#000000" points="43.5,-469.5 43.5,-499.5 252.5,-499.5 252.5,-469.5 43.5,-469.5"/>
<text text-anchor="start" x="50.5" y="-480.9" font-family="Arial" font-size="14.00" fill="#000000">class_id </text>
<text text-anchor="start" x="104.9516" y="-480.9" font-family="Arial" font-size="14.00" fill="#666666">[char(36)]</text>
<polygon fill="none" stroke="#000000" points="43.5,-439.5 43.5,-469.5 252.5,-469.5 252.5,-439.5 43.5,-439.5"/>
<text text-anchor="start" x="50.5" y="-450.9" font-family="Arial" font-size="14.00" fill="#000000">user_id </text>
<text text-anchor="start" x="100.2882" y="-450.9" font-family="Arial" font-size="14.00" fill="#666666">[char(36)]</text>
<polygon fill="none" stroke="#000000" points="43.5,-409.5 43.5,-439.5 252.5,-439.5 252.5,-409.5 43.5,-409.5"/>
<text text-anchor="start" x="50.5" y="-420.9" font-family="Arial" font-size="14.00" fill="#000000">created_at </text>
<text text-anchor="start" x="120.528" y="-420.9" font-family="Arial" font-size="14.00" fill="#666666">[datetime(6)]</text>
</g>
<!-- attendances&#45;&gt;users -->
<g id="edge2" class="edge">
<title>attendances:user_id&#45;&gt;users:id</title>
<path fill="none" stroke="#000000" d="M262.5542,-453.4916C303.7377,-444.2036 265.2408,-373.0727 304.5,-337 449.5518,-203.7214 526.5147,-192.5 723.5,-192.5"/>
<polygon fill="#000000" stroke="#000000" points="262.4501,-453.5019 252.0509,-450.0225 257.475,-454.001 252.5,-454.5 252.5,-454.5 252.5,-454.5 257.475,-454.001 252.9491,-458.9775 262.4501,-453.5019 262.4501,-453.5019"/>
<text text-anchor="start" x="139.445" y="-438.5" font-family="Arial" font-size="10.00" fill="#000000">FOREIGN KEY (user_id) REFERENCES users (id)</text>
</g>
<!-- registrations -->
<g id="node4" class="node">
<title>registrations</title>
<polygon fill="#efefef" stroke="transparent" points="1080.5,-514.5 1080.5,-549.5 1289.5,-549.5 1289.5,-514.5 1080.5,-514.5"/>
<polygon fill="none" stroke="#000000" points="1080.5,-514.5 1080.5,-549.5 1289.5,-549.5 1289.5,-514.5 1080.5,-514.5"/>
<text text-anchor="start" x="1087.369" y="-527.3" font-family="Arial Bold" font-size="18.00" fill="#000000">registrations</text>
<text text-anchor="start" x="1185.3772" y="-527.3" font-family="Arial" font-size="14.00" fill="#000000"> </text>
<text text-anchor="start" x="1189.2678" y="-527.3" font-family="Arial" font-size="14.00" fill="#666666">[BASE TABLE]</text>
<polygon fill="none" stroke="#000000" points="1080.5,-484.5 1080.5,-514.5 1289.5,-514.5 1289.5,-484.5 1080.5,-484.5"/>
<text text-anchor="start" x="1087.5" y="-495.9" font-family="Arial" font-size="14.00" fill="#000000">course_id </text>
<text text-anchor="start" x="1152.0708" y="-495.9" font-family="Arial" font-size="14.00" fill="#666666">[char(36)]</text>
<polygon fill="none" stroke="#000000" points="1080.5,-454.5 1080.5,-484.5 1289.5,-484.5 1289.5,-454.5 1080.5,-454.5"/>
<text text-anchor="start" x="1087.5" y="-465.9" font-family="Arial" font-size="14.00" fill="#000000">user_id </text>
<text text-anchor="start" x="1137.2882" y="-465.9" font-family="Arial" font-size="14.00" fill="#666666">[char(36)]</text>
<polygon fill="none" stroke="#000000" points="1080.5,-424.5 1080.5,-454.5 1289.5,-454.5 1289.5,-424.5 1080.5,-424.5"/>
<text text-anchor="start" x="1087.5" y="-435.9" font-family="Arial" font-size="14.00" fill="#000000">created_at </text>
<text text-anchor="start" x="1157.528" y="-435.9" font-family="Arial" font-size="14.00" fill="#666666">[datetime(6)]</text>
<polygon fill="none" stroke="#000000" points="1080.5,-394.5 1080.5,-424.5 1289.5,-424.5 1289.5,-394.5 1080.5,-394.5"/>
<text text-anchor="start" x="1087.5" y="-405.9" font-family="Arial" font-size="14.00" fill="#000000">delete_at </text>
<text text-anchor="start" x="1148.974" y="-405.9" font-family="Arial" font-size="14.00" fill="#666666">[datetime(6)]</text>
</g>
<!-- registrations&#45;&gt;users -->
<g id="edge3" class="edge">
<title>registrations:user_id&#45;&gt;users:id</title>
<path fill="none" stroke="#000000" d="M1070.4224,-468.7279C1021.8448,-460.5635 1056.8756,-389.3603 1028.5,-337 990.9227,-267.66 1004.3676,-192.5 925.5,-192.5"/>
<polygon fill="#000000" stroke="#000000" points="1070.5292,-468.736 1080.1562,-473.9869 1075.5146,-469.118 1080.5,-469.5 1080.5,-469.5 1080.5,-469.5 1075.5146,-469.118 1080.8438,-465.0131 1070.5292,-468.736 1070.5292,-468.736"/>
<text text-anchor="start" x="1027.445" y="-453.5" font-family="Arial" font-size="10.00" fill="#000000">FOREIGN KEY (user_id) REFERENCES users (id)</text>
</g>
<!-- registrations&#45;&gt;courses -->
<g id="edge12" class="edge">
<title>registrations:course_id&#45;&gt;courses:id</title>
<path fill="none" stroke="#000000" d="M1299.5214,-498.7154C1357.7608,-488.659 1287.2403,-384.5208 1341.5,-337 1464.1248,-229.6048 1900.4952,-207.5 2063.5,-207.5"/>
<polygon fill="#000000" stroke="#000000" points="1299.4695,-498.7194 1289.1487,-495.0137 1294.4847,-499.1097 1289.5,-499.5 1289.5,-499.5 1289.5,-499.5 1294.4847,-499.1097 1289.8513,-503.9863 1299.4695,-498.7194 1299.4695,-498.7194"/>
<text text-anchor="start" x="1035.886" y="-509.5" font-family="Arial" font-size="10.00" fill="#000000">FOREIGN KEY (course_id) REFERENCES courses (id)</text>
</g>
<!-- submissions -->
<g id="node5" class="node">
<title>submissions</title>
<polygon fill="#efefef" stroke="transparent" points="356.5,-529.5 356.5,-564.5 566.5,-564.5 566.5,-529.5 356.5,-529.5"/>
<polygon fill="none" stroke="#000000" points="356.5,-529.5 356.5,-564.5 566.5,-564.5 566.5,-529.5 356.5,-529.5"/>
<text text-anchor="start" x="363.3704" y="-542.3" font-family="Arial Bold" font-size="18.00" fill="#000000">submissions</text>
<text text-anchor="start" x="462.3758" y="-542.3" font-family="Arial" font-size="14.00" fill="#000000"> </text>
<text text-anchor="start" x="466.2664" y="-542.3" font-family="Arial" font-size="14.00" fill="#666666">[BASE TABLE]</text>
<polygon fill="none" stroke="#000000" points="356.5,-499.5 356.5,-529.5 566.5,-529.5 566.5,-499.5 356.5,-499.5"/>
<text text-anchor="start" x="363.5" y="-510.9" font-family="Arial" font-size="14.00" fill="#000000">id </text>
<text text-anchor="start" x="378.2798" y="-510.9" font-family="Arial" font-size="14.00" fill="#666666">[char(36)]</text>
<polygon fill="none" stroke="#000000" points="356.5,-469.5 356.5,-499.5 566.5,-499.5 566.5,-469.5 356.5,-469.5"/>
<text text-anchor="start" x="363.5" y="-480.9" font-family="Arial" font-size="14.00" fill="#000000">user_id </text>
<text text-anchor="start" x="413.2882" y="-480.9" font-family="Arial" font-size="14.00" fill="#666666">[char(36)]</text>
<polygon fill="none" stroke="#000000" points="356.5,-439.5 356.5,-469.5 566.5,-469.5 566.5,-439.5 356.5,-439.5"/>
<text text-anchor="start" x="363.5" y="-450.9" font-family="Arial" font-size="14.00" fill="#000000">assignment_id </text>
<text text-anchor="start" x="457.6332" y="-450.9" font-family="Arial" font-size="14.00" fill="#666666">[char(36)]</text>
<polygon fill="none" stroke="#000000" points="356.5,-409.5 356.5,-439.5 566.5,-439.5 566.5,-409.5 356.5,-409.5"/>
<text text-anchor="start" x="363.5" y="-420.9" font-family="Arial" font-size="14.00" fill="#000000">name </text>
<text text-anchor="start" x="402.399" y="-420.9" font-family="Arial" font-size="14.00" fill="#666666">[varchar(255)]</text>
<polygon fill="none" stroke="#000000" points="356.5,-379.5 356.5,-409.5 566.5,-409.5 566.5,-379.5 356.5,-379.5"/>
<text text-anchor="start" x="363.5" y="-390.9" font-family="Arial" font-size="14.00" fill="#000000">created_at </text>
<text text-anchor="start" x="433.528" y="-390.9" font-family="Arial" font-size="14.00" fill="#666666">[datetime(6)]</text>
</g>
<!-- submissions&#45;&gt;users -->
<g id="edge4" class="edge">
<title>submissions:user_id&#45;&gt;users:id</title>
<path fill="none" stroke="#000000" d="M576.5306,-483.799C630.9827,-475.5015 587.8807,-395.292 618.5,-337 655.4168,-266.719 644.1132,-192.5 723.5,-192.5"/>
<polygon fill="#000000" stroke="#000000" points="576.4757,-483.8028 566.1862,-480.0109 571.4878,-484.1514 566.5,-484.5 566.5,-484.5 566.5,-484.5 571.4878,-484.1514 566.8138,-488.9891 576.4757,-483.8028 576.4757,-483.8028"/>
<text text-anchor="start" x="573.445" y="-494.5" font-family="Arial" font-size="10.00" fill="#000000">FOREIGN KEY (user_id) REFERENCES users (id)</text>
</g>
<!-- unread_announcements -->
<g id="node6" class="node">
<title>unread_announcements</title>
<polygon fill="#efefef" stroke="transparent" points="671.5,-514.5 671.5,-549.5 976.5,-549.5 976.5,-514.5 671.5,-514.5"/>
<polygon fill="none" stroke="#000000" points="671.5,-514.5 671.5,-549.5 976.5,-549.5 976.5,-514.5 671.5,-514.5"/>
<text text-anchor="start" x="678.3333" y="-527.3" font-family="Arial Bold" font-size="18.00" fill="#000000">unread_announcements</text>
<text text-anchor="start" x="872.4129" y="-527.3" font-family="Arial" font-size="14.00" fill="#000000"> </text>
<text text-anchor="start" x="876.3035" y="-527.3" font-family="Arial" font-size="14.00" fill="#666666">[BASE TABLE]</text>
<polygon fill="none" stroke="#000000" points="671.5,-484.5 671.5,-514.5 976.5,-514.5 976.5,-484.5 671.5,-484.5"/>
<text text-anchor="start" x="678.5" y="-495.9" font-family="Arial" font-size="14.00" fill="#000000">announcement_id </text>
<text text-anchor="start" x="793.657" y="-495.9" font-family="Arial" font-size="14.00" fill="#666666">[char(36)]</text>
<polygon fill="none" stroke="#000000" points="671.5,-454.5 671.5,-484.5 976.5,-484.5 976.5,-454.5 671.5,-454.5"/>
<text text-anchor="start" x="678.5" y="-465.9" font-family="Arial" font-size="14.00" fill="#000000">user_id </text>
<text text-anchor="start" x="728.2882" y="-465.9" font-family="Arial" font-size="14.00" fill="#666666">[char(36)]</text>
<polygon fill="none" stroke="#000000" points="671.5,-424.5 671.5,-454.5 976.5,-454.5 976.5,-424.5 671.5,-424.5"/>
<text text-anchor="start" x="678.5" y="-435.9" font-family="Arial" font-size="14.00" fill="#000000">created_at </text>
<text text-anchor="start" x="748.528" y="-435.9" font-family="Arial" font-size="14.00" fill="#666666">[datetime(6)]</text>
<polygon fill="none" stroke="#000000" points="671.5,-394.5 671.5,-424.5 976.5,-424.5 976.5,-394.5 671.5,-394.5"/>
<text text-anchor="start" x="678.5" y="-405.9" font-family="Arial" font-size="14.00" fill="#000000">delete_at </text>
<text text-anchor="start" x="739.974" y="-405.9" font-family="Arial" font-size="14.00" fill="#666666">[datetime(6)]</text>
</g>
<!-- unread_announcements&#45;&gt;users -->
<g id="edge5" class="edge">
<title>unread_announcements:user_id&#45;&gt;users:id</title>
<path fill="none" stroke="#000000" d="M986.4613,-468.4088C1025.8108,-458.9602 1006.1829,-390.4196 976.5,-352 905.4527,-260.0409 794.5473,-377.9591 723.5,-286 698.0936,-253.1156 681.9444,-192.5 723.5,-192.5"/>
<polygon fill="#000000" stroke="#000000" points="986.4405,-468.411 976.0099,-465.0268 981.4703,-468.9555 976.5,-469.5 976.5,-469.5 976.5,-469.5 981.4703,-468.9555 976.9901,-473.9732 986.4405,-468.411 986.4405,-468.411"/>
<text text-anchor="start" x="743.445" y="-453.5" font-family="Arial" font-size="10.00" fill="#000000">FOREIGN KEY (user_id) REFERENCES users (id)</text>
</g>
<!-- announcements -->
<g id="node8" class="node">
<title>announcements</title>
<polygon fill="#efefef" stroke="transparent" points="2030.5,-529.5 2030.5,-564.5 2269.5,-564.5 2269.5,-529.5 2030.5,-529.5"/>
<polygon fill="none" stroke="#000000" points="2030.5,-529.5 2030.5,-564.5 2269.5,-564.5 2269.5,-529.5 2030.5,-529.5"/>
<text text-anchor="start" x="2037.348" y="-542.3" font-family="Arial Bold" font-size="18.00" fill="#000000">announcements</text>
<text text-anchor="start" x="2165.3982" y="-542.3" font-family="Arial" font-size="14.00" fill="#000000"> </text>
<text text-anchor="start" x="2169.2888" y="-542.3" font-family="Arial" font-size="14.00" fill="#666666">[BASE TABLE]</text>
<polygon fill="none" stroke="#000000" points="2030.5,-499.5 2030.5,-529.5 2269.5,-529.5 2269.5,-499.5 2030.5,-499.5"/>
<text text-anchor="start" x="2037.5" y="-510.9" font-family="Arial" font-size="14.00" fill="#000000">id </text>
<text text-anchor="start" x="2052.2798" y="-510.9" font-family="Arial" font-size="14.00" fill="#666666">[char(36)]</text>
<polygon fill="none" stroke="#000000" points="2030.5,-469.5 2030.5,-499.5 2269.5,-499.5 2269.5,-469.5 2030.5,-469.5"/>
<text text-anchor="start" x="2037.5" y="-480.9" font-family="Arial" font-size="14.00" fill="#000000">course_id </text>
<text text-anchor="start" x="2102.0708" y="-480.9" font-family="Arial" font-size="14.00" fill="#666666">[char(36)]</text>
<polygon fill="none" stroke="#000000" points="2030.5,-439.5 2030.5,-469.5 2269.5,-469.5 2269.5,-439.5 2030.5,-439.5"/>
<text text-anchor="start" x="2037.5" y="-450.9" font-family="Arial" font-size="14.00" fill="#000000">title </text>
<text text-anchor="start" x="2063.1676" y="-450.9" font-family="Arial" font-size="14.00" fill="#666666">[varchar(255)]</text>
<polygon fill="none" stroke="#000000" points="2030.5,-409.5 2030.5,-439.5 2269.5,-439.5 2269.5,-409.5 2030.5,-409.5"/>
<text text-anchor="start" x="2037.5" y="-420.9" font-family="Arial" font-size="14.00" fill="#000000">message </text>
<text text-anchor="start" x="2098.1816" y="-420.9" font-family="Arial" font-size="14.00" fill="#666666">[text]</text>
<polygon fill="none" stroke="#000000" points="2030.5,-379.5 2030.5,-409.5 2269.5,-409.5 2269.5,-379.5 2030.5,-379.5"/>
<text text-anchor="start" x="2037.5" y="-390.9" font-family="Arial" font-size="14.00" fill="#000000">created_at </text>
<text text-anchor="start" x="2107.528" y="-390.9" font-family="Arial" font-size="14.00" fill="#666666">[datetime(6)]</text>
</g>
<!-- announcements&#45;&gt;courses -->
<g id="edge7" class="edge">
<title>announcements:course_id&#45;&gt;courses:id</title>
<path fill="none" stroke="#000000" d="M2279.4687,-483.6505C2332.4423,-473.9973 2309.37,-384.4418 2269.5,-337 2209.7031,-265.847 2123.2969,-372.153 2063.5,-301 2036.7644,-269.1869 2021.9444,-207.5 2063.5,-207.5"/>
<polygon fill="#000000" stroke="#000000" points="2279.4639,-483.6508 2269.1179,-480.0163 2274.4819,-484.0754 2269.5,-484.5 2269.5,-484.5 2269.5,-484.5 2274.4819,-484.0754 2269.8821,-488.9837 2279.4639,-483.6508 2279.4639,-483.6508"/>
<text text-anchor="start" x="2146.386" y="-468.5" font-family="Arial" font-size="10.00" fill="#000000">FOREIGN KEY (course_id) REFERENCES courses (id)</text>
</g>
<!-- classes -->
<g id="node9" class="node">
<title>classes</title>
<polygon fill="#efefef" stroke="transparent" points="2373.5,-529.5 2373.5,-564.5 2585.5,-564.5 2585.5,-529.5 2373.5,-529.5"/>
<polygon fill="none" stroke="#000000" points="2373.5,-529.5 2373.5,-564.5 2585.5,-564.5 2585.5,-529.5 2373.5,-529.5"/>
<text text-anchor="start" x="2400.8698" y="-542.3" font-family="Arial Bold" font-size="18.00" fill="#000000">classes</text>
<text text-anchor="start" x="2460.8764" y="-542.3" font-family="Arial" font-size="14.00" fill="#000000"> </text>
<text text-anchor="start" x="2464.767" y="-542.3" font-family="Arial" font-size="14.00" fill="#666666">[BASE TABLE]</text>
<polygon fill="none" stroke="#000000" points="2373.5,-499.5 2373.5,-529.5 2585.5,-529.5 2585.5,-499.5 2373.5,-499.5"/>
<text text-anchor="start" x="2380.5" y="-510.9" font-family="Arial" font-size="14.00" fill="#000000">id </text>
<text text-anchor="start" x="2395.2798" y="-510.9" font-family="Arial" font-size="14.00" fill="#666666">[char(36)]</text>
<polygon fill="none" stroke="#000000" points="2373.5,-469.5 2373.5,-499.5 2585.5,-499.5 2585.5,-469.5 2373.5,-469.5"/>
<text text-anchor="start" x="2380.5" y="-480.9" font-family="Arial" font-size="14.00" fill="#000000">course_id </text>
<text text-anchor="start" x="2445.0708" y="-480.9" font-family="Arial" font-size="14.00" fill="#666666">[char(36)]</text>
<polygon fill="none" stroke="#000000" points="2373.5,-439.5 2373.5,-469.5 2585.5,-469.5 2585.5,-439.5 2373.5,-439.5"/>
<text text-anchor="start" x="2380.5" y="-450.9" font-family="Arial" font-size="14.00" fill="#000000">title </text>
<text text-anchor="start" x="2406.1676" y="-450.9" font-family="Arial" font-size="14.00" fill="#666666">[varchar(255)]</text>
<polygon fill="none" stroke="#000000" points="2373.5,-409.5 2373.5,-439.5 2585.5,-439.5 2585.5,-409.5 2373.5,-409.5"/>
<text text-anchor="start" x="2380.5" y="-420.9" font-family="Arial" font-size="14.00" fill="#000000">description </text>
<text text-anchor="start" x="2452.068" y="-420.9" font-family="Arial" font-size="14.00" fill="#666666">[text]</text>
<polygon fill="none" stroke="#000000" points="2373.5,-379.5 2373.5,-409.5 2585.5,-409.5 2585.5,-379.5 2373.5,-379.5"/>
<text text-anchor="start" x="2380.3002" y="-390.9" font-family="Arial" font-size="14.00" fill="#000000">attendance_code </text>
<text text-anchor="start" x="2491.5806" y="-390.9" font-family="Arial" font-size="14.00" fill="#666666">[varchar(255)]</text>
</g>
<!-- classes&#45;&gt;courses -->
<g id="edge8" class="edge">
<title>classes:course_id&#45;&gt;courses:id</title>
<path fill="none" stroke="#000000" d="M2363.4564,-483.8056C2308.8534,-475.5849 2350.5651,-396.0823 2321.5,-337 2291.2171,-275.4422 2306.1034,-207.5 2237.5,-207.5"/>
<polygon fill="#000000" stroke="#000000" points="2363.5238,-483.8102 2373.1896,-488.9893 2368.5119,-484.1551 2373.5,-484.5 2373.5,-484.5 2373.5,-484.5 2368.5119,-484.1551 2373.8104,-480.0107 2363.5238,-483.8102 2363.5238,-483.8102"/>
<text text-anchor="start" x="2119.886" y="-494.5" font-family="Arial" font-size="10.00" fill="#000000">FOREIGN KEY (course_id) REFERENCES courses (id)</text>
</g>
<!-- course_requirements -->
<g id="node10" class="node">
<title>course_requirements</title>
<polygon fill="#efefef" stroke="transparent" points="2689.5,-484.5 2689.5,-519.5 2969.5,-519.5 2969.5,-484.5 2689.5,-484.5"/>
<polygon fill="none" stroke="#000000" points="2689.5,-484.5 2689.5,-519.5 2969.5,-519.5 2969.5,-484.5 2689.5,-484.5"/>
<text text-anchor="start" x="2696.3595" y="-497.3" font-family="Arial Bold" font-size="18.00" fill="#000000">course_requirements</text>
<text text-anchor="start" x="2865.3867" y="-497.3" font-family="Arial" font-size="14.00" fill="#000000"> </text>
<text text-anchor="start" x="2869.2773" y="-497.3" font-family="Arial" font-size="14.00" fill="#666666">[BASE TABLE]</text>
<polygon fill="none" stroke="#000000" points="2689.5,-454.5 2689.5,-484.5 2969.5,-484.5 2969.5,-454.5 2689.5,-454.5"/>
<text text-anchor="start" x="2696.5" y="-465.9" font-family="Arial" font-size="14.00" fill="#000000">course_id </text>
<text text-anchor="start" x="2761.0708" y="-465.9" font-family="Arial" font-size="14.00" fill="#666666">[char(36)]</text>
<polygon fill="none" stroke="#000000" points="2689.5,-424.5 2689.5,-454.5 2969.5,-454.5 2969.5,-424.5 2689.5,-424.5"/>
<text text-anchor="start" x="2696.5" y="-435.9" font-family="Arial" font-size="14.00" fill="#000000">required_course_id </text>
<text text-anchor="start" x="2820.1942" y="-435.9" font-family="Arial" font-size="14.00" fill="#666666">[char(36)]</text>
</g>
<!-- course_requirements&#45;&gt;courses -->
<g id="edge9" class="edge">
<title>course_requirements:course_id&#45;&gt;courses:id</title>
<path fill="none" stroke="#000000" d="M2679.2857,-468.5495C2632.8023,-458.8724 2680.7839,-377.7257 2637.5,-337 2501.4079,-208.9511 2424.3625,-207.5 2237.5,-207.5"/>
<polygon fill="#000000" stroke="#000000" points="2679.543,-468.5734 2689.083,-473.9806 2684.5215,-469.0367 2689.5,-469.5 2689.5,-469.5 2689.5,-469.5 2684.5215,-469.0367 2689.917,-465.0194 2679.543,-468.5734 2679.543,-468.5734"/>
<text text-anchor="start" x="2696.886" y="-479.5" font-family="Arial" font-size="10.00" fill="#000000">FOREIGN KEY (course_id) REFERENCES courses (id)</text>
</g>
<!-- course_requirements&#45;&gt;courses -->
<g id="edge10" class="edge">
<title>course_requirements:required_course_id&#45;&gt;courses:id</title>
<path fill="none" stroke="#000000" d="M2679.5291,-438.3977C2643.6226,-429.4106 2673.4499,-367.7258 2637.5,-337 2495.4509,-215.5931 2424.3625,-207.5 2237.5,-207.5"/>
<polygon fill="#000000" stroke="#000000" points="2679.5606,-438.4011 2689.0055,-443.9728 2684.5303,-438.9506 2689.5,-439.5 2689.5,-439.5 2689.5,-439.5 2684.5303,-438.9506 2689.9945,-435.0272 2679.5606,-438.4011 2679.5606,-438.4011"/>
<text text-anchor="start" x="2696.7705" y="-449.5" font-family="Arial" font-size="10.00" fill="#000000">FOREIGN KEY (required_course_id) REFERENCES courses (id)</text>
</g>
<!-- course_schedules -->
<g id="node11" class="node">
<title>course_schedules</title>
<polygon fill="#efefef" stroke="transparent" points="1669.5,-484.5 1669.5,-519.5 1925.5,-519.5 1925.5,-484.5 1669.5,-484.5"/>
<polygon fill="none" stroke="#000000" points="1669.5,-484.5 1669.5,-519.5 1925.5,-519.5 1925.5,-484.5 1669.5,-484.5"/>
<text text-anchor="start" x="1676.352" y="-497.3" font-family="Arial Bold" font-size="18.00" fill="#000000">course_schedules</text>
<text text-anchor="start" x="1821.3942" y="-497.3" font-family="Arial" font-size="14.00" fill="#000000"> </text>
<text text-anchor="start" x="1825.2848" y="-497.3" font-family="Arial" font-size="14.00" fill="#666666">[BASE TABLE]</text>
<polygon fill="none" stroke="#000000" points="1669.5,-454.5 1669.5,-484.5 1925.5,-484.5 1925.5,-454.5 1669.5,-454.5"/>
<text text-anchor="start" x="1676.5" y="-465.9" font-family="Arial" font-size="14.00" fill="#000000">course_id </text>
<text text-anchor="start" x="1741.0708" y="-465.9" font-family="Arial" font-size="14.00" fill="#666666">[char(36)]</text>
<polygon fill="none" stroke="#000000" points="1669.5,-424.5 1669.5,-454.5 1925.5,-454.5 1925.5,-424.5 1669.5,-424.5"/>
<text text-anchor="start" x="1676.5" y="-435.9" font-family="Arial" font-size="14.00" fill="#000000">schedule_id </text>
<text text-anchor="start" x="1755.082" y="-435.9" font-family="Arial" font-size="14.00" fill="#666666">[char(36)]</text>
</g>
<!-- course_schedules&#45;&gt;courses -->
<g id="edge11" class="edge">
<title>course_schedules:course_id&#45;&gt;courses:id</title>
<path fill="none" stroke="#000000" d="M1935.6209,-468.7339C1984.504,-460.6318 1950.892,-389.943 1978.5,-337 2010.3329,-275.9552 1994.6538,-207.5 2063.5,-207.5"/>
<polygon fill="#000000" stroke="#000000" points="1935.4715,-468.7451 1925.1603,-465.0128 1930.4857,-469.1226 1925.5,-469.5 1925.5,-469.5 1925.5,-469.5 1930.4857,-469.1226 1925.8397,-473.9872 1935.4715,-468.7451 1935.4715,-468.7451"/>
<text text-anchor="start" x="1671.886" y="-479.5" font-family="Arial" font-size="10.00" fill="#000000">FOREIGN KEY (course_id) REFERENCES courses (id)</text>
</g>
</g>
</svg>
