<?xml version="1.0" encoding="UTF-8" standalone="no"?>
<!DOCTYPE svg PUBLIC "-//W3C//DTD SVG 1.1//EN"
 "http://www.w3.org/Graphics/SVG/1.1/DTD/svg11.dtd">
<!-- Generated by graphviz version 2.40.1 (20161225.0304)
 -->
<!-- Title: grades Pages: 1 -->
<svg width="679pt" height="742pt"
 viewBox="0.00 0.00 678.50 742.00" xmlns="http://www.w3.org/2000/svg" xmlns:xlink="http://www.w3.org/1999/xlink">
<g id="graph0" class="graph" transform="scale(1 1) rotate(0) translate(4 738)">
<title>grades</title>
<polygon fill="#ffffff" stroke="transparent" points="-4,4 -4,-738 674.5,-738 674.5,4 -4,4"/>
<!-- grades -->
<g id="node1" class="node">
<title>grades</title>
<polygon fill="#efefef" stroke="transparent" points="240,-652.5 240,-687.5 406,-687.5 406,-652.5 240,-652.5"/>
<polygon fill="none" stroke="#000000" points="240,-652.5 240,-687.5 406,-687.5 406,-652.5 240,-652.5"/>
<text text-anchor="start" x="246.8646" y="-665.3" font-family="Arial Bold" font-size="18.00" fill="#000000">grades</text>
<text text-anchor="start" x="301.8816" y="-665.3" font-family="Arial" font-size="14.00" fill="#000000"> </text>
<text text-anchor="start" x="305.7722" y="-665.3" font-family="Arial" font-size="14.00" fill="#666666">[BASE TABLE]</text>
<polygon fill="none" stroke="#000000" points="240,-622.5 240,-652.5 406,-652.5 406,-622.5 240,-622.5"/>
<text text-anchor="start" x="247" y="-633.9" font-family="Arial" font-size="14.00" fill="#000000">id </text>
<text text-anchor="start" x="261.7798" y="-633.9" font-family="Arial" font-size="14.00" fill="#666666">[char(36)]</text>
<polygon fill="none" stroke="#000000" points="240,-592.5 240,-622.5 406,-622.5 406,-592.5 240,-592.5"/>
<text text-anchor="start" x="247" y="-603.9" font-family="Arial" font-size="14.00" fill="#000000">user_id </text>
<text text-anchor="start" x="296.7882" y="-603.9" font-family="Arial" font-size="14.00" fill="#666666">[char(36)]</text>
<polygon fill="none" stroke="#000000" points="240,-562.5 240,-592.5 406,-592.5 406,-562.5 240,-562.5"/>
<text text-anchor="start" x="247" y="-573.9" font-family="Arial" font-size="14.00" fill="#000000">course_id </text>
<text text-anchor="start" x="311.5708" y="-573.9" font-family="Arial" font-size="14.00" fill="#666666">[char(36)]</text>
<polygon fill="none" stroke="#000000" points="240,-532.5 240,-562.5 406,-562.5 406,-532.5 240,-532.5"/>
<text text-anchor="start" x="247" y="-543.9" font-family="Arial" font-size="14.00" fill="#000000">grade </text>
<text text-anchor="start" x="286.6816" y="-543.9" font-family="Arial" font-size="14.00" fill="#666666">[int unsigned]</text>
<polygon fill="none" stroke="#000000" points="240,-502.5 240,-532.5 406,-532.5 406,-502.5 240,-502.5"/>
<text text-anchor="start" x="247" y="-513.9" font-family="Arial" font-size="14.00" fill="#000000">created_at </text>
<text text-anchor="start" x="317.028" y="-513.9" font-family="Arial" font-size="14.00" fill="#666666">[datetime(6)]</text>
<polygon fill="none" stroke="#000000" stroke-width="3" points="238.5,-501.5 238.5,-689.5 407.5,-689.5 407.5,-501.5 238.5,-501.5"/>
</g>
<!-- users -->
<g id="node2" class="node">
<title>users</title>
<polygon fill="#efefef" stroke="transparent" points="52,-267.5 52,-302.5 254,-302.5 254,-267.5 52,-267.5"/>
<polygon fill="none" stroke="#000000" points="52,-267.5 52,-302.5 254,-302.5 254,-267.5 52,-267.5"/>
<text text-anchor="start" x="82.3708" y="-280.3" font-family="Arial Bold" font-size="18.00" fill="#000000">users</text>
<text text-anchor="start" x="126.3754" y="-280.3" font-family="Arial" font-size="14.00" fill="#000000"> </text>
<text text-anchor="start" x="130.266" y="-280.3" font-family="Arial" font-size="14.00" fill="#666666">[BASE TABLE]</text>
<polygon fill="none" stroke="#000000" points="52,-237.5 52,-267.5 254,-267.5 254,-237.5 52,-237.5"/>
<text text-anchor="start" x="59" y="-248.9" font-family="Arial" font-size="14.00" fill="#000000">id </text>
<text text-anchor="start" x="73.7798" y="-248.9" font-family="Arial" font-size="14.00" fill="#666666">[char(36)]</text>
<polygon fill="none" stroke="#000000" points="52,-207.5 52,-237.5 254,-237.5 254,-207.5 52,-207.5"/>
<text text-anchor="start" x="59" y="-218.9" font-family="Arial" font-size="14.00" fill="#000000">name </text>
<text text-anchor="start" x="97.899" y="-218.9" font-family="Arial" font-size="14.00" fill="#666666">[varchar(255)]</text>
<polygon fill="none" stroke="#000000" points="52,-177.5 52,-207.5 254,-207.5 254,-177.5 52,-177.5"/>
<text text-anchor="start" x="59" y="-188.9" font-family="Arial" font-size="14.00" fill="#000000">mail_address </text>
<text text-anchor="start" x="146.1206" y="-188.9" font-family="Arial" font-size="14.00" fill="#666666">[varchar(255)]</text>
<polygon fill="none" stroke="#000000" points="52,-147.5 52,-177.5 254,-177.5 254,-147.5 52,-147.5"/>
<text text-anchor="start" x="58.8668" y="-158.9" font-family="Arial" font-size="14.00" fill="#000000">hashed_password </text>
<text text-anchor="start" x="176.3506" y="-158.9" font-family="Arial" font-size="14.00" fill="#666666">[binary(60)]</text>
<polygon fill="none" stroke="#000000" points="52,-117.5 52,-147.5 254,-147.5 254,-117.5 52,-117.5"/>
<text text-anchor="start" x="59" y="-128.9" font-family="Arial" font-size="14.00" fill="#000000">type </text>
<text text-anchor="start" x="89.3464" y="-128.9" font-family="Arial" font-size="14.00" fill="#666666">[enum(&#39;student&#39;,&#39;faculty&#39;)]</text>
</g>
<!-- grades&#45;&gt;users -->
<g id="edge1" class="edge">
<title>grades:user_id&#45;&gt;users:id</title>
<path fill="none" stroke="#000000" d="M229.6888,-606.9241C97.2911,-591.0544 408.1996,-252.5 254,-252.5"/>
<polygon fill="#000000" stroke="#000000" points="230.0156,-606.9423 239.749,-611.993 235.0078,-607.2211 240,-607.5 240,-607.5 240,-607.5 235.0078,-607.2211 240.251,-603.007 230.0156,-606.9423 230.0156,-606.9423"/>
<text text-anchor="start" x="6.945" y="-617.5" font-family="Arial" font-size="10.00" fill="#000000">FOREIGN KEY (user_id) REFERENCES users (id)</text>
</g>
<!-- courses -->
<g id="node3" class="node">
<title>courses</title>
<polygon fill="#efefef" stroke="transparent" points="359,-342.5 359,-377.5 628,-377.5 628,-342.5 359,-342.5"/>
<polygon fill="none" stroke="#000000" points="359,-342.5 359,-377.5 628,-377.5 628,-342.5 359,-342.5"/>
<text text-anchor="start" x="413.3677" y="-355.3" font-family="Arial Bold" font-size="18.00" fill="#000000">courses</text>
<text text-anchor="start" x="476.3785" y="-355.3" font-family="Arial" font-size="14.00" fill="#000000"> </text>
<text text-anchor="start" x="480.2691" y="-355.3" font-family="Arial" font-size="14.00" fill="#666666">[BASE TABLE]</text>
<polygon fill="none" stroke="#000000" points="359,-312.5 359,-342.5 628,-342.5 628,-312.5 359,-312.5"/>
<text text-anchor="start" x="366" y="-323.9" font-family="Arial" font-size="14.00" fill="#000000">id </text>
<text text-anchor="start" x="380.7798" y="-323.9" font-family="Arial" font-size="14.00" fill="#666666">[char(36)]</text>
<polygon fill="none" stroke="#000000" points="359,-282.5 359,-312.5 628,-312.5 628,-282.5 359,-282.5"/>
<text text-anchor="start" x="366" y="-293.9" font-family="Arial" font-size="14.00" fill="#000000">code </text>
<text text-anchor="start" x="400.2384" y="-293.9" font-family="Arial" font-size="14.00" fill="#666666">[varchar(255)]</text>
<polygon fill="none" stroke="#000000" points="359,-252.5 359,-282.5 628,-282.5 628,-252.5 359,-252.5"/>
<text text-anchor="start" x="365.9803" y="-263.9" font-family="Arial" font-size="14.00" fill="#000000">type </text>
<text text-anchor="start" x="396.3267" y="-263.9" font-family="Arial" font-size="14.00" fill="#666666">[enum(&#39;liberal&#45;arts&#39;,&#39;major&#45;subjects&#39;)]</text>
<polygon fill="none" stroke="#000000" points="359,-222.5 359,-252.5 628,-252.5 628,-222.5 359,-222.5"/>
<text text-anchor="start" x="366" y="-233.9" font-family="Arial" font-size="14.00" fill="#000000">name </text>
<text text-anchor="start" x="404.899" y="-233.9" font-family="Arial" font-size="14.00" fill="#666666">[varchar(255)]</text>
<polygon fill="none" stroke="#000000" points="359,-192.5 359,-222.5 628,-222.5 628,-192.5 359,-192.5"/>
<text text-anchor="start" x="366" y="-203.9" font-family="Arial" font-size="14.00" fill="#000000">description </text>
<text text-anchor="start" x="437.568" y="-203.9" font-family="Arial" font-size="14.00" fill="#666666">[text]</text>
<polygon fill="none" stroke="#000000" points="359,-162.5 359,-192.5 628,-192.5 628,-162.5 359,-162.5"/>
<text text-anchor="start" x="366" y="-173.9" font-family="Arial" font-size="14.00" fill="#000000">credit </text>
<text text-anchor="start" x="404.1136" y="-173.9" font-family="Arial" font-size="14.00" fill="#666666">[tinyint unsigned]</text>
<polygon fill="none" stroke="#000000" points="359,-132.5 359,-162.5 628,-162.5 628,-132.5 359,-132.5"/>
<text text-anchor="start" x="366" y="-143.9" font-family="Arial" font-size="14.00" fill="#000000">classroom </text>
<text text-anchor="start" x="433.6662" y="-143.9" font-family="Arial" font-size="14.00" fill="#666666">[varchar(255)]</text>
<polygon fill="none" stroke="#000000" points="359,-102.5 359,-132.5 628,-132.5 628,-102.5 359,-102.5"/>
<text text-anchor="start" x="366" y="-113.9" font-family="Arial" font-size="14.00" fill="#000000">capacity </text>
<text text-anchor="start" x="421.2356" y="-113.9" font-family="Arial" font-size="14.00" fill="#666666">[int unsigned]</text>
<polygon fill="none" stroke="#000000" points="359,-72.5 359,-102.5 628,-102.5 628,-72.5 359,-72.5"/>
<text text-anchor="start" x="366" y="-83.9" font-family="Arial" font-size="14.00" fill="#000000">teacher_id </text>
<text text-anchor="start" x="435.244" y="-83.9" font-family="Arial" font-size="14.00" fill="#666666">[char(36)]</text>
<polygon fill="none" stroke="#000000" points="359,-42.5 359,-72.5 628,-72.5 628,-42.5 359,-42.5"/>
<text text-anchor="start" x="366" y="-53.9" font-family="Arial" font-size="14.00" fill="#000000">keywords </text>
<text text-anchor="start" x="429.0056" y="-53.9" font-family="Arial" font-size="14.00" fill="#666666">[text]</text>
</g>
<!-- grades&#45;&gt;courses -->
<g id="edge2" class="edge">
<title>grades:course_id&#45;&gt;courses:id</title>
<path fill="none" stroke="#000000" d="M416.2098,-577.3947C623.1646,-572.9952 364.491,-432.1226 359,-421 340.6044,-383.7379 317.4444,-327.5 359,-327.5"/>
<polygon fill="#000000" stroke="#000000" points="415.9995,-577.3968 405.9536,-573.0002 410.9997,-577.4484 406,-577.5 406,-577.5 406,-577.5 410.9997,-577.4484 406.0464,-581.9998 415.9995,-577.3968 415.9995,-577.3968"/>
<text text-anchor="start" x="413.386" y="-587.5" font-family="Arial" font-size="10.00" fill="#000000">FOREIGN KEY (course_id) REFERENCES courses (id)</text>
</g>
</g>
</svg>
