<?xml version="1.0" encoding="UTF-8" standalone="no"?>
<!DOCTYPE svg PUBLIC "-//W3C//DTD SVG 1.1//EN"
 "http://www.w3.org/Graphics/SVG/1.1/DTD/svg11.dtd">
<!-- Generated by graphviz version 2.40.1 (20161225.0304)
 -->
<!-- Title: grades Pages: 1 -->
<svg width="675pt" height="622pt"
 viewBox="0.00 0.00 675.00 622.00" xmlns="http://www.w3.org/2000/svg" xmlns:xlink="http://www.w3.org/1999/xlink">
<g id="graph0" class="graph" transform="scale(1 1) rotate(0) translate(4 618)">
<title>grades</title>
<polygon fill="#ffffff" stroke="transparent" points="-4,4 -4,-618 671,-618 671,4 -4,4"/>
<!-- grades -->
<g id="node1" class="node">
<title>grades</title>
<polygon fill="#efefef" stroke="transparent" points="240,-532.5 240,-567.5 406,-567.5 406,-532.5 240,-532.5"/>
<polygon fill="none" stroke="#000000" points="240,-532.5 240,-567.5 406,-567.5 406,-532.5 240,-532.5"/>
<text text-anchor="start" x="246.8646" y="-545.3" font-family="Arial Bold" font-size="18.00" fill="#000000">grades</text>
<text text-anchor="start" x="301.8816" y="-545.3" font-family="Arial" font-size="14.00" fill="#000000"> </text>
<text text-anchor="start" x="305.7722" y="-545.3" font-family="Arial" font-size="14.00" fill="#666666">[BASE TABLE]</text>
<polygon fill="none" stroke="#000000" points="240,-502.5 240,-532.5 406,-532.5 406,-502.5 240,-502.5"/>
<text text-anchor="start" x="247" y="-513.9" font-family="Arial" font-size="14.00" fill="#000000">id </text>
<text text-anchor="start" x="261.7798" y="-513.9" font-family="Arial" font-size="14.00" fill="#666666">[char(36)]</text>
<polygon fill="none" stroke="#000000" points="240,-472.5 240,-502.5 406,-502.5 406,-472.5 240,-472.5"/>
<text text-anchor="start" x="247" y="-483.9" font-family="Arial" font-size="14.00" fill="#000000">user_id </text>
<text text-anchor="start" x="296.7882" y="-483.9" font-family="Arial" font-size="14.00" fill="#666666">[char(36)]</text>
<polygon fill="none" stroke="#000000" points="240,-442.5 240,-472.5 406,-472.5 406,-442.5 240,-442.5"/>
<text text-anchor="start" x="247" y="-453.9" font-family="Arial" font-size="14.00" fill="#000000">course_id </text>
<text text-anchor="start" x="311.5708" y="-453.9" font-family="Arial" font-size="14.00" fill="#666666">[char(36)]</text>
<polygon fill="none" stroke="#000000" points="240,-412.5 240,-442.5 406,-442.5 406,-412.5 240,-412.5"/>
<text text-anchor="start" x="247" y="-423.9" font-family="Arial" font-size="14.00" fill="#000000">grade </text>
<text text-anchor="start" x="286.6816" y="-423.9" font-family="Arial" font-size="14.00" fill="#666666">[int unsigned]</text>
<polygon fill="none" stroke="#000000" points="240,-382.5 240,-412.5 406,-412.5 406,-382.5 240,-382.5"/>
<text text-anchor="start" x="247" y="-393.9" font-family="Arial" font-size="14.00" fill="#000000">created_at </text>
<text text-anchor="start" x="317.028" y="-393.9" font-family="Arial" font-size="14.00" fill="#666666">[datetime(6)]</text>
<polygon fill="none" stroke="#000000" stroke-width="3" points="238.5,-381.5 238.5,-569.5 407.5,-569.5 407.5,-381.5 238.5,-381.5"/>
</g>
<!-- users -->
<g id="node2" class="node">
<title>users</title>
<polygon fill="#efefef" stroke="transparent" points="76,-207.5 76,-242.5 278,-242.5 278,-207.5 76,-207.5"/>
<polygon fill="none" stroke="#000000" points="76,-207.5 76,-242.5 278,-242.5 278,-207.5 76,-207.5"/>
<text text-anchor="start" x="106.3708" y="-220.3" font-family="Arial Bold" font-size="18.00" fill="#000000">users</text>
<text text-anchor="start" x="150.3754" y="-220.3" font-family="Arial" font-size="14.00" fill="#000000"> </text>
<text text-anchor="start" x="154.266" y="-220.3" font-family="Arial" font-size="14.00" fill="#666666">[BASE TABLE]</text>
<polygon fill="none" stroke="#000000" points="76,-177.5 76,-207.5 278,-207.5 278,-177.5 76,-177.5"/>
<text text-anchor="start" x="83" y="-188.9" font-family="Arial" font-size="14.00" fill="#000000">id </text>
<text text-anchor="start" x="97.7798" y="-188.9" font-family="Arial" font-size="14.00" fill="#666666">[char(36)]</text>
<polygon fill="none" stroke="#000000" points="76,-147.5 76,-177.5 278,-177.5 278,-147.5 76,-147.5"/>
<text text-anchor="start" x="83" y="-158.9" font-family="Arial" font-size="14.00" fill="#000000">name </text>
<text text-anchor="start" x="121.899" y="-158.9" font-family="Arial" font-size="14.00" fill="#666666">[varchar(255)]</text>
<polygon fill="none" stroke="#000000" points="76,-117.5 76,-147.5 278,-147.5 278,-117.5 76,-117.5"/>
<text text-anchor="start" x="83" y="-128.9" font-family="Arial" font-size="14.00" fill="#000000">mail_address </text>
<text text-anchor="start" x="170.1206" y="-128.9" font-family="Arial" font-size="14.00" fill="#666666">[varchar(255)]</text>
<polygon fill="none" stroke="#000000" points="76,-87.5 76,-117.5 278,-117.5 278,-87.5 76,-87.5"/>
<text text-anchor="start" x="82.8668" y="-98.9" font-family="Arial" font-size="14.00" fill="#000000">hashed_password </text>
<text text-anchor="start" x="200.3506" y="-98.9" font-family="Arial" font-size="14.00" fill="#666666">[binary(60)]</text>
<polygon fill="none" stroke="#000000" points="76,-57.5 76,-87.5 278,-87.5 278,-57.5 76,-57.5"/>
<text text-anchor="start" x="83" y="-68.9" font-family="Arial" font-size="14.00" fill="#000000">type </text>
<text text-anchor="start" x="113.3464" y="-68.9" font-family="Arial" font-size="14.00" fill="#666666">[enum(&#39;student&#39;,&#39;faculty&#39;)]</text>
</g>
<!-- grades&#45;&gt;users -->
<g id="edge1" class="edge">
<title>grades:user_id&#45;&gt;users:id</title>
<path fill="none" stroke="#000000" d="M230.0149,-486.7374C178.0504,-478.0536 220.099,-397.0175 240,-337 248.8966,-310.1697 269.1034,-312.8303 278,-286 291.079,-246.5563 319.5556,-192.5 278,-192.5"/>
<polygon fill="#000000" stroke="#000000" points="230.029,-486.7384 239.6573,-491.9869 235.0145,-487.1192 240,-487.5 240,-487.5 240,-487.5 235.0145,-487.1192 240.3427,-483.0131 230.029,-486.7384 230.029,-486.7384"/>
<text text-anchor="start" x="6.945" y="-497.5" font-family="Arial" font-size="10.00" fill="#000000">FOREIGN KEY (user_id) REFERENCES users (id)</text>
</g>
<!-- courses -->
<g id="node3" class="node">
<title>courses</title>
<polygon fill="#efefef" stroke="transparent" points="382,-222.5 382,-257.5 556,-257.5 556,-222.5 382,-222.5"/>
<polygon fill="none" stroke="#000000" points="382,-222.5 382,-257.5 556,-257.5 556,-222.5 382,-222.5"/>
<text text-anchor="start" x="388.8677" y="-235.3" font-family="Arial Bold" font-size="18.00" fill="#000000">courses</text>
<text text-anchor="start" x="451.8785" y="-235.3" font-family="Arial" font-size="14.00" fill="#000000"> </text>
<text text-anchor="start" x="455.7691" y="-235.3" font-family="Arial" font-size="14.00" fill="#666666">[BASE TABLE]</text>
<polygon fill="none" stroke="#000000" points="382,-192.5 382,-222.5 556,-222.5 556,-192.5 382,-192.5"/>
<text text-anchor="start" x="389" y="-203.9" font-family="Arial" font-size="14.00" fill="#000000">id </text>
<text text-anchor="start" x="403.7798" y="-203.9" font-family="Arial" font-size="14.00" fill="#666666">[char(36)]</text>
<polygon fill="none" stroke="#000000" points="382,-162.5 382,-192.5 556,-192.5 556,-162.5 382,-162.5"/>
<text text-anchor="start" x="389" y="-173.9" font-family="Arial" font-size="14.00" fill="#000000">name </text>
<text text-anchor="start" x="427.899" y="-173.9" font-family="Arial" font-size="14.00" fill="#666666">[varchar(255)]</text>
<polygon fill="none" stroke="#000000" points="382,-132.5 382,-162.5 556,-162.5 556,-132.5 382,-132.5"/>
<text text-anchor="start" x="389" y="-143.9" font-family="Arial" font-size="14.00" fill="#000000">description </text>
<text text-anchor="start" x="460.568" y="-143.9" font-family="Arial" font-size="14.00" fill="#666666">[text]</text>
<polygon fill="none" stroke="#000000" points="382,-102.5 382,-132.5 556,-132.5 556,-102.5 382,-102.5"/>
<text text-anchor="start" x="389" y="-113.9" font-family="Arial" font-size="14.00" fill="#000000">credit </text>
<text text-anchor="start" x="427.1136" y="-113.9" font-family="Arial" font-size="14.00" fill="#666666">[tinyint unsigned]</text>
<polygon fill="none" stroke="#000000" points="382,-72.5 382,-102.5 556,-102.5 556,-72.5 382,-72.5"/>
<text text-anchor="start" x="389" y="-83.9" font-family="Arial" font-size="14.00" fill="#000000">classroom </text>
<text text-anchor="start" x="456.6662" y="-83.9" font-family="Arial" font-size="14.00" fill="#666666">[varchar(255)]</text>
<polygon fill="none" stroke="#000000" points="382,-42.5 382,-72.5 556,-72.5 556,-42.5 382,-42.5"/>
<text text-anchor="start" x="389" y="-53.9" font-family="Arial" font-size="14.00" fill="#000000">capacity </text>
<text text-anchor="start" x="444.2356" y="-53.9" font-family="Arial" font-size="14.00" fill="#666666">[int unsigned]</text>
</g>
<!-- grades&#45;&gt;courses -->
<g id="edge2" class="edge">
<title>grades:course_id&#45;&gt;courses:id</title>
<path fill="none" stroke="#000000" d="M415.9781,-456.5033C454.3181,-447.8517 420.4283,-384.6535 406,-337 400.4276,-318.5955 387.5724,-319.4045 382,-301 369.9579,-261.2275 340.4444,-207.5 382,-207.5"/>
<polygon fill="#000000" stroke="#000000" points="415.9505,-456.506 405.5527,-453.0223 410.9752,-457.003 406,-457.5 406,-457.5 406,-457.5 410.9752,-457.003 406.4473,-461.9777 415.9505,-456.506 415.9505,-456.506"/>
<text text-anchor="start" x="413.386" y="-467.5" font-family="Arial" font-size="10.00" fill="#000000">FOREIGN KEY (course_id) REFERENCES courses (id)</text>
</g>
</g>
</svg>
