<?xml version="1.0" encoding="UTF-8" standalone="no"?>
<!DOCTYPE svg PUBLIC "-//W3C//DTD SVG 1.1//EN"
 "http://www.w3.org/Graphics/SVG/1.1/DTD/svg11.dtd">
<!-- Generated by graphviz version 2.40.1 (20161225.0304)
 -->
<!-- Title: phase Pages: 1 -->
<svg width="440pt" height="165pt"
 viewBox="0.00 0.00 440.00 165.00" xmlns="http://www.w3.org/2000/svg" xmlns:xlink="http://www.w3.org/1999/xlink">
<g id="graph0" class="graph" transform="scale(1 1) rotate(0) translate(4 161)">
<title>phase</title>
<polygon fill="#ffffff" stroke="transparent" points="-4,4 -4,-161 436,-161 436,4 -4,4"/>
<!-- phase -->
<g id="node1" class="node">
<title>phase</title>
<polygon fill="#efefef" stroke="transparent" points="46,-75.5 46,-110.5 386,-110.5 386,-75.5 46,-75.5"/>
<polygon fill="none" stroke="#000000" points="46,-75.5 46,-110.5 386,-110.5 386,-75.5 46,-75.5"/>
<text text-anchor="start" x="142.8607" y="-88.3" font-family="Arial Bold" font-size="18.00" fill="#000000">phase</text>
<text text-anchor="start" x="191.8855" y="-88.3" font-family="Arial" font-size="14.00" fill="#000000"> </text>
<text text-anchor="start" x="195.7761" y="-88.3" font-family="Arial" font-size="14.00" fill="#666666">[BASE TABLE]</text>
<polygon fill="none" stroke="#000000" points="46,-45.5 46,-75.5 386,-75.5 386,-45.5 46,-45.5"/>
<text text-anchor="start" x="52.7117" y="-56.9" font-family="Arial" font-size="14.00" fill="#000000">phase </text>
<text text-anchor="start" x="94.7327" y="-56.9" font-family="Arial" font-size="14.00" fill="#666666">[enum(&#39;registration&#39;,&#39;term&#45;time&#39;,&#39;exam&#45;period&#39;)]</text>
<polygon fill="none" stroke="#000000" stroke-width="3" points="44.5,-44.5 44.5,-112.5 387.5,-112.5 387.5,-44.5 44.5,-44.5"/>
</g>
</g>
</svg>
