<?xml version="1.0" encoding="UTF-8" standalone="no"?>
<!DOCTYPE svg PUBLIC "-//W3C//DTD SVG 1.1//EN"
 "http://www.w3.org/Graphics/SVG/1.1/DTD/svg11.dtd">
<!-- Generated by graphviz version 2.40.1 (20161225.0304)
 -->
<!-- Title: phase Pages: 1 -->
<svg width="440pt" height="225pt"
 viewBox="0.00 0.00 440.00 225.00" xmlns="http://www.w3.org/2000/svg" xmlns:xlink="http://www.w3.org/1999/xlink">
<g id="graph0" class="graph" transform="scale(1 1) rotate(0) translate(4 221)">
<title>phase</title>
<polygon fill="#ffffff" stroke="transparent" points="-4,4 -4,-221 436,-221 436,4 -4,4"/>
<!-- phase -->
<g id="node1" class="node">
<title>phase</title>
<polygon fill="#efefef" stroke="transparent" points="46,-135.5 46,-170.5 386,-170.5 386,-135.5 46,-135.5"/>
<polygon fill="none" stroke="#000000" points="46,-135.5 46,-170.5 386,-170.5 386,-135.5 46,-135.5"/>
<text text-anchor="start" x="142.8607" y="-148.3" font-family="Arial Bold" font-size="18.00" fill="#000000">phase</text>
<text text-anchor="start" x="191.8855" y="-148.3" font-family="Arial" font-size="14.00" fill="#000000"> </text>
<text text-anchor="start" x="195.7761" y="-148.3" font-family="Arial" font-size="14.00" fill="#666666">[BASE TABLE]</text>
<polygon fill="none" stroke="#000000" points="46,-105.5 46,-135.5 386,-135.5 386,-105.5 46,-105.5"/>
<text text-anchor="start" x="52.7117" y="-116.9" font-family="Arial" font-size="14.00" fill="#000000">phase </text>
<text text-anchor="start" x="94.7327" y="-116.9" font-family="Arial" font-size="14.00" fill="#666666">[enum(&#39;registration&#39;,&#39;term&#45;time&#39;,&#39;exam&#45;period&#39;)]</text>
<polygon fill="none" stroke="#000000" points="46,-75.5 46,-105.5 386,-105.5 386,-75.5 46,-75.5"/>
<text text-anchor="start" x="53" y="-86.9" font-family="Arial" font-size="14.00" fill="#000000">year </text>
<text text-anchor="start" x="84.1164" y="-86.9" font-family="Arial" font-size="14.00" fill="#666666">[int unsigned]</text>
<polygon fill="none" stroke="#000000" points="46,-45.5 46,-75.5 386,-75.5 386,-45.5 46,-45.5"/>
<text text-anchor="start" x="53" y="-56.9" font-family="Arial" font-size="14.00" fill="#000000">semester </text>
<text text-anchor="start" x="114.4502" y="-56.9" font-family="Arial" font-size="14.00" fill="#666666">[enum(&#39;first&#39;,&#39;second&#39;)]</text>
<polygon fill="none" stroke="#000000" stroke-width="3" points="44.5,-44.5 44.5,-172.5 387.5,-172.5 387.5,-44.5 44.5,-44.5"/>
</g>
</g>
</svg>
