<?xml version="1.0" encoding="UTF-8" standalone="no"?>
<!DOCTYPE svg PUBLIC "-//W3C//DTD SVG 1.1//EN"
 "http://www.w3.org/Graphics/SVG/1.1/DTD/svg11.dtd">
<!-- Generated by graphviz version 2.40.1 (20161225.0304)
 -->
<!-- Title: registrations Pages: 1 -->
<svg width="718pt" height="592pt"
 viewBox="0.00 0.00 718.00 592.00" xmlns="http://www.w3.org/2000/svg" xmlns:xlink="http://www.w3.org/1999/xlink">
<g id="graph0" class="graph" transform="scale(1 1) rotate(0) translate(4 588)">
<title>registrations</title>
<polygon fill="#ffffff" stroke="transparent" points="-4,4 -4,-588 714,-588 714,4 -4,4"/>
<!-- registrations -->
<g id="node1" class="node">
<title>registrations</title>
<polygon fill="#efefef" stroke="transparent" points="261,-502.5 261,-537.5 470,-537.5 470,-502.5 261,-502.5"/>
<polygon fill="none" stroke="#000000" points="261,-502.5 261,-537.5 470,-537.5 470,-502.5 261,-502.5"/>
<text text-anchor="start" x="267.869" y="-515.3" font-family="Arial Bold" font-size="18.00" fill="#000000">registrations</text>
<text text-anchor="start" x="365.8772" y="-515.3" font-family="Arial" font-size="14.00" fill="#000000"> </text>
<text text-anchor="start" x="369.7678" y="-515.3" font-family="Arial" font-size="14.00" fill="#666666">[BASE TABLE]</text>
<polygon fill="none" stroke="#000000" points="261,-472.5 261,-502.5 470,-502.5 470,-472.5 261,-472.5"/>
<text text-anchor="start" x="268" y="-483.9" font-family="Arial" font-size="14.00" fill="#000000">course_id </text>
<text text-anchor="start" x="332.5708" y="-483.9" font-family="Arial" font-size="14.00" fill="#666666">[char(36)]</text>
<polygon fill="none" stroke="#000000" points="261,-442.5 261,-472.5 470,-472.5 470,-442.5 261,-442.5"/>
<text text-anchor="start" x="268" y="-453.9" font-family="Arial" font-size="14.00" fill="#000000">user_id </text>
<text text-anchor="start" x="317.7882" y="-453.9" font-family="Arial" font-size="14.00" fill="#666666">[char(36)]</text>
<polygon fill="none" stroke="#000000" points="261,-412.5 261,-442.5 470,-442.5 470,-412.5 261,-412.5"/>
<text text-anchor="start" x="268" y="-423.9" font-family="Arial" font-size="14.00" fill="#000000">created_at </text>
<text text-anchor="start" x="338.028" y="-423.9" font-family="Arial" font-size="14.00" fill="#666666">[datetime(6)]</text>
<polygon fill="none" stroke="#000000" points="261,-382.5 261,-412.5 470,-412.5 470,-382.5 261,-382.5"/>
<text text-anchor="start" x="268" y="-393.9" font-family="Arial" font-size="14.00" fill="#000000">deleted_at </text>
<text text-anchor="start" x="337.2566" y="-393.9" font-family="Arial" font-size="14.00" fill="#666666">[datetime(6)]</text>
<polygon fill="none" stroke="#000000" stroke-width="3" points="259,-381.5 259,-539.5 471,-539.5 471,-381.5 259,-381.5"/>
</g>
<!-- courses -->
<g id="node2" class="node">
<title>courses</title>
<polygon fill="#efefef" stroke="transparent" points="133,-222.5 133,-257.5 307,-257.5 307,-222.5 133,-222.5"/>
<polygon fill="none" stroke="#000000" points="133,-222.5 133,-257.5 307,-257.5 307,-222.5 133,-222.5"/>
<text text-anchor="start" x="139.8677" y="-235.3" font-family="Arial Bold" font-size="18.00" fill="#000000">courses</text>
<text text-anchor="start" x="202.8785" y="-235.3" font-family="Arial" font-size="14.00" fill="#000000"> </text>
<text text-anchor="start" x="206.7691" y="-235.3" font-family="Arial" font-size="14.00" fill="#666666">[BASE TABLE]</text>
<polygon fill="none" stroke="#000000" points="133,-192.5 133,-222.5 307,-222.5 307,-192.5 133,-192.5"/>
<text text-anchor="start" x="140" y="-203.9" font-family="Arial" font-size="14.00" fill="#000000">id </text>
<text text-anchor="start" x="154.7798" y="-203.9" font-family="Arial" font-size="14.00" fill="#666666">[char(36)]</text>
<polygon fill="none" stroke="#000000" points="133,-162.5 133,-192.5 307,-192.5 307,-162.5 133,-162.5"/>
<text text-anchor="start" x="140" y="-173.9" font-family="Arial" font-size="14.00" fill="#000000">name </text>
<text text-anchor="start" x="178.899" y="-173.9" font-family="Arial" font-size="14.00" fill="#666666">[varchar(255)]</text>
<polygon fill="none" stroke="#000000" points="133,-132.5 133,-162.5 307,-162.5 307,-132.5 133,-132.5"/>
<text text-anchor="start" x="140" y="-143.9" font-family="Arial" font-size="14.00" fill="#000000">description </text>
<text text-anchor="start" x="211.568" y="-143.9" font-family="Arial" font-size="14.00" fill="#666666">[text]</text>
<polygon fill="none" stroke="#000000" points="133,-102.5 133,-132.5 307,-132.5 307,-102.5 133,-102.5"/>
<text text-anchor="start" x="140" y="-113.9" font-family="Arial" font-size="14.00" fill="#000000">credit </text>
<text text-anchor="start" x="178.1136" y="-113.9" font-family="Arial" font-size="14.00" fill="#666666">[tinyint unsigned]</text>
<polygon fill="none" stroke="#000000" points="133,-72.5 133,-102.5 307,-102.5 307,-72.5 133,-72.5"/>
<text text-anchor="start" x="140" y="-83.9" font-family="Arial" font-size="14.00" fill="#000000">classroom </text>
<text text-anchor="start" x="207.6662" y="-83.9" font-family="Arial" font-size="14.00" fill="#666666">[varchar(255)]</text>
<polygon fill="none" stroke="#000000" points="133,-42.5 133,-72.5 307,-72.5 307,-42.5 133,-42.5"/>
<text text-anchor="start" x="140" y="-53.9" font-family="Arial" font-size="14.00" fill="#000000">capacity </text>
<text text-anchor="start" x="195.2356" y="-53.9" font-family="Arial" font-size="14.00" fill="#666666">[int unsigned]</text>
</g>
<!-- registrations&#45;&gt;courses -->
<g id="edge1" class="edge">
<title>registrations:course_id&#45;&gt;courses:id</title>
<path fill="none" stroke="#000000" d="M250.945,-486.7089C198.1979,-477.7064 233.3047,-393.8429 261,-337 272.371,-313.6617 295.629,-324.3383 307,-301 325.2014,-263.6426 348.5556,-207.5 307,-207.5"/>
<polygon fill="#000000" stroke="#000000" points="251.0308,-486.7156 260.647,-491.9861 256.0154,-487.1078 261,-487.5 261,-487.5 261,-487.5 256.0154,-487.1078 261.353,-483.0139 251.0308,-486.7156 251.0308,-486.7156"/>
<text text-anchor="start" x="7.386" y="-497.5" font-family="Arial" font-size="10.00" fill="#000000">FOREIGN KEY (course_id) REFERENCES courses (id)</text>
</g>
<!-- users -->
<g id="node3" class="node">
<title>users</title>
<polygon fill="#efefef" stroke="transparent" points="411,-207.5 411,-242.5 613,-242.5 613,-207.5 411,-207.5"/>
<polygon fill="none" stroke="#000000" points="411,-207.5 411,-242.5 613,-242.5 613,-207.5 411,-207.5"/>
<text text-anchor="start" x="441.3708" y="-220.3" font-family="Arial Bold" font-size="18.00" fill="#000000">users</text>
<text text-anchor="start" x="485.3754" y="-220.3" font-family="Arial" font-size="14.00" fill="#000000"> </text>
<text text-anchor="start" x="489.266" y="-220.3" font-family="Arial" font-size="14.00" fill="#666666">[BASE TABLE]</text>
<polygon fill="none" stroke="#000000" points="411,-177.5 411,-207.5 613,-207.5 613,-177.5 411,-177.5"/>
<text text-anchor="start" x="418" y="-188.9" font-family="Arial" font-size="14.00" fill="#000000">id </text>
<text text-anchor="start" x="432.7798" y="-188.9" font-family="Arial" font-size="14.00" fill="#666666">[char(36)]</text>
<polygon fill="none" stroke="#000000" points="411,-147.5 411,-177.5 613,-177.5 613,-147.5 411,-147.5"/>
<text text-anchor="start" x="418" y="-158.9" font-family="Arial" font-size="14.00" fill="#000000">name </text>
<text text-anchor="start" x="456.899" y="-158.9" font-family="Arial" font-size="14.00" fill="#666666">[varchar(255)]</text>
<polygon fill="none" stroke="#000000" points="411,-117.5 411,-147.5 613,-147.5 613,-117.5 411,-117.5"/>
<text text-anchor="start" x="418" y="-128.9" font-family="Arial" font-size="14.00" fill="#000000">mail_address </text>
<text text-anchor="start" x="505.1206" y="-128.9" font-family="Arial" font-size="14.00" fill="#666666">[varchar(255)]</text>
<polygon fill="none" stroke="#000000" points="411,-87.5 411,-117.5 613,-117.5 613,-87.5 411,-87.5"/>
<text text-anchor="start" x="417.8668" y="-98.9" font-family="Arial" font-size="14.00" fill="#000000">hashed_password </text>
<text text-anchor="start" x="535.3506" y="-98.9" font-family="Arial" font-size="14.00" fill="#666666">[binary(60)]</text>
<polygon fill="none" stroke="#000000" points="411,-57.5 411,-87.5 613,-87.5 613,-57.5 411,-57.5"/>
<text text-anchor="start" x="418" y="-68.9" font-family="Arial" font-size="14.00" fill="#000000">type </text>
<text text-anchor="start" x="448.3464" y="-68.9" font-family="Arial" font-size="14.00" fill="#666666">[enum(&#39;student&#39;,&#39;faculty&#39;)]</text>
</g>
<!-- registrations&#45;&gt;users -->
<g id="edge2" class="edge">
<title>registrations:user_id&#45;&gt;users:id</title>
<path fill="none" stroke="#000000" d="M480.17,-457.3642C662.0062,-452.3316 421.5119,-308.9813 411,-286 393.7145,-248.2101 369.4444,-192.5 411,-192.5"/>
<polygon fill="#000000" stroke="#000000" points="479.9991,-457.3664 469.9399,-453.0004 474.9996,-457.4332 470,-457.5 470,-457.5 470,-457.5 474.9996,-457.4332 470.0601,-461.9996 479.9991,-457.3664 479.9991,-457.3664"/>
<text text-anchor="start" x="476.945" y="-467.5" font-family="Arial" font-size="10.00" fill="#000000">FOREIGN KEY (user_id) REFERENCES users (id)</text>
</g>
</g>
</svg>
