<?xml version="1.0" encoding="UTF-8" standalone="no"?>
<!DOCTYPE svg PUBLIC "-//W3C//DTD SVG 1.1//EN"
 "http://www.w3.org/Graphics/SVG/1.1/DTD/svg11.dtd">
<!-- Generated by graphviz version 2.40.1 (20161225.0304)
 -->
<!-- Title: registrations Pages: 1 -->
<svg width="718pt" height="712pt"
 viewBox="0.00 0.00 718.00 712.00" xmlns="http://www.w3.org/2000/svg" xmlns:xlink="http://www.w3.org/1999/xlink">
<g id="graph0" class="graph" transform="scale(1 1) rotate(0) translate(4 708)">
<title>registrations</title>
<polygon fill="#ffffff" stroke="transparent" points="-4,4 -4,-708 714,-708 714,4 -4,4"/>
<!-- registrations -->
<g id="node1" class="node">
<title>registrations</title>
<polygon fill="#efefef" stroke="transparent" points="261,-622.5 261,-657.5 470,-657.5 470,-622.5 261,-622.5"/>
<polygon fill="none" stroke="#000000" points="261,-622.5 261,-657.5 470,-657.5 470,-622.5 261,-622.5"/>
<text text-anchor="start" x="267.869" y="-635.3" font-family="Arial Bold" font-size="18.00" fill="#000000">registrations</text>
<text text-anchor="start" x="365.8772" y="-635.3" font-family="Arial" font-size="14.00" fill="#000000"> </text>
<text text-anchor="start" x="369.7678" y="-635.3" font-family="Arial" font-size="14.00" fill="#666666">[BASE TABLE]</text>
<polygon fill="none" stroke="#000000" points="261,-592.5 261,-622.5 470,-622.5 470,-592.5 261,-592.5"/>
<text text-anchor="start" x="268" y="-603.9" font-family="Arial" font-size="14.00" fill="#000000">course_id </text>
<text text-anchor="start" x="332.5708" y="-603.9" font-family="Arial" font-size="14.00" fill="#666666">[char(36)]</text>
<polygon fill="none" stroke="#000000" points="261,-562.5 261,-592.5 470,-592.5 470,-562.5 261,-562.5"/>
<text text-anchor="start" x="268" y="-573.9" font-family="Arial" font-size="14.00" fill="#000000">user_id </text>
<text text-anchor="start" x="317.7882" y="-573.9" font-family="Arial" font-size="14.00" fill="#666666">[char(36)]</text>
<polygon fill="none" stroke="#000000" points="261,-532.5 261,-562.5 470,-562.5 470,-532.5 261,-532.5"/>
<text text-anchor="start" x="268" y="-543.9" font-family="Arial" font-size="14.00" fill="#000000">created_at </text>
<text text-anchor="start" x="338.028" y="-543.9" font-family="Arial" font-size="14.00" fill="#666666">[datetime(6)]</text>
<polygon fill="none" stroke="#000000" points="261,-502.5 261,-532.5 470,-532.5 470,-502.5 261,-502.5"/>
<text text-anchor="start" x="268" y="-513.9" font-family="Arial" font-size="14.00" fill="#000000">deleted_at </text>
<text text-anchor="start" x="337.2566" y="-513.9" font-family="Arial" font-size="14.00" fill="#666666">[datetime(6)]</text>
<polygon fill="none" stroke="#000000" stroke-width="3" points="259,-501.5 259,-659.5 471,-659.5 471,-501.5 259,-501.5"/>
</g>
<!-- courses -->
<g id="node2" class="node">
<title>courses</title>
<polygon fill="#efefef" stroke="transparent" points="62,-342.5 62,-377.5 331,-377.5 331,-342.5 62,-342.5"/>
<polygon fill="none" stroke="#000000" points="62,-342.5 62,-377.5 331,-377.5 331,-342.5 62,-342.5"/>
<text text-anchor="start" x="116.3677" y="-355.3" font-family="Arial Bold" font-size="18.00" fill="#000000">courses</text>
<text text-anchor="start" x="179.3785" y="-355.3" font-family="Arial" font-size="14.00" fill="#000000"> </text>
<text text-anchor="start" x="183.2691" y="-355.3" font-family="Arial" font-size="14.00" fill="#666666">[BASE TABLE]</text>
<polygon fill="none" stroke="#000000" points="62,-312.5 62,-342.5 331,-342.5 331,-312.5 62,-312.5"/>
<text text-anchor="start" x="69" y="-323.9" font-family="Arial" font-size="14.00" fill="#000000">id </text>
<text text-anchor="start" x="83.7798" y="-323.9" font-family="Arial" font-size="14.00" fill="#666666">[char(36)]</text>
<polygon fill="none" stroke="#000000" points="62,-282.5 62,-312.5 331,-312.5 331,-282.5 62,-282.5"/>
<text text-anchor="start" x="69" y="-293.9" font-family="Arial" font-size="14.00" fill="#000000">code </text>
<text text-anchor="start" x="103.2384" y="-293.9" font-family="Arial" font-size="14.00" fill="#666666">[varchar(255)]</text>
<polygon fill="none" stroke="#000000" points="62,-252.5 62,-282.5 331,-282.5 331,-252.5 62,-252.5"/>
<text text-anchor="start" x="68.9803" y="-263.9" font-family="Arial" font-size="14.00" fill="#000000">type </text>
<text text-anchor="start" x="99.3267" y="-263.9" font-family="Arial" font-size="14.00" fill="#666666">[enum(&#39;liberal&#45;arts&#39;,&#39;major&#45;subjects&#39;)]</text>
<polygon fill="none" stroke="#000000" points="62,-222.5 62,-252.5 331,-252.5 331,-222.5 62,-222.5"/>
<text text-anchor="start" x="69" y="-233.9" font-family="Arial" font-size="14.00" fill="#000000">name </text>
<text text-anchor="start" x="107.899" y="-233.9" font-family="Arial" font-size="14.00" fill="#666666">[varchar(255)]</text>
<polygon fill="none" stroke="#000000" points="62,-192.5 62,-222.5 331,-222.5 331,-192.5 62,-192.5"/>
<text text-anchor="start" x="69" y="-203.9" font-family="Arial" font-size="14.00" fill="#000000">description </text>
<text text-anchor="start" x="140.568" y="-203.9" font-family="Arial" font-size="14.00" fill="#666666">[text]</text>
<polygon fill="none" stroke="#000000" points="62,-162.5 62,-192.5 331,-192.5 331,-162.5 62,-162.5"/>
<text text-anchor="start" x="69" y="-173.9" font-family="Arial" font-size="14.00" fill="#000000">credit </text>
<text text-anchor="start" x="107.1136" y="-173.9" font-family="Arial" font-size="14.00" fill="#666666">[tinyint unsigned]</text>
<polygon fill="none" stroke="#000000" points="62,-132.5 62,-162.5 331,-162.5 331,-132.5 62,-132.5"/>
<text text-anchor="start" x="69" y="-143.9" font-family="Arial" font-size="14.00" fill="#000000">classroom </text>
<text text-anchor="start" x="136.6662" y="-143.9" font-family="Arial" font-size="14.00" fill="#666666">[varchar(255)]</text>
<polygon fill="none" stroke="#000000" points="62,-102.5 62,-132.5 331,-132.5 331,-102.5 62,-102.5"/>
<text text-anchor="start" x="69" y="-113.9" font-family="Arial" font-size="14.00" fill="#000000">capacity </text>
<text text-anchor="start" x="124.2356" y="-113.9" font-family="Arial" font-size="14.00" fill="#666666">[int unsigned]</text>
<polygon fill="none" stroke="#000000" points="62,-72.5 62,-102.5 331,-102.5 331,-72.5 62,-72.5"/>
<text text-anchor="start" x="69" y="-83.9" font-family="Arial" font-size="14.00" fill="#000000">teacher_id </text>
<text text-anchor="start" x="138.244" y="-83.9" font-family="Arial" font-size="14.00" fill="#666666">[char(36)]</text>
<polygon fill="none" stroke="#000000" points="62,-42.5 62,-72.5 331,-72.5 331,-42.5 62,-42.5"/>
<text text-anchor="start" x="69" y="-53.9" font-family="Arial" font-size="14.00" fill="#000000">keywords </text>
<text text-anchor="start" x="132.0056" y="-53.9" font-family="Arial" font-size="14.00" fill="#666666">[text]</text>
</g>
<!-- registrations&#45;&gt;courses -->
<g id="edge1" class="edge">
<title>registrations:course_id&#45;&gt;courses:id</title>
<path fill="none" stroke="#000000" d="M250.898,-606.6832C197.6246,-597.3927 228.0637,-510.9754 261,-457 279.223,-427.1366 312.777,-450.8634 331,-421 352.6459,-385.5272 372.5556,-327.5 331,-327.5"/>
<polygon fill="#000000" stroke="#000000" points="251.0325,-606.694 260.6373,-611.9854 256.0163,-607.097 261,-607.5 261,-607.5 261,-607.5 256.0163,-607.097 261.3627,-603.0146 251.0325,-606.694 251.0325,-606.694"/>
<text text-anchor="start" x="7.386" y="-617.5" font-family="Arial" font-size="10.00" fill="#000000">FOREIGN KEY (course_id) REFERENCES courses (id)</text>
</g>
<!-- users -->
<g id="node3" class="node">
<title>users</title>
<polygon fill="#efefef" stroke="transparent" points="435,-267.5 435,-302.5 637,-302.5 637,-267.5 435,-267.5"/>
<polygon fill="none" stroke="#000000" points="435,-267.5 435,-302.5 637,-302.5 637,-267.5 435,-267.5"/>
<text text-anchor="start" x="465.3708" y="-280.3" font-family="Arial Bold" font-size="18.00" fill="#000000">users</text>
<text text-anchor="start" x="509.3754" y="-280.3" font-family="Arial" font-size="14.00" fill="#000000"> </text>
<text text-anchor="start" x="513.266" y="-280.3" font-family="Arial" font-size="14.00" fill="#666666">[BASE TABLE]</text>
<polygon fill="none" stroke="#000000" points="435,-237.5 435,-267.5 637,-267.5 637,-237.5 435,-237.5"/>
<text text-anchor="start" x="442" y="-248.9" font-family="Arial" font-size="14.00" fill="#000000">id </text>
<text text-anchor="start" x="456.7798" y="-248.9" font-family="Arial" font-size="14.00" fill="#666666">[char(36)]</text>
<polygon fill="none" stroke="#000000" points="435,-207.5 435,-237.5 637,-237.5 637,-207.5 435,-207.5"/>
<text text-anchor="start" x="442" y="-218.9" font-family="Arial" font-size="14.00" fill="#000000">name </text>
<text text-anchor="start" x="480.899" y="-218.9" font-family="Arial" font-size="14.00" fill="#666666">[varchar(255)]</text>
<polygon fill="none" stroke="#000000" points="435,-177.5 435,-207.5 637,-207.5 637,-177.5 435,-177.5"/>
<text text-anchor="start" x="442" y="-188.9" font-family="Arial" font-size="14.00" fill="#000000">mail_address </text>
<text text-anchor="start" x="529.1206" y="-188.9" font-family="Arial" font-size="14.00" fill="#666666">[varchar(255)]</text>
<polygon fill="none" stroke="#000000" points="435,-147.5 435,-177.5 637,-177.5 637,-147.5 435,-147.5"/>
<text text-anchor="start" x="441.8668" y="-158.9" font-family="Arial" font-size="14.00" fill="#000000">hashed_password </text>
<text text-anchor="start" x="559.3506" y="-158.9" font-family="Arial" font-size="14.00" fill="#666666">[binary(60)]</text>
<polygon fill="none" stroke="#000000" points="435,-117.5 435,-147.5 637,-147.5 637,-117.5 435,-117.5"/>
<text text-anchor="start" x="442" y="-128.9" font-family="Arial" font-size="14.00" fill="#000000">type </text>
<text text-anchor="start" x="472.3464" y="-128.9" font-family="Arial" font-size="14.00" fill="#666666">[enum(&#39;student&#39;,&#39;faculty&#39;)]</text>
</g>
<!-- registrations&#45;&gt;users -->
<g id="edge2" class="edge">
<title>registrations:user_id&#45;&gt;users:id</title>
<path fill="none" stroke="#000000" d="M480.171,-576.8821C599.0509,-561.2056 293.4091,-252.5 435,-252.5"/>
<polygon fill="#000000" stroke="#000000" points="479.9816,-576.8935 469.7271,-573.0083 474.9908,-577.1967 470,-577.5 470,-577.5 470,-577.5 474.9908,-577.1967 470.2729,-581.9917 479.9816,-576.8935 479.9816,-576.8935"/>
<text text-anchor="start" x="476.945" y="-587.5" font-family="Arial" font-size="10.00" fill="#000000">FOREIGN KEY (user_id) REFERENCES users (id)</text>
</g>
</g>
</svg>
