<?xml version="1.0" encoding="UTF-8" standalone="no"?>
<!DOCTYPE svg PUBLIC "-//W3C//DTD SVG 1.1//EN"
 "http://www.w3.org/Graphics/SVG/1.1/DTD/svg11.dtd">
<!-- Generated by graphviz version 2.40.1 (20161225.0304)
 -->
<!-- Title: registrations Pages: 1 -->
<svg width="976pt" height="772pt"
 viewBox="0.00 0.00 975.50 772.00" xmlns="http://www.w3.org/2000/svg" xmlns:xlink="http://www.w3.org/1999/xlink">
<g id="graph0" class="graph" transform="scale(1 1) rotate(0) translate(4 768)">
<title>registrations</title>
<polygon fill="#ffffff" stroke="transparent" points="-4,4 -4,-768 971.5,-768 971.5,4 -4,4"/>
<!-- registrations -->
<g id="node1" class="node">
<title>registrations</title>
<polygon fill="#efefef" stroke="transparent" points="472.5,-682.5 472.5,-717.5 681.5,-717.5 681.5,-682.5 472.5,-682.5"/>
<polygon fill="none" stroke="#000000" points="472.5,-682.5 472.5,-717.5 681.5,-717.5 681.5,-682.5 472.5,-682.5"/>
<text text-anchor="start" x="479.369" y="-695.3" font-family="Arial Bold" font-size="18.00" fill="#000000">registrations</text>
<text text-anchor="start" x="577.3772" y="-695.3" font-family="Arial" font-size="14.00" fill="#000000"> </text>
<text text-anchor="start" x="581.2678" y="-695.3" font-family="Arial" font-size="14.00" fill="#666666">[BASE TABLE]</text>
<polygon fill="none" stroke="#000000" points="472.5,-652.5 472.5,-682.5 681.5,-682.5 681.5,-652.5 472.5,-652.5"/>
<text text-anchor="start" x="479.5" y="-663.9" font-family="Arial" font-size="14.00" fill="#000000">course_id </text>
<text text-anchor="start" x="544.0708" y="-663.9" font-family="Arial" font-size="14.00" fill="#666666">[char(36)]</text>
<polygon fill="none" stroke="#000000" points="472.5,-622.5 472.5,-652.5 681.5,-652.5 681.5,-622.5 472.5,-622.5"/>
<text text-anchor="start" x="479.5" y="-633.9" font-family="Arial" font-size="14.00" fill="#000000">user_id </text>
<text text-anchor="start" x="529.2882" y="-633.9" font-family="Arial" font-size="14.00" fill="#666666">[char(36)]</text>
<polygon fill="none" stroke="#000000" points="472.5,-592.5 472.5,-622.5 681.5,-622.5 681.5,-592.5 472.5,-592.5"/>
<text text-anchor="start" x="479.5" y="-603.9" font-family="Arial" font-size="14.00" fill="#000000">created_at </text>
<text text-anchor="start" x="549.528" y="-603.9" font-family="Arial" font-size="14.00" fill="#666666">[datetime(6)]</text>
<polygon fill="none" stroke="#000000" points="472.5,-562.5 472.5,-592.5 681.5,-592.5 681.5,-562.5 472.5,-562.5"/>
<text text-anchor="start" x="479.5" y="-573.9" font-family="Arial" font-size="14.00" fill="#000000">deleted_at </text>
<text text-anchor="start" x="548.7566" y="-573.9" font-family="Arial" font-size="14.00" fill="#666666">[datetime(6)]</text>
<polygon fill="none" stroke="#000000" stroke-width="3" points="470.5,-561.5 470.5,-719.5 682.5,-719.5 682.5,-561.5 470.5,-561.5"/>
</g>
<!-- courses -->
<g id="node2" class="node">
<title>courses</title>
<polygon fill="#efefef" stroke="transparent" points="43.5,-402.5 43.5,-437.5 618.5,-437.5 618.5,-402.5 43.5,-402.5"/>
<polygon fill="none" stroke="#000000" points="43.5,-402.5 43.5,-437.5 618.5,-437.5 618.5,-402.5 43.5,-402.5"/>
<text text-anchor="start" x="250.8677" y="-415.3" font-family="Arial Bold" font-size="18.00" fill="#000000">courses</text>
<text text-anchor="start" x="313.8785" y="-415.3" font-family="Arial" font-size="14.00" fill="#000000"> </text>
<text text-anchor="start" x="317.7691" y="-415.3" font-family="Arial" font-size="14.00" fill="#666666">[BASE TABLE]</text>
<polygon fill="none" stroke="#000000" points="43.5,-372.5 43.5,-402.5 618.5,-402.5 618.5,-372.5 43.5,-372.5"/>
<text text-anchor="start" x="50.5" y="-383.9" font-family="Arial" font-size="14.00" fill="#000000">id </text>
<text text-anchor="start" x="65.2798" y="-383.9" font-family="Arial" font-size="14.00" fill="#666666">[char(36)]</text>
<polygon fill="none" stroke="#000000" points="43.5,-342.5 43.5,-372.5 618.5,-372.5 618.5,-342.5 43.5,-342.5"/>
<text text-anchor="start" x="50.5" y="-353.9" font-family="Arial" font-size="14.00" fill="#000000">code </text>
<text text-anchor="start" x="84.7384" y="-353.9" font-family="Arial" font-size="14.00" fill="#666666">[varchar(255)]</text>
<polygon fill="none" stroke="#000000" points="43.5,-312.5 43.5,-342.5 618.5,-342.5 618.5,-312.5 43.5,-312.5"/>
<text text-anchor="start" x="50.5" y="-323.9" font-family="Arial" font-size="14.00" fill="#000000">type </text>
<text text-anchor="start" x="80.8464" y="-323.9" font-family="Arial" font-size="14.00" fill="#666666">[enum(&#39;liberal&#45;arts&#39;,&#39;major&#45;subjects&#39;)]</text>
<polygon fill="none" stroke="#000000" points="43.5,-282.5 43.5,-312.5 618.5,-312.5 618.5,-282.5 43.5,-282.5"/>
<text text-anchor="start" x="50.5" y="-293.9" font-family="Arial" font-size="14.00" fill="#000000">name </text>
<text text-anchor="start" x="89.399" y="-293.9" font-family="Arial" font-size="14.00" fill="#666666">[varchar(255)]</text>
<polygon fill="none" stroke="#000000" points="43.5,-252.5 43.5,-282.5 618.5,-282.5 618.5,-252.5 43.5,-252.5"/>
<text text-anchor="start" x="50.5" y="-263.9" font-family="Arial" font-size="14.00" fill="#000000">description </text>
<text text-anchor="start" x="122.068" y="-263.9" font-family="Arial" font-size="14.00" fill="#666666">[text]</text>
<polygon fill="none" stroke="#000000" points="43.5,-222.5 43.5,-252.5 618.5,-252.5 618.5,-222.5 43.5,-222.5"/>
<text text-anchor="start" x="50.5" y="-233.9" font-family="Arial" font-size="14.00" fill="#000000">credit </text>
<text text-anchor="start" x="88.6136" y="-233.9" font-family="Arial" font-size="14.00" fill="#666666">[tinyint unsigned]</text>
<polygon fill="none" stroke="#000000" points="43.5,-192.5 43.5,-222.5 618.5,-222.5 618.5,-192.5 43.5,-192.5"/>
<text text-anchor="start" x="50.5" y="-203.9" font-family="Arial" font-size="14.00" fill="#000000">period </text>
<text text-anchor="start" x="93.2882" y="-203.9" font-family="Arial" font-size="14.00" fill="#666666">[tinyint unsigned]</text>
<polygon fill="none" stroke="#000000" points="43.5,-162.5 43.5,-192.5 618.5,-192.5 618.5,-162.5 43.5,-162.5"/>
<text text-anchor="start" x="50.2762" y="-173.9" font-family="Arial" font-size="14.00" fill="#000000">day_of_week </text>
<text text-anchor="start" x="136.6422" y="-173.9" font-family="Arial" font-size="14.00" fill="#666666">[enum(&#39;sunday&#39;,&#39;monday&#39;,&#39;tuesday&#39;,&#39;wednesday&#39;,&#39;thursday&#39;,&#39;friday&#39;,&#39;saturday&#39;)]</text>
<polygon fill="none" stroke="#000000" points="43.5,-132.5 43.5,-162.5 618.5,-162.5 618.5,-132.5 43.5,-132.5"/>
<text text-anchor="start" x="50.5" y="-143.9" font-family="Arial" font-size="14.00" fill="#000000">teacher_id </text>
<text text-anchor="start" x="119.744" y="-143.9" font-family="Arial" font-size="14.00" fill="#666666">[char(36)]</text>
<polygon fill="none" stroke="#000000" points="43.5,-102.5 43.5,-132.5 618.5,-132.5 618.5,-102.5 43.5,-102.5"/>
<text text-anchor="start" x="50.5" y="-113.9" font-family="Arial" font-size="14.00" fill="#000000">keywords </text>
<text text-anchor="start" x="113.5056" y="-113.9" font-family="Arial" font-size="14.00" fill="#666666">[text]</text>
<polygon fill="none" stroke="#000000" points="43.5,-72.5 43.5,-102.5 618.5,-102.5 618.5,-72.5 43.5,-72.5"/>
<text text-anchor="start" x="50.5" y="-83.9" font-family="Arial" font-size="14.00" fill="#000000">status </text>
<text text-anchor="start" x="91.737" y="-83.9" font-family="Arial" font-size="14.00" fill="#666666">[enum(&#39;reg&#39;,&#39;class&#39;,&#39;result&#39;)]</text>
<polygon fill="none" stroke="#000000" points="43.5,-42.5 43.5,-72.5 618.5,-72.5 618.5,-42.5 43.5,-42.5"/>
<text text-anchor="start" x="50.5" y="-53.9" font-family="Arial" font-size="14.00" fill="#000000">created_at </text>
<text text-anchor="start" x="120.528" y="-53.9" font-family="Arial" font-size="14.00" fill="#666666">[datetime(6)]</text>
</g>
<!-- registrations&#45;&gt;courses -->
<g id="edge1" class="edge">
<title>registrations:course_id&#45;&gt;courses:id</title>
<path fill="none" stroke="#000000" d="M462.3436,-666.6455C408.4621,-656.9334 433.5066,-566.7761 472.5,-517 513.7144,-464.3888 577.2856,-533.6112 618.5,-481 644.1266,-448.287 660.0556,-387.5 618.5,-387.5"/>
<polygon fill="#000000" stroke="#000000" points="462.5352,-666.6615 472.1227,-671.9842 467.5176,-667.0808 472.5,-667.5 472.5,-667.5 472.5,-667.5 467.5176,-667.0808 472.8773,-663.0158 462.5352,-666.6615 462.5352,-666.6615"/>
<text text-anchor="start" x="218.886" y="-677.5" font-family="Arial" font-size="10.00" fill="#000000">FOREIGN KEY (course_id) REFERENCES courses (id)</text>
</g>
<!-- users -->
<g id="node3" class="node">
<title>users</title>
<polygon fill="#efefef" stroke="transparent" points="722.5,-297.5 722.5,-332.5 924.5,-332.5 924.5,-297.5 722.5,-297.5"/>
<polygon fill="none" stroke="#000000" points="722.5,-297.5 722.5,-332.5 924.5,-332.5 924.5,-297.5 722.5,-297.5"/>
<text text-anchor="start" x="752.8708" y="-310.3" font-family="Arial Bold" font-size="18.00" fill="#000000">users</text>
<text text-anchor="start" x="796.8754" y="-310.3" font-family="Arial" font-size="14.00" fill="#000000"> </text>
<text text-anchor="start" x="800.766" y="-310.3" font-family="Arial" font-size="14.00" fill="#666666">[BASE TABLE]</text>
<polygon fill="none" stroke="#000000" points="722.5,-267.5 722.5,-297.5 924.5,-297.5 924.5,-267.5 722.5,-267.5"/>
<text text-anchor="start" x="729.5" y="-278.9" font-family="Arial" font-size="14.00" fill="#000000">id </text>
<text text-anchor="start" x="744.2798" y="-278.9" font-family="Arial" font-size="14.00" fill="#666666">[char(36)]</text>
<polygon fill="none" stroke="#000000" points="722.5,-237.5 722.5,-267.5 924.5,-267.5 924.5,-237.5 722.5,-237.5"/>
<text text-anchor="start" x="729.5" y="-248.9" font-family="Arial" font-size="14.00" fill="#000000">code </text>
<text text-anchor="start" x="763.7384" y="-248.9" font-family="Arial" font-size="14.00" fill="#666666">[char(8)]</text>
<polygon fill="none" stroke="#000000" points="722.5,-207.5 722.5,-237.5 924.5,-237.5 924.5,-207.5 722.5,-207.5"/>
<text text-anchor="start" x="729.5" y="-218.9" font-family="Arial" font-size="14.00" fill="#000000">name </text>
<text text-anchor="start" x="768.399" y="-218.9" font-family="Arial" font-size="14.00" fill="#666666">[varchar(255)]</text>
<polygon fill="none" stroke="#000000" points="722.5,-177.5 722.5,-207.5 924.5,-207.5 924.5,-177.5 722.5,-177.5"/>
<text text-anchor="start" x="729.3668" y="-188.9" font-family="Arial" font-size="14.00" fill="#000000">hashed_password </text>
<text text-anchor="start" x="846.8506" y="-188.9" font-family="Arial" font-size="14.00" fill="#666666">[binary(60)]</text>
<polygon fill="none" stroke="#000000" points="722.5,-147.5 722.5,-177.5 924.5,-177.5 924.5,-147.5 722.5,-147.5"/>
<text text-anchor="start" x="729.5" y="-158.9" font-family="Arial" font-size="14.00" fill="#000000">type </text>
<text text-anchor="start" x="759.8464" y="-158.9" font-family="Arial" font-size="14.00" fill="#666666">[enum(&#39;student&#39;,&#39;faculty&#39;)]</text>
</g>
<!-- registrations&#45;&gt;users -->
<g id="edge2" class="edge">
<title>registrations:user_id&#45;&gt;users:id</title>
<path fill="none" stroke="#000000" d="M691.553,-636.9708C828.1185,-621.7318 567.2408,-282.5 722.5,-282.5"/>
<polygon fill="#000000" stroke="#000000" points="691.4862,-636.9742 681.2634,-633.0062 686.4931,-637.2371 681.5,-637.5 681.5,-637.5 681.5,-637.5 686.4931,-637.2371 681.7366,-641.9938 691.4862,-636.9742 691.4862,-636.9742"/>
<text text-anchor="start" x="688.445" y="-647.5" font-family="Arial" font-size="10.00" fill="#000000">FOREIGN KEY (user_id) REFERENCES users (id)</text>
</g>
</g>
</svg>
