<?xml version="1.0" encoding="UTF-8" standalone="no"?>
<!DOCTYPE svg PUBLIC "-//W3C//DTD SVG 1.1//EN"
 "http://www.w3.org/Graphics/SVG/1.1/DTD/svg11.dtd">
<!-- Generated by graphviz version 2.40.1 (20161225.0304)
 -->
<!-- Title: registrations Pages: 1 -->
<svg width="3039pt" height="616pt"
 viewBox="0.00 0.00 3038.50 616.00" xmlns="http://www.w3.org/2000/svg" xmlns:xlink="http://www.w3.org/1999/xlink">
<g id="graph0" class="graph" transform="scale(1 1) rotate(0) translate(4 612)">
<title>registrations</title>
<polygon fill="#ffffff" stroke="transparent" points="-4,4 -4,-612 3034.5,-612 3034.5,4 -4,4"/>
<!-- registrations -->
<g id="node1" class="node">
<title>registrations</title>
<polygon fill="#efefef" stroke="transparent" points="1739,-514.5 1739,-549.5 1948,-549.5 1948,-514.5 1739,-514.5"/>
<polygon fill="none" stroke="#000000" points="1739,-514.5 1739,-549.5 1948,-549.5 1948,-514.5 1739,-514.5"/>
<text text-anchor="start" x="1745.869" y="-527.3" font-family="Arial Bold" font-size="18.00" fill="#000000">registrations</text>
<text text-anchor="start" x="1843.8772" y="-527.3" font-family="Arial" font-size="14.00" fill="#000000"> </text>
<text text-anchor="start" x="1847.7678" y="-527.3" font-family="Arial" font-size="14.00" fill="#666666">[BASE TABLE]</text>
<polygon fill="none" stroke="#000000" points="1739,-484.5 1739,-514.5 1948,-514.5 1948,-484.5 1739,-484.5"/>
<text text-anchor="start" x="1746" y="-495.9" font-family="Arial" font-size="14.00" fill="#000000">course_id </text>
<text text-anchor="start" x="1810.5708" y="-495.9" font-family="Arial" font-size="14.00" fill="#666666">[char(36)]</text>
<polygon fill="none" stroke="#000000" points="1739,-454.5 1739,-484.5 1948,-484.5 1948,-454.5 1739,-454.5"/>
<text text-anchor="start" x="1746" y="-465.9" font-family="Arial" font-size="14.00" fill="#000000">user_id </text>
<text text-anchor="start" x="1795.7882" y="-465.9" font-family="Arial" font-size="14.00" fill="#666666">[char(36)]</text>
<polygon fill="none" stroke="#000000" points="1739,-424.5 1739,-454.5 1948,-454.5 1948,-424.5 1739,-424.5"/>
<text text-anchor="start" x="1746" y="-435.9" font-family="Arial" font-size="14.00" fill="#000000">created_at </text>
<text text-anchor="start" x="1816.028" y="-435.9" font-family="Arial" font-size="14.00" fill="#666666">[datetime(6)]</text>
<polygon fill="none" stroke="#000000" points="1739,-394.5 1739,-424.5 1948,-424.5 1948,-394.5 1739,-394.5"/>
<text text-anchor="start" x="1746" y="-405.9" font-family="Arial" font-size="14.00" fill="#000000">delete_at </text>
<text text-anchor="start" x="1807.474" y="-405.9" font-family="Arial" font-size="14.00" fill="#666666">[datetime(6)]</text>
<polygon fill="none" stroke="#000000" stroke-width="3" points="1737,-393.5 1737,-551.5 1949,-551.5 1949,-393.5 1737,-393.5"/>
</g>
<!-- courses -->
<g id="node2" class="node">
<title>courses</title>
<polygon fill="#efefef" stroke="transparent" points="1134,-222.5 1134,-257.5 1308,-257.5 1308,-222.5 1134,-222.5"/>
<polygon fill="none" stroke="#000000" points="1134,-222.5 1134,-257.5 1308,-257.5 1308,-222.5 1134,-222.5"/>
<text text-anchor="start" x="1140.8677" y="-235.3" font-family="Arial Bold" font-size="18.00" fill="#000000">courses</text>
<text text-anchor="start" x="1203.8785" y="-235.3" font-family="Arial" font-size="14.00" fill="#000000"> </text>
<text text-anchor="start" x="1207.7691" y="-235.3" font-family="Arial" font-size="14.00" fill="#666666">[BASE TABLE]</text>
<polygon fill="none" stroke="#000000" points="1134,-192.5 1134,-222.5 1308,-222.5 1308,-192.5 1134,-192.5"/>
<text text-anchor="start" x="1141" y="-203.9" font-family="Arial" font-size="14.00" fill="#000000">id </text>
<text text-anchor="start" x="1155.7798" y="-203.9" font-family="Arial" font-size="14.00" fill="#666666">[char(36)]</text>
<polygon fill="none" stroke="#000000" points="1134,-162.5 1134,-192.5 1308,-192.5 1308,-162.5 1134,-162.5"/>
<text text-anchor="start" x="1141" y="-173.9" font-family="Arial" font-size="14.00" fill="#000000">name </text>
<text text-anchor="start" x="1179.899" y="-173.9" font-family="Arial" font-size="14.00" fill="#666666">[varchar(255)]</text>
<polygon fill="none" stroke="#000000" points="1134,-132.5 1134,-162.5 1308,-162.5 1308,-132.5 1134,-132.5"/>
<text text-anchor="start" x="1141" y="-143.9" font-family="Arial" font-size="14.00" fill="#000000">description </text>
<text text-anchor="start" x="1212.568" y="-143.9" font-family="Arial" font-size="14.00" fill="#666666">[text]</text>
<polygon fill="none" stroke="#000000" points="1134,-102.5 1134,-132.5 1308,-132.5 1308,-102.5 1134,-102.5"/>
<text text-anchor="start" x="1141" y="-113.9" font-family="Arial" font-size="14.00" fill="#000000">credit </text>
<text text-anchor="start" x="1179.1136" y="-113.9" font-family="Arial" font-size="14.00" fill="#666666">[tinyint unsigned]</text>
<polygon fill="none" stroke="#000000" points="1134,-72.5 1134,-102.5 1308,-102.5 1308,-72.5 1134,-72.5"/>
<text text-anchor="start" x="1141" y="-83.9" font-family="Arial" font-size="14.00" fill="#000000">classroom </text>
<text text-anchor="start" x="1208.6662" y="-83.9" font-family="Arial" font-size="14.00" fill="#666666">[varchar(255)]</text>
<polygon fill="none" stroke="#000000" points="1134,-42.5 1134,-72.5 1308,-72.5 1308,-42.5 1134,-42.5"/>
<text text-anchor="start" x="1141" y="-53.9" font-family="Arial" font-size="14.00" fill="#000000">capacity </text>
<text text-anchor="start" x="1196.2356" y="-53.9" font-family="Arial" font-size="14.00" fill="#666666">[int unsigned]</text>
</g>
<!-- registrations&#45;&gt;courses -->
<g id="edge1" class="edge">
<title>registrations:course_id&#45;&gt;courses:id</title>
<path fill="none" stroke="#000000" d="M1728.8559,-498.7432C1669.568,-489.0374 1734.3622,-388.3952 1683,-337 1558.3596,-212.2796 1484.3248,-207.5 1308,-207.5"/>
<polygon fill="#000000" stroke="#000000" points="1729.0277,-498.7559 1738.6651,-503.9875 1734.0139,-499.1279 1739,-499.5 1739,-499.5 1739,-499.5 1734.0139,-499.1279 1739.3349,-495.0125 1729.0277,-498.7559 1729.0277,-498.7559"/>
<text text-anchor="start" x="1485.386" y="-509.5" font-family="Arial" font-size="10.00" fill="#000000">FOREIGN KEY (course_id) REFERENCES courses (id)</text>
</g>
<!-- users -->
<g id="node8" class="node">
<title>users</title>
<polygon fill="#efefef" stroke="transparent" points="2059,-207.5 2059,-242.5 2261,-242.5 2261,-207.5 2059,-207.5"/>
<polygon fill="none" stroke="#000000" points="2059,-207.5 2059,-242.5 2261,-242.5 2261,-207.5 2059,-207.5"/>
<text text-anchor="start" x="2089.3708" y="-220.3" font-family="Arial Bold" font-size="18.00" fill="#000000">users</text>
<text text-anchor="start" x="2133.3754" y="-220.3" font-family="Arial" font-size="14.00" fill="#000000"> </text>
<text text-anchor="start" x="2137.266" y="-220.3" font-family="Arial" font-size="14.00" fill="#666666">[BASE TABLE]</text>
<polygon fill="none" stroke="#000000" points="2059,-177.5 2059,-207.5 2261,-207.5 2261,-177.5 2059,-177.5"/>
<text text-anchor="start" x="2066" y="-188.9" font-family="Arial" font-size="14.00" fill="#000000">id </text>
<text text-anchor="start" x="2080.7798" y="-188.9" font-family="Arial" font-size="14.00" fill="#666666">[char(36)]</text>
<polygon fill="none" stroke="#000000" points="2059,-147.5 2059,-177.5 2261,-177.5 2261,-147.5 2059,-147.5"/>
<text text-anchor="start" x="2066" y="-158.9" font-family="Arial" font-size="14.00" fill="#000000">name </text>
<text text-anchor="start" x="2104.899" y="-158.9" font-family="Arial" font-size="14.00" fill="#666666">[varchar(255)]</text>
<polygon fill="none" stroke="#000000" points="2059,-117.5 2059,-147.5 2261,-147.5 2261,-117.5 2059,-117.5"/>
<text text-anchor="start" x="2066" y="-128.9" font-family="Arial" font-size="14.00" fill="#000000">mail_address </text>
<text text-anchor="start" x="2153.1206" y="-128.9" font-family="Arial" font-size="14.00" fill="#666666">[varchar(255)]</text>
<polygon fill="none" stroke="#000000" points="2059,-87.5 2059,-117.5 2261,-117.5 2261,-87.5 2059,-87.5"/>
<text text-anchor="start" x="2065.8668" y="-98.9" font-family="Arial" font-size="14.00" fill="#000000">hashed_password </text>
<text text-anchor="start" x="2183.3506" y="-98.9" font-family="Arial" font-size="14.00" fill="#666666">[binary(60)]</text>
<polygon fill="none" stroke="#000000" points="2059,-57.5 2059,-87.5 2261,-87.5 2261,-57.5 2059,-57.5"/>
<text text-anchor="start" x="2066" y="-68.9" font-family="Arial" font-size="14.00" fill="#000000">type </text>
<text text-anchor="start" x="2096.3464" y="-68.9" font-family="Arial" font-size="14.00" fill="#666666">[enum(&#39;student&#39;,&#39;faculty&#39;)]</text>
</g>
<!-- registrations&#45;&gt;users -->
<g id="edge8" class="edge">
<title>registrations:user_id&#45;&gt;users:id</title>
<path fill="none" stroke="#000000" d="M1956.7891,-463.7145C1988.7522,-423.9363 2028.6925,-192.5 2059,-192.5"/>
<polygon fill="#000000" stroke="#000000" points="1956.3528,-464.0016 1945.5257,-465.7413 1952.1764,-466.7508 1948,-469.5 1948,-469.5 1948,-469.5 1952.1764,-466.7508 1950.4743,-473.2587 1956.3528,-464.0016 1956.3528,-464.0016"/>
<text text-anchor="start" x="1954.945" y="-479.5" font-family="Arial" font-size="10.00" fill="#000000">FOREIGN KEY (user_id) REFERENCES users (id)</text>
</g>
<!-- announcements -->
<g id="node3" class="node">
<title>announcements</title>
<polygon fill="#efefef" stroke="transparent" points="404,-529.5 404,-564.5 643,-564.5 643,-529.5 404,-529.5"/>
<polygon fill="none" stroke="#000000" points="404,-529.5 404,-564.5 643,-564.5 643,-529.5 404,-529.5"/>
<text text-anchor="start" x="410.848" y="-542.3" font-family="Arial Bold" font-size="18.00" fill="#000000">announcements</text>
<text text-anchor="start" x="538.8982" y="-542.3" font-family="Arial" font-size="14.00" fill="#000000"> </text>
<text text-anchor="start" x="542.7888" y="-542.3" font-family="Arial" font-size="14.00" fill="#666666">[BASE TABLE]</text>
<polygon fill="none" stroke="#000000" points="404,-499.5 404,-529.5 643,-529.5 643,-499.5 404,-499.5"/>
<text text-anchor="start" x="411" y="-510.9" font-family="Arial" font-size="14.00" fill="#000000">id </text>
<text text-anchor="start" x="425.7798" y="-510.9" font-family="Arial" font-size="14.00" fill="#666666">[char(36)]</text>
<polygon fill="none" stroke="#000000" points="404,-469.5 404,-499.5 643,-499.5 643,-469.5 404,-469.5"/>
<text text-anchor="start" x="411" y="-480.9" font-family="Arial" font-size="14.00" fill="#000000">course_id </text>
<text text-anchor="start" x="475.5708" y="-480.9" font-family="Arial" font-size="14.00" fill="#666666">[char(36)]</text>
<polygon fill="none" stroke="#000000" points="404,-439.5 404,-469.5 643,-469.5 643,-439.5 404,-439.5"/>
<text text-anchor="start" x="411" y="-450.9" font-family="Arial" font-size="14.00" fill="#000000">title </text>
<text text-anchor="start" x="436.6676" y="-450.9" font-family="Arial" font-size="14.00" fill="#666666">[varchar(255)]</text>
<polygon fill="none" stroke="#000000" points="404,-409.5 404,-439.5 643,-439.5 643,-409.5 404,-409.5"/>
<text text-anchor="start" x="411" y="-420.9" font-family="Arial" font-size="14.00" fill="#000000">message </text>
<text text-anchor="start" x="471.6816" y="-420.9" font-family="Arial" font-size="14.00" fill="#666666">[text]</text>
<polygon fill="none" stroke="#000000" points="404,-379.5 404,-409.5 643,-409.5 643,-379.5 404,-379.5"/>
<text text-anchor="start" x="411" y="-390.9" font-family="Arial" font-size="14.00" fill="#000000">created_at </text>
<text text-anchor="start" x="481.028" y="-390.9" font-family="Arial" font-size="14.00" fill="#666666">[datetime(6)]</text>
</g>
<!-- announcements&#45;&gt;courses -->
<g id="edge2" class="edge">
<title>announcements:course_id&#45;&gt;courses:id</title>
<path fill="none" stroke="#000000" d="M653.2127,-483.6307C705.4348,-473.7562 647.3428,-382.2375 695,-337 768.7694,-266.9762 1032.2884,-207.5 1134,-207.5"/>
<polygon fill="#000000" stroke="#000000" points="652.964,-483.6518 642.6183,-480.0162 647.982,-484.0759 643,-484.5 643,-484.5 643,-484.5 647.982,-484.0759 643.3817,-488.9838 652.964,-483.6518 652.964,-483.6518"/>
<text text-anchor="start" x="519.886" y="-468.5" font-family="Arial" font-size="10.00" fill="#000000">FOREIGN KEY (course_id) REFERENCES courses (id)</text>
</g>
<!-- classes -->
<g id="node4" class="node">
<title>classes</title>
<polygon fill="#efefef" stroke="transparent" points="747,-529.5 747,-564.5 977,-564.5 977,-529.5 747,-529.5"/>
<polygon fill="none" stroke="#000000" points="747,-529.5 747,-564.5 977,-564.5 977,-529.5 747,-529.5"/>
<text text-anchor="start" x="783.3698" y="-542.3" font-family="Arial Bold" font-size="18.00" fill="#000000">classes</text>
<text text-anchor="start" x="843.3764" y="-542.3" font-family="Arial" font-size="14.00" fill="#000000"> </text>
<text text-anchor="start" x="847.267" y="-542.3" font-family="Arial" font-size="14.00" fill="#666666">[BASE TABLE]</text>
<polygon fill="none" stroke="#000000" points="747,-499.5 747,-529.5 977,-529.5 977,-499.5 747,-499.5"/>
<text text-anchor="start" x="754" y="-510.9" font-family="Arial" font-size="14.00" fill="#000000">id </text>
<text text-anchor="start" x="768.7798" y="-510.9" font-family="Arial" font-size="14.00" fill="#666666">[char(36)]</text>
<polygon fill="none" stroke="#000000" points="747,-469.5 747,-499.5 977,-499.5 977,-469.5 747,-469.5"/>
<text text-anchor="start" x="754" y="-480.9" font-family="Arial" font-size="14.00" fill="#000000">course_id </text>
<text text-anchor="start" x="818.5708" y="-480.9" font-family="Arial" font-size="14.00" fill="#666666">[char(36)]</text>
<polygon fill="none" stroke="#000000" points="747,-439.5 747,-469.5 977,-469.5 977,-439.5 747,-439.5"/>
<text text-anchor="start" x="754" y="-450.9" font-family="Arial" font-size="14.00" fill="#000000">title </text>
<text text-anchor="start" x="779.6676" y="-450.9" font-family="Arial" font-size="14.00" fill="#666666">[varchar(255)]</text>
<polygon fill="none" stroke="#000000" points="747,-409.5 747,-439.5 977,-439.5 977,-409.5 747,-409.5"/>
<text text-anchor="start" x="754" y="-420.9" font-family="Arial" font-size="14.00" fill="#000000">description </text>
<text text-anchor="start" x="825.568" y="-420.9" font-family="Arial" font-size="14.00" fill="#666666">[text]</text>
<polygon fill="none" stroke="#000000" points="747,-379.5 747,-409.5 977,-409.5 977,-379.5 747,-379.5"/>
<text text-anchor="start" x="753.843" y="-390.9" font-family="Arial" font-size="14.00" fill="#000000">attendance_code </text>
<text text-anchor="start" x="865.1234" y="-390.9" font-family="Arial" font-size="14.00" fill="#666666">[tinyint unsigned]</text>
</g>
<!-- classes&#45;&gt;courses -->
<g id="edge3" class="edge">
<title>classes:course_id&#45;&gt;courses:id</title>
<path fill="none" stroke="#000000" d="M987.0178,-483.7921C1041.3211,-475.414 996.8494,-394.4617 1029,-337 1065.1803,-272.3362 1059.9026,-207.5 1134,-207.5"/>
<polygon fill="#000000" stroke="#000000" points="986.9751,-483.795 976.6828,-480.0112 981.9876,-484.1475 977,-484.5 977,-484.5 977,-484.5 981.9876,-484.1475 977.3172,-488.9888 986.9751,-483.795 986.9751,-483.795"/>
<text text-anchor="start" x="984.386" y="-494.5" font-family="Arial" font-size="10.00" fill="#000000">FOREIGN KEY (course_id) REFERENCES courses (id)</text>
</g>
<!-- course_requirements -->
<g id="node5" class="node">
<title>course_requirements</title>
<polygon fill="#efefef" stroke="transparent" points="1081,-484.5 1081,-519.5 1361,-519.5 1361,-484.5 1081,-484.5"/>
<polygon fill="none" stroke="#000000" points="1081,-484.5 1081,-519.5 1361,-519.5 1361,-484.5 1081,-484.5"/>
<text text-anchor="start" x="1087.8595" y="-497.3" font-family="Arial Bold" font-size="18.00" fill="#000000">course_requirements</text>
<text text-anchor="start" x="1256.8867" y="-497.3" font-family="Arial" font-size="14.00" fill="#000000"> </text>
<text text-anchor="start" x="1260.7773" y="-497.3" font-family="Arial" font-size="14.00" fill="#666666">[BASE TABLE]</text>
<polygon fill="none" stroke="#000000" points="1081,-454.5 1081,-484.5 1361,-484.5 1361,-454.5 1081,-454.5"/>
<text text-anchor="start" x="1088" y="-465.9" font-family="Arial" font-size="14.00" fill="#000000">course_id </text>
<text text-anchor="start" x="1152.5708" y="-465.9" font-family="Arial" font-size="14.00" fill="#666666">[char(36)]</text>
<polygon fill="none" stroke="#000000" points="1081,-424.5 1081,-454.5 1361,-454.5 1361,-424.5 1081,-424.5"/>
<text text-anchor="start" x="1088" y="-435.9" font-family="Arial" font-size="14.00" fill="#000000">required_course_id </text>
<text text-anchor="start" x="1211.6942" y="-435.9" font-family="Arial" font-size="14.00" fill="#666666">[char(36)]</text>
</g>
<!-- course_requirements&#45;&gt;courses -->
<g id="edge4" class="edge">
<title>course_requirements:course_id&#45;&gt;courses:id</title>
<path fill="none" stroke="#000000" d="M1370.8465,-466.5576C1413.7515,-437.7734 1363.6889,-207.5 1308,-207.5"/>
<polygon fill="#000000" stroke="#000000" points="1370.5814,-466.6368 1359.7115,-465.1884 1365.7907,-468.0684 1361,-469.5 1361,-469.5 1361,-469.5 1365.7907,-468.0684 1362.2885,-473.8116 1370.5814,-466.6368 1370.5814,-466.6368"/>
<text text-anchor="start" x="1368.386" y="-479.5" font-family="Arial" font-size="10.00" fill="#000000">FOREIGN KEY (course_id) REFERENCES courses (id)</text>
</g>
<!-- course_requirements&#45;&gt;courses -->
<g id="edge5" class="edge">
<title>course_requirements:required_course_id&#45;&gt;courses:id</title>
<path fill="none" stroke="#000000" d="M1221.54,-414.4805C1227.9077,-357.9662 1288.7888,-361.6294 1308,-301 1320.5523,-261.3856 1349.5556,-207.5 1308,-207.5"/>
<polygon fill="#000000" stroke="#000000" points="1221.5383,-414.5145 1216.5065,-424.2578 1221.2691,-419.5072 1221,-424.5 1221,-424.5 1221,-424.5 1221.2691,-419.5072 1225.4935,-424.7422 1221.5383,-414.5145 1221.5383,-414.5145"/>
<text text-anchor="start" x="925.2705" y="-434.5" font-family="Arial" font-size="10.00" fill="#000000">FOREIGN KEY (required_course_id) REFERENCES courses (id)</text>
</g>
<!-- course_schedules -->
<g id="node6" class="node">
<title>course_schedules</title>
<polygon fill="#efefef" stroke="transparent" points="43,-484.5 43,-519.5 299,-519.5 299,-484.5 43,-484.5"/>
<polygon fill="none" stroke="#000000" points="43,-484.5 43,-519.5 299,-519.5 299,-484.5 43,-484.5"/>
<text text-anchor="start" x="49.852" y="-497.3" font-family="Arial Bold" font-size="18.00" fill="#000000">course_schedules</text>
<text text-anchor="start" x="194.8942" y="-497.3" font-family="Arial" font-size="14.00" fill="#000000"> </text>
<text text-anchor="start" x="198.7848" y="-497.3" font-family="Arial" font-size="14.00" fill="#666666">[BASE TABLE]</text>
<polygon fill="none" stroke="#000000" points="43,-454.5 43,-484.5 299,-484.5 299,-454.5 43,-454.5"/>
<text text-anchor="start" x="50" y="-465.9" font-family="Arial" font-size="14.00" fill="#000000">course_id </text>
<text text-anchor="start" x="114.5708" y="-465.9" font-family="Arial" font-size="14.00" fill="#666666">[char(36)]</text>
<polygon fill="none" stroke="#000000" points="43,-424.5 43,-454.5 299,-454.5 299,-424.5 43,-424.5"/>
<text text-anchor="start" x="50" y="-435.9" font-family="Arial" font-size="14.00" fill="#000000">schedule_id </text>
<text text-anchor="start" x="128.582" y="-435.9" font-family="Arial" font-size="14.00" fill="#666666">[char(36)]</text>
</g>
<!-- course_schedules&#45;&gt;courses -->
<g id="edge6" class="edge">
<title>course_schedules:course_id&#45;&gt;courses:id</title>
<path fill="none" stroke="#000000" d="M309.1822,-468.5128C355.3448,-458.4681 304.8013,-374.3866 351,-337 488.0957,-226.0544 957.6363,-207.5 1134,-207.5"/>
<polygon fill="#000000" stroke="#000000" points="308.9533,-468.5349 298.5657,-465.021 303.9767,-469.0174 299,-469.5 299,-469.5 299,-469.5 303.9767,-469.0174 299.4343,-473.979 308.9533,-468.5349 308.9533,-468.5349"/>
<text text-anchor="start" x="45.386" y="-479.5" font-family="Arial" font-size="10.00" fill="#000000">FOREIGN KEY (course_id) REFERENCES courses (id)</text>
</g>
<!-- grades -->
<g id="node7" class="node">
<title>grades</title>
<polygon fill="#efefef" stroke="transparent" points="1465,-514.5 1465,-549.5 1631,-549.5 1631,-514.5 1465,-514.5"/>
<polygon fill="none" stroke="#000000" points="1465,-514.5 1465,-549.5 1631,-549.5 1631,-514.5 1465,-514.5"/>
<text text-anchor="start" x="1471.8646" y="-527.3" font-family="Arial Bold" font-size="18.00" fill="#000000">grades</text>
<text text-anchor="start" x="1526.8816" y="-527.3" font-family="Arial" font-size="14.00" fill="#000000"> </text>
<text text-anchor="start" x="1530.7722" y="-527.3" font-family="Arial" font-size="14.00" fill="#666666">[BASE TABLE]</text>
<polygon fill="none" stroke="#000000" points="1465,-484.5 1465,-514.5 1631,-514.5 1631,-484.5 1465,-484.5"/>
<text text-anchor="start" x="1472" y="-495.9" font-family="Arial" font-size="14.00" fill="#000000">id </text>
<text text-anchor="start" x="1486.7798" y="-495.9" font-family="Arial" font-size="14.00" fill="#666666">[char(36)]</text>
<polygon fill="none" stroke="#000000" points="1465,-454.5 1465,-484.5 1631,-484.5 1631,-454.5 1465,-454.5"/>
<text text-anchor="start" x="1472" y="-465.9" font-family="Arial" font-size="14.00" fill="#000000">user_id </text>
<text text-anchor="start" x="1521.7882" y="-465.9" font-family="Arial" font-size="14.00" fill="#666666">[char(36)]</text>
<polygon fill="none" stroke="#000000" points="1465,-424.5 1465,-454.5 1631,-454.5 1631,-424.5 1465,-424.5"/>
<text text-anchor="start" x="1472" y="-435.9" font-family="Arial" font-size="14.00" fill="#000000">course_id </text>
<text text-anchor="start" x="1536.5708" y="-435.9" font-family="Arial" font-size="14.00" fill="#666666">[char(36)]</text>
<polygon fill="none" stroke="#000000" points="1465,-394.5 1465,-424.5 1631,-424.5 1631,-394.5 1465,-394.5"/>
<text text-anchor="start" x="1472" y="-405.9" font-family="Arial" font-size="14.00" fill="#000000">grade </text>
<text text-anchor="start" x="1511.6816" y="-405.9" font-family="Arial" font-size="14.00" fill="#666666">[int unsigned]</text>
</g>
<!-- grades&#45;&gt;courses -->
<g id="edge7" class="edge">
<title>grades:course_id&#45;&gt;courses:id</title>
<path fill="none" stroke="#000000" d="M1454.8603,-438.5456C1417.6062,-430.7392 1438.7342,-376.6764 1413,-337 1372.679,-274.8338 1382.0974,-207.5 1308,-207.5"/>
<polygon fill="#000000" stroke="#000000" points="1455.044,-438.5628 1464.5783,-443.9802 1460.022,-439.0314 1465,-439.5 1465,-439.5 1465,-439.5 1460.022,-439.0314 1465.4217,-435.0198 1455.044,-438.5628 1455.044,-438.5628"/>
<text text-anchor="start" x="1472.386" y="-449.5" font-family="Arial" font-size="10.00" fill="#000000">FOREIGN KEY (course_id) REFERENCES courses (id)</text>
</g>
<!-- grades&#45;&gt;users -->
<g id="edge10" class="edge">
<title>grades:user_id&#45;&gt;users:id</title>
<path fill="none" stroke="#000000" d="M1641.2265,-468.5621C1687.8323,-459.0116 1640.8273,-378.8753 1683,-337 1810.0382,-210.8576 1879.9731,-192.5 2059,-192.5"/>
<polygon fill="#000000" stroke="#000000" points="1640.9582,-468.5867 1630.589,-465.0188 1635.9791,-469.0433 1631,-469.5 1631,-469.5 1631,-469.5 1635.9791,-469.0433 1631.411,-473.9812 1640.9582,-468.5867 1640.9582,-468.5867"/>
<text text-anchor="start" x="1637.945" y="-479.5" font-family="Arial" font-size="10.00" fill="#000000">FOREIGN KEY (user_id) REFERENCES users (id)</text>
</g>
<!-- attendances -->
<g id="node9" class="node">
<title>attendances</title>
<polygon fill="#efefef" stroke="transparent" points="2055,-499.5 2055,-534.5 2264,-534.5 2264,-499.5 2055,-499.5"/>
<polygon fill="none" stroke="#000000" points="2055,-499.5 2055,-534.5 2264,-534.5 2264,-499.5 2055,-499.5"/>
<text text-anchor="start" x="2061.8492" y="-512.3" font-family="Arial Bold" font-size="18.00" fill="#000000">attendances</text>
<text text-anchor="start" x="2159.897" y="-512.3" font-family="Arial" font-size="14.00" fill="#000000"> </text>
<text text-anchor="start" x="2163.7876" y="-512.3" font-family="Arial" font-size="14.00" fill="#666666">[BASE TABLE]</text>
<polygon fill="none" stroke="#000000" points="2055,-469.5 2055,-499.5 2264,-499.5 2264,-469.5 2055,-469.5"/>
<text text-anchor="start" x="2062" y="-480.9" font-family="Arial" font-size="14.00" fill="#000000">class_id </text>
<text text-anchor="start" x="2116.4516" y="-480.9" font-family="Arial" font-size="14.00" fill="#666666">[char(36)]</text>
<polygon fill="none" stroke="#000000" points="2055,-439.5 2055,-469.5 2264,-469.5 2264,-439.5 2055,-439.5"/>
<text text-anchor="start" x="2062" y="-450.9" font-family="Arial" font-size="14.00" fill="#000000">user_id </text>
<text text-anchor="start" x="2111.7882" y="-450.9" font-family="Arial" font-size="14.00" fill="#666666">[char(36)]</text>
<polygon fill="none" stroke="#000000" points="2055,-409.5 2055,-439.5 2264,-439.5 2264,-409.5 2055,-409.5"/>
<text text-anchor="start" x="2062" y="-420.9" font-family="Arial" font-size="14.00" fill="#000000">created_at </text>
<text text-anchor="start" x="2132.028" y="-420.9" font-family="Arial" font-size="14.00" fill="#666666">[datetime(6)]</text>
</g>
<!-- attendances&#45;&gt;users -->
<g id="edge9" class="edge">
<title>attendances:user_id&#45;&gt;users:id</title>
<path fill="none" stroke="#000000" d="M2274.1724,-452.8697C2299.3819,-443.4975 2283.6488,-395.8907 2264,-367 2208.907,-285.9939 2114.093,-367.0061 2059,-286 2035.6303,-251.6383 2017.4444,-192.5 2059,-192.5"/>
<polygon fill="#000000" stroke="#000000" points="2273.874,-452.9174 2263.2878,-450.0567 2268.937,-453.7087 2264,-454.5 2264,-454.5 2264,-454.5 2268.937,-453.7087 2264.7122,-458.9433 2273.874,-452.9174 2273.874,-452.9174"/>
<text text-anchor="start" x="2270.945" y="-464.5" font-family="Arial" font-size="10.00" fill="#000000">FOREIGN KEY (user_id) REFERENCES users (id)</text>
</g>
<!-- submissions -->
<g id="node10" class="node">
<title>submissions</title>
<polygon fill="#efefef" stroke="transparent" points="2368,-529.5 2368,-564.5 2578,-564.5 2578,-529.5 2368,-529.5"/>
<polygon fill="none" stroke="#000000" points="2368,-529.5 2368,-564.5 2578,-564.5 2578,-529.5 2368,-529.5"/>
<text text-anchor="start" x="2374.8704" y="-542.3" font-family="Arial Bold" font-size="18.00" fill="#000000">submissions</text>
<text text-anchor="start" x="2473.8758" y="-542.3" font-family="Arial" font-size="14.00" fill="#000000"> </text>
<text text-anchor="start" x="2477.7664" y="-542.3" font-family="Arial" font-size="14.00" fill="#666666">[BASE TABLE]</text>
<polygon fill="none" stroke="#000000" points="2368,-499.5 2368,-529.5 2578,-529.5 2578,-499.5 2368,-499.5"/>
<text text-anchor="start" x="2375" y="-510.9" font-family="Arial" font-size="14.00" fill="#000000">id </text>
<text text-anchor="start" x="2389.7798" y="-510.9" font-family="Arial" font-size="14.00" fill="#666666">[char(36)]</text>
<polygon fill="none" stroke="#000000" points="2368,-469.5 2368,-499.5 2578,-499.5 2578,-469.5 2368,-469.5"/>
<text text-anchor="start" x="2375" y="-480.9" font-family="Arial" font-size="14.00" fill="#000000">user_id </text>
<text text-anchor="start" x="2424.7882" y="-480.9" font-family="Arial" font-size="14.00" fill="#666666">[char(36)]</text>
<polygon fill="none" stroke="#000000" points="2368,-439.5 2368,-469.5 2578,-469.5 2578,-439.5 2368,-439.5"/>
<text text-anchor="start" x="2375" y="-450.9" font-family="Arial" font-size="14.00" fill="#000000">assignment_id </text>
<text text-anchor="start" x="2469.1332" y="-450.9" font-family="Arial" font-size="14.00" fill="#666666">[char(36)]</text>
<polygon fill="none" stroke="#000000" points="2368,-409.5 2368,-439.5 2578,-439.5 2578,-409.5 2368,-409.5"/>
<text text-anchor="start" x="2375" y="-420.9" font-family="Arial" font-size="14.00" fill="#000000">name </text>
<text text-anchor="start" x="2413.899" y="-420.9" font-family="Arial" font-size="14.00" fill="#666666">[varchar(255)]</text>
<polygon fill="none" stroke="#000000" points="2368,-379.5 2368,-409.5 2578,-409.5 2578,-379.5 2368,-379.5"/>
<text text-anchor="start" x="2375" y="-390.9" font-family="Arial" font-size="14.00" fill="#000000">created_at </text>
<text text-anchor="start" x="2445.028" y="-390.9" font-family="Arial" font-size="14.00" fill="#666666">[datetime(6)]</text>
</g>
<!-- submissions&#45;&gt;users -->
<g id="edge11" class="edge">
<title>submissions:user_id&#45;&gt;users:id</title>
<path fill="none" stroke="#000000" d="M2357.903,-483.8285C2302.6778,-475.8739 2338.6592,-398.8228 2316,-337 2292.3523,-272.4802 2329.717,-192.5 2261,-192.5"/>
<polygon fill="#000000" stroke="#000000" points="2358.022,-483.8363 2367.7013,-488.9901 2363.011,-484.1682 2368,-484.5 2368,-484.5 2368,-484.5 2363.011,-484.1682 2368.2987,-480.0099 2358.022,-483.8363 2358.022,-483.8363"/>
<text text-anchor="start" x="2374.945" y="-494.5" font-family="Arial" font-size="10.00" fill="#000000">FOREIGN KEY (user_id) REFERENCES users (id)</text>
</g>
<!-- unread_announcements -->
<g id="node11" class="node">
<title>unread_announcements</title>
<polygon fill="#efefef" stroke="transparent" points="2683,-514.5 2683,-549.5 2988,-549.5 2988,-514.5 2683,-514.5"/>
<polygon fill="none" stroke="#000000" points="2683,-514.5 2683,-549.5 2988,-549.5 2988,-514.5 2683,-514.5"/>
<text text-anchor="start" x="2689.8333" y="-527.3" font-family="Arial Bold" font-size="18.00" fill="#000000">unread_announcements</text>
<text text-anchor="start" x="2883.9129" y="-527.3" font-family="Arial" font-size="14.00" fill="#000000"> </text>
<text text-anchor="start" x="2887.8035" y="-527.3" font-family="Arial" font-size="14.00" fill="#666666">[BASE TABLE]</text>
<polygon fill="none" stroke="#000000" points="2683,-484.5 2683,-514.5 2988,-514.5 2988,-484.5 2683,-484.5"/>
<text text-anchor="start" x="2690" y="-495.9" font-family="Arial" font-size="14.00" fill="#000000">announcement_id </text>
<text text-anchor="start" x="2805.157" y="-495.9" font-family="Arial" font-size="14.00" fill="#666666">[char(36)]</text>
<polygon fill="none" stroke="#000000" points="2683,-454.5 2683,-484.5 2988,-484.5 2988,-454.5 2683,-454.5"/>
<text text-anchor="start" x="2690" y="-465.9" font-family="Arial" font-size="14.00" fill="#000000">user_id </text>
<text text-anchor="start" x="2739.7882" y="-465.9" font-family="Arial" font-size="14.00" fill="#666666">[char(36)]</text>
<polygon fill="none" stroke="#000000" points="2683,-424.5 2683,-454.5 2988,-454.5 2988,-424.5 2683,-424.5"/>
<text text-anchor="start" x="2690" y="-435.9" font-family="Arial" font-size="14.00" fill="#000000">created_at </text>
<text text-anchor="start" x="2760.028" y="-435.9" font-family="Arial" font-size="14.00" fill="#666666">[datetime(6)]</text>
<polygon fill="none" stroke="#000000" points="2683,-394.5 2683,-424.5 2988,-424.5 2988,-394.5 2683,-394.5"/>
<text text-anchor="start" x="2690" y="-405.9" font-family="Arial" font-size="14.00" fill="#000000">delete_at </text>
<text text-anchor="start" x="2751.474" y="-405.9" font-family="Arial" font-size="14.00" fill="#666666">[datetime(6)]</text>
</g>
<!-- unread_announcements&#45;&gt;users -->
<g id="edge12" class="edge">
<title>unread_announcements:user_id&#45;&gt;users:id</title>
<path fill="none" stroke="#000000" d="M2673.0311,-468.6219C2625.7263,-459.3573 2672.3737,-379.067 2630,-337 2505.0084,-212.913 2437.1264,-192.5 2261,-192.5"/>
<polygon fill="#000000" stroke="#000000" points="2673.0386,-468.6224 2682.6051,-473.9826 2678.0193,-469.0612 2683,-469.5 2683,-469.5 2683,-469.5 2678.0193,-469.0612 2683.3949,-465.0174 2673.0386,-468.6224 2673.0386,-468.6224"/>
<text text-anchor="start" x="2629.945" y="-453.5" font-family="Arial" font-size="10.00" fill="#000000">FOREIGN KEY (user_id) REFERENCES users (id)</text>
</g>
</g>
</svg>
