<?xml version="1.0" encoding="UTF-8" standalone="no"?>
<!DOCTYPE svg PUBLIC "-//W3C//DTD SVG 1.1//EN"
 "http://www.w3.org/Graphics/SVG/1.1/DTD/svg11.dtd">
<!-- Generated by graphviz version 2.40.1 (20161225.0304)
 -->
<!-- Title: registrations Pages: 1 -->
<svg width="2434pt" height="616pt"
 viewBox="0.00 0.00 2434.00 616.00" xmlns="http://www.w3.org/2000/svg" xmlns:xlink="http://www.w3.org/1999/xlink">
<g id="graph0" class="graph" transform="scale(1 1) rotate(0) translate(4 612)">
<title>registrations</title>
<polygon fill="#ffffff" stroke="transparent" points="-4,4 -4,-612 2430,-612 2430,4 -4,4"/>
<!-- registrations -->
<g id="node1" class="node">
<title>registrations</title>
<polygon fill="#efefef" stroke="transparent" points="1134.5,-514.5 1134.5,-549.5 1343.5,-549.5 1343.5,-514.5 1134.5,-514.5"/>
<polygon fill="none" stroke="#000000" points="1134.5,-514.5 1134.5,-549.5 1343.5,-549.5 1343.5,-514.5 1134.5,-514.5"/>
<text text-anchor="start" x="1141.369" y="-527.3" font-family="Arial Bold" font-size="18.00" fill="#000000">registrations</text>
<text text-anchor="start" x="1239.3772" y="-527.3" font-family="Arial" font-size="14.00" fill="#000000"> </text>
<text text-anchor="start" x="1243.2678" y="-527.3" font-family="Arial" font-size="14.00" fill="#666666">[BASE TABLE]</text>
<polygon fill="none" stroke="#000000" points="1134.5,-484.5 1134.5,-514.5 1343.5,-514.5 1343.5,-484.5 1134.5,-484.5"/>
<text text-anchor="start" x="1141.5" y="-495.9" font-family="Arial" font-size="14.00" fill="#000000">course_id </text>
<text text-anchor="start" x="1206.0708" y="-495.9" font-family="Arial" font-size="14.00" fill="#666666">[char(36)]</text>
<polygon fill="none" stroke="#000000" points="1134.5,-454.5 1134.5,-484.5 1343.5,-484.5 1343.5,-454.5 1134.5,-454.5"/>
<text text-anchor="start" x="1141.5" y="-465.9" font-family="Arial" font-size="14.00" fill="#000000">user_id </text>
<text text-anchor="start" x="1191.2882" y="-465.9" font-family="Arial" font-size="14.00" fill="#666666">[char(36)]</text>
<polygon fill="none" stroke="#000000" points="1134.5,-424.5 1134.5,-454.5 1343.5,-454.5 1343.5,-424.5 1134.5,-424.5"/>
<text text-anchor="start" x="1141.5" y="-435.9" font-family="Arial" font-size="14.00" fill="#000000">created_at </text>
<text text-anchor="start" x="1211.528" y="-435.9" font-family="Arial" font-size="14.00" fill="#666666">[datetime(6)]</text>
<polygon fill="none" stroke="#000000" points="1134.5,-394.5 1134.5,-424.5 1343.5,-424.5 1343.5,-394.5 1134.5,-394.5"/>
<text text-anchor="start" x="1141.5" y="-405.9" font-family="Arial" font-size="14.00" fill="#000000">delete_at </text>
<text text-anchor="start" x="1202.974" y="-405.9" font-family="Arial" font-size="14.00" fill="#666666">[datetime(6)]</text>
<polygon fill="none" stroke="#000000" stroke-width="3" points="1132.5,-393.5 1132.5,-551.5 1344.5,-551.5 1344.5,-393.5 1132.5,-393.5"/>
</g>
<!-- courses -->
<g id="node2" class="node">
<title>courses</title>
<polygon fill="#efefef" stroke="transparent" points="439.5,-222.5 439.5,-257.5 613.5,-257.5 613.5,-222.5 439.5,-222.5"/>
<polygon fill="none" stroke="#000000" points="439.5,-222.5 439.5,-257.5 613.5,-257.5 613.5,-222.5 439.5,-222.5"/>
<text text-anchor="start" x="446.3677" y="-235.3" font-family="Arial Bold" font-size="18.00" fill="#000000">courses</text>
<text text-anchor="start" x="509.3785" y="-235.3" font-family="Arial" font-size="14.00" fill="#000000"> </text>
<text text-anchor="start" x="513.2691" y="-235.3" font-family="Arial" font-size="14.00" fill="#666666">[BASE TABLE]</text>
<polygon fill="none" stroke="#000000" points="439.5,-192.5 439.5,-222.5 613.5,-222.5 613.5,-192.5 439.5,-192.5"/>
<text text-anchor="start" x="446.5" y="-203.9" font-family="Arial" font-size="14.00" fill="#000000">id </text>
<text text-anchor="start" x="461.2798" y="-203.9" font-family="Arial" font-size="14.00" fill="#666666">[char(36)]</text>
<polygon fill="none" stroke="#000000" points="439.5,-162.5 439.5,-192.5 613.5,-192.5 613.5,-162.5 439.5,-162.5"/>
<text text-anchor="start" x="446.5" y="-173.9" font-family="Arial" font-size="14.00" fill="#000000">name </text>
<text text-anchor="start" x="485.399" y="-173.9" font-family="Arial" font-size="14.00" fill="#666666">[varchar(255)]</text>
<polygon fill="none" stroke="#000000" points="439.5,-132.5 439.5,-162.5 613.5,-162.5 613.5,-132.5 439.5,-132.5"/>
<text text-anchor="start" x="446.5" y="-143.9" font-family="Arial" font-size="14.00" fill="#000000">description </text>
<text text-anchor="start" x="518.068" y="-143.9" font-family="Arial" font-size="14.00" fill="#666666">[text]</text>
<polygon fill="none" stroke="#000000" points="439.5,-102.5 439.5,-132.5 613.5,-132.5 613.5,-102.5 439.5,-102.5"/>
<text text-anchor="start" x="446.5" y="-113.9" font-family="Arial" font-size="14.00" fill="#000000">credit </text>
<text text-anchor="start" x="484.6136" y="-113.9" font-family="Arial" font-size="14.00" fill="#666666">[tinyint unsigned]</text>
<polygon fill="none" stroke="#000000" points="439.5,-72.5 439.5,-102.5 613.5,-102.5 613.5,-72.5 439.5,-72.5"/>
<text text-anchor="start" x="446.5" y="-83.9" font-family="Arial" font-size="14.00" fill="#000000">classroom </text>
<text text-anchor="start" x="514.1662" y="-83.9" font-family="Arial" font-size="14.00" fill="#666666">[varchar(255)]</text>
<polygon fill="none" stroke="#000000" points="439.5,-42.5 439.5,-72.5 613.5,-72.5 613.5,-42.5 439.5,-42.5"/>
<text text-anchor="start" x="446.5" y="-53.9" font-family="Arial" font-size="14.00" fill="#000000">capacity </text>
<text text-anchor="start" x="501.7356" y="-53.9" font-family="Arial" font-size="14.00" fill="#666666">[int unsigned]</text>
</g>
<!-- registrations&#45;&gt;courses -->
<g id="edge1" class="edge">
<title>registrations:course_id&#45;&gt;courses:id</title>
<path fill="none" stroke="#000000" d="M1124.367,-498.7318C1065.2185,-488.8823 1131.4031,-386.8077 1078.5,-337 1000.4012,-263.471 720.7657,-207.5 613.5,-207.5"/>
<polygon fill="#000000" stroke="#000000" points="1124.5286,-498.744 1134.1598,-503.9871 1129.5143,-499.122 1134.5,-499.5 1134.5,-499.5 1134.5,-499.5 1129.5143,-499.122 1134.8402,-495.0129 1124.5286,-498.744 1124.5286,-498.744"/>
<text text-anchor="start" x="880.886" y="-509.5" font-family="Arial" font-size="10.00" fill="#000000">FOREIGN KEY (course_id) REFERENCES courses (id)</text>
</g>
<!-- users -->
<g id="node6" class="node">
<title>users</title>
<polygon fill="#efefef" stroke="transparent" points="1610.5,-207.5 1610.5,-242.5 1812.5,-242.5 1812.5,-207.5 1610.5,-207.5"/>
<polygon fill="none" stroke="#000000" points="1610.5,-207.5 1610.5,-242.5 1812.5,-242.5 1812.5,-207.5 1610.5,-207.5"/>
<text text-anchor="start" x="1640.8708" y="-220.3" font-family="Arial Bold" font-size="18.00" fill="#000000">users</text>
<text text-anchor="start" x="1684.8754" y="-220.3" font-family="Arial" font-size="14.00" fill="#000000"> </text>
<text text-anchor="start" x="1688.766" y="-220.3" font-family="Arial" font-size="14.00" fill="#666666">[BASE TABLE]</text>
<polygon fill="none" stroke="#000000" points="1610.5,-177.5 1610.5,-207.5 1812.5,-207.5 1812.5,-177.5 1610.5,-177.5"/>
<text text-anchor="start" x="1617.5" y="-188.9" font-family="Arial" font-size="14.00" fill="#000000">id </text>
<text text-anchor="start" x="1632.2798" y="-188.9" font-family="Arial" font-size="14.00" fill="#666666">[char(36)]</text>
<polygon fill="none" stroke="#000000" points="1610.5,-147.5 1610.5,-177.5 1812.5,-177.5 1812.5,-147.5 1610.5,-147.5"/>
<text text-anchor="start" x="1617.5" y="-158.9" font-family="Arial" font-size="14.00" fill="#000000">name </text>
<text text-anchor="start" x="1656.399" y="-158.9" font-family="Arial" font-size="14.00" fill="#666666">[varchar(255)]</text>
<polygon fill="none" stroke="#000000" points="1610.5,-117.5 1610.5,-147.5 1812.5,-147.5 1812.5,-117.5 1610.5,-117.5"/>
<text text-anchor="start" x="1617.5" y="-128.9" font-family="Arial" font-size="14.00" fill="#000000">mail_address </text>
<text text-anchor="start" x="1704.6206" y="-128.9" font-family="Arial" font-size="14.00" fill="#666666">[varchar(255)]</text>
<polygon fill="none" stroke="#000000" points="1610.5,-87.5 1610.5,-117.5 1812.5,-117.5 1812.5,-87.5 1610.5,-87.5"/>
<text text-anchor="start" x="1617.3668" y="-98.9" font-family="Arial" font-size="14.00" fill="#000000">hashed_password </text>
<text text-anchor="start" x="1734.8506" y="-98.9" font-family="Arial" font-size="14.00" fill="#666666">[binary(60)]</text>
<polygon fill="none" stroke="#000000" points="1610.5,-57.5 1610.5,-87.5 1812.5,-87.5 1812.5,-57.5 1610.5,-57.5"/>
<text text-anchor="start" x="1617.5" y="-68.9" font-family="Arial" font-size="14.00" fill="#000000">type </text>
<text text-anchor="start" x="1647.8464" y="-68.9" font-family="Arial" font-size="14.00" fill="#666666">[enum(&#39;student&#39;,&#39;faculty&#39;)]</text>
</g>
<!-- registrations&#45;&gt;users -->
<g id="edge6" class="edge">
<title>registrations:user_id&#45;&gt;users:id</title>
<path fill="none" stroke="#000000" d="M1353.553,-468.6677C1401.5846,-459.8789 1359.8172,-383.5177 1397.5,-337 1469.5068,-248.1108 1496.1048,-192.5 1610.5,-192.5"/>
<polygon fill="#000000" stroke="#000000" points="1353.4659,-468.6748 1343.1287,-465.0153 1348.483,-469.0874 1343.5,-469.5 1343.5,-469.5 1343.5,-469.5 1348.483,-469.0874 1343.8713,-473.9847 1353.4659,-468.6748 1353.4659,-468.6748"/>
<text text-anchor="start" x="1350.445" y="-479.5" font-family="Arial" font-size="10.00" fill="#000000">FOREIGN KEY (user_id) REFERENCES users (id)</text>
</g>
<!-- announcements -->
<g id="node3" class="node">
<title>announcements</title>
<polygon fill="#efefef" stroke="transparent" points="43.5,-529.5 43.5,-564.5 282.5,-564.5 282.5,-529.5 43.5,-529.5"/>
<polygon fill="none" stroke="#000000" points="43.5,-529.5 43.5,-564.5 282.5,-564.5 282.5,-529.5 43.5,-529.5"/>
<text text-anchor="start" x="50.348" y="-542.3" font-family="Arial Bold" font-size="18.00" fill="#000000">announcements</text>
<text text-anchor="start" x="178.3982" y="-542.3" font-family="Arial" font-size="14.00" fill="#000000"> </text>
<text text-anchor="start" x="182.2888" y="-542.3" font-family="Arial" font-size="14.00" fill="#666666">[BASE TABLE]</text>
<polygon fill="none" stroke="#000000" points="43.5,-499.5 43.5,-529.5 282.5,-529.5 282.5,-499.5 43.5,-499.5"/>
<text text-anchor="start" x="50.5" y="-510.9" font-family="Arial" font-size="14.00" fill="#000000">id </text>
<text text-anchor="start" x="65.2798" y="-510.9" font-family="Arial" font-size="14.00" fill="#666666">[char(36)]</text>
<polygon fill="none" stroke="#000000" points="43.5,-469.5 43.5,-499.5 282.5,-499.5 282.5,-469.5 43.5,-469.5"/>
<text text-anchor="start" x="50.5" y="-480.9" font-family="Arial" font-size="14.00" fill="#000000">course_id </text>
<text text-anchor="start" x="115.0708" y="-480.9" font-family="Arial" font-size="14.00" fill="#666666">[char(36)]</text>
<polygon fill="none" stroke="#000000" points="43.5,-439.5 43.5,-469.5 282.5,-469.5 282.5,-439.5 43.5,-439.5"/>
<text text-anchor="start" x="50.5" y="-450.9" font-family="Arial" font-size="14.00" fill="#000000">title </text>
<text text-anchor="start" x="76.1676" y="-450.9" font-family="Arial" font-size="14.00" fill="#666666">[varchar(255)]</text>
<polygon fill="none" stroke="#000000" points="43.5,-409.5 43.5,-439.5 282.5,-439.5 282.5,-409.5 43.5,-409.5"/>
<text text-anchor="start" x="50.5" y="-420.9" font-family="Arial" font-size="14.00" fill="#000000">message </text>
<text text-anchor="start" x="111.1816" y="-420.9" font-family="Arial" font-size="14.00" fill="#666666">[text]</text>
<polygon fill="none" stroke="#000000" points="43.5,-379.5 43.5,-409.5 282.5,-409.5 282.5,-379.5 43.5,-379.5"/>
<text text-anchor="start" x="50.5" y="-390.9" font-family="Arial" font-size="14.00" fill="#000000">created_at </text>
<text text-anchor="start" x="120.528" y="-390.9" font-family="Arial" font-size="14.00" fill="#666666">[datetime(6)]</text>
</g>
<!-- announcements&#45;&gt;courses -->
<g id="edge2" class="edge">
<title>announcements:course_id&#45;&gt;courses:id</title>
<path fill="none" stroke="#000000" d="M292.5178,-483.7921C346.8211,-475.414 302.3494,-394.4617 334.5,-337 370.6803,-272.3362 365.4026,-207.5 439.5,-207.5"/>
<polygon fill="#000000" stroke="#000000" points="292.4751,-483.795 282.1828,-480.0112 287.4876,-484.1475 282.5,-484.5 282.5,-484.5 282.5,-484.5 287.4876,-484.1475 282.8172,-488.9888 292.4751,-483.795 292.4751,-483.795"/>
<text text-anchor="start" x="159.386" y="-468.5" font-family="Arial" font-size="10.00" fill="#000000">FOREIGN KEY (course_id) REFERENCES courses (id)</text>
</g>
<!-- course_requirements -->
<g id="node4" class="node">
<title>course_requirements</title>
<polygon fill="#efefef" stroke="transparent" points="386.5,-484.5 386.5,-519.5 666.5,-519.5 666.5,-484.5 386.5,-484.5"/>
<polygon fill="none" stroke="#000000" points="386.5,-484.5 386.5,-519.5 666.5,-519.5 666.5,-484.5 386.5,-484.5"/>
<text text-anchor="start" x="393.3595" y="-497.3" font-family="Arial Bold" font-size="18.00" fill="#000000">course_requirements</text>
<text text-anchor="start" x="562.3867" y="-497.3" font-family="Arial" font-size="14.00" fill="#000000"> </text>
<text text-anchor="start" x="566.2773" y="-497.3" font-family="Arial" font-size="14.00" fill="#666666">[BASE TABLE]</text>
<polygon fill="none" stroke="#000000" points="386.5,-454.5 386.5,-484.5 666.5,-484.5 666.5,-454.5 386.5,-454.5"/>
<text text-anchor="start" x="393.5" y="-465.9" font-family="Arial" font-size="14.00" fill="#000000">course_id </text>
<text text-anchor="start" x="458.0708" y="-465.9" font-family="Arial" font-size="14.00" fill="#666666">[char(36)]</text>
<polygon fill="none" stroke="#000000" points="386.5,-424.5 386.5,-454.5 666.5,-454.5 666.5,-424.5 386.5,-424.5"/>
<text text-anchor="start" x="393.5" y="-435.9" font-family="Arial" font-size="14.00" fill="#000000">required_course_id </text>
<text text-anchor="start" x="517.1942" y="-435.9" font-family="Arial" font-size="14.00" fill="#666666">[char(36)]</text>
</g>
<!-- course_requirements&#45;&gt;courses -->
<g id="edge3" class="edge">
<title>course_requirements:course_id&#45;&gt;courses:id</title>
<path fill="none" stroke="#000000" d="M676.3465,-466.5576C719.2515,-437.7734 669.1889,-207.5 613.5,-207.5"/>
<polygon fill="#000000" stroke="#000000" points="676.0814,-466.6368 665.2115,-465.1884 671.2907,-468.0684 666.5,-469.5 666.5,-469.5 666.5,-469.5 671.2907,-468.0684 667.7885,-473.8116 676.0814,-466.6368 676.0814,-466.6368"/>
<text text-anchor="start" x="673.886" y="-479.5" font-family="Arial" font-size="10.00" fill="#000000">FOREIGN KEY (course_id) REFERENCES courses (id)</text>
</g>
<!-- course_requirements&#45;&gt;courses -->
<g id="edge4" class="edge">
<title>course_requirements:required_course_id&#45;&gt;courses:id</title>
<path fill="none" stroke="#000000" d="M527.04,-414.4805C533.4077,-357.9662 594.2888,-361.6294 613.5,-301 626.0523,-261.3856 655.0556,-207.5 613.5,-207.5"/>
<polygon fill="#000000" stroke="#000000" points="527.0383,-414.5145 522.0065,-424.2578 526.7691,-419.5072 526.5,-424.5 526.5,-424.5 526.5,-424.5 526.7691,-419.5072 530.9935,-424.7422 527.0383,-414.5145 527.0383,-414.5145"/>
<text text-anchor="start" x="382.2705" y="-408.5" font-family="Arial" font-size="10.00" fill="#000000">FOREIGN KEY (required_course_id) REFERENCES courses (id)</text>
</g>
<!-- course_schedules -->
<g id="node5" class="node">
<title>course_schedules</title>
<polygon fill="#efefef" stroke="transparent" points="770.5,-484.5 770.5,-519.5 1026.5,-519.5 1026.5,-484.5 770.5,-484.5"/>
<polygon fill="none" stroke="#000000" points="770.5,-484.5 770.5,-519.5 1026.5,-519.5 1026.5,-484.5 770.5,-484.5"/>
<text text-anchor="start" x="777.352" y="-497.3" font-family="Arial Bold" font-size="18.00" fill="#000000">course_schedules</text>
<text text-anchor="start" x="922.3942" y="-497.3" font-family="Arial" font-size="14.00" fill="#000000"> </text>
<text text-anchor="start" x="926.2848" y="-497.3" font-family="Arial" font-size="14.00" fill="#666666">[BASE TABLE]</text>
<polygon fill="none" stroke="#000000" points="770.5,-454.5 770.5,-484.5 1026.5,-484.5 1026.5,-454.5 770.5,-454.5"/>
<text text-anchor="start" x="777.5" y="-465.9" font-family="Arial" font-size="14.00" fill="#000000">course_id </text>
<text text-anchor="start" x="842.0708" y="-465.9" font-family="Arial" font-size="14.00" fill="#666666">[char(36)]</text>
<polygon fill="none" stroke="#000000" points="770.5,-424.5 770.5,-454.5 1026.5,-454.5 1026.5,-424.5 770.5,-424.5"/>
<text text-anchor="start" x="777.5" y="-435.9" font-family="Arial" font-size="14.00" fill="#000000">schedule_id </text>
<text text-anchor="start" x="856.082" y="-435.9" font-family="Arial" font-size="14.00" fill="#666666">[char(36)]</text>
</g>
<!-- course_schedules&#45;&gt;courses -->
<g id="edge5" class="edge">
<title>course_schedules:course_id&#45;&gt;courses:id</title>
<path fill="none" stroke="#000000" d="M760.439,-468.7186C712.0334,-460.4575 748.4856,-388.4552 718.5,-337 681.1922,-272.9801 687.5974,-207.5 613.5,-207.5"/>
<polygon fill="#000000" stroke="#000000" points="760.53,-468.7256 770.1515,-473.9865 765.515,-469.1128 770.5,-469.5 770.5,-469.5 770.5,-469.5 765.515,-469.1128 770.8485,-465.0135 760.53,-468.7256 760.53,-468.7256"/>
<text text-anchor="start" x="777.886" y="-453.5" font-family="Arial" font-size="10.00" fill="#000000">FOREIGN KEY (course_id) REFERENCES courses (id)</text>
</g>
<!-- attendances -->
<g id="node7" class="node">
<title>attendances</title>
<polygon fill="#efefef" stroke="transparent" points="1450.5,-499.5 1450.5,-534.5 1659.5,-534.5 1659.5,-499.5 1450.5,-499.5"/>
<polygon fill="none" stroke="#000000" points="1450.5,-499.5 1450.5,-534.5 1659.5,-534.5 1659.5,-499.5 1450.5,-499.5"/>
<text text-anchor="start" x="1457.3492" y="-512.3" font-family="Arial Bold" font-size="18.00" fill="#000000">attendances</text>
<text text-anchor="start" x="1555.397" y="-512.3" font-family="Arial" font-size="14.00" fill="#000000"> </text>
<text text-anchor="start" x="1559.2876" y="-512.3" font-family="Arial" font-size="14.00" fill="#666666">[BASE TABLE]</text>
<polygon fill="none" stroke="#000000" points="1450.5,-469.5 1450.5,-499.5 1659.5,-499.5 1659.5,-469.5 1450.5,-469.5"/>
<text text-anchor="start" x="1457.5" y="-480.9" font-family="Arial" font-size="14.00" fill="#000000">class_id </text>
<text text-anchor="start" x="1511.9516" y="-480.9" font-family="Arial" font-size="14.00" fill="#666666">[char(36)]</text>
<polygon fill="none" stroke="#000000" points="1450.5,-439.5 1450.5,-469.5 1659.5,-469.5 1659.5,-439.5 1450.5,-439.5"/>
<text text-anchor="start" x="1457.5" y="-450.9" font-family="Arial" font-size="14.00" fill="#000000">user_id </text>
<text text-anchor="start" x="1507.2882" y="-450.9" font-family="Arial" font-size="14.00" fill="#666666">[char(36)]</text>
<polygon fill="none" stroke="#000000" points="1450.5,-409.5 1450.5,-439.5 1659.5,-439.5 1659.5,-409.5 1450.5,-409.5"/>
<text text-anchor="start" x="1457.5" y="-420.9" font-family="Arial" font-size="14.00" fill="#000000">created_at </text>
<text text-anchor="start" x="1527.528" y="-420.9" font-family="Arial" font-size="14.00" fill="#666666">[datetime(6)]</text>
</g>
<!-- attendances&#45;&gt;users -->
<g id="edge7" class="edge">
<title>attendances:user_id&#45;&gt;users:id</title>
<path fill="none" stroke="#000000" d="M1669.6579,-452.9036C1692.5899,-444.0844 1668.8466,-400.5082 1659.5,-367 1648.1954,-326.4725 1621.8046,-326.5275 1610.5,-286 1599.3349,-245.9725 1568.9444,-192.5 1610.5,-192.5"/>
<polygon fill="#000000" stroke="#000000" points="1669.3787,-452.9473 1658.8013,-450.0546 1664.4394,-453.7237 1659.5,-454.5 1659.5,-454.5 1659.5,-454.5 1664.4394,-453.7237 1660.1987,-458.9454 1669.3787,-452.9473 1669.3787,-452.9473"/>
<text text-anchor="start" x="1666.445" y="-464.5" font-family="Arial" font-size="10.00" fill="#000000">FOREIGN KEY (user_id) REFERENCES users (id)</text>
</g>
<!-- submissions -->
<g id="node8" class="node">
<title>submissions</title>
<polygon fill="#efefef" stroke="transparent" points="1763.5,-529.5 1763.5,-564.5 1973.5,-564.5 1973.5,-529.5 1763.5,-529.5"/>
<polygon fill="none" stroke="#000000" points="1763.5,-529.5 1763.5,-564.5 1973.5,-564.5 1973.5,-529.5 1763.5,-529.5"/>
<text text-anchor="start" x="1770.3704" y="-542.3" font-family="Arial Bold" font-size="18.00" fill="#000000">submissions</text>
<text text-anchor="start" x="1869.3758" y="-542.3" font-family="Arial" font-size="14.00" fill="#000000"> </text>
<text text-anchor="start" x="1873.2664" y="-542.3" font-family="Arial" font-size="14.00" fill="#666666">[BASE TABLE]</text>
<polygon fill="none" stroke="#000000" points="1763.5,-499.5 1763.5,-529.5 1973.5,-529.5 1973.5,-499.5 1763.5,-499.5"/>
<text text-anchor="start" x="1770.5" y="-510.9" font-family="Arial" font-size="14.00" fill="#000000">id </text>
<text text-anchor="start" x="1785.2798" y="-510.9" font-family="Arial" font-size="14.00" fill="#666666">[char(36)]</text>
<polygon fill="none" stroke="#000000" points="1763.5,-469.5 1763.5,-499.5 1973.5,-499.5 1973.5,-469.5 1763.5,-469.5"/>
<text text-anchor="start" x="1770.5" y="-480.9" font-family="Arial" font-size="14.00" fill="#000000">user_id </text>
<text text-anchor="start" x="1820.2882" y="-480.9" font-family="Arial" font-size="14.00" fill="#666666">[char(36)]</text>
<polygon fill="none" stroke="#000000" points="1763.5,-439.5 1763.5,-469.5 1973.5,-469.5 1973.5,-439.5 1763.5,-439.5"/>
<text text-anchor="start" x="1770.5" y="-450.9" font-family="Arial" font-size="14.00" fill="#000000">assignment_id </text>
<text text-anchor="start" x="1864.6332" y="-450.9" font-family="Arial" font-size="14.00" fill="#666666">[char(36)]</text>
<polygon fill="none" stroke="#000000" points="1763.5,-409.5 1763.5,-439.5 1973.5,-439.5 1973.5,-409.5 1763.5,-409.5"/>
<text text-anchor="start" x="1770.5" y="-420.9" font-family="Arial" font-size="14.00" fill="#000000">name </text>
<text text-anchor="start" x="1809.399" y="-420.9" font-family="Arial" font-size="14.00" fill="#666666">[varchar(255)]</text>
<polygon fill="none" stroke="#000000" points="1763.5,-379.5 1763.5,-409.5 1973.5,-409.5 1973.5,-379.5 1763.5,-379.5"/>
<text text-anchor="start" x="1770.5" y="-390.9" font-family="Arial" font-size="14.00" fill="#000000">created_at </text>
<text text-anchor="start" x="1840.528" y="-390.9" font-family="Arial" font-size="14.00" fill="#666666">[datetime(6)]</text>
</g>
<!-- submissions&#45;&gt;users -->
<g id="edge8" class="edge">
<title>submissions:user_id&#45;&gt;users:id</title>
<path fill="none" stroke="#000000" d="M1753.3646,-483.6861C1702.5443,-474.763 1740.4064,-394.3687 1763.5,-337 1775.238,-307.8406 1800.762,-315.1594 1812.5,-286 1828.018,-247.4506 1854.0556,-192.5 1812.5,-192.5"/>
<polygon fill="#000000" stroke="#000000" points="1753.5321,-483.6995 1763.1398,-488.9856 1758.516,-484.0998 1763.5,-484.5 1763.5,-484.5 1763.5,-484.5 1758.516,-484.0998 1763.8602,-480.0144 1753.5321,-483.6995 1753.5321,-483.6995"/>
<text text-anchor="start" x="1770.445" y="-494.5" font-family="Arial" font-size="10.00" fill="#000000">FOREIGN KEY (user_id) REFERENCES users (id)</text>
</g>
<!-- unread_announcements -->
<g id="node9" class="node">
<title>unread_announcements</title>
<polygon fill="#efefef" stroke="transparent" points="2078.5,-514.5 2078.5,-549.5 2383.5,-549.5 2383.5,-514.5 2078.5,-514.5"/>
<polygon fill="none" stroke="#000000" points="2078.5,-514.5 2078.5,-549.5 2383.5,-549.5 2383.5,-514.5 2078.5,-514.5"/>
<text text-anchor="start" x="2085.3333" y="-527.3" font-family="Arial Bold" font-size="18.00" fill="#000000">unread_announcements</text>
<text text-anchor="start" x="2279.4129" y="-527.3" font-family="Arial" font-size="14.00" fill="#000000"> </text>
<text text-anchor="start" x="2283.3035" y="-527.3" font-family="Arial" font-size="14.00" fill="#666666">[BASE TABLE]</text>
<polygon fill="none" stroke="#000000" points="2078.5,-484.5 2078.5,-514.5 2383.5,-514.5 2383.5,-484.5 2078.5,-484.5"/>
<text text-anchor="start" x="2085.5" y="-495.9" font-family="Arial" font-size="14.00" fill="#000000">announcement_id </text>
<text text-anchor="start" x="2200.657" y="-495.9" font-family="Arial" font-size="14.00" fill="#666666">[char(36)]</text>
<polygon fill="none" stroke="#000000" points="2078.5,-454.5 2078.5,-484.5 2383.5,-484.5 2383.5,-454.5 2078.5,-454.5"/>
<text text-anchor="start" x="2085.5" y="-465.9" font-family="Arial" font-size="14.00" fill="#000000">user_id </text>
<text text-anchor="start" x="2135.2882" y="-465.9" font-family="Arial" font-size="14.00" fill="#666666">[char(36)]</text>
<polygon fill="none" stroke="#000000" points="2078.5,-424.5 2078.5,-454.5 2383.5,-454.5 2383.5,-424.5 2078.5,-424.5"/>
<text text-anchor="start" x="2085.5" y="-435.9" font-family="Arial" font-size="14.00" fill="#000000">created_at </text>
<text text-anchor="start" x="2155.528" y="-435.9" font-family="Arial" font-size="14.00" fill="#666666">[datetime(6)]</text>
<polygon fill="none" stroke="#000000" points="2078.5,-394.5 2078.5,-424.5 2383.5,-424.5 2383.5,-394.5 2078.5,-394.5"/>
<text text-anchor="start" x="2085.5" y="-405.9" font-family="Arial" font-size="14.00" fill="#000000">delete_at </text>
<text text-anchor="start" x="2146.974" y="-405.9" font-family="Arial" font-size="14.00" fill="#666666">[datetime(6)]</text>
</g>
<!-- unread_announcements&#45;&gt;users -->
<g id="edge9" class="edge">
<title>unread_announcements:user_id&#45;&gt;users:id</title>
<path fill="none" stroke="#000000" d="M2068.4803,-468.6677C2020.6474,-459.8788 2062.9335,-383.5177 2025.5,-337 1953.7819,-247.8777 1926.8952,-192.5 1812.5,-192.5"/>
<polygon fill="#000000" stroke="#000000" points="2068.5343,-468.6721 2078.1275,-473.9846 2073.5172,-469.0861 2078.5,-469.5 2078.5,-469.5 2078.5,-469.5 2073.5172,-469.0861 2078.8725,-465.0154 2068.5343,-468.6721 2068.5343,-468.6721"/>
<text text-anchor="start" x="2025.445" y="-453.5" font-family="Arial" font-size="10.00" fill="#000000">FOREIGN KEY (user_id) REFERENCES users (id)</text>
</g>
</g>
</svg>
