<?xml version="1.0" encoding="UTF-8" standalone="no"?>
<!DOCTYPE svg PUBLIC "-//W3C//DTD SVG 1.1//EN"
 "http://www.w3.org/Graphics/SVG/1.1/DTD/svg11.dtd">
<!-- Generated by graphviz version 2.40.1 (20161225.0304)
 -->
<!-- Title: registrations Pages: 1 -->
<svg width="3021pt" height="616pt"
 viewBox="0.00 0.00 3020.50 616.00" xmlns="http://www.w3.org/2000/svg" xmlns:xlink="http://www.w3.org/1999/xlink">
<g id="graph0" class="graph" transform="scale(1 1) rotate(0) translate(4 612)">
<title>registrations</title>
<polygon fill="#ffffff" stroke="transparent" points="-4,4 -4,-612 3016.5,-612 3016.5,4 -4,4"/>
<!-- registrations -->
<g id="node1" class="node">
<title>registrations</title>
<polygon fill="#efefef" stroke="transparent" points="1721,-514.5 1721,-549.5 1930,-549.5 1930,-514.5 1721,-514.5"/>
<polygon fill="none" stroke="#000000" points="1721,-514.5 1721,-549.5 1930,-549.5 1930,-514.5 1721,-514.5"/>
<text text-anchor="start" x="1727.869" y="-527.3" font-family="Arial Bold" font-size="18.00" fill="#000000">registrations</text>
<text text-anchor="start" x="1825.8772" y="-527.3" font-family="Arial" font-size="14.00" fill="#000000"> </text>
<text text-anchor="start" x="1829.7678" y="-527.3" font-family="Arial" font-size="14.00" fill="#666666">[BASE TABLE]</text>
<polygon fill="none" stroke="#000000" points="1721,-484.5 1721,-514.5 1930,-514.5 1930,-484.5 1721,-484.5"/>
<text text-anchor="start" x="1728" y="-495.9" font-family="Arial" font-size="14.00" fill="#000000">course_id </text>
<text text-anchor="start" x="1792.5708" y="-495.9" font-family="Arial" font-size="14.00" fill="#666666">[char(36)]</text>
<polygon fill="none" stroke="#000000" points="1721,-454.5 1721,-484.5 1930,-484.5 1930,-454.5 1721,-454.5"/>
<text text-anchor="start" x="1728" y="-465.9" font-family="Arial" font-size="14.00" fill="#000000">user_id </text>
<text text-anchor="start" x="1777.7882" y="-465.9" font-family="Arial" font-size="14.00" fill="#666666">[char(36)]</text>
<polygon fill="none" stroke="#000000" points="1721,-424.5 1721,-454.5 1930,-454.5 1930,-424.5 1721,-424.5"/>
<text text-anchor="start" x="1728" y="-435.9" font-family="Arial" font-size="14.00" fill="#000000">created_at </text>
<text text-anchor="start" x="1798.028" y="-435.9" font-family="Arial" font-size="14.00" fill="#666666">[datetime(6)]</text>
<polygon fill="none" stroke="#000000" points="1721,-394.5 1721,-424.5 1930,-424.5 1930,-394.5 1721,-394.5"/>
<text text-anchor="start" x="1728" y="-405.9" font-family="Arial" font-size="14.00" fill="#000000">delete_at </text>
<text text-anchor="start" x="1789.474" y="-405.9" font-family="Arial" font-size="14.00" fill="#666666">[datetime(6)]</text>
<polygon fill="none" stroke="#000000" stroke-width="3" points="1719,-393.5 1719,-551.5 1931,-551.5 1931,-393.5 1719,-393.5"/>
</g>
<!-- courses -->
<g id="node2" class="node">
<title>courses</title>
<polygon fill="#efefef" stroke="transparent" points="1116,-222.5 1116,-257.5 1290,-257.5 1290,-222.5 1116,-222.5"/>
<polygon fill="none" stroke="#000000" points="1116,-222.5 1116,-257.5 1290,-257.5 1290,-222.5 1116,-222.5"/>
<text text-anchor="start" x="1122.8677" y="-235.3" font-family="Arial Bold" font-size="18.00" fill="#000000">courses</text>
<text text-anchor="start" x="1185.8785" y="-235.3" font-family="Arial" font-size="14.00" fill="#000000"> </text>
<text text-anchor="start" x="1189.7691" y="-235.3" font-family="Arial" font-size="14.00" fill="#666666">[BASE TABLE]</text>
<polygon fill="none" stroke="#000000" points="1116,-192.5 1116,-222.5 1290,-222.5 1290,-192.5 1116,-192.5"/>
<text text-anchor="start" x="1123" y="-203.9" font-family="Arial" font-size="14.00" fill="#000000">id </text>
<text text-anchor="start" x="1137.7798" y="-203.9" font-family="Arial" font-size="14.00" fill="#666666">[char(36)]</text>
<polygon fill="none" stroke="#000000" points="1116,-162.5 1116,-192.5 1290,-192.5 1290,-162.5 1116,-162.5"/>
<text text-anchor="start" x="1123" y="-173.9" font-family="Arial" font-size="14.00" fill="#000000">name </text>
<text text-anchor="start" x="1161.899" y="-173.9" font-family="Arial" font-size="14.00" fill="#666666">[varchar(255)]</text>
<polygon fill="none" stroke="#000000" points="1116,-132.5 1116,-162.5 1290,-162.5 1290,-132.5 1116,-132.5"/>
<text text-anchor="start" x="1123" y="-143.9" font-family="Arial" font-size="14.00" fill="#000000">description </text>
<text text-anchor="start" x="1194.568" y="-143.9" font-family="Arial" font-size="14.00" fill="#666666">[text]</text>
<polygon fill="none" stroke="#000000" points="1116,-102.5 1116,-132.5 1290,-132.5 1290,-102.5 1116,-102.5"/>
<text text-anchor="start" x="1123" y="-113.9" font-family="Arial" font-size="14.00" fill="#000000">credit </text>
<text text-anchor="start" x="1161.1136" y="-113.9" font-family="Arial" font-size="14.00" fill="#666666">[tinyint unsigned]</text>
<polygon fill="none" stroke="#000000" points="1116,-72.5 1116,-102.5 1290,-102.5 1290,-72.5 1116,-72.5"/>
<text text-anchor="start" x="1123" y="-83.9" font-family="Arial" font-size="14.00" fill="#000000">classroom </text>
<text text-anchor="start" x="1190.6662" y="-83.9" font-family="Arial" font-size="14.00" fill="#666666">[varchar(255)]</text>
<polygon fill="none" stroke="#000000" points="1116,-42.5 1116,-72.5 1290,-72.5 1290,-42.5 1116,-42.5"/>
<text text-anchor="start" x="1123" y="-53.9" font-family="Arial" font-size="14.00" fill="#000000">capacity </text>
<text text-anchor="start" x="1178.2356" y="-53.9" font-family="Arial" font-size="14.00" fill="#666666">[int unsigned]</text>
</g>
<!-- registrations&#45;&gt;courses -->
<g id="edge1" class="edge">
<title>registrations:course_id&#45;&gt;courses:id</title>
<path fill="none" stroke="#000000" d="M1710.8559,-498.7432C1651.568,-489.0374 1716.3622,-388.3952 1665,-337 1540.3596,-212.2796 1466.3248,-207.5 1290,-207.5"/>
<polygon fill="#000000" stroke="#000000" points="1711.0277,-498.7559 1720.6651,-503.9875 1716.0139,-499.1279 1721,-499.5 1721,-499.5 1721,-499.5 1716.0139,-499.1279 1721.3349,-495.0125 1711.0277,-498.7559 1711.0277,-498.7559"/>
<text text-anchor="start" x="1467.386" y="-509.5" font-family="Arial" font-size="10.00" fill="#000000">FOREIGN KEY (course_id) REFERENCES courses (id)</text>
</g>
<!-- users -->
<g id="node8" class="node">
<title>users</title>
<polygon fill="#efefef" stroke="transparent" points="2041,-207.5 2041,-242.5 2243,-242.5 2243,-207.5 2041,-207.5"/>
<polygon fill="none" stroke="#000000" points="2041,-207.5 2041,-242.5 2243,-242.5 2243,-207.5 2041,-207.5"/>
<text text-anchor="start" x="2071.3708" y="-220.3" font-family="Arial Bold" font-size="18.00" fill="#000000">users</text>
<text text-anchor="start" x="2115.3754" y="-220.3" font-family="Arial" font-size="14.00" fill="#000000"> </text>
<text text-anchor="start" x="2119.266" y="-220.3" font-family="Arial" font-size="14.00" fill="#666666">[BASE TABLE]</text>
<polygon fill="none" stroke="#000000" points="2041,-177.5 2041,-207.5 2243,-207.5 2243,-177.5 2041,-177.5"/>
<text text-anchor="start" x="2048" y="-188.9" font-family="Arial" font-size="14.00" fill="#000000">id </text>
<text text-anchor="start" x="2062.7798" y="-188.9" font-family="Arial" font-size="14.00" fill="#666666">[char(36)]</text>
<polygon fill="none" stroke="#000000" points="2041,-147.5 2041,-177.5 2243,-177.5 2243,-147.5 2041,-147.5"/>
<text text-anchor="start" x="2048" y="-158.9" font-family="Arial" font-size="14.00" fill="#000000">name </text>
<text text-anchor="start" x="2086.899" y="-158.9" font-family="Arial" font-size="14.00" fill="#666666">[varchar(255)]</text>
<polygon fill="none" stroke="#000000" points="2041,-117.5 2041,-147.5 2243,-147.5 2243,-117.5 2041,-117.5"/>
<text text-anchor="start" x="2048" y="-128.9" font-family="Arial" font-size="14.00" fill="#000000">mail_address </text>
<text text-anchor="start" x="2135.1206" y="-128.9" font-family="Arial" font-size="14.00" fill="#666666">[varchar(255)]</text>
<polygon fill="none" stroke="#000000" points="2041,-87.5 2041,-117.5 2243,-117.5 2243,-87.5 2041,-87.5"/>
<text text-anchor="start" x="2047.8668" y="-98.9" font-family="Arial" font-size="14.00" fill="#000000">hashed_password </text>
<text text-anchor="start" x="2165.3506" y="-98.9" font-family="Arial" font-size="14.00" fill="#666666">[binary(60)]</text>
<polygon fill="none" stroke="#000000" points="2041,-57.5 2041,-87.5 2243,-87.5 2243,-57.5 2041,-57.5"/>
<text text-anchor="start" x="2048" y="-68.9" font-family="Arial" font-size="14.00" fill="#000000">type </text>
<text text-anchor="start" x="2078.3464" y="-68.9" font-family="Arial" font-size="14.00" fill="#666666">[enum(&#39;student&#39;,&#39;faculty&#39;)]</text>
</g>
<!-- registrations&#45;&gt;users -->
<g id="edge8" class="edge">
<title>registrations:user_id&#45;&gt;users:id</title>
<path fill="none" stroke="#000000" d="M1938.7891,-463.7145C1970.7522,-423.9363 2010.6925,-192.5 2041,-192.5"/>
<polygon fill="#000000" stroke="#000000" points="1938.3528,-464.0016 1927.5257,-465.7413 1934.1764,-466.7508 1930,-469.5 1930,-469.5 1930,-469.5 1934.1764,-466.7508 1932.4743,-473.2587 1938.3528,-464.0016 1938.3528,-464.0016"/>
<text text-anchor="start" x="1936.945" y="-479.5" font-family="Arial" font-size="10.00" fill="#000000">FOREIGN KEY (user_id) REFERENCES users (id)</text>
</g>
<!-- announcements -->
<g id="node3" class="node">
<title>announcements</title>
<polygon fill="#efefef" stroke="transparent" points="404,-529.5 404,-564.5 643,-564.5 643,-529.5 404,-529.5"/>
<polygon fill="none" stroke="#000000" points="404,-529.5 404,-564.5 643,-564.5 643,-529.5 404,-529.5"/>
<text text-anchor="start" x="410.848" y="-542.3" font-family="Arial Bold" font-size="18.00" fill="#000000">announcements</text>
<text text-anchor="start" x="538.8982" y="-542.3" font-family="Arial" font-size="14.00" fill="#000000"> </text>
<text text-anchor="start" x="542.7888" y="-542.3" font-family="Arial" font-size="14.00" fill="#666666">[BASE TABLE]</text>
<polygon fill="none" stroke="#000000" points="404,-499.5 404,-529.5 643,-529.5 643,-499.5 404,-499.5"/>
<text text-anchor="start" x="411" y="-510.9" font-family="Arial" font-size="14.00" fill="#000000">id </text>
<text text-anchor="start" x="425.7798" y="-510.9" font-family="Arial" font-size="14.00" fill="#666666">[char(36)]</text>
<polygon fill="none" stroke="#000000" points="404,-469.5 404,-499.5 643,-499.5 643,-469.5 404,-469.5"/>
<text text-anchor="start" x="411" y="-480.9" font-family="Arial" font-size="14.00" fill="#000000">course_id </text>
<text text-anchor="start" x="475.5708" y="-480.9" font-family="Arial" font-size="14.00" fill="#666666">[char(36)]</text>
<polygon fill="none" stroke="#000000" points="404,-439.5 404,-469.5 643,-469.5 643,-439.5 404,-439.5"/>
<text text-anchor="start" x="411" y="-450.9" font-family="Arial" font-size="14.00" fill="#000000">title </text>
<text text-anchor="start" x="436.6676" y="-450.9" font-family="Arial" font-size="14.00" fill="#666666">[varchar(255)]</text>
<polygon fill="none" stroke="#000000" points="404,-409.5 404,-439.5 643,-439.5 643,-409.5 404,-409.5"/>
<text text-anchor="start" x="411" y="-420.9" font-family="Arial" font-size="14.00" fill="#000000">message </text>
<text text-anchor="start" x="471.6816" y="-420.9" font-family="Arial" font-size="14.00" fill="#666666">[text]</text>
<polygon fill="none" stroke="#000000" points="404,-379.5 404,-409.5 643,-409.5 643,-379.5 404,-379.5"/>
<text text-anchor="start" x="411" y="-390.9" font-family="Arial" font-size="14.00" fill="#000000">created_at </text>
<text text-anchor="start" x="481.028" y="-390.9" font-family="Arial" font-size="14.00" fill="#666666">[datetime(6)]</text>
</g>
<!-- announcements&#45;&gt;courses -->
<g id="edge2" class="edge">
<title>announcements:course_id&#45;&gt;courses:id</title>
<path fill="none" stroke="#000000" d="M653.2151,-483.6332C705.4635,-473.7862 647.6051,-382.5122 695,-337 765.6008,-269.2037 1018.1184,-207.5 1116,-207.5"/>
<polygon fill="#000000" stroke="#000000" points="652.9642,-483.6544 642.6195,-480.0161 647.9821,-484.0772 643,-484.5 643,-484.5 643,-484.5 647.9821,-484.0772 643.3805,-488.9839 652.9642,-483.6544 652.9642,-483.6544"/>
<text text-anchor="start" x="519.886" y="-468.5" font-family="Arial" font-size="10.00" fill="#000000">FOREIGN KEY (course_id) REFERENCES courses (id)</text>
</g>
<!-- classes -->
<g id="node4" class="node">
<title>classes</title>
<polygon fill="#efefef" stroke="transparent" points="747,-529.5 747,-564.5 959,-564.5 959,-529.5 747,-529.5"/>
<polygon fill="none" stroke="#000000" points="747,-529.5 747,-564.5 959,-564.5 959,-529.5 747,-529.5"/>
<text text-anchor="start" x="774.3698" y="-542.3" font-family="Arial Bold" font-size="18.00" fill="#000000">classes</text>
<text text-anchor="start" x="834.3764" y="-542.3" font-family="Arial" font-size="14.00" fill="#000000"> </text>
<text text-anchor="start" x="838.267" y="-542.3" font-family="Arial" font-size="14.00" fill="#666666">[BASE TABLE]</text>
<polygon fill="none" stroke="#000000" points="747,-499.5 747,-529.5 959,-529.5 959,-499.5 747,-499.5"/>
<text text-anchor="start" x="754" y="-510.9" font-family="Arial" font-size="14.00" fill="#000000">id </text>
<text text-anchor="start" x="768.7798" y="-510.9" font-family="Arial" font-size="14.00" fill="#666666">[char(36)]</text>
<polygon fill="none" stroke="#000000" points="747,-469.5 747,-499.5 959,-499.5 959,-469.5 747,-469.5"/>
<text text-anchor="start" x="754" y="-480.9" font-family="Arial" font-size="14.00" fill="#000000">course_id </text>
<text text-anchor="start" x="818.5708" y="-480.9" font-family="Arial" font-size="14.00" fill="#666666">[char(36)]</text>
<polygon fill="none" stroke="#000000" points="747,-439.5 747,-469.5 959,-469.5 959,-439.5 747,-439.5"/>
<text text-anchor="start" x="754" y="-450.9" font-family="Arial" font-size="14.00" fill="#000000">title </text>
<text text-anchor="start" x="779.6676" y="-450.9" font-family="Arial" font-size="14.00" fill="#666666">[varchar(255)]</text>
<polygon fill="none" stroke="#000000" points="747,-409.5 747,-439.5 959,-439.5 959,-409.5 747,-409.5"/>
<text text-anchor="start" x="754" y="-420.9" font-family="Arial" font-size="14.00" fill="#000000">description </text>
<text text-anchor="start" x="825.568" y="-420.9" font-family="Arial" font-size="14.00" fill="#666666">[text]</text>
<polygon fill="none" stroke="#000000" points="747,-379.5 747,-409.5 959,-409.5 959,-379.5 747,-379.5"/>
<text text-anchor="start" x="753.8002" y="-390.9" font-family="Arial" font-size="14.00" fill="#000000">attendance_code </text>
<text text-anchor="start" x="865.0806" y="-390.9" font-family="Arial" font-size="14.00" fill="#666666">[varchar(255)]</text>
</g>
<!-- classes&#45;&gt;courses -->
<g id="edge3" class="edge">
<title>classes:course_id&#45;&gt;courses:id</title>
<path fill="none" stroke="#000000" d="M969.0178,-483.7921C1023.3211,-475.414 978.8494,-394.4617 1011,-337 1047.1803,-272.3362 1041.9026,-207.5 1116,-207.5"/>
<polygon fill="#000000" stroke="#000000" points="968.9751,-483.795 958.6828,-480.0112 963.9876,-484.1475 959,-484.5 959,-484.5 959,-484.5 963.9876,-484.1475 959.3172,-488.9888 968.9751,-483.795 968.9751,-483.795"/>
<text text-anchor="start" x="966.386" y="-494.5" font-family="Arial" font-size="10.00" fill="#000000">FOREIGN KEY (course_id) REFERENCES courses (id)</text>
</g>
<!-- course_requirements -->
<g id="node5" class="node">
<title>course_requirements</title>
<polygon fill="#efefef" stroke="transparent" points="1063,-484.5 1063,-519.5 1343,-519.5 1343,-484.5 1063,-484.5"/>
<polygon fill="none" stroke="#000000" points="1063,-484.5 1063,-519.5 1343,-519.5 1343,-484.5 1063,-484.5"/>
<text text-anchor="start" x="1069.8595" y="-497.3" font-family="Arial Bold" font-size="18.00" fill="#000000">course_requirements</text>
<text text-anchor="start" x="1238.8867" y="-497.3" font-family="Arial" font-size="14.00" fill="#000000"> </text>
<text text-anchor="start" x="1242.7773" y="-497.3" font-family="Arial" font-size="14.00" fill="#666666">[BASE TABLE]</text>
<polygon fill="none" stroke="#000000" points="1063,-454.5 1063,-484.5 1343,-484.5 1343,-454.5 1063,-454.5"/>
<text text-anchor="start" x="1070" y="-465.9" font-family="Arial" font-size="14.00" fill="#000000">course_id </text>
<text text-anchor="start" x="1134.5708" y="-465.9" font-family="Arial" font-size="14.00" fill="#666666">[char(36)]</text>
<polygon fill="none" stroke="#000000" points="1063,-424.5 1063,-454.5 1343,-454.5 1343,-424.5 1063,-424.5"/>
<text text-anchor="start" x="1070" y="-435.9" font-family="Arial" font-size="14.00" fill="#000000">required_course_id </text>
<text text-anchor="start" x="1193.6942" y="-435.9" font-family="Arial" font-size="14.00" fill="#666666">[char(36)]</text>
</g>
<!-- course_requirements&#45;&gt;courses -->
<g id="edge4" class="edge">
<title>course_requirements:course_id&#45;&gt;courses:id</title>
<path fill="none" stroke="#000000" d="M1352.8465,-466.5576C1395.7515,-437.7734 1345.6889,-207.5 1290,-207.5"/>
<polygon fill="#000000" stroke="#000000" points="1352.5814,-466.6368 1341.7115,-465.1884 1347.7907,-468.0684 1343,-469.5 1343,-469.5 1343,-469.5 1347.7907,-468.0684 1344.2885,-473.8116 1352.5814,-466.6368 1352.5814,-466.6368"/>
<text text-anchor="start" x="1350.386" y="-479.5" font-family="Arial" font-size="10.00" fill="#000000">FOREIGN KEY (course_id) REFERENCES courses (id)</text>
</g>
<!-- course_requirements&#45;&gt;courses -->
<g id="edge5" class="edge">
<title>course_requirements:required_course_id&#45;&gt;courses:id</title>
<path fill="none" stroke="#000000" d="M1203.54,-414.4805C1209.9077,-357.9662 1270.7888,-361.6294 1290,-301 1302.5523,-261.3856 1331.5556,-207.5 1290,-207.5"/>
<polygon fill="#000000" stroke="#000000" points="1203.5383,-414.5145 1198.5065,-424.2578 1203.2691,-419.5072 1203,-424.5 1203,-424.5 1203,-424.5 1203.2691,-419.5072 1207.4935,-424.7422 1203.5383,-414.5145 1203.5383,-414.5145"/>
<text text-anchor="start" x="907.2705" y="-434.5" font-family="Arial" font-size="10.00" fill="#000000">FOREIGN KEY (required_course_id) REFERENCES courses (id)</text>
</g>
<!-- course_schedules -->
<g id="node6" class="node">
<title>course_schedules</title>
<polygon fill="#efefef" stroke="transparent" points="43,-484.5 43,-519.5 299,-519.5 299,-484.5 43,-484.5"/>
<polygon fill="none" stroke="#000000" points="43,-484.5 43,-519.5 299,-519.5 299,-484.5 43,-484.5"/>
<text text-anchor="start" x="49.852" y="-497.3" font-family="Arial Bold" font-size="18.00" fill="#000000">course_schedules</text>
<text text-anchor="start" x="194.8942" y="-497.3" font-family="Arial" font-size="14.00" fill="#000000"> </text>
<text text-anchor="start" x="198.7848" y="-497.3" font-family="Arial" font-size="14.00" fill="#666666">[BASE TABLE]</text>
<polygon fill="none" stroke="#000000" points="43,-454.5 43,-484.5 299,-484.5 299,-454.5 43,-454.5"/>
<text text-anchor="start" x="50" y="-465.9" font-family="Arial" font-size="14.00" fill="#000000">course_id </text>
<text text-anchor="start" x="114.5708" y="-465.9" font-family="Arial" font-size="14.00" fill="#666666">[char(36)]</text>
<polygon fill="none" stroke="#000000" points="43,-424.5 43,-454.5 299,-454.5 299,-424.5 43,-424.5"/>
<text text-anchor="start" x="50" y="-435.9" font-family="Arial" font-size="14.00" fill="#000000">schedule_id </text>
<text text-anchor="start" x="128.582" y="-435.9" font-family="Arial" font-size="14.00" fill="#666666">[char(36)]</text>
</g>
<!-- course_schedules&#45;&gt;courses -->
<g id="edge6" class="edge">
<title>course_schedules:course_id&#45;&gt;courses:id</title>
<path fill="none" stroke="#000000" d="M309.183,-468.5137C355.3533,-458.4787 304.8721,-374.4739 351,-337 484.8235,-228.2827 943.5814,-207.5 1116,-207.5"/>
<polygon fill="#000000" stroke="#000000" points="308.9534,-468.5359 298.5662,-465.021 303.9767,-469.0179 299,-469.5 299,-469.5 299,-469.5 303.9767,-469.0179 299.4338,-473.979 308.9534,-468.5359 308.9534,-468.5359"/>
<text text-anchor="start" x="45.386" y="-479.5" font-family="Arial" font-size="10.00" fill="#000000">FOREIGN KEY (course_id) REFERENCES courses (id)</text>
</g>
<!-- grades -->
<g id="node7" class="node">
<title>grades</title>
<polygon fill="#efefef" stroke="transparent" points="1447,-514.5 1447,-549.5 1613,-549.5 1613,-514.5 1447,-514.5"/>
<polygon fill="none" stroke="#000000" points="1447,-514.5 1447,-549.5 1613,-549.5 1613,-514.5 1447,-514.5"/>
<text text-anchor="start" x="1453.8646" y="-527.3" font-family="Arial Bold" font-size="18.00" fill="#000000">grades</text>
<text text-anchor="start" x="1508.8816" y="-527.3" font-family="Arial" font-size="14.00" fill="#000000"> </text>
<text text-anchor="start" x="1512.7722" y="-527.3" font-family="Arial" font-size="14.00" fill="#666666">[BASE TABLE]</text>
<polygon fill="none" stroke="#000000" points="1447,-484.5 1447,-514.5 1613,-514.5 1613,-484.5 1447,-484.5"/>
<text text-anchor="start" x="1454" y="-495.9" font-family="Arial" font-size="14.00" fill="#000000">id </text>
<text text-anchor="start" x="1468.7798" y="-495.9" font-family="Arial" font-size="14.00" fill="#666666">[char(36)]</text>
<polygon fill="none" stroke="#000000" points="1447,-454.5 1447,-484.5 1613,-484.5 1613,-454.5 1447,-454.5"/>
<text text-anchor="start" x="1454" y="-465.9" font-family="Arial" font-size="14.00" fill="#000000">user_id </text>
<text text-anchor="start" x="1503.7882" y="-465.9" font-family="Arial" font-size="14.00" fill="#666666">[char(36)]</text>
<polygon fill="none" stroke="#000000" points="1447,-424.5 1447,-454.5 1613,-454.5 1613,-424.5 1447,-424.5"/>
<text text-anchor="start" x="1454" y="-435.9" font-family="Arial" font-size="14.00" fill="#000000">course_id </text>
<text text-anchor="start" x="1518.5708" y="-435.9" font-family="Arial" font-size="14.00" fill="#666666">[char(36)]</text>
<polygon fill="none" stroke="#000000" points="1447,-394.5 1447,-424.5 1613,-424.5 1613,-394.5 1447,-394.5"/>
<text text-anchor="start" x="1454" y="-405.9" font-family="Arial" font-size="14.00" fill="#000000">grade </text>
<text text-anchor="start" x="1493.6816" y="-405.9" font-family="Arial" font-size="14.00" fill="#666666">[int unsigned]</text>
</g>
<!-- grades&#45;&gt;courses -->
<g id="edge7" class="edge">
<title>grades:course_id&#45;&gt;courses:id</title>
<path fill="none" stroke="#000000" d="M1436.8603,-438.5456C1399.6062,-430.7392 1420.7342,-376.6764 1395,-337 1354.679,-274.8338 1364.0974,-207.5 1290,-207.5"/>
<polygon fill="#000000" stroke="#000000" points="1437.044,-438.5628 1446.5783,-443.9802 1442.022,-439.0314 1447,-439.5 1447,-439.5 1447,-439.5 1442.022,-439.0314 1447.4217,-435.0198 1437.044,-438.5628 1437.044,-438.5628"/>
<text text-anchor="start" x="1454.386" y="-449.5" font-family="Arial" font-size="10.00" fill="#000000">FOREIGN KEY (course_id) REFERENCES courses (id)</text>
</g>
<!-- grades&#45;&gt;users -->
<g id="edge10" class="edge">
<title>grades:user_id&#45;&gt;users:id</title>
<path fill="none" stroke="#000000" d="M1623.2265,-468.5621C1669.8323,-459.0116 1622.8273,-378.8753 1665,-337 1792.0382,-210.8576 1861.9731,-192.5 2041,-192.5"/>
<polygon fill="#000000" stroke="#000000" points="1622.9582,-468.5867 1612.589,-465.0188 1617.9791,-469.0433 1613,-469.5 1613,-469.5 1613,-469.5 1617.9791,-469.0433 1613.411,-473.9812 1622.9582,-468.5867 1622.9582,-468.5867"/>
<text text-anchor="start" x="1619.945" y="-479.5" font-family="Arial" font-size="10.00" fill="#000000">FOREIGN KEY (user_id) REFERENCES users (id)</text>
</g>
<!-- attendances -->
<g id="node9" class="node">
<title>attendances</title>
<polygon fill="#efefef" stroke="transparent" points="2037,-499.5 2037,-534.5 2246,-534.5 2246,-499.5 2037,-499.5"/>
<polygon fill="none" stroke="#000000" points="2037,-499.5 2037,-534.5 2246,-534.5 2246,-499.5 2037,-499.5"/>
<text text-anchor="start" x="2043.8492" y="-512.3" font-family="Arial Bold" font-size="18.00" fill="#000000">attendances</text>
<text text-anchor="start" x="2141.897" y="-512.3" font-family="Arial" font-size="14.00" fill="#000000"> </text>
<text text-anchor="start" x="2145.7876" y="-512.3" font-family="Arial" font-size="14.00" fill="#666666">[BASE TABLE]</text>
<polygon fill="none" stroke="#000000" points="2037,-469.5 2037,-499.5 2246,-499.5 2246,-469.5 2037,-469.5"/>
<text text-anchor="start" x="2044" y="-480.9" font-family="Arial" font-size="14.00" fill="#000000">class_id </text>
<text text-anchor="start" x="2098.4516" y="-480.9" font-family="Arial" font-size="14.00" fill="#666666">[char(36)]</text>
<polygon fill="none" stroke="#000000" points="2037,-439.5 2037,-469.5 2246,-469.5 2246,-439.5 2037,-439.5"/>
<text text-anchor="start" x="2044" y="-450.9" font-family="Arial" font-size="14.00" fill="#000000">user_id </text>
<text text-anchor="start" x="2093.7882" y="-450.9" font-family="Arial" font-size="14.00" fill="#666666">[char(36)]</text>
<polygon fill="none" stroke="#000000" points="2037,-409.5 2037,-439.5 2246,-439.5 2246,-409.5 2037,-409.5"/>
<text text-anchor="start" x="2044" y="-420.9" font-family="Arial" font-size="14.00" fill="#000000">created_at </text>
<text text-anchor="start" x="2114.028" y="-420.9" font-family="Arial" font-size="14.00" fill="#666666">[datetime(6)]</text>
</g>
<!-- attendances&#45;&gt;users -->
<g id="edge9" class="edge">
<title>attendances:user_id&#45;&gt;users:id</title>
<path fill="none" stroke="#000000" d="M2256.1724,-452.8697C2281.3819,-443.4975 2265.6488,-395.8907 2246,-367 2190.907,-285.9939 2096.093,-367.0061 2041,-286 2017.6303,-251.6383 1999.4444,-192.5 2041,-192.5"/>
<polygon fill="#000000" stroke="#000000" points="2255.874,-452.9174 2245.2878,-450.0567 2250.937,-453.7087 2246,-454.5 2246,-454.5 2246,-454.5 2250.937,-453.7087 2246.7122,-458.9433 2255.874,-452.9174 2255.874,-452.9174"/>
<text text-anchor="start" x="2252.945" y="-464.5" font-family="Arial" font-size="10.00" fill="#000000">FOREIGN KEY (user_id) REFERENCES users (id)</text>
</g>
<!-- submissions -->
<g id="node10" class="node">
<title>submissions</title>
<polygon fill="#efefef" stroke="transparent" points="2350,-529.5 2350,-564.5 2560,-564.5 2560,-529.5 2350,-529.5"/>
<polygon fill="none" stroke="#000000" points="2350,-529.5 2350,-564.5 2560,-564.5 2560,-529.5 2350,-529.5"/>
<text text-anchor="start" x="2356.8704" y="-542.3" font-family="Arial Bold" font-size="18.00" fill="#000000">submissions</text>
<text text-anchor="start" x="2455.8758" y="-542.3" font-family="Arial" font-size="14.00" fill="#000000"> </text>
<text text-anchor="start" x="2459.7664" y="-542.3" font-family="Arial" font-size="14.00" fill="#666666">[BASE TABLE]</text>
<polygon fill="none" stroke="#000000" points="2350,-499.5 2350,-529.5 2560,-529.5 2560,-499.5 2350,-499.5"/>
<text text-anchor="start" x="2357" y="-510.9" font-family="Arial" font-size="14.00" fill="#000000">id </text>
<text text-anchor="start" x="2371.7798" y="-510.9" font-family="Arial" font-size="14.00" fill="#666666">[char(36)]</text>
<polygon fill="none" stroke="#000000" points="2350,-469.5 2350,-499.5 2560,-499.5 2560,-469.5 2350,-469.5"/>
<text text-anchor="start" x="2357" y="-480.9" font-family="Arial" font-size="14.00" fill="#000000">user_id </text>
<text text-anchor="start" x="2406.7882" y="-480.9" font-family="Arial" font-size="14.00" fill="#666666">[char(36)]</text>
<polygon fill="none" stroke="#000000" points="2350,-439.5 2350,-469.5 2560,-469.5 2560,-439.5 2350,-439.5"/>
<text text-anchor="start" x="2357" y="-450.9" font-family="Arial" font-size="14.00" fill="#000000">assignment_id </text>
<text text-anchor="start" x="2451.1332" y="-450.9" font-family="Arial" font-size="14.00" fill="#666666">[char(36)]</text>
<polygon fill="none" stroke="#000000" points="2350,-409.5 2350,-439.5 2560,-439.5 2560,-409.5 2350,-409.5"/>
<text text-anchor="start" x="2357" y="-420.9" font-family="Arial" font-size="14.00" fill="#000000">name </text>
<text text-anchor="start" x="2395.899" y="-420.9" font-family="Arial" font-size="14.00" fill="#666666">[varchar(255)]</text>
<polygon fill="none" stroke="#000000" points="2350,-379.5 2350,-409.5 2560,-409.5 2560,-379.5 2350,-379.5"/>
<text text-anchor="start" x="2357" y="-390.9" font-family="Arial" font-size="14.00" fill="#000000">created_at </text>
<text text-anchor="start" x="2427.028" y="-390.9" font-family="Arial" font-size="14.00" fill="#666666">[datetime(6)]</text>
</g>
<!-- submissions&#45;&gt;users -->
<g id="edge11" class="edge">
<title>submissions:user_id&#45;&gt;users:id</title>
<path fill="none" stroke="#000000" d="M2339.903,-483.8285C2284.6778,-475.8739 2320.6592,-398.8228 2298,-337 2274.3523,-272.4802 2311.717,-192.5 2243,-192.5"/>
<polygon fill="#000000" stroke="#000000" points="2340.022,-483.8363 2349.7013,-488.9901 2345.011,-484.1682 2350,-484.5 2350,-484.5 2350,-484.5 2345.011,-484.1682 2350.2987,-480.0099 2340.022,-483.8363 2340.022,-483.8363"/>
<text text-anchor="start" x="2356.945" y="-494.5" font-family="Arial" font-size="10.00" fill="#000000">FOREIGN KEY (user_id) REFERENCES users (id)</text>
</g>
<!-- unread_announcements -->
<g id="node11" class="node">
<title>unread_announcements</title>
<polygon fill="#efefef" stroke="transparent" points="2665,-514.5 2665,-549.5 2970,-549.5 2970,-514.5 2665,-514.5"/>
<polygon fill="none" stroke="#000000" points="2665,-514.5 2665,-549.5 2970,-549.5 2970,-514.5 2665,-514.5"/>
<text text-anchor="start" x="2671.8333" y="-527.3" font-family="Arial Bold" font-size="18.00" fill="#000000">unread_announcements</text>
<text text-anchor="start" x="2865.9129" y="-527.3" font-family="Arial" font-size="14.00" fill="#000000"> </text>
<text text-anchor="start" x="2869.8035" y="-527.3" font-family="Arial" font-size="14.00" fill="#666666">[BASE TABLE]</text>
<polygon fill="none" stroke="#000000" points="2665,-484.5 2665,-514.5 2970,-514.5 2970,-484.5 2665,-484.5"/>
<text text-anchor="start" x="2672" y="-495.9" font-family="Arial" font-size="14.00" fill="#000000">announcement_id </text>
<text text-anchor="start" x="2787.157" y="-495.9" font-family="Arial" font-size="14.00" fill="#666666">[char(36)]</text>
<polygon fill="none" stroke="#000000" points="2665,-454.5 2665,-484.5 2970,-484.5 2970,-454.5 2665,-454.5"/>
<text text-anchor="start" x="2672" y="-465.9" font-family="Arial" font-size="14.00" fill="#000000">user_id </text>
<text text-anchor="start" x="2721.7882" y="-465.9" font-family="Arial" font-size="14.00" fill="#666666">[char(36)]</text>
<polygon fill="none" stroke="#000000" points="2665,-424.5 2665,-454.5 2970,-454.5 2970,-424.5 2665,-424.5"/>
<text text-anchor="start" x="2672" y="-435.9" font-family="Arial" font-size="14.00" fill="#000000">created_at </text>
<text text-anchor="start" x="2742.028" y="-435.9" font-family="Arial" font-size="14.00" fill="#666666">[datetime(6)]</text>
<polygon fill="none" stroke="#000000" points="2665,-394.5 2665,-424.5 2970,-424.5 2970,-394.5 2665,-394.5"/>
<text text-anchor="start" x="2672" y="-405.9" font-family="Arial" font-size="14.00" fill="#000000">delete_at </text>
<text text-anchor="start" x="2733.474" y="-405.9" font-family="Arial" font-size="14.00" fill="#666666">[datetime(6)]</text>
</g>
<!-- unread_announcements&#45;&gt;users -->
<g id="edge12" class="edge">
<title>unread_announcements:user_id&#45;&gt;users:id</title>
<path fill="none" stroke="#000000" d="M2655.0311,-468.6219C2607.7263,-459.3573 2654.3737,-379.067 2612,-337 2487.0084,-212.913 2419.1264,-192.5 2243,-192.5"/>
<polygon fill="#000000" stroke="#000000" points="2655.0386,-468.6224 2664.6051,-473.9826 2660.0193,-469.0612 2665,-469.5 2665,-469.5 2665,-469.5 2660.0193,-469.0612 2665.3949,-465.0174 2655.0386,-468.6224 2655.0386,-468.6224"/>
<text text-anchor="start" x="2611.945" y="-453.5" font-family="Arial" font-size="10.00" fill="#000000">FOREIGN KEY (user_id) REFERENCES users (id)</text>
</g>
</g>
</svg>
