<?xml version="1.0" encoding="UTF-8" standalone="no"?>
<!DOCTYPE svg PUBLIC "-//W3C//DTD SVG 1.1//EN"
 "http://www.w3.org/Graphics/SVG/1.1/DTD/svg11.dtd">
<!-- Generated by graphviz version 2.40.1 (20161225.0304)
 -->
<!-- Title: schedules Pages: 1 -->
<svg width="972pt" height="526pt"
 viewBox="0.00 0.00 971.50 526.00" xmlns="http://www.w3.org/2000/svg" xmlns:xlink="http://www.w3.org/1999/xlink">
<g id="graph0" class="graph" transform="scale(1 1) rotate(0) translate(4 522)">
<title>schedules</title>
<polygon fill="#ffffff" stroke="transparent" points="-4,4 -4,-522 967.5,-522 967.5,4 -4,4"/>
<!-- schedules -->
<g id="node1" class="node">
<title>schedules</title>
<polygon fill="#efefef" stroke="transparent" points="46.5,-207.5 46.5,-242.5 621.5,-242.5 621.5,-207.5 46.5,-207.5"/>
<polygon fill="none" stroke="#000000" points="46.5,-207.5 46.5,-242.5 621.5,-242.5 621.5,-207.5 46.5,-207.5"/>
<text text-anchor="start" x="244.8605" y="-220.3" font-family="Arial Bold" font-size="18.00" fill="#000000">schedules</text>
<text text-anchor="start" x="325.8857" y="-220.3" font-family="Arial" font-size="14.00" fill="#000000"> </text>
<text text-anchor="start" x="329.7763" y="-220.3" font-family="Arial" font-size="14.00" fill="#666666">[BASE TABLE]</text>
<polygon fill="none" stroke="#000000" points="46.5,-177.5 46.5,-207.5 621.5,-207.5 621.5,-177.5 46.5,-177.5"/>
<text text-anchor="start" x="53.5" y="-188.9" font-family="Arial" font-size="14.00" fill="#000000">id </text>
<text text-anchor="start" x="68.2798" y="-188.9" font-family="Arial" font-size="14.00" fill="#666666">[char(36)]</text>
<polygon fill="none" stroke="#000000" points="46.5,-147.5 46.5,-177.5 621.5,-177.5 621.5,-147.5 46.5,-147.5"/>
<text text-anchor="start" x="53.5" y="-158.9" font-family="Arial" font-size="14.00" fill="#000000">period </text>
<text text-anchor="start" x="96.2882" y="-158.9" font-family="Arial" font-size="14.00" fill="#666666">[tinyint unsigned]</text>
<polygon fill="none" stroke="#000000" points="46.5,-117.5 46.5,-147.5 621.5,-147.5 621.5,-117.5 46.5,-117.5"/>
<text text-anchor="start" x="53.2762" y="-128.9" font-family="Arial" font-size="14.00" fill="#000000">day_of_week </text>
<text text-anchor="start" x="139.6422" y="-128.9" font-family="Arial" font-size="14.00" fill="#666666">[enum(&#39;sunday&#39;,&#39;monday&#39;,&#39;tuesday&#39;,&#39;wednesday&#39;,&#39;thursday&#39;,&#39;friday&#39;,&#39;saturday&#39;)]</text>
<polygon fill="none" stroke="#000000" points="46.5,-87.5 46.5,-117.5 621.5,-117.5 621.5,-87.5 46.5,-87.5"/>
<text text-anchor="start" x="53.5" y="-98.9" font-family="Arial" font-size="14.00" fill="#000000">semester </text>
<text text-anchor="start" x="114.9502" y="-98.9" font-family="Arial" font-size="14.00" fill="#666666">[enum(&#39;first&#39;,&#39;second&#39;)]</text>
<polygon fill="none" stroke="#000000" points="46.5,-57.5 46.5,-87.5 621.5,-87.5 621.5,-57.5 46.5,-57.5"/>
<text text-anchor="start" x="53.5" y="-68.9" font-family="Arial" font-size="14.00" fill="#000000">year </text>
<text text-anchor="start" x="84.6164" y="-68.9" font-family="Arial" font-size="14.00" fill="#666666">[smallint unsigned]</text>
<polygon fill="none" stroke="#000000" stroke-width="3" points="44.5,-56.5 44.5,-244.5 622.5,-244.5 622.5,-56.5 44.5,-56.5"/>
</g>
<!-- course_schedules -->
<g id="node2" class="node">
<title>course_schedules</title>
<polygon fill="#efefef" stroke="transparent" points="446.5,-439.5 446.5,-474.5 702.5,-474.5 702.5,-439.5 446.5,-439.5"/>
<polygon fill="none" stroke="#000000" points="446.5,-439.5 446.5,-474.5 702.5,-474.5 702.5,-439.5 446.5,-439.5"/>
<text text-anchor="start" x="453.352" y="-452.3" font-family="Arial Bold" font-size="18.00" fill="#000000">course_schedules</text>
<text text-anchor="start" x="598.3942" y="-452.3" font-family="Arial" font-size="14.00" fill="#000000"> </text>
<text text-anchor="start" x="602.2848" y="-452.3" font-family="Arial" font-size="14.00" fill="#666666">[BASE TABLE]</text>
<polygon fill="none" stroke="#000000" points="446.5,-409.5 446.5,-439.5 702.5,-439.5 702.5,-409.5 446.5,-409.5"/>
<text text-anchor="start" x="453.5" y="-420.9" font-family="Arial" font-size="14.00" fill="#000000">course_id </text>
<text text-anchor="start" x="518.0708" y="-420.9" font-family="Arial" font-size="14.00" fill="#666666">[char(36)]</text>
<polygon fill="none" stroke="#000000" points="446.5,-379.5 446.5,-409.5 702.5,-409.5 702.5,-379.5 446.5,-379.5"/>
<text text-anchor="start" x="453.5" y="-390.9" font-family="Arial" font-size="14.00" fill="#000000">schedule_id </text>
<text text-anchor="start" x="532.082" y="-390.9" font-family="Arial" font-size="14.00" fill="#666666">[char(36)]</text>
</g>
<!-- course_schedules&#45;&gt;schedules -->
<g id="edge1" class="edge">
<title>course_schedules:schedule_id&#45;&gt;schedules:id</title>
<path fill="none" stroke="#000000" d="M436.6644,-391.7364C424.3912,-382.7542 433.5452,-353.9866 446.5,-337 495.4078,-272.8711 572.5922,-353.1289 621.5,-289 647.5086,-254.897 664.3889,-192.5 621.5,-192.5"/>
<polygon fill="#000000" stroke="#000000" points="436.8728,-391.7949 445.2827,-398.8322 441.6864,-393.1474 446.5,-394.5 446.5,-394.5 446.5,-394.5 441.6864,-393.1474 447.7173,-390.1678 436.8728,-391.7949 436.8728,-391.7949"/>
<text text-anchor="start" x="172.878" y="-404.5" font-family="Arial" font-size="10.00" fill="#000000">FOREIGN KEY (schedule_id) REFERENCES schedules (id)</text>
</g>
<!-- courses -->
<g id="node3" class="node">
<title>courses</title>
<polygon fill="#efefef" stroke="transparent" points="728.5,-222.5 728.5,-257.5 902.5,-257.5 902.5,-222.5 728.5,-222.5"/>
<polygon fill="none" stroke="#000000" points="728.5,-222.5 728.5,-257.5 902.5,-257.5 902.5,-222.5 728.5,-222.5"/>
<text text-anchor="start" x="735.3677" y="-235.3" font-family="Arial Bold" font-size="18.00" fill="#000000">courses</text>
<text text-anchor="start" x="798.3785" y="-235.3" font-family="Arial" font-size="14.00" fill="#000000"> </text>
<text text-anchor="start" x="802.2691" y="-235.3" font-family="Arial" font-size="14.00" fill="#666666">[BASE TABLE]</text>
<polygon fill="none" stroke="#000000" points="728.5,-192.5 728.5,-222.5 902.5,-222.5 902.5,-192.5 728.5,-192.5"/>
<text text-anchor="start" x="735.5" y="-203.9" font-family="Arial" font-size="14.00" fill="#000000">id </text>
<text text-anchor="start" x="750.2798" y="-203.9" font-family="Arial" font-size="14.00" fill="#666666">[char(36)]</text>
<polygon fill="none" stroke="#000000" points="728.5,-162.5 728.5,-192.5 902.5,-192.5 902.5,-162.5 728.5,-162.5"/>
<text text-anchor="start" x="735.5" y="-173.9" font-family="Arial" font-size="14.00" fill="#000000">name </text>
<text text-anchor="start" x="774.399" y="-173.9" font-family="Arial" font-size="14.00" fill="#666666">[varchar(255)]</text>
<polygon fill="none" stroke="#000000" points="728.5,-132.5 728.5,-162.5 902.5,-162.5 902.5,-132.5 728.5,-132.5"/>
<text text-anchor="start" x="735.5" y="-143.9" font-family="Arial" font-size="14.00" fill="#000000">description </text>
<text text-anchor="start" x="807.068" y="-143.9" font-family="Arial" font-size="14.00" fill="#666666">[text]</text>
<polygon fill="none" stroke="#000000" points="728.5,-102.5 728.5,-132.5 902.5,-132.5 902.5,-102.5 728.5,-102.5"/>
<text text-anchor="start" x="735.5" y="-113.9" font-family="Arial" font-size="14.00" fill="#000000">credit </text>
<text text-anchor="start" x="773.6136" y="-113.9" font-family="Arial" font-size="14.00" fill="#666666">[tinyint unsigned]</text>
<polygon fill="none" stroke="#000000" points="728.5,-72.5 728.5,-102.5 902.5,-102.5 902.5,-72.5 728.5,-72.5"/>
<text text-anchor="start" x="735.5" y="-83.9" font-family="Arial" font-size="14.00" fill="#000000">classroom </text>
<text text-anchor="start" x="803.1662" y="-83.9" font-family="Arial" font-size="14.00" fill="#666666">[varchar(255)]</text>
<polygon fill="none" stroke="#000000" points="728.5,-42.5 728.5,-72.5 902.5,-72.5 902.5,-42.5 728.5,-42.5"/>
<text text-anchor="start" x="735.5" y="-53.9" font-family="Arial" font-size="14.00" fill="#000000">capacity </text>
<text text-anchor="start" x="790.7356" y="-53.9" font-family="Arial" font-size="14.00" fill="#666666">[int unsigned]</text>
</g>
<!-- course_schedules&#45;&gt;courses -->
<g id="edge2" class="edge">
<title>course_schedules:course_id&#45;&gt;courses:id</title>
<path fill="none" stroke="#000000" d="M712.6996,-423.5325C786.8932,-407.878 635.1601,-207.5 728.5,-207.5"/>
<polygon fill="#000000" stroke="#000000" points="712.4553,-423.5556 702.075,-420.0201 707.4777,-424.0278 702.5,-424.5 702.5,-424.5 702.5,-424.5 707.4777,-424.0278 702.925,-428.9799 712.4553,-423.5556 712.4553,-423.5556"/>
<text text-anchor="start" x="709.886" y="-434.5" font-family="Arial" font-size="10.00" fill="#000000">FOREIGN KEY (course_id) REFERENCES courses (id)</text>
</g>
</g>
</svg>
