<?xml version="1.0" encoding="UTF-8" standalone="no"?>
<!DOCTYPE svg PUBLIC "-//W3C//DTD SVG 1.1//EN"
 "http://www.w3.org/Graphics/SVG/1.1/DTD/svg11.dtd">
<!-- Generated by graphviz version 2.40.1 (20161225.0304)
 -->
<!-- Title: isucholar Pages: 1 -->
<svg width="1489pt" height="1500pt"
 viewBox="0.00 0.00 1489.00 1500.00" xmlns="http://www.w3.org/2000/svg" xmlns:xlink="http://www.w3.org/1999/xlink">
<g id="graph0" class="graph" transform="scale(1 1) rotate(0) translate(4 1496)">
<title>isucholar</title>
<polygon fill="#ffffff" stroke="transparent" points="-4,4 -4,-1496 1485,-1496 1485,4 -4,4"/>
<!-- announcements -->
<g id="node1" class="node">
<title>announcements</title>
<polygon fill="#efefef" stroke="transparent" points="874,-1046.5 874,-1081.5 1113,-1081.5 1113,-1046.5 874,-1046.5"/>
<polygon fill="none" stroke="#000000" points="874,-1046.5 874,-1081.5 1113,-1081.5 1113,-1046.5 874,-1046.5"/>
<text text-anchor="start" x="880.848" y="-1059.3" font-family="Arial Bold" font-size="18.00" fill="#000000">announcements</text>
<text text-anchor="start" x="1008.8982" y="-1059.3" font-family="Arial" font-size="14.00" fill="#000000"> </text>
<text text-anchor="start" x="1012.7888" y="-1059.3" font-family="Arial" font-size="14.00" fill="#666666">[BASE TABLE]</text>
<polygon fill="none" stroke="#000000" points="874,-1016.5 874,-1046.5 1113,-1046.5 1113,-1016.5 874,-1016.5"/>
<text text-anchor="start" x="881" y="-1027.9" font-family="Arial" font-size="14.00" fill="#000000">id </text>
<text text-anchor="start" x="895.7798" y="-1027.9" font-family="Arial" font-size="14.00" fill="#666666">[char(36)]</text>
<polygon fill="none" stroke="#000000" points="874,-986.5 874,-1016.5 1113,-1016.5 1113,-986.5 874,-986.5"/>
<text text-anchor="start" x="881" y="-997.9" font-family="Arial" font-size="14.00" fill="#000000">course_id </text>
<text text-anchor="start" x="945.5708" y="-997.9" font-family="Arial" font-size="14.00" fill="#666666">[char(36)]</text>
<polygon fill="none" stroke="#000000" points="874,-956.5 874,-986.5 1113,-986.5 1113,-956.5 874,-956.5"/>
<text text-anchor="start" x="881" y="-967.9" font-family="Arial" font-size="14.00" fill="#000000">title </text>
<text text-anchor="start" x="906.6676" y="-967.9" font-family="Arial" font-size="14.00" fill="#666666">[varchar(255)]</text>
<polygon fill="none" stroke="#000000" points="874,-926.5 874,-956.5 1113,-956.5 1113,-926.5 874,-926.5"/>
<text text-anchor="start" x="881" y="-937.9" font-family="Arial" font-size="14.00" fill="#000000">message </text>
<text text-anchor="start" x="941.6816" y="-937.9" font-family="Arial" font-size="14.00" fill="#666666">[text]</text>
<polygon fill="none" stroke="#000000" points="874,-896.5 874,-926.5 1113,-926.5 1113,-896.5 874,-896.5"/>
<text text-anchor="start" x="881" y="-907.9" font-family="Arial" font-size="14.00" fill="#000000">created_at </text>
<text text-anchor="start" x="951.028" y="-907.9" font-family="Arial" font-size="14.00" fill="#666666">[datetime]</text>
</g>
<!-- courses -->
<g id="node3" class="node">
<title>courses</title>
<polygon fill="#efefef" stroke="transparent" points="395,-709.5 395,-744.5 970,-744.5 970,-709.5 395,-709.5"/>
<polygon fill="none" stroke="#000000" points="395,-709.5 395,-744.5 970,-744.5 970,-709.5 395,-709.5"/>
<text text-anchor="start" x="602.3677" y="-722.3" font-family="Arial Bold" font-size="18.00" fill="#000000">courses</text>
<text text-anchor="start" x="665.3785" y="-722.3" font-family="Arial" font-size="14.00" fill="#000000"> </text>
<text text-anchor="start" x="669.2691" y="-722.3" font-family="Arial" font-size="14.00" fill="#666666">[BASE TABLE]</text>
<polygon fill="none" stroke="#000000" points="395,-679.5 395,-709.5 970,-709.5 970,-679.5 395,-679.5"/>
<text text-anchor="start" x="402" y="-690.9" font-family="Arial" font-size="14.00" fill="#000000">id </text>
<text text-anchor="start" x="416.7798" y="-690.9" font-family="Arial" font-size="14.00" fill="#666666">[char(36)]</text>
<polygon fill="none" stroke="#000000" points="395,-649.5 395,-679.5 970,-679.5 970,-649.5 395,-649.5"/>
<text text-anchor="start" x="402" y="-660.9" font-family="Arial" font-size="14.00" fill="#000000">code </text>
<text text-anchor="start" x="436.2384" y="-660.9" font-family="Arial" font-size="14.00" fill="#666666">[varchar(255)]</text>
<polygon fill="none" stroke="#000000" points="395,-619.5 395,-649.5 970,-649.5 970,-619.5 395,-619.5"/>
<text text-anchor="start" x="402" y="-630.9" font-family="Arial" font-size="14.00" fill="#000000">type </text>
<text text-anchor="start" x="432.3464" y="-630.9" font-family="Arial" font-size="14.00" fill="#666666">[enum(&#39;liberal&#45;arts&#39;,&#39;major&#45;subjects&#39;)]</text>
<polygon fill="none" stroke="#000000" points="395,-589.5 395,-619.5 970,-619.5 970,-589.5 395,-589.5"/>
<text text-anchor="start" x="402" y="-600.9" font-family="Arial" font-size="14.00" fill="#000000">name </text>
<text text-anchor="start" x="440.899" y="-600.9" font-family="Arial" font-size="14.00" fill="#666666">[varchar(255)]</text>
<polygon fill="none" stroke="#000000" points="395,-559.5 395,-589.5 970,-589.5 970,-559.5 395,-559.5"/>
<text text-anchor="start" x="402" y="-570.9" font-family="Arial" font-size="14.00" fill="#000000">description </text>
<text text-anchor="start" x="473.568" y="-570.9" font-family="Arial" font-size="14.00" fill="#666666">[text]</text>
<polygon fill="none" stroke="#000000" points="395,-529.5 395,-559.5 970,-559.5 970,-529.5 395,-529.5"/>
<text text-anchor="start" x="402" y="-540.9" font-family="Arial" font-size="14.00" fill="#000000">credit </text>
<text text-anchor="start" x="440.1136" y="-540.9" font-family="Arial" font-size="14.00" fill="#666666">[tinyint unsigned]</text>
<polygon fill="none" stroke="#000000" points="395,-499.5 395,-529.5 970,-529.5 970,-499.5 395,-499.5"/>
<text text-anchor="start" x="402" y="-510.9" font-family="Arial" font-size="14.00" fill="#000000">period </text>
<text text-anchor="start" x="444.7882" y="-510.9" font-family="Arial" font-size="14.00" fill="#666666">[tinyint unsigned]</text>
<polygon fill="none" stroke="#000000" points="395,-469.5 395,-499.5 970,-499.5 970,-469.5 395,-469.5"/>
<text text-anchor="start" x="401.7762" y="-480.9" font-family="Arial" font-size="14.00" fill="#000000">day_of_week </text>
<text text-anchor="start" x="488.1422" y="-480.9" font-family="Arial" font-size="14.00" fill="#666666">[enum(&#39;sunday&#39;,&#39;monday&#39;,&#39;tuesday&#39;,&#39;wednesday&#39;,&#39;thursday&#39;,&#39;friday&#39;,&#39;saturday&#39;)]</text>
<polygon fill="none" stroke="#000000" points="395,-439.5 395,-469.5 970,-469.5 970,-439.5 395,-439.5"/>
<text text-anchor="start" x="402" y="-450.9" font-family="Arial" font-size="14.00" fill="#000000">teacher_id </text>
<text text-anchor="start" x="471.244" y="-450.9" font-family="Arial" font-size="14.00" fill="#666666">[char(36)]</text>
<polygon fill="none" stroke="#000000" points="395,-409.5 395,-439.5 970,-439.5 970,-409.5 395,-409.5"/>
<text text-anchor="start" x="402" y="-420.9" font-family="Arial" font-size="14.00" fill="#000000">keywords </text>
<text text-anchor="start" x="465.0056" y="-420.9" font-family="Arial" font-size="14.00" fill="#666666">[text]</text>
<polygon fill="none" stroke="#000000" points="395,-379.5 395,-409.5 970,-409.5 970,-379.5 395,-379.5"/>
<text text-anchor="start" x="402" y="-390.9" font-family="Arial" font-size="14.00" fill="#000000">status </text>
<text text-anchor="start" x="443.237" y="-390.9" font-family="Arial" font-size="14.00" fill="#666666">[enum(&#39;registration&#39;,&#39;in&#45;progress&#39;,&#39;closed&#39;)]</text>
<polygon fill="none" stroke="#000000" points="395,-349.5 395,-379.5 970,-379.5 970,-349.5 395,-349.5"/>
<text text-anchor="start" x="402" y="-360.9" font-family="Arial" font-size="14.00" fill="#000000">created_at </text>
<text text-anchor="start" x="472.028" y="-360.9" font-family="Arial" font-size="14.00" fill="#666666">[datetime]</text>
</g>
<!-- announcements&#45;&gt;courses -->
<g id="edge1" class="edge">
<title>announcements:course_id&#45;&gt;courses:id</title>
<path fill="none" stroke="#000000" d="M863.8097,-1000.6608C812.3989,-991.4643 845.2093,-908.7319 874,-854 898.1049,-808.1759 945.8951,-833.8241 970,-788 989.3461,-751.2224 1011.5556,-694.5 970,-694.5"/>
<polygon fill="#000000" stroke="#000000" points="864.0337,-1000.6791 873.6306,-1005.9848 869.0169,-1001.0896 874,-1001.5 874,-1001.5 874,-1001.5 869.0169,-1001.0896 874.3694,-997.0152 864.0337,-1000.6791 864.0337,-1000.6791"/>
<text text-anchor="start" x="881.386" y="-1011.5" font-family="Arial" font-size="10.00" fill="#000000">FOREIGN KEY (course_id) REFERENCES courses (id)</text>
</g>
<!-- classes -->
<g id="node2" class="node">
<title>classes</title>
<polygon fill="#efefef" stroke="transparent" points="553,-1076.5 553,-1111.5 770,-1111.5 770,-1076.5 553,-1076.5"/>
<polygon fill="none" stroke="#000000" points="553,-1076.5 553,-1111.5 770,-1111.5 770,-1076.5 553,-1076.5"/>
<text text-anchor="start" x="582.8698" y="-1089.3" font-family="Arial Bold" font-size="18.00" fill="#000000">classes</text>
<text text-anchor="start" x="642.8764" y="-1089.3" font-family="Arial" font-size="14.00" fill="#000000"> </text>
<text text-anchor="start" x="646.767" y="-1089.3" font-family="Arial" font-size="14.00" fill="#666666">[BASE TABLE]</text>
<polygon fill="none" stroke="#000000" points="553,-1046.5 553,-1076.5 770,-1076.5 770,-1046.5 553,-1046.5"/>
<text text-anchor="start" x="560" y="-1057.9" font-family="Arial" font-size="14.00" fill="#000000">id </text>
<text text-anchor="start" x="574.7798" y="-1057.9" font-family="Arial" font-size="14.00" fill="#666666">[char(36)]</text>
<polygon fill="none" stroke="#000000" points="553,-1016.5 553,-1046.5 770,-1046.5 770,-1016.5 553,-1016.5"/>
<text text-anchor="start" x="560" y="-1027.9" font-family="Arial" font-size="14.00" fill="#000000">course_id </text>
<text text-anchor="start" x="624.5708" y="-1027.9" font-family="Arial" font-size="14.00" fill="#666666">[char(36)]</text>
<polygon fill="none" stroke="#000000" points="553,-986.5 553,-1016.5 770,-1016.5 770,-986.5 553,-986.5"/>
<text text-anchor="start" x="560" y="-997.9" font-family="Arial" font-size="14.00" fill="#000000">part </text>
<text text-anchor="start" x="588.007" y="-997.9" font-family="Arial" font-size="14.00" fill="#666666">[tinyint unsigned]</text>
<polygon fill="none" stroke="#000000" points="553,-956.5 553,-986.5 770,-986.5 770,-956.5 553,-956.5"/>
<text text-anchor="start" x="560" y="-967.9" font-family="Arial" font-size="14.00" fill="#000000">title </text>
<text text-anchor="start" x="585.6676" y="-967.9" font-family="Arial" font-size="14.00" fill="#666666">[varchar(255)]</text>
<polygon fill="none" stroke="#000000" points="553,-926.5 553,-956.5 770,-956.5 770,-926.5 553,-926.5"/>
<text text-anchor="start" x="560" y="-937.9" font-family="Arial" font-size="14.00" fill="#000000">description </text>
<text text-anchor="start" x="631.568" y="-937.9" font-family="Arial" font-size="14.00" fill="#666666">[text]</text>
<polygon fill="none" stroke="#000000" points="553,-896.5 553,-926.5 770,-926.5 770,-896.5 553,-896.5"/>
<text text-anchor="start" x="560" y="-907.9" font-family="Arial" font-size="14.00" fill="#000000">created_at </text>
<text text-anchor="start" x="630.028" y="-907.9" font-family="Arial" font-size="14.00" fill="#666666">[datetime]</text>
<polygon fill="none" stroke="#000000" points="553,-866.5 553,-896.5 770,-896.5 770,-866.5 553,-866.5"/>
<text text-anchor="start" x="559.9762" y="-877.9" font-family="Arial" font-size="14.00" fill="#000000">submission_closed_at </text>
<text text-anchor="start" x="701.5638" y="-877.9" font-family="Arial" font-size="14.00" fill="#666666">[datetime]</text>
</g>
<!-- classes&#45;&gt;courses -->
<g id="edge2" class="edge">
<title>classes:course_id&#45;&gt;courses:id</title>
<path fill="none" stroke="#000000" d="M779.708,-1028.4745C813.6542,-1005.2605 798.5859,-855.4616 770,-824 713.703,-762.0396 451.297,-849.9604 395,-788 367.055,-757.2438 353.4444,-694.5 395,-694.5"/>
<polygon fill="#000000" stroke="#000000" points="779.5471,-1028.5246 768.6611,-1027.2038 774.7736,-1030.0123 770,-1031.5 770,-1031.5 770,-1031.5 774.7736,-1030.0123 771.3389,-1035.7962 779.5471,-1028.5246 779.5471,-1028.5246"/>
<text text-anchor="start" x="777.386" y="-1041.5" font-family="Arial" font-size="10.00" fill="#000000">FOREIGN KEY (course_id) REFERENCES courses (id)</text>
</g>
<!-- users -->
<g id="node7" class="node">
<title>users</title>
<polygon fill="#efefef" stroke="transparent" points="400,-192.5 400,-227.5 605,-227.5 605,-192.5 400,-192.5"/>
<polygon fill="none" stroke="#000000" points="400,-192.5 400,-227.5 605,-227.5 605,-192.5 400,-192.5"/>
<text text-anchor="start" x="431.8708" y="-205.3" font-family="Arial Bold" font-size="18.00" fill="#000000">users</text>
<text text-anchor="start" x="475.8754" y="-205.3" font-family="Arial" font-size="14.00" fill="#000000"> </text>
<text text-anchor="start" x="479.766" y="-205.3" font-family="Arial" font-size="14.00" fill="#666666">[BASE TABLE]</text>
<polygon fill="none" stroke="#000000" points="400,-162.5 400,-192.5 605,-192.5 605,-162.5 400,-162.5"/>
<text text-anchor="start" x="407" y="-173.9" font-family="Arial" font-size="14.00" fill="#000000">id </text>
<text text-anchor="start" x="421.7798" y="-173.9" font-family="Arial" font-size="14.00" fill="#666666">[char(36)]</text>
<polygon fill="none" stroke="#000000" points="400,-132.5 400,-162.5 605,-162.5 605,-132.5 400,-132.5"/>
<text text-anchor="start" x="407" y="-143.9" font-family="Arial" font-size="14.00" fill="#000000">code </text>
<text text-anchor="start" x="441.2384" y="-143.9" font-family="Arial" font-size="14.00" fill="#666666">[char(8)]</text>
<polygon fill="none" stroke="#000000" points="400,-102.5 400,-132.5 605,-132.5 605,-102.5 400,-102.5"/>
<text text-anchor="start" x="407" y="-113.9" font-family="Arial" font-size="14.00" fill="#000000">name </text>
<text text-anchor="start" x="445.899" y="-113.9" font-family="Arial" font-size="14.00" fill="#666666">[varchar(255)]</text>
<polygon fill="none" stroke="#000000" points="400,-72.5 400,-102.5 605,-102.5 605,-72.5 400,-72.5"/>
<text text-anchor="start" x="407" y="-83.9" font-family="Arial" font-size="14.00" fill="#000000">hashed_password </text>
<text text-anchor="start" x="524.4838" y="-83.9" font-family="Arial" font-size="14.00" fill="#666666">[binary(60)]</text>
<polygon fill="none" stroke="#000000" points="400,-42.5 400,-72.5 605,-72.5 605,-42.5 400,-42.5"/>
<text text-anchor="start" x="406.8443" y="-53.9" font-family="Arial" font-size="14.00" fill="#000000">type </text>
<text text-anchor="start" x="437.1907" y="-53.9" font-family="Arial" font-size="14.00" fill="#666666">[enum(&#39;student&#39;,&#39;teacher&#39;)]</text>
</g>
<!-- courses&#45;&gt;users -->
<g id="edge3" class="edge">
<title>courses:teacher_id&#45;&gt;users:id</title>
<path fill="none" stroke="#000000" d="M385.0306,-453.6499C332.0494,-443.9902 355.0534,-354.3773 395,-307 456.0409,-234.6045 543.9591,-343.3955 605,-271 631.787,-239.2302 646.5556,-177.5 605,-177.5"/>
<polygon fill="#000000" stroke="#000000" points="385.0362,-453.6503 394.6176,-458.9837 390.0181,-454.0752 395,-454.5 395,-454.5 395,-454.5 390.0181,-454.0752 395.3824,-450.0163 385.0362,-453.6503 385.0362,-453.6503"/>
<text text-anchor="start" x="147.9965" y="-464.5" font-family="Arial" font-size="10.00" fill="#000000">FOREIGN KEY (teacher_id) REFERENCES users (id)</text>
</g>
<!-- registrations -->
<g id="node4" class="node">
<title>registrations</title>
<polygon fill="#efefef" stroke="transparent" points="240,-1016.5 240,-1051.5 449,-1051.5 449,-1016.5 240,-1016.5"/>
<polygon fill="none" stroke="#000000" points="240,-1016.5 240,-1051.5 449,-1051.5 449,-1016.5 240,-1016.5"/>
<text text-anchor="start" x="246.869" y="-1029.3" font-family="Arial Bold" font-size="18.00" fill="#000000">registrations</text>
<text text-anchor="start" x="344.8772" y="-1029.3" font-family="Arial" font-size="14.00" fill="#000000"> </text>
<text text-anchor="start" x="348.7678" y="-1029.3" font-family="Arial" font-size="14.00" fill="#666666">[BASE TABLE]</text>
<polygon fill="none" stroke="#000000" points="240,-986.5 240,-1016.5 449,-1016.5 449,-986.5 240,-986.5"/>
<text text-anchor="start" x="247" y="-997.9" font-family="Arial" font-size="14.00" fill="#000000">course_id </text>
<text text-anchor="start" x="311.5708" y="-997.9" font-family="Arial" font-size="14.00" fill="#666666">[char(36)]</text>
<polygon fill="none" stroke="#000000" points="240,-956.5 240,-986.5 449,-986.5 449,-956.5 240,-956.5"/>
<text text-anchor="start" x="247" y="-967.9" font-family="Arial" font-size="14.00" fill="#000000">user_id </text>
<text text-anchor="start" x="296.7882" y="-967.9" font-family="Arial" font-size="14.00" fill="#666666">[char(36)]</text>
<polygon fill="none" stroke="#000000" points="240,-926.5 240,-956.5 449,-956.5 449,-926.5 240,-926.5"/>
<text text-anchor="start" x="247" y="-937.9" font-family="Arial" font-size="14.00" fill="#000000">created_at </text>
<text text-anchor="start" x="317.028" y="-937.9" font-family="Arial" font-size="14.00" fill="#666666">[datetime]</text>
</g>
<!-- registrations&#45;&gt;courses -->
<g id="edge4" class="edge">
<title>registrations:course_id&#45;&gt;courses:id</title>
<path fill="none" stroke="#000000" d="M459.0359,-1000.871C548.1412,-988.7925 399.8711,-806.5956 395,-788 384.4698,-747.8008 353.4444,-694.5 395,-694.5"/>
<polygon fill="#000000" stroke="#000000" points="458.9804,-1000.8744 448.7185,-997.0088 453.9902,-1001.1872 449,-1001.5 449,-1001.5 449,-1001.5 453.9902,-1001.1872 449.2815,-1005.9912 458.9804,-1000.8744 458.9804,-1000.8744"/>
<text text-anchor="start" x="456.386" y="-1011.5" font-family="Arial" font-size="10.00" fill="#000000">FOREIGN KEY (course_id) REFERENCES courses (id)</text>
</g>
<!-- registrations&#45;&gt;users -->
<g id="edge5" class="edge">
<title>registrations:user_id&#45;&gt;users:id</title>
<path fill="none" stroke="#000000" d="M230.579,-967.96C162.3976,-910.6803 313.5198,-177.5 400,-177.5"/>
<polygon fill="#000000" stroke="#000000" points="230.639,-967.9825 238.4171,-975.7124 235.3195,-969.7413 240,-971.5 240,-971.5 240,-971.5 235.3195,-969.7413 241.5829,-967.2876 230.639,-967.9825 230.639,-967.9825"/>
<text text-anchor="start" x="6.945" y="-981.5" font-family="Arial" font-size="10.00" fill="#000000">FOREIGN KEY (user_id) REFERENCES users (id)</text>
</g>
<!-- submissions -->
<g id="node5" class="node">
<title>submissions</title>
<polygon fill="#efefef" stroke="transparent" points="294,-1413.5 294,-1448.5 504,-1448.5 504,-1413.5 294,-1413.5"/>
<polygon fill="none" stroke="#000000" points="294,-1413.5 294,-1448.5 504,-1448.5 504,-1413.5 294,-1413.5"/>
<text text-anchor="start" x="300.8704" y="-1426.3" font-family="Arial Bold" font-size="18.00" fill="#000000">submissions</text>
<text text-anchor="start" x="399.8758" y="-1426.3" font-family="Arial" font-size="14.00" fill="#000000"> </text>
<text text-anchor="start" x="403.7664" y="-1426.3" font-family="Arial" font-size="14.00" fill="#666666">[BASE TABLE]</text>
<polygon fill="none" stroke="#000000" points="294,-1383.5 294,-1413.5 504,-1413.5 504,-1383.5 294,-1383.5"/>
<text text-anchor="start" x="301" y="-1394.9" font-family="Arial" font-size="14.00" fill="#000000">id </text>
<text text-anchor="start" x="315.7798" y="-1394.9" font-family="Arial" font-size="14.00" fill="#666666">[char(36)]</text>
<polygon fill="none" stroke="#000000" points="294,-1353.5 294,-1383.5 504,-1383.5 504,-1353.5 294,-1353.5"/>
<text text-anchor="start" x="301" y="-1364.9" font-family="Arial" font-size="14.00" fill="#000000">user_id </text>
<text text-anchor="start" x="350.7882" y="-1364.9" font-family="Arial" font-size="14.00" fill="#666666">[char(36)]</text>
<polygon fill="none" stroke="#000000" points="294,-1323.5 294,-1353.5 504,-1353.5 504,-1323.5 294,-1323.5"/>
<text text-anchor="start" x="301" y="-1334.9" font-family="Arial" font-size="14.00" fill="#000000">class_id </text>
<text text-anchor="start" x="355.4516" y="-1334.9" font-family="Arial" font-size="14.00" fill="#666666">[char(36)]</text>
<polygon fill="none" stroke="#000000" points="294,-1293.5 294,-1323.5 504,-1323.5 504,-1293.5 294,-1293.5"/>
<text text-anchor="start" x="301" y="-1304.9" font-family="Arial" font-size="14.00" fill="#000000">file_name </text>
<text text-anchor="start" x="365.568" y="-1304.9" font-family="Arial" font-size="14.00" fill="#666666">[varchar(255)]</text>
<polygon fill="none" stroke="#000000" points="294,-1263.5 294,-1293.5 504,-1293.5 504,-1263.5 294,-1263.5"/>
<text text-anchor="start" x="301" y="-1274.9" font-family="Arial" font-size="14.00" fill="#000000">score </text>
<text text-anchor="start" x="339.1164" y="-1274.9" font-family="Arial" font-size="14.00" fill="#666666">[tinyint unsigned]</text>
<polygon fill="none" stroke="#000000" points="294,-1233.5 294,-1263.5 504,-1263.5 504,-1233.5 294,-1233.5"/>
<text text-anchor="start" x="301" y="-1244.9" font-family="Arial" font-size="14.00" fill="#000000">created_at </text>
<text text-anchor="start" x="371.028" y="-1244.9" font-family="Arial" font-size="14.00" fill="#666666">[datetime]</text>
</g>
<!-- submissions&#45;&gt;classes -->
<g id="edge6" class="edge">
<title>submissions:class_id&#45;&gt;classes:id</title>
<path fill="none" stroke="#000000" d="M514.1651,-1337.8007C617.5224,-1322.5073 431.6403,-1061.5 553,-1061.5"/>
<polygon fill="#000000" stroke="#000000" points="513.9764,-1337.8136 503.6911,-1334.0106 508.9882,-1338.1568 504,-1338.5 504,-1338.5 504,-1338.5 508.9882,-1338.1568 504.3089,-1342.9894 513.9764,-1337.8136 513.9764,-1337.8136"/>
<text text-anchor="start" x="510.8345" y="-1348.5" font-family="Arial" font-size="10.00" fill="#000000">FOREIGN KEY (class_id) REFERENCES classes (id)</text>
</g>
<!-- submissions&#45;&gt;users -->
<g id="edge7" class="edge">
<title>submissions:user_id&#45;&gt;users:id</title>
<path fill="none" stroke="#000000" d="M283.904,-1368.0712C5.8342,-1344.0587 209.088,-319.451 216,-307 264.5369,-219.5676 299.9988,-177.5 400,-177.5"/>
<polygon fill="#000000" stroke="#000000" points="284.009,-1368.0756 293.809,-1372.9959 289.0045,-1368.2878 294,-1368.5 294,-1368.5 294,-1368.5 289.0045,-1368.2878 294.191,-1364.0041 284.009,-1368.0756 284.009,-1368.0756"/>
<text text-anchor="start" x="60.945" y="-1378.5" font-family="Arial" font-size="10.00" fill="#000000">FOREIGN KEY (user_id) REFERENCES users (id)</text>
</g>
<!-- unread_announcements -->
<g id="node6" class="node">
<title>unread_announcements</title>
<polygon fill="#efefef" stroke="transparent" points="936,-1383.5 936,-1418.5 1241,-1418.5 1241,-1383.5 936,-1383.5"/>
<polygon fill="none" stroke="#000000" points="936,-1383.5 936,-1418.5 1241,-1418.5 1241,-1383.5 936,-1383.5"/>
<text text-anchor="start" x="942.8333" y="-1396.3" font-family="Arial Bold" font-size="18.00" fill="#000000">unread_announcements</text>
<text text-anchor="start" x="1136.9129" y="-1396.3" font-family="Arial" font-size="14.00" fill="#000000"> </text>
<text text-anchor="start" x="1140.8035" y="-1396.3" font-family="Arial" font-size="14.00" fill="#666666">[BASE TABLE]</text>
<polygon fill="none" stroke="#000000" points="936,-1353.5 936,-1383.5 1241,-1383.5 1241,-1353.5 936,-1353.5"/>
<text text-anchor="start" x="943" y="-1364.9" font-family="Arial" font-size="14.00" fill="#000000">announcement_id </text>
<text text-anchor="start" x="1058.157" y="-1364.9" font-family="Arial" font-size="14.00" fill="#666666">[char(36)]</text>
<polygon fill="none" stroke="#000000" points="936,-1323.5 936,-1353.5 1241,-1353.5 1241,-1323.5 936,-1323.5"/>
<text text-anchor="start" x="943" y="-1334.9" font-family="Arial" font-size="14.00" fill="#000000">user_id </text>
<text text-anchor="start" x="992.7882" y="-1334.9" font-family="Arial" font-size="14.00" fill="#666666">[char(36)]</text>
<polygon fill="none" stroke="#000000" points="936,-1293.5 936,-1323.5 1241,-1323.5 1241,-1293.5 936,-1293.5"/>
<text text-anchor="start" x="943" y="-1304.9" font-family="Arial" font-size="14.00" fill="#000000">created_at </text>
<text text-anchor="start" x="1013.028" y="-1304.9" font-family="Arial" font-size="14.00" fill="#666666">[datetime]</text>
<polygon fill="none" stroke="#000000" points="936,-1263.5 936,-1293.5 1241,-1293.5 1241,-1263.5 936,-1263.5"/>
<text text-anchor="start" x="943" y="-1274.9" font-family="Arial" font-size="14.00" fill="#000000">deleted_at </text>
<text text-anchor="start" x="1012.2566" y="-1274.9" font-family="Arial" font-size="14.00" fill="#666666">[datetime]</text>
</g>
<!-- unread_announcements&#45;&gt;announcements -->
<g id="edge8" class="edge">
<title>unread_announcements:announcement_id&#45;&gt;announcements:id</title>
<path fill="none" stroke="#000000" d="M925.7824,-1367.6454C874.0771,-1358.2841 904.3684,-1274.1407 936,-1221 981.7742,-1144.1 1067.2258,-1201.9 1113,-1125 1134.2551,-1089.2917 1154.5556,-1031.5 1113,-1031.5"/>
<polygon fill="#000000" stroke="#000000" points="926.0348,-1367.6665 935.6249,-1372.9843 931.0174,-1368.0832 936,-1368.5 936,-1368.5 936,-1368.5 931.0174,-1368.0832 936.3751,-1364.0157 926.0348,-1367.6665 926.0348,-1367.6665"/>
<text text-anchor="start" x="610.253" y="-1378.5" font-family="Arial" font-size="10.00" fill="#000000">FOREIGN KEY (announcement_id) REFERENCES announcements (id)</text>
</g>
<!-- unread_announcements&#45;&gt;users -->
<g id="edge9" class="edge">
<title>unread_announcements:user_id&#45;&gt;users:id</title>
<path fill="none" stroke="#000000" d="M1250.6045,-1335.2692C1331.2221,-1273.2515 1051.865,-338.8097 1021,-307 953.5775,-237.5138 701.8201,-177.5 605,-177.5"/>
<polygon fill="#000000" stroke="#000000" points="1250.4781,-1335.3116 1239.5652,-1334.2348 1245.7391,-1336.9058 1241,-1338.5 1241,-1338.5 1241,-1338.5 1245.7391,-1336.9058 1242.4348,-1342.7652 1250.4781,-1335.3116 1250.4781,-1335.3116"/>
<text text-anchor="start" x="1247.945" y="-1348.5" font-family="Arial" font-size="10.00" fill="#000000">FOREIGN KEY (user_id) REFERENCES users (id)</text>
</g>
</g>
</svg>
