<?xml version="1.0" encoding="UTF-8" standalone="no"?>
<!DOCTYPE svg PUBLIC "-//W3C//DTD SVG 1.1//EN"
 "http://www.w3.org/Graphics/SVG/1.1/DTD/svg11.dtd">
<!-- Generated by graphviz version 2.40.1 (20161225.0304)
 -->
<!-- Title: isucholar Pages: 1 -->
<svg width="1507pt" height="1500pt"
 viewBox="0.00 0.00 1507.00 1500.00" xmlns="http://www.w3.org/2000/svg" xmlns:xlink="http://www.w3.org/1999/xlink">
<g id="graph0" class="graph" transform="scale(1 1) rotate(0) translate(4 1496)">
<title>isucholar</title>
<polygon fill="#ffffff" stroke="transparent" points="-4,4 -4,-1496 1503,-1496 1503,4 -4,4"/>
<!-- announcements -->
<g id="node1" class="node">
<title>announcements</title>
<polygon fill="#efefef" stroke="transparent" points="892,-1046.5 892,-1081.5 1131,-1081.5 1131,-1046.5 892,-1046.5"/>
<polygon fill="none" stroke="#000000" points="892,-1046.5 892,-1081.5 1131,-1081.5 1131,-1046.5 892,-1046.5"/>
<text text-anchor="start" x="898.848" y="-1059.3" font-family="Arial Bold" font-size="18.00" fill="#000000">announcements</text>
<text text-anchor="start" x="1026.8982" y="-1059.3" font-family="Arial" font-size="14.00" fill="#000000"> </text>
<text text-anchor="start" x="1030.7888" y="-1059.3" font-family="Arial" font-size="14.00" fill="#666666">[BASE TABLE]</text>
<polygon fill="none" stroke="#000000" points="892,-1016.5 892,-1046.5 1131,-1046.5 1131,-1016.5 892,-1016.5"/>
<text text-anchor="start" x="899" y="-1027.9" font-family="Arial" font-size="14.00" fill="#000000">id </text>
<text text-anchor="start" x="913.7798" y="-1027.9" font-family="Arial" font-size="14.00" fill="#666666">[char(36)]</text>
<polygon fill="none" stroke="#000000" points="892,-986.5 892,-1016.5 1131,-1016.5 1131,-986.5 892,-986.5"/>
<text text-anchor="start" x="899" y="-997.9" font-family="Arial" font-size="14.00" fill="#000000">course_id </text>
<text text-anchor="start" x="963.5708" y="-997.9" font-family="Arial" font-size="14.00" fill="#666666">[char(36)]</text>
<polygon fill="none" stroke="#000000" points="892,-956.5 892,-986.5 1131,-986.5 1131,-956.5 892,-956.5"/>
<text text-anchor="start" x="899" y="-967.9" font-family="Arial" font-size="14.00" fill="#000000">title </text>
<text text-anchor="start" x="924.6676" y="-967.9" font-family="Arial" font-size="14.00" fill="#666666">[varchar(255)]</text>
<polygon fill="none" stroke="#000000" points="892,-926.5 892,-956.5 1131,-956.5 1131,-926.5 892,-926.5"/>
<text text-anchor="start" x="899" y="-937.9" font-family="Arial" font-size="14.00" fill="#000000">message </text>
<text text-anchor="start" x="959.6816" y="-937.9" font-family="Arial" font-size="14.00" fill="#666666">[text]</text>
<polygon fill="none" stroke="#000000" points="892,-896.5 892,-926.5 1131,-926.5 1131,-896.5 892,-896.5"/>
<text text-anchor="start" x="899" y="-907.9" font-family="Arial" font-size="14.00" fill="#000000">created_at </text>
<text text-anchor="start" x="969.028" y="-907.9" font-family="Arial" font-size="14.00" fill="#666666">[datetime(6)]</text>
</g>
<!-- courses -->
<g id="node3" class="node">
<title>courses</title>
<polygon fill="#efefef" stroke="transparent" points="399,-709.5 399,-744.5 974,-744.5 974,-709.5 399,-709.5"/>
<polygon fill="none" stroke="#000000" points="399,-709.5 399,-744.5 974,-744.5 974,-709.5 399,-709.5"/>
<text text-anchor="start" x="606.3677" y="-722.3" font-family="Arial Bold" font-size="18.00" fill="#000000">courses</text>
<text text-anchor="start" x="669.3785" y="-722.3" font-family="Arial" font-size="14.00" fill="#000000"> </text>
<text text-anchor="start" x="673.2691" y="-722.3" font-family="Arial" font-size="14.00" fill="#666666">[BASE TABLE]</text>
<polygon fill="none" stroke="#000000" points="399,-679.5 399,-709.5 974,-709.5 974,-679.5 399,-679.5"/>
<text text-anchor="start" x="406" y="-690.9" font-family="Arial" font-size="14.00" fill="#000000">id </text>
<text text-anchor="start" x="420.7798" y="-690.9" font-family="Arial" font-size="14.00" fill="#666666">[char(36)]</text>
<polygon fill="none" stroke="#000000" points="399,-649.5 399,-679.5 974,-679.5 974,-649.5 399,-649.5"/>
<text text-anchor="start" x="406" y="-660.9" font-family="Arial" font-size="14.00" fill="#000000">code </text>
<text text-anchor="start" x="440.2384" y="-660.9" font-family="Arial" font-size="14.00" fill="#666666">[varchar(255)]</text>
<polygon fill="none" stroke="#000000" points="399,-619.5 399,-649.5 974,-649.5 974,-619.5 399,-619.5"/>
<text text-anchor="start" x="406" y="-630.9" font-family="Arial" font-size="14.00" fill="#000000">type </text>
<text text-anchor="start" x="436.3464" y="-630.9" font-family="Arial" font-size="14.00" fill="#666666">[enum(&#39;liberal&#45;arts&#39;,&#39;major&#45;subjects&#39;)]</text>
<polygon fill="none" stroke="#000000" points="399,-589.5 399,-619.5 974,-619.5 974,-589.5 399,-589.5"/>
<text text-anchor="start" x="406" y="-600.9" font-family="Arial" font-size="14.00" fill="#000000">name </text>
<text text-anchor="start" x="444.899" y="-600.9" font-family="Arial" font-size="14.00" fill="#666666">[varchar(255)]</text>
<polygon fill="none" stroke="#000000" points="399,-559.5 399,-589.5 974,-589.5 974,-559.5 399,-559.5"/>
<text text-anchor="start" x="406" y="-570.9" font-family="Arial" font-size="14.00" fill="#000000">description </text>
<text text-anchor="start" x="477.568" y="-570.9" font-family="Arial" font-size="14.00" fill="#666666">[text]</text>
<polygon fill="none" stroke="#000000" points="399,-529.5 399,-559.5 974,-559.5 974,-529.5 399,-529.5"/>
<text text-anchor="start" x="406" y="-540.9" font-family="Arial" font-size="14.00" fill="#000000">credit </text>
<text text-anchor="start" x="444.1136" y="-540.9" font-family="Arial" font-size="14.00" fill="#666666">[tinyint unsigned]</text>
<polygon fill="none" stroke="#000000" points="399,-499.5 399,-529.5 974,-529.5 974,-499.5 399,-499.5"/>
<text text-anchor="start" x="406" y="-510.9" font-family="Arial" font-size="14.00" fill="#000000">period </text>
<text text-anchor="start" x="448.7882" y="-510.9" font-family="Arial" font-size="14.00" fill="#666666">[tinyint unsigned]</text>
<polygon fill="none" stroke="#000000" points="399,-469.5 399,-499.5 974,-499.5 974,-469.5 399,-469.5"/>
<text text-anchor="start" x="405.7762" y="-480.9" font-family="Arial" font-size="14.00" fill="#000000">day_of_week </text>
<text text-anchor="start" x="492.1422" y="-480.9" font-family="Arial" font-size="14.00" fill="#666666">[enum(&#39;sunday&#39;,&#39;monday&#39;,&#39;tuesday&#39;,&#39;wednesday&#39;,&#39;thursday&#39;,&#39;friday&#39;,&#39;saturday&#39;)]</text>
<polygon fill="none" stroke="#000000" points="399,-439.5 399,-469.5 974,-469.5 974,-439.5 399,-439.5"/>
<text text-anchor="start" x="406" y="-450.9" font-family="Arial" font-size="14.00" fill="#000000">teacher_id </text>
<text text-anchor="start" x="475.244" y="-450.9" font-family="Arial" font-size="14.00" fill="#666666">[char(36)]</text>
<polygon fill="none" stroke="#000000" points="399,-409.5 399,-439.5 974,-439.5 974,-409.5 399,-409.5"/>
<text text-anchor="start" x="406" y="-420.9" font-family="Arial" font-size="14.00" fill="#000000">keywords </text>
<text text-anchor="start" x="469.0056" y="-420.9" font-family="Arial" font-size="14.00" fill="#666666">[text]</text>
<polygon fill="none" stroke="#000000" points="399,-379.5 399,-409.5 974,-409.5 974,-379.5 399,-379.5"/>
<text text-anchor="start" x="406" y="-390.9" font-family="Arial" font-size="14.00" fill="#000000">status </text>
<text text-anchor="start" x="447.237" y="-390.9" font-family="Arial" font-size="14.00" fill="#666666">[enum(&#39;registration&#39;,&#39;in&#45;progress&#39;,&#39;closed&#39;)]</text>
<polygon fill="none" stroke="#000000" points="399,-349.5 399,-379.5 974,-379.5 974,-349.5 399,-349.5"/>
<text text-anchor="start" x="406" y="-360.9" font-family="Arial" font-size="14.00" fill="#000000">created_at </text>
<text text-anchor="start" x="476.028" y="-360.9" font-family="Arial" font-size="14.00" fill="#666666">[datetime(6)]</text>
</g>
<!-- announcements&#45;&gt;courses -->
<g id="edge1" class="edge">
<title>announcements:course_id&#45;&gt;courses:id</title>
<path fill="none" stroke="#000000" d="M881.8298,-1000.6708C830.635,-991.5829 865.2933,-909.7785 892,-854 912.2033,-811.8044 953.7967,-830.1956 974,-788 991.9458,-750.5192 1015.5556,-694.5 974,-694.5"/>
<polygon fill="#000000" stroke="#000000" points="882.0331,-1000.6873 891.6343,-1005.9851 887.0165,-1001.0937 892,-1001.5 892,-1001.5 892,-1001.5 887.0165,-1001.0937 892.3657,-997.0149 882.0331,-1000.6873 882.0331,-1000.6873"/>
<text text-anchor="start" x="899.386" y="-1011.5" font-family="Arial" font-size="10.00" fill="#000000">FOREIGN KEY (course_id) REFERENCES courses (id)</text>
</g>
<!-- classes -->
<g id="node2" class="node">
<title>classes</title>
<polygon fill="#efefef" stroke="transparent" points="553,-1076.5 553,-1111.5 787,-1111.5 787,-1076.5 553,-1076.5"/>
<polygon fill="none" stroke="#000000" points="553,-1076.5 553,-1111.5 787,-1111.5 787,-1076.5 553,-1076.5"/>
<text text-anchor="start" x="591.3698" y="-1089.3" font-family="Arial Bold" font-size="18.00" fill="#000000">classes</text>
<text text-anchor="start" x="651.3764" y="-1089.3" font-family="Arial" font-size="14.00" fill="#000000"> </text>
<text text-anchor="start" x="655.267" y="-1089.3" font-family="Arial" font-size="14.00" fill="#666666">[BASE TABLE]</text>
<polygon fill="none" stroke="#000000" points="553,-1046.5 553,-1076.5 787,-1076.5 787,-1046.5 553,-1046.5"/>
<text text-anchor="start" x="560" y="-1057.9" font-family="Arial" font-size="14.00" fill="#000000">id </text>
<text text-anchor="start" x="574.7798" y="-1057.9" font-family="Arial" font-size="14.00" fill="#666666">[char(36)]</text>
<polygon fill="none" stroke="#000000" points="553,-1016.5 553,-1046.5 787,-1046.5 787,-1016.5 553,-1016.5"/>
<text text-anchor="start" x="560" y="-1027.9" font-family="Arial" font-size="14.00" fill="#000000">course_id </text>
<text text-anchor="start" x="624.5708" y="-1027.9" font-family="Arial" font-size="14.00" fill="#666666">[char(36)]</text>
<polygon fill="none" stroke="#000000" points="553,-986.5 553,-1016.5 787,-1016.5 787,-986.5 553,-986.5"/>
<text text-anchor="start" x="560" y="-997.9" font-family="Arial" font-size="14.00" fill="#000000">part </text>
<text text-anchor="start" x="588.007" y="-997.9" font-family="Arial" font-size="14.00" fill="#666666">[tinyint unsigned]</text>
<polygon fill="none" stroke="#000000" points="553,-956.5 553,-986.5 787,-986.5 787,-956.5 553,-956.5"/>
<text text-anchor="start" x="560" y="-967.9" font-family="Arial" font-size="14.00" fill="#000000">title </text>
<text text-anchor="start" x="585.6676" y="-967.9" font-family="Arial" font-size="14.00" fill="#666666">[varchar(255)]</text>
<polygon fill="none" stroke="#000000" points="553,-926.5 553,-956.5 787,-956.5 787,-926.5 553,-926.5"/>
<text text-anchor="start" x="560" y="-937.9" font-family="Arial" font-size="14.00" fill="#000000">description </text>
<text text-anchor="start" x="631.568" y="-937.9" font-family="Arial" font-size="14.00" fill="#666666">[text]</text>
<polygon fill="none" stroke="#000000" points="553,-896.5 553,-926.5 787,-926.5 787,-896.5 553,-896.5"/>
<text text-anchor="start" x="560" y="-907.9" font-family="Arial" font-size="14.00" fill="#000000">created_at </text>
<text text-anchor="start" x="630.028" y="-907.9" font-family="Arial" font-size="14.00" fill="#666666">[datetime(6)]</text>
<polygon fill="none" stroke="#000000" points="553,-866.5 553,-896.5 787,-896.5 787,-866.5 553,-866.5"/>
<text text-anchor="start" x="559.9243" y="-877.9" font-family="Arial" font-size="14.00" fill="#000000">submission_closed_at </text>
<text text-anchor="start" x="701.5119" y="-877.9" font-family="Arial" font-size="14.00" fill="#666666">[datetime(6)]</text>
</g>
<!-- classes&#45;&gt;courses -->
<g id="edge2" class="edge">
<title>classes:course_id&#45;&gt;courses:id</title>
<path fill="none" stroke="#000000" d="M796.709,-1028.4737C830.6621,-1005.2534 815.636,-855.416 787,-824 728.6668,-760.0039 457.3332,-851.9961 399,-788 371.006,-757.2884 357.4444,-694.5 399,-694.5"/>
<polygon fill="#000000" stroke="#000000" points="796.547,-1028.5241 785.6609,-1027.2039 791.7735,-1030.0121 787,-1031.5 787,-1031.5 787,-1031.5 791.7735,-1030.0121 788.3391,-1035.7961 796.547,-1028.5241 796.547,-1028.5241"/>
<text text-anchor="start" x="794.386" y="-1041.5" font-family="Arial" font-size="10.00" fill="#000000">FOREIGN KEY (course_id) REFERENCES courses (id)</text>
</g>
<!-- users -->
<g id="node7" class="node">
<title>users</title>
<polygon fill="#efefef" stroke="transparent" points="404,-192.5 404,-227.5 609,-227.5 609,-192.5 404,-192.5"/>
<polygon fill="none" stroke="#000000" points="404,-192.5 404,-227.5 609,-227.5 609,-192.5 404,-192.5"/>
<text text-anchor="start" x="435.8708" y="-205.3" font-family="Arial Bold" font-size="18.00" fill="#000000">users</text>
<text text-anchor="start" x="479.8754" y="-205.3" font-family="Arial" font-size="14.00" fill="#000000"> </text>
<text text-anchor="start" x="483.766" y="-205.3" font-family="Arial" font-size="14.00" fill="#666666">[BASE TABLE]</text>
<polygon fill="none" stroke="#000000" points="404,-162.5 404,-192.5 609,-192.5 609,-162.5 404,-162.5"/>
<text text-anchor="start" x="411" y="-173.9" font-family="Arial" font-size="14.00" fill="#000000">id </text>
<text text-anchor="start" x="425.7798" y="-173.9" font-family="Arial" font-size="14.00" fill="#666666">[char(36)]</text>
<polygon fill="none" stroke="#000000" points="404,-132.5 404,-162.5 609,-162.5 609,-132.5 404,-132.5"/>
<text text-anchor="start" x="411" y="-143.9" font-family="Arial" font-size="14.00" fill="#000000">code </text>
<text text-anchor="start" x="445.2384" y="-143.9" font-family="Arial" font-size="14.00" fill="#666666">[char(8)]</text>
<polygon fill="none" stroke="#000000" points="404,-102.5 404,-132.5 609,-132.5 609,-102.5 404,-102.5"/>
<text text-anchor="start" x="411" y="-113.9" font-family="Arial" font-size="14.00" fill="#000000">name </text>
<text text-anchor="start" x="449.899" y="-113.9" font-family="Arial" font-size="14.00" fill="#666666">[varchar(255)]</text>
<polygon fill="none" stroke="#000000" points="404,-72.5 404,-102.5 609,-102.5 609,-72.5 404,-72.5"/>
<text text-anchor="start" x="411" y="-83.9" font-family="Arial" font-size="14.00" fill="#000000">hashed_password </text>
<text text-anchor="start" x="528.4838" y="-83.9" font-family="Arial" font-size="14.00" fill="#666666">[binary(60)]</text>
<polygon fill="none" stroke="#000000" points="404,-42.5 404,-72.5 609,-72.5 609,-42.5 404,-42.5"/>
<text text-anchor="start" x="410.8443" y="-53.9" font-family="Arial" font-size="14.00" fill="#000000">type </text>
<text text-anchor="start" x="441.1907" y="-53.9" font-family="Arial" font-size="14.00" fill="#666666">[enum(&#39;student&#39;,&#39;teacher&#39;)]</text>
</g>
<!-- courses&#45;&gt;users -->
<g id="edge3" class="edge">
<title>courses:teacher_id&#45;&gt;users:id</title>
<path fill="none" stroke="#000000" d="M389.0306,-453.6499C336.0494,-443.9902 359.0534,-354.3773 399,-307 460.0409,-234.6045 547.9591,-343.3955 609,-271 635.787,-239.2302 650.5556,-177.5 609,-177.5"/>
<polygon fill="#000000" stroke="#000000" points="389.0362,-453.6503 398.6176,-458.9837 394.0181,-454.0752 399,-454.5 399,-454.5 399,-454.5 394.0181,-454.0752 399.3824,-450.0163 389.0362,-453.6503 389.0362,-453.6503"/>
<text text-anchor="start" x="151.9965" y="-464.5" font-family="Arial" font-size="10.00" fill="#000000">FOREIGN KEY (teacher_id) REFERENCES users (id)</text>
</g>
<!-- registrations -->
<g id="node4" class="node">
<title>registrations</title>
<polygon fill="#efefef" stroke="transparent" points="240,-1016.5 240,-1051.5 449,-1051.5 449,-1016.5 240,-1016.5"/>
<polygon fill="none" stroke="#000000" points="240,-1016.5 240,-1051.5 449,-1051.5 449,-1016.5 240,-1016.5"/>
<text text-anchor="start" x="246.869" y="-1029.3" font-family="Arial Bold" font-size="18.00" fill="#000000">registrations</text>
<text text-anchor="start" x="344.8772" y="-1029.3" font-family="Arial" font-size="14.00" fill="#000000"> </text>
<text text-anchor="start" x="348.7678" y="-1029.3" font-family="Arial" font-size="14.00" fill="#666666">[BASE TABLE]</text>
<polygon fill="none" stroke="#000000" points="240,-986.5 240,-1016.5 449,-1016.5 449,-986.5 240,-986.5"/>
<text text-anchor="start" x="247" y="-997.9" font-family="Arial" font-size="14.00" fill="#000000">course_id </text>
<text text-anchor="start" x="311.5708" y="-997.9" font-family="Arial" font-size="14.00" fill="#666666">[char(36)]</text>
<polygon fill="none" stroke="#000000" points="240,-956.5 240,-986.5 449,-986.5 449,-956.5 240,-956.5"/>
<text text-anchor="start" x="247" y="-967.9" font-family="Arial" font-size="14.00" fill="#000000">user_id </text>
<text text-anchor="start" x="296.7882" y="-967.9" font-family="Arial" font-size="14.00" fill="#666666">[char(36)]</text>
<polygon fill="none" stroke="#000000" points="240,-926.5 240,-956.5 449,-956.5 449,-926.5 240,-926.5"/>
<text text-anchor="start" x="247" y="-937.9" font-family="Arial" font-size="14.00" fill="#000000">created_at </text>
<text text-anchor="start" x="317.028" y="-937.9" font-family="Arial" font-size="14.00" fill="#666666">[datetime(6)]</text>
</g>
<!-- registrations&#45;&gt;courses -->
<g id="edge4" class="edge">
<title>registrations:course_id&#45;&gt;courses:id</title>
<path fill="none" stroke="#000000" d="M459.3782,-1000.6967C540.5144,-986.9717 402.3755,-801.7884 399,-788 389.1186,-747.6364 357.4444,-694.5 399,-694.5"/>
<polygon fill="#000000" stroke="#000000" points="458.9702,-1000.7282 448.6527,-997.0134 453.9851,-1001.1141 449,-1001.5 449,-1001.5 449,-1001.5 453.9851,-1001.1141 449.3473,-1005.9866 458.9702,-1000.7282 458.9702,-1000.7282"/>
<text text-anchor="start" x="456.386" y="-1011.5" font-family="Arial" font-size="10.00" fill="#000000">FOREIGN KEY (course_id) REFERENCES courses (id)</text>
</g>
<!-- registrations&#45;&gt;users -->
<g id="edge5" class="edge">
<title>registrations:user_id&#45;&gt;users:id</title>
<path fill="none" stroke="#000000" d="M230.5868,-967.96C162.6153,-910.6803 317.4345,-177.5 404,-177.5"/>
<polygon fill="#000000" stroke="#000000" points="230.64,-967.98 238.416,-975.712 235.32,-969.74 240,-971.5 240,-971.5 240,-971.5 235.32,-969.74 241.584,-967.288 230.64,-967.98 230.64,-967.98"/>
<text text-anchor="start" x="6.945" y="-981.5" font-family="Arial" font-size="10.00" fill="#000000">FOREIGN KEY (user_id) REFERENCES users (id)</text>
</g>
<!-- submissions -->
<g id="node5" class="node">
<title>submissions</title>
<polygon fill="#efefef" stroke="transparent" points="399,-1413.5 399,-1448.5 609,-1448.5 609,-1413.5 399,-1413.5"/>
<polygon fill="none" stroke="#000000" points="399,-1413.5 399,-1448.5 609,-1448.5 609,-1413.5 399,-1413.5"/>
<text text-anchor="start" x="405.8704" y="-1426.3" font-family="Arial Bold" font-size="18.00" fill="#000000">submissions</text>
<text text-anchor="start" x="504.8758" y="-1426.3" font-family="Arial" font-size="14.00" fill="#000000"> </text>
<text text-anchor="start" x="508.7664" y="-1426.3" font-family="Arial" font-size="14.00" fill="#666666">[BASE TABLE]</text>
<polygon fill="none" stroke="#000000" points="399,-1383.5 399,-1413.5 609,-1413.5 609,-1383.5 399,-1383.5"/>
<text text-anchor="start" x="406" y="-1394.9" font-family="Arial" font-size="14.00" fill="#000000">id </text>
<text text-anchor="start" x="420.7798" y="-1394.9" font-family="Arial" font-size="14.00" fill="#666666">[char(36)]</text>
<polygon fill="none" stroke="#000000" points="399,-1353.5 399,-1383.5 609,-1383.5 609,-1353.5 399,-1353.5"/>
<text text-anchor="start" x="406" y="-1364.9" font-family="Arial" font-size="14.00" fill="#000000">user_id </text>
<text text-anchor="start" x="455.7882" y="-1364.9" font-family="Arial" font-size="14.00" fill="#666666">[char(36)]</text>
<polygon fill="none" stroke="#000000" points="399,-1323.5 399,-1353.5 609,-1353.5 609,-1323.5 399,-1323.5"/>
<text text-anchor="start" x="406" y="-1334.9" font-family="Arial" font-size="14.00" fill="#000000">class_id </text>
<text text-anchor="start" x="460.4516" y="-1334.9" font-family="Arial" font-size="14.00" fill="#666666">[char(36)]</text>
<polygon fill="none" stroke="#000000" points="399,-1293.5 399,-1323.5 609,-1323.5 609,-1293.5 399,-1293.5"/>
<text text-anchor="start" x="406" y="-1304.9" font-family="Arial" font-size="14.00" fill="#000000">name </text>
<text text-anchor="start" x="444.899" y="-1304.9" font-family="Arial" font-size="14.00" fill="#666666">[varchar(255)]</text>
<polygon fill="none" stroke="#000000" points="399,-1263.5 399,-1293.5 609,-1293.5 609,-1263.5 399,-1263.5"/>
<text text-anchor="start" x="406" y="-1274.9" font-family="Arial" font-size="14.00" fill="#000000">score </text>
<text text-anchor="start" x="444.1164" y="-1274.9" font-family="Arial" font-size="14.00" fill="#666666">[tinyint unsigned]</text>
<polygon fill="none" stroke="#000000" points="399,-1233.5 399,-1263.5 609,-1263.5 609,-1233.5 399,-1233.5"/>
<text text-anchor="start" x="406" y="-1244.9" font-family="Arial" font-size="14.00" fill="#000000">created_at </text>
<text text-anchor="start" x="476.028" y="-1244.9" font-family="Arial" font-size="14.00" fill="#666666">[datetime(6)]</text>
</g>
<!-- submissions&#45;&gt;classes -->
<g id="edge6" class="edge">
<title>submissions:class_id&#45;&gt;classes:id</title>
<path fill="none" stroke="#000000" d="M619.1984,-1337.6564C670.6966,-1328.4131 638.6342,-1245.2799 609,-1191 594.8217,-1165.0301 567.1783,-1180.9699 553,-1155 533.0871,-1118.5262 511.4444,-1061.5 553,-1061.5"/>
<polygon fill="#000000" stroke="#000000" points="618.966,-1337.6755 608.629,-1334.0153 613.983,-1338.0878 609,-1338.5 609,-1338.5 609,-1338.5 613.983,-1338.0878 609.371,-1342.9847 618.966,-1337.6755 618.966,-1337.6755"/>
<text text-anchor="start" x="615.8345" y="-1348.5" font-family="Arial" font-size="10.00" fill="#000000">FOREIGN KEY (class_id) REFERENCES classes (id)</text>
</g>
<!-- submissions&#45;&gt;users -->
<g id="edge7" class="edge">
<title>submissions:user_id&#45;&gt;users:id</title>
<path fill="none" stroke="#000000" d="M388.6419,-1368.3136C263.8202,-1363.7375 236.612,-1275.3737 187,-1155 141.3018,-1044.1225 194.0245,-347.9269 217,-307 266.4876,-218.8463 302.9055,-177.5 404,-177.5"/>
<polygon fill="#000000" stroke="#000000" points="389.0016,-1368.32 398.919,-1372.9993 394.0008,-1368.41 399,-1368.5 399,-1368.5 399,-1368.5 394.0008,-1368.41 399.081,-1364.0007 389.0016,-1368.32 389.0016,-1368.32"/>
<text text-anchor="start" x="165.945" y="-1378.5" font-family="Arial" font-size="10.00" fill="#000000">FOREIGN KEY (user_id) REFERENCES users (id)</text>
</g>
<!-- unread_announcements -->
<g id="node6" class="node">
<title>unread_announcements</title>
<polygon fill="#efefef" stroke="transparent" points="954,-1383.5 954,-1418.5 1259,-1418.5 1259,-1383.5 954,-1383.5"/>
<polygon fill="none" stroke="#000000" points="954,-1383.5 954,-1418.5 1259,-1418.5 1259,-1383.5 954,-1383.5"/>
<text text-anchor="start" x="960.8333" y="-1396.3" font-family="Arial Bold" font-size="18.00" fill="#000000">unread_announcements</text>
<text text-anchor="start" x="1154.9129" y="-1396.3" font-family="Arial" font-size="14.00" fill="#000000"> </text>
<text text-anchor="start" x="1158.8035" y="-1396.3" font-family="Arial" font-size="14.00" fill="#666666">[BASE TABLE]</text>
<polygon fill="none" stroke="#000000" points="954,-1353.5 954,-1383.5 1259,-1383.5 1259,-1353.5 954,-1353.5"/>
<text text-anchor="start" x="961" y="-1364.9" font-family="Arial" font-size="14.00" fill="#000000">announcement_id </text>
<text text-anchor="start" x="1076.157" y="-1364.9" font-family="Arial" font-size="14.00" fill="#666666">[char(36)]</text>
<polygon fill="none" stroke="#000000" points="954,-1323.5 954,-1353.5 1259,-1353.5 1259,-1323.5 954,-1323.5"/>
<text text-anchor="start" x="961" y="-1334.9" font-family="Arial" font-size="14.00" fill="#000000">user_id </text>
<text text-anchor="start" x="1010.7882" y="-1334.9" font-family="Arial" font-size="14.00" fill="#666666">[char(36)]</text>
<polygon fill="none" stroke="#000000" points="954,-1293.5 954,-1323.5 1259,-1323.5 1259,-1293.5 954,-1293.5"/>
<text text-anchor="start" x="961" y="-1304.9" font-family="Arial" font-size="14.00" fill="#000000">created_at </text>
<text text-anchor="start" x="1031.028" y="-1304.9" font-family="Arial" font-size="14.00" fill="#666666">[datetime(6)]</text>
<polygon fill="none" stroke="#000000" points="954,-1263.5 954,-1293.5 1259,-1293.5 1259,-1263.5 954,-1263.5"/>
<text text-anchor="start" x="961" y="-1274.9" font-family="Arial" font-size="14.00" fill="#000000">deleted_at </text>
<text text-anchor="start" x="1030.2566" y="-1274.9" font-family="Arial" font-size="14.00" fill="#666666">[datetime(6)]</text>
</g>
<!-- unread_announcements&#45;&gt;announcements -->
<g id="edge8" class="edge">
<title>unread_announcements:announcement_id&#45;&gt;announcements:id</title>
<path fill="none" stroke="#000000" d="M943.7824,-1367.6454C892.0771,-1358.2841 922.3684,-1274.1407 954,-1221 999.7742,-1144.1 1085.2258,-1201.9 1131,-1125 1152.2551,-1089.2917 1172.5556,-1031.5 1131,-1031.5"/>
<polygon fill="#000000" stroke="#000000" points="944.0348,-1367.6665 953.6249,-1372.9843 949.0174,-1368.0832 954,-1368.5 954,-1368.5 954,-1368.5 949.0174,-1368.0832 954.3751,-1364.0157 944.0348,-1367.6665 944.0348,-1367.6665"/>
<text text-anchor="start" x="628.253" y="-1378.5" font-family="Arial" font-size="10.00" fill="#000000">FOREIGN KEY (announcement_id) REFERENCES announcements (id)</text>
</g>
<!-- unread_announcements&#45;&gt;users -->
<g id="edge9" class="edge">
<title>unread_announcements:user_id&#45;&gt;users:id</title>
<path fill="none" stroke="#000000" d="M1268.7887,-1336.1496C1368.6416,-1282.8954 1060.0032,-342.1855 1025,-307 956.7159,-238.3603 705.8201,-177.5 609,-177.5"/>
<polygon fill="#000000" stroke="#000000" points="1268.7236,-1336.1652 1257.9493,-1334.1244 1263.8618,-1337.3326 1259,-1338.5 1259,-1338.5 1259,-1338.5 1263.8618,-1337.3326 1260.0507,-1342.8756 1268.7236,-1336.1652 1268.7236,-1336.1652"/>
<text text-anchor="start" x="1265.945" y="-1348.5" font-family="Arial" font-size="10.00" fill="#000000">FOREIGN KEY (user_id) REFERENCES users (id)</text>
</g>
</g>
</svg>
