<?xml version="1.0" encoding="UTF-8" standalone="no"?>
<!DOCTYPE svg PUBLIC "-//W3C//DTD SVG 1.1//EN"
 "http://www.w3.org/Graphics/SVG/1.1/DTD/svg11.dtd">
<!-- Generated by graphviz version 2.40.1 (20161225.0304)
 -->
<!-- Title: isucholar Pages: 1 -->
<svg width="2252pt" height="1657pt"
 viewBox="0.00 0.00 2252.31 1657.00" xmlns="http://www.w3.org/2000/svg" xmlns:xlink="http://www.w3.org/1999/xlink">
<g id="graph0" class="graph" transform="scale(1 1) rotate(0) translate(4 1653)">
<title>isucholar</title>
<polygon fill="#ffffff" stroke="transparent" points="-4,4 -4,-1653 2248.3055,-1653 2248.3055,4 -4,4"/>
<!-- announcements -->
<g id="node1" class="node">
<title>announcements</title>
<polygon fill="#efefef" stroke="transparent" points="1210,-956.5 1210,-991.5 1449,-991.5 1449,-956.5 1210,-956.5"/>
<polygon fill="none" stroke="#000000" points="1210,-956.5 1210,-991.5 1449,-991.5 1449,-956.5 1210,-956.5"/>
<text text-anchor="start" x="1216.848" y="-969.3" font-family="Arial Bold" font-size="18.00" fill="#000000">announcements</text>
<text text-anchor="start" x="1344.8982" y="-969.3" font-family="Arial" font-size="14.00" fill="#000000"> </text>
<text text-anchor="start" x="1348.7888" y="-969.3" font-family="Arial" font-size="14.00" fill="#666666">[BASE TABLE]</text>
<polygon fill="none" stroke="#000000" points="1210,-926.5 1210,-956.5 1449,-956.5 1449,-926.5 1210,-926.5"/>
<text text-anchor="start" x="1217" y="-937.9" font-family="Arial" font-size="14.00" fill="#000000">id </text>
<text text-anchor="start" x="1231.7798" y="-937.9" font-family="Arial" font-size="14.00" fill="#666666">[char(36)]</text>
<polygon fill="none" stroke="#000000" points="1210,-896.5 1210,-926.5 1449,-926.5 1449,-896.5 1210,-896.5"/>
<text text-anchor="start" x="1217" y="-907.9" font-family="Arial" font-size="14.00" fill="#000000">course_id </text>
<text text-anchor="start" x="1281.5708" y="-907.9" font-family="Arial" font-size="14.00" fill="#666666">[char(36)]</text>
<polygon fill="none" stroke="#000000" points="1210,-866.5 1210,-896.5 1449,-896.5 1449,-866.5 1210,-866.5"/>
<text text-anchor="start" x="1217" y="-877.9" font-family="Arial" font-size="14.00" fill="#000000">title </text>
<text text-anchor="start" x="1242.6676" y="-877.9" font-family="Arial" font-size="14.00" fill="#666666">[varchar(255)]</text>
<polygon fill="none" stroke="#000000" points="1210,-836.5 1210,-866.5 1449,-866.5 1449,-836.5 1210,-836.5"/>
<text text-anchor="start" x="1217" y="-847.9" font-family="Arial" font-size="14.00" fill="#000000">message </text>
<text text-anchor="start" x="1277.6816" y="-847.9" font-family="Arial" font-size="14.00" fill="#666666">[text]</text>
<polygon fill="none" stroke="#000000" points="1210,-806.5 1210,-836.5 1449,-836.5 1449,-806.5 1210,-806.5"/>
<text text-anchor="start" x="1217" y="-817.9" font-family="Arial" font-size="14.00" fill="#000000">created_at </text>
<text text-anchor="start" x="1287.028" y="-817.9" font-family="Arial" font-size="14.00" fill="#666666">[datetime(6)]</text>
</g>
<!-- courses -->
<g id="node7" class="node">
<title>courses</title>
<polygon fill="#efefef" stroke="transparent" points="669,-649.5 669,-684.5 938,-684.5 938,-649.5 669,-649.5"/>
<polygon fill="none" stroke="#000000" points="669,-649.5 669,-684.5 938,-684.5 938,-649.5 669,-649.5"/>
<text text-anchor="start" x="723.3677" y="-662.3" font-family="Arial Bold" font-size="18.00" fill="#000000">courses</text>
<text text-anchor="start" x="786.3785" y="-662.3" font-family="Arial" font-size="14.00" fill="#000000"> </text>
<text text-anchor="start" x="790.2691" y="-662.3" font-family="Arial" font-size="14.00" fill="#666666">[BASE TABLE]</text>
<polygon fill="none" stroke="#000000" points="669,-619.5 669,-649.5 938,-649.5 938,-619.5 669,-619.5"/>
<text text-anchor="start" x="676" y="-630.9" font-family="Arial" font-size="14.00" fill="#000000">id </text>
<text text-anchor="start" x="690.7798" y="-630.9" font-family="Arial" font-size="14.00" fill="#666666">[char(36)]</text>
<polygon fill="none" stroke="#000000" points="669,-589.5 669,-619.5 938,-619.5 938,-589.5 669,-589.5"/>
<text text-anchor="start" x="676" y="-600.9" font-family="Arial" font-size="14.00" fill="#000000">code </text>
<text text-anchor="start" x="710.2384" y="-600.9" font-family="Arial" font-size="14.00" fill="#666666">[varchar(255)]</text>
<polygon fill="none" stroke="#000000" points="669,-559.5 669,-589.5 938,-589.5 938,-559.5 669,-559.5"/>
<text text-anchor="start" x="675.9803" y="-570.9" font-family="Arial" font-size="14.00" fill="#000000">type </text>
<text text-anchor="start" x="706.3267" y="-570.9" font-family="Arial" font-size="14.00" fill="#666666">[enum(&#39;liberal&#45;arts&#39;,&#39;major&#45;subjects&#39;)]</text>
<polygon fill="none" stroke="#000000" points="669,-529.5 669,-559.5 938,-559.5 938,-529.5 669,-529.5"/>
<text text-anchor="start" x="676" y="-540.9" font-family="Arial" font-size="14.00" fill="#000000">name </text>
<text text-anchor="start" x="714.899" y="-540.9" font-family="Arial" font-size="14.00" fill="#666666">[varchar(255)]</text>
<polygon fill="none" stroke="#000000" points="669,-499.5 669,-529.5 938,-529.5 938,-499.5 669,-499.5"/>
<text text-anchor="start" x="676" y="-510.9" font-family="Arial" font-size="14.00" fill="#000000">description </text>
<text text-anchor="start" x="747.568" y="-510.9" font-family="Arial" font-size="14.00" fill="#666666">[text]</text>
<polygon fill="none" stroke="#000000" points="669,-469.5 669,-499.5 938,-499.5 938,-469.5 669,-469.5"/>
<text text-anchor="start" x="676" y="-480.9" font-family="Arial" font-size="14.00" fill="#000000">credit </text>
<text text-anchor="start" x="714.1136" y="-480.9" font-family="Arial" font-size="14.00" fill="#666666">[tinyint unsigned]</text>
<polygon fill="none" stroke="#000000" points="669,-439.5 669,-469.5 938,-469.5 938,-439.5 669,-439.5"/>
<text text-anchor="start" x="676" y="-450.9" font-family="Arial" font-size="14.00" fill="#000000">classroom </text>
<text text-anchor="start" x="743.6662" y="-450.9" font-family="Arial" font-size="14.00" fill="#666666">[varchar(255)]</text>
<polygon fill="none" stroke="#000000" points="669,-409.5 669,-439.5 938,-439.5 938,-409.5 669,-409.5"/>
<text text-anchor="start" x="676" y="-420.9" font-family="Arial" font-size="14.00" fill="#000000">capacity </text>
<text text-anchor="start" x="731.2356" y="-420.9" font-family="Arial" font-size="14.00" fill="#666666">[int unsigned]</text>
<polygon fill="none" stroke="#000000" points="669,-379.5 669,-409.5 938,-409.5 938,-379.5 669,-379.5"/>
<text text-anchor="start" x="676" y="-390.9" font-family="Arial" font-size="14.00" fill="#000000">teacher_id </text>
<text text-anchor="start" x="745.244" y="-390.9" font-family="Arial" font-size="14.00" fill="#666666">[char(36)]</text>
<polygon fill="none" stroke="#000000" points="669,-349.5 669,-379.5 938,-379.5 938,-349.5 669,-349.5"/>
<text text-anchor="start" x="676" y="-360.9" font-family="Arial" font-size="14.00" fill="#000000">keywords </text>
<text text-anchor="start" x="739.0056" y="-360.9" font-family="Arial" font-size="14.00" fill="#666666">[text]</text>
</g>
<!-- announcements&#45;&gt;courses -->
<g id="edge1" class="edge">
<title>announcements:course_id&#45;&gt;courses:id</title>
<path fill="none" stroke="#000000" d="M1199.7056,-910.6802C1146.7025,-901.3591 1198.9598,-814.7499 1157,-764 1084.9466,-676.8523 1051.0771,-634.5 938,-634.5"/>
<polygon fill="#000000" stroke="#000000" points="1200.0316,-910.7061 1209.6427,-915.9858 1205.0158,-911.103 1210,-911.5 1210,-911.5 1210,-911.5 1205.0158,-911.103 1210.3573,-907.0142 1200.0316,-910.7061 1200.0316,-910.7061"/>
<text text-anchor="start" x="1217.386" y="-921.5" font-family="Arial" font-size="10.00" fill="#000000">FOREIGN KEY (course_id) REFERENCES courses (id)</text>
</g>
<!-- assignments -->
<g id="node2" class="node">
<title>assignments</title>
<polygon fill="#efefef" stroke="transparent" points="893,-1263.5 893,-1298.5 1105,-1298.5 1105,-1263.5 893,-1263.5"/>
<polygon fill="none" stroke="#000000" points="893,-1263.5 893,-1298.5 1105,-1298.5 1105,-1263.5 893,-1263.5"/>
<text text-anchor="start" x="899.8633" y="-1276.3" font-family="Arial Bold" font-size="18.00" fill="#000000">assignments</text>
<text text-anchor="start" x="1000.8829" y="-1276.3" font-family="Arial" font-size="14.00" fill="#000000"> </text>
<text text-anchor="start" x="1004.7735" y="-1276.3" font-family="Arial" font-size="14.00" fill="#666666">[BASE TABLE]</text>
<polygon fill="none" stroke="#000000" points="893,-1233.5 893,-1263.5 1105,-1263.5 1105,-1233.5 893,-1233.5"/>
<text text-anchor="start" x="900" y="-1244.9" font-family="Arial" font-size="14.00" fill="#000000">id </text>
<text text-anchor="start" x="914.7798" y="-1244.9" font-family="Arial" font-size="14.00" fill="#666666">[char(36)]</text>
<polygon fill="none" stroke="#000000" points="893,-1203.5 893,-1233.5 1105,-1233.5 1105,-1203.5 893,-1203.5"/>
<text text-anchor="start" x="900" y="-1214.9" font-family="Arial" font-size="14.00" fill="#000000">class_id </text>
<text text-anchor="start" x="954.4516" y="-1214.9" font-family="Arial" font-size="14.00" fill="#666666">[char(36)]</text>
<polygon fill="none" stroke="#000000" points="893,-1173.5 893,-1203.5 1105,-1203.5 1105,-1173.5 893,-1173.5"/>
<text text-anchor="start" x="900" y="-1184.9" font-family="Arial" font-size="14.00" fill="#000000">name </text>
<text text-anchor="start" x="938.899" y="-1184.9" font-family="Arial" font-size="14.00" fill="#666666">[varchar(255)]</text>
<polygon fill="none" stroke="#000000" points="893,-1143.5 893,-1173.5 1105,-1173.5 1105,-1143.5 893,-1143.5"/>
<text text-anchor="start" x="900" y="-1154.9" font-family="Arial" font-size="14.00" fill="#000000">description </text>
<text text-anchor="start" x="971.568" y="-1154.9" font-family="Arial" font-size="14.00" fill="#666666">[text]</text>
<polygon fill="none" stroke="#000000" points="893,-1113.5 893,-1143.5 1105,-1143.5 1105,-1113.5 893,-1113.5"/>
<text text-anchor="start" x="900" y="-1124.9" font-family="Arial" font-size="14.00" fill="#000000">created_at </text>
<text text-anchor="start" x="970.028" y="-1124.9" font-family="Arial" font-size="14.00" fill="#666666">[datetime(6)]</text>
</g>
<!-- classes -->
<g id="node4" class="node">
<title>classes</title>
<polygon fill="#efefef" stroke="transparent" points="893,-956.5 893,-991.5 1105,-991.5 1105,-956.5 893,-956.5"/>
<polygon fill="none" stroke="#000000" points="893,-956.5 893,-991.5 1105,-991.5 1105,-956.5 893,-956.5"/>
<text text-anchor="start" x="920.3698" y="-969.3" font-family="Arial Bold" font-size="18.00" fill="#000000">classes</text>
<text text-anchor="start" x="980.3764" y="-969.3" font-family="Arial" font-size="14.00" fill="#000000"> </text>
<text text-anchor="start" x="984.267" y="-969.3" font-family="Arial" font-size="14.00" fill="#666666">[BASE TABLE]</text>
<polygon fill="none" stroke="#000000" points="893,-926.5 893,-956.5 1105,-956.5 1105,-926.5 893,-926.5"/>
<text text-anchor="start" x="900" y="-937.9" font-family="Arial" font-size="14.00" fill="#000000">id </text>
<text text-anchor="start" x="914.7798" y="-937.9" font-family="Arial" font-size="14.00" fill="#666666">[char(36)]</text>
<polygon fill="none" stroke="#000000" points="893,-896.5 893,-926.5 1105,-926.5 1105,-896.5 893,-896.5"/>
<text text-anchor="start" x="900" y="-907.9" font-family="Arial" font-size="14.00" fill="#000000">course_id </text>
<text text-anchor="start" x="964.5708" y="-907.9" font-family="Arial" font-size="14.00" fill="#666666">[char(36)]</text>
<polygon fill="none" stroke="#000000" points="893,-866.5 893,-896.5 1105,-896.5 1105,-866.5 893,-866.5"/>
<text text-anchor="start" x="900" y="-877.9" font-family="Arial" font-size="14.00" fill="#000000">title </text>
<text text-anchor="start" x="925.6676" y="-877.9" font-family="Arial" font-size="14.00" fill="#666666">[varchar(255)]</text>
<polygon fill="none" stroke="#000000" points="893,-836.5 893,-866.5 1105,-866.5 1105,-836.5 893,-836.5"/>
<text text-anchor="start" x="900" y="-847.9" font-family="Arial" font-size="14.00" fill="#000000">description </text>
<text text-anchor="start" x="971.568" y="-847.9" font-family="Arial" font-size="14.00" fill="#666666">[text]</text>
<polygon fill="none" stroke="#000000" points="893,-806.5 893,-836.5 1105,-836.5 1105,-806.5 893,-806.5"/>
<text text-anchor="start" x="899.8002" y="-817.9" font-family="Arial" font-size="14.00" fill="#000000">attendance_code </text>
<text text-anchor="start" x="1011.0806" y="-817.9" font-family="Arial" font-size="14.00" fill="#666666">[varchar(255)]</text>
</g>
<!-- assignments&#45;&gt;classes -->
<g id="edge2" class="edge">
<title>assignments:class_id&#45;&gt;classes:id</title>
<path fill="none" stroke="#000000" d="M1114.8672,-1215.9347C1166.3581,-1188.0098 1163.069,-941.5 1105,-941.5"/>
<polygon fill="#000000" stroke="#000000" points="1114.6783,-1215.9837 1103.8677,-1214.1448 1109.8391,-1217.2419 1105,-1218.5 1105,-1218.5 1105,-1218.5 1109.8391,-1217.2419 1106.1323,-1222.8552 1114.6783,-1215.9837 1114.6783,-1215.9837"/>
<text text-anchor="start" x="1111.8345" y="-1228.5" font-family="Arial" font-size="10.00" fill="#000000">FOREIGN KEY (class_id) REFERENCES classes (id)</text>
</g>
<!-- attendances -->
<g id="node3" class="node">
<title>attendances</title>
<polygon fill="#efefef" stroke="transparent" points="240,-1233.5 240,-1268.5 449,-1268.5 449,-1233.5 240,-1233.5"/>
<polygon fill="none" stroke="#000000" points="240,-1233.5 240,-1268.5 449,-1268.5 449,-1233.5 240,-1233.5"/>
<text text-anchor="start" x="246.8492" y="-1246.3" font-family="Arial Bold" font-size="18.00" fill="#000000">attendances</text>
<text text-anchor="start" x="344.897" y="-1246.3" font-family="Arial" font-size="14.00" fill="#000000"> </text>
<text text-anchor="start" x="348.7876" y="-1246.3" font-family="Arial" font-size="14.00" fill="#666666">[BASE TABLE]</text>
<polygon fill="none" stroke="#000000" points="240,-1203.5 240,-1233.5 449,-1233.5 449,-1203.5 240,-1203.5"/>
<text text-anchor="start" x="247" y="-1214.9" font-family="Arial" font-size="14.00" fill="#000000">class_id </text>
<text text-anchor="start" x="301.4516" y="-1214.9" font-family="Arial" font-size="14.00" fill="#666666">[char(36)]</text>
<polygon fill="none" stroke="#000000" points="240,-1173.5 240,-1203.5 449,-1203.5 449,-1173.5 240,-1173.5"/>
<text text-anchor="start" x="247" y="-1184.9" font-family="Arial" font-size="14.00" fill="#000000">user_id </text>
<text text-anchor="start" x="296.7882" y="-1184.9" font-family="Arial" font-size="14.00" fill="#666666">[char(36)]</text>
<polygon fill="none" stroke="#000000" points="240,-1143.5 240,-1173.5 449,-1173.5 449,-1143.5 240,-1143.5"/>
<text text-anchor="start" x="247" y="-1154.9" font-family="Arial" font-size="14.00" fill="#000000">created_at </text>
<text text-anchor="start" x="317.028" y="-1154.9" font-family="Arial" font-size="14.00" fill="#666666">[datetime(6)]</text>
</g>
<!-- attendances&#45;&gt;classes -->
<g id="edge3" class="edge">
<title>attendances:class_id&#45;&gt;classes:id</title>
<path fill="none" stroke="#000000" d="M459.2899,-1217.7619C520.4984,-1208.3058 476.082,-1110.5099 537,-1071 651.1489,-996.9659 727.9885,-1110.7589 841,-1035 880.4963,-1008.5231 845.4502,-941.5 893,-941.5"/>
<polygon fill="#000000" stroke="#000000" points="458.9744,-1217.7845 448.678,-1214.0115 453.9872,-1218.1422 449,-1218.5 449,-1218.5 449,-1218.5 453.9872,-1218.1422 449.322,-1222.9885 458.9744,-1217.7845 458.9744,-1217.7845"/>
<text text-anchor="start" x="392.8345" y="-1202.5" font-family="Arial" font-size="10.00" fill="#000000">FOREIGN KEY (class_id) REFERENCES classes (id)</text>
</g>
<!-- users -->
<g id="node15" class="node">
<title>users</title>
<polygon fill="#efefef" stroke="transparent" points="444,-192.5 444,-227.5 646,-227.5 646,-192.5 444,-192.5"/>
<polygon fill="none" stroke="#000000" points="444,-192.5 444,-227.5 646,-227.5 646,-192.5 444,-192.5"/>
<text text-anchor="start" x="474.3708" y="-205.3" font-family="Arial Bold" font-size="18.00" fill="#000000">users</text>
<text text-anchor="start" x="518.3754" y="-205.3" font-family="Arial" font-size="14.00" fill="#000000"> </text>
<text text-anchor="start" x="522.266" y="-205.3" font-family="Arial" font-size="14.00" fill="#666666">[BASE TABLE]</text>
<polygon fill="none" stroke="#000000" points="444,-162.5 444,-192.5 646,-192.5 646,-162.5 444,-162.5"/>
<text text-anchor="start" x="451" y="-173.9" font-family="Arial" font-size="14.00" fill="#000000">id </text>
<text text-anchor="start" x="465.7798" y="-173.9" font-family="Arial" font-size="14.00" fill="#666666">[char(36)]</text>
<polygon fill="none" stroke="#000000" points="444,-132.5 444,-162.5 646,-162.5 646,-132.5 444,-132.5"/>
<text text-anchor="start" x="451" y="-143.9" font-family="Arial" font-size="14.00" fill="#000000">name </text>
<text text-anchor="start" x="489.899" y="-143.9" font-family="Arial" font-size="14.00" fill="#666666">[varchar(255)]</text>
<polygon fill="none" stroke="#000000" points="444,-102.5 444,-132.5 646,-132.5 646,-102.5 444,-102.5"/>
<text text-anchor="start" x="451" y="-113.9" font-family="Arial" font-size="14.00" fill="#000000">mail_address </text>
<text text-anchor="start" x="538.1206" y="-113.9" font-family="Arial" font-size="14.00" fill="#666666">[varchar(255)]</text>
<polygon fill="none" stroke="#000000" points="444,-72.5 444,-102.5 646,-102.5 646,-72.5 444,-72.5"/>
<text text-anchor="start" x="450.8668" y="-83.9" font-family="Arial" font-size="14.00" fill="#000000">hashed_password </text>
<text text-anchor="start" x="568.3506" y="-83.9" font-family="Arial" font-size="14.00" fill="#666666">[binary(60)]</text>
<polygon fill="none" stroke="#000000" points="444,-42.5 444,-72.5 646,-72.5 646,-42.5 444,-42.5"/>
<text text-anchor="start" x="451" y="-53.9" font-family="Arial" font-size="14.00" fill="#000000">type </text>
<text text-anchor="start" x="481.3464" y="-53.9" font-family="Arial" font-size="14.00" fill="#666666">[enum(&#39;student&#39;,&#39;faculty&#39;)]</text>
</g>
<!-- attendances&#45;&gt;users -->
<g id="edge4" class="edge">
<title>attendances:user_id&#45;&gt;users:id</title>
<path fill="none" stroke="#000000" d="M229.7846,-1187.8754C170.8749,-1180.168 198.3359,-1102.5649 187,-1035 167.0705,-916.2158 162.3051,-881.8856 187,-764 245.3508,-485.4519 159.4059,-177.5 444,-177.5"/>
<polygon fill="#000000" stroke="#000000" points="230.0186,-1187.8896 239.7253,-1192.9916 235.0093,-1188.1948 240,-1188.5 240,-1188.5 240,-1188.5 235.0093,-1188.1948 240.2747,-1184.0084 230.0186,-1187.8896 230.0186,-1187.8896"/>
<text text-anchor="start" x="6.945" y="-1198.5" font-family="Arial" font-size="10.00" fill="#000000">FOREIGN KEY (user_id) REFERENCES users (id)</text>
</g>
<!-- classes&#45;&gt;courses -->
<g id="edge5" class="edge">
<title>classes:course_id&#45;&gt;courses:id</title>
<path fill="none" stroke="#000000" d="M882.829,-910.6705C831.6256,-901.5784 866.2105,-819.7388 893,-764 904.095,-740.9154 926.905,-751.0846 938,-728 956.0014,-690.5458 979.5556,-634.5 938,-634.5"/>
<polygon fill="#000000" stroke="#000000" points="883.0331,-910.687 892.6342,-915.9851 888.0165,-911.0935 893,-911.5 893,-911.5 893,-911.5 888.0165,-911.0935 893.3658,-907.0149 883.0331,-910.687 883.0331,-910.687"/>
<text text-anchor="start" x="900.386" y="-921.5" font-family="Arial" font-size="10.00" fill="#000000">FOREIGN KEY (course_id) REFERENCES courses (id)</text>
</g>
<!-- course_requirements -->
<g id="node5" class="node">
<title>course_requirements</title>
<polygon fill="#efefef" stroke="transparent" points="509,-911.5 509,-946.5 789,-946.5 789,-911.5 509,-911.5"/>
<polygon fill="none" stroke="#000000" points="509,-911.5 509,-946.5 789,-946.5 789,-911.5 509,-911.5"/>
<text text-anchor="start" x="515.8595" y="-924.3" font-family="Arial Bold" font-size="18.00" fill="#000000">course_requirements</text>
<text text-anchor="start" x="684.8867" y="-924.3" font-family="Arial" font-size="14.00" fill="#000000"> </text>
<text text-anchor="start" x="688.7773" y="-924.3" font-family="Arial" font-size="14.00" fill="#666666">[BASE TABLE]</text>
<polygon fill="none" stroke="#000000" points="509,-881.5 509,-911.5 789,-911.5 789,-881.5 509,-881.5"/>
<text text-anchor="start" x="516" y="-892.9" font-family="Arial" font-size="14.00" fill="#000000">course_id </text>
<text text-anchor="start" x="580.5708" y="-892.9" font-family="Arial" font-size="14.00" fill="#666666">[char(36)]</text>
<polygon fill="none" stroke="#000000" points="509,-851.5 509,-881.5 789,-881.5 789,-851.5 509,-851.5"/>
<text text-anchor="start" x="516" y="-862.9" font-family="Arial" font-size="14.00" fill="#000000">required_course_id </text>
<text text-anchor="start" x="639.6942" y="-862.9" font-family="Arial" font-size="14.00" fill="#666666">[char(36)]</text>
</g>
<!-- course_requirements&#45;&gt;courses -->
<g id="edge6" class="edge">
<title>course_requirements:course_id&#45;&gt;courses:id</title>
<path fill="none" stroke="#000000" d="M799.0718,-894.9304C823.7215,-885.896 805.3978,-839.8523 789,-809 758.8008,-752.1805 699.1992,-784.8195 669,-728 649.497,-691.3053 627.4444,-634.5 669,-634.5"/>
<polygon fill="#000000" stroke="#000000" points="798.8807,-894.9601 788.307,-892.0537 793.9404,-895.73 789,-896.5 789,-896.5 789,-896.5 793.9404,-895.73 789.693,-900.9463 798.8807,-894.9601 798.8807,-894.9601"/>
<text text-anchor="start" x="535.386" y="-906.5" font-family="Arial" font-size="10.00" fill="#000000">FOREIGN KEY (course_id) REFERENCES courses (id)</text>
</g>
<!-- course_requirements&#45;&gt;courses -->
<g id="edge7" class="edge">
<title>course_requirements:required_course_id&#45;&gt;courses:id</title>
<path fill="none" stroke="#000000" d="M798.917,-863.6442C809.94,-854.8569 798.9324,-827.6877 789,-809 758.8008,-752.1805 699.1992,-784.8195 669,-728 649.497,-691.3053 627.4444,-634.5 669,-634.5"/>
<polygon fill="#000000" stroke="#000000" points="798.6095,-863.7327 787.7547,-862.1757 793.8048,-865.1163 789,-866.5 789,-866.5 789,-866.5 793.8048,-865.1163 790.2453,-870.8243 798.6095,-863.7327 798.6095,-863.7327"/>
<text text-anchor="start" x="796.2705" y="-876.5" font-family="Arial" font-size="10.00" fill="#000000">FOREIGN KEY (required_course_id) REFERENCES courses (id)</text>
</g>
<!-- course_schedules -->
<g id="node6" class="node">
<title>course_schedules</title>
<polygon fill="#efefef" stroke="transparent" points="1866,-911.5 1866,-946.5 2122,-946.5 2122,-911.5 1866,-911.5"/>
<polygon fill="none" stroke="#000000" points="1866,-911.5 1866,-946.5 2122,-946.5 2122,-911.5 1866,-911.5"/>
<text text-anchor="start" x="1872.852" y="-924.3" font-family="Arial Bold" font-size="18.00" fill="#000000">course_schedules</text>
<text text-anchor="start" x="2017.8942" y="-924.3" font-family="Arial" font-size="14.00" fill="#000000"> </text>
<text text-anchor="start" x="2021.7848" y="-924.3" font-family="Arial" font-size="14.00" fill="#666666">[BASE TABLE]</text>
<polygon fill="none" stroke="#000000" points="1866,-881.5 1866,-911.5 2122,-911.5 2122,-881.5 1866,-881.5"/>
<text text-anchor="start" x="1873" y="-892.9" font-family="Arial" font-size="14.00" fill="#000000">course_id </text>
<text text-anchor="start" x="1937.5708" y="-892.9" font-family="Arial" font-size="14.00" fill="#666666">[char(36)]</text>
<polygon fill="none" stroke="#000000" points="1866,-851.5 1866,-881.5 2122,-881.5 2122,-851.5 1866,-851.5"/>
<text text-anchor="start" x="1873" y="-862.9" font-family="Arial" font-size="14.00" fill="#000000">schedule_id </text>
<text text-anchor="start" x="1951.582" y="-862.9" font-family="Arial" font-size="14.00" fill="#666666">[char(36)]</text>
</g>
<!-- course_schedules&#45;&gt;courses -->
<g id="edge8" class="edge">
<title>course_schedules:course_id&#45;&gt;courses:id</title>
<path fill="none" stroke="#000000" d="M1855.8282,-895.4996C1809.77,-885.3225 1861.1465,-800.184 1814,-764 1757.4073,-720.5662 1565.6474,-737.9086 1495,-728 1246.4139,-693.1348 1189.0192,-634.5 938,-634.5"/>
<polygon fill="#000000" stroke="#000000" points="1856.048,-895.5211 1865.5595,-900.9784 1861.024,-896.0105 1866,-896.5 1866,-896.5 1866,-896.5 1861.024,-896.0105 1866.4405,-892.0216 1856.048,-895.5211 1856.048,-895.5211"/>
<text text-anchor="start" x="1873.386" y="-906.5" font-family="Arial" font-size="10.00" fill="#000000">FOREIGN KEY (course_id) REFERENCES courses (id)</text>
</g>
<!-- schedules -->
<g id="node12" class="node">
<title>schedules</title>
<polygon fill="#efefef" stroke="transparent" points="1547,-574.5 1547,-609.5 2122,-609.5 2122,-574.5 1547,-574.5"/>
<polygon fill="none" stroke="#000000" points="1547,-574.5 1547,-609.5 2122,-609.5 2122,-574.5 1547,-574.5"/>
<text text-anchor="start" x="1745.3605" y="-587.3" font-family="Arial Bold" font-size="18.00" fill="#000000">schedules</text>
<text text-anchor="start" x="1826.3857" y="-587.3" font-family="Arial" font-size="14.00" fill="#000000"> </text>
<text text-anchor="start" x="1830.2763" y="-587.3" font-family="Arial" font-size="14.00" fill="#666666">[BASE TABLE]</text>
<polygon fill="none" stroke="#000000" points="1547,-544.5 1547,-574.5 2122,-574.5 2122,-544.5 1547,-544.5"/>
<text text-anchor="start" x="1554" y="-555.9" font-family="Arial" font-size="14.00" fill="#000000">id </text>
<text text-anchor="start" x="1568.7798" y="-555.9" font-family="Arial" font-size="14.00" fill="#666666">[char(36)]</text>
<polygon fill="none" stroke="#000000" points="1547,-514.5 1547,-544.5 2122,-544.5 2122,-514.5 1547,-514.5"/>
<text text-anchor="start" x="1554" y="-525.9" font-family="Arial" font-size="14.00" fill="#000000">period </text>
<text text-anchor="start" x="1596.7882" y="-525.9" font-family="Arial" font-size="14.00" fill="#666666">[tinyint unsigned]</text>
<polygon fill="none" stroke="#000000" points="1547,-484.5 1547,-514.5 2122,-514.5 2122,-484.5 1547,-484.5"/>
<text text-anchor="start" x="1553.7762" y="-495.9" font-family="Arial" font-size="14.00" fill="#000000">day_of_week </text>
<text text-anchor="start" x="1640.1422" y="-495.9" font-family="Arial" font-size="14.00" fill="#666666">[enum(&#39;sunday&#39;,&#39;monday&#39;,&#39;tuesday&#39;,&#39;wednesday&#39;,&#39;thursday&#39;,&#39;friday&#39;,&#39;saturday&#39;)]</text>
<polygon fill="none" stroke="#000000" points="1547,-454.5 1547,-484.5 2122,-484.5 2122,-454.5 1547,-454.5"/>
<text text-anchor="start" x="1554" y="-465.9" font-family="Arial" font-size="14.00" fill="#000000">semester </text>
<text text-anchor="start" x="1615.4502" y="-465.9" font-family="Arial" font-size="14.00" fill="#666666">[enum(&#39;first&#39;,&#39;second&#39;)]</text>
<polygon fill="none" stroke="#000000" points="1547,-424.5 1547,-454.5 2122,-454.5 2122,-424.5 1547,-424.5"/>
<text text-anchor="start" x="1554" y="-435.9" font-family="Arial" font-size="14.00" fill="#000000">year </text>
<text text-anchor="start" x="1585.1164" y="-435.9" font-family="Arial" font-size="14.00" fill="#666666">[int unsigned]</text>
</g>
<!-- course_schedules&#45;&gt;schedules -->
<g id="edge9" class="edge">
<title>course_schedules:schedule_id&#45;&gt;schedules:id</title>
<path fill="none" stroke="#000000" d="M1856.0448,-863.6233C1844.9117,-854.7758 1855.6362,-827.4519 1866,-809 1931.2481,-692.8312 2056.7519,-769.1688 2122,-653 2142.3501,-616.7683 2163.5556,-559.5 2122,-559.5"/>
<polygon fill="#000000" stroke="#000000" points="1856.393,-863.7239 1864.7508,-870.8231 1861.1965,-865.1119 1866,-866.5 1866,-866.5 1866,-866.5 1861.1965,-865.1119 1867.2492,-862.1769 1856.393,-863.7239 1856.393,-863.7239"/>
<text text-anchor="start" x="1873.378" y="-876.5" font-family="Arial" font-size="10.00" fill="#000000">FOREIGN KEY (schedule_id) REFERENCES schedules (id)</text>
</g>
<!-- courses&#45;&gt;users -->
<g id="edge10" class="edge">
<title>courses:teacher_id&#45;&gt;users:id</title>
<path fill="none" stroke="#000000" d="M658.8293,-393.5325C584.9635,-377.878 739.1962,-177.5 646,-177.5"/>
<polygon fill="#000000" stroke="#000000" points="659.0449,-393.5529 668.5738,-398.9798 664.0225,-394.0265 669,-394.5 669,-394.5 669,-394.5 664.0225,-394.0265 669.4262,-390.0202 659.0449,-393.5529 659.0449,-393.5529"/>
<text text-anchor="start" x="421.9965" y="-404.5" font-family="Arial" font-size="10.00" fill="#000000">FOREIGN KEY (teacher_id) REFERENCES users (id)</text>
</g>
<!-- documents -->
<g id="node8" class="node">
<title>documents</title>
<polygon fill="#efefef" stroke="transparent" points="590,-1248.5 590,-1283.5 789,-1283.5 789,-1248.5 590,-1248.5"/>
<polygon fill="none" stroke="#000000" points="590,-1248.5 590,-1283.5 789,-1283.5 789,-1248.5 590,-1248.5"/>
<text text-anchor="start" x="596.8604" y="-1261.3" font-family="Arial Bold" font-size="18.00" fill="#000000">documents</text>
<text text-anchor="start" x="684.8858" y="-1261.3" font-family="Arial" font-size="14.00" fill="#000000"> </text>
<text text-anchor="start" x="688.7764" y="-1261.3" font-family="Arial" font-size="14.00" fill="#666666">[BASE TABLE]</text>
<polygon fill="none" stroke="#000000" points="590,-1218.5 590,-1248.5 789,-1248.5 789,-1218.5 590,-1218.5"/>
<text text-anchor="start" x="597" y="-1229.9" font-family="Arial" font-size="14.00" fill="#000000">id </text>
<text text-anchor="start" x="611.7798" y="-1229.9" font-family="Arial" font-size="14.00" fill="#666666">[char(36)]</text>
<polygon fill="none" stroke="#000000" points="590,-1188.5 590,-1218.5 789,-1218.5 789,-1188.5 590,-1188.5"/>
<text text-anchor="start" x="597" y="-1199.9" font-family="Arial" font-size="14.00" fill="#000000">class_id </text>
<text text-anchor="start" x="651.4516" y="-1199.9" font-family="Arial" font-size="14.00" fill="#666666">[char(36)]</text>
<polygon fill="none" stroke="#000000" points="590,-1158.5 590,-1188.5 789,-1188.5 789,-1158.5 590,-1158.5"/>
<text text-anchor="start" x="597" y="-1169.9" font-family="Arial" font-size="14.00" fill="#000000">name </text>
<text text-anchor="start" x="635.899" y="-1169.9" font-family="Arial" font-size="14.00" fill="#666666">[text]</text>
<polygon fill="none" stroke="#000000" points="590,-1128.5 590,-1158.5 789,-1158.5 789,-1128.5 590,-1128.5"/>
<text text-anchor="start" x="597" y="-1139.9" font-family="Arial" font-size="14.00" fill="#000000">created_at </text>
<text text-anchor="start" x="667.028" y="-1139.9" font-family="Arial" font-size="14.00" fill="#666666">[datetime(6)]</text>
</g>
<!-- documents&#45;&gt;classes -->
<g id="edge11" class="edge">
<title>documents:class_id&#45;&gt;classes:id</title>
<path fill="none" stroke="#000000" d="M799.1436,-1202.7587C848.4054,-1194.9142 819.0255,-1126.3525 841,-1071 863.8849,-1013.3541 830.9777,-941.5 893,-941.5"/>
<polygon fill="#000000" stroke="#000000" points="798.9734,-1202.7711 788.672,-1199.012 793.9867,-1203.1355 789,-1203.5 789,-1203.5 789,-1203.5 793.9867,-1203.1355 789.328,-1207.988 798.9734,-1202.7711 798.9734,-1202.7711"/>
<text text-anchor="start" x="669.8345" y="-1187.5" font-family="Arial" font-size="10.00" fill="#000000">FOREIGN KEY (class_id) REFERENCES classes (id)</text>
</g>
<!-- grades -->
<g id="node9" class="node">
<title>grades</title>
<polygon fill="#efefef" stroke="transparent" points="239,-956.5 239,-991.5 405,-991.5 405,-956.5 239,-956.5"/>
<polygon fill="none" stroke="#000000" points="239,-956.5 239,-991.5 405,-991.5 405,-956.5 239,-956.5"/>
<text text-anchor="start" x="245.8646" y="-969.3" font-family="Arial Bold" font-size="18.00" fill="#000000">grades</text>
<text text-anchor="start" x="300.8816" y="-969.3" font-family="Arial" font-size="14.00" fill="#000000"> </text>
<text text-anchor="start" x="304.7722" y="-969.3" font-family="Arial" font-size="14.00" fill="#666666">[BASE TABLE]</text>
<polygon fill="none" stroke="#000000" points="239,-926.5 239,-956.5 405,-956.5 405,-926.5 239,-926.5"/>
<text text-anchor="start" x="246" y="-937.9" font-family="Arial" font-size="14.00" fill="#000000">id </text>
<text text-anchor="start" x="260.7798" y="-937.9" font-family="Arial" font-size="14.00" fill="#666666">[char(36)]</text>
<polygon fill="none" stroke="#000000" points="239,-896.5 239,-926.5 405,-926.5 405,-896.5 239,-896.5"/>
<text text-anchor="start" x="246" y="-907.9" font-family="Arial" font-size="14.00" fill="#000000">user_id </text>
<text text-anchor="start" x="295.7882" y="-907.9" font-family="Arial" font-size="14.00" fill="#666666">[char(36)]</text>
<polygon fill="none" stroke="#000000" points="239,-866.5 239,-896.5 405,-896.5 405,-866.5 239,-866.5"/>
<text text-anchor="start" x="246" y="-877.9" font-family="Arial" font-size="14.00" fill="#000000">course_id </text>
<text text-anchor="start" x="310.5708" y="-877.9" font-family="Arial" font-size="14.00" fill="#666666">[char(36)]</text>
<polygon fill="none" stroke="#000000" points="239,-836.5 239,-866.5 405,-866.5 405,-836.5 239,-836.5"/>
<text text-anchor="start" x="246" y="-847.9" font-family="Arial" font-size="14.00" fill="#000000">grade </text>
<text text-anchor="start" x="285.6816" y="-847.9" font-family="Arial" font-size="14.00" fill="#666666">[int unsigned]</text>
<polygon fill="none" stroke="#000000" points="239,-806.5 239,-836.5 405,-836.5 405,-806.5 239,-806.5"/>
<text text-anchor="start" x="246" y="-817.9" font-family="Arial" font-size="14.00" fill="#000000">created_at </text>
<text text-anchor="start" x="316.028" y="-817.9" font-family="Arial" font-size="14.00" fill="#666666">[datetime(6)]</text>
</g>
<!-- grades&#45;&gt;courses -->
<g id="edge12" class="edge">
<title>grades:course_id&#45;&gt;courses:id</title>
<path fill="none" stroke="#000000" d="M415.1087,-880.5448C456.7852,-871.7383 421.8631,-804.0989 457,-764 529.7648,-680.9594 558.5895,-634.5 669,-634.5"/>
<polygon fill="#000000" stroke="#000000" points="414.9557,-880.5592 404.5767,-877.02 409.9778,-881.0296 405,-881.5 405,-881.5 405,-881.5 409.9778,-881.0296 405.4233,-885.98 414.9557,-880.5592 414.9557,-880.5592"/>
<text text-anchor="start" x="151.386" y="-891.5" font-family="Arial" font-size="10.00" fill="#000000">FOREIGN KEY (course_id) REFERENCES courses (id)</text>
</g>
<!-- grades&#45;&gt;users -->
<g id="edge13" class="edge">
<title>grades:user_id&#45;&gt;users:id</title>
<path fill="none" stroke="#000000" d="M414.4195,-907.5509C476.3654,-849.7771 365.8387,-177.5 444,-177.5"/>
<polygon fill="#000000" stroke="#000000" points="414.2223,-907.6335 403.2601,-907.35 409.6111,-909.5667 405,-911.5 405,-911.5 405,-911.5 409.6111,-909.5667 406.7399,-915.65 414.2223,-907.6335 414.2223,-907.6335"/>
<text text-anchor="start" x="171.945" y="-921.5" font-family="Arial" font-size="10.00" fill="#000000">FOREIGN KEY (user_id) REFERENCES users (id)</text>
</g>
<!-- phase -->
<g id="node10" class="node">
<title>phase</title>
<polygon fill="#efefef" stroke="transparent" points="773,-1540.5 773,-1575.5 1113,-1575.5 1113,-1540.5 773,-1540.5"/>
<polygon fill="none" stroke="#000000" points="773,-1540.5 773,-1575.5 1113,-1575.5 1113,-1540.5 773,-1540.5"/>
<text text-anchor="start" x="869.8607" y="-1553.3" font-family="Arial Bold" font-size="18.00" fill="#000000">phase</text>
<text text-anchor="start" x="918.8855" y="-1553.3" font-family="Arial" font-size="14.00" fill="#000000"> </text>
<text text-anchor="start" x="922.7761" y="-1553.3" font-family="Arial" font-size="14.00" fill="#666666">[BASE TABLE]</text>
<polygon fill="none" stroke="#000000" points="773,-1510.5 773,-1540.5 1113,-1540.5 1113,-1510.5 773,-1510.5"/>
<text text-anchor="start" x="779.7117" y="-1521.9" font-family="Arial" font-size="14.00" fill="#000000">phase </text>
<text text-anchor="start" x="821.7327" y="-1521.9" font-family="Arial" font-size="14.00" fill="#666666">[enum(&#39;registration&#39;,&#39;term&#45;time&#39;,&#39;exam&#45;period&#39;)]</text>
<polygon fill="none" stroke="#000000" points="773,-1480.5 773,-1510.5 1113,-1510.5 1113,-1480.5 773,-1480.5"/>
<text text-anchor="start" x="780" y="-1491.9" font-family="Arial" font-size="14.00" fill="#000000">year </text>
<text text-anchor="start" x="811.1164" y="-1491.9" font-family="Arial" font-size="14.00" fill="#666666">[int unsigned]</text>
<polygon fill="none" stroke="#000000" points="773,-1450.5 773,-1480.5 1113,-1480.5 1113,-1450.5 773,-1450.5"/>
<text text-anchor="start" x="780" y="-1461.9" font-family="Arial" font-size="14.00" fill="#000000">semester </text>
<text text-anchor="start" x="841.4502" y="-1461.9" font-family="Arial" font-size="14.00" fill="#666666">[enum(&#39;first&#39;,&#39;second&#39;)]</text>
</g>
<!-- registrations -->
<g id="node11" class="node">
<title>registrations</title>
<polygon fill="#efefef" stroke="transparent" points="1553,-941.5 1553,-976.5 1762,-976.5 1762,-941.5 1553,-941.5"/>
<polygon fill="none" stroke="#000000" points="1553,-941.5 1553,-976.5 1762,-976.5 1762,-941.5 1553,-941.5"/>
<text text-anchor="start" x="1559.869" y="-954.3" font-family="Arial Bold" font-size="18.00" fill="#000000">registrations</text>
<text text-anchor="start" x="1657.8772" y="-954.3" font-family="Arial" font-size="14.00" fill="#000000"> </text>
<text text-anchor="start" x="1661.7678" y="-954.3" font-family="Arial" font-size="14.00" fill="#666666">[BASE TABLE]</text>
<polygon fill="none" stroke="#000000" points="1553,-911.5 1553,-941.5 1762,-941.5 1762,-911.5 1553,-911.5"/>
<text text-anchor="start" x="1560" y="-922.9" font-family="Arial" font-size="14.00" fill="#000000">course_id </text>
<text text-anchor="start" x="1624.5708" y="-922.9" font-family="Arial" font-size="14.00" fill="#666666">[char(36)]</text>
<polygon fill="none" stroke="#000000" points="1553,-881.5 1553,-911.5 1762,-911.5 1762,-881.5 1553,-881.5"/>
<text text-anchor="start" x="1560" y="-892.9" font-family="Arial" font-size="14.00" fill="#000000">user_id </text>
<text text-anchor="start" x="1609.7882" y="-892.9" font-family="Arial" font-size="14.00" fill="#666666">[char(36)]</text>
<polygon fill="none" stroke="#000000" points="1553,-851.5 1553,-881.5 1762,-881.5 1762,-851.5 1553,-851.5"/>
<text text-anchor="start" x="1560" y="-862.9" font-family="Arial" font-size="14.00" fill="#000000">created_at </text>
<text text-anchor="start" x="1630.028" y="-862.9" font-family="Arial" font-size="14.00" fill="#666666">[datetime(6)]</text>
<polygon fill="none" stroke="#000000" points="1553,-821.5 1553,-851.5 1762,-851.5 1762,-821.5 1553,-821.5"/>
<text text-anchor="start" x="1560" y="-832.9" font-family="Arial" font-size="14.00" fill="#000000">deleted_at </text>
<text text-anchor="start" x="1629.2566" y="-832.9" font-family="Arial" font-size="14.00" fill="#666666">[datetime(6)]</text>
</g>
<!-- registrations&#45;&gt;courses -->
<g id="edge14" class="edge">
<title>registrations:course_id&#45;&gt;courses:id</title>
<path fill="none" stroke="#000000" d="M1542.9911,-925.7007C1484.9094,-915.4571 1557.0027,-809.4537 1501,-764 1440.2914,-714.7268 1226.5989,-747.9547 1151,-728 1051.0378,-701.6145 1041.3859,-634.5 938,-634.5"/>
<polygon fill="#000000" stroke="#000000" points="1543.0317,-925.7038 1552.6417,-930.9857 1548.0159,-926.1019 1553,-926.5 1553,-926.5 1553,-926.5 1548.0159,-926.1019 1553.3583,-922.0143 1543.0317,-925.7038 1543.0317,-925.7038"/>
<text text-anchor="start" x="1560.386" y="-936.5" font-family="Arial" font-size="10.00" fill="#000000">FOREIGN KEY (course_id) REFERENCES courses (id)</text>
</g>
<!-- registrations&#45;&gt;users -->
<g id="edge15" class="edge">
<title>registrations:user_id&#45;&gt;users:id</title>
<path fill="none" stroke="#000000" d="M1542.9805,-895.6921C1495.0064,-887.1558 1535.0213,-812.8808 1501,-764 1326.7557,-513.6511 1249.8521,-465.0881 989,-307 849.6465,-222.5455 808.9477,-177.5 646,-177.5"/>
<polygon fill="#000000" stroke="#000000" points="1543.0324,-895.6961 1552.6383,-900.9854 1548.0162,-896.0981 1553,-896.5 1553,-896.5 1553,-896.5 1548.0162,-896.0981 1553.3617,-892.0146 1543.0324,-895.6961 1543.0324,-895.6961"/>
<text text-anchor="start" x="1499.945" y="-880.5" font-family="Arial" font-size="10.00" fill="#000000">FOREIGN KEY (user_id) REFERENCES users (id)</text>
</g>
<!-- submissions -->
<g id="node13" class="node">
<title>submissions</title>
<polygon fill="#efefef" stroke="transparent" points="459,-1570.5 459,-1605.5 669,-1605.5 669,-1570.5 459,-1570.5"/>
<polygon fill="none" stroke="#000000" points="459,-1570.5 459,-1605.5 669,-1605.5 669,-1570.5 459,-1570.5"/>
<text text-anchor="start" x="465.8704" y="-1583.3" font-family="Arial Bold" font-size="18.00" fill="#000000">submissions</text>
<text text-anchor="start" x="564.8758" y="-1583.3" font-family="Arial" font-size="14.00" fill="#000000"> </text>
<text text-anchor="start" x="568.7664" y="-1583.3" font-family="Arial" font-size="14.00" fill="#666666">[BASE TABLE]</text>
<polygon fill="none" stroke="#000000" points="459,-1540.5 459,-1570.5 669,-1570.5 669,-1540.5 459,-1540.5"/>
<text text-anchor="start" x="466" y="-1551.9" font-family="Arial" font-size="14.00" fill="#000000">id </text>
<text text-anchor="start" x="480.7798" y="-1551.9" font-family="Arial" font-size="14.00" fill="#666666">[char(36)]</text>
<polygon fill="none" stroke="#000000" points="459,-1510.5 459,-1540.5 669,-1540.5 669,-1510.5 459,-1510.5"/>
<text text-anchor="start" x="466" y="-1521.9" font-family="Arial" font-size="14.00" fill="#000000">user_id </text>
<text text-anchor="start" x="515.7882" y="-1521.9" font-family="Arial" font-size="14.00" fill="#666666">[char(36)]</text>
<polygon fill="none" stroke="#000000" points="459,-1480.5 459,-1510.5 669,-1510.5 669,-1480.5 459,-1480.5"/>
<text text-anchor="start" x="466" y="-1491.9" font-family="Arial" font-size="14.00" fill="#000000">assignment_id </text>
<text text-anchor="start" x="560.1332" y="-1491.9" font-family="Arial" font-size="14.00" fill="#666666">[char(36)]</text>
<polygon fill="none" stroke="#000000" points="459,-1450.5 459,-1480.5 669,-1480.5 669,-1450.5 459,-1450.5"/>
<text text-anchor="start" x="466" y="-1461.9" font-family="Arial" font-size="14.00" fill="#000000">name </text>
<text text-anchor="start" x="504.899" y="-1461.9" font-family="Arial" font-size="14.00" fill="#666666">[varchar(255)]</text>
<polygon fill="none" stroke="#000000" points="459,-1420.5 459,-1450.5 669,-1450.5 669,-1420.5 459,-1420.5"/>
<text text-anchor="start" x="466" y="-1431.9" font-family="Arial" font-size="14.00" fill="#000000">created_at </text>
<text text-anchor="start" x="536.028" y="-1431.9" font-family="Arial" font-size="14.00" fill="#666666">[datetime(6)]</text>
</g>
<!-- submissions&#45;&gt;assignments -->
<g id="edge16" class="edge">
<title>submissions:assignment_id&#45;&gt;assignments:id</title>
<path fill="none" stroke="#000000" d="M679.0451,-1494.4815C720.1469,-1485.1028 681.0568,-1413.3138 721,-1378 762.3972,-1341.4008 796.8419,-1376.5052 840,-1342 877.3091,-1312.1711 845.2326,-1248.5 893,-1248.5"/>
<polygon fill="#000000" stroke="#000000" points="678.949,-1494.4912 668.546,-1491.023 673.9745,-1494.9956 669,-1495.5 669,-1495.5 669,-1495.5 673.9745,-1494.9956 669.454,-1499.977 678.949,-1494.4912 678.949,-1494.4912"/>
<text text-anchor="start" x="373.27" y="-1505.5" font-family="Arial" font-size="10.00" fill="#000000">FOREIGN KEY (assignment_id) REFERENCES assignments (id)</text>
</g>
<!-- submissions&#45;&gt;users -->
<g id="edge17" class="edge">
<title>submissions:user_id&#45;&gt;users:id</title>
<path fill="none" stroke="#000000" d="M448.8972,-1525.4059C310.6519,-1522.7884 257.9056,-1465.5018 187,-1342 72.4819,-1142.5347 65.9001,-500.0047 191,-307 259.7058,-201.0004 317.6814,-177.5 444,-177.5"/>
<polygon fill="#000000" stroke="#000000" points="449.0004,-1525.4067 458.958,-1529.9998 454.0002,-1525.4534 459,-1525.5 459,-1525.5 459,-1525.5 454.0002,-1525.4534 459.042,-1521.0002 449.0004,-1525.4067 449.0004,-1525.4067"/>
<text text-anchor="start" x="225.945" y="-1535.5" font-family="Arial" font-size="10.00" fill="#000000">FOREIGN KEY (user_id) REFERENCES users (id)</text>
</g>
<!-- unread_announcements -->
<g id="node14" class="node">
<title>unread_announcements</title>
<polygon fill="#efefef" stroke="transparent" points="1625,-1248.5 1625,-1283.5 1930,-1283.5 1930,-1248.5 1625,-1248.5"/>
<polygon fill="none" stroke="#000000" points="1625,-1248.5 1625,-1283.5 1930,-1283.5 1930,-1248.5 1625,-1248.5"/>
<text text-anchor="start" x="1631.8333" y="-1261.3" font-family="Arial Bold" font-size="18.00" fill="#000000">unread_announcements</text>
<text text-anchor="start" x="1825.9129" y="-1261.3" font-family="Arial" font-size="14.00" fill="#000000"> </text>
<text text-anchor="start" x="1829.8035" y="-1261.3" font-family="Arial" font-size="14.00" fill="#666666">[BASE TABLE]</text>
<polygon fill="none" stroke="#000000" points="1625,-1218.5 1625,-1248.5 1930,-1248.5 1930,-1218.5 1625,-1218.5"/>
<text text-anchor="start" x="1632" y="-1229.9" font-family="Arial" font-size="14.00" fill="#000000">announcement_id </text>
<text text-anchor="start" x="1747.157" y="-1229.9" font-family="Arial" font-size="14.00" fill="#666666">[char(36)]</text>
<polygon fill="none" stroke="#000000" points="1625,-1188.5 1625,-1218.5 1930,-1218.5 1930,-1188.5 1625,-1188.5"/>
<text text-anchor="start" x="1632" y="-1199.9" font-family="Arial" font-size="14.00" fill="#000000">user_id </text>
<text text-anchor="start" x="1681.7882" y="-1199.9" font-family="Arial" font-size="14.00" fill="#666666">[char(36)]</text>
<polygon fill="none" stroke="#000000" points="1625,-1158.5 1625,-1188.5 1930,-1188.5 1930,-1158.5 1625,-1158.5"/>
<text text-anchor="start" x="1632" y="-1169.9" font-family="Arial" font-size="14.00" fill="#000000">created_at </text>
<text text-anchor="start" x="1702.028" y="-1169.9" font-family="Arial" font-size="14.00" fill="#666666">[datetime(6)]</text>
<polygon fill="none" stroke="#000000" points="1625,-1128.5 1625,-1158.5 1930,-1158.5 1930,-1128.5 1625,-1128.5"/>
<text text-anchor="start" x="1632" y="-1139.9" font-family="Arial" font-size="14.00" fill="#000000">deleted_at </text>
<text text-anchor="start" x="1701.2566" y="-1139.9" font-family="Arial" font-size="14.00" fill="#666666">[datetime(6)]</text>
</g>
<!-- unread_announcements&#45;&gt;announcements -->
<g id="edge18" class="edge">
<title>unread_announcements:announcement_id&#45;&gt;announcements:id</title>
<path fill="none" stroke="#000000" d="M1614.8047,-1233.1234C1523.1259,-1226.0778 1552.0454,-1121.5317 1501,-1035 1476.8405,-994.0451 1496.5498,-941.5 1449,-941.5"/>
<polygon fill="#000000" stroke="#000000" points="1615.0068,-1233.1308 1624.8339,-1237.9969 1620.0034,-1233.3154 1625,-1233.5 1625,-1233.5 1625,-1233.5 1620.0034,-1233.3154 1625.1661,-1229.0031 1615.0068,-1233.1308 1615.0068,-1233.1308"/>
<text text-anchor="start" x="1299.253" y="-1243.5" font-family="Arial" font-size="10.00" fill="#000000">FOREIGN KEY (announcement_id) REFERENCES announcements (id)</text>
</g>
<!-- unread_announcements&#45;&gt;users -->
<g id="edge19" class="edge">
<title>unread_announcements:user_id&#45;&gt;users:id</title>
<path fill="none" stroke="#000000" d="M1940.2579,-1203.3917C2064.4852,-1200.7233 2114.3816,-1148.6237 2174,-1035 2249.1662,-891.7447 2283.4574,-426.1265 2174,-307 2058.718,-181.5345 816.3864,-177.5 646,-177.5"/>
<polygon fill="#000000" stroke="#000000" points="1939.9994,-1203.3944 1929.9525,-1199.0003 1934.9997,-1203.4472 1930,-1203.5 1930,-1203.5 1930,-1203.5 1934.9997,-1203.4472 1930.0475,-1207.9997 1939.9994,-1203.3944 1939.9994,-1203.3944"/>
<text text-anchor="start" x="1936.945" y="-1213.5" font-family="Arial" font-size="10.00" fill="#000000">FOREIGN KEY (user_id) REFERENCES users (id)</text>
</g>
</g>
</svg>
