<?xml version="1.0" encoding="UTF-8" standalone="no"?>
<!DOCTYPE svg PUBLIC "-//W3C//DTD SVG 1.1//EN"
 "http://www.w3.org/Graphics/SVG/1.1/DTD/svg11.dtd">
<!-- Generated by graphviz version 2.40.1 (20161225.0304)
 -->
<!-- Title: isucholar Pages: 1 -->
<svg width="2759pt" height="953pt"
 viewBox="0.00 0.00 2759.00 953.00" xmlns="http://www.w3.org/2000/svg" xmlns:xlink="http://www.w3.org/1999/xlink">
<g id="graph0" class="graph" transform="scale(1 1) rotate(0) translate(4 949)">
<title>isucholar</title>
<polygon fill="#ffffff" stroke="transparent" points="-4,4 -4,-949 2755,-949 2755,4 -4,4"/>
<!-- announcements -->
<g id="node1" class="node">
<title>announcements</title>
<polygon fill="#efefef" stroke="transparent" points="290,-529.5 290,-564.5 529,-564.5 529,-529.5 290,-529.5"/>
<polygon fill="none" stroke="#000000" points="290,-529.5 290,-564.5 529,-564.5 529,-529.5 290,-529.5"/>
<text text-anchor="start" x="296.848" y="-542.3" font-family="Arial Bold" font-size="18.00" fill="#000000">announcements</text>
<text text-anchor="start" x="424.8982" y="-542.3" font-family="Arial" font-size="14.00" fill="#000000"> </text>
<text text-anchor="start" x="428.7888" y="-542.3" font-family="Arial" font-size="14.00" fill="#666666">[BASE TABLE]</text>
<polygon fill="none" stroke="#000000" points="290,-499.5 290,-529.5 529,-529.5 529,-499.5 290,-499.5"/>
<text text-anchor="start" x="297" y="-510.9" font-family="Arial" font-size="14.00" fill="#000000">id </text>
<text text-anchor="start" x="311.7798" y="-510.9" font-family="Arial" font-size="14.00" fill="#666666">[char(36)]</text>
<polygon fill="none" stroke="#000000" points="290,-469.5 290,-499.5 529,-499.5 529,-469.5 290,-469.5"/>
<text text-anchor="start" x="297" y="-480.9" font-family="Arial" font-size="14.00" fill="#000000">course_id </text>
<text text-anchor="start" x="361.5708" y="-480.9" font-family="Arial" font-size="14.00" fill="#666666">[char(36)]</text>
<polygon fill="none" stroke="#000000" points="290,-439.5 290,-469.5 529,-469.5 529,-439.5 290,-439.5"/>
<text text-anchor="start" x="297" y="-450.9" font-family="Arial" font-size="14.00" fill="#000000">title </text>
<text text-anchor="start" x="322.6676" y="-450.9" font-family="Arial" font-size="14.00" fill="#666666">[varchar(255)]</text>
<polygon fill="none" stroke="#000000" points="290,-409.5 290,-439.5 529,-439.5 529,-409.5 290,-409.5"/>
<text text-anchor="start" x="297" y="-420.9" font-family="Arial" font-size="14.00" fill="#000000">message </text>
<text text-anchor="start" x="357.6816" y="-420.9" font-family="Arial" font-size="14.00" fill="#666666">[text]</text>
<polygon fill="none" stroke="#000000" points="290,-379.5 290,-409.5 529,-409.5 529,-379.5 290,-379.5"/>
<text text-anchor="start" x="297" y="-390.9" font-family="Arial" font-size="14.00" fill="#000000">created_at </text>
<text text-anchor="start" x="367.028" y="-390.9" font-family="Arial" font-size="14.00" fill="#666666">[datetime(6)]</text>
</g>
<!-- courses -->
<g id="node7" class="node">
<title>courses</title>
<polygon fill="#efefef" stroke="transparent" points="686,-222.5 686,-257.5 860,-257.5 860,-222.5 686,-222.5"/>
<polygon fill="none" stroke="#000000" points="686,-222.5 686,-257.5 860,-257.5 860,-222.5 686,-222.5"/>
<text text-anchor="start" x="692.8677" y="-235.3" font-family="Arial Bold" font-size="18.00" fill="#000000">courses</text>
<text text-anchor="start" x="755.8785" y="-235.3" font-family="Arial" font-size="14.00" fill="#000000"> </text>
<text text-anchor="start" x="759.7691" y="-235.3" font-family="Arial" font-size="14.00" fill="#666666">[BASE TABLE]</text>
<polygon fill="none" stroke="#000000" points="686,-192.5 686,-222.5 860,-222.5 860,-192.5 686,-192.5"/>
<text text-anchor="start" x="693" y="-203.9" font-family="Arial" font-size="14.00" fill="#000000">id </text>
<text text-anchor="start" x="707.7798" y="-203.9" font-family="Arial" font-size="14.00" fill="#666666">[char(36)]</text>
<polygon fill="none" stroke="#000000" points="686,-162.5 686,-192.5 860,-192.5 860,-162.5 686,-162.5"/>
<text text-anchor="start" x="693" y="-173.9" font-family="Arial" font-size="14.00" fill="#000000">name </text>
<text text-anchor="start" x="731.899" y="-173.9" font-family="Arial" font-size="14.00" fill="#666666">[varchar(255)]</text>
<polygon fill="none" stroke="#000000" points="686,-132.5 686,-162.5 860,-162.5 860,-132.5 686,-132.5"/>
<text text-anchor="start" x="693" y="-143.9" font-family="Arial" font-size="14.00" fill="#000000">description </text>
<text text-anchor="start" x="764.568" y="-143.9" font-family="Arial" font-size="14.00" fill="#666666">[text]</text>
<polygon fill="none" stroke="#000000" points="686,-102.5 686,-132.5 860,-132.5 860,-102.5 686,-102.5"/>
<text text-anchor="start" x="693" y="-113.9" font-family="Arial" font-size="14.00" fill="#000000">credit </text>
<text text-anchor="start" x="731.1136" y="-113.9" font-family="Arial" font-size="14.00" fill="#666666">[tinyint unsigned]</text>
<polygon fill="none" stroke="#000000" points="686,-72.5 686,-102.5 860,-102.5 860,-72.5 686,-72.5"/>
<text text-anchor="start" x="693" y="-83.9" font-family="Arial" font-size="14.00" fill="#000000">classroom </text>
<text text-anchor="start" x="760.6662" y="-83.9" font-family="Arial" font-size="14.00" fill="#666666">[varchar(255)]</text>
<polygon fill="none" stroke="#000000" points="686,-42.5 686,-72.5 860,-72.5 860,-42.5 686,-42.5"/>
<text text-anchor="start" x="693" y="-53.9" font-family="Arial" font-size="14.00" fill="#000000">capacity </text>
<text text-anchor="start" x="748.2356" y="-53.9" font-family="Arial" font-size="14.00" fill="#666666">[int unsigned]</text>
</g>
<!-- announcements&#45;&gt;courses -->
<g id="edge1" class="edge">
<title>announcements:course_id&#45;&gt;courses:id</title>
<path fill="none" stroke="#000000" d="M539.0178,-483.7921C593.3211,-475.414 548.8494,-394.4617 581,-337 617.1803,-272.3362 611.9026,-207.5 686,-207.5"/>
<polygon fill="#000000" stroke="#000000" points="538.9751,-483.795 528.6828,-480.0112 533.9876,-484.1475 529,-484.5 529,-484.5 529,-484.5 533.9876,-484.1475 529.3172,-488.9888 538.9751,-483.795 538.9751,-483.795"/>
<text text-anchor="start" x="405.886" y="-468.5" font-family="Arial" font-size="10.00" fill="#000000">FOREIGN KEY (course_id) REFERENCES courses (id)</text>
</g>
<!-- assignment -->
<g id="node2" class="node">
<title>assignment</title>
<polygon fill="#efefef" stroke="transparent" points="1758,-866.5 1758,-901.5 1961,-901.5 1961,-866.5 1758,-866.5"/>
<polygon fill="none" stroke="#000000" points="1758,-866.5 1758,-901.5 1961,-901.5 1961,-866.5 1758,-866.5"/>
<text text-anchor="start" x="1764.8633" y="-879.3" font-family="Arial Bold" font-size="18.00" fill="#000000">assignment</text>
<text text-anchor="start" x="1856.8829" y="-879.3" font-family="Arial" font-size="14.00" fill="#000000"> </text>
<text text-anchor="start" x="1860.7735" y="-879.3" font-family="Arial" font-size="14.00" fill="#666666">[BASE TABLE]</text>
<polygon fill="none" stroke="#000000" points="1758,-836.5 1758,-866.5 1961,-866.5 1961,-836.5 1758,-836.5"/>
<text text-anchor="start" x="1765" y="-847.9" font-family="Arial" font-size="14.00" fill="#000000">id </text>
<text text-anchor="start" x="1779.7798" y="-847.9" font-family="Arial" font-size="14.00" fill="#666666">[char(36)]</text>
<polygon fill="none" stroke="#000000" points="1758,-806.5 1758,-836.5 1961,-836.5 1961,-806.5 1758,-806.5"/>
<text text-anchor="start" x="1765" y="-817.9" font-family="Arial" font-size="14.00" fill="#000000">class_id </text>
<text text-anchor="start" x="1819.4516" y="-817.9" font-family="Arial" font-size="14.00" fill="#666666">[char(36)]</text>
<polygon fill="none" stroke="#000000" points="1758,-776.5 1758,-806.5 1961,-806.5 1961,-776.5 1758,-776.5"/>
<text text-anchor="start" x="1765" y="-787.9" font-family="Arial" font-size="14.00" fill="#000000">name </text>
<text text-anchor="start" x="1803.899" y="-787.9" font-family="Arial" font-size="14.00" fill="#666666">[varchar(255)]</text>
<polygon fill="none" stroke="#000000" points="1758,-746.5 1758,-776.5 1961,-776.5 1961,-746.5 1758,-746.5"/>
<text text-anchor="start" x="1765" y="-757.9" font-family="Arial" font-size="14.00" fill="#000000">description </text>
<text text-anchor="start" x="1836.568" y="-757.9" font-family="Arial" font-size="14.00" fill="#666666">[text]</text>
<polygon fill="none" stroke="#000000" points="1758,-716.5 1758,-746.5 1961,-746.5 1961,-716.5 1758,-716.5"/>
<text text-anchor="start" x="1765" y="-727.9" font-family="Arial" font-size="14.00" fill="#000000">deadline </text>
<text text-anchor="start" x="1821.7994" y="-727.9" font-family="Arial" font-size="14.00" fill="#666666">[datetime(6)]</text>
<polygon fill="none" stroke="#000000" points="1758,-686.5 1758,-716.5 1961,-716.5 1961,-686.5 1758,-686.5"/>
<text text-anchor="start" x="1765" y="-697.9" font-family="Arial" font-size="14.00" fill="#000000">created_at </text>
<text text-anchor="start" x="1835.028" y="-697.9" font-family="Arial" font-size="14.00" fill="#666666">[datetime(6)]</text>
</g>
<!-- classes -->
<g id="node4" class="node">
<title>classes</title>
<polygon fill="#efefef" stroke="transparent" points="1774,-514.5 1774,-549.5 1945,-549.5 1945,-514.5 1774,-514.5"/>
<polygon fill="none" stroke="#000000" points="1774,-514.5 1774,-549.5 1945,-549.5 1945,-514.5 1774,-514.5"/>
<text text-anchor="start" x="1780.8698" y="-527.3" font-family="Arial Bold" font-size="18.00" fill="#000000">classes</text>
<text text-anchor="start" x="1840.8764" y="-527.3" font-family="Arial" font-size="14.00" fill="#000000"> </text>
<text text-anchor="start" x="1844.767" y="-527.3" font-family="Arial" font-size="14.00" fill="#666666">[BASE TABLE]</text>
<polygon fill="none" stroke="#000000" points="1774,-484.5 1774,-514.5 1945,-514.5 1945,-484.5 1774,-484.5"/>
<text text-anchor="start" x="1781" y="-495.9" font-family="Arial" font-size="14.00" fill="#000000">id </text>
<text text-anchor="start" x="1795.7798" y="-495.9" font-family="Arial" font-size="14.00" fill="#666666">[char(36)]</text>
<polygon fill="none" stroke="#000000" points="1774,-454.5 1774,-484.5 1945,-484.5 1945,-454.5 1774,-454.5"/>
<text text-anchor="start" x="1781" y="-465.9" font-family="Arial" font-size="14.00" fill="#000000">title </text>
<text text-anchor="start" x="1806.6676" y="-465.9" font-family="Arial" font-size="14.00" fill="#666666">[varchar(255)]</text>
<polygon fill="none" stroke="#000000" points="1774,-424.5 1774,-454.5 1945,-454.5 1945,-424.5 1774,-424.5"/>
<text text-anchor="start" x="1781" y="-435.9" font-family="Arial" font-size="14.00" fill="#000000">description </text>
<text text-anchor="start" x="1852.568" y="-435.9" font-family="Arial" font-size="14.00" fill="#666666">[text]</text>
<polygon fill="none" stroke="#000000" points="1774,-394.5 1774,-424.5 1945,-424.5 1945,-394.5 1774,-394.5"/>
<text text-anchor="start" x="1781" y="-405.9" font-family="Arial" font-size="14.00" fill="#000000">attendance_code </text>
<text text-anchor="start" x="1892.2804" y="-405.9" font-family="Arial" font-size="14.00" fill="#666666">[tinyint]</text>
</g>
<!-- assignment&#45;&gt;classes -->
<g id="edge2" class="edge">
<title>assignment:class_id&#45;&gt;classes:id</title>
<path fill="none" stroke="#000000" d="M1748.1284,-819.2718C1688.0513,-790.8224 1705.8544,-499.5 1774,-499.5"/>
<polygon fill="#000000" stroke="#000000" points="1748.2454,-819.2982 1757.0092,-825.8896 1753.1227,-820.3991 1758,-821.5 1758,-821.5 1758,-821.5 1753.1227,-820.3991 1758.9908,-817.1104 1748.2454,-819.2982 1748.2454,-819.2982"/>
<text text-anchor="start" x="1764.8345" y="-831.5" font-family="Arial" font-size="10.00" fill="#000000">FOREIGN KEY (class_id) REFERENCES classes (id)</text>
</g>
<!-- attendances -->
<g id="node3" class="node">
<title>attendances</title>
<polygon fill="#efefef" stroke="transparent" points="1445,-821.5 1445,-856.5 1654,-856.5 1654,-821.5 1445,-821.5"/>
<polygon fill="none" stroke="#000000" points="1445,-821.5 1445,-856.5 1654,-856.5 1654,-821.5 1445,-821.5"/>
<text text-anchor="start" x="1451.8492" y="-834.3" font-family="Arial Bold" font-size="18.00" fill="#000000">attendances</text>
<text text-anchor="start" x="1549.897" y="-834.3" font-family="Arial" font-size="14.00" fill="#000000"> </text>
<text text-anchor="start" x="1553.7876" y="-834.3" font-family="Arial" font-size="14.00" fill="#666666">[BASE TABLE]</text>
<polygon fill="none" stroke="#000000" points="1445,-791.5 1445,-821.5 1654,-821.5 1654,-791.5 1445,-791.5"/>
<text text-anchor="start" x="1452" y="-802.9" font-family="Arial" font-size="14.00" fill="#000000">class_id </text>
<text text-anchor="start" x="1506.4516" y="-802.9" font-family="Arial" font-size="14.00" fill="#666666">[char(36)]</text>
<polygon fill="none" stroke="#000000" points="1445,-761.5 1445,-791.5 1654,-791.5 1654,-761.5 1445,-761.5"/>
<text text-anchor="start" x="1452" y="-772.9" font-family="Arial" font-size="14.00" fill="#000000">user_id </text>
<text text-anchor="start" x="1501.7882" y="-772.9" font-family="Arial" font-size="14.00" fill="#666666">[char(36)]</text>
<polygon fill="none" stroke="#000000" points="1445,-731.5 1445,-761.5 1654,-761.5 1654,-731.5 1445,-731.5"/>
<text text-anchor="start" x="1452" y="-742.9" font-family="Arial" font-size="14.00" fill="#000000">created_at </text>
<text text-anchor="start" x="1522.028" y="-742.9" font-family="Arial" font-size="14.00" fill="#666666">[datetime(6)]</text>
</g>
<!-- attendances&#45;&gt;classes -->
<g id="edge3" class="edge">
<title>attendances:class_id&#45;&gt;classes:id</title>
<path fill="none" stroke="#000000" d="M1664.2206,-805.8556C1724.9812,-797.5731 1679.597,-711.121 1706,-644 1731.9823,-577.9485 1703.022,-499.5 1774,-499.5"/>
<polygon fill="#000000" stroke="#000000" points="1663.9802,-805.8707 1653.7168,-802.0089 1658.9901,-806.1853 1654,-806.5 1654,-806.5 1654,-806.5 1658.9901,-806.1853 1654.2832,-810.9911 1663.9802,-805.8707 1663.9802,-805.8707"/>
<text text-anchor="start" x="1408.8345" y="-816.5" font-family="Arial" font-size="10.00" fill="#000000">FOREIGN KEY (class_id) REFERENCES classes (id)</text>
</g>
<!-- users -->
<g id="node14" class="node">
<title>users</title>
<polygon fill="#efefef" stroke="transparent" points="1017,-529.5 1017,-564.5 1219,-564.5 1219,-529.5 1017,-529.5"/>
<polygon fill="none" stroke="#000000" points="1017,-529.5 1017,-564.5 1219,-564.5 1219,-529.5 1017,-529.5"/>
<text text-anchor="start" x="1047.3708" y="-542.3" font-family="Arial Bold" font-size="18.00" fill="#000000">users</text>
<text text-anchor="start" x="1091.3754" y="-542.3" font-family="Arial" font-size="14.00" fill="#000000"> </text>
<text text-anchor="start" x="1095.266" y="-542.3" font-family="Arial" font-size="14.00" fill="#666666">[BASE TABLE]</text>
<polygon fill="none" stroke="#000000" points="1017,-499.5 1017,-529.5 1219,-529.5 1219,-499.5 1017,-499.5"/>
<text text-anchor="start" x="1024" y="-510.9" font-family="Arial" font-size="14.00" fill="#000000">id </text>
<text text-anchor="start" x="1038.7798" y="-510.9" font-family="Arial" font-size="14.00" fill="#666666">[char(36)]</text>
<polygon fill="none" stroke="#000000" points="1017,-469.5 1017,-499.5 1219,-499.5 1219,-469.5 1017,-469.5"/>
<text text-anchor="start" x="1024" y="-480.9" font-family="Arial" font-size="14.00" fill="#000000">name </text>
<text text-anchor="start" x="1062.899" y="-480.9" font-family="Arial" font-size="14.00" fill="#666666">[varchar(255)]</text>
<polygon fill="none" stroke="#000000" points="1017,-439.5 1017,-469.5 1219,-469.5 1219,-439.5 1017,-439.5"/>
<text text-anchor="start" x="1024" y="-450.9" font-family="Arial" font-size="14.00" fill="#000000">mail_address </text>
<text text-anchor="start" x="1111.1206" y="-450.9" font-family="Arial" font-size="14.00" fill="#666666">[varchar(255)]</text>
<polygon fill="none" stroke="#000000" points="1017,-409.5 1017,-439.5 1219,-439.5 1219,-409.5 1017,-409.5"/>
<text text-anchor="start" x="1023.8668" y="-420.9" font-family="Arial" font-size="14.00" fill="#000000">hashed_password </text>
<text text-anchor="start" x="1141.3506" y="-420.9" font-family="Arial" font-size="14.00" fill="#666666">[binary(60)]</text>
<polygon fill="none" stroke="#000000" points="1017,-379.5 1017,-409.5 1219,-409.5 1219,-379.5 1017,-379.5"/>
<text text-anchor="start" x="1024" y="-390.9" font-family="Arial" font-size="14.00" fill="#000000">type </text>
<text text-anchor="start" x="1054.3464" y="-390.9" font-family="Arial" font-size="14.00" fill="#666666">[enum(&#39;student&#39;,&#39;faculty&#39;)]</text>
</g>
<!-- attendances&#45;&gt;users -->
<g id="edge4" class="edge">
<title>attendances:user_id&#45;&gt;users:id</title>
<path fill="none" stroke="#000000" d="M1434.7647,-775.5709C1388.0705,-766.1077 1434.3698,-686.6687 1393,-644 1364.7264,-614.8387 1342.4153,-631.091 1309,-608 1261.5484,-575.2095 1276.679,-514.5 1219,-514.5"/>
<polygon fill="#000000" stroke="#000000" points="1435.0409,-775.5959 1444.5931,-780.9816 1440.0205,-776.0479 1445,-776.5 1445,-776.5 1445,-776.5 1440.0205,-776.0479 1445.4069,-772.0184 1435.0409,-775.5959 1435.0409,-775.5959"/>
<text text-anchor="start" x="1391.945" y="-760.5" font-family="Arial" font-size="10.00" fill="#000000">FOREIGN KEY (user_id) REFERENCES users (id)</text>
</g>
<!-- course_requirements -->
<g id="node5" class="node">
<title>course_requirements</title>
<polygon fill="#efefef" stroke="transparent" points="633,-484.5 633,-519.5 913,-519.5 913,-484.5 633,-484.5"/>
<polygon fill="none" stroke="#000000" points="633,-484.5 633,-519.5 913,-519.5 913,-484.5 633,-484.5"/>
<text text-anchor="start" x="639.8595" y="-497.3" font-family="Arial Bold" font-size="18.00" fill="#000000">course_requirements</text>
<text text-anchor="start" x="808.8867" y="-497.3" font-family="Arial" font-size="14.00" fill="#000000"> </text>
<text text-anchor="start" x="812.7773" y="-497.3" font-family="Arial" font-size="14.00" fill="#666666">[BASE TABLE]</text>
<polygon fill="none" stroke="#000000" points="633,-454.5 633,-484.5 913,-484.5 913,-454.5 633,-454.5"/>
<text text-anchor="start" x="640" y="-465.9" font-family="Arial" font-size="14.00" fill="#000000">course_id </text>
<text text-anchor="start" x="704.5708" y="-465.9" font-family="Arial" font-size="14.00" fill="#666666">[char(36)]</text>
<polygon fill="none" stroke="#000000" points="633,-424.5 633,-454.5 913,-454.5 913,-424.5 633,-424.5"/>
<text text-anchor="start" x="640" y="-435.9" font-family="Arial" font-size="14.00" fill="#000000">required_course_id </text>
<text text-anchor="start" x="763.6942" y="-435.9" font-family="Arial" font-size="14.00" fill="#666666">[char(36)]</text>
</g>
<!-- course_requirements&#45;&gt;courses -->
<g id="edge5" class="edge">
<title>course_requirements:course_id&#45;&gt;courses:id</title>
<path fill="none" stroke="#000000" d="M922.8465,-466.5576C965.7515,-437.7734 915.6889,-207.5 860,-207.5"/>
<polygon fill="#000000" stroke="#000000" points="922.5814,-466.6368 911.7115,-465.1884 917.7907,-468.0684 913,-469.5 913,-469.5 913,-469.5 917.7907,-468.0684 914.2885,-473.8116 922.5814,-466.6368 922.5814,-466.6368"/>
<text text-anchor="start" x="920.386" y="-479.5" font-family="Arial" font-size="10.00" fill="#000000">FOREIGN KEY (course_id) REFERENCES courses (id)</text>
</g>
<!-- course_requirements&#45;&gt;courses -->
<g id="edge6" class="edge">
<title>course_requirements:required_course_id&#45;&gt;courses:id</title>
<path fill="none" stroke="#000000" d="M773.54,-414.4805C779.9077,-357.9662 840.7888,-361.6294 860,-301 872.5523,-261.3856 901.5556,-207.5 860,-207.5"/>
<polygon fill="#000000" stroke="#000000" points="773.5383,-414.5145 768.5065,-424.2578 773.2691,-419.5072 773,-424.5 773,-424.5 773,-424.5 773.2691,-419.5072 777.4935,-424.7422 773.5383,-414.5145 773.5383,-414.5145"/>
<text text-anchor="start" x="628.7705" y="-408.5" font-family="Arial" font-size="10.00" fill="#000000">FOREIGN KEY (required_course_id) REFERENCES courses (id)</text>
</g>
<!-- course_schedules -->
<g id="node6" class="node">
<title>course_schedules</title>
<polygon fill="#efefef" stroke="transparent" points="1361,-484.5 1361,-519.5 1617,-519.5 1617,-484.5 1361,-484.5"/>
<polygon fill="none" stroke="#000000" points="1361,-484.5 1361,-519.5 1617,-519.5 1617,-484.5 1361,-484.5"/>
<text text-anchor="start" x="1367.852" y="-497.3" font-family="Arial Bold" font-size="18.00" fill="#000000">course_schedules</text>
<text text-anchor="start" x="1512.8942" y="-497.3" font-family="Arial" font-size="14.00" fill="#000000"> </text>
<text text-anchor="start" x="1516.7848" y="-497.3" font-family="Arial" font-size="14.00" fill="#666666">[BASE TABLE]</text>
<polygon fill="none" stroke="#000000" points="1361,-454.5 1361,-484.5 1617,-484.5 1617,-454.5 1361,-454.5"/>
<text text-anchor="start" x="1368" y="-465.9" font-family="Arial" font-size="14.00" fill="#000000">course_id </text>
<text text-anchor="start" x="1432.5708" y="-465.9" font-family="Arial" font-size="14.00" fill="#666666">[char(36)]</text>
<polygon fill="none" stroke="#000000" points="1361,-424.5 1361,-454.5 1617,-454.5 1617,-424.5 1361,-424.5"/>
<text text-anchor="start" x="1368" y="-435.9" font-family="Arial" font-size="14.00" fill="#000000">schedule_id </text>
<text text-anchor="start" x="1446.582" y="-435.9" font-family="Arial" font-size="14.00" fill="#666666">[char(36)]</text>
</g>
<!-- course_schedules&#45;&gt;courses -->
<g id="edge7" class="edge">
<title>course_schedules:course_id&#45;&gt;courses:id</title>
<path fill="none" stroke="#000000" d="M1350.9258,-468.5873C1303.1273,-458.964 1350.2992,-375.7113 1304,-337 1249.7436,-291.6356 1217.1498,-319.9019 1149,-301 1018.9116,-264.919 994.9994,-207.5 860,-207.5"/>
<polygon fill="#000000" stroke="#000000" points="1351.0408,-468.5976 1360.5939,-473.9816 1356.0204,-469.0488 1361,-469.5 1361,-469.5 1361,-469.5 1356.0204,-469.0488 1361.4061,-465.0184 1351.0408,-468.5976 1351.0408,-468.5976"/>
<text text-anchor="start" x="1107.386" y="-453.5" font-family="Arial" font-size="10.00" fill="#000000">FOREIGN KEY (course_id) REFERENCES courses (id)</text>
</g>
<!-- schedules -->
<g id="node11" class="node">
<title>schedules</title>
<polygon fill="#efefef" stroke="transparent" points="1201,-207.5 1201,-242.5 1776,-242.5 1776,-207.5 1201,-207.5"/>
<polygon fill="none" stroke="#000000" points="1201,-207.5 1201,-242.5 1776,-242.5 1776,-207.5 1201,-207.5"/>
<text text-anchor="start" x="1399.3605" y="-220.3" font-family="Arial Bold" font-size="18.00" fill="#000000">schedules</text>
<text text-anchor="start" x="1480.3857" y="-220.3" font-family="Arial" font-size="14.00" fill="#000000"> </text>
<text text-anchor="start" x="1484.2763" y="-220.3" font-family="Arial" font-size="14.00" fill="#666666">[BASE TABLE]</text>
<polygon fill="none" stroke="#000000" points="1201,-177.5 1201,-207.5 1776,-207.5 1776,-177.5 1201,-177.5"/>
<text text-anchor="start" x="1208" y="-188.9" font-family="Arial" font-size="14.00" fill="#000000">id </text>
<text text-anchor="start" x="1222.7798" y="-188.9" font-family="Arial" font-size="14.00" fill="#666666">[char(36)]</text>
<polygon fill="none" stroke="#000000" points="1201,-147.5 1201,-177.5 1776,-177.5 1776,-147.5 1201,-147.5"/>
<text text-anchor="start" x="1208" y="-158.9" font-family="Arial" font-size="14.00" fill="#000000">period </text>
<text text-anchor="start" x="1250.7882" y="-158.9" font-family="Arial" font-size="14.00" fill="#666666">[tinyint unsigned]</text>
<polygon fill="none" stroke="#000000" points="1201,-117.5 1201,-147.5 1776,-147.5 1776,-117.5 1201,-117.5"/>
<text text-anchor="start" x="1207.7762" y="-128.9" font-family="Arial" font-size="14.00" fill="#000000">day_of_week </text>
<text text-anchor="start" x="1294.1422" y="-128.9" font-family="Arial" font-size="14.00" fill="#666666">[enum(&#39;sunday&#39;,&#39;monday&#39;,&#39;tuesday&#39;,&#39;wednesday&#39;,&#39;thursday&#39;,&#39;friday&#39;,&#39;saturday&#39;)]</text>
<polygon fill="none" stroke="#000000" points="1201,-87.5 1201,-117.5 1776,-117.5 1776,-87.5 1201,-87.5"/>
<text text-anchor="start" x="1208" y="-98.9" font-family="Arial" font-size="14.00" fill="#000000">semester </text>
<text text-anchor="start" x="1269.4502" y="-98.9" font-family="Arial" font-size="14.00" fill="#666666">[enum(&#39;first&#39;,&#39;second&#39;)]</text>
<polygon fill="none" stroke="#000000" points="1201,-57.5 1201,-87.5 1776,-87.5 1776,-57.5 1201,-57.5"/>
<text text-anchor="start" x="1208" y="-68.9" font-family="Arial" font-size="14.00" fill="#000000">year </text>
<text text-anchor="start" x="1239.1164" y="-68.9" font-family="Arial" font-size="14.00" fill="#666666">[smallint unsigned]</text>
</g>
<!-- course_schedules&#45;&gt;schedules -->
<g id="edge8" class="edge">
<title>course_schedules:schedule_id&#45;&gt;schedules:id</title>
<path fill="none" stroke="#000000" d="M1489.4037,-414.2153C1499.6623,-288.9621 1702.6083,-402.9079 1776,-286 1798.0946,-250.8049 1817.5556,-192.5 1776,-192.5"/>
<polygon fill="#000000" stroke="#000000" points="1489.3923,-414.5077 1484.5035,-424.3234 1489.1962,-419.5038 1489,-424.5 1489,-424.5 1489,-424.5 1489.1962,-419.5038 1493.4965,-424.6766 1489.3923,-414.5077 1489.3923,-414.5077"/>
<text text-anchor="start" x="1285.628" y="-408.5" font-family="Arial" font-size="10.00" fill="#000000">FOREIGN KEY (schedule_id) REFERENCES schedules (id)</text>
</g>
<!-- documents -->
<g id="node8" class="node">
<title>documents</title>
<polygon fill="#efefef" stroke="transparent" points="2065,-836.5 2065,-871.5 2264,-871.5 2264,-836.5 2065,-836.5"/>
<polygon fill="none" stroke="#000000" points="2065,-836.5 2065,-871.5 2264,-871.5 2264,-836.5 2065,-836.5"/>
<text text-anchor="start" x="2071.8604" y="-849.3" font-family="Arial Bold" font-size="18.00" fill="#000000">documents</text>
<text text-anchor="start" x="2159.8858" y="-849.3" font-family="Arial" font-size="14.00" fill="#000000"> </text>
<text text-anchor="start" x="2163.7764" y="-849.3" font-family="Arial" font-size="14.00" fill="#666666">[BASE TABLE]</text>
<polygon fill="none" stroke="#000000" points="2065,-806.5 2065,-836.5 2264,-836.5 2264,-806.5 2065,-806.5"/>
<text text-anchor="start" x="2072" y="-817.9" font-family="Arial" font-size="14.00" fill="#000000">id </text>
<text text-anchor="start" x="2086.7798" y="-817.9" font-family="Arial" font-size="14.00" fill="#666666">[char(36)]</text>
<polygon fill="none" stroke="#000000" points="2065,-776.5 2065,-806.5 2264,-806.5 2264,-776.5 2065,-776.5"/>
<text text-anchor="start" x="2072" y="-787.9" font-family="Arial" font-size="14.00" fill="#000000">class_id </text>
<text text-anchor="start" x="2126.4516" y="-787.9" font-family="Arial" font-size="14.00" fill="#666666">[char(36)]</text>
<polygon fill="none" stroke="#000000" points="2065,-746.5 2065,-776.5 2264,-776.5 2264,-746.5 2065,-746.5"/>
<text text-anchor="start" x="2072" y="-757.9" font-family="Arial" font-size="14.00" fill="#000000">name </text>
<text text-anchor="start" x="2110.899" y="-757.9" font-family="Arial" font-size="14.00" fill="#666666">[text]</text>
<polygon fill="none" stroke="#000000" points="2065,-716.5 2065,-746.5 2264,-746.5 2264,-716.5 2065,-716.5"/>
<text text-anchor="start" x="2072" y="-727.9" font-family="Arial" font-size="14.00" fill="#000000">created_at </text>
<text text-anchor="start" x="2142.028" y="-727.9" font-family="Arial" font-size="14.00" fill="#666666">[datetime(6)]</text>
</g>
<!-- documents&#45;&gt;classes -->
<g id="edge9" class="edge">
<title>documents:class_id&#45;&gt;classes:id</title>
<path fill="none" stroke="#000000" d="M2054.9225,-790.8209C1999.9243,-782.7782 2037.9962,-704.9155 2013,-644 1986.055,-578.3354 2015.978,-499.5 1945,-499.5"/>
<polygon fill="#000000" stroke="#000000" points="2055.0226,-790.8276 2064.6974,-795.9898 2060.0113,-791.1638 2065,-791.5 2065,-791.5 2065,-791.5 2060.0113,-791.1638 2065.3026,-787.0102 2055.0226,-790.8276 2055.0226,-790.8276"/>
<text text-anchor="start" x="1819.8345" y="-801.5" font-family="Arial" font-size="10.00" fill="#000000">FOREIGN KEY (class_id) REFERENCES classes (id)</text>
</g>
<!-- phase -->
<g id="node9" class="node">
<title>phase</title>
<polygon fill="#efefef" stroke="transparent" points="2368,-791.5 2368,-826.5 2708,-826.5 2708,-791.5 2368,-791.5"/>
<polygon fill="none" stroke="#000000" points="2368,-791.5 2368,-826.5 2708,-826.5 2708,-791.5 2368,-791.5"/>
<text text-anchor="start" x="2464.8607" y="-804.3" font-family="Arial Bold" font-size="18.00" fill="#000000">phase</text>
<text text-anchor="start" x="2513.8855" y="-804.3" font-family="Arial" font-size="14.00" fill="#000000"> </text>
<text text-anchor="start" x="2517.7761" y="-804.3" font-family="Arial" font-size="14.00" fill="#666666">[BASE TABLE]</text>
<polygon fill="none" stroke="#000000" points="2368,-761.5 2368,-791.5 2708,-791.5 2708,-761.5 2368,-761.5"/>
<text text-anchor="start" x="2374.7117" y="-772.9" font-family="Arial" font-size="14.00" fill="#000000">phase </text>
<text text-anchor="start" x="2416.7327" y="-772.9" font-family="Arial" font-size="14.00" fill="#666666">[enum(&#39;registration&#39;,&#39;term&#45;time&#39;,&#39;exam&#45;period&#39;)]</text>
</g>
<!-- registrations -->
<g id="node10" class="node">
<title>registrations</title>
<polygon fill="#efefef" stroke="transparent" points="1132,-836.5 1132,-871.5 1341,-871.5 1341,-836.5 1132,-836.5"/>
<polygon fill="none" stroke="#000000" points="1132,-836.5 1132,-871.5 1341,-871.5 1341,-836.5 1132,-836.5"/>
<text text-anchor="start" x="1138.869" y="-849.3" font-family="Arial Bold" font-size="18.00" fill="#000000">registrations</text>
<text text-anchor="start" x="1236.8772" y="-849.3" font-family="Arial" font-size="14.00" fill="#000000"> </text>
<text text-anchor="start" x="1240.7678" y="-849.3" font-family="Arial" font-size="14.00" fill="#666666">[BASE TABLE]</text>
<polygon fill="none" stroke="#000000" points="1132,-806.5 1132,-836.5 1341,-836.5 1341,-806.5 1132,-806.5"/>
<text text-anchor="start" x="1139" y="-817.9" font-family="Arial" font-size="14.00" fill="#000000">course_id </text>
<text text-anchor="start" x="1203.5708" y="-817.9" font-family="Arial" font-size="14.00" fill="#666666">[char(36)]</text>
<polygon fill="none" stroke="#000000" points="1132,-776.5 1132,-806.5 1341,-806.5 1341,-776.5 1132,-776.5"/>
<text text-anchor="start" x="1139" y="-787.9" font-family="Arial" font-size="14.00" fill="#000000">user_id </text>
<text text-anchor="start" x="1188.7882" y="-787.9" font-family="Arial" font-size="14.00" fill="#666666">[char(36)]</text>
<polygon fill="none" stroke="#000000" points="1132,-746.5 1132,-776.5 1341,-776.5 1341,-746.5 1132,-746.5"/>
<text text-anchor="start" x="1139" y="-757.9" font-family="Arial" font-size="14.00" fill="#000000">created_at </text>
<text text-anchor="start" x="1209.028" y="-757.9" font-family="Arial" font-size="14.00" fill="#666666">[datetime(6)]</text>
<polygon fill="none" stroke="#000000" points="1132,-716.5 1132,-746.5 1341,-746.5 1341,-716.5 1132,-716.5"/>
<text text-anchor="start" x="1139" y="-727.9" font-family="Arial" font-size="14.00" fill="#000000">delete_at </text>
<text text-anchor="start" x="1200.474" y="-727.9" font-family="Arial" font-size="14.00" fill="#666666">[datetime(6)]</text>
</g>
<!-- registrations&#45;&gt;courses -->
<g id="edge10" class="edge">
<title>registrations:course_id&#45;&gt;courses:id</title>
<path fill="none" stroke="#000000" d="M1351.0464,-820.7141C1400.9076,-812.0921 1354.8412,-734.2736 1341,-674 1333.7038,-642.2277 1318.4899,-639.1875 1309,-608 1273.5948,-491.6446 1350.424,-429.1083 1271,-337 1234.0816,-294.1855 1203.01,-317.7025 1149,-301 1020.027,-261.1153 994.9994,-207.5 860,-207.5"/>
<polygon fill="#000000" stroke="#000000" points="1350.9695,-820.72 1340.649,-817.0137 1345.9848,-821.11 1341,-821.5 1341,-821.5 1341,-821.5 1345.9848,-821.11 1341.351,-825.9863 1350.9695,-820.72 1350.9695,-820.72"/>
<text text-anchor="start" x="1087.386" y="-831.5" font-family="Arial" font-size="10.00" fill="#000000">FOREIGN KEY (course_id) REFERENCES courses (id)</text>
</g>
<!-- registrations&#45;&gt;users -->
<g id="edge11" class="edge">
<title>registrations:user_id&#45;&gt;users:id</title>
<path fill="none" stroke="#000000" d="M1121.679,-790.3699C1084.0501,-781.1334 1110.4977,-717.3015 1132,-674 1153.5858,-630.5303 1197.4142,-651.4697 1219,-608 1237.482,-570.7807 1260.5556,-514.5 1219,-514.5"/>
<polygon fill="#000000" stroke="#000000" points="1122.0594,-790.4115 1131.5102,-795.9733 1127.0297,-790.9557 1132,-791.5 1132,-791.5 1132,-791.5 1127.0297,-790.9557 1132.4898,-787.0267 1122.0594,-790.4115 1122.0594,-790.4115"/>
<text text-anchor="start" x="1078.945" y="-775.5" font-family="Arial" font-size="10.00" fill="#000000">FOREIGN KEY (user_id) REFERENCES users (id)</text>
</g>
<!-- submissions -->
<g id="node12" class="node">
<title>submissions</title>
<polygon fill="#efefef" stroke="transparent" points="817,-851.5 817,-886.5 1027,-886.5 1027,-851.5 817,-851.5"/>
<polygon fill="none" stroke="#000000" points="817,-851.5 817,-886.5 1027,-886.5 1027,-851.5 817,-851.5"/>
<text text-anchor="start" x="823.8704" y="-864.3" font-family="Arial Bold" font-size="18.00" fill="#000000">submissions</text>
<text text-anchor="start" x="922.8758" y="-864.3" font-family="Arial" font-size="14.00" fill="#000000"> </text>
<text text-anchor="start" x="926.7664" y="-864.3" font-family="Arial" font-size="14.00" fill="#666666">[BASE TABLE]</text>
<polygon fill="none" stroke="#000000" points="817,-821.5 817,-851.5 1027,-851.5 1027,-821.5 817,-821.5"/>
<text text-anchor="start" x="824" y="-832.9" font-family="Arial" font-size="14.00" fill="#000000">id </text>
<text text-anchor="start" x="838.7798" y="-832.9" font-family="Arial" font-size="14.00" fill="#666666">[char(36)]</text>
<polygon fill="none" stroke="#000000" points="817,-791.5 817,-821.5 1027,-821.5 1027,-791.5 817,-791.5"/>
<text text-anchor="start" x="824" y="-802.9" font-family="Arial" font-size="14.00" fill="#000000">user_id </text>
<text text-anchor="start" x="873.7882" y="-802.9" font-family="Arial" font-size="14.00" fill="#666666">[char(36)]</text>
<polygon fill="none" stroke="#000000" points="817,-761.5 817,-791.5 1027,-791.5 1027,-761.5 817,-761.5"/>
<text text-anchor="start" x="824" y="-772.9" font-family="Arial" font-size="14.00" fill="#000000">assignment_id </text>
<text text-anchor="start" x="918.1332" y="-772.9" font-family="Arial" font-size="14.00" fill="#666666">[char(36)]</text>
<polygon fill="none" stroke="#000000" points="817,-731.5 817,-761.5 1027,-761.5 1027,-731.5 817,-731.5"/>
<text text-anchor="start" x="824" y="-742.9" font-family="Arial" font-size="14.00" fill="#000000">name </text>
<text text-anchor="start" x="862.899" y="-742.9" font-family="Arial" font-size="14.00" fill="#666666">[varchar(255)]</text>
<polygon fill="none" stroke="#000000" points="817,-701.5 817,-731.5 1027,-731.5 1027,-701.5 817,-701.5"/>
<text text-anchor="start" x="824" y="-712.9" font-family="Arial" font-size="14.00" fill="#000000">created_at </text>
<text text-anchor="start" x="894.028" y="-712.9" font-family="Arial" font-size="14.00" fill="#666666">[datetime(6)]</text>
</g>
<!-- submissions&#45;&gt;users -->
<g id="edge12" class="edge">
<title>submissions:user_id&#45;&gt;users:id</title>
<path fill="none" stroke="#000000" d="M1036.9881,-805.9511C1108.1047,-797.4671 1025.1882,-692.3144 1017,-608 1012.9832,-566.639 975.4444,-514.5 1017,-514.5"/>
<polygon fill="#000000" stroke="#000000" points="1036.9849,-805.9512 1026.753,-802.0068 1031.9925,-806.2256 1027,-806.5 1027,-806.5 1027,-806.5 1031.9925,-806.2256 1027.247,-810.9932 1036.9849,-805.9512 1036.9849,-805.9512"/>
<text text-anchor="start" x="793.945" y="-816.5" font-family="Arial" font-size="10.00" fill="#000000">FOREIGN KEY (user_id) REFERENCES users (id)</text>
</g>
<!-- unread_announcements -->
<g id="node13" class="node">
<title>unread_announcements</title>
<polygon fill="#efefef" stroke="transparent" points="333,-836.5 333,-871.5 638,-871.5 638,-836.5 333,-836.5"/>
<polygon fill="none" stroke="#000000" points="333,-836.5 333,-871.5 638,-871.5 638,-836.5 333,-836.5"/>
<text text-anchor="start" x="339.8333" y="-849.3" font-family="Arial Bold" font-size="18.00" fill="#000000">unread_announcements</text>
<text text-anchor="start" x="533.9129" y="-849.3" font-family="Arial" font-size="14.00" fill="#000000"> </text>
<text text-anchor="start" x="537.8035" y="-849.3" font-family="Arial" font-size="14.00" fill="#666666">[BASE TABLE]</text>
<polygon fill="none" stroke="#000000" points="333,-806.5 333,-836.5 638,-836.5 638,-806.5 333,-806.5"/>
<text text-anchor="start" x="340" y="-817.9" font-family="Arial" font-size="14.00" fill="#000000">announcement_id </text>
<text text-anchor="start" x="455.157" y="-817.9" font-family="Arial" font-size="14.00" fill="#666666">[char(36)]</text>
<polygon fill="none" stroke="#000000" points="333,-776.5 333,-806.5 638,-806.5 638,-776.5 333,-776.5"/>
<text text-anchor="start" x="340" y="-787.9" font-family="Arial" font-size="14.00" fill="#000000">user_id </text>
<text text-anchor="start" x="389.7882" y="-787.9" font-family="Arial" font-size="14.00" fill="#666666">[char(36)]</text>
<polygon fill="none" stroke="#000000" points="333,-746.5 333,-776.5 638,-776.5 638,-746.5 333,-746.5"/>
<text text-anchor="start" x="340" y="-757.9" font-family="Arial" font-size="14.00" fill="#000000">created_at </text>
<text text-anchor="start" x="410.028" y="-757.9" font-family="Arial" font-size="14.00" fill="#666666">[datetime(6)]</text>
<polygon fill="none" stroke="#000000" points="333,-716.5 333,-746.5 638,-746.5 638,-716.5 333,-716.5"/>
<text text-anchor="start" x="340" y="-727.9" font-family="Arial" font-size="14.00" fill="#000000">delete_at </text>
<text text-anchor="start" x="401.474" y="-727.9" font-family="Arial" font-size="14.00" fill="#666666">[datetime(6)]</text>
</g>
<!-- unread_announcements&#45;&gt;announcements -->
<g id="edge13" class="edge">
<title>unread_announcements:announcement_id&#45;&gt;announcements:id</title>
<path fill="none" stroke="#000000" d="M322.7395,-820.6174C270.5728,-810.9537 296.9168,-724.2244 333,-674 386.6309,-599.3507 475.3691,-682.6493 529,-608 553.2464,-574.2513 570.5556,-514.5 529,-514.5"/>
<polygon fill="#000000" stroke="#000000" points="323.0368,-820.6429 332.6143,-825.9834 328.0184,-821.0714 333,-821.5 333,-821.5 333,-821.5 328.0184,-821.0714 333.3857,-817.0166 323.0368,-820.6429 323.0368,-820.6429"/>
<text text-anchor="start" x="7.253" y="-831.5" font-family="Arial" font-size="10.00" fill="#000000">FOREIGN KEY (announcement_id) REFERENCES announcements (id)</text>
</g>
<!-- unread_announcements&#45;&gt;users -->
<g id="edge14" class="edge">
<title>unread_announcements:user_id&#45;&gt;users:id</title>
<path fill="none" stroke="#000000" d="M648.0491,-790.9836C721.8518,-783.0241 692.966,-685.1499 765,-644 843.4233,-599.2001 891.5277,-660.5267 965,-608 1003.6813,-580.346 969.4502,-514.5 1017,-514.5"/>
<polygon fill="#000000" stroke="#000000" points="647.9868,-790.9867 637.769,-787.0059 642.9934,-791.2434 638,-791.5 638,-791.5 638,-791.5 642.9934,-791.2434 638.231,-795.9941 647.9868,-790.9867 647.9868,-790.9867"/>
<text text-anchor="start" x="524.945" y="-775.5" font-family="Arial" font-size="10.00" fill="#000000">FOREIGN KEY (user_id) REFERENCES users (id)</text>
</g>
</g>
</svg>
