<?xml version="1.0" encoding="UTF-8" standalone="no"?>
<!DOCTYPE svg PUBLIC "-//W3C//DTD SVG 1.1//EN"
 "http://www.w3.org/Graphics/SVG/1.1/DTD/svg11.dtd">
<!-- Generated by graphviz version 2.40.1 (20161225.0304)
 -->
<!-- Title: schedules Pages: 1 -->
<svg width="675pt" height="502pt"
 viewBox="0.00 0.00 675.00 502.00" xmlns="http://www.w3.org/2000/svg" xmlns:xlink="http://www.w3.org/1999/xlink">
<g id="graph0" class="graph" transform="scale(1 1) rotate(0) translate(4 498)">
<title>schedules</title>
<polygon fill="#ffffff" stroke="transparent" points="-4,4 -4,-498 671,-498 671,4 -4,4"/>
<!-- schedules -->
<g id="node1" class="node">
<title>schedules</title>
<polygon fill="#efefef" stroke="transparent" points="46.5,-195.5 46.5,-230.5 621.5,-230.5 621.5,-195.5 46.5,-195.5"/>
<polygon fill="none" stroke="#000000" points="46.5,-195.5 46.5,-230.5 621.5,-230.5 621.5,-195.5 46.5,-195.5"/>
<text text-anchor="start" x="244.8605" y="-208.3" font-family="Arial Bold" font-size="18.00" fill="#000000">schedules</text>
<text text-anchor="start" x="325.8857" y="-208.3" font-family="Arial" font-size="14.00" fill="#000000"> </text>
<text text-anchor="start" x="329.7763" y="-208.3" font-family="Arial" font-size="14.00" fill="#666666">[BASE TABLE]</text>
<polygon fill="none" stroke="#000000" points="46.5,-165.5 46.5,-195.5 621.5,-195.5 621.5,-165.5 46.5,-165.5"/>
<text text-anchor="start" x="53.5" y="-176.9" font-family="Arial" font-size="14.00" fill="#000000">id </text>
<text text-anchor="start" x="68.2798" y="-176.9" font-family="Arial" font-size="14.00" fill="#666666">[char(36)]</text>
<polygon fill="none" stroke="#000000" points="46.5,-135.5 46.5,-165.5 621.5,-165.5 621.5,-135.5 46.5,-135.5"/>
<text text-anchor="start" x="53.5" y="-146.9" font-family="Arial" font-size="14.00" fill="#000000">period </text>
<text text-anchor="start" x="96.2882" y="-146.9" font-family="Arial" font-size="14.00" fill="#666666">[tinyint unsigned]</text>
<polygon fill="none" stroke="#000000" points="46.5,-105.5 46.5,-135.5 621.5,-135.5 621.5,-105.5 46.5,-105.5"/>
<text text-anchor="start" x="53.2762" y="-116.9" font-family="Arial" font-size="14.00" fill="#000000">day_of_week </text>
<text text-anchor="start" x="139.6422" y="-116.9" font-family="Arial" font-size="14.00" fill="#666666">[enum(&#39;sunday&#39;,&#39;monday&#39;,&#39;tuesday&#39;,&#39;wednesday&#39;,&#39;thursday&#39;,&#39;friday&#39;,&#39;saturday&#39;)]</text>
<polygon fill="none" stroke="#000000" points="46.5,-75.5 46.5,-105.5 621.5,-105.5 621.5,-75.5 46.5,-75.5"/>
<text text-anchor="start" x="53.5" y="-86.9" font-family="Arial" font-size="14.00" fill="#000000">semester </text>
<text text-anchor="start" x="114.9502" y="-86.9" font-family="Arial" font-size="14.00" fill="#666666">[enum(&#39;first&#39;,&#39;second&#39;)]</text>
<polygon fill="none" stroke="#000000" points="46.5,-45.5 46.5,-75.5 621.5,-75.5 621.5,-45.5 46.5,-45.5"/>
<text text-anchor="start" x="53.5" y="-56.9" font-family="Arial" font-size="14.00" fill="#000000">year </text>
<text text-anchor="start" x="84.6164" y="-56.9" font-family="Arial" font-size="14.00" fill="#666666">[int unsigned]</text>
<polygon fill="none" stroke="#000000" stroke-width="3" points="44.5,-44.5 44.5,-232.5 622.5,-232.5 622.5,-44.5 44.5,-44.5"/>
</g>
<!-- course_schedules -->
<g id="node2" class="node">
<title>course_schedules</title>
<polygon fill="#efefef" stroke="transparent" points="206.5,-415.5 206.5,-450.5 462.5,-450.5 462.5,-415.5 206.5,-415.5"/>
<polygon fill="none" stroke="#000000" points="206.5,-415.5 206.5,-450.5 462.5,-450.5 462.5,-415.5 206.5,-415.5"/>
<text text-anchor="start" x="213.352" y="-428.3" font-family="Arial Bold" font-size="18.00" fill="#000000">course_schedules</text>
<text text-anchor="start" x="358.3942" y="-428.3" font-family="Arial" font-size="14.00" fill="#000000"> </text>
<text text-anchor="start" x="362.2848" y="-428.3" font-family="Arial" font-size="14.00" fill="#666666">[BASE TABLE]</text>
<polygon fill="none" stroke="#000000" points="206.5,-385.5 206.5,-415.5 462.5,-415.5 462.5,-385.5 206.5,-385.5"/>
<text text-anchor="start" x="213.5" y="-396.9" font-family="Arial" font-size="14.00" fill="#000000">course_id </text>
<text text-anchor="start" x="278.0708" y="-396.9" font-family="Arial" font-size="14.00" fill="#666666">[char(36)]</text>
<polygon fill="none" stroke="#000000" points="206.5,-355.5 206.5,-385.5 462.5,-385.5 462.5,-355.5 206.5,-355.5"/>
<text text-anchor="start" x="213.5" y="-366.9" font-family="Arial" font-size="14.00" fill="#000000">schedule_id </text>
<text text-anchor="start" x="292.082" y="-366.9" font-family="Arial" font-size="14.00" fill="#666666">[char(36)]</text>
</g>
<!-- course_schedules&#45;&gt;schedules -->
<g id="edge1" class="edge">
<title>course_schedules:schedule_id&#45;&gt;schedules:id</title>
<path fill="none" stroke="#000000" d="M334.957,-345.2937C345.7131,-231.7496 543.4632,-379.2479 621.5,-277 647.5207,-242.9063 664.3889,-180.5 621.5,-180.5"/>
<polygon fill="#000000" stroke="#000000" points="334.9474,-345.51 330.0045,-355.2987 334.7237,-350.505 334.5,-355.5 334.5,-355.5 334.5,-355.5 334.7237,-350.505 338.9955,-355.7013 334.9474,-345.51 334.9474,-345.51"/>
<text text-anchor="start" x="60.878" y="-365.5" font-family="Arial" font-size="10.00" fill="#000000">FOREIGN KEY (schedule_id) REFERENCES schedules (id)</text>
</g>
</g>
</svg>
