<?xml version="1.0" encoding="UTF-8" standalone="no"?>
<!DOCTYPE svg PUBLIC "-//W3C//DTD SVG 1.1//EN"
 "http://www.w3.org/Graphics/SVG/1.1/DTD/svg11.dtd">
<!-- Generated by graphviz version 2.40.1 (20161225.0304)
 -->
<!-- Title: isucholar Pages: 1 -->
<svg width="2141pt" height="1260pt"
 viewBox="0.00 0.00 2141.00 1260.00" xmlns="http://www.w3.org/2000/svg" xmlns:xlink="http://www.w3.org/1999/xlink">
<g id="graph0" class="graph" transform="scale(1 1) rotate(0) translate(4 1256)">
<title>isucholar</title>
<polygon fill="#ffffff" stroke="transparent" points="-4,4 -4,-1256 2137,-1256 2137,4 -4,4"/>
<!-- announcements -->
<g id="node1" class="node">
<title>announcements</title>
<polygon fill="#efefef" stroke="transparent" points="288.5,-529.5 288.5,-564.5 527.5,-564.5 527.5,-529.5 288.5,-529.5"/>
<polygon fill="none" stroke="#000000" points="288.5,-529.5 288.5,-564.5 527.5,-564.5 527.5,-529.5 288.5,-529.5"/>
<text text-anchor="start" x="295.348" y="-542.3" font-family="Arial Bold" font-size="18.00" fill="#000000">announcements</text>
<text text-anchor="start" x="423.3982" y="-542.3" font-family="Arial" font-size="14.00" fill="#000000"> </text>
<text text-anchor="start" x="427.2888" y="-542.3" font-family="Arial" font-size="14.00" fill="#666666">[BASE TABLE]</text>
<polygon fill="none" stroke="#000000" points="288.5,-499.5 288.5,-529.5 527.5,-529.5 527.5,-499.5 288.5,-499.5"/>
<text text-anchor="start" x="295.5" y="-510.9" font-family="Arial" font-size="14.00" fill="#000000">id </text>
<text text-anchor="start" x="310.2798" y="-510.9" font-family="Arial" font-size="14.00" fill="#666666">[char(36)]</text>
<polygon fill="none" stroke="#000000" points="288.5,-469.5 288.5,-499.5 527.5,-499.5 527.5,-469.5 288.5,-469.5"/>
<text text-anchor="start" x="295.5" y="-480.9" font-family="Arial" font-size="14.00" fill="#000000">course_id </text>
<text text-anchor="start" x="360.0708" y="-480.9" font-family="Arial" font-size="14.00" fill="#666666">[char(36)]</text>
<polygon fill="none" stroke="#000000" points="288.5,-439.5 288.5,-469.5 527.5,-469.5 527.5,-439.5 288.5,-439.5"/>
<text text-anchor="start" x="295.5" y="-450.9" font-family="Arial" font-size="14.00" fill="#000000">title </text>
<text text-anchor="start" x="321.1676" y="-450.9" font-family="Arial" font-size="14.00" fill="#666666">[varchar(255)]</text>
<polygon fill="none" stroke="#000000" points="288.5,-409.5 288.5,-439.5 527.5,-439.5 527.5,-409.5 288.5,-409.5"/>
<text text-anchor="start" x="295.5" y="-420.9" font-family="Arial" font-size="14.00" fill="#000000">message </text>
<text text-anchor="start" x="356.1816" y="-420.9" font-family="Arial" font-size="14.00" fill="#666666">[text]</text>
<polygon fill="none" stroke="#000000" points="288.5,-379.5 288.5,-409.5 527.5,-409.5 527.5,-379.5 288.5,-379.5"/>
<text text-anchor="start" x="295.5" y="-390.9" font-family="Arial" font-size="14.00" fill="#000000">created_at </text>
<text text-anchor="start" x="365.528" y="-390.9" font-family="Arial" font-size="14.00" fill="#666666">[datetime(6)]</text>
</g>
<!-- courses -->
<g id="node7" class="node">
<title>courses</title>
<polygon fill="#efefef" stroke="transparent" points="990.5,-222.5 990.5,-257.5 1164.5,-257.5 1164.5,-222.5 990.5,-222.5"/>
<polygon fill="none" stroke="#000000" points="990.5,-222.5 990.5,-257.5 1164.5,-257.5 1164.5,-222.5 990.5,-222.5"/>
<text text-anchor="start" x="997.3677" y="-235.3" font-family="Arial Bold" font-size="18.00" fill="#000000">courses</text>
<text text-anchor="start" x="1060.3785" y="-235.3" font-family="Arial" font-size="14.00" fill="#000000"> </text>
<text text-anchor="start" x="1064.2691" y="-235.3" font-family="Arial" font-size="14.00" fill="#666666">[BASE TABLE]</text>
<polygon fill="none" stroke="#000000" points="990.5,-192.5 990.5,-222.5 1164.5,-222.5 1164.5,-192.5 990.5,-192.5"/>
<text text-anchor="start" x="997.5" y="-203.9" font-family="Arial" font-size="14.00" fill="#000000">id </text>
<text text-anchor="start" x="1012.2798" y="-203.9" font-family="Arial" font-size="14.00" fill="#666666">[char(36)]</text>
<polygon fill="none" stroke="#000000" points="990.5,-162.5 990.5,-192.5 1164.5,-192.5 1164.5,-162.5 990.5,-162.5"/>
<text text-anchor="start" x="997.5" y="-173.9" font-family="Arial" font-size="14.00" fill="#000000">name </text>
<text text-anchor="start" x="1036.399" y="-173.9" font-family="Arial" font-size="14.00" fill="#666666">[varchar(255)]</text>
<polygon fill="none" stroke="#000000" points="990.5,-132.5 990.5,-162.5 1164.5,-162.5 1164.5,-132.5 990.5,-132.5"/>
<text text-anchor="start" x="997.5" y="-143.9" font-family="Arial" font-size="14.00" fill="#000000">description </text>
<text text-anchor="start" x="1069.068" y="-143.9" font-family="Arial" font-size="14.00" fill="#666666">[text]</text>
<polygon fill="none" stroke="#000000" points="990.5,-102.5 990.5,-132.5 1164.5,-132.5 1164.5,-102.5 990.5,-102.5"/>
<text text-anchor="start" x="997.5" y="-113.9" font-family="Arial" font-size="14.00" fill="#000000">credit </text>
<text text-anchor="start" x="1035.6136" y="-113.9" font-family="Arial" font-size="14.00" fill="#666666">[tinyint unsigned]</text>
<polygon fill="none" stroke="#000000" points="990.5,-72.5 990.5,-102.5 1164.5,-102.5 1164.5,-72.5 990.5,-72.5"/>
<text text-anchor="start" x="997.5" y="-83.9" font-family="Arial" font-size="14.00" fill="#000000">classroom </text>
<text text-anchor="start" x="1065.1662" y="-83.9" font-family="Arial" font-size="14.00" fill="#666666">[varchar(255)]</text>
<polygon fill="none" stroke="#000000" points="990.5,-42.5 990.5,-72.5 1164.5,-72.5 1164.5,-42.5 990.5,-42.5"/>
<text text-anchor="start" x="997.5" y="-53.9" font-family="Arial" font-size="14.00" fill="#000000">capacity </text>
<text text-anchor="start" x="1052.7356" y="-53.9" font-family="Arial" font-size="14.00" fill="#666666">[int unsigned]</text>
</g>
<!-- announcements&#45;&gt;courses -->
<g id="edge1" class="edge">
<title>announcements:course_id&#45;&gt;courses:id</title>
<path fill="none" stroke="#000000" d="M537.7165,-483.6346C589.9805,-473.8039 532.2606,-382.6737 579.5,-337 648.3437,-270.4381 894.7402,-207.5 990.5,-207.5"/>
<polygon fill="#000000" stroke="#000000" points="537.4643,-483.6559 527.1202,-480.0161 532.4822,-484.078 527.5,-484.5 527.5,-484.5 527.5,-484.5 532.4822,-484.078 527.8798,-488.9839 537.4643,-483.6559 537.4643,-483.6559"/>
<text text-anchor="start" x="534.886" y="-494.5" font-family="Arial" font-size="10.00" fill="#000000">FOREIGN KEY (course_id) REFERENCES courses (id)</text>
</g>
<!-- assignments -->
<g id="node2" class="node">
<title>assignments</title>
<polygon fill="#efefef" stroke="transparent" points="1387.5,-866.5 1387.5,-901.5 1599.5,-901.5 1599.5,-866.5 1387.5,-866.5"/>
<polygon fill="none" stroke="#000000" points="1387.5,-866.5 1387.5,-901.5 1599.5,-901.5 1599.5,-866.5 1387.5,-866.5"/>
<text text-anchor="start" x="1394.3633" y="-879.3" font-family="Arial Bold" font-size="18.00" fill="#000000">assignments</text>
<text text-anchor="start" x="1495.3829" y="-879.3" font-family="Arial" font-size="14.00" fill="#000000"> </text>
<text text-anchor="start" x="1499.2735" y="-879.3" font-family="Arial" font-size="14.00" fill="#666666">[BASE TABLE]</text>
<polygon fill="none" stroke="#000000" points="1387.5,-836.5 1387.5,-866.5 1599.5,-866.5 1599.5,-836.5 1387.5,-836.5"/>
<text text-anchor="start" x="1394.5" y="-847.9" font-family="Arial" font-size="14.00" fill="#000000">id </text>
<text text-anchor="start" x="1409.2798" y="-847.9" font-family="Arial" font-size="14.00" fill="#666666">[char(36)]</text>
<polygon fill="none" stroke="#000000" points="1387.5,-806.5 1387.5,-836.5 1599.5,-836.5 1599.5,-806.5 1387.5,-806.5"/>
<text text-anchor="start" x="1394.5" y="-817.9" font-family="Arial" font-size="14.00" fill="#000000">class_id </text>
<text text-anchor="start" x="1448.9516" y="-817.9" font-family="Arial" font-size="14.00" fill="#666666">[char(36)]</text>
<polygon fill="none" stroke="#000000" points="1387.5,-776.5 1387.5,-806.5 1599.5,-806.5 1599.5,-776.5 1387.5,-776.5"/>
<text text-anchor="start" x="1394.5" y="-787.9" font-family="Arial" font-size="14.00" fill="#000000">name </text>
<text text-anchor="start" x="1433.399" y="-787.9" font-family="Arial" font-size="14.00" fill="#666666">[varchar(255)]</text>
<polygon fill="none" stroke="#000000" points="1387.5,-746.5 1387.5,-776.5 1599.5,-776.5 1599.5,-746.5 1387.5,-746.5"/>
<text text-anchor="start" x="1394.5" y="-757.9" font-family="Arial" font-size="14.00" fill="#000000">description </text>
<text text-anchor="start" x="1466.068" y="-757.9" font-family="Arial" font-size="14.00" fill="#666666">[text]</text>
<polygon fill="none" stroke="#000000" points="1387.5,-716.5 1387.5,-746.5 1599.5,-746.5 1599.5,-716.5 1387.5,-716.5"/>
<text text-anchor="start" x="1394.5" y="-727.9" font-family="Arial" font-size="14.00" fill="#000000">deadline </text>
<text text-anchor="start" x="1451.2994" y="-727.9" font-family="Arial" font-size="14.00" fill="#666666">[datetime(6)]</text>
<polygon fill="none" stroke="#000000" points="1387.5,-686.5 1387.5,-716.5 1599.5,-716.5 1599.5,-686.5 1387.5,-686.5"/>
<text text-anchor="start" x="1394.5" y="-697.9" font-family="Arial" font-size="14.00" fill="#000000">created_at </text>
<text text-anchor="start" x="1464.528" y="-697.9" font-family="Arial" font-size="14.00" fill="#666666">[datetime(6)]</text>
</g>
<!-- classes -->
<g id="node4" class="node">
<title>classes</title>
<polygon fill="#efefef" stroke="transparent" points="1359.5,-529.5 1359.5,-564.5 1571.5,-564.5 1571.5,-529.5 1359.5,-529.5"/>
<polygon fill="none" stroke="#000000" points="1359.5,-529.5 1359.5,-564.5 1571.5,-564.5 1571.5,-529.5 1359.5,-529.5"/>
<text text-anchor="start" x="1386.8698" y="-542.3" font-family="Arial Bold" font-size="18.00" fill="#000000">classes</text>
<text text-anchor="start" x="1446.8764" y="-542.3" font-family="Arial" font-size="14.00" fill="#000000"> </text>
<text text-anchor="start" x="1450.767" y="-542.3" font-family="Arial" font-size="14.00" fill="#666666">[BASE TABLE]</text>
<polygon fill="none" stroke="#000000" points="1359.5,-499.5 1359.5,-529.5 1571.5,-529.5 1571.5,-499.5 1359.5,-499.5"/>
<text text-anchor="start" x="1366.5" y="-510.9" font-family="Arial" font-size="14.00" fill="#000000">id </text>
<text text-anchor="start" x="1381.2798" y="-510.9" font-family="Arial" font-size="14.00" fill="#666666">[char(36)]</text>
<polygon fill="none" stroke="#000000" points="1359.5,-469.5 1359.5,-499.5 1571.5,-499.5 1571.5,-469.5 1359.5,-469.5"/>
<text text-anchor="start" x="1366.5" y="-480.9" font-family="Arial" font-size="14.00" fill="#000000">course_id </text>
<text text-anchor="start" x="1431.0708" y="-480.9" font-family="Arial" font-size="14.00" fill="#666666">[char(36)]</text>
<polygon fill="none" stroke="#000000" points="1359.5,-439.5 1359.5,-469.5 1571.5,-469.5 1571.5,-439.5 1359.5,-439.5"/>
<text text-anchor="start" x="1366.5" y="-450.9" font-family="Arial" font-size="14.00" fill="#000000">title </text>
<text text-anchor="start" x="1392.1676" y="-450.9" font-family="Arial" font-size="14.00" fill="#666666">[varchar(255)]</text>
<polygon fill="none" stroke="#000000" points="1359.5,-409.5 1359.5,-439.5 1571.5,-439.5 1571.5,-409.5 1359.5,-409.5"/>
<text text-anchor="start" x="1366.5" y="-420.9" font-family="Arial" font-size="14.00" fill="#000000">description </text>
<text text-anchor="start" x="1438.068" y="-420.9" font-family="Arial" font-size="14.00" fill="#666666">[text]</text>
<polygon fill="none" stroke="#000000" points="1359.5,-379.5 1359.5,-409.5 1571.5,-409.5 1571.5,-379.5 1359.5,-379.5"/>
<text text-anchor="start" x="1366.3002" y="-390.9" font-family="Arial" font-size="14.00" fill="#000000">attendance_code </text>
<text text-anchor="start" x="1477.5806" y="-390.9" font-family="Arial" font-size="14.00" fill="#666666">[varchar(255)]</text>
</g>
<!-- assignments&#45;&gt;classes -->
<g id="edge2" class="edge">
<title>assignments:class_id&#45;&gt;classes:id</title>
<path fill="none" stroke="#000000" d="M1377.5123,-820.8098C1311.237,-811.1369 1339.6103,-702.1674 1387.5,-644 1440.4639,-579.6694 1518.5361,-672.3306 1571.5,-608 1597.9129,-575.9185 1613.0556,-514.5 1571.5,-514.5"/>
<polygon fill="#000000" stroke="#000000" points="1377.5238,-820.8105 1387.1897,-825.9893 1382.5119,-821.1552 1387.5,-821.5 1387.5,-821.5 1387.5,-821.5 1382.5119,-821.1552 1387.8103,-817.0107 1377.5238,-820.8105 1377.5238,-820.8105"/>
<text text-anchor="start" x="1394.3345" y="-831.5" font-family="Arial" font-size="10.00" fill="#000000">FOREIGN KEY (class_id) REFERENCES classes (id)</text>
</g>
<!-- attendances -->
<g id="node3" class="node">
<title>attendances</title>
<polygon fill="#efefef" stroke="transparent" points="1074.5,-821.5 1074.5,-856.5 1283.5,-856.5 1283.5,-821.5 1074.5,-821.5"/>
<polygon fill="none" stroke="#000000" points="1074.5,-821.5 1074.5,-856.5 1283.5,-856.5 1283.5,-821.5 1074.5,-821.5"/>
<text text-anchor="start" x="1081.3492" y="-834.3" font-family="Arial Bold" font-size="18.00" fill="#000000">attendances</text>
<text text-anchor="start" x="1179.397" y="-834.3" font-family="Arial" font-size="14.00" fill="#000000"> </text>
<text text-anchor="start" x="1183.2876" y="-834.3" font-family="Arial" font-size="14.00" fill="#666666">[BASE TABLE]</text>
<polygon fill="none" stroke="#000000" points="1074.5,-791.5 1074.5,-821.5 1283.5,-821.5 1283.5,-791.5 1074.5,-791.5"/>
<text text-anchor="start" x="1081.5" y="-802.9" font-family="Arial" font-size="14.00" fill="#000000">class_id </text>
<text text-anchor="start" x="1135.9516" y="-802.9" font-family="Arial" font-size="14.00" fill="#666666">[char(36)]</text>
<polygon fill="none" stroke="#000000" points="1074.5,-761.5 1074.5,-791.5 1283.5,-791.5 1283.5,-761.5 1074.5,-761.5"/>
<text text-anchor="start" x="1081.5" y="-772.9" font-family="Arial" font-size="14.00" fill="#000000">user_id </text>
<text text-anchor="start" x="1131.2882" y="-772.9" font-family="Arial" font-size="14.00" fill="#666666">[char(36)]</text>
<polygon fill="none" stroke="#000000" points="1074.5,-731.5 1074.5,-761.5 1283.5,-761.5 1283.5,-731.5 1074.5,-731.5"/>
<text text-anchor="start" x="1081.5" y="-742.9" font-family="Arial" font-size="14.00" fill="#000000">created_at </text>
<text text-anchor="start" x="1151.528" y="-742.9" font-family="Arial" font-size="14.00" fill="#666666">[datetime(6)]</text>
</g>
<!-- attendances&#45;&gt;classes -->
<g id="edge3" class="edge">
<title>attendances:class_id&#45;&gt;classes:id</title>
<path fill="none" stroke="#000000" d="M1293.7819,-805.857C1407.3344,-790.7496 1229.0653,-514.5 1359.5,-514.5"/>
<polygon fill="#000000" stroke="#000000" points="1293.4805,-805.8757 1283.2191,-802.0088 1288.4903,-806.1879 1283.5,-806.5 1283.5,-806.5 1283.5,-806.5 1288.4903,-806.1879 1283.7809,-810.9912 1293.4805,-805.8757 1293.4805,-805.8757"/>
<text text-anchor="start" x="1038.3345" y="-816.5" font-family="Arial" font-size="10.00" fill="#000000">FOREIGN KEY (class_id) REFERENCES classes (id)</text>
</g>
<!-- users -->
<g id="node15" class="node">
<title>users</title>
<polygon fill="#efefef" stroke="transparent" points="631.5,-529.5 631.5,-564.5 833.5,-564.5 833.5,-529.5 631.5,-529.5"/>
<polygon fill="none" stroke="#000000" points="631.5,-529.5 631.5,-564.5 833.5,-564.5 833.5,-529.5 631.5,-529.5"/>
<text text-anchor="start" x="661.8708" y="-542.3" font-family="Arial Bold" font-size="18.00" fill="#000000">users</text>
<text text-anchor="start" x="705.8754" y="-542.3" font-family="Arial" font-size="14.00" fill="#000000"> </text>
<text text-anchor="start" x="709.766" y="-542.3" font-family="Arial" font-size="14.00" fill="#666666">[BASE TABLE]</text>
<polygon fill="none" stroke="#000000" points="631.5,-499.5 631.5,-529.5 833.5,-529.5 833.5,-499.5 631.5,-499.5"/>
<text text-anchor="start" x="638.5" y="-510.9" font-family="Arial" font-size="14.00" fill="#000000">id </text>
<text text-anchor="start" x="653.2798" y="-510.9" font-family="Arial" font-size="14.00" fill="#666666">[char(36)]</text>
<polygon fill="none" stroke="#000000" points="631.5,-469.5 631.5,-499.5 833.5,-499.5 833.5,-469.5 631.5,-469.5"/>
<text text-anchor="start" x="638.5" y="-480.9" font-family="Arial" font-size="14.00" fill="#000000">name </text>
<text text-anchor="start" x="677.399" y="-480.9" font-family="Arial" font-size="14.00" fill="#666666">[varchar(255)]</text>
<polygon fill="none" stroke="#000000" points="631.5,-439.5 631.5,-469.5 833.5,-469.5 833.5,-439.5 631.5,-439.5"/>
<text text-anchor="start" x="638.5" y="-450.9" font-family="Arial" font-size="14.00" fill="#000000">mail_address </text>
<text text-anchor="start" x="725.6206" y="-450.9" font-family="Arial" font-size="14.00" fill="#666666">[varchar(255)]</text>
<polygon fill="none" stroke="#000000" points="631.5,-409.5 631.5,-439.5 833.5,-439.5 833.5,-409.5 631.5,-409.5"/>
<text text-anchor="start" x="638.3668" y="-420.9" font-family="Arial" font-size="14.00" fill="#000000">hashed_password </text>
<text text-anchor="start" x="755.8506" y="-420.9" font-family="Arial" font-size="14.00" fill="#666666">[binary(60)]</text>
<polygon fill="none" stroke="#000000" points="631.5,-379.5 631.5,-409.5 833.5,-409.5 833.5,-379.5 631.5,-379.5"/>
<text text-anchor="start" x="638.5" y="-390.9" font-family="Arial" font-size="14.00" fill="#000000">type </text>
<text text-anchor="start" x="668.8464" y="-390.9" font-family="Arial" font-size="14.00" fill="#666666">[enum(&#39;student&#39;,&#39;faculty&#39;)]</text>
</g>
<!-- attendances&#45;&gt;users -->
<g id="edge4" class="edge">
<title>attendances:user_id&#45;&gt;users:id</title>
<path fill="none" stroke="#000000" d="M1064.2636,-775.5359C1017.7019,-765.7231 1066.1179,-683.492 1021.5,-644 974.6797,-602.5586 934.8566,-646.3856 885.5,-608 847.9654,-578.8086 881.0498,-514.5 833.5,-514.5"/>
<polygon fill="#000000" stroke="#000000" points="1064.5441,-775.5623 1074.078,-780.9802 1069.522,-776.0311 1074.5,-776.5 1074.5,-776.5 1074.5,-776.5 1069.522,-776.0311 1074.922,-772.0198 1064.5441,-775.5623 1064.5441,-775.5623"/>
<text text-anchor="start" x="1021.445" y="-760.5" font-family="Arial" font-size="10.00" fill="#000000">FOREIGN KEY (user_id) REFERENCES users (id)</text>
</g>
<!-- classes&#45;&gt;courses -->
<g id="edge5" class="edge">
<title>classes:course_id&#45;&gt;courses:id</title>
<path fill="none" stroke="#000000" d="M1349.3747,-483.7733C1294.5072,-475.1764 1339.7029,-392.2091 1302.5,-337 1255.4978,-267.2489 1248.6096,-207.5 1164.5,-207.5"/>
<polygon fill="#000000" stroke="#000000" points="1349.5257,-483.784 1359.1778,-488.9885 1354.5128,-484.142 1359.5,-484.5 1359.5,-484.5 1359.5,-484.5 1354.5128,-484.142 1359.8222,-480.0115 1349.5257,-483.784 1349.5257,-483.784"/>
<text text-anchor="start" x="1171.136" y="-468.5" font-family="Arial" font-size="10.00" fill="#000000">FOREIGN KEY (course_id) REFERENCES courses (id)</text>
</g>
<!-- course_requirements -->
<g id="node5" class="node">
<title>course_requirements</title>
<polygon fill="#efefef" stroke="transparent" points="937.5,-484.5 937.5,-519.5 1217.5,-519.5 1217.5,-484.5 937.5,-484.5"/>
<polygon fill="none" stroke="#000000" points="937.5,-484.5 937.5,-519.5 1217.5,-519.5 1217.5,-484.5 937.5,-484.5"/>
<text text-anchor="start" x="944.3595" y="-497.3" font-family="Arial Bold" font-size="18.00" fill="#000000">course_requirements</text>
<text text-anchor="start" x="1113.3867" y="-497.3" font-family="Arial" font-size="14.00" fill="#000000"> </text>
<text text-anchor="start" x="1117.2773" y="-497.3" font-family="Arial" font-size="14.00" fill="#666666">[BASE TABLE]</text>
<polygon fill="none" stroke="#000000" points="937.5,-454.5 937.5,-484.5 1217.5,-484.5 1217.5,-454.5 937.5,-454.5"/>
<text text-anchor="start" x="944.5" y="-465.9" font-family="Arial" font-size="14.00" fill="#000000">course_id </text>
<text text-anchor="start" x="1009.0708" y="-465.9" font-family="Arial" font-size="14.00" fill="#666666">[char(36)]</text>
<polygon fill="none" stroke="#000000" points="937.5,-424.5 937.5,-454.5 1217.5,-454.5 1217.5,-424.5 937.5,-424.5"/>
<text text-anchor="start" x="944.5" y="-435.9" font-family="Arial" font-size="14.00" fill="#000000">required_course_id </text>
<text text-anchor="start" x="1068.1942" y="-435.9" font-family="Arial" font-size="14.00" fill="#666666">[char(36)]</text>
</g>
<!-- course_requirements&#45;&gt;courses -->
<g id="edge6" class="edge">
<title>course_requirements:course_id&#45;&gt;courses:id</title>
<path fill="none" stroke="#000000" d="M1227.3465,-466.5576C1270.2515,-437.7734 1220.1889,-207.5 1164.5,-207.5"/>
<polygon fill="#000000" stroke="#000000" points="1227.0814,-466.6368 1216.2115,-465.1884 1222.2907,-468.0684 1217.5,-469.5 1217.5,-469.5 1217.5,-469.5 1222.2907,-468.0684 1218.7885,-473.8116 1227.0814,-466.6368 1227.0814,-466.6368"/>
<text text-anchor="start" x="1159.636" y="-453.5" font-family="Arial" font-size="10.00" fill="#000000">FOREIGN KEY (course_id) REFERENCES courses (id)</text>
</g>
<!-- course_requirements&#45;&gt;courses -->
<g id="edge7" class="edge">
<title>course_requirements:required_course_id&#45;&gt;courses:id</title>
<path fill="none" stroke="#000000" d="M1078.04,-414.4805C1084.4077,-357.9662 1145.2888,-361.6294 1164.5,-301 1177.0523,-261.3856 1206.0556,-207.5 1164.5,-207.5"/>
<polygon fill="#000000" stroke="#000000" points="1078.0383,-414.5145 1073.0065,-424.2578 1077.7691,-419.5072 1077.5,-424.5 1077.5,-424.5 1077.5,-424.5 1077.7691,-419.5072 1081.9935,-424.7422 1078.0383,-414.5145 1078.0383,-414.5145"/>
<text text-anchor="start" x="1009.0205" y="-408.5" font-family="Arial" font-size="10.00" fill="#000000">FOREIGN KEY (required_course_id) REFERENCES courses (id)</text>
</g>
<!-- course_schedules -->
<g id="node6" class="node">
<title>course_schedules</title>
<polygon fill="#efefef" stroke="transparent" points="1675.5,-484.5 1675.5,-519.5 1931.5,-519.5 1931.5,-484.5 1675.5,-484.5"/>
<polygon fill="none" stroke="#000000" points="1675.5,-484.5 1675.5,-519.5 1931.5,-519.5 1931.5,-484.5 1675.5,-484.5"/>
<text text-anchor="start" x="1682.352" y="-497.3" font-family="Arial Bold" font-size="18.00" fill="#000000">course_schedules</text>
<text text-anchor="start" x="1827.3942" y="-497.3" font-family="Arial" font-size="14.00" fill="#000000"> </text>
<text text-anchor="start" x="1831.2848" y="-497.3" font-family="Arial" font-size="14.00" fill="#666666">[BASE TABLE]</text>
<polygon fill="none" stroke="#000000" points="1675.5,-454.5 1675.5,-484.5 1931.5,-484.5 1931.5,-454.5 1675.5,-454.5"/>
<text text-anchor="start" x="1682.5" y="-465.9" font-family="Arial" font-size="14.00" fill="#000000">course_id </text>
<text text-anchor="start" x="1747.0708" y="-465.9" font-family="Arial" font-size="14.00" fill="#666666">[char(36)]</text>
<polygon fill="none" stroke="#000000" points="1675.5,-424.5 1675.5,-454.5 1931.5,-454.5 1931.5,-424.5 1675.5,-424.5"/>
<text text-anchor="start" x="1682.5" y="-435.9" font-family="Arial" font-size="14.00" fill="#000000">schedule_id </text>
<text text-anchor="start" x="1761.082" y="-435.9" font-family="Arial" font-size="14.00" fill="#666666">[char(36)]</text>
</g>
<!-- course_schedules&#45;&gt;courses -->
<g id="edge8" class="edge">
<title>course_schedules:course_id&#45;&gt;courses:id</title>
<path fill="none" stroke="#000000" d="M1665.3058,-468.5272C1619.023,-458.6268 1668.6067,-375.6971 1623.5,-337 1568.1794,-289.5403 1533.8978,-319.8929 1463.5,-301 1329.0238,-264.9102 1303.7348,-207.5 1164.5,-207.5"/>
<polygon fill="#000000" stroke="#000000" points="1665.5452,-468.55 1675.0725,-473.9797 1670.5226,-469.025 1675.5,-469.5 1675.5,-469.5 1675.5,-469.5 1670.5226,-469.025 1675.9275,-465.0203 1665.5452,-468.55 1665.5452,-468.55"/>
<text text-anchor="start" x="1487.136" y="-453.5" font-family="Arial" font-size="10.00" fill="#000000">FOREIGN KEY (course_id) REFERENCES courses (id)</text>
</g>
<!-- schedules -->
<g id="node12" class="node">
<title>schedules</title>
<polygon fill="#efefef" stroke="transparent" points="1515.5,-207.5 1515.5,-242.5 2090.5,-242.5 2090.5,-207.5 1515.5,-207.5"/>
<polygon fill="none" stroke="#000000" points="1515.5,-207.5 1515.5,-242.5 2090.5,-242.5 2090.5,-207.5 1515.5,-207.5"/>
<text text-anchor="start" x="1713.8605" y="-220.3" font-family="Arial Bold" font-size="18.00" fill="#000000">schedules</text>
<text text-anchor="start" x="1794.8857" y="-220.3" font-family="Arial" font-size="14.00" fill="#000000"> </text>
<text text-anchor="start" x="1798.7763" y="-220.3" font-family="Arial" font-size="14.00" fill="#666666">[BASE TABLE]</text>
<polygon fill="none" stroke="#000000" points="1515.5,-177.5 1515.5,-207.5 2090.5,-207.5 2090.5,-177.5 1515.5,-177.5"/>
<text text-anchor="start" x="1522.5" y="-188.9" font-family="Arial" font-size="14.00" fill="#000000">id </text>
<text text-anchor="start" x="1537.2798" y="-188.9" font-family="Arial" font-size="14.00" fill="#666666">[char(36)]</text>
<polygon fill="none" stroke="#000000" points="1515.5,-147.5 1515.5,-177.5 2090.5,-177.5 2090.5,-147.5 1515.5,-147.5"/>
<text text-anchor="start" x="1522.5" y="-158.9" font-family="Arial" font-size="14.00" fill="#000000">period </text>
<text text-anchor="start" x="1565.2882" y="-158.9" font-family="Arial" font-size="14.00" fill="#666666">[tinyint unsigned]</text>
<polygon fill="none" stroke="#000000" points="1515.5,-117.5 1515.5,-147.5 2090.5,-147.5 2090.5,-117.5 1515.5,-117.5"/>
<text text-anchor="start" x="1522.2762" y="-128.9" font-family="Arial" font-size="14.00" fill="#000000">day_of_week </text>
<text text-anchor="start" x="1608.6422" y="-128.9" font-family="Arial" font-size="14.00" fill="#666666">[enum(&#39;sunday&#39;,&#39;monday&#39;,&#39;tuesday&#39;,&#39;wednesday&#39;,&#39;thursday&#39;,&#39;friday&#39;,&#39;saturday&#39;)]</text>
<polygon fill="none" stroke="#000000" points="1515.5,-87.5 1515.5,-117.5 2090.5,-117.5 2090.5,-87.5 1515.5,-87.5"/>
<text text-anchor="start" x="1522.5" y="-98.9" font-family="Arial" font-size="14.00" fill="#000000">semester </text>
<text text-anchor="start" x="1583.9502" y="-98.9" font-family="Arial" font-size="14.00" fill="#666666">[enum(&#39;first&#39;,&#39;second&#39;)]</text>
<polygon fill="none" stroke="#000000" points="1515.5,-57.5 1515.5,-87.5 2090.5,-87.5 2090.5,-57.5 1515.5,-57.5"/>
<text text-anchor="start" x="1522.5" y="-68.9" font-family="Arial" font-size="14.00" fill="#000000">year </text>
<text text-anchor="start" x="1553.6164" y="-68.9" font-family="Arial" font-size="14.00" fill="#666666">[int unsigned]</text>
</g>
<!-- course_schedules&#45;&gt;schedules -->
<g id="edge9" class="edge">
<title>course_schedules:schedule_id&#45;&gt;schedules:id</title>
<path fill="none" stroke="#000000" d="M1803.9037,-414.2153C1814.1623,-288.9621 2017.1083,-402.9079 2090.5,-286 2112.5946,-250.8049 2132.0556,-192.5 2090.5,-192.5"/>
<polygon fill="#000000" stroke="#000000" points="1803.8923,-414.5077 1799.0035,-424.3234 1803.6962,-419.5038 1803.5,-424.5 1803.5,-424.5 1803.5,-424.5 1803.6962,-419.5038 1807.9965,-424.6766 1803.8923,-414.5077 1803.8923,-414.5077"/>
<text text-anchor="start" x="1810.878" y="-434.5" font-family="Arial" font-size="10.00" fill="#000000">FOREIGN KEY (schedule_id) REFERENCES schedules (id)</text>
</g>
<!-- documents -->
<g id="node8" class="node">
<title>documents</title>
<polygon fill="#efefef" stroke="transparent" points="1704.5,-836.5 1704.5,-871.5 1903.5,-871.5 1903.5,-836.5 1704.5,-836.5"/>
<polygon fill="none" stroke="#000000" points="1704.5,-836.5 1704.5,-871.5 1903.5,-871.5 1903.5,-836.5 1704.5,-836.5"/>
<text text-anchor="start" x="1711.3604" y="-849.3" font-family="Arial Bold" font-size="18.00" fill="#000000">documents</text>
<text text-anchor="start" x="1799.3858" y="-849.3" font-family="Arial" font-size="14.00" fill="#000000"> </text>
<text text-anchor="start" x="1803.2764" y="-849.3" font-family="Arial" font-size="14.00" fill="#666666">[BASE TABLE]</text>
<polygon fill="none" stroke="#000000" points="1704.5,-806.5 1704.5,-836.5 1903.5,-836.5 1903.5,-806.5 1704.5,-806.5"/>
<text text-anchor="start" x="1711.5" y="-817.9" font-family="Arial" font-size="14.00" fill="#000000">id </text>
<text text-anchor="start" x="1726.2798" y="-817.9" font-family="Arial" font-size="14.00" fill="#666666">[char(36)]</text>
<polygon fill="none" stroke="#000000" points="1704.5,-776.5 1704.5,-806.5 1903.5,-806.5 1903.5,-776.5 1704.5,-776.5"/>
<text text-anchor="start" x="1711.5" y="-787.9" font-family="Arial" font-size="14.00" fill="#000000">class_id </text>
<text text-anchor="start" x="1765.9516" y="-787.9" font-family="Arial" font-size="14.00" fill="#666666">[char(36)]</text>
<polygon fill="none" stroke="#000000" points="1704.5,-746.5 1704.5,-776.5 1903.5,-776.5 1903.5,-746.5 1704.5,-746.5"/>
<text text-anchor="start" x="1711.5" y="-757.9" font-family="Arial" font-size="14.00" fill="#000000">name </text>
<text text-anchor="start" x="1750.399" y="-757.9" font-family="Arial" font-size="14.00" fill="#666666">[text]</text>
<polygon fill="none" stroke="#000000" points="1704.5,-716.5 1704.5,-746.5 1903.5,-746.5 1903.5,-716.5 1704.5,-716.5"/>
<text text-anchor="start" x="1711.5" y="-727.9" font-family="Arial" font-size="14.00" fill="#000000">created_at </text>
<text text-anchor="start" x="1781.528" y="-727.9" font-family="Arial" font-size="14.00" fill="#666666">[datetime(6)]</text>
</g>
<!-- documents&#45;&gt;classes -->
<g id="edge10" class="edge">
<title>documents:class_id&#45;&gt;classes:id</title>
<path fill="none" stroke="#000000" d="M1694.4501,-790.795C1639.9064,-782.451 1683.3088,-701.8128 1651.5,-644 1641.7288,-626.2408 1634.6811,-624.907 1623.5,-608 1597.2708,-568.3387 1619.0498,-514.5 1571.5,-514.5"/>
<polygon fill="#000000" stroke="#000000" points="1694.5245,-790.8002 1704.1851,-795.989 1699.5123,-791.1501 1704.5,-791.5 1704.5,-791.5 1704.5,-791.5 1699.5123,-791.1501 1704.8149,-787.011 1694.5245,-790.8002 1694.5245,-790.8002"/>
<text text-anchor="start" x="1711.3345" y="-801.5" font-family="Arial" font-size="10.00" fill="#000000">FOREIGN KEY (class_id) REFERENCES classes (id)</text>
</g>
<!-- grades -->
<g id="node9" class="node">
<title>grades</title>
<polygon fill="#efefef" stroke="transparent" points="803.5,-851.5 803.5,-886.5 969.5,-886.5 969.5,-851.5 803.5,-851.5"/>
<polygon fill="none" stroke="#000000" points="803.5,-851.5 803.5,-886.5 969.5,-886.5 969.5,-851.5 803.5,-851.5"/>
<text text-anchor="start" x="810.3646" y="-864.3" font-family="Arial Bold" font-size="18.00" fill="#000000">grades</text>
<text text-anchor="start" x="865.3816" y="-864.3" font-family="Arial" font-size="14.00" fill="#000000"> </text>
<text text-anchor="start" x="869.2722" y="-864.3" font-family="Arial" font-size="14.00" fill="#666666">[BASE TABLE]</text>
<polygon fill="none" stroke="#000000" points="803.5,-821.5 803.5,-851.5 969.5,-851.5 969.5,-821.5 803.5,-821.5"/>
<text text-anchor="start" x="810.5" y="-832.9" font-family="Arial" font-size="14.00" fill="#000000">id </text>
<text text-anchor="start" x="825.2798" y="-832.9" font-family="Arial" font-size="14.00" fill="#666666">[char(36)]</text>
<polygon fill="none" stroke="#000000" points="803.5,-791.5 803.5,-821.5 969.5,-821.5 969.5,-791.5 803.5,-791.5"/>
<text text-anchor="start" x="810.5" y="-802.9" font-family="Arial" font-size="14.00" fill="#000000">user_id </text>
<text text-anchor="start" x="860.2882" y="-802.9" font-family="Arial" font-size="14.00" fill="#666666">[char(36)]</text>
<polygon fill="none" stroke="#000000" points="803.5,-761.5 803.5,-791.5 969.5,-791.5 969.5,-761.5 803.5,-761.5"/>
<text text-anchor="start" x="810.5" y="-772.9" font-family="Arial" font-size="14.00" fill="#000000">course_id </text>
<text text-anchor="start" x="875.0708" y="-772.9" font-family="Arial" font-size="14.00" fill="#666666">[char(36)]</text>
<polygon fill="none" stroke="#000000" points="803.5,-731.5 803.5,-761.5 969.5,-761.5 969.5,-731.5 803.5,-731.5"/>
<text text-anchor="start" x="810.5" y="-742.9" font-family="Arial" font-size="14.00" fill="#000000">grade </text>
<text text-anchor="start" x="850.1816" y="-742.9" font-family="Arial" font-size="14.00" fill="#666666">[int unsigned]</text>
<polygon fill="none" stroke="#000000" points="803.5,-701.5 803.5,-731.5 969.5,-731.5 969.5,-701.5 803.5,-701.5"/>
<text text-anchor="start" x="810.5" y="-712.9" font-family="Arial" font-size="14.00" fill="#000000">created_at </text>
<text text-anchor="start" x="880.528" y="-712.9" font-family="Arial" font-size="14.00" fill="#666666">[datetime(6)]</text>
</g>
<!-- grades&#45;&gt;courses -->
<g id="edge11" class="edge">
<title>grades:course_id&#45;&gt;courses:id</title>
<path fill="none" stroke="#000000" d="M979.6782,-775.5077C1025.8003,-765.4126 974.9343,-680.9285 1021.5,-644 1108.7666,-574.7939 1196.6203,-692.2229 1269.5,-608 1308.9063,-562.4604 1289.6202,-393.7617 1269.5,-337 1244.7441,-267.1604 1238.5974,-207.5 1164.5,-207.5"/>
<polygon fill="#000000" stroke="#000000" points="979.4528,-775.5296 969.0633,-772.0212 974.4764,-776.0148 969.5,-776.5 969.5,-776.5 969.5,-776.5 974.4764,-776.0148 969.9367,-780.9788 979.4528,-775.5296 979.4528,-775.5296"/>
<text text-anchor="start" x="715.886" y="-786.5" font-family="Arial" font-size="10.00" fill="#000000">FOREIGN KEY (course_id) REFERENCES courses (id)</text>
</g>
<!-- grades&#45;&gt;users -->
<g id="edge12" class="edge">
<title>grades:user_id&#45;&gt;users:id</title>
<path fill="none" stroke="#000000" d="M793.4304,-805.7083C743.3197,-797.0237 787.2514,-718.6697 803.5,-659 810.4094,-633.6265 826.5906,-633.3735 833.5,-608 844.4184,-567.9044 875.0556,-514.5 833.5,-514.5"/>
<polygon fill="#000000" stroke="#000000" points="793.5308,-805.7161 803.1472,-810.9862 798.5154,-806.108 803.5,-806.5 803.5,-806.5 803.5,-806.5 798.5154,-806.108 803.8528,-802.0138 793.5308,-805.7161 793.5308,-805.7161"/>
<text text-anchor="start" x="570.445" y="-816.5" font-family="Arial" font-size="10.00" fill="#000000">FOREIGN KEY (user_id) REFERENCES users (id)</text>
</g>
<!-- phase -->
<g id="node10" class="node">
<title>phase</title>
<polygon fill="#efefef" stroke="transparent" points="1321.5,-1143.5 1321.5,-1178.5 1661.5,-1178.5 1661.5,-1143.5 1321.5,-1143.5"/>
<polygon fill="none" stroke="#000000" points="1321.5,-1143.5 1321.5,-1178.5 1661.5,-1178.5 1661.5,-1143.5 1321.5,-1143.5"/>
<text text-anchor="start" x="1418.3607" y="-1156.3" font-family="Arial Bold" font-size="18.00" fill="#000000">phase</text>
<text text-anchor="start" x="1467.3855" y="-1156.3" font-family="Arial" font-size="14.00" fill="#000000"> </text>
<text text-anchor="start" x="1471.2761" y="-1156.3" font-family="Arial" font-size="14.00" fill="#666666">[BASE TABLE]</text>
<polygon fill="none" stroke="#000000" points="1321.5,-1113.5 1321.5,-1143.5 1661.5,-1143.5 1661.5,-1113.5 1321.5,-1113.5"/>
<text text-anchor="start" x="1328.2117" y="-1124.9" font-family="Arial" font-size="14.00" fill="#000000">phase </text>
<text text-anchor="start" x="1370.2327" y="-1124.9" font-family="Arial" font-size="14.00" fill="#666666">[enum(&#39;registration&#39;,&#39;term&#45;time&#39;,&#39;exam&#45;period&#39;)]</text>
<polygon fill="none" stroke="#000000" points="1321.5,-1083.5 1321.5,-1113.5 1661.5,-1113.5 1661.5,-1083.5 1321.5,-1083.5"/>
<text text-anchor="start" x="1328.5" y="-1094.9" font-family="Arial" font-size="14.00" fill="#000000">year </text>
<text text-anchor="start" x="1359.6164" y="-1094.9" font-family="Arial" font-size="14.00" fill="#666666">[int unsigned]</text>
<polygon fill="none" stroke="#000000" points="1321.5,-1053.5 1321.5,-1083.5 1661.5,-1083.5 1661.5,-1053.5 1321.5,-1053.5"/>
<text text-anchor="start" x="1328.5" y="-1064.9" font-family="Arial" font-size="14.00" fill="#000000">semester </text>
<text text-anchor="start" x="1389.9502" y="-1064.9" font-family="Arial" font-size="14.00" fill="#666666">[enum(&#39;first&#39;,&#39;second&#39;)]</text>
</g>
<!-- registrations -->
<g id="node11" class="node">
<title>registrations</title>
<polygon fill="#efefef" stroke="transparent" points="43.5,-836.5 43.5,-871.5 252.5,-871.5 252.5,-836.5 43.5,-836.5"/>
<polygon fill="none" stroke="#000000" points="43.5,-836.5 43.5,-871.5 252.5,-871.5 252.5,-836.5 43.5,-836.5"/>
<text text-anchor="start" x="50.369" y="-849.3" font-family="Arial Bold" font-size="18.00" fill="#000000">registrations</text>
<text text-anchor="start" x="148.3772" y="-849.3" font-family="Arial" font-size="14.00" fill="#000000"> </text>
<text text-anchor="start" x="152.2678" y="-849.3" font-family="Arial" font-size="14.00" fill="#666666">[BASE TABLE]</text>
<polygon fill="none" stroke="#000000" points="43.5,-806.5 43.5,-836.5 252.5,-836.5 252.5,-806.5 43.5,-806.5"/>
<text text-anchor="start" x="50.5" y="-817.9" font-family="Arial" font-size="14.00" fill="#000000">course_id </text>
<text text-anchor="start" x="115.0708" y="-817.9" font-family="Arial" font-size="14.00" fill="#666666">[char(36)]</text>
<polygon fill="none" stroke="#000000" points="43.5,-776.5 43.5,-806.5 252.5,-806.5 252.5,-776.5 43.5,-776.5"/>
<text text-anchor="start" x="50.5" y="-787.9" font-family="Arial" font-size="14.00" fill="#000000">user_id </text>
<text text-anchor="start" x="100.2882" y="-787.9" font-family="Arial" font-size="14.00" fill="#666666">[char(36)]</text>
<polygon fill="none" stroke="#000000" points="43.5,-746.5 43.5,-776.5 252.5,-776.5 252.5,-746.5 43.5,-746.5"/>
<text text-anchor="start" x="50.5" y="-757.9" font-family="Arial" font-size="14.00" fill="#000000">created_at </text>
<text text-anchor="start" x="120.528" y="-757.9" font-family="Arial" font-size="14.00" fill="#666666">[datetime(6)]</text>
<polygon fill="none" stroke="#000000" points="43.5,-716.5 43.5,-746.5 252.5,-746.5 252.5,-716.5 43.5,-716.5"/>
<text text-anchor="start" x="50.5" y="-727.9" font-family="Arial" font-size="14.00" fill="#000000">deleted_at </text>
<text text-anchor="start" x="119.7566" y="-727.9" font-family="Arial" font-size="14.00" fill="#666666">[datetime(6)]</text>
</g>
<!-- registrations&#45;&gt;courses -->
<g id="edge13" class="edge">
<title>registrations:course_id&#45;&gt;courses:id</title>
<path fill="none" stroke="#000000" d="M262.488,-820.7245C311.7204,-812.2142 260.2745,-735.3518 252.5,-674 248.692,-643.9495 239.308,-638.0505 235.5,-608 220.3584,-488.5111 157.8649,-429.0851 235.5,-337 290.3621,-271.9267 905.386,-207.5 990.5,-207.5"/>
<polygon fill="#000000" stroke="#000000" points="262.47,-820.7258 252.1516,-817.0135 257.485,-821.1129 252.5,-821.5 252.5,-821.5 252.5,-821.5 257.485,-821.1129 252.8484,-825.9865 262.47,-820.7258 262.47,-820.7258"/>
<text text-anchor="start" x="129.386" y="-805.5" font-family="Arial" font-size="10.00" fill="#000000">FOREIGN KEY (course_id) REFERENCES courses (id)</text>
</g>
<!-- registrations&#45;&gt;users -->
<g id="edge14" class="edge">
<title>registrations:user_id&#45;&gt;users:id</title>
<path fill="none" stroke="#000000" d="M262.6543,-790.5966C314.3517,-780.3403 252.6811,-685.4355 303.5,-644 399.034,-566.1057 476.2555,-676.8501 578.5,-608 618.1216,-581.3193 583.7326,-514.5 631.5,-514.5"/>
<polygon fill="#000000" stroke="#000000" points="262.4607,-790.6138 252.1012,-787.0177 257.4803,-791.0569 252.5,-791.5 252.5,-791.5 252.5,-791.5 257.4803,-791.0569 252.8988,-795.9823 262.4607,-790.6138 262.4607,-790.6138"/>
<text text-anchor="start" x="139.445" y="-775.5" font-family="Arial" font-size="10.00" fill="#000000">FOREIGN KEY (user_id) REFERENCES users (id)</text>
</g>
<!-- submissions -->
<g id="node13" class="node">
<title>submissions</title>
<polygon fill="#efefef" stroke="transparent" points="1007.5,-1173.5 1007.5,-1208.5 1217.5,-1208.5 1217.5,-1173.5 1007.5,-1173.5"/>
<polygon fill="none" stroke="#000000" points="1007.5,-1173.5 1007.5,-1208.5 1217.5,-1208.5 1217.5,-1173.5 1007.5,-1173.5"/>
<text text-anchor="start" x="1014.3704" y="-1186.3" font-family="Arial Bold" font-size="18.00" fill="#000000">submissions</text>
<text text-anchor="start" x="1113.3758" y="-1186.3" font-family="Arial" font-size="14.00" fill="#000000"> </text>
<text text-anchor="start" x="1117.2664" y="-1186.3" font-family="Arial" font-size="14.00" fill="#666666">[BASE TABLE]</text>
<polygon fill="none" stroke="#000000" points="1007.5,-1143.5 1007.5,-1173.5 1217.5,-1173.5 1217.5,-1143.5 1007.5,-1143.5"/>
<text text-anchor="start" x="1014.5" y="-1154.9" font-family="Arial" font-size="14.00" fill="#000000">id </text>
<text text-anchor="start" x="1029.2798" y="-1154.9" font-family="Arial" font-size="14.00" fill="#666666">[char(36)]</text>
<polygon fill="none" stroke="#000000" points="1007.5,-1113.5 1007.5,-1143.5 1217.5,-1143.5 1217.5,-1113.5 1007.5,-1113.5"/>
<text text-anchor="start" x="1014.5" y="-1124.9" font-family="Arial" font-size="14.00" fill="#000000">user_id </text>
<text text-anchor="start" x="1064.2882" y="-1124.9" font-family="Arial" font-size="14.00" fill="#666666">[char(36)]</text>
<polygon fill="none" stroke="#000000" points="1007.5,-1083.5 1007.5,-1113.5 1217.5,-1113.5 1217.5,-1083.5 1007.5,-1083.5"/>
<text text-anchor="start" x="1014.5" y="-1094.9" font-family="Arial" font-size="14.00" fill="#000000">assignment_id </text>
<text text-anchor="start" x="1108.6332" y="-1094.9" font-family="Arial" font-size="14.00" fill="#666666">[char(36)]</text>
<polygon fill="none" stroke="#000000" points="1007.5,-1053.5 1007.5,-1083.5 1217.5,-1083.5 1217.5,-1053.5 1007.5,-1053.5"/>
<text text-anchor="start" x="1014.5" y="-1064.9" font-family="Arial" font-size="14.00" fill="#000000">name </text>
<text text-anchor="start" x="1053.399" y="-1064.9" font-family="Arial" font-size="14.00" fill="#666666">[varchar(255)]</text>
<polygon fill="none" stroke="#000000" points="1007.5,-1023.5 1007.5,-1053.5 1217.5,-1053.5 1217.5,-1023.5 1007.5,-1023.5"/>
<text text-anchor="start" x="1014.5" y="-1034.9" font-family="Arial" font-size="14.00" fill="#000000">created_at </text>
<text text-anchor="start" x="1084.528" y="-1034.9" font-family="Arial" font-size="14.00" fill="#666666">[datetime(6)]</text>
</g>
<!-- submissions&#45;&gt;assignments -->
<g id="edge15" class="edge">
<title>submissions:assignment_id&#45;&gt;assignments:id</title>
<path fill="none" stroke="#000000" d="M1227.5959,-1097.5333C1269.1561,-1088.6224 1233.3911,-1020.2259 1269.5,-981 1292.1298,-956.4168 1311.7765,-968.5296 1335.5,-945 1369.2605,-911.5154 1339.9502,-851.5 1387.5,-851.5"/>
<polygon fill="#000000" stroke="#000000" points="1227.4545,-1097.5467 1217.071,-1094.0205 1222.4772,-1098.0234 1217.5,-1098.5 1217.5,-1098.5 1217.5,-1098.5 1222.4772,-1098.0234 1217.929,-1102.9795 1227.4545,-1097.5467 1227.4545,-1097.5467"/>
<text text-anchor="start" x="921.77" y="-1108.5" font-family="Arial" font-size="10.00" fill="#000000">FOREIGN KEY (assignment_id) REFERENCES assignments (id)</text>
</g>
<!-- submissions&#45;&gt;users -->
<g id="edge16" class="edge">
<title>submissions:user_id&#45;&gt;users:id</title>
<path fill="none" stroke="#000000" d="M997.4027,-1128.3945C864.9628,-1125.5813 813.8913,-1066.4859 751.5,-945 720.9423,-885.4992 714.9243,-700.003 751.5,-644 773.2643,-610.6756 811.7357,-641.3244 833.5,-608 856.2231,-573.2074 875.0556,-514.5 833.5,-514.5"/>
<polygon fill="#000000" stroke="#000000" points="997.5005,-1128.3954 1007.4529,-1132.9998 1002.5003,-1128.4477 1007.5,-1128.5 1007.5,-1128.5 1007.5,-1128.5 1002.5003,-1128.4477 1007.5471,-1124.0002 997.5005,-1128.3954 997.5005,-1128.3954"/>
<text text-anchor="start" x="774.445" y="-1138.5" font-family="Arial" font-size="10.00" fill="#000000">FOREIGN KEY (user_id) REFERENCES users (id)</text>
</g>
<!-- unread_announcements -->
<g id="node14" class="node">
<title>unread_announcements</title>
<polygon fill="#efefef" stroke="transparent" points="356.5,-836.5 356.5,-871.5 661.5,-871.5 661.5,-836.5 356.5,-836.5"/>
<polygon fill="none" stroke="#000000" points="356.5,-836.5 356.5,-871.5 661.5,-871.5 661.5,-836.5 356.5,-836.5"/>
<text text-anchor="start" x="363.3333" y="-849.3" font-family="Arial Bold" font-size="18.00" fill="#000000">unread_announcements</text>
<text text-anchor="start" x="557.4129" y="-849.3" font-family="Arial" font-size="14.00" fill="#000000"> </text>
<text text-anchor="start" x="561.3035" y="-849.3" font-family="Arial" font-size="14.00" fill="#666666">[BASE TABLE]</text>
<polygon fill="none" stroke="#000000" points="356.5,-806.5 356.5,-836.5 661.5,-836.5 661.5,-806.5 356.5,-806.5"/>
<text text-anchor="start" x="363.5" y="-817.9" font-family="Arial" font-size="14.00" fill="#000000">announcement_id </text>
<text text-anchor="start" x="478.657" y="-817.9" font-family="Arial" font-size="14.00" fill="#666666">[char(36)]</text>
<polygon fill="none" stroke="#000000" points="356.5,-776.5 356.5,-806.5 661.5,-806.5 661.5,-776.5 356.5,-776.5"/>
<text text-anchor="start" x="363.5" y="-787.9" font-family="Arial" font-size="14.00" fill="#000000">user_id </text>
<text text-anchor="start" x="413.2882" y="-787.9" font-family="Arial" font-size="14.00" fill="#666666">[char(36)]</text>
<polygon fill="none" stroke="#000000" points="356.5,-746.5 356.5,-776.5 661.5,-776.5 661.5,-746.5 356.5,-746.5"/>
<text text-anchor="start" x="363.5" y="-757.9" font-family="Arial" font-size="14.00" fill="#000000">created_at </text>
<text text-anchor="start" x="433.528" y="-757.9" font-family="Arial" font-size="14.00" fill="#666666">[datetime(6)]</text>
<polygon fill="none" stroke="#000000" points="356.5,-716.5 356.5,-746.5 661.5,-746.5 661.5,-716.5 356.5,-716.5"/>
<text text-anchor="start" x="363.5" y="-727.9" font-family="Arial" font-size="14.00" fill="#000000">deleted_at </text>
<text text-anchor="start" x="432.7566" y="-727.9" font-family="Arial" font-size="14.00" fill="#666666">[datetime(6)]</text>
</g>
<!-- unread_announcements&#45;&gt;announcements -->
<g id="edge17" class="edge">
<title>unread_announcements:announcement_id&#45;&gt;announcements:id</title>
<path fill="none" stroke="#000000" d="M346.2501,-820.6248C294.1976,-811.0413 321.5187,-724.998 356.5,-674 402.5805,-606.8209 481.4195,-675.1791 527.5,-608 551.006,-573.7315 569.0556,-514.5 527.5,-514.5"/>
<polygon fill="#000000" stroke="#000000" points="346.5363,-820.6492 356.1171,-825.9837 351.5181,-821.0746 356.5,-821.5 356.5,-821.5 356.5,-821.5 351.5181,-821.0746 356.8829,-817.0163 346.5363,-820.6492 346.5363,-820.6492"/>
<text text-anchor="start" x="30.753" y="-831.5" font-family="Arial" font-size="10.00" fill="#000000">FOREIGN KEY (announcement_id) REFERENCES announcements (id)</text>
</g>
<!-- unread_announcements&#45;&gt;users -->
<g id="edge18" class="edge">
<title>unread_announcements:user_id&#45;&gt;users:id</title>
<path fill="none" stroke="#000000" d="M671.6348,-790.4352C707.7774,-781.7196 671.7349,-721.2506 661.5,-674 654.6787,-642.5089 638.3213,-639.4911 631.5,-608 622.7027,-567.3863 589.9444,-514.5 631.5,-514.5"/>
<polygon fill="#000000" stroke="#000000" points="671.4453,-790.455 661.0298,-787.0246 666.4726,-790.9775 661.5,-791.5 661.5,-791.5 661.5,-791.5 666.4726,-790.9775 661.9702,-795.9754 671.4453,-790.455 671.4453,-790.455"/>
<text text-anchor="start" x="428.445" y="-775.5" font-family="Arial" font-size="10.00" fill="#000000">FOREIGN KEY (user_id) REFERENCES users (id)</text>
</g>
</g>
</svg>
