<?xml version="1.0" encoding="UTF-8" standalone="no"?>
<!DOCTYPE svg PUBLIC "-//W3C//DTD SVG 1.1//EN"
 "http://www.w3.org/Graphics/SVG/1.1/DTD/svg11.dtd">
<!-- Generated by graphviz version 2.40.1 (20161225.0304)
 -->
<!-- Title: submissions Pages: 1 -->
<svg width="710pt" height="682pt"
 viewBox="0.00 0.00 710.00 682.00" xmlns="http://www.w3.org/2000/svg" xmlns:xlink="http://www.w3.org/1999/xlink">
<g id="graph0" class="graph" transform="scale(1 1) rotate(0) translate(4 678)">
<title>submissions</title>
<polygon fill="#ffffff" stroke="transparent" points="-4,4 -4,-678 706,-678 706,4 -4,4"/>
<!-- submissions -->
<g id="node1" class="node">
<title>submissions</title>
<polygon fill="#efefef" stroke="transparent" points="240,-592.5 240,-627.5 450,-627.5 450,-592.5 240,-592.5"/>
<polygon fill="none" stroke="#000000" points="240,-592.5 240,-627.5 450,-627.5 450,-592.5 240,-592.5"/>
<text text-anchor="start" x="246.8704" y="-605.3" font-family="Arial Bold" font-size="18.00" fill="#000000">submissions</text>
<text text-anchor="start" x="345.8758" y="-605.3" font-family="Arial" font-size="14.00" fill="#000000"> </text>
<text text-anchor="start" x="349.7664" y="-605.3" font-family="Arial" font-size="14.00" fill="#666666">[BASE TABLE]</text>
<polygon fill="none" stroke="#000000" points="240,-562.5 240,-592.5 450,-592.5 450,-562.5 240,-562.5"/>
<text text-anchor="start" x="247" y="-573.9" font-family="Arial" font-size="14.00" fill="#000000">id </text>
<text text-anchor="start" x="261.7798" y="-573.9" font-family="Arial" font-size="14.00" fill="#666666">[char(36)]</text>
<polygon fill="none" stroke="#000000" points="240,-532.5 240,-562.5 450,-562.5 450,-532.5 240,-532.5"/>
<text text-anchor="start" x="247" y="-543.9" font-family="Arial" font-size="14.00" fill="#000000">user_id </text>
<text text-anchor="start" x="296.7882" y="-543.9" font-family="Arial" font-size="14.00" fill="#666666">[char(36)]</text>
<polygon fill="none" stroke="#000000" points="240,-502.5 240,-532.5 450,-532.5 450,-502.5 240,-502.5"/>
<text text-anchor="start" x="247" y="-513.9" font-family="Arial" font-size="14.00" fill="#000000">class_id </text>
<text text-anchor="start" x="301.4516" y="-513.9" font-family="Arial" font-size="14.00" fill="#666666">[char(36)]</text>
<polygon fill="none" stroke="#000000" points="240,-472.5 240,-502.5 450,-502.5 450,-472.5 240,-472.5"/>
<text text-anchor="start" x="247" y="-483.9" font-family="Arial" font-size="14.00" fill="#000000">name </text>
<text text-anchor="start" x="285.899" y="-483.9" font-family="Arial" font-size="14.00" fill="#666666">[varchar(255)]</text>
<polygon fill="none" stroke="#000000" points="240,-442.5 240,-472.5 450,-472.5 450,-442.5 240,-442.5"/>
<text text-anchor="start" x="247" y="-453.9" font-family="Arial" font-size="14.00" fill="#000000">score </text>
<text text-anchor="start" x="285.1164" y="-453.9" font-family="Arial" font-size="14.00" fill="#666666">[tinyint unsigned]</text>
<polygon fill="none" stroke="#000000" points="240,-412.5 240,-442.5 450,-442.5 450,-412.5 240,-412.5"/>
<text text-anchor="start" x="247" y="-423.9" font-family="Arial" font-size="14.00" fill="#000000">created_at </text>
<text text-anchor="start" x="317.028" y="-423.9" font-family="Arial" font-size="14.00" fill="#666666">[datetime(6)]</text>
<polygon fill="none" stroke="#000000" stroke-width="3" points="238.5,-411.5 238.5,-629.5 451.5,-629.5 451.5,-411.5 238.5,-411.5"/>
</g>
<!-- users -->
<g id="node2" class="node">
<title>users</title>
<polygon fill="#efefef" stroke="transparent" points="83,-222.5 83,-257.5 285,-257.5 285,-222.5 83,-222.5"/>
<polygon fill="none" stroke="#000000" points="83,-222.5 83,-257.5 285,-257.5 285,-222.5 83,-222.5"/>
<text text-anchor="start" x="113.3708" y="-235.3" font-family="Arial Bold" font-size="18.00" fill="#000000">users</text>
<text text-anchor="start" x="157.3754" y="-235.3" font-family="Arial" font-size="14.00" fill="#000000"> </text>
<text text-anchor="start" x="161.266" y="-235.3" font-family="Arial" font-size="14.00" fill="#666666">[BASE TABLE]</text>
<polygon fill="none" stroke="#000000" points="83,-192.5 83,-222.5 285,-222.5 285,-192.5 83,-192.5"/>
<text text-anchor="start" x="90" y="-203.9" font-family="Arial" font-size="14.00" fill="#000000">id </text>
<text text-anchor="start" x="104.7798" y="-203.9" font-family="Arial" font-size="14.00" fill="#666666">[char(36)]</text>
<polygon fill="none" stroke="#000000" points="83,-162.5 83,-192.5 285,-192.5 285,-162.5 83,-162.5"/>
<text text-anchor="start" x="90" y="-173.9" font-family="Arial" font-size="14.00" fill="#000000">code </text>
<text text-anchor="start" x="124.2384" y="-173.9" font-family="Arial" font-size="14.00" fill="#666666">[char(8)]</text>
<polygon fill="none" stroke="#000000" points="83,-132.5 83,-162.5 285,-162.5 285,-132.5 83,-132.5"/>
<text text-anchor="start" x="90" y="-143.9" font-family="Arial" font-size="14.00" fill="#000000">name </text>
<text text-anchor="start" x="128.899" y="-143.9" font-family="Arial" font-size="14.00" fill="#666666">[varchar(255)]</text>
<polygon fill="none" stroke="#000000" points="83,-102.5 83,-132.5 285,-132.5 285,-102.5 83,-102.5"/>
<text text-anchor="start" x="89.8668" y="-113.9" font-family="Arial" font-size="14.00" fill="#000000">hashed_password </text>
<text text-anchor="start" x="207.3506" y="-113.9" font-family="Arial" font-size="14.00" fill="#666666">[binary(60)]</text>
<polygon fill="none" stroke="#000000" points="83,-72.5 83,-102.5 285,-102.5 285,-72.5 83,-72.5"/>
<text text-anchor="start" x="90" y="-83.9" font-family="Arial" font-size="14.00" fill="#000000">type </text>
<text text-anchor="start" x="120.3464" y="-83.9" font-family="Arial" font-size="14.00" fill="#666666">[enum(&#39;student&#39;,&#39;faculty&#39;)]</text>
</g>
<!-- submissions&#45;&gt;users -->
<g id="edge1" class="edge">
<title>submissions:user_id&#45;&gt;users:id</title>
<path fill="none" stroke="#000000" d="M230.0016,-546.8832C164.7943,-538.2253 217.4156,-440.2143 240,-367 250.465,-333.0747 274.535,-334.9253 285,-301 297.2491,-261.2908 326.5556,-207.5 285,-207.5"/>
<polygon fill="#000000" stroke="#000000" points="230.019,-546.8842 239.7229,-551.9915 235.0095,-547.1921 240,-547.5 240,-547.5 240,-547.5 235.0095,-547.1921 240.2771,-543.0085 230.019,-546.8842 230.019,-546.8842"/>
<text text-anchor="start" x="6.945" y="-557.5" font-family="Arial" font-size="10.00" fill="#000000">FOREIGN KEY (user_id) REFERENCES users (id)</text>
</g>
<!-- classes -->
<g id="node3" class="node">
<title>classes</title>
<polygon fill="#efefef" stroke="transparent" points="389,-252.5 389,-287.5 623,-287.5 623,-252.5 389,-252.5"/>
<polygon fill="none" stroke="#000000" points="389,-252.5 389,-287.5 623,-287.5 623,-252.5 389,-252.5"/>
<text text-anchor="start" x="427.3698" y="-265.3" font-family="Arial Bold" font-size="18.00" fill="#000000">classes</text>
<text text-anchor="start" x="487.3764" y="-265.3" font-family="Arial" font-size="14.00" fill="#000000"> </text>
<text text-anchor="start" x="491.267" y="-265.3" font-family="Arial" font-size="14.00" fill="#666666">[BASE TABLE]</text>
<polygon fill="none" stroke="#000000" points="389,-222.5 389,-252.5 623,-252.5 623,-222.5 389,-222.5"/>
<text text-anchor="start" x="396" y="-233.9" font-family="Arial" font-size="14.00" fill="#000000">id </text>
<text text-anchor="start" x="410.7798" y="-233.9" font-family="Arial" font-size="14.00" fill="#666666">[char(36)]</text>
<polygon fill="none" stroke="#000000" points="389,-192.5 389,-222.5 623,-222.5 623,-192.5 389,-192.5"/>
<text text-anchor="start" x="396" y="-203.9" font-family="Arial" font-size="14.00" fill="#000000">course_id </text>
<text text-anchor="start" x="460.5708" y="-203.9" font-family="Arial" font-size="14.00" fill="#666666">[char(36)]</text>
<polygon fill="none" stroke="#000000" points="389,-162.5 389,-192.5 623,-192.5 623,-162.5 389,-162.5"/>
<text text-anchor="start" x="396" y="-173.9" font-family="Arial" font-size="14.00" fill="#000000">part </text>
<text text-anchor="start" x="424.007" y="-173.9" font-family="Arial" font-size="14.00" fill="#666666">[tinyint unsigned]</text>
<polygon fill="none" stroke="#000000" points="389,-132.5 389,-162.5 623,-162.5 623,-132.5 389,-132.5"/>
<text text-anchor="start" x="396" y="-143.9" font-family="Arial" font-size="14.00" fill="#000000">title </text>
<text text-anchor="start" x="421.6676" y="-143.9" font-family="Arial" font-size="14.00" fill="#666666">[varchar(255)]</text>
<polygon fill="none" stroke="#000000" points="389,-102.5 389,-132.5 623,-132.5 623,-102.5 389,-102.5"/>
<text text-anchor="start" x="396" y="-113.9" font-family="Arial" font-size="14.00" fill="#000000">description </text>
<text text-anchor="start" x="467.568" y="-113.9" font-family="Arial" font-size="14.00" fill="#666666">[text]</text>
<polygon fill="none" stroke="#000000" points="389,-72.5 389,-102.5 623,-102.5 623,-72.5 389,-72.5"/>
<text text-anchor="start" x="396" y="-83.9" font-family="Arial" font-size="14.00" fill="#000000">created_at </text>
<text text-anchor="start" x="466.028" y="-83.9" font-family="Arial" font-size="14.00" fill="#666666">[datetime(6)]</text>
<polygon fill="none" stroke="#000000" points="389,-42.5 389,-72.5 623,-72.5 623,-42.5 389,-42.5"/>
<text text-anchor="start" x="395.9243" y="-53.9" font-family="Arial" font-size="14.00" fill="#000000">submission_closed_at </text>
<text text-anchor="start" x="537.5119" y="-53.9" font-family="Arial" font-size="14.00" fill="#666666">[datetime(6)]</text>
</g>
<!-- submissions&#45;&gt;classes -->
<g id="edge2" class="edge">
<title>submissions:class_id&#45;&gt;classes:id</title>
<path fill="none" stroke="#000000" d="M460.0878,-516.6916C513.2022,-507.4949 481.3534,-421.91 450,-367 434.3903,-339.6623 404.6097,-358.3377 389,-331 368.3944,-294.913 347.4444,-237.5 389,-237.5"/>
<polygon fill="#000000" stroke="#000000" points="459.968,-516.7011 449.6405,-513.0144 454.984,-517.1005 450,-517.5 450,-517.5 450,-517.5 454.984,-517.1005 450.3595,-521.9856 459.968,-516.7011 459.968,-516.7011"/>
<text text-anchor="start" x="456.8345" y="-527.5" font-family="Arial" font-size="10.00" fill="#000000">FOREIGN KEY (class_id) REFERENCES classes (id)</text>
</g>
</g>
</svg>
