<?xml version="1.0" encoding="UTF-8" standalone="no"?>
<!DOCTYPE svg PUBLIC "-//W3C//DTD SVG 1.1//EN"
 "http://www.w3.org/Graphics/SVG/1.1/DTD/svg11.dtd">
<!-- Generated by graphviz version 2.40.1 (20161225.0304)
 -->
<!-- Title: submissions Pages: 1 -->
<svg width="761pt" height="592pt"
 viewBox="0.00 0.00 761.00 592.00" xmlns="http://www.w3.org/2000/svg" xmlns:xlink="http://www.w3.org/1999/xlink">
<g id="graph0" class="graph" transform="scale(1 1) rotate(0) translate(4 588)">
<title>submissions</title>
<polygon fill="#ffffff" stroke="transparent" points="-4,4 -4,-588 757,-588 757,4 -4,4"/>
<!-- submissions -->
<g id="node1" class="node">
<title>submissions</title>
<polygon fill="#efefef" stroke="transparent" points="240,-502.5 240,-537.5 450,-537.5 450,-502.5 240,-502.5"/>
<polygon fill="none" stroke="#000000" points="240,-502.5 240,-537.5 450,-537.5 450,-502.5 240,-502.5"/>
<text text-anchor="start" x="246.8704" y="-515.3" font-family="Arial Bold" font-size="18.00" fill="#000000">submissions</text>
<text text-anchor="start" x="345.8758" y="-515.3" font-family="Arial" font-size="14.00" fill="#000000"> </text>
<text text-anchor="start" x="349.7664" y="-515.3" font-family="Arial" font-size="14.00" fill="#666666">[BASE TABLE]</text>
<polygon fill="none" stroke="#000000" points="240,-472.5 240,-502.5 450,-502.5 450,-472.5 240,-472.5"/>
<text text-anchor="start" x="247" y="-483.9" font-family="Arial" font-size="14.00" fill="#000000">id </text>
<text text-anchor="start" x="261.7798" y="-483.9" font-family="Arial" font-size="14.00" fill="#666666">[char(36)]</text>
<polygon fill="none" stroke="#000000" points="240,-442.5 240,-472.5 450,-472.5 450,-442.5 240,-442.5"/>
<text text-anchor="start" x="247" y="-453.9" font-family="Arial" font-size="14.00" fill="#000000">user_id </text>
<text text-anchor="start" x="296.7882" y="-453.9" font-family="Arial" font-size="14.00" fill="#666666">[char(36)]</text>
<polygon fill="none" stroke="#000000" points="240,-412.5 240,-442.5 450,-442.5 450,-412.5 240,-412.5"/>
<text text-anchor="start" x="247" y="-423.9" font-family="Arial" font-size="14.00" fill="#000000">assignment_id </text>
<text text-anchor="start" x="341.1332" y="-423.9" font-family="Arial" font-size="14.00" fill="#666666">[char(36)]</text>
<polygon fill="none" stroke="#000000" points="240,-382.5 240,-412.5 450,-412.5 450,-382.5 240,-382.5"/>
<text text-anchor="start" x="247" y="-393.9" font-family="Arial" font-size="14.00" fill="#000000">name </text>
<text text-anchor="start" x="285.899" y="-393.9" font-family="Arial" font-size="14.00" fill="#666666">[varchar(255)]</text>
<polygon fill="none" stroke="#000000" points="240,-352.5 240,-382.5 450,-382.5 450,-352.5 240,-352.5"/>
<text text-anchor="start" x="247" y="-363.9" font-family="Arial" font-size="14.00" fill="#000000">created_at </text>
<text text-anchor="start" x="317.028" y="-363.9" font-family="Arial" font-size="14.00" fill="#666666">[datetime(6)]</text>
<polygon fill="none" stroke="#000000" stroke-width="3" points="238.5,-351.5 238.5,-539.5 451.5,-539.5 451.5,-351.5 238.5,-351.5"/>
</g>
<!-- users -->
<g id="node2" class="node">
<title>users</title>
<polygon fill="#efefef" stroke="transparent" points="89,-192.5 89,-227.5 291,-227.5 291,-192.5 89,-192.5"/>
<polygon fill="none" stroke="#000000" points="89,-192.5 89,-227.5 291,-227.5 291,-192.5 89,-192.5"/>
<text text-anchor="start" x="119.3708" y="-205.3" font-family="Arial Bold" font-size="18.00" fill="#000000">users</text>
<text text-anchor="start" x="163.3754" y="-205.3" font-family="Arial" font-size="14.00" fill="#000000"> </text>
<text text-anchor="start" x="167.266" y="-205.3" font-family="Arial" font-size="14.00" fill="#666666">[BASE TABLE]</text>
<polygon fill="none" stroke="#000000" points="89,-162.5 89,-192.5 291,-192.5 291,-162.5 89,-162.5"/>
<text text-anchor="start" x="96" y="-173.9" font-family="Arial" font-size="14.00" fill="#000000">id </text>
<text text-anchor="start" x="110.7798" y="-173.9" font-family="Arial" font-size="14.00" fill="#666666">[char(36)]</text>
<polygon fill="none" stroke="#000000" points="89,-132.5 89,-162.5 291,-162.5 291,-132.5 89,-132.5"/>
<text text-anchor="start" x="96" y="-143.9" font-family="Arial" font-size="14.00" fill="#000000">name </text>
<text text-anchor="start" x="134.899" y="-143.9" font-family="Arial" font-size="14.00" fill="#666666">[varchar(255)]</text>
<polygon fill="none" stroke="#000000" points="89,-102.5 89,-132.5 291,-132.5 291,-102.5 89,-102.5"/>
<text text-anchor="start" x="96" y="-113.9" font-family="Arial" font-size="14.00" fill="#000000">mail_address </text>
<text text-anchor="start" x="183.1206" y="-113.9" font-family="Arial" font-size="14.00" fill="#666666">[varchar(255)]</text>
<polygon fill="none" stroke="#000000" points="89,-72.5 89,-102.5 291,-102.5 291,-72.5 89,-72.5"/>
<text text-anchor="start" x="95.8668" y="-83.9" font-family="Arial" font-size="14.00" fill="#000000">hashed_password </text>
<text text-anchor="start" x="213.3506" y="-83.9" font-family="Arial" font-size="14.00" fill="#666666">[binary(60)]</text>
<polygon fill="none" stroke="#000000" points="89,-42.5 89,-72.5 291,-72.5 291,-42.5 89,-42.5"/>
<text text-anchor="start" x="96" y="-53.9" font-family="Arial" font-size="14.00" fill="#000000">type </text>
<text text-anchor="start" x="126.3464" y="-53.9" font-family="Arial" font-size="14.00" fill="#666666">[enum(&#39;student&#39;,&#39;faculty&#39;)]</text>
</g>
<!-- submissions&#45;&gt;users -->
<g id="edge1" class="edge">
<title>submissions:user_id&#45;&gt;users:id</title>
<path fill="none" stroke="#000000" d="M229.942,-457.433C-58.01,-453.516 286.8146,-279.0775 291,-271 310.1182,-234.1034 332.5556,-177.5 291,-177.5"/>
<polygon fill="#000000" stroke="#000000" points="230.0002,-457.4333 239.97,-461.9999 235.0001,-457.4667 240,-457.5 240,-457.5 240,-457.5 235.0001,-457.4667 240.03,-453.0001 230.0002,-457.4333 230.0002,-457.4333"/>
<text text-anchor="start" x="6.945" y="-467.5" font-family="Arial" font-size="10.00" fill="#000000">FOREIGN KEY (user_id) REFERENCES users (id)</text>
</g>
<!-- assignments -->
<g id="node3" class="node">
<title>assignments</title>
<polygon fill="#efefef" stroke="transparent" points="395,-192.5 395,-227.5 607,-227.5 607,-192.5 395,-192.5"/>
<polygon fill="none" stroke="#000000" points="395,-192.5 395,-227.5 607,-227.5 607,-192.5 395,-192.5"/>
<text text-anchor="start" x="401.8633" y="-205.3" font-family="Arial Bold" font-size="18.00" fill="#000000">assignments</text>
<text text-anchor="start" x="502.8829" y="-205.3" font-family="Arial" font-size="14.00" fill="#000000"> </text>
<text text-anchor="start" x="506.7735" y="-205.3" font-family="Arial" font-size="14.00" fill="#666666">[BASE TABLE]</text>
<polygon fill="none" stroke="#000000" points="395,-162.5 395,-192.5 607,-192.5 607,-162.5 395,-162.5"/>
<text text-anchor="start" x="402" y="-173.9" font-family="Arial" font-size="14.00" fill="#000000">id </text>
<text text-anchor="start" x="416.7798" y="-173.9" font-family="Arial" font-size="14.00" fill="#666666">[char(36)]</text>
<polygon fill="none" stroke="#000000" points="395,-132.5 395,-162.5 607,-162.5 607,-132.5 395,-132.5"/>
<text text-anchor="start" x="402" y="-143.9" font-family="Arial" font-size="14.00" fill="#000000">class_id </text>
<text text-anchor="start" x="456.4516" y="-143.9" font-family="Arial" font-size="14.00" fill="#666666">[char(36)]</text>
<polygon fill="none" stroke="#000000" points="395,-102.5 395,-132.5 607,-132.5 607,-102.5 395,-102.5"/>
<text text-anchor="start" x="402" y="-113.9" font-family="Arial" font-size="14.00" fill="#000000">name </text>
<text text-anchor="start" x="440.899" y="-113.9" font-family="Arial" font-size="14.00" fill="#666666">[varchar(255)]</text>
<polygon fill="none" stroke="#000000" points="395,-72.5 395,-102.5 607,-102.5 607,-72.5 395,-72.5"/>
<text text-anchor="start" x="402" y="-83.9" font-family="Arial" font-size="14.00" fill="#000000">description </text>
<text text-anchor="start" x="473.568" y="-83.9" font-family="Arial" font-size="14.00" fill="#666666">[text]</text>
<polygon fill="none" stroke="#000000" points="395,-42.5 395,-72.5 607,-72.5 607,-42.5 395,-42.5"/>
<text text-anchor="start" x="402" y="-53.9" font-family="Arial" font-size="14.00" fill="#000000">created_at </text>
<text text-anchor="start" x="472.028" y="-53.9" font-family="Arial" font-size="14.00" fill="#666666">[datetime(6)]</text>
</g>
<!-- submissions&#45;&gt;assignments -->
<g id="edge2" class="edge">
<title>submissions:assignment_id&#45;&gt;assignments:id</title>
<path fill="none" stroke="#000000" d="M460.1153,-426.4462C499.6189,-417.3097 473.6788,-350.799 450,-307 436.106,-281.3 408.894,-296.7 395,-271 375.2373,-234.4446 353.4444,-177.5 395,-177.5"/>
<polygon fill="#000000" stroke="#000000" points="459.9462,-426.4637 449.5337,-423.0242 454.9731,-426.9819 450,-427.5 450,-427.5 450,-427.5 454.9731,-426.9819 450.4663,-431.9758 459.9462,-426.4637 459.9462,-426.4637"/>
<text text-anchor="start" x="457.27" y="-437.5" font-family="Arial" font-size="10.00" fill="#000000">FOREIGN KEY (assignment_id) REFERENCES assignments (id)</text>
</g>
</g>
</svg>
