<?xml version="1.0" encoding="UTF-8" standalone="no"?>
<!DOCTYPE svg PUBLIC "-//W3C//DTD SVG 1.1//EN"
 "http://www.w3.org/Graphics/SVG/1.1/DTD/svg11.dtd">
<!-- Generated by graphviz version 2.40.1 (20161225.0304)
 -->
<!-- Title: submissions Pages: 1 -->
<svg width="710pt" height="682pt"
 viewBox="0.00 0.00 710.00 682.00" xmlns="http://www.w3.org/2000/svg" xmlns:xlink="http://www.w3.org/1999/xlink">
<g id="graph0" class="graph" transform="scale(1 1) rotate(0) translate(4 678)">
<title>submissions</title>
<polygon fill="#ffffff" stroke="transparent" points="-4,4 -4,-678 706,-678 706,4 -4,4"/>
<!-- submissions -->
<g id="node1" class="node">
<title>submissions</title>
<polygon fill="#efefef" stroke="transparent" points="240,-592.5 240,-627.5 450,-627.5 450,-592.5 240,-592.5"/>
<polygon fill="none" stroke="#000000" points="240,-592.5 240,-627.5 450,-627.5 450,-592.5 240,-592.5"/>
<text text-anchor="start" x="246.8704" y="-605.3" font-family="Arial Bold" font-size="18.00" fill="#000000">submissions</text>
<text text-anchor="start" x="345.8758" y="-605.3" font-family="Arial" font-size="14.00" fill="#000000"> </text>
<text text-anchor="start" x="349.7664" y="-605.3" font-family="Arial" font-size="14.00" fill="#666666">[BASE TABLE]</text>
<polygon fill="none" stroke="#000000" points="240,-562.5 240,-592.5 450,-592.5 450,-562.5 240,-562.5"/>
<text text-anchor="start" x="247" y="-573.9" font-family="Arial" font-size="14.00" fill="#000000">id </text>
<text text-anchor="start" x="261.7798" y="-573.9" font-family="Arial" font-size="14.00" fill="#666666">[char(36)]</text>
<polygon fill="none" stroke="#000000" points="240,-532.5 240,-562.5 450,-562.5 450,-532.5 240,-532.5"/>
<text text-anchor="start" x="247" y="-543.9" font-family="Arial" font-size="14.00" fill="#000000">user_id </text>
<text text-anchor="start" x="296.7882" y="-543.9" font-family="Arial" font-size="14.00" fill="#666666">[char(36)]</text>
<polygon fill="none" stroke="#000000" points="240,-502.5 240,-532.5 450,-532.5 450,-502.5 240,-502.5"/>
<text text-anchor="start" x="247" y="-513.9" font-family="Arial" font-size="14.00" fill="#000000">class_id </text>
<text text-anchor="start" x="301.4516" y="-513.9" font-family="Arial" font-size="14.00" fill="#666666">[char(36)]</text>
<polygon fill="none" stroke="#000000" points="240,-472.5 240,-502.5 450,-502.5 450,-472.5 240,-472.5"/>
<text text-anchor="start" x="247" y="-483.9" font-family="Arial" font-size="14.00" fill="#000000">file_name </text>
<text text-anchor="start" x="311.568" y="-483.9" font-family="Arial" font-size="14.00" fill="#666666">[varchar(255)]</text>
<polygon fill="none" stroke="#000000" points="240,-442.5 240,-472.5 450,-472.5 450,-442.5 240,-442.5"/>
<text text-anchor="start" x="247" y="-453.9" font-family="Arial" font-size="14.00" fill="#000000">score </text>
<text text-anchor="start" x="285.1164" y="-453.9" font-family="Arial" font-size="14.00" fill="#666666">[tinyint unsigned]</text>
<polygon fill="none" stroke="#000000" points="240,-412.5 240,-442.5 450,-442.5 450,-412.5 240,-412.5"/>
<text text-anchor="start" x="247" y="-423.9" font-family="Arial" font-size="14.00" fill="#000000">created_at </text>
<text text-anchor="start" x="317.028" y="-423.9" font-family="Arial" font-size="14.00" fill="#666666">[datetime(6)]</text>
<polygon fill="none" stroke="#000000" stroke-width="3" points="238.5,-411.5 238.5,-629.5 451.5,-629.5 451.5,-411.5 238.5,-411.5"/>
</g>
<!-- users -->
<g id="node2" class="node">
<title>users</title>
<polygon fill="#efefef" stroke="transparent" points="81,-222.5 81,-257.5 286,-257.5 286,-222.5 81,-222.5"/>
<polygon fill="none" stroke="#000000" points="81,-222.5 81,-257.5 286,-257.5 286,-222.5 81,-222.5"/>
<text text-anchor="start" x="112.8708" y="-235.3" font-family="Arial Bold" font-size="18.00" fill="#000000">users</text>
<text text-anchor="start" x="156.8754" y="-235.3" font-family="Arial" font-size="14.00" fill="#000000"> </text>
<text text-anchor="start" x="160.766" y="-235.3" font-family="Arial" font-size="14.00" fill="#666666">[BASE TABLE]</text>
<polygon fill="none" stroke="#000000" points="81,-192.5 81,-222.5 286,-222.5 286,-192.5 81,-192.5"/>
<text text-anchor="start" x="88" y="-203.9" font-family="Arial" font-size="14.00" fill="#000000">id </text>
<text text-anchor="start" x="102.7798" y="-203.9" font-family="Arial" font-size="14.00" fill="#666666">[char(36)]</text>
<polygon fill="none" stroke="#000000" points="81,-162.5 81,-192.5 286,-192.5 286,-162.5 81,-162.5"/>
<text text-anchor="start" x="88" y="-173.9" font-family="Arial" font-size="14.00" fill="#000000">code </text>
<text text-anchor="start" x="122.2384" y="-173.9" font-family="Arial" font-size="14.00" fill="#666666">[char(8)]</text>
<polygon fill="none" stroke="#000000" points="81,-132.5 81,-162.5 286,-162.5 286,-132.5 81,-132.5"/>
<text text-anchor="start" x="88" y="-143.9" font-family="Arial" font-size="14.00" fill="#000000">name </text>
<text text-anchor="start" x="126.899" y="-143.9" font-family="Arial" font-size="14.00" fill="#666666">[varchar(255)]</text>
<polygon fill="none" stroke="#000000" points="81,-102.5 81,-132.5 286,-132.5 286,-102.5 81,-102.5"/>
<text text-anchor="start" x="88" y="-113.9" font-family="Arial" font-size="14.00" fill="#000000">hashed_password </text>
<text text-anchor="start" x="205.4838" y="-113.9" font-family="Arial" font-size="14.00" fill="#666666">[binary(60)]</text>
<polygon fill="none" stroke="#000000" points="81,-72.5 81,-102.5 286,-102.5 286,-72.5 81,-72.5"/>
<text text-anchor="start" x="87.8443" y="-83.9" font-family="Arial" font-size="14.00" fill="#000000">type </text>
<text text-anchor="start" x="118.1907" y="-83.9" font-family="Arial" font-size="14.00" fill="#666666">[enum(&#39;student&#39;,&#39;teacher&#39;)]</text>
</g>
<!-- submissions&#45;&gt;users -->
<g id="edge1" class="edge">
<title>submissions:user_id&#45;&gt;users:id</title>
<path fill="none" stroke="#000000" d="M229.9993,-546.8825C164.7605,-538.2148 217.0399,-440.0974 240,-367 250.7146,-332.8882 275.2854,-335.1118 286,-301 298.4529,-261.3542 327.5556,-207.5 286,-207.5"/>
<polygon fill="#000000" stroke="#000000" points="230.019,-546.8836 239.7226,-551.9914 235.0095,-547.1918 240,-547.5 240,-547.5 240,-547.5 235.0095,-547.1918 240.2774,-543.0086 230.019,-546.8836 230.019,-546.8836"/>
<text text-anchor="start" x="6.945" y="-557.5" font-family="Arial" font-size="10.00" fill="#000000">FOREIGN KEY (user_id) REFERENCES users (id)</text>
</g>
<!-- classes -->
<g id="node3" class="node">
<title>classes</title>
<polygon fill="#efefef" stroke="transparent" points="390,-252.5 390,-287.5 624,-287.5 624,-252.5 390,-252.5"/>
<polygon fill="none" stroke="#000000" points="390,-252.5 390,-287.5 624,-287.5 624,-252.5 390,-252.5"/>
<text text-anchor="start" x="428.3698" y="-265.3" font-family="Arial Bold" font-size="18.00" fill="#000000">classes</text>
<text text-anchor="start" x="488.3764" y="-265.3" font-family="Arial" font-size="14.00" fill="#000000"> </text>
<text text-anchor="start" x="492.267" y="-265.3" font-family="Arial" font-size="14.00" fill="#666666">[BASE TABLE]</text>
<polygon fill="none" stroke="#000000" points="390,-222.5 390,-252.5 624,-252.5 624,-222.5 390,-222.5"/>
<text text-anchor="start" x="397" y="-233.9" font-family="Arial" font-size="14.00" fill="#000000">id </text>
<text text-anchor="start" x="411.7798" y="-233.9" font-family="Arial" font-size="14.00" fill="#666666">[char(36)]</text>
<polygon fill="none" stroke="#000000" points="390,-192.5 390,-222.5 624,-222.5 624,-192.5 390,-192.5"/>
<text text-anchor="start" x="397" y="-203.9" font-family="Arial" font-size="14.00" fill="#000000">course_id </text>
<text text-anchor="start" x="461.5708" y="-203.9" font-family="Arial" font-size="14.00" fill="#666666">[char(36)]</text>
<polygon fill="none" stroke="#000000" points="390,-162.5 390,-192.5 624,-192.5 624,-162.5 390,-162.5"/>
<text text-anchor="start" x="397" y="-173.9" font-family="Arial" font-size="14.00" fill="#000000">part </text>
<text text-anchor="start" x="425.007" y="-173.9" font-family="Arial" font-size="14.00" fill="#666666">[tinyint unsigned]</text>
<polygon fill="none" stroke="#000000" points="390,-132.5 390,-162.5 624,-162.5 624,-132.5 390,-132.5"/>
<text text-anchor="start" x="397" y="-143.9" font-family="Arial" font-size="14.00" fill="#000000">title </text>
<text text-anchor="start" x="422.6676" y="-143.9" font-family="Arial" font-size="14.00" fill="#666666">[varchar(255)]</text>
<polygon fill="none" stroke="#000000" points="390,-102.5 390,-132.5 624,-132.5 624,-102.5 390,-102.5"/>
<text text-anchor="start" x="397" y="-113.9" font-family="Arial" font-size="14.00" fill="#000000">description </text>
<text text-anchor="start" x="468.568" y="-113.9" font-family="Arial" font-size="14.00" fill="#666666">[text]</text>
<polygon fill="none" stroke="#000000" points="390,-72.5 390,-102.5 624,-102.5 624,-72.5 390,-72.5"/>
<text text-anchor="start" x="397" y="-83.9" font-family="Arial" font-size="14.00" fill="#000000">created_at </text>
<text text-anchor="start" x="467.028" y="-83.9" font-family="Arial" font-size="14.00" fill="#666666">[datetime(6)]</text>
<polygon fill="none" stroke="#000000" points="390,-42.5 390,-72.5 624,-72.5 624,-42.5 390,-42.5"/>
<text text-anchor="start" x="396.9243" y="-53.9" font-family="Arial" font-size="14.00" fill="#000000">submission_closed_at </text>
<text text-anchor="start" x="538.5119" y="-53.9" font-family="Arial" font-size="14.00" fill="#666666">[datetime(6)]</text>
</g>
<!-- submissions&#45;&gt;classes -->
<g id="edge2" class="edge">
<title>submissions:class_id&#45;&gt;classes:id</title>
<path fill="none" stroke="#000000" d="M460.086,-516.6926C513.1804,-507.5074 481.1538,-422.0235 450,-367 434.6779,-339.9382 405.3221,-358.0618 390,-331 369.5256,-294.8384 348.4444,-237.5 390,-237.5"/>
<polygon fill="#000000" stroke="#000000" points="459.9681,-516.7019 449.6409,-513.0143 454.9841,-517.101 450,-517.5 450,-517.5 450,-517.5 454.9841,-517.101 450.3591,-521.9857 459.9681,-516.7019 459.9681,-516.7019"/>
<text text-anchor="start" x="456.8345" y="-527.5" font-family="Arial" font-size="10.00" fill="#000000">FOREIGN KEY (class_id) REFERENCES classes (id)</text>
</g>
</g>
</svg>
