<?xml version="1.0" encoding="UTF-8" standalone="no"?>
<!DOCTYPE svg PUBLIC "-//W3C//DTD SVG 1.1//EN"
 "http://www.w3.org/Graphics/SVG/1.1/DTD/svg11.dtd">
<!-- Generated by graphviz version 2.40.1 (20161225.0304)
 -->
<!-- Title: submissions Pages: 1 -->
<svg width="710pt" height="682pt"
 viewBox="0.00 0.00 710.00 682.00" xmlns="http://www.w3.org/2000/svg" xmlns:xlink="http://www.w3.org/1999/xlink">
<g id="graph0" class="graph" transform="scale(1 1) rotate(0) translate(4 678)">
<title>submissions</title>
<polygon fill="#ffffff" stroke="transparent" points="-4,4 -4,-678 706,-678 706,4 -4,4"/>
<!-- submissions -->
<g id="node1" class="node">
<title>submissions</title>
<polygon fill="#efefef" stroke="transparent" points="240,-592.5 240,-627.5 450,-627.5 450,-592.5 240,-592.5"/>
<polygon fill="none" stroke="#000000" points="240,-592.5 240,-627.5 450,-627.5 450,-592.5 240,-592.5"/>
<text text-anchor="start" x="246.8704" y="-605.3" font-family="Arial Bold" font-size="18.00" fill="#000000">submissions</text>
<text text-anchor="start" x="345.8758" y="-605.3" font-family="Arial" font-size="14.00" fill="#000000"> </text>
<text text-anchor="start" x="349.7664" y="-605.3" font-family="Arial" font-size="14.00" fill="#666666">[BASE TABLE]</text>
<polygon fill="none" stroke="#000000" points="240,-562.5 240,-592.5 450,-592.5 450,-562.5 240,-562.5"/>
<text text-anchor="start" x="247" y="-573.9" font-family="Arial" font-size="14.00" fill="#000000">id </text>
<text text-anchor="start" x="261.7798" y="-573.9" font-family="Arial" font-size="14.00" fill="#666666">[char(36)]</text>
<polygon fill="none" stroke="#000000" points="240,-532.5 240,-562.5 450,-562.5 450,-532.5 240,-532.5"/>
<text text-anchor="start" x="247" y="-543.9" font-family="Arial" font-size="14.00" fill="#000000">user_id </text>
<text text-anchor="start" x="296.7882" y="-543.9" font-family="Arial" font-size="14.00" fill="#666666">[char(36)]</text>
<polygon fill="none" stroke="#000000" points="240,-502.5 240,-532.5 450,-532.5 450,-502.5 240,-502.5"/>
<text text-anchor="start" x="247" y="-513.9" font-family="Arial" font-size="14.00" fill="#000000">class_id </text>
<text text-anchor="start" x="301.4516" y="-513.9" font-family="Arial" font-size="14.00" fill="#666666">[char(36)]</text>
<polygon fill="none" stroke="#000000" points="240,-472.5 240,-502.5 450,-502.5 450,-472.5 240,-472.5"/>
<text text-anchor="start" x="247" y="-483.9" font-family="Arial" font-size="14.00" fill="#000000">file_name </text>
<text text-anchor="start" x="311.568" y="-483.9" font-family="Arial" font-size="14.00" fill="#666666">[varchar(255)]</text>
<polygon fill="none" stroke="#000000" points="240,-442.5 240,-472.5 450,-472.5 450,-442.5 240,-442.5"/>
<text text-anchor="start" x="247" y="-453.9" font-family="Arial" font-size="14.00" fill="#000000">score </text>
<text text-anchor="start" x="285.1164" y="-453.9" font-family="Arial" font-size="14.00" fill="#666666">[tinyint unsigned]</text>
<polygon fill="none" stroke="#000000" points="240,-412.5 240,-442.5 450,-442.5 450,-412.5 240,-412.5"/>
<text text-anchor="start" x="247" y="-423.9" font-family="Arial" font-size="14.00" fill="#000000">created_at </text>
<text text-anchor="start" x="317.028" y="-423.9" font-family="Arial" font-size="14.00" fill="#666666">[datetime]</text>
<polygon fill="none" stroke="#000000" stroke-width="3" points="238.5,-411.5 238.5,-629.5 451.5,-629.5 451.5,-411.5 238.5,-411.5"/>
</g>
<!-- users -->
<g id="node2" class="node">
<title>users</title>
<polygon fill="#efefef" stroke="transparent" points="85,-222.5 85,-257.5 290,-257.5 290,-222.5 85,-222.5"/>
<polygon fill="none" stroke="#000000" points="85,-222.5 85,-257.5 290,-257.5 290,-222.5 85,-222.5"/>
<text text-anchor="start" x="116.8708" y="-235.3" font-family="Arial Bold" font-size="18.00" fill="#000000">users</text>
<text text-anchor="start" x="160.8754" y="-235.3" font-family="Arial" font-size="14.00" fill="#000000"> </text>
<text text-anchor="start" x="164.766" y="-235.3" font-family="Arial" font-size="14.00" fill="#666666">[BASE TABLE]</text>
<polygon fill="none" stroke="#000000" points="85,-192.5 85,-222.5 290,-222.5 290,-192.5 85,-192.5"/>
<text text-anchor="start" x="92" y="-203.9" font-family="Arial" font-size="14.00" fill="#000000">id </text>
<text text-anchor="start" x="106.7798" y="-203.9" font-family="Arial" font-size="14.00" fill="#666666">[char(36)]</text>
<polygon fill="none" stroke="#000000" points="85,-162.5 85,-192.5 290,-192.5 290,-162.5 85,-162.5"/>
<text text-anchor="start" x="92" y="-173.9" font-family="Arial" font-size="14.00" fill="#000000">code </text>
<text text-anchor="start" x="126.2384" y="-173.9" font-family="Arial" font-size="14.00" fill="#666666">[char(8)]</text>
<polygon fill="none" stroke="#000000" points="85,-132.5 85,-162.5 290,-162.5 290,-132.5 85,-132.5"/>
<text text-anchor="start" x="92" y="-143.9" font-family="Arial" font-size="14.00" fill="#000000">name </text>
<text text-anchor="start" x="130.899" y="-143.9" font-family="Arial" font-size="14.00" fill="#666666">[varchar(255)]</text>
<polygon fill="none" stroke="#000000" points="85,-102.5 85,-132.5 290,-132.5 290,-102.5 85,-102.5"/>
<text text-anchor="start" x="92" y="-113.9" font-family="Arial" font-size="14.00" fill="#000000">hashed_password </text>
<text text-anchor="start" x="209.4838" y="-113.9" font-family="Arial" font-size="14.00" fill="#666666">[binary(60)]</text>
<polygon fill="none" stroke="#000000" points="85,-72.5 85,-102.5 290,-102.5 290,-72.5 85,-72.5"/>
<text text-anchor="start" x="91.8443" y="-83.9" font-family="Arial" font-size="14.00" fill="#000000">type </text>
<text text-anchor="start" x="122.1907" y="-83.9" font-family="Arial" font-size="14.00" fill="#666666">[enum(&#39;student&#39;,&#39;teacher&#39;)]</text>
</g>
<!-- submissions&#45;&gt;users -->
<g id="edge1" class="edge">
<title>submissions:user_id&#45;&gt;users:id</title>
<path fill="none" stroke="#000000" d="M229.9906,-546.8797C164.6308,-538.1726 215.5956,-439.6279 240,-367 251.7216,-332.1163 278.2784,-335.8837 290,-301 303.2362,-261.6088 331.5556,-207.5 290,-207.5"/>
<polygon fill="#000000" stroke="#000000" points="230.0191,-546.8814 239.7216,-551.9914 235.0096,-547.1907 240,-547.5 240,-547.5 240,-547.5 235.0096,-547.1907 240.2784,-543.0086 230.0191,-546.8814 230.0191,-546.8814"/>
<text text-anchor="start" x="6.945" y="-557.5" font-family="Arial" font-size="10.00" fill="#000000">FOREIGN KEY (user_id) REFERENCES users (id)</text>
</g>
<!-- classes -->
<g id="node3" class="node">
<title>classes</title>
<polygon fill="#efefef" stroke="transparent" points="394,-252.5 394,-287.5 611,-287.5 611,-252.5 394,-252.5"/>
<polygon fill="none" stroke="#000000" points="394,-252.5 394,-287.5 611,-287.5 611,-252.5 394,-252.5"/>
<text text-anchor="start" x="423.8698" y="-265.3" font-family="Arial Bold" font-size="18.00" fill="#000000">classes</text>
<text text-anchor="start" x="483.8764" y="-265.3" font-family="Arial" font-size="14.00" fill="#000000"> </text>
<text text-anchor="start" x="487.767" y="-265.3" font-family="Arial" font-size="14.00" fill="#666666">[BASE TABLE]</text>
<polygon fill="none" stroke="#000000" points="394,-222.5 394,-252.5 611,-252.5 611,-222.5 394,-222.5"/>
<text text-anchor="start" x="401" y="-233.9" font-family="Arial" font-size="14.00" fill="#000000">id </text>
<text text-anchor="start" x="415.7798" y="-233.9" font-family="Arial" font-size="14.00" fill="#666666">[char(36)]</text>
<polygon fill="none" stroke="#000000" points="394,-192.5 394,-222.5 611,-222.5 611,-192.5 394,-192.5"/>
<text text-anchor="start" x="401" y="-203.9" font-family="Arial" font-size="14.00" fill="#000000">course_id </text>
<text text-anchor="start" x="465.5708" y="-203.9" font-family="Arial" font-size="14.00" fill="#666666">[char(36)]</text>
<polygon fill="none" stroke="#000000" points="394,-162.5 394,-192.5 611,-192.5 611,-162.5 394,-162.5"/>
<text text-anchor="start" x="401" y="-173.9" font-family="Arial" font-size="14.00" fill="#000000">part </text>
<text text-anchor="start" x="429.007" y="-173.9" font-family="Arial" font-size="14.00" fill="#666666">[tinyint unsigned]</text>
<polygon fill="none" stroke="#000000" points="394,-132.5 394,-162.5 611,-162.5 611,-132.5 394,-132.5"/>
<text text-anchor="start" x="401" y="-143.9" font-family="Arial" font-size="14.00" fill="#000000">title </text>
<text text-anchor="start" x="426.6676" y="-143.9" font-family="Arial" font-size="14.00" fill="#666666">[varchar(255)]</text>
<polygon fill="none" stroke="#000000" points="394,-102.5 394,-132.5 611,-132.5 611,-102.5 394,-102.5"/>
<text text-anchor="start" x="401" y="-113.9" font-family="Arial" font-size="14.00" fill="#000000">description </text>
<text text-anchor="start" x="472.568" y="-113.9" font-family="Arial" font-size="14.00" fill="#666666">[text]</text>
<polygon fill="none" stroke="#000000" points="394,-72.5 394,-102.5 611,-102.5 611,-72.5 394,-72.5"/>
<text text-anchor="start" x="401" y="-83.9" font-family="Arial" font-size="14.00" fill="#000000">created_at </text>
<text text-anchor="start" x="471.028" y="-83.9" font-family="Arial" font-size="14.00" fill="#666666">[datetime]</text>
<polygon fill="none" stroke="#000000" points="394,-42.5 394,-72.5 611,-72.5 611,-42.5 394,-42.5"/>
<text text-anchor="start" x="400.9762" y="-53.9" font-family="Arial" font-size="14.00" fill="#000000">submission_closed_at </text>
<text text-anchor="start" x="542.5638" y="-53.9" font-family="Arial" font-size="14.00" fill="#666666">[datetime]</text>
</g>
<!-- submissions&#45;&gt;classes -->
<g id="edge2" class="edge">
<title>submissions:class_id&#45;&gt;classes:id</title>
<path fill="none" stroke="#000000" d="M460.0074,-517.442C760.0344,-513.8905 403.5498,-348.492 394,-331 374.0871,-294.5262 352.4444,-237.5 394,-237.5"/>
<polygon fill="#000000" stroke="#000000" points="459.9998,-517.4419 449.9739,-513.0001 454.9999,-517.4709 450,-517.5 450,-517.5 450,-517.5 454.9999,-517.4709 450.0261,-521.9999 459.9998,-517.4419 459.9998,-517.4419"/>
<text text-anchor="start" x="456.8345" y="-527.5" font-family="Arial" font-size="10.00" fill="#000000">FOREIGN KEY (class_id) REFERENCES classes (id)</text>
</g>
</g>
</svg>
