<?xml version="1.0" encoding="UTF-8" standalone="no"?>
<!DOCTYPE svg PUBLIC "-//W3C//DTD SVG 1.1//EN"
 "http://www.w3.org/Graphics/SVG/1.1/DTD/svg11.dtd">
<!-- Generated by graphviz version 2.40.1 (20161225.0304)
 -->
<!-- Title: submissions Pages: 1 -->
<svg width="1819pt" height="929pt"
 viewBox="0.00 0.00 1818.50 929.00" xmlns="http://www.w3.org/2000/svg" xmlns:xlink="http://www.w3.org/1999/xlink">
<g id="graph0" class="graph" transform="scale(1 1) rotate(0) translate(4 925)">
<title>submissions</title>
<polygon fill="#ffffff" stroke="transparent" points="-4,4 -4,-925 1814.5,-925 1814.5,4 -4,4"/>
<!-- submissions -->
<g id="node1" class="node">
<title>submissions</title>
<polygon fill="#efefef" stroke="transparent" points="1352.5,-839.5 1352.5,-874.5 1562.5,-874.5 1562.5,-839.5 1352.5,-839.5"/>
<polygon fill="none" stroke="#000000" points="1352.5,-839.5 1352.5,-874.5 1562.5,-874.5 1562.5,-839.5 1352.5,-839.5"/>
<text text-anchor="start" x="1359.3704" y="-852.3" font-family="Arial Bold" font-size="18.00" fill="#000000">submissions</text>
<text text-anchor="start" x="1458.3758" y="-852.3" font-family="Arial" font-size="14.00" fill="#000000"> </text>
<text text-anchor="start" x="1462.2664" y="-852.3" font-family="Arial" font-size="14.00" fill="#666666">[BASE TABLE]</text>
<polygon fill="none" stroke="#000000" points="1352.5,-809.5 1352.5,-839.5 1562.5,-839.5 1562.5,-809.5 1352.5,-809.5"/>
<text text-anchor="start" x="1359.5" y="-820.9" font-family="Arial" font-size="14.00" fill="#000000">id </text>
<text text-anchor="start" x="1374.2798" y="-820.9" font-family="Arial" font-size="14.00" fill="#666666">[char(36)]</text>
<polygon fill="none" stroke="#000000" points="1352.5,-779.5 1352.5,-809.5 1562.5,-809.5 1562.5,-779.5 1352.5,-779.5"/>
<text text-anchor="start" x="1359.5" y="-790.9" font-family="Arial" font-size="14.00" fill="#000000">user_id </text>
<text text-anchor="start" x="1409.2882" y="-790.9" font-family="Arial" font-size="14.00" fill="#666666">[char(36)]</text>
<polygon fill="none" stroke="#000000" points="1352.5,-749.5 1352.5,-779.5 1562.5,-779.5 1562.5,-749.5 1352.5,-749.5"/>
<text text-anchor="start" x="1359.5" y="-760.9" font-family="Arial" font-size="14.00" fill="#000000">assignment_id </text>
<text text-anchor="start" x="1453.6332" y="-760.9" font-family="Arial" font-size="14.00" fill="#666666">[char(36)]</text>
<polygon fill="none" stroke="#000000" points="1352.5,-719.5 1352.5,-749.5 1562.5,-749.5 1562.5,-719.5 1352.5,-719.5"/>
<text text-anchor="start" x="1359.5" y="-730.9" font-family="Arial" font-size="14.00" fill="#000000">name </text>
<text text-anchor="start" x="1398.399" y="-730.9" font-family="Arial" font-size="14.00" fill="#666666">[varchar(255)]</text>
<polygon fill="none" stroke="#000000" points="1352.5,-689.5 1352.5,-719.5 1562.5,-719.5 1562.5,-689.5 1352.5,-689.5"/>
<text text-anchor="start" x="1359.5" y="-700.9" font-family="Arial" font-size="14.00" fill="#000000">created_at </text>
<text text-anchor="start" x="1429.528" y="-700.9" font-family="Arial" font-size="14.00" fill="#666666">[datetime(6)]</text>
<polygon fill="none" stroke="#000000" stroke-width="3" points="1351,-688.5 1351,-876.5 1564,-876.5 1564,-688.5 1351,-688.5"/>
</g>
<!-- users -->
<g id="node2" class="node">
<title>users</title>
<polygon fill="#efefef" stroke="transparent" points="631.5,-514.5 631.5,-549.5 833.5,-549.5 833.5,-514.5 631.5,-514.5"/>
<polygon fill="none" stroke="#000000" points="631.5,-514.5 631.5,-549.5 833.5,-549.5 833.5,-514.5 631.5,-514.5"/>
<text text-anchor="start" x="661.8708" y="-527.3" font-family="Arial Bold" font-size="18.00" fill="#000000">users</text>
<text text-anchor="start" x="705.8754" y="-527.3" font-family="Arial" font-size="14.00" fill="#000000"> </text>
<text text-anchor="start" x="709.766" y="-527.3" font-family="Arial" font-size="14.00" fill="#666666">[BASE TABLE]</text>
<polygon fill="none" stroke="#000000" points="631.5,-484.5 631.5,-514.5 833.5,-514.5 833.5,-484.5 631.5,-484.5"/>
<text text-anchor="start" x="638.5" y="-495.9" font-family="Arial" font-size="14.00" fill="#000000">id </text>
<text text-anchor="start" x="653.2798" y="-495.9" font-family="Arial" font-size="14.00" fill="#666666">[char(36)]</text>
<polygon fill="none" stroke="#000000" points="631.5,-454.5 631.5,-484.5 833.5,-484.5 833.5,-454.5 631.5,-454.5"/>
<text text-anchor="start" x="638.5" y="-465.9" font-family="Arial" font-size="14.00" fill="#000000">name </text>
<text text-anchor="start" x="677.399" y="-465.9" font-family="Arial" font-size="14.00" fill="#666666">[varchar(255)]</text>
<polygon fill="none" stroke="#000000" points="631.5,-424.5 631.5,-454.5 833.5,-454.5 833.5,-424.5 631.5,-424.5"/>
<text text-anchor="start" x="638.5" y="-435.9" font-family="Arial" font-size="14.00" fill="#000000">mail_address </text>
<text text-anchor="start" x="725.6206" y="-435.9" font-family="Arial" font-size="14.00" fill="#666666">[varchar(255)]</text>
<polygon fill="none" stroke="#000000" points="631.5,-394.5 631.5,-424.5 833.5,-424.5 833.5,-394.5 631.5,-394.5"/>
<text text-anchor="start" x="638.3668" y="-405.9" font-family="Arial" font-size="14.00" fill="#000000">hashed_password </text>
<text text-anchor="start" x="755.8506" y="-405.9" font-family="Arial" font-size="14.00" fill="#666666">[binary(60)]</text>
<polygon fill="none" stroke="#000000" points="631.5,-364.5 631.5,-394.5 833.5,-394.5 833.5,-364.5 631.5,-364.5"/>
<text text-anchor="start" x="638.5" y="-375.9" font-family="Arial" font-size="14.00" fill="#000000">type </text>
<text text-anchor="start" x="668.8464" y="-375.9" font-family="Arial" font-size="14.00" fill="#666666">[enum(&#39;student&#39;,&#39;faculty&#39;)]</text>
</g>
<!-- submissions&#45;&gt;users -->
<g id="edge1" class="edge">
<title>submissions:user_id&#45;&gt;users:id</title>
<path fill="none" stroke="#000000" d="M1342.3552,-793.6768C1288.101,-783.9531 1346.3433,-690.5316 1297.5,-644 1219.3077,-569.5085 941.4955,-499.5 833.5,-499.5"/>
<polygon fill="#000000" stroke="#000000" points="1342.5328,-793.6911 1352.136,-798.9853 1347.5164,-794.0955 1352.5,-794.5 1352.5,-794.5 1352.5,-794.5 1347.5164,-794.0955 1352.864,-790.0147 1342.5328,-793.6911 1342.5328,-793.6911"/>
<text text-anchor="start" x="1299.445" y="-778.5" font-family="Arial" font-size="10.00" fill="#000000">FOREIGN KEY (user_id) REFERENCES users (id)</text>
</g>
<!-- assignment -->
<g id="node7" class="node">
<title>assignment</title>
<polygon fill="#efefef" stroke="transparent" points="1355.5,-529.5 1355.5,-564.5 1558.5,-564.5 1558.5,-529.5 1355.5,-529.5"/>
<polygon fill="none" stroke="#000000" points="1355.5,-529.5 1355.5,-564.5 1558.5,-564.5 1558.5,-529.5 1355.5,-529.5"/>
<text text-anchor="start" x="1362.3633" y="-542.3" font-family="Arial Bold" font-size="18.00" fill="#000000">assignment</text>
<text text-anchor="start" x="1454.3829" y="-542.3" font-family="Arial" font-size="14.00" fill="#000000"> </text>
<text text-anchor="start" x="1458.2735" y="-542.3" font-family="Arial" font-size="14.00" fill="#666666">[BASE TABLE]</text>
<polygon fill="none" stroke="#000000" points="1355.5,-499.5 1355.5,-529.5 1558.5,-529.5 1558.5,-499.5 1355.5,-499.5"/>
<text text-anchor="start" x="1362.5" y="-510.9" font-family="Arial" font-size="14.00" fill="#000000">id </text>
<text text-anchor="start" x="1377.2798" y="-510.9" font-family="Arial" font-size="14.00" fill="#666666">[char(36)]</text>
<polygon fill="none" stroke="#000000" points="1355.5,-469.5 1355.5,-499.5 1558.5,-499.5 1558.5,-469.5 1355.5,-469.5"/>
<text text-anchor="start" x="1362.5" y="-480.9" font-family="Arial" font-size="14.00" fill="#000000">class_id </text>
<text text-anchor="start" x="1416.9516" y="-480.9" font-family="Arial" font-size="14.00" fill="#666666">[char(36)]</text>
<polygon fill="none" stroke="#000000" points="1355.5,-439.5 1355.5,-469.5 1558.5,-469.5 1558.5,-439.5 1355.5,-439.5"/>
<text text-anchor="start" x="1362.5" y="-450.9" font-family="Arial" font-size="14.00" fill="#000000">name </text>
<text text-anchor="start" x="1401.399" y="-450.9" font-family="Arial" font-size="14.00" fill="#666666">[varchar(255)]</text>
<polygon fill="none" stroke="#000000" points="1355.5,-409.5 1355.5,-439.5 1558.5,-439.5 1558.5,-409.5 1355.5,-409.5"/>
<text text-anchor="start" x="1362.5" y="-420.9" font-family="Arial" font-size="14.00" fill="#000000">description </text>
<text text-anchor="start" x="1434.068" y="-420.9" font-family="Arial" font-size="14.00" fill="#666666">[text]</text>
<polygon fill="none" stroke="#000000" points="1355.5,-379.5 1355.5,-409.5 1558.5,-409.5 1558.5,-379.5 1355.5,-379.5"/>
<text text-anchor="start" x="1362.5" y="-390.9" font-family="Arial" font-size="14.00" fill="#000000">deadline </text>
<text text-anchor="start" x="1419.2994" y="-390.9" font-family="Arial" font-size="14.00" fill="#666666">[datetime(6)]</text>
<polygon fill="none" stroke="#000000" points="1355.5,-349.5 1355.5,-379.5 1558.5,-379.5 1558.5,-349.5 1355.5,-349.5"/>
<text text-anchor="start" x="1362.5" y="-360.9" font-family="Arial" font-size="14.00" fill="#000000">created_at </text>
<text text-anchor="start" x="1432.528" y="-360.9" font-family="Arial" font-size="14.00" fill="#666666">[datetime(6)]</text>
</g>
<!-- submissions&#45;&gt;assignment -->
<g id="edge6" class="edge">
<title>submissions:assignment_id&#45;&gt;assignment:id</title>
<path fill="none" stroke="#000000" d="M1342.5172,-763.4232C1301.6275,-753.8107 1320.3993,-682.197 1352.5,-644 1412.2969,-572.847 1498.7031,-679.153 1558.5,-608 1585.2356,-576.1869 1600.0556,-514.5 1558.5,-514.5"/>
<polygon fill="#000000" stroke="#000000" points="1342.5577,-763.4275 1352.0174,-768.974 1347.5288,-763.9637 1352.5,-764.5 1352.5,-764.5 1352.5,-764.5 1347.5288,-763.9637 1352.9826,-760.026 1342.5577,-763.4275 1342.5577,-763.4275"/>
<text text-anchor="start" x="1359.27" y="-748.5" font-family="Arial" font-size="10.00" fill="#000000">FOREIGN KEY (assignment_id) REFERENCES assignment (id)</text>
</g>
<!-- attendances -->
<g id="node3" class="node">
<title>attendances</title>
<polygon fill="#efefef" stroke="transparent" points="43.5,-809.5 43.5,-844.5 252.5,-844.5 252.5,-809.5 43.5,-809.5"/>
<polygon fill="none" stroke="#000000" points="43.5,-809.5 43.5,-844.5 252.5,-844.5 252.5,-809.5 43.5,-809.5"/>
<text text-anchor="start" x="50.3492" y="-822.3" font-family="Arial Bold" font-size="18.00" fill="#000000">attendances</text>
<text text-anchor="start" x="148.397" y="-822.3" font-family="Arial" font-size="14.00" fill="#000000"> </text>
<text text-anchor="start" x="152.2876" y="-822.3" font-family="Arial" font-size="14.00" fill="#666666">[BASE TABLE]</text>
<polygon fill="none" stroke="#000000" points="43.5,-779.5 43.5,-809.5 252.5,-809.5 252.5,-779.5 43.5,-779.5"/>
<text text-anchor="start" x="50.5" y="-790.9" font-family="Arial" font-size="14.00" fill="#000000">class_id </text>
<text text-anchor="start" x="104.9516" y="-790.9" font-family="Arial" font-size="14.00" fill="#666666">[char(36)]</text>
<polygon fill="none" stroke="#000000" points="43.5,-749.5 43.5,-779.5 252.5,-779.5 252.5,-749.5 43.5,-749.5"/>
<text text-anchor="start" x="50.5" y="-760.9" font-family="Arial" font-size="14.00" fill="#000000">user_id </text>
<text text-anchor="start" x="100.2882" y="-760.9" font-family="Arial" font-size="14.00" fill="#666666">[char(36)]</text>
<polygon fill="none" stroke="#000000" points="43.5,-719.5 43.5,-749.5 252.5,-749.5 252.5,-719.5 43.5,-719.5"/>
<text text-anchor="start" x="50.5" y="-730.9" font-family="Arial" font-size="14.00" fill="#000000">created_at </text>
<text text-anchor="start" x="120.528" y="-730.9" font-family="Arial" font-size="14.00" fill="#666666">[datetime(6)]</text>
</g>
<!-- attendances&#45;&gt;users -->
<g id="edge2" class="edge">
<title>attendances:user_id&#45;&gt;users:id</title>
<path fill="none" stroke="#000000" d="M262.5129,-763.5458C305.0874,-754.463 266.0815,-682.7543 304.5,-644 416.3629,-531.1595 472.6092,-499.5 631.5,-499.5"/>
<polygon fill="#000000" stroke="#000000" points="262.4549,-763.5512 252.073,-760.0203 257.4774,-764.0256 252.5,-764.5 252.5,-764.5 252.5,-764.5 257.4774,-764.0256 252.927,-768.9797 262.4549,-763.5512 262.4549,-763.5512"/>
<text text-anchor="start" x="139.445" y="-748.5" font-family="Arial" font-size="10.00" fill="#000000">FOREIGN KEY (user_id) REFERENCES users (id)</text>
</g>
<!-- grades -->
<g id="node4" class="node">
<title>grades</title>
<polygon fill="#efefef" stroke="transparent" points="356.5,-824.5 356.5,-859.5 522.5,-859.5 522.5,-824.5 356.5,-824.5"/>
<polygon fill="none" stroke="#000000" points="356.5,-824.5 356.5,-859.5 522.5,-859.5 522.5,-824.5 356.5,-824.5"/>
<text text-anchor="start" x="363.3646" y="-837.3" font-family="Arial Bold" font-size="18.00" fill="#000000">grades</text>
<text text-anchor="start" x="418.3816" y="-837.3" font-family="Arial" font-size="14.00" fill="#000000"> </text>
<text text-anchor="start" x="422.2722" y="-837.3" font-family="Arial" font-size="14.00" fill="#666666">[BASE TABLE]</text>
<polygon fill="none" stroke="#000000" points="356.5,-794.5 356.5,-824.5 522.5,-824.5 522.5,-794.5 356.5,-794.5"/>
<text text-anchor="start" x="363.5" y="-805.9" font-family="Arial" font-size="14.00" fill="#000000">id </text>
<text text-anchor="start" x="378.2798" y="-805.9" font-family="Arial" font-size="14.00" fill="#666666">[char(36)]</text>
<polygon fill="none" stroke="#000000" points="356.5,-764.5 356.5,-794.5 522.5,-794.5 522.5,-764.5 356.5,-764.5"/>
<text text-anchor="start" x="363.5" y="-775.9" font-family="Arial" font-size="14.00" fill="#000000">user_id </text>
<text text-anchor="start" x="413.2882" y="-775.9" font-family="Arial" font-size="14.00" fill="#666666">[char(36)]</text>
<polygon fill="none" stroke="#000000" points="356.5,-734.5 356.5,-764.5 522.5,-764.5 522.5,-734.5 356.5,-734.5"/>
<text text-anchor="start" x="363.5" y="-745.9" font-family="Arial" font-size="14.00" fill="#000000">course_id </text>
<text text-anchor="start" x="428.0708" y="-745.9" font-family="Arial" font-size="14.00" fill="#666666">[char(36)]</text>
<polygon fill="none" stroke="#000000" points="356.5,-704.5 356.5,-734.5 522.5,-734.5 522.5,-704.5 356.5,-704.5"/>
<text text-anchor="start" x="363.5" y="-715.9" font-family="Arial" font-size="14.00" fill="#000000">grade </text>
<text text-anchor="start" x="403.1816" y="-715.9" font-family="Arial" font-size="14.00" fill="#666666">[int unsigned]</text>
</g>
<!-- grades&#45;&gt;users -->
<g id="edge3" class="edge">
<title>grades:user_id&#45;&gt;users:id</title>
<path fill="none" stroke="#000000" d="M532.5235,-778.7909C583.1285,-771.0092 552.4342,-700.7093 574.5,-644 599.5347,-579.6608 562.4618,-499.5 631.5,-499.5"/>
<polygon fill="#000000" stroke="#000000" points="532.4751,-778.7943 522.1824,-775.0112 527.4875,-779.1471 522.5,-779.5 522.5,-779.5 522.5,-779.5 527.4875,-779.1471 522.8176,-783.9888 532.4751,-778.7943 532.4751,-778.7943"/>
<text text-anchor="start" x="409.445" y="-763.5" font-family="Arial" font-size="10.00" fill="#000000">FOREIGN KEY (user_id) REFERENCES users (id)</text>
</g>
<!-- registrations -->
<g id="node5" class="node">
<title>registrations</title>
<polygon fill="#efefef" stroke="transparent" points="627.5,-824.5 627.5,-859.5 836.5,-859.5 836.5,-824.5 627.5,-824.5"/>
<polygon fill="none" stroke="#000000" points="627.5,-824.5 627.5,-859.5 836.5,-859.5 836.5,-824.5 627.5,-824.5"/>
<text text-anchor="start" x="634.369" y="-837.3" font-family="Arial Bold" font-size="18.00" fill="#000000">registrations</text>
<text text-anchor="start" x="732.3772" y="-837.3" font-family="Arial" font-size="14.00" fill="#000000"> </text>
<text text-anchor="start" x="736.2678" y="-837.3" font-family="Arial" font-size="14.00" fill="#666666">[BASE TABLE]</text>
<polygon fill="none" stroke="#000000" points="627.5,-794.5 627.5,-824.5 836.5,-824.5 836.5,-794.5 627.5,-794.5"/>
<text text-anchor="start" x="634.5" y="-805.9" font-family="Arial" font-size="14.00" fill="#000000">course_id </text>
<text text-anchor="start" x="699.0708" y="-805.9" font-family="Arial" font-size="14.00" fill="#666666">[char(36)]</text>
<polygon fill="none" stroke="#000000" points="627.5,-764.5 627.5,-794.5 836.5,-794.5 836.5,-764.5 627.5,-764.5"/>
<text text-anchor="start" x="634.5" y="-775.9" font-family="Arial" font-size="14.00" fill="#000000">user_id </text>
<text text-anchor="start" x="684.2882" y="-775.9" font-family="Arial" font-size="14.00" fill="#666666">[char(36)]</text>
<polygon fill="none" stroke="#000000" points="627.5,-734.5 627.5,-764.5 836.5,-764.5 836.5,-734.5 627.5,-734.5"/>
<text text-anchor="start" x="634.5" y="-745.9" font-family="Arial" font-size="14.00" fill="#000000">created_at </text>
<text text-anchor="start" x="704.528" y="-745.9" font-family="Arial" font-size="14.00" fill="#666666">[datetime(6)]</text>
<polygon fill="none" stroke="#000000" points="627.5,-704.5 627.5,-734.5 836.5,-734.5 836.5,-704.5 627.5,-704.5"/>
<text text-anchor="start" x="634.5" y="-715.9" font-family="Arial" font-size="14.00" fill="#000000">delete_at </text>
<text text-anchor="start" x="695.974" y="-715.9" font-family="Arial" font-size="14.00" fill="#666666">[datetime(6)]</text>
</g>
<!-- registrations&#45;&gt;users -->
<g id="edge4" class="edge">
<title>registrations:user_id&#45;&gt;users:id</title>
<path fill="none" stroke="#000000" d="M846.9319,-778.3032C885.4458,-768.5338 864.7112,-701.2619 836.5,-662 780.4037,-583.9302 687.5963,-671.0698 631.5,-593 607.2514,-559.2529 589.9444,-499.5 631.5,-499.5"/>
<polygon fill="#000000" stroke="#000000" points="846.4348,-778.3601 835.987,-775.0293 841.4674,-778.9301 836.5,-779.5 836.5,-779.5 836.5,-779.5 841.4674,-778.9301 837.013,-783.9707 846.4348,-778.3601 846.4348,-778.3601"/>
<text text-anchor="start" x="723.445" y="-763.5" font-family="Arial" font-size="10.00" fill="#000000">FOREIGN KEY (user_id) REFERENCES users (id)</text>
</g>
<!-- unread_announcements -->
<g id="node6" class="node">
<title>unread_announcements</title>
<polygon fill="#efefef" stroke="transparent" points="940.5,-824.5 940.5,-859.5 1245.5,-859.5 1245.5,-824.5 940.5,-824.5"/>
<polygon fill="none" stroke="#000000" points="940.5,-824.5 940.5,-859.5 1245.5,-859.5 1245.5,-824.5 940.5,-824.5"/>
<text text-anchor="start" x="947.3333" y="-837.3" font-family="Arial Bold" font-size="18.00" fill="#000000">unread_announcements</text>
<text text-anchor="start" x="1141.4129" y="-837.3" font-family="Arial" font-size="14.00" fill="#000000"> </text>
<text text-anchor="start" x="1145.3035" y="-837.3" font-family="Arial" font-size="14.00" fill="#666666">[BASE TABLE]</text>
<polygon fill="none" stroke="#000000" points="940.5,-794.5 940.5,-824.5 1245.5,-824.5 1245.5,-794.5 940.5,-794.5"/>
<text text-anchor="start" x="947.5" y="-805.9" font-family="Arial" font-size="14.00" fill="#000000">announcement_id </text>
<text text-anchor="start" x="1062.657" y="-805.9" font-family="Arial" font-size="14.00" fill="#666666">[char(36)]</text>
<polygon fill="none" stroke="#000000" points="940.5,-764.5 940.5,-794.5 1245.5,-794.5 1245.5,-764.5 940.5,-764.5"/>
<text text-anchor="start" x="947.5" y="-775.9" font-family="Arial" font-size="14.00" fill="#000000">user_id </text>
<text text-anchor="start" x="997.2882" y="-775.9" font-family="Arial" font-size="14.00" fill="#666666">[char(36)]</text>
<polygon fill="none" stroke="#000000" points="940.5,-734.5 940.5,-764.5 1245.5,-764.5 1245.5,-734.5 940.5,-734.5"/>
<text text-anchor="start" x="947.5" y="-745.9" font-family="Arial" font-size="14.00" fill="#000000">created_at </text>
<text text-anchor="start" x="1017.528" y="-745.9" font-family="Arial" font-size="14.00" fill="#666666">[datetime(6)]</text>
<polygon fill="none" stroke="#000000" points="940.5,-704.5 940.5,-734.5 1245.5,-734.5 1245.5,-704.5 940.5,-704.5"/>
<text text-anchor="start" x="947.5" y="-715.9" font-family="Arial" font-size="14.00" fill="#000000">delete_at </text>
<text text-anchor="start" x="1008.974" y="-715.9" font-family="Arial" font-size="14.00" fill="#666666">[datetime(6)]</text>
</g>
<!-- unread_announcements&#45;&gt;users -->
<g id="edge5" class="edge">
<title>unread_announcements:user_id&#45;&gt;users:id</title>
<path fill="none" stroke="#000000" d="M930.7092,-777.2462C876.3967,-750.7474 896.598,-499.5 833.5,-499.5"/>
<polygon fill="#000000" stroke="#000000" points="930.7549,-777.2566 939.4905,-783.8853 935.6274,-778.3783 940.5,-779.5 940.5,-779.5 940.5,-779.5 935.6274,-778.3783 941.5095,-775.1147 930.7549,-777.2566 930.7549,-777.2566"/>
<text text-anchor="start" x="707.445" y="-789.5" font-family="Arial" font-size="10.00" fill="#000000">FOREIGN KEY (user_id) REFERENCES users (id)</text>
</g>
<!-- classes -->
<g id="node8" class="node">
<title>classes</title>
<polygon fill="#efefef" stroke="transparent" points="1351.5,-192.5 1351.5,-227.5 1563.5,-227.5 1563.5,-192.5 1351.5,-192.5"/>
<polygon fill="none" stroke="#000000" points="1351.5,-192.5 1351.5,-227.5 1563.5,-227.5 1563.5,-192.5 1351.5,-192.5"/>
<text text-anchor="start" x="1378.8698" y="-205.3" font-family="Arial Bold" font-size="18.00" fill="#000000">classes</text>
<text text-anchor="start" x="1438.8764" y="-205.3" font-family="Arial" font-size="14.00" fill="#000000"> </text>
<text text-anchor="start" x="1442.767" y="-205.3" font-family="Arial" font-size="14.00" fill="#666666">[BASE TABLE]</text>
<polygon fill="none" stroke="#000000" points="1351.5,-162.5 1351.5,-192.5 1563.5,-192.5 1563.5,-162.5 1351.5,-162.5"/>
<text text-anchor="start" x="1358.5" y="-173.9" font-family="Arial" font-size="14.00" fill="#000000">id </text>
<text text-anchor="start" x="1373.2798" y="-173.9" font-family="Arial" font-size="14.00" fill="#666666">[char(36)]</text>
<polygon fill="none" stroke="#000000" points="1351.5,-132.5 1351.5,-162.5 1563.5,-162.5 1563.5,-132.5 1351.5,-132.5"/>
<text text-anchor="start" x="1358.5" y="-143.9" font-family="Arial" font-size="14.00" fill="#000000">course_id </text>
<text text-anchor="start" x="1423.0708" y="-143.9" font-family="Arial" font-size="14.00" fill="#666666">[char(36)]</text>
<polygon fill="none" stroke="#000000" points="1351.5,-102.5 1351.5,-132.5 1563.5,-132.5 1563.5,-102.5 1351.5,-102.5"/>
<text text-anchor="start" x="1358.5" y="-113.9" font-family="Arial" font-size="14.00" fill="#000000">title </text>
<text text-anchor="start" x="1384.1676" y="-113.9" font-family="Arial" font-size="14.00" fill="#666666">[varchar(255)]</text>
<polygon fill="none" stroke="#000000" points="1351.5,-72.5 1351.5,-102.5 1563.5,-102.5 1563.5,-72.5 1351.5,-72.5"/>
<text text-anchor="start" x="1358.5" y="-83.9" font-family="Arial" font-size="14.00" fill="#000000">description </text>
<text text-anchor="start" x="1430.068" y="-83.9" font-family="Arial" font-size="14.00" fill="#666666">[text]</text>
<polygon fill="none" stroke="#000000" points="1351.5,-42.5 1351.5,-72.5 1563.5,-72.5 1563.5,-42.5 1351.5,-42.5"/>
<text text-anchor="start" x="1358.3002" y="-53.9" font-family="Arial" font-size="14.00" fill="#000000">attendance_code </text>
<text text-anchor="start" x="1469.5806" y="-53.9" font-family="Arial" font-size="14.00" fill="#666666">[varchar(255)]</text>
</g>
<!-- assignment&#45;&gt;classes -->
<g id="edge7" class="edge">
<title>assignment:class_id&#45;&gt;classes:id</title>
<path fill="none" stroke="#000000" d="M1568.4914,-483.8067C1634.8177,-474.0914 1606.9984,-364.6609 1558.5,-307 1498.3922,-235.5364 1411.6078,-342.4636 1351.5,-271 1324.7513,-239.1979 1309.9444,-177.5 1351.5,-177.5"/>
<polygon fill="#000000" stroke="#000000" points="1568.476,-483.8077 1558.1884,-480.0108 1563.488,-484.1538 1558.5,-484.5 1558.5,-484.5 1558.5,-484.5 1563.488,-484.1538 1558.8116,-488.9892 1568.476,-483.8077 1568.476,-483.8077"/>
<text text-anchor="start" x="1565.3345" y="-494.5" font-family="Arial" font-size="10.00" fill="#000000">FOREIGN KEY (class_id) REFERENCES classes (id)</text>
</g>
</g>
</svg>
