<?xml version="1.0" encoding="UTF-8" standalone="no"?>
<!DOCTYPE svg PUBLIC "-//W3C//DTD SVG 1.1//EN"
 "http://www.w3.org/Graphics/SVG/1.1/DTD/svg11.dtd">
<!-- Generated by graphviz version 2.40.1 (20161225.0304)
 -->
<!-- Title: submissions Pages: 1 -->
<svg width="1346pt" height="592pt"
 viewBox="0.00 0.00 1345.50 592.00" xmlns="http://www.w3.org/2000/svg" xmlns:xlink="http://www.w3.org/1999/xlink">
<g id="graph0" class="graph" transform="scale(1 1) rotate(0) translate(4 588)">
<title>submissions</title>
<polygon fill="#ffffff" stroke="transparent" points="-4,4 -4,-588 1341.5,-588 1341.5,4 -4,4"/>
<!-- submissions -->
<g id="node1" class="node">
<title>submissions</title>
<polygon fill="#efefef" stroke="transparent" points="46,-502.5 46,-537.5 256,-537.5 256,-502.5 46,-502.5"/>
<polygon fill="none" stroke="#000000" points="46,-502.5 46,-537.5 256,-537.5 256,-502.5 46,-502.5"/>
<text text-anchor="start" x="52.8704" y="-515.3" font-family="Arial Bold" font-size="18.00" fill="#000000">submissions</text>
<text text-anchor="start" x="151.8758" y="-515.3" font-family="Arial" font-size="14.00" fill="#000000"> </text>
<text text-anchor="start" x="155.7664" y="-515.3" font-family="Arial" font-size="14.00" fill="#666666">[BASE TABLE]</text>
<polygon fill="none" stroke="#000000" points="46,-472.5 46,-502.5 256,-502.5 256,-472.5 46,-472.5"/>
<text text-anchor="start" x="53" y="-483.9" font-family="Arial" font-size="14.00" fill="#000000">id </text>
<text text-anchor="start" x="67.7798" y="-483.9" font-family="Arial" font-size="14.00" fill="#666666">[char(36)]</text>
<polygon fill="none" stroke="#000000" points="46,-442.5 46,-472.5 256,-472.5 256,-442.5 46,-442.5"/>
<text text-anchor="start" x="53" y="-453.9" font-family="Arial" font-size="14.00" fill="#000000">user_id </text>
<text text-anchor="start" x="102.7882" y="-453.9" font-family="Arial" font-size="14.00" fill="#666666">[char(36)]</text>
<polygon fill="none" stroke="#000000" points="46,-412.5 46,-442.5 256,-442.5 256,-412.5 46,-412.5"/>
<text text-anchor="start" x="53" y="-423.9" font-family="Arial" font-size="14.00" fill="#000000">assignment_id </text>
<text text-anchor="start" x="147.1332" y="-423.9" font-family="Arial" font-size="14.00" fill="#666666">[char(36)]</text>
<polygon fill="none" stroke="#000000" points="46,-382.5 46,-412.5 256,-412.5 256,-382.5 46,-382.5"/>
<text text-anchor="start" x="53" y="-393.9" font-family="Arial" font-size="14.00" fill="#000000">name </text>
<text text-anchor="start" x="91.899" y="-393.9" font-family="Arial" font-size="14.00" fill="#666666">[varchar(255)]</text>
<polygon fill="none" stroke="#000000" points="46,-352.5 46,-382.5 256,-382.5 256,-352.5 46,-352.5"/>
<text text-anchor="start" x="53" y="-363.9" font-family="Arial" font-size="14.00" fill="#000000">created_at </text>
<text text-anchor="start" x="123.028" y="-363.9" font-family="Arial" font-size="14.00" fill="#666666">[datetime(6)]</text>
<polygon fill="none" stroke="#000000" stroke-width="3" points="44.5,-351.5 44.5,-539.5 257.5,-539.5 257.5,-351.5 44.5,-351.5"/>
</g>
<!-- users -->
<g id="node2" class="node">
<title>users</title>
<polygon fill="#efefef" stroke="transparent" points="524,-192.5 524,-227.5 726,-227.5 726,-192.5 524,-192.5"/>
<polygon fill="none" stroke="#000000" points="524,-192.5 524,-227.5 726,-227.5 726,-192.5 524,-192.5"/>
<text text-anchor="start" x="554.3708" y="-205.3" font-family="Arial Bold" font-size="18.00" fill="#000000">users</text>
<text text-anchor="start" x="598.3754" y="-205.3" font-family="Arial" font-size="14.00" fill="#000000"> </text>
<text text-anchor="start" x="602.266" y="-205.3" font-family="Arial" font-size="14.00" fill="#666666">[BASE TABLE]</text>
<polygon fill="none" stroke="#000000" points="524,-162.5 524,-192.5 726,-192.5 726,-162.5 524,-162.5"/>
<text text-anchor="start" x="531" y="-173.9" font-family="Arial" font-size="14.00" fill="#000000">id </text>
<text text-anchor="start" x="545.7798" y="-173.9" font-family="Arial" font-size="14.00" fill="#666666">[char(36)]</text>
<polygon fill="none" stroke="#000000" points="524,-132.5 524,-162.5 726,-162.5 726,-132.5 524,-132.5"/>
<text text-anchor="start" x="531" y="-143.9" font-family="Arial" font-size="14.00" fill="#000000">name </text>
<text text-anchor="start" x="569.899" y="-143.9" font-family="Arial" font-size="14.00" fill="#666666">[varchar(255)]</text>
<polygon fill="none" stroke="#000000" points="524,-102.5 524,-132.5 726,-132.5 726,-102.5 524,-102.5"/>
<text text-anchor="start" x="531" y="-113.9" font-family="Arial" font-size="14.00" fill="#000000">mail_address </text>
<text text-anchor="start" x="618.1206" y="-113.9" font-family="Arial" font-size="14.00" fill="#666666">[varchar(255)]</text>
<polygon fill="none" stroke="#000000" points="524,-72.5 524,-102.5 726,-102.5 726,-72.5 524,-72.5"/>
<text text-anchor="start" x="530.8668" y="-83.9" font-family="Arial" font-size="14.00" fill="#000000">hashed_password </text>
<text text-anchor="start" x="648.3506" y="-83.9" font-family="Arial" font-size="14.00" fill="#666666">[binary(60)]</text>
<polygon fill="none" stroke="#000000" points="524,-42.5 524,-72.5 726,-72.5 726,-42.5 524,-42.5"/>
<text text-anchor="start" x="531" y="-53.9" font-family="Arial" font-size="14.00" fill="#000000">type </text>
<text text-anchor="start" x="561.3464" y="-53.9" font-family="Arial" font-size="14.00" fill="#666666">[enum(&#39;student&#39;,&#39;faculty&#39;)]</text>
</g>
<!-- submissions&#45;&gt;users -->
<g id="edge1" class="edge">
<title>submissions:user_id&#45;&gt;users:id</title>
<path fill="none" stroke="#000000" d="M266.1952,-456.7235C321.0355,-447.5444 268.192,-359.1376 311,-307 381.3038,-221.3741 413.21,-177.5 524,-177.5"/>
<polygon fill="#000000" stroke="#000000" points="265.9711,-456.7405 255.6582,-453.013 260.9856,-457.1203 256,-457.5 256,-457.5 256,-457.5 260.9856,-457.1203 256.3418,-461.987 265.9711,-456.7405 265.9711,-456.7405"/>
<text text-anchor="start" x="262.945" y="-467.5" font-family="Arial" font-size="10.00" fill="#000000">FOREIGN KEY (user_id) REFERENCES users (id)</text>
</g>
<!-- attendances -->
<g id="node3" class="node">
<title>attendances</title>
<polygon fill="#efefef" stroke="transparent" points="364,-472.5 364,-507.5 573,-507.5 573,-472.5 364,-472.5"/>
<polygon fill="none" stroke="#000000" points="364,-472.5 364,-507.5 573,-507.5 573,-472.5 364,-472.5"/>
<text text-anchor="start" x="370.8492" y="-485.3" font-family="Arial Bold" font-size="18.00" fill="#000000">attendances</text>
<text text-anchor="start" x="468.897" y="-485.3" font-family="Arial" font-size="14.00" fill="#000000"> </text>
<text text-anchor="start" x="472.7876" y="-485.3" font-family="Arial" font-size="14.00" fill="#666666">[BASE TABLE]</text>
<polygon fill="none" stroke="#000000" points="364,-442.5 364,-472.5 573,-472.5 573,-442.5 364,-442.5"/>
<text text-anchor="start" x="371" y="-453.9" font-family="Arial" font-size="14.00" fill="#000000">class_id </text>
<text text-anchor="start" x="425.4516" y="-453.9" font-family="Arial" font-size="14.00" fill="#666666">[char(36)]</text>
<polygon fill="none" stroke="#000000" points="364,-412.5 364,-442.5 573,-442.5 573,-412.5 364,-412.5"/>
<text text-anchor="start" x="371" y="-423.9" font-family="Arial" font-size="14.00" fill="#000000">user_id </text>
<text text-anchor="start" x="420.7882" y="-423.9" font-family="Arial" font-size="14.00" fill="#666666">[char(36)]</text>
<polygon fill="none" stroke="#000000" points="364,-382.5 364,-412.5 573,-412.5 573,-382.5 364,-382.5"/>
<text text-anchor="start" x="371" y="-393.9" font-family="Arial" font-size="14.00" fill="#000000">created_at </text>
<text text-anchor="start" x="441.028" y="-393.9" font-family="Arial" font-size="14.00" fill="#666666">[datetime(6)]</text>
</g>
<!-- attendances&#45;&gt;users -->
<g id="edge2" class="edge">
<title>attendances:user_id&#45;&gt;users:id</title>
<path fill="none" stroke="#000000" d="M582.8929,-426.0057C606.5473,-417.3906 583.617,-373.2871 573,-340 561.5707,-304.1659 535.4293,-306.8341 524,-271 511.3726,-231.4094 482.4444,-177.5 524,-177.5"/>
<polygon fill="#000000" stroke="#000000" points="582.8878,-426.0064 572.3279,-423.0505 577.9439,-426.7532 573,-427.5 573,-427.5 573,-427.5 577.9439,-426.7532 573.6721,-431.9495 582.8878,-426.0064 582.8878,-426.0064"/>
<text text-anchor="start" x="579.945" y="-437.5" font-family="Arial" font-size="10.00" fill="#000000">FOREIGN KEY (user_id) REFERENCES users (id)</text>
</g>
<!-- registrations -->
<g id="node4" class="node">
<title>registrations</title>
<polygon fill="#efefef" stroke="transparent" points="677,-487.5 677,-522.5 886,-522.5 886,-487.5 677,-487.5"/>
<polygon fill="none" stroke="#000000" points="677,-487.5 677,-522.5 886,-522.5 886,-487.5 677,-487.5"/>
<text text-anchor="start" x="683.869" y="-500.3" font-family="Arial Bold" font-size="18.00" fill="#000000">registrations</text>
<text text-anchor="start" x="781.8772" y="-500.3" font-family="Arial" font-size="14.00" fill="#000000"> </text>
<text text-anchor="start" x="785.7678" y="-500.3" font-family="Arial" font-size="14.00" fill="#666666">[BASE TABLE]</text>
<polygon fill="none" stroke="#000000" points="677,-457.5 677,-487.5 886,-487.5 886,-457.5 677,-457.5"/>
<text text-anchor="start" x="684" y="-468.9" font-family="Arial" font-size="14.00" fill="#000000">course_id </text>
<text text-anchor="start" x="748.5708" y="-468.9" font-family="Arial" font-size="14.00" fill="#666666">[char(36)]</text>
<polygon fill="none" stroke="#000000" points="677,-427.5 677,-457.5 886,-457.5 886,-427.5 677,-427.5"/>
<text text-anchor="start" x="684" y="-438.9" font-family="Arial" font-size="14.00" fill="#000000">user_id </text>
<text text-anchor="start" x="733.7882" y="-438.9" font-family="Arial" font-size="14.00" fill="#666666">[char(36)]</text>
<polygon fill="none" stroke="#000000" points="677,-397.5 677,-427.5 886,-427.5 886,-397.5 677,-397.5"/>
<text text-anchor="start" x="684" y="-408.9" font-family="Arial" font-size="14.00" fill="#000000">created_at </text>
<text text-anchor="start" x="754.028" y="-408.9" font-family="Arial" font-size="14.00" fill="#666666">[datetime(6)]</text>
<polygon fill="none" stroke="#000000" points="677,-367.5 677,-397.5 886,-397.5 886,-367.5 677,-367.5"/>
<text text-anchor="start" x="684" y="-378.9" font-family="Arial" font-size="14.00" fill="#000000">delete_at </text>
<text text-anchor="start" x="745.474" y="-378.9" font-family="Arial" font-size="14.00" fill="#666666">[datetime(6)]</text>
</g>
<!-- registrations&#45;&gt;users -->
<g id="edge3" class="edge">
<title>registrations:user_id&#45;&gt;users:id</title>
<path fill="none" stroke="#000000" d="M666.7466,-441.3997C629.6571,-432.4006 659.5873,-370.1017 677,-325 688.6722,-294.7671 714.3278,-301.2329 726,-271 740.9669,-232.2333 767.5556,-177.5 726,-177.5"/>
<polygon fill="#000000" stroke="#000000" points="667.0571,-441.4329 676.5198,-446.9743 672.0285,-441.9665 677,-442.5 677,-442.5 677,-442.5 672.0285,-441.9665 677.4802,-438.0257 667.0571,-441.4329 667.0571,-441.4329"/>
<text text-anchor="start" x="683.945" y="-452.5" font-family="Arial" font-size="10.00" fill="#000000">FOREIGN KEY (user_id) REFERENCES users (id)</text>
</g>
<!-- unread_announcements -->
<g id="node5" class="node">
<title>unread_announcements</title>
<polygon fill="#efefef" stroke="transparent" points="990,-487.5 990,-522.5 1295,-522.5 1295,-487.5 990,-487.5"/>
<polygon fill="none" stroke="#000000" points="990,-487.5 990,-522.5 1295,-522.5 1295,-487.5 990,-487.5"/>
<text text-anchor="start" x="996.8333" y="-500.3" font-family="Arial Bold" font-size="18.00" fill="#000000">unread_announcements</text>
<text text-anchor="start" x="1190.9129" y="-500.3" font-family="Arial" font-size="14.00" fill="#000000"> </text>
<text text-anchor="start" x="1194.8035" y="-500.3" font-family="Arial" font-size="14.00" fill="#666666">[BASE TABLE]</text>
<polygon fill="none" stroke="#000000" points="990,-457.5 990,-487.5 1295,-487.5 1295,-457.5 990,-457.5"/>
<text text-anchor="start" x="997" y="-468.9" font-family="Arial" font-size="14.00" fill="#000000">announcement_id </text>
<text text-anchor="start" x="1112.157" y="-468.9" font-family="Arial" font-size="14.00" fill="#666666">[char(36)]</text>
<polygon fill="none" stroke="#000000" points="990,-427.5 990,-457.5 1295,-457.5 1295,-427.5 990,-427.5"/>
<text text-anchor="start" x="997" y="-438.9" font-family="Arial" font-size="14.00" fill="#000000">user_id </text>
<text text-anchor="start" x="1046.7882" y="-438.9" font-family="Arial" font-size="14.00" fill="#666666">[char(36)]</text>
<polygon fill="none" stroke="#000000" points="990,-397.5 990,-427.5 1295,-427.5 1295,-397.5 990,-397.5"/>
<text text-anchor="start" x="997" y="-408.9" font-family="Arial" font-size="14.00" fill="#000000">created_at </text>
<text text-anchor="start" x="1067.028" y="-408.9" font-family="Arial" font-size="14.00" fill="#666666">[datetime(6)]</text>
<polygon fill="none" stroke="#000000" points="990,-367.5 990,-397.5 1295,-397.5 1295,-367.5 990,-367.5"/>
<text text-anchor="start" x="997" y="-378.9" font-family="Arial" font-size="14.00" fill="#000000">delete_at </text>
<text text-anchor="start" x="1058.474" y="-378.9" font-family="Arial" font-size="14.00" fill="#666666">[datetime(6)]</text>
</g>
<!-- unread_announcements&#45;&gt;users -->
<g id="edge4" class="edge">
<title>unread_announcements:user_id&#45;&gt;users:id</title>
<path fill="none" stroke="#000000" d="M979.8367,-441.6395C931.4719,-432.5545 976.861,-353.662 938,-307 867.3427,-222.1589 836.4105,-177.5 726,-177.5"/>
<polygon fill="#000000" stroke="#000000" points="980.0357,-441.6563 989.6203,-446.984 985.0178,-442.0781 990,-442.5 990,-442.5 990,-442.5 985.0178,-442.0781 990.3797,-438.016 980.0357,-441.6563 980.0357,-441.6563"/>
<text text-anchor="start" x="936.945" y="-426.5" font-family="Arial" font-size="10.00" fill="#000000">FOREIGN KEY (user_id) REFERENCES users (id)</text>
</g>
</g>
</svg>
