<?xml version="1.0" encoding="UTF-8" standalone="no"?>
<!DOCTYPE svg PUBLIC "-//W3C//DTD SVG 1.1//EN"
 "http://www.w3.org/Graphics/SVG/1.1/DTD/svg11.dtd">
<!-- Generated by graphviz version 2.40.1 (20161225.0304)
 -->
<!-- Title: unread_announcements Pages: 1 -->
<svg width="886pt" height="562pt"
 viewBox="0.00 0.00 886.00 562.00" xmlns="http://www.w3.org/2000/svg" xmlns:xlink="http://www.w3.org/1999/xlink">
<g id="graph0" class="graph" transform="scale(1 1) rotate(0) translate(4 558)">
<title>unread_announcements</title>
<polygon fill="#ffffff" stroke="transparent" points="-4,4 -4,-558 882,-558 882,4 -4,4"/>
<!-- unread_announcements -->
<g id="node1" class="node">
<title>unread_announcements</title>
<polygon fill="#efefef" stroke="transparent" points="333,-472.5 333,-507.5 638,-507.5 638,-472.5 333,-472.5"/>
<polygon fill="none" stroke="#000000" points="333,-472.5 333,-507.5 638,-507.5 638,-472.5 333,-472.5"/>
<text text-anchor="start" x="339.8333" y="-485.3" font-family="Arial Bold" font-size="18.00" fill="#000000">unread_announcements</text>
<text text-anchor="start" x="533.9129" y="-485.3" font-family="Arial" font-size="14.00" fill="#000000"> </text>
<text text-anchor="start" x="537.8035" y="-485.3" font-family="Arial" font-size="14.00" fill="#666666">[BASE TABLE]</text>
<polygon fill="none" stroke="#000000" points="333,-442.5 333,-472.5 638,-472.5 638,-442.5 333,-442.5"/>
<text text-anchor="start" x="340" y="-453.9" font-family="Arial" font-size="14.00" fill="#000000">announcement_id </text>
<text text-anchor="start" x="455.157" y="-453.9" font-family="Arial" font-size="14.00" fill="#666666">[char(36)]</text>
<polygon fill="none" stroke="#000000" points="333,-412.5 333,-442.5 638,-442.5 638,-412.5 333,-412.5"/>
<text text-anchor="start" x="340" y="-423.9" font-family="Arial" font-size="14.00" fill="#000000">user_id </text>
<text text-anchor="start" x="389.7882" y="-423.9" font-family="Arial" font-size="14.00" fill="#666666">[char(36)]</text>
<polygon fill="none" stroke="#000000" points="333,-382.5 333,-412.5 638,-412.5 638,-382.5 333,-382.5"/>
<text text-anchor="start" x="340" y="-393.9" font-family="Arial" font-size="14.00" fill="#000000">created_at </text>
<text text-anchor="start" x="410.028" y="-393.9" font-family="Arial" font-size="14.00" fill="#666666">[datetime(6)]</text>
<polygon fill="none" stroke="#000000" points="333,-352.5 333,-382.5 638,-382.5 638,-352.5 333,-352.5"/>
<text text-anchor="start" x="340" y="-363.9" font-family="Arial" font-size="14.00" fill="#000000">deleted_at </text>
<text text-anchor="start" x="409.2566" y="-363.9" font-family="Arial" font-size="14.00" fill="#666666">[datetime(6)]</text>
<polygon fill="none" stroke="#000000" stroke-width="3" points="331,-351.5 331,-509.5 639,-509.5 639,-351.5 331,-351.5"/>
</g>
<!-- announcements -->
<g id="node2" class="node">
<title>announcements</title>
<polygon fill="#efefef" stroke="transparent" points="203,-192.5 203,-227.5 442,-227.5 442,-192.5 203,-192.5"/>
<polygon fill="none" stroke="#000000" points="203,-192.5 203,-227.5 442,-227.5 442,-192.5 203,-192.5"/>
<text text-anchor="start" x="209.848" y="-205.3" font-family="Arial Bold" font-size="18.00" fill="#000000">announcements</text>
<text text-anchor="start" x="337.8982" y="-205.3" font-family="Arial" font-size="14.00" fill="#000000"> </text>
<text text-anchor="start" x="341.7888" y="-205.3" font-family="Arial" font-size="14.00" fill="#666666">[BASE TABLE]</text>
<polygon fill="none" stroke="#000000" points="203,-162.5 203,-192.5 442,-192.5 442,-162.5 203,-162.5"/>
<text text-anchor="start" x="210" y="-173.9" font-family="Arial" font-size="14.00" fill="#000000">id </text>
<text text-anchor="start" x="224.7798" y="-173.9" font-family="Arial" font-size="14.00" fill="#666666">[char(36)]</text>
<polygon fill="none" stroke="#000000" points="203,-132.5 203,-162.5 442,-162.5 442,-132.5 203,-132.5"/>
<text text-anchor="start" x="210" y="-143.9" font-family="Arial" font-size="14.00" fill="#000000">course_id </text>
<text text-anchor="start" x="274.5708" y="-143.9" font-family="Arial" font-size="14.00" fill="#666666">[char(36)]</text>
<polygon fill="none" stroke="#000000" points="203,-102.5 203,-132.5 442,-132.5 442,-102.5 203,-102.5"/>
<text text-anchor="start" x="210" y="-113.9" font-family="Arial" font-size="14.00" fill="#000000">title </text>
<text text-anchor="start" x="235.6676" y="-113.9" font-family="Arial" font-size="14.00" fill="#666666">[varchar(255)]</text>
<polygon fill="none" stroke="#000000" points="203,-72.5 203,-102.5 442,-102.5 442,-72.5 203,-72.5"/>
<text text-anchor="start" x="210" y="-83.9" font-family="Arial" font-size="14.00" fill="#000000">message </text>
<text text-anchor="start" x="270.6816" y="-83.9" font-family="Arial" font-size="14.00" fill="#666666">[text]</text>
<polygon fill="none" stroke="#000000" points="203,-42.5 203,-72.5 442,-72.5 442,-42.5 203,-42.5"/>
<text text-anchor="start" x="210" y="-53.9" font-family="Arial" font-size="14.00" fill="#000000">created_at </text>
<text text-anchor="start" x="280.028" y="-53.9" font-family="Arial" font-size="14.00" fill="#666666">[datetime(6)]</text>
</g>
<!-- unread_announcements&#45;&gt;announcements -->
<g id="edge1" class="edge">
<title>unread_announcements:announcement_id&#45;&gt;announcements:id</title>
<path fill="none" stroke="#000000" d="M322.8611,-456.6587C269.1755,-447.094 295.9576,-358.2446 333,-307 362.8879,-265.653 412.1121,-312.347 442,-271 466.3444,-237.3219 483.5556,-177.5 442,-177.5"/>
<polygon fill="#000000" stroke="#000000" points="323.0342,-456.673 332.6278,-461.9846 328.0171,-457.0865 333,-457.5 333,-457.5 333,-457.5 328.0171,-457.0865 333.3722,-453.0154 323.0342,-456.673 323.0342,-456.673"/>
<text text-anchor="start" x="7.253" y="-467.5" font-family="Arial" font-size="10.00" fill="#000000">FOREIGN KEY (announcement_id) REFERENCES announcements (id)</text>
</g>
<!-- users -->
<g id="node3" class="node">
<title>users</title>
<polygon fill="#efefef" stroke="transparent" points="546,-192.5 546,-227.5 751,-227.5 751,-192.5 546,-192.5"/>
<polygon fill="none" stroke="#000000" points="546,-192.5 546,-227.5 751,-227.5 751,-192.5 546,-192.5"/>
<text text-anchor="start" x="577.8708" y="-205.3" font-family="Arial Bold" font-size="18.00" fill="#000000">users</text>
<text text-anchor="start" x="621.8754" y="-205.3" font-family="Arial" font-size="14.00" fill="#000000"> </text>
<text text-anchor="start" x="625.766" y="-205.3" font-family="Arial" font-size="14.00" fill="#666666">[BASE TABLE]</text>
<polygon fill="none" stroke="#000000" points="546,-162.5 546,-192.5 751,-192.5 751,-162.5 546,-162.5"/>
<text text-anchor="start" x="553" y="-173.9" font-family="Arial" font-size="14.00" fill="#000000">id </text>
<text text-anchor="start" x="567.7798" y="-173.9" font-family="Arial" font-size="14.00" fill="#666666">[char(36)]</text>
<polygon fill="none" stroke="#000000" points="546,-132.5 546,-162.5 751,-162.5 751,-132.5 546,-132.5"/>
<text text-anchor="start" x="553" y="-143.9" font-family="Arial" font-size="14.00" fill="#000000">code </text>
<text text-anchor="start" x="587.2384" y="-143.9" font-family="Arial" font-size="14.00" fill="#666666">[char(8)]</text>
<polygon fill="none" stroke="#000000" points="546,-102.5 546,-132.5 751,-132.5 751,-102.5 546,-102.5"/>
<text text-anchor="start" x="553" y="-113.9" font-family="Arial" font-size="14.00" fill="#000000">name </text>
<text text-anchor="start" x="591.899" y="-113.9" font-family="Arial" font-size="14.00" fill="#666666">[varchar(255)]</text>
<polygon fill="none" stroke="#000000" points="546,-72.5 546,-102.5 751,-102.5 751,-72.5 546,-72.5"/>
<text text-anchor="start" x="553" y="-83.9" font-family="Arial" font-size="14.00" fill="#000000">hashed_password </text>
<text text-anchor="start" x="670.4838" y="-83.9" font-family="Arial" font-size="14.00" fill="#666666">[binary(60)]</text>
<polygon fill="none" stroke="#000000" points="546,-42.5 546,-72.5 751,-72.5 751,-42.5 546,-42.5"/>
<text text-anchor="start" x="552.8443" y="-53.9" font-family="Arial" font-size="14.00" fill="#000000">type </text>
<text text-anchor="start" x="583.1907" y="-53.9" font-family="Arial" font-size="14.00" fill="#666666">[enum(&#39;student&#39;,&#39;teacher&#39;)]</text>
</g>
<!-- unread_announcements&#45;&gt;users -->
<g id="edge2" class="edge">
<title>unread_announcements:user_id&#45;&gt;users:id</title>
<path fill="none" stroke="#000000" d="M648.1804,-426.4065C688.2362,-416.9335 666.0685,-348.1242 638,-307 613.2475,-270.7341 570.7525,-307.2659 546,-271 522.5736,-236.677 504.4444,-177.5 546,-177.5"/>
<polygon fill="#000000" stroke="#000000" points="647.9428,-426.4319 637.5194,-423.0257 642.9714,-426.966 638,-427.5 638,-427.5 638,-427.5 642.9714,-426.966 638.4806,-431.9743 647.9428,-426.4319 647.9428,-426.4319"/>
<text text-anchor="start" x="644.945" y="-437.5" font-family="Arial" font-size="10.00" fill="#000000">FOREIGN KEY (user_id) REFERENCES users (id)</text>
</g>
</g>
</svg>
