<?xml version="1.0" encoding="UTF-8" standalone="no"?>
<!DOCTYPE svg PUBLIC "-//W3C//DTD SVG 1.1//EN"
 "http://www.w3.org/Graphics/SVG/1.1/DTD/svg11.dtd">
<!-- Generated by graphviz version 2.40.1 (20161225.0304)
 -->
<!-- Title: unread_announcements Pages: 1 -->
<svg width="886pt" height="562pt"
 viewBox="0.00 0.00 886.00 562.00" xmlns="http://www.w3.org/2000/svg" xmlns:xlink="http://www.w3.org/1999/xlink">
<g id="graph0" class="graph" transform="scale(1 1) rotate(0) translate(4 558)">
<title>unread_announcements</title>
<polygon fill="#ffffff" stroke="transparent" points="-4,4 -4,-558 882,-558 882,4 -4,4"/>
<!-- unread_announcements -->
<g id="node1" class="node">
<title>unread_announcements</title>
<polygon fill="#efefef" stroke="transparent" points="333,-472.5 333,-507.5 638,-507.5 638,-472.5 333,-472.5"/>
<polygon fill="none" stroke="#000000" points="333,-472.5 333,-507.5 638,-507.5 638,-472.5 333,-472.5"/>
<text text-anchor="start" x="339.8333" y="-485.3" font-family="Arial Bold" font-size="18.00" fill="#000000">unread_announcements</text>
<text text-anchor="start" x="533.9129" y="-485.3" font-family="Arial" font-size="14.00" fill="#000000"> </text>
<text text-anchor="start" x="537.8035" y="-485.3" font-family="Arial" font-size="14.00" fill="#666666">[BASE TABLE]</text>
<polygon fill="none" stroke="#000000" points="333,-442.5 333,-472.5 638,-472.5 638,-442.5 333,-442.5"/>
<text text-anchor="start" x="340" y="-453.9" font-family="Arial" font-size="14.00" fill="#000000">announcement_id </text>
<text text-anchor="start" x="455.157" y="-453.9" font-family="Arial" font-size="14.00" fill="#666666">[char(36)]</text>
<polygon fill="none" stroke="#000000" points="333,-412.5 333,-442.5 638,-442.5 638,-412.5 333,-412.5"/>
<text text-anchor="start" x="340" y="-423.9" font-family="Arial" font-size="14.00" fill="#000000">user_id </text>
<text text-anchor="start" x="389.7882" y="-423.9" font-family="Arial" font-size="14.00" fill="#666666">[char(36)]</text>
<polygon fill="none" stroke="#000000" points="333,-382.5 333,-412.5 638,-412.5 638,-382.5 333,-382.5"/>
<text text-anchor="start" x="340" y="-393.9" font-family="Arial" font-size="14.00" fill="#000000">created_at </text>
<text text-anchor="start" x="410.028" y="-393.9" font-family="Arial" font-size="14.00" fill="#666666">[datetime(6)]</text>
<polygon fill="none" stroke="#000000" points="333,-352.5 333,-382.5 638,-382.5 638,-352.5 333,-352.5"/>
<text text-anchor="start" x="340" y="-363.9" font-family="Arial" font-size="14.00" fill="#000000">deleted_at </text>
<text text-anchor="start" x="409.2566" y="-363.9" font-family="Arial" font-size="14.00" fill="#666666">[datetime(6)]</text>
<polygon fill="none" stroke="#000000" stroke-width="3" points="331,-351.5 331,-509.5 639,-509.5 639,-351.5 331,-351.5"/>
</g>
<!-- announcements -->
<g id="node2" class="node">
<title>announcements</title>
<polygon fill="#efefef" stroke="transparent" points="204,-192.5 204,-227.5 443,-227.5 443,-192.5 204,-192.5"/>
<polygon fill="none" stroke="#000000" points="204,-192.5 204,-227.5 443,-227.5 443,-192.5 204,-192.5"/>
<text text-anchor="start" x="210.848" y="-205.3" font-family="Arial Bold" font-size="18.00" fill="#000000">announcements</text>
<text text-anchor="start" x="338.8982" y="-205.3" font-family="Arial" font-size="14.00" fill="#000000"> </text>
<text text-anchor="start" x="342.7888" y="-205.3" font-family="Arial" font-size="14.00" fill="#666666">[BASE TABLE]</text>
<polygon fill="none" stroke="#000000" points="204,-162.5 204,-192.5 443,-192.5 443,-162.5 204,-162.5"/>
<text text-anchor="start" x="211" y="-173.9" font-family="Arial" font-size="14.00" fill="#000000">id </text>
<text text-anchor="start" x="225.7798" y="-173.9" font-family="Arial" font-size="14.00" fill="#666666">[char(36)]</text>
<polygon fill="none" stroke="#000000" points="204,-132.5 204,-162.5 443,-162.5 443,-132.5 204,-132.5"/>
<text text-anchor="start" x="211" y="-143.9" font-family="Arial" font-size="14.00" fill="#000000">course_id </text>
<text text-anchor="start" x="275.5708" y="-143.9" font-family="Arial" font-size="14.00" fill="#666666">[char(36)]</text>
<polygon fill="none" stroke="#000000" points="204,-102.5 204,-132.5 443,-132.5 443,-102.5 204,-102.5"/>
<text text-anchor="start" x="211" y="-113.9" font-family="Arial" font-size="14.00" fill="#000000">title </text>
<text text-anchor="start" x="236.6676" y="-113.9" font-family="Arial" font-size="14.00" fill="#666666">[varchar(255)]</text>
<polygon fill="none" stroke="#000000" points="204,-72.5 204,-102.5 443,-102.5 443,-72.5 204,-72.5"/>
<text text-anchor="start" x="211" y="-83.9" font-family="Arial" font-size="14.00" fill="#000000">message </text>
<text text-anchor="start" x="271.6816" y="-83.9" font-family="Arial" font-size="14.00" fill="#666666">[text]</text>
<polygon fill="none" stroke="#000000" points="204,-42.5 204,-72.5 443,-72.5 443,-42.5 204,-42.5"/>
<text text-anchor="start" x="211" y="-53.9" font-family="Arial" font-size="14.00" fill="#000000">created_at </text>
<text text-anchor="start" x="281.028" y="-53.9" font-family="Arial" font-size="14.00" fill="#666666">[datetime(6)]</text>
</g>
<!-- unread_announcements&#45;&gt;announcements -->
<g id="edge1" class="edge">
<title>unread_announcements:announcement_id&#45;&gt;announcements:id</title>
<path fill="none" stroke="#000000" d="M322.8605,-456.6582C269.1679,-447.0886 295.8882,-358.1944 333,-307 363.1917,-265.3516 412.8083,-312.6484 443,-271 467.39,-237.3549 484.5556,-177.5 443,-177.5"/>
<polygon fill="#000000" stroke="#000000" points="323.0343,-456.6726 332.6277,-461.9846 328.0171,-457.0863 333,-457.5 333,-457.5 333,-457.5 328.0171,-457.0863 333.3723,-453.0154 323.0343,-456.6726 323.0343,-456.6726"/>
<text text-anchor="start" x="7.253" y="-467.5" font-family="Arial" font-size="10.00" fill="#000000">FOREIGN KEY (announcement_id) REFERENCES announcements (id)</text>
</g>
<!-- users -->
<g id="node3" class="node">
<title>users</title>
<polygon fill="#efefef" stroke="transparent" points="547,-192.5 547,-227.5 749,-227.5 749,-192.5 547,-192.5"/>
<polygon fill="none" stroke="#000000" points="547,-192.5 547,-227.5 749,-227.5 749,-192.5 547,-192.5"/>
<text text-anchor="start" x="577.3708" y="-205.3" font-family="Arial Bold" font-size="18.00" fill="#000000">users</text>
<text text-anchor="start" x="621.3754" y="-205.3" font-family="Arial" font-size="14.00" fill="#000000"> </text>
<text text-anchor="start" x="625.266" y="-205.3" font-family="Arial" font-size="14.00" fill="#666666">[BASE TABLE]</text>
<polygon fill="none" stroke="#000000" points="547,-162.5 547,-192.5 749,-192.5 749,-162.5 547,-162.5"/>
<text text-anchor="start" x="554" y="-173.9" font-family="Arial" font-size="14.00" fill="#000000">id </text>
<text text-anchor="start" x="568.7798" y="-173.9" font-family="Arial" font-size="14.00" fill="#666666">[char(36)]</text>
<polygon fill="none" stroke="#000000" points="547,-132.5 547,-162.5 749,-162.5 749,-132.5 547,-132.5"/>
<text text-anchor="start" x="554" y="-143.9" font-family="Arial" font-size="14.00" fill="#000000">code </text>
<text text-anchor="start" x="588.2384" y="-143.9" font-family="Arial" font-size="14.00" fill="#666666">[char(8)]</text>
<polygon fill="none" stroke="#000000" points="547,-102.5 547,-132.5 749,-132.5 749,-102.5 547,-102.5"/>
<text text-anchor="start" x="554" y="-113.9" font-family="Arial" font-size="14.00" fill="#000000">name </text>
<text text-anchor="start" x="592.899" y="-113.9" font-family="Arial" font-size="14.00" fill="#666666">[varchar(255)]</text>
<polygon fill="none" stroke="#000000" points="547,-72.5 547,-102.5 749,-102.5 749,-72.5 547,-72.5"/>
<text text-anchor="start" x="553.8668" y="-83.9" font-family="Arial" font-size="14.00" fill="#000000">hashed_password </text>
<text text-anchor="start" x="671.3506" y="-83.9" font-family="Arial" font-size="14.00" fill="#666666">[binary(60)]</text>
<polygon fill="none" stroke="#000000" points="547,-42.5 547,-72.5 749,-72.5 749,-42.5 547,-42.5"/>
<text text-anchor="start" x="554" y="-53.9" font-family="Arial" font-size="14.00" fill="#000000">type </text>
<text text-anchor="start" x="584.3464" y="-53.9" font-family="Arial" font-size="14.00" fill="#666666">[enum(&#39;student&#39;,&#39;faculty&#39;)]</text>
</g>
<!-- unread_announcements&#45;&gt;users -->
<g id="edge2" class="edge">
<title>unread_announcements:user_id&#45;&gt;users:id</title>
<path fill="none" stroke="#000000" d="M648.1793,-426.4073C688.2254,-416.9408 665.9919,-348.1764 638,-307 613.5476,-271.0301 571.4524,-306.9699 547,-271 523.6375,-236.6335 505.4444,-177.5 547,-177.5"/>
<polygon fill="#000000" stroke="#000000" points="647.9429,-426.4326 637.5197,-423.0257 642.9714,-426.9663 638,-427.5 638,-427.5 638,-427.5 642.9714,-426.9663 638.4803,-431.9743 647.9429,-426.4326 647.9429,-426.4326"/>
<text text-anchor="start" x="644.945" y="-437.5" font-family="Arial" font-size="10.00" fill="#000000">FOREIGN KEY (user_id) REFERENCES users (id)</text>
</g>
</g>
</svg>
