<?xml version="1.0" encoding="UTF-8" standalone="no"?>
<!DOCTYPE svg PUBLIC "-//W3C//DTD SVG 1.1//EN"
 "http://www.w3.org/Graphics/SVG/1.1/DTD/svg11.dtd">
<!-- Generated by graphviz version 2.40.1 (20161225.0304)
 -->
<!-- Title: unread_announcements Pages: 1 -->
<svg width="1903pt" height="923pt"
 viewBox="0.00 0.00 1903.00 923.00" xmlns="http://www.w3.org/2000/svg" xmlns:xlink="http://www.w3.org/1999/xlink">
<g id="graph0" class="graph" transform="scale(1 1) rotate(0) translate(4 919)">
<title>unread_announcements</title>
<polygon fill="#ffffff" stroke="transparent" points="-4,4 -4,-919 1899,-919 1899,4 -4,4"/>
<!-- unread_announcements -->
<g id="node1" class="node">
<title>unread_announcements</title>
<polygon fill="#efefef" stroke="transparent" points="333,-821.5 333,-856.5 638,-856.5 638,-821.5 333,-821.5"/>
<polygon fill="none" stroke="#000000" points="333,-821.5 333,-856.5 638,-856.5 638,-821.5 333,-821.5"/>
<text text-anchor="start" x="339.8333" y="-834.3" font-family="Arial Bold" font-size="18.00" fill="#000000">unread_announcements</text>
<text text-anchor="start" x="533.9129" y="-834.3" font-family="Arial" font-size="14.00" fill="#000000"> </text>
<text text-anchor="start" x="537.8035" y="-834.3" font-family="Arial" font-size="14.00" fill="#666666">[BASE TABLE]</text>
<polygon fill="none" stroke="#000000" points="333,-791.5 333,-821.5 638,-821.5 638,-791.5 333,-791.5"/>
<text text-anchor="start" x="340" y="-802.9" font-family="Arial" font-size="14.00" fill="#000000">announcement_id </text>
<text text-anchor="start" x="455.157" y="-802.9" font-family="Arial" font-size="14.00" fill="#666666">[char(36)]</text>
<polygon fill="none" stroke="#000000" points="333,-761.5 333,-791.5 638,-791.5 638,-761.5 333,-761.5"/>
<text text-anchor="start" x="340" y="-772.9" font-family="Arial" font-size="14.00" fill="#000000">user_id </text>
<text text-anchor="start" x="389.7882" y="-772.9" font-family="Arial" font-size="14.00" fill="#666666">[char(36)]</text>
<polygon fill="none" stroke="#000000" points="333,-731.5 333,-761.5 638,-761.5 638,-731.5 333,-731.5"/>
<text text-anchor="start" x="340" y="-742.9" font-family="Arial" font-size="14.00" fill="#000000">created_at </text>
<text text-anchor="start" x="410.028" y="-742.9" font-family="Arial" font-size="14.00" fill="#666666">[datetime(6)]</text>
<polygon fill="none" stroke="#000000" points="333,-701.5 333,-731.5 638,-731.5 638,-701.5 333,-701.5"/>
<text text-anchor="start" x="340" y="-712.9" font-family="Arial" font-size="14.00" fill="#000000">deleted_at </text>
<text text-anchor="start" x="409.2566" y="-712.9" font-family="Arial" font-size="14.00" fill="#666666">[datetime(6)]</text>
<polygon fill="none" stroke="#000000" stroke-width="3" points="331,-700.5 331,-858.5 639,-858.5 639,-700.5 331,-700.5"/>
</g>
<!-- announcements -->
<g id="node2" class="node">
<title>announcements</title>
<polygon fill="#efefef" stroke="transparent" points="366,-529.5 366,-564.5 605,-564.5 605,-529.5 366,-529.5"/>
<polygon fill="none" stroke="#000000" points="366,-529.5 366,-564.5 605,-564.5 605,-529.5 366,-529.5"/>
<text text-anchor="start" x="372.848" y="-542.3" font-family="Arial Bold" font-size="18.00" fill="#000000">announcements</text>
<text text-anchor="start" x="500.8982" y="-542.3" font-family="Arial" font-size="14.00" fill="#000000"> </text>
<text text-anchor="start" x="504.7888" y="-542.3" font-family="Arial" font-size="14.00" fill="#666666">[BASE TABLE]</text>
<polygon fill="none" stroke="#000000" points="366,-499.5 366,-529.5 605,-529.5 605,-499.5 366,-499.5"/>
<text text-anchor="start" x="373" y="-510.9" font-family="Arial" font-size="14.00" fill="#000000">id </text>
<text text-anchor="start" x="387.7798" y="-510.9" font-family="Arial" font-size="14.00" fill="#666666">[char(36)]</text>
<polygon fill="none" stroke="#000000" points="366,-469.5 366,-499.5 605,-499.5 605,-469.5 366,-469.5"/>
<text text-anchor="start" x="373" y="-480.9" font-family="Arial" font-size="14.00" fill="#000000">course_id </text>
<text text-anchor="start" x="437.5708" y="-480.9" font-family="Arial" font-size="14.00" fill="#666666">[char(36)]</text>
<polygon fill="none" stroke="#000000" points="366,-439.5 366,-469.5 605,-469.5 605,-439.5 366,-439.5"/>
<text text-anchor="start" x="373" y="-450.9" font-family="Arial" font-size="14.00" fill="#000000">title </text>
<text text-anchor="start" x="398.6676" y="-450.9" font-family="Arial" font-size="14.00" fill="#666666">[varchar(255)]</text>
<polygon fill="none" stroke="#000000" points="366,-409.5 366,-439.5 605,-439.5 605,-409.5 366,-409.5"/>
<text text-anchor="start" x="373" y="-420.9" font-family="Arial" font-size="14.00" fill="#000000">message </text>
<text text-anchor="start" x="433.6816" y="-420.9" font-family="Arial" font-size="14.00" fill="#666666">[text]</text>
<polygon fill="none" stroke="#000000" points="366,-379.5 366,-409.5 605,-409.5 605,-379.5 366,-379.5"/>
<text text-anchor="start" x="373" y="-390.9" font-family="Arial" font-size="14.00" fill="#000000">created_at </text>
<text text-anchor="start" x="443.028" y="-390.9" font-family="Arial" font-size="14.00" fill="#666666">[datetime(6)]</text>
</g>
<!-- unread_announcements&#45;&gt;announcements -->
<g id="edge1" class="edge">
<title>unread_announcements:announcement_id&#45;&gt;announcements:id</title>
<path fill="none" stroke="#000000" d="M323.009,-805.9017C204.2042,-791.3046 238.8397,-514.5 366,-514.5"/>
<polygon fill="#000000" stroke="#000000" points="323.0179,-805.9021 332.731,-810.992 328.0089,-806.2011 333,-806.5 333,-806.5 333,-806.5 328.0089,-806.2011 333.269,-802.008 323.0179,-805.9021 323.0179,-805.9021"/>
<text text-anchor="start" x="7.253" y="-816.5" font-family="Arial" font-size="10.00" fill="#000000">FOREIGN KEY (announcement_id) REFERENCES announcements (id)</text>
</g>
<!-- users -->
<g id="node4" class="node">
<title>users</title>
<polygon fill="#efefef" stroke="transparent" points="1040,-529.5 1040,-564.5 1242,-564.5 1242,-529.5 1040,-529.5"/>
<polygon fill="none" stroke="#000000" points="1040,-529.5 1040,-564.5 1242,-564.5 1242,-529.5 1040,-529.5"/>
<text text-anchor="start" x="1070.3708" y="-542.3" font-family="Arial Bold" font-size="18.00" fill="#000000">users</text>
<text text-anchor="start" x="1114.3754" y="-542.3" font-family="Arial" font-size="14.00" fill="#000000"> </text>
<text text-anchor="start" x="1118.266" y="-542.3" font-family="Arial" font-size="14.00" fill="#666666">[BASE TABLE]</text>
<polygon fill="none" stroke="#000000" points="1040,-499.5 1040,-529.5 1242,-529.5 1242,-499.5 1040,-499.5"/>
<text text-anchor="start" x="1047" y="-510.9" font-family="Arial" font-size="14.00" fill="#000000">id </text>
<text text-anchor="start" x="1061.7798" y="-510.9" font-family="Arial" font-size="14.00" fill="#666666">[char(36)]</text>
<polygon fill="none" stroke="#000000" points="1040,-469.5 1040,-499.5 1242,-499.5 1242,-469.5 1040,-469.5"/>
<text text-anchor="start" x="1047" y="-480.9" font-family="Arial" font-size="14.00" fill="#000000">name </text>
<text text-anchor="start" x="1085.899" y="-480.9" font-family="Arial" font-size="14.00" fill="#666666">[varchar(255)]</text>
<polygon fill="none" stroke="#000000" points="1040,-439.5 1040,-469.5 1242,-469.5 1242,-439.5 1040,-439.5"/>
<text text-anchor="start" x="1047" y="-450.9" font-family="Arial" font-size="14.00" fill="#000000">mail_address </text>
<text text-anchor="start" x="1134.1206" y="-450.9" font-family="Arial" font-size="14.00" fill="#666666">[varchar(255)]</text>
<polygon fill="none" stroke="#000000" points="1040,-409.5 1040,-439.5 1242,-439.5 1242,-409.5 1040,-409.5"/>
<text text-anchor="start" x="1046.8668" y="-420.9" font-family="Arial" font-size="14.00" fill="#000000">hashed_password </text>
<text text-anchor="start" x="1164.3506" y="-420.9" font-family="Arial" font-size="14.00" fill="#666666">[binary(60)]</text>
<polygon fill="none" stroke="#000000" points="1040,-379.5 1040,-409.5 1242,-409.5 1242,-379.5 1040,-379.5"/>
<text text-anchor="start" x="1047" y="-390.9" font-family="Arial" font-size="14.00" fill="#000000">type </text>
<text text-anchor="start" x="1077.3464" y="-390.9" font-family="Arial" font-size="14.00" fill="#666666">[enum(&#39;student&#39;,&#39;faculty&#39;)]</text>
</g>
<!-- unread_announcements&#45;&gt;users -->
<g id="edge3" class="edge">
<title>unread_announcements:user_id&#45;&gt;users:id</title>
<path fill="none" stroke="#000000" d="M647.9985,-775.6178C695.4642,-766.3114 649.0229,-685.6756 692,-644 810.4729,-529.1149 874.9715,-514.5 1040,-514.5"/>
<polygon fill="#000000" stroke="#000000" points="647.9613,-775.621 637.6045,-772.0174 642.9807,-776.0605 638,-776.5 638,-776.5 638,-776.5 642.9807,-776.0605 638.3955,-780.9826 647.9613,-775.621 647.9613,-775.621"/>
<text text-anchor="start" x="524.945" y="-760.5" font-family="Arial" font-size="10.00" fill="#000000">FOREIGN KEY (user_id) REFERENCES users (id)</text>
</g>
<!-- courses -->
<g id="node3" class="node">
<title>courses</title>
<polygon fill="#efefef" stroke="transparent" points="399,-222.5 399,-257.5 573,-257.5 573,-222.5 399,-222.5"/>
<polygon fill="none" stroke="#000000" points="399,-222.5 399,-257.5 573,-257.5 573,-222.5 399,-222.5"/>
<text text-anchor="start" x="405.8677" y="-235.3" font-family="Arial Bold" font-size="18.00" fill="#000000">courses</text>
<text text-anchor="start" x="468.8785" y="-235.3" font-family="Arial" font-size="14.00" fill="#000000"> </text>
<text text-anchor="start" x="472.7691" y="-235.3" font-family="Arial" font-size="14.00" fill="#666666">[BASE TABLE]</text>
<polygon fill="none" stroke="#000000" points="399,-192.5 399,-222.5 573,-222.5 573,-192.5 399,-192.5"/>
<text text-anchor="start" x="406" y="-203.9" font-family="Arial" font-size="14.00" fill="#000000">id </text>
<text text-anchor="start" x="420.7798" y="-203.9" font-family="Arial" font-size="14.00" fill="#666666">[char(36)]</text>
<polygon fill="none" stroke="#000000" points="399,-162.5 399,-192.5 573,-192.5 573,-162.5 399,-162.5"/>
<text text-anchor="start" x="406" y="-173.9" font-family="Arial" font-size="14.00" fill="#000000">name </text>
<text text-anchor="start" x="444.899" y="-173.9" font-family="Arial" font-size="14.00" fill="#666666">[varchar(255)]</text>
<polygon fill="none" stroke="#000000" points="399,-132.5 399,-162.5 573,-162.5 573,-132.5 399,-132.5"/>
<text text-anchor="start" x="406" y="-143.9" font-family="Arial" font-size="14.00" fill="#000000">description </text>
<text text-anchor="start" x="477.568" y="-143.9" font-family="Arial" font-size="14.00" fill="#666666">[text]</text>
<polygon fill="none" stroke="#000000" points="399,-102.5 399,-132.5 573,-132.5 573,-102.5 399,-102.5"/>
<text text-anchor="start" x="406" y="-113.9" font-family="Arial" font-size="14.00" fill="#000000">credit </text>
<text text-anchor="start" x="444.1136" y="-113.9" font-family="Arial" font-size="14.00" fill="#666666">[tinyint unsigned]</text>
<polygon fill="none" stroke="#000000" points="399,-72.5 399,-102.5 573,-102.5 573,-72.5 399,-72.5"/>
<text text-anchor="start" x="406" y="-83.9" font-family="Arial" font-size="14.00" fill="#000000">classroom </text>
<text text-anchor="start" x="473.6662" y="-83.9" font-family="Arial" font-size="14.00" fill="#666666">[varchar(255)]</text>
<polygon fill="none" stroke="#000000" points="399,-42.5 399,-72.5 573,-72.5 573,-42.5 399,-42.5"/>
<text text-anchor="start" x="406" y="-53.9" font-family="Arial" font-size="14.00" fill="#000000">capacity </text>
<text text-anchor="start" x="461.2356" y="-53.9" font-family="Arial" font-size="14.00" fill="#666666">[int unsigned]</text>
</g>
<!-- announcements&#45;&gt;courses -->
<g id="edge2" class="edge">
<title>announcements:course_id&#45;&gt;courses:id</title>
<path fill="none" stroke="#000000" d="M614.9687,-483.6505C667.9423,-473.9973 644.87,-384.4418 605,-337 545.2031,-265.847 458.7969,-372.153 399,-301 372.2644,-269.1869 357.4444,-207.5 399,-207.5"/>
<polygon fill="#000000" stroke="#000000" points="614.9639,-483.6508 604.6179,-480.0163 609.9819,-484.0754 605,-484.5 605,-484.5 605,-484.5 609.9819,-484.0754 605.3821,-488.9837 614.9639,-483.6508 614.9639,-483.6508"/>
<text text-anchor="start" x="612.386" y="-494.5" font-family="Arial" font-size="10.00" fill="#000000">FOREIGN KEY (course_id) REFERENCES courses (id)</text>
</g>
<!-- attendances -->
<g id="node5" class="node">
<title>attendances</title>
<polygon fill="#efefef" stroke="transparent" points="745,-806.5 745,-841.5 954,-841.5 954,-806.5 745,-806.5"/>
<polygon fill="none" stroke="#000000" points="745,-806.5 745,-841.5 954,-841.5 954,-806.5 745,-806.5"/>
<text text-anchor="start" x="751.8492" y="-819.3" font-family="Arial Bold" font-size="18.00" fill="#000000">attendances</text>
<text text-anchor="start" x="849.897" y="-819.3" font-family="Arial" font-size="14.00" fill="#000000"> </text>
<text text-anchor="start" x="853.7876" y="-819.3" font-family="Arial" font-size="14.00" fill="#666666">[BASE TABLE]</text>
<polygon fill="none" stroke="#000000" points="745,-776.5 745,-806.5 954,-806.5 954,-776.5 745,-776.5"/>
<text text-anchor="start" x="752" y="-787.9" font-family="Arial" font-size="14.00" fill="#000000">class_id </text>
<text text-anchor="start" x="806.4516" y="-787.9" font-family="Arial" font-size="14.00" fill="#666666">[char(36)]</text>
<polygon fill="none" stroke="#000000" points="745,-746.5 745,-776.5 954,-776.5 954,-746.5 745,-746.5"/>
<text text-anchor="start" x="752" y="-757.9" font-family="Arial" font-size="14.00" fill="#000000">user_id </text>
<text text-anchor="start" x="801.7882" y="-757.9" font-family="Arial" font-size="14.00" fill="#666666">[char(36)]</text>
<polygon fill="none" stroke="#000000" points="745,-716.5 745,-746.5 954,-746.5 954,-716.5 745,-716.5"/>
<text text-anchor="start" x="752" y="-727.9" font-family="Arial" font-size="14.00" fill="#000000">created_at </text>
<text text-anchor="start" x="822.028" y="-727.9" font-family="Arial" font-size="14.00" fill="#666666">[datetime(6)]</text>
</g>
<!-- attendances&#45;&gt;users -->
<g id="edge4" class="edge">
<title>attendances:user_id&#45;&gt;users:id</title>
<path fill="none" stroke="#000000" d="M964.144,-760.7914C1061.3429,-746.3037 927.391,-514.5 1040,-514.5"/>
<polygon fill="#000000" stroke="#000000" points="963.9757,-760.8031 953.6864,-757.0109 958.9878,-761.1516 954,-761.5 954,-761.5 954,-761.5 958.9878,-761.1516 954.3136,-765.9891 963.9757,-760.8031 963.9757,-760.8031"/>
<text text-anchor="start" x="960.945" y="-771.5" font-family="Arial" font-size="10.00" fill="#000000">FOREIGN KEY (user_id) REFERENCES users (id)</text>
</g>
<!-- grades -->
<g id="node6" class="node">
<title>grades</title>
<polygon fill="#efefef" stroke="transparent" points="1058,-821.5 1058,-856.5 1224,-856.5 1224,-821.5 1058,-821.5"/>
<polygon fill="none" stroke="#000000" points="1058,-821.5 1058,-856.5 1224,-856.5 1224,-821.5 1058,-821.5"/>
<text text-anchor="start" x="1064.8646" y="-834.3" font-family="Arial Bold" font-size="18.00" fill="#000000">grades</text>
<text text-anchor="start" x="1119.8816" y="-834.3" font-family="Arial" font-size="14.00" fill="#000000"> </text>
<text text-anchor="start" x="1123.7722" y="-834.3" font-family="Arial" font-size="14.00" fill="#666666">[BASE TABLE]</text>
<polygon fill="none" stroke="#000000" points="1058,-791.5 1058,-821.5 1224,-821.5 1224,-791.5 1058,-791.5"/>
<text text-anchor="start" x="1065" y="-802.9" font-family="Arial" font-size="14.00" fill="#000000">id </text>
<text text-anchor="start" x="1079.7798" y="-802.9" font-family="Arial" font-size="14.00" fill="#666666">[char(36)]</text>
<polygon fill="none" stroke="#000000" points="1058,-761.5 1058,-791.5 1224,-791.5 1224,-761.5 1058,-761.5"/>
<text text-anchor="start" x="1065" y="-772.9" font-family="Arial" font-size="14.00" fill="#000000">user_id </text>
<text text-anchor="start" x="1114.7882" y="-772.9" font-family="Arial" font-size="14.00" fill="#666666">[char(36)]</text>
<polygon fill="none" stroke="#000000" points="1058,-731.5 1058,-761.5 1224,-761.5 1224,-731.5 1058,-731.5"/>
<text text-anchor="start" x="1065" y="-742.9" font-family="Arial" font-size="14.00" fill="#000000">course_id </text>
<text text-anchor="start" x="1129.5708" y="-742.9" font-family="Arial" font-size="14.00" fill="#666666">[char(36)]</text>
<polygon fill="none" stroke="#000000" points="1058,-701.5 1058,-731.5 1224,-731.5 1224,-701.5 1058,-701.5"/>
<text text-anchor="start" x="1065" y="-712.9" font-family="Arial" font-size="14.00" fill="#000000">grade </text>
<text text-anchor="start" x="1104.6816" y="-712.9" font-family="Arial" font-size="14.00" fill="#666666">[int unsigned]</text>
</g>
<!-- grades&#45;&gt;users -->
<g id="edge5" class="edge">
<title>grades:user_id&#45;&gt;users:id</title>
<path fill="none" stroke="#000000" d="M1233.8356,-773.9069C1284.2067,-746.6964 1296.94,-514.5 1242,-514.5"/>
<polygon fill="#000000" stroke="#000000" points="1233.6696,-773.9506 1222.8528,-772.1487 1228.8348,-775.2253 1224,-776.5 1224,-776.5 1224,-776.5 1228.8348,-775.2253 1225.1472,-780.8513 1233.6696,-773.9506 1233.6696,-773.9506"/>
<text text-anchor="start" x="1110.945" y="-760.5" font-family="Arial" font-size="10.00" fill="#000000">FOREIGN KEY (user_id) REFERENCES users (id)</text>
</g>
<!-- registrations -->
<g id="node7" class="node">
<title>registrations</title>
<polygon fill="#efefef" stroke="transparent" points="1329,-821.5 1329,-856.5 1538,-856.5 1538,-821.5 1329,-821.5"/>
<polygon fill="none" stroke="#000000" points="1329,-821.5 1329,-856.5 1538,-856.5 1538,-821.5 1329,-821.5"/>
<text text-anchor="start" x="1335.869" y="-834.3" font-family="Arial Bold" font-size="18.00" fill="#000000">registrations</text>
<text text-anchor="start" x="1433.8772" y="-834.3" font-family="Arial" font-size="14.00" fill="#000000"> </text>
<text text-anchor="start" x="1437.7678" y="-834.3" font-family="Arial" font-size="14.00" fill="#666666">[BASE TABLE]</text>
<polygon fill="none" stroke="#000000" points="1329,-791.5 1329,-821.5 1538,-821.5 1538,-791.5 1329,-791.5"/>
<text text-anchor="start" x="1336" y="-802.9" font-family="Arial" font-size="14.00" fill="#000000">course_id </text>
<text text-anchor="start" x="1400.5708" y="-802.9" font-family="Arial" font-size="14.00" fill="#666666">[char(36)]</text>
<polygon fill="none" stroke="#000000" points="1329,-761.5 1329,-791.5 1538,-791.5 1538,-761.5 1329,-761.5"/>
<text text-anchor="start" x="1336" y="-772.9" font-family="Arial" font-size="14.00" fill="#000000">user_id </text>
<text text-anchor="start" x="1385.7882" y="-772.9" font-family="Arial" font-size="14.00" fill="#666666">[char(36)]</text>
<polygon fill="none" stroke="#000000" points="1329,-731.5 1329,-761.5 1538,-761.5 1538,-731.5 1329,-731.5"/>
<text text-anchor="start" x="1336" y="-742.9" font-family="Arial" font-size="14.00" fill="#000000">created_at </text>
<text text-anchor="start" x="1406.028" y="-742.9" font-family="Arial" font-size="14.00" fill="#666666">[datetime(6)]</text>
<polygon fill="none" stroke="#000000" points="1329,-701.5 1329,-731.5 1538,-731.5 1538,-701.5 1329,-701.5"/>
<text text-anchor="start" x="1336" y="-712.9" font-family="Arial" font-size="14.00" fill="#000000">deleted_at </text>
<text text-anchor="start" x="1405.2566" y="-712.9" font-family="Arial" font-size="14.00" fill="#666666">[datetime(6)]</text>
</g>
<!-- registrations&#45;&gt;users -->
<g id="edge6" class="edge">
<title>registrations:user_id&#45;&gt;users:id</title>
<path fill="none" stroke="#000000" d="M1318.9258,-775.8385C1215.3431,-761.3733 1361.1018,-514.5 1242,-514.5"/>
<polygon fill="#000000" stroke="#000000" points="1319.0215,-775.8447 1328.7051,-780.9903 1324.0107,-776.1724 1329,-776.5 1329,-776.5 1329,-776.5 1324.0107,-776.1724 1329.2949,-772.0097 1319.0215,-775.8447 1319.0215,-775.8447"/>
<text text-anchor="start" x="1335.945" y="-786.5" font-family="Arial" font-size="10.00" fill="#000000">FOREIGN KEY (user_id) REFERENCES users (id)</text>
</g>
<!-- submissions -->
<g id="node8" class="node">
<title>submissions</title>
<polygon fill="#efefef" stroke="transparent" points="1642,-836.5 1642,-871.5 1852,-871.5 1852,-836.5 1642,-836.5"/>
<polygon fill="none" stroke="#000000" points="1642,-836.5 1642,-871.5 1852,-871.5 1852,-836.5 1642,-836.5"/>
<text text-anchor="start" x="1648.8704" y="-849.3" font-family="Arial Bold" font-size="18.00" fill="#000000">submissions</text>
<text text-anchor="start" x="1747.8758" y="-849.3" font-family="Arial" font-size="14.00" fill="#000000"> </text>
<text text-anchor="start" x="1751.7664" y="-849.3" font-family="Arial" font-size="14.00" fill="#666666">[BASE TABLE]</text>
<polygon fill="none" stroke="#000000" points="1642,-806.5 1642,-836.5 1852,-836.5 1852,-806.5 1642,-806.5"/>
<text text-anchor="start" x="1649" y="-817.9" font-family="Arial" font-size="14.00" fill="#000000">id </text>
<text text-anchor="start" x="1663.7798" y="-817.9" font-family="Arial" font-size="14.00" fill="#666666">[char(36)]</text>
<polygon fill="none" stroke="#000000" points="1642,-776.5 1642,-806.5 1852,-806.5 1852,-776.5 1642,-776.5"/>
<text text-anchor="start" x="1649" y="-787.9" font-family="Arial" font-size="14.00" fill="#000000">user_id </text>
<text text-anchor="start" x="1698.7882" y="-787.9" font-family="Arial" font-size="14.00" fill="#666666">[char(36)]</text>
<polygon fill="none" stroke="#000000" points="1642,-746.5 1642,-776.5 1852,-776.5 1852,-746.5 1642,-746.5"/>
<text text-anchor="start" x="1649" y="-757.9" font-family="Arial" font-size="14.00" fill="#000000">assignment_id </text>
<text text-anchor="start" x="1743.1332" y="-757.9" font-family="Arial" font-size="14.00" fill="#666666">[char(36)]</text>
<polygon fill="none" stroke="#000000" points="1642,-716.5 1642,-746.5 1852,-746.5 1852,-716.5 1642,-716.5"/>
<text text-anchor="start" x="1649" y="-727.9" font-family="Arial" font-size="14.00" fill="#000000">name </text>
<text text-anchor="start" x="1687.899" y="-727.9" font-family="Arial" font-size="14.00" fill="#666666">[varchar(255)]</text>
<polygon fill="none" stroke="#000000" points="1642,-686.5 1642,-716.5 1852,-716.5 1852,-686.5 1642,-686.5"/>
<text text-anchor="start" x="1649" y="-697.9" font-family="Arial" font-size="14.00" fill="#000000">created_at </text>
<text text-anchor="start" x="1719.028" y="-697.9" font-family="Arial" font-size="14.00" fill="#666666">[datetime(6)]</text>
</g>
<!-- submissions&#45;&gt;users -->
<g id="edge7" class="edge">
<title>submissions:user_id&#45;&gt;users:id</title>
<path fill="none" stroke="#000000" d="M1631.7729,-790.6453C1579.3904,-780.934 1636.0592,-690.8635 1590,-644 1474.3216,-526.3015 1407.0285,-514.5 1242,-514.5"/>
<polygon fill="#000000" stroke="#000000" points="1632.0347,-790.6671 1641.6252,-795.9844 1637.0174,-791.0836 1642,-791.5 1642,-791.5 1642,-791.5 1637.0174,-791.0836 1642.3748,-787.0156 1632.0347,-790.6671 1632.0347,-790.6671"/>
<text text-anchor="start" x="1588.945" y="-775.5" font-family="Arial" font-size="10.00" fill="#000000">FOREIGN KEY (user_id) REFERENCES users (id)</text>
</g>
</g>
</svg>
