<?xml version="1.0" encoding="UTF-8" standalone="no"?>
<!DOCTYPE svg PUBLIC "-//W3C//DTD SVG 1.1//EN"
 "http://www.w3.org/Graphics/SVG/1.1/DTD/svg11.dtd">
<!-- Generated by graphviz version 2.40.1 (20161225.0304)
 -->
<!-- Title: users Pages: 1 -->
<svg width="1549pt" height="616pt"
 viewBox="0.00 0.00 1548.50 616.00" xmlns="http://www.w3.org/2000/svg" xmlns:xlink="http://www.w3.org/1999/xlink">
<g id="graph0" class="graph" transform="scale(1 1) rotate(0) translate(4 612)">
<title>users</title>
<polygon fill="#ffffff" stroke="transparent" points="-4,4 -4,-612 1544.5,-612 1544.5,4 -4,4"/>
<!-- users -->
<g id="node1" class="node">
<title>users</title>
<polygon fill="#efefef" stroke="transparent" points="579,-207.5 579,-242.5 781,-242.5 781,-207.5 579,-207.5"/>
<polygon fill="none" stroke="#000000" points="579,-207.5 579,-242.5 781,-242.5 781,-207.5 579,-207.5"/>
<text text-anchor="start" x="609.3708" y="-220.3" font-family="Arial Bold" font-size="18.00" fill="#000000">users</text>
<text text-anchor="start" x="653.3754" y="-220.3" font-family="Arial" font-size="14.00" fill="#000000"> </text>
<text text-anchor="start" x="657.266" y="-220.3" font-family="Arial" font-size="14.00" fill="#666666">[BASE TABLE]</text>
<polygon fill="none" stroke="#000000" points="579,-177.5 579,-207.5 781,-207.5 781,-177.5 579,-177.5"/>
<text text-anchor="start" x="586" y="-188.9" font-family="Arial" font-size="14.00" fill="#000000">id </text>
<text text-anchor="start" x="600.7798" y="-188.9" font-family="Arial" font-size="14.00" fill="#666666">[char(36)]</text>
<polygon fill="none" stroke="#000000" points="579,-147.5 579,-177.5 781,-177.5 781,-147.5 579,-147.5"/>
<text text-anchor="start" x="586" y="-158.9" font-family="Arial" font-size="14.00" fill="#000000">name </text>
<text text-anchor="start" x="624.899" y="-158.9" font-family="Arial" font-size="14.00" fill="#666666">[varchar(255)]</text>
<polygon fill="none" stroke="#000000" points="579,-117.5 579,-147.5 781,-147.5 781,-117.5 579,-117.5"/>
<text text-anchor="start" x="586" y="-128.9" font-family="Arial" font-size="14.00" fill="#000000">mail_address </text>
<text text-anchor="start" x="673.1206" y="-128.9" font-family="Arial" font-size="14.00" fill="#666666">[varchar(255)]</text>
<polygon fill="none" stroke="#000000" points="579,-87.5 579,-117.5 781,-117.5 781,-87.5 579,-87.5"/>
<text text-anchor="start" x="585.8668" y="-98.9" font-family="Arial" font-size="14.00" fill="#000000">hashed_password </text>
<text text-anchor="start" x="703.3506" y="-98.9" font-family="Arial" font-size="14.00" fill="#666666">[binary(60)]</text>
<polygon fill="none" stroke="#000000" points="579,-57.5 579,-87.5 781,-87.5 781,-57.5 579,-57.5"/>
<text text-anchor="start" x="586" y="-68.9" font-family="Arial" font-size="14.00" fill="#000000">type </text>
<text text-anchor="start" x="616.3464" y="-68.9" font-family="Arial" font-size="14.00" fill="#666666">[enum(&#39;student&#39;,&#39;faculty&#39;)]</text>
<polygon fill="none" stroke="#000000" stroke-width="3" points="577.5,-56.5 577.5,-244.5 782.5,-244.5 782.5,-56.5 577.5,-56.5"/>
</g>
<!-- attendances -->
<g id="node2" class="node">
<title>attendances</title>
<polygon fill="#efefef" stroke="transparent" points="252,-499.5 252,-534.5 461,-534.5 461,-499.5 252,-499.5"/>
<polygon fill="none" stroke="#000000" points="252,-499.5 252,-534.5 461,-534.5 461,-499.5 252,-499.5"/>
<text text-anchor="start" x="258.8492" y="-512.3" font-family="Arial Bold" font-size="18.00" fill="#000000">attendances</text>
<text text-anchor="start" x="356.897" y="-512.3" font-family="Arial" font-size="14.00" fill="#000000"> </text>
<text text-anchor="start" x="360.7876" y="-512.3" font-family="Arial" font-size="14.00" fill="#666666">[BASE TABLE]</text>
<polygon fill="none" stroke="#000000" points="252,-469.5 252,-499.5 461,-499.5 461,-469.5 252,-469.5"/>
<text text-anchor="start" x="259" y="-480.9" font-family="Arial" font-size="14.00" fill="#000000">class_id </text>
<text text-anchor="start" x="313.4516" y="-480.9" font-family="Arial" font-size="14.00" fill="#666666">[char(36)]</text>
<polygon fill="none" stroke="#000000" points="252,-439.5 252,-469.5 461,-469.5 461,-439.5 252,-439.5"/>
<text text-anchor="start" x="259" y="-450.9" font-family="Arial" font-size="14.00" fill="#000000">user_id </text>
<text text-anchor="start" x="308.7882" y="-450.9" font-family="Arial" font-size="14.00" fill="#666666">[char(36)]</text>
<polygon fill="none" stroke="#000000" points="252,-409.5 252,-439.5 461,-439.5 461,-409.5 252,-409.5"/>
<text text-anchor="start" x="259" y="-420.9" font-family="Arial" font-size="14.00" fill="#000000">created_at </text>
<text text-anchor="start" x="329.028" y="-420.9" font-family="Arial" font-size="14.00" fill="#666666">[datetime(6)]</text>
</g>
<!-- attendances&#45;&gt;users -->
<g id="edge1" class="edge">
<title>attendances:user_id&#45;&gt;users:id</title>
<path fill="none" stroke="#000000" d="M471.0119,-453.7058C514.6462,-446.123 491.0904,-385.7278 513,-337 541.9537,-272.6057 508.3959,-192.5 579,-192.5"/>
<polygon fill="#000000" stroke="#000000" points="470.9687,-453.7092 460.6441,-450.0141 465.9843,-454.1046 461,-454.5 461,-454.5 461,-454.5 465.9843,-454.1046 461.3559,-458.9859 470.9687,-453.7092 470.9687,-453.7092"/>
<text text-anchor="start" x="467.945" y="-464.5" font-family="Arial" font-size="10.00" fill="#000000">FOREIGN KEY (user_id) REFERENCES users (id)</text>
</g>
<!-- classes -->
<g id="node3" class="node">
<title>classes</title>
<polygon fill="#efefef" stroke="transparent" points="271,-192.5 271,-227.5 442,-227.5 442,-192.5 271,-192.5"/>
<polygon fill="none" stroke="#000000" points="271,-192.5 271,-227.5 442,-227.5 442,-192.5 271,-192.5"/>
<text text-anchor="start" x="277.8698" y="-205.3" font-family="Arial Bold" font-size="18.00" fill="#000000">classes</text>
<text text-anchor="start" x="337.8764" y="-205.3" font-family="Arial" font-size="14.00" fill="#000000"> </text>
<text text-anchor="start" x="341.767" y="-205.3" font-family="Arial" font-size="14.00" fill="#666666">[BASE TABLE]</text>
<polygon fill="none" stroke="#000000" points="271,-162.5 271,-192.5 442,-192.5 442,-162.5 271,-162.5"/>
<text text-anchor="start" x="278" y="-173.9" font-family="Arial" font-size="14.00" fill="#000000">id </text>
<text text-anchor="start" x="292.7798" y="-173.9" font-family="Arial" font-size="14.00" fill="#666666">[char(36)]</text>
<polygon fill="none" stroke="#000000" points="271,-132.5 271,-162.5 442,-162.5 442,-132.5 271,-132.5"/>
<text text-anchor="start" x="278" y="-143.9" font-family="Arial" font-size="14.00" fill="#000000">title </text>
<text text-anchor="start" x="303.6676" y="-143.9" font-family="Arial" font-size="14.00" fill="#666666">[varchar(255)]</text>
<polygon fill="none" stroke="#000000" points="271,-102.5 271,-132.5 442,-132.5 442,-102.5 271,-102.5"/>
<text text-anchor="start" x="278" y="-113.9" font-family="Arial" font-size="14.00" fill="#000000">description </text>
<text text-anchor="start" x="349.568" y="-113.9" font-family="Arial" font-size="14.00" fill="#666666">[text]</text>
<polygon fill="none" stroke="#000000" points="271,-72.5 271,-102.5 442,-102.5 442,-72.5 271,-72.5"/>
<text text-anchor="start" x="278" y="-83.9" font-family="Arial" font-size="14.00" fill="#000000">attendance_code </text>
<text text-anchor="start" x="389.2804" y="-83.9" font-family="Arial" font-size="14.00" fill="#666666">[tinyint]</text>
</g>
<!-- attendances&#45;&gt;classes -->
<g id="edge2" class="edge">
<title>attendances:class_id&#45;&gt;classes:id</title>
<path fill="none" stroke="#000000" d="M242.2577,-482.2054C185.7042,-454.112 206.1183,-177.5 271,-177.5"/>
<polygon fill="#000000" stroke="#000000" points="242.2663,-482.2074 250.9683,-488.8801 247.1332,-483.3537 252,-484.5 252,-484.5 252,-484.5 247.1332,-483.3537 253.0317,-480.1199 242.2663,-482.2074 242.2663,-482.2074"/>
<text text-anchor="start" x="6.8345" y="-494.5" font-family="Arial" font-size="10.00" fill="#000000">FOREIGN KEY (class_id) REFERENCES classes (id)</text>
</g>
<!-- registrations -->
<g id="node4" class="node">
<title>registrations</title>
<polygon fill="#efefef" stroke="transparent" points="880,-514.5 880,-549.5 1089,-549.5 1089,-514.5 880,-514.5"/>
<polygon fill="none" stroke="#000000" points="880,-514.5 880,-549.5 1089,-549.5 1089,-514.5 880,-514.5"/>
<text text-anchor="start" x="886.869" y="-527.3" font-family="Arial Bold" font-size="18.00" fill="#000000">registrations</text>
<text text-anchor="start" x="984.8772" y="-527.3" font-family="Arial" font-size="14.00" fill="#000000"> </text>
<text text-anchor="start" x="988.7678" y="-527.3" font-family="Arial" font-size="14.00" fill="#666666">[BASE TABLE]</text>
<polygon fill="none" stroke="#000000" points="880,-484.5 880,-514.5 1089,-514.5 1089,-484.5 880,-484.5"/>
<text text-anchor="start" x="887" y="-495.9" font-family="Arial" font-size="14.00" fill="#000000">course_id </text>
<text text-anchor="start" x="951.5708" y="-495.9" font-family="Arial" font-size="14.00" fill="#666666">[char(36)]</text>
<polygon fill="none" stroke="#000000" points="880,-454.5 880,-484.5 1089,-484.5 1089,-454.5 880,-454.5"/>
<text text-anchor="start" x="887" y="-465.9" font-family="Arial" font-size="14.00" fill="#000000">user_id </text>
<text text-anchor="start" x="936.7882" y="-465.9" font-family="Arial" font-size="14.00" fill="#666666">[char(36)]</text>
<polygon fill="none" stroke="#000000" points="880,-424.5 880,-454.5 1089,-454.5 1089,-424.5 880,-424.5"/>
<text text-anchor="start" x="887" y="-435.9" font-family="Arial" font-size="14.00" fill="#000000">created_at </text>
<text text-anchor="start" x="957.028" y="-435.9" font-family="Arial" font-size="14.00" fill="#666666">[datetime(6)]</text>
<polygon fill="none" stroke="#000000" points="880,-394.5 880,-424.5 1089,-424.5 1089,-394.5 880,-394.5"/>
<text text-anchor="start" x="887" y="-405.9" font-family="Arial" font-size="14.00" fill="#000000">delete_at </text>
<text text-anchor="start" x="948.474" y="-405.9" font-family="Arial" font-size="14.00" fill="#666666">[datetime(6)]</text>
</g>
<!-- registrations&#45;&gt;users -->
<g id="edge3" class="edge">
<title>registrations:user_id&#45;&gt;users:id</title>
<path fill="none" stroke="#000000" d="M870.1149,-467.1053C817.812,-440.0316 842.794,-192.5 781,-192.5"/>
<polygon fill="#000000" stroke="#000000" points="870.2811,-467.1455 878.9405,-473.8735 875.1406,-468.3228 880,-469.5 880,-469.5 880,-469.5 875.1406,-468.3228 881.0595,-465.1265 870.2811,-467.1455 870.2811,-467.1455"/>
<text text-anchor="start" x="826.945" y="-453.5" font-family="Arial" font-size="10.00" fill="#000000">FOREIGN KEY (user_id) REFERENCES users (id)</text>
</g>
<!-- courses -->
<g id="node5" class="node">
<title>courses</title>
<polygon fill="#efefef" stroke="transparent" points="898,-222.5 898,-257.5 1072,-257.5 1072,-222.5 898,-222.5"/>
<polygon fill="none" stroke="#000000" points="898,-222.5 898,-257.5 1072,-257.5 1072,-222.5 898,-222.5"/>
<text text-anchor="start" x="904.8677" y="-235.3" font-family="Arial Bold" font-size="18.00" fill="#000000">courses</text>
<text text-anchor="start" x="967.8785" y="-235.3" font-family="Arial" font-size="14.00" fill="#000000"> </text>
<text text-anchor="start" x="971.7691" y="-235.3" font-family="Arial" font-size="14.00" fill="#666666">[BASE TABLE]</text>
<polygon fill="none" stroke="#000000" points="898,-192.5 898,-222.5 1072,-222.5 1072,-192.5 898,-192.5"/>
<text text-anchor="start" x="905" y="-203.9" font-family="Arial" font-size="14.00" fill="#000000">id </text>
<text text-anchor="start" x="919.7798" y="-203.9" font-family="Arial" font-size="14.00" fill="#666666">[char(36)]</text>
<polygon fill="none" stroke="#000000" points="898,-162.5 898,-192.5 1072,-192.5 1072,-162.5 898,-162.5"/>
<text text-anchor="start" x="905" y="-173.9" font-family="Arial" font-size="14.00" fill="#000000">name </text>
<text text-anchor="start" x="943.899" y="-173.9" font-family="Arial" font-size="14.00" fill="#666666">[varchar(255)]</text>
<polygon fill="none" stroke="#000000" points="898,-132.5 898,-162.5 1072,-162.5 1072,-132.5 898,-132.5"/>
<text text-anchor="start" x="905" y="-143.9" font-family="Arial" font-size="14.00" fill="#000000">description </text>
<text text-anchor="start" x="976.568" y="-143.9" font-family="Arial" font-size="14.00" fill="#666666">[text]</text>
<polygon fill="none" stroke="#000000" points="898,-102.5 898,-132.5 1072,-132.5 1072,-102.5 898,-102.5"/>
<text text-anchor="start" x="905" y="-113.9" font-family="Arial" font-size="14.00" fill="#000000">credit </text>
<text text-anchor="start" x="943.1136" y="-113.9" font-family="Arial" font-size="14.00" fill="#666666">[tinyint unsigned]</text>
<polygon fill="none" stroke="#000000" points="898,-72.5 898,-102.5 1072,-102.5 1072,-72.5 898,-72.5"/>
<text text-anchor="start" x="905" y="-83.9" font-family="Arial" font-size="14.00" fill="#000000">classroom </text>
<text text-anchor="start" x="972.6662" y="-83.9" font-family="Arial" font-size="14.00" fill="#666666">[varchar(255)]</text>
<polygon fill="none" stroke="#000000" points="898,-42.5 898,-72.5 1072,-72.5 1072,-42.5 898,-42.5"/>
<text text-anchor="start" x="905" y="-53.9" font-family="Arial" font-size="14.00" fill="#000000">capacity </text>
<text text-anchor="start" x="960.2356" y="-53.9" font-family="Arial" font-size="14.00" fill="#666666">[int unsigned]</text>
</g>
<!-- registrations&#45;&gt;courses -->
<g id="edge4" class="edge">
<title>registrations:course_id&#45;&gt;courses:id</title>
<path fill="none" stroke="#000000" d="M1099.2757,-498.606C1151.6068,-488.8203 1126.6687,-401.0465 1089,-352 1035.4821,-282.3169 951.5179,-370.6831 898,-301 872.6882,-268.0428 856.4444,-207.5 898,-207.5"/>
<polygon fill="#000000" stroke="#000000" points="1098.9624,-498.6332 1088.6099,-495.0169 1093.9812,-499.0666 1089,-499.5 1089,-499.5 1089,-499.5 1093.9812,-499.0666 1089.3901,-503.9831 1098.9624,-498.6332 1098.9624,-498.6332"/>
<text text-anchor="start" x="965.886" y="-483.5" font-family="Arial" font-size="10.00" fill="#000000">FOREIGN KEY (course_id) REFERENCES courses (id)</text>
</g>
<!-- submissions -->
<g id="node6" class="node">
<title>submissions</title>
<polygon fill="#efefef" stroke="transparent" points="565,-529.5 565,-564.5 775,-564.5 775,-529.5 565,-529.5"/>
<polygon fill="none" stroke="#000000" points="565,-529.5 565,-564.5 775,-564.5 775,-529.5 565,-529.5"/>
<text text-anchor="start" x="571.8704" y="-542.3" font-family="Arial Bold" font-size="18.00" fill="#000000">submissions</text>
<text text-anchor="start" x="670.8758" y="-542.3" font-family="Arial" font-size="14.00" fill="#000000"> </text>
<text text-anchor="start" x="674.7664" y="-542.3" font-family="Arial" font-size="14.00" fill="#666666">[BASE TABLE]</text>
<polygon fill="none" stroke="#000000" points="565,-499.5 565,-529.5 775,-529.5 775,-499.5 565,-499.5"/>
<text text-anchor="start" x="572" y="-510.9" font-family="Arial" font-size="14.00" fill="#000000">id </text>
<text text-anchor="start" x="586.7798" y="-510.9" font-family="Arial" font-size="14.00" fill="#666666">[char(36)]</text>
<polygon fill="none" stroke="#000000" points="565,-469.5 565,-499.5 775,-499.5 775,-469.5 565,-469.5"/>
<text text-anchor="start" x="572" y="-480.9" font-family="Arial" font-size="14.00" fill="#000000">user_id </text>
<text text-anchor="start" x="621.7882" y="-480.9" font-family="Arial" font-size="14.00" fill="#666666">[char(36)]</text>
<polygon fill="none" stroke="#000000" points="565,-439.5 565,-469.5 775,-469.5 775,-439.5 565,-439.5"/>
<text text-anchor="start" x="572" y="-450.9" font-family="Arial" font-size="14.00" fill="#000000">assignment_id </text>
<text text-anchor="start" x="666.1332" y="-450.9" font-family="Arial" font-size="14.00" fill="#666666">[char(36)]</text>
<polygon fill="none" stroke="#000000" points="565,-409.5 565,-439.5 775,-439.5 775,-409.5 565,-409.5"/>
<text text-anchor="start" x="572" y="-420.9" font-family="Arial" font-size="14.00" fill="#000000">name </text>
<text text-anchor="start" x="610.899" y="-420.9" font-family="Arial" font-size="14.00" fill="#666666">[varchar(255)]</text>
<polygon fill="none" stroke="#000000" points="565,-379.5 565,-409.5 775,-409.5 775,-379.5 565,-379.5"/>
<text text-anchor="start" x="572" y="-390.9" font-family="Arial" font-size="14.00" fill="#000000">created_at </text>
<text text-anchor="start" x="642.028" y="-390.9" font-family="Arial" font-size="14.00" fill="#666666">[datetime(6)]</text>
</g>
<!-- submissions&#45;&gt;users -->
<g id="edge5" class="edge">
<title>submissions:user_id&#45;&gt;users:id</title>
<path fill="none" stroke="#000000" d="M785.2806,-483.6023C837.6642,-473.7757 813.1757,-385.6529 775,-337 719.6368,-266.4424 634.3632,-359.5576 579,-289 552.5245,-255.2583 536.1111,-192.5 579,-192.5"/>
<polygon fill="#000000" stroke="#000000" points="784.9621,-483.63 774.6085,-480.0171 779.981,-484.065 775,-484.5 775,-484.5 775,-484.5 779.981,-484.065 775.3915,-488.9829 784.9621,-483.63 784.9621,-483.63"/>
<text text-anchor="start" x="541.945" y="-494.5" font-family="Arial" font-size="10.00" fill="#000000">FOREIGN KEY (user_id) REFERENCES users (id)</text>
</g>
<!-- unread_announcements -->
<g id="node7" class="node">
<title>unread_announcements</title>
<polygon fill="#efefef" stroke="transparent" points="1193,-514.5 1193,-549.5 1498,-549.5 1498,-514.5 1193,-514.5"/>
<polygon fill="none" stroke="#000000" points="1193,-514.5 1193,-549.5 1498,-549.5 1498,-514.5 1193,-514.5"/>
<text text-anchor="start" x="1199.8333" y="-527.3" font-family="Arial Bold" font-size="18.00" fill="#000000">unread_announcements</text>
<text text-anchor="start" x="1393.9129" y="-527.3" font-family="Arial" font-size="14.00" fill="#000000"> </text>
<text text-anchor="start" x="1397.8035" y="-527.3" font-family="Arial" font-size="14.00" fill="#666666">[BASE TABLE]</text>
<polygon fill="none" stroke="#000000" points="1193,-484.5 1193,-514.5 1498,-514.5 1498,-484.5 1193,-484.5"/>
<text text-anchor="start" x="1200" y="-495.9" font-family="Arial" font-size="14.00" fill="#000000">announcement_id </text>
<text text-anchor="start" x="1315.157" y="-495.9" font-family="Arial" font-size="14.00" fill="#666666">[char(36)]</text>
<polygon fill="none" stroke="#000000" points="1193,-454.5 1193,-484.5 1498,-484.5 1498,-454.5 1193,-454.5"/>
<text text-anchor="start" x="1200" y="-465.9" font-family="Arial" font-size="14.00" fill="#000000">user_id </text>
<text text-anchor="start" x="1249.7882" y="-465.9" font-family="Arial" font-size="14.00" fill="#666666">[char(36)]</text>
<polygon fill="none" stroke="#000000" points="1193,-424.5 1193,-454.5 1498,-454.5 1498,-424.5 1193,-424.5"/>
<text text-anchor="start" x="1200" y="-435.9" font-family="Arial" font-size="14.00" fill="#000000">created_at </text>
<text text-anchor="start" x="1270.028" y="-435.9" font-family="Arial" font-size="14.00" fill="#666666">[datetime(6)]</text>
<polygon fill="none" stroke="#000000" points="1193,-394.5 1193,-424.5 1498,-424.5 1498,-394.5 1193,-394.5"/>
<text text-anchor="start" x="1200" y="-405.9" font-family="Arial" font-size="14.00" fill="#000000">delete_at </text>
<text text-anchor="start" x="1261.474" y="-405.9" font-family="Arial" font-size="14.00" fill="#666666">[datetime(6)]</text>
</g>
<!-- unread_announcements&#45;&gt;users -->
<g id="edge6" class="edge">
<title>unread_announcements:user_id&#45;&gt;users:id</title>
<path fill="none" stroke="#000000" d="M1182.8264,-468.5019C1136.7501,-458.3483 1187.9822,-373.3971 1141,-337 1036.5839,-256.1087 956.7542,-372.9696 846,-301 798.8642,-270.3705 837.2134,-192.5 781,-192.5"/>
<polygon fill="#000000" stroke="#000000" points="1183.0478,-468.5235 1192.5606,-473.9785 1188.0239,-469.0118 1193,-469.5 1193,-469.5 1193,-469.5 1188.0239,-469.0118 1193.4394,-465.0215 1183.0478,-468.5235 1183.0478,-468.5235"/>
<text text-anchor="start" x="1139.945" y="-453.5" font-family="Arial" font-size="10.00" fill="#000000">FOREIGN KEY (user_id) REFERENCES users (id)</text>
</g>
<!-- announcements -->
<g id="node8" class="node">
<title>announcements</title>
<polygon fill="#efefef" stroke="transparent" points="1226,-207.5 1226,-242.5 1465,-242.5 1465,-207.5 1226,-207.5"/>
<polygon fill="none" stroke="#000000" points="1226,-207.5 1226,-242.5 1465,-242.5 1465,-207.5 1226,-207.5"/>
<text text-anchor="start" x="1232.848" y="-220.3" font-family="Arial Bold" font-size="18.00" fill="#000000">announcements</text>
<text text-anchor="start" x="1360.8982" y="-220.3" font-family="Arial" font-size="14.00" fill="#000000"> </text>
<text text-anchor="start" x="1364.7888" y="-220.3" font-family="Arial" font-size="14.00" fill="#666666">[BASE TABLE]</text>
<polygon fill="none" stroke="#000000" points="1226,-177.5 1226,-207.5 1465,-207.5 1465,-177.5 1226,-177.5"/>
<text text-anchor="start" x="1233" y="-188.9" font-family="Arial" font-size="14.00" fill="#000000">id </text>
<text text-anchor="start" x="1247.7798" y="-188.9" font-family="Arial" font-size="14.00" fill="#666666">[char(36)]</text>
<polygon fill="none" stroke="#000000" points="1226,-147.5 1226,-177.5 1465,-177.5 1465,-147.5 1226,-147.5"/>
<text text-anchor="start" x="1233" y="-158.9" font-family="Arial" font-size="14.00" fill="#000000">course_id </text>
<text text-anchor="start" x="1297.5708" y="-158.9" font-family="Arial" font-size="14.00" fill="#666666">[char(36)]</text>
<polygon fill="none" stroke="#000000" points="1226,-117.5 1226,-147.5 1465,-147.5 1465,-117.5 1226,-117.5"/>
<text text-anchor="start" x="1233" y="-128.9" font-family="Arial" font-size="14.00" fill="#000000">title </text>
<text text-anchor="start" x="1258.6676" y="-128.9" font-family="Arial" font-size="14.00" fill="#666666">[varchar(255)]</text>
<polygon fill="none" stroke="#000000" points="1226,-87.5 1226,-117.5 1465,-117.5 1465,-87.5 1226,-87.5"/>
<text text-anchor="start" x="1233" y="-98.9" font-family="Arial" font-size="14.00" fill="#000000">message </text>
<text text-anchor="start" x="1293.6816" y="-98.9" font-family="Arial" font-size="14.00" fill="#666666">[text]</text>
<polygon fill="none" stroke="#000000" points="1226,-57.5 1226,-87.5 1465,-87.5 1465,-57.5 1226,-57.5"/>
<text text-anchor="start" x="1233" y="-68.9" font-family="Arial" font-size="14.00" fill="#000000">created_at </text>
<text text-anchor="start" x="1303.028" y="-68.9" font-family="Arial" font-size="14.00" fill="#666666">[datetime(6)]</text>
</g>
<!-- unread_announcements&#45;&gt;announcements -->
<g id="edge7" class="edge">
<title>unread_announcements:announcement_id&#45;&gt;announcements:id</title>
<path fill="none" stroke="#000000" d="M1182.9829,-497.0288C1127.9643,-467.9748 1161.0032,-192.5 1226,-192.5"/>
<polygon fill="#000000" stroke="#000000" points="1183.2911,-497.1048 1191.9221,-503.869 1188.1455,-498.3024 1193,-499.5 1193,-499.5 1193,-499.5 1188.1455,-498.3024 1194.0779,-495.131 1183.2911,-497.1048 1183.2911,-497.1048"/>
<text text-anchor="start" x="867.253" y="-509.5" font-family="Arial" font-size="10.00" fill="#000000">FOREIGN KEY (announcement_id) REFERENCES announcements (id)</text>
</g>
</g>
</svg>
