<?xml version="1.0" encoding="UTF-8" standalone="no"?>
<!DOCTYPE svg PUBLIC "-//W3C//DTD SVG 1.1//EN"
 "http://www.w3.org/Graphics/SVG/1.1/DTD/svg11.dtd">
<!-- Generated by graphviz version 2.40.1 (20161225.0304)
 -->
<!-- Title: users Pages: 1 -->
<svg width="1620pt" height="616pt"
 viewBox="0.00 0.00 1619.50 616.00" xmlns="http://www.w3.org/2000/svg" xmlns:xlink="http://www.w3.org/1999/xlink">
<g id="graph0" class="graph" transform="scale(1 1) rotate(0) translate(4 612)">
<title>users</title>
<polygon fill="#ffffff" stroke="transparent" points="-4,4 -4,-612 1615.5,-612 1615.5,4 -4,4"/>
<!-- users -->
<g id="node1" class="node">
<title>users</title>
<polygon fill="#efefef" stroke="transparent" points="663,-207.5 663,-242.5 865,-242.5 865,-207.5 663,-207.5"/>
<polygon fill="none" stroke="#000000" points="663,-207.5 663,-242.5 865,-242.5 865,-207.5 663,-207.5"/>
<text text-anchor="start" x="693.3708" y="-220.3" font-family="Arial Bold" font-size="18.00" fill="#000000">users</text>
<text text-anchor="start" x="737.3754" y="-220.3" font-family="Arial" font-size="14.00" fill="#000000"> </text>
<text text-anchor="start" x="741.266" y="-220.3" font-family="Arial" font-size="14.00" fill="#666666">[BASE TABLE]</text>
<polygon fill="none" stroke="#000000" points="663,-177.5 663,-207.5 865,-207.5 865,-177.5 663,-177.5"/>
<text text-anchor="start" x="670" y="-188.9" font-family="Arial" font-size="14.00" fill="#000000">id </text>
<text text-anchor="start" x="684.7798" y="-188.9" font-family="Arial" font-size="14.00" fill="#666666">[char(36)]</text>
<polygon fill="none" stroke="#000000" points="663,-147.5 663,-177.5 865,-177.5 865,-147.5 663,-147.5"/>
<text text-anchor="start" x="670" y="-158.9" font-family="Arial" font-size="14.00" fill="#000000">name </text>
<text text-anchor="start" x="708.899" y="-158.9" font-family="Arial" font-size="14.00" fill="#666666">[varchar(255)]</text>
<polygon fill="none" stroke="#000000" points="663,-117.5 663,-147.5 865,-147.5 865,-117.5 663,-117.5"/>
<text text-anchor="start" x="670" y="-128.9" font-family="Arial" font-size="14.00" fill="#000000">mail_address </text>
<text text-anchor="start" x="757.1206" y="-128.9" font-family="Arial" font-size="14.00" fill="#666666">[varchar(255)]</text>
<polygon fill="none" stroke="#000000" points="663,-87.5 663,-117.5 865,-117.5 865,-87.5 663,-87.5"/>
<text text-anchor="start" x="669.8668" y="-98.9" font-family="Arial" font-size="14.00" fill="#000000">hashed_password </text>
<text text-anchor="start" x="787.3506" y="-98.9" font-family="Arial" font-size="14.00" fill="#666666">[binary(60)]</text>
<polygon fill="none" stroke="#000000" points="663,-57.5 663,-87.5 865,-87.5 865,-57.5 663,-57.5"/>
<text text-anchor="start" x="670" y="-68.9" font-family="Arial" font-size="14.00" fill="#000000">type </text>
<text text-anchor="start" x="700.3464" y="-68.9" font-family="Arial" font-size="14.00" fill="#666666">[enum(&#39;student&#39;,&#39;faculty&#39;)]</text>
<polygon fill="none" stroke="#000000" stroke-width="3" points="661.5,-56.5 661.5,-244.5 866.5,-244.5 866.5,-56.5 661.5,-56.5"/>
</g>
<!-- attendances -->
<g id="node2" class="node">
<title>attendances</title>
<polygon fill="#efefef" stroke="transparent" points="53,-499.5 53,-534.5 262,-534.5 262,-499.5 53,-499.5"/>
<polygon fill="none" stroke="#000000" points="53,-499.5 53,-534.5 262,-534.5 262,-499.5 53,-499.5"/>
<text text-anchor="start" x="59.8492" y="-512.3" font-family="Arial Bold" font-size="18.00" fill="#000000">attendances</text>
<text text-anchor="start" x="157.897" y="-512.3" font-family="Arial" font-size="14.00" fill="#000000"> </text>
<text text-anchor="start" x="161.7876" y="-512.3" font-family="Arial" font-size="14.00" fill="#666666">[BASE TABLE]</text>
<polygon fill="none" stroke="#000000" points="53,-469.5 53,-499.5 262,-499.5 262,-469.5 53,-469.5"/>
<text text-anchor="start" x="60" y="-480.9" font-family="Arial" font-size="14.00" fill="#000000">class_id </text>
<text text-anchor="start" x="114.4516" y="-480.9" font-family="Arial" font-size="14.00" fill="#666666">[char(36)]</text>
<polygon fill="none" stroke="#000000" points="53,-439.5 53,-469.5 262,-469.5 262,-439.5 53,-439.5"/>
<text text-anchor="start" x="60" y="-450.9" font-family="Arial" font-size="14.00" fill="#000000">user_id </text>
<text text-anchor="start" x="109.7882" y="-450.9" font-family="Arial" font-size="14.00" fill="#666666">[char(36)]</text>
<polygon fill="none" stroke="#000000" points="53,-409.5 53,-439.5 262,-439.5 262,-409.5 53,-409.5"/>
<text text-anchor="start" x="60" y="-420.9" font-family="Arial" font-size="14.00" fill="#000000">created_at </text>
<text text-anchor="start" x="130.028" y="-420.9" font-family="Arial" font-size="14.00" fill="#666666">[datetime(6)]</text>
</g>
<!-- attendances&#45;&gt;users -->
<g id="edge1" class="edge">
<title>attendances:user_id&#45;&gt;users:id</title>
<path fill="none" stroke="#000000" d="M271.9665,-453.435C312.5118,-443.6359 270.4129,-368.7983 313,-337 418.8363,-257.9759 499.854,-376.8325 608,-301 652.2659,-269.9606 608.936,-192.5 663,-192.5"/>
<polygon fill="#000000" stroke="#000000" points="271.9434,-453.4374 261.5218,-450.0255 266.9717,-453.9687 262,-454.5 262,-454.5 262,-454.5 266.9717,-453.9687 262.4782,-458.9745 271.9434,-453.4374 271.9434,-453.4374"/>
<text text-anchor="start" x="148.945" y="-438.5" font-family="Arial" font-size="10.00" fill="#000000">FOREIGN KEY (user_id) REFERENCES users (id)</text>
</g>
<!-- classes -->
<g id="node3" class="node">
<title>classes</title>
<polygon fill="#efefef" stroke="transparent" points="43,-207.5 43,-242.5 273,-242.5 273,-207.5 43,-207.5"/>
<polygon fill="none" stroke="#000000" points="43,-207.5 43,-242.5 273,-242.5 273,-207.5 43,-207.5"/>
<text text-anchor="start" x="79.3698" y="-220.3" font-family="Arial Bold" font-size="18.00" fill="#000000">classes</text>
<text text-anchor="start" x="139.3764" y="-220.3" font-family="Arial" font-size="14.00" fill="#000000"> </text>
<text text-anchor="start" x="143.267" y="-220.3" font-family="Arial" font-size="14.00" fill="#666666">[BASE TABLE]</text>
<polygon fill="none" stroke="#000000" points="43,-177.5 43,-207.5 273,-207.5 273,-177.5 43,-177.5"/>
<text text-anchor="start" x="50" y="-188.9" font-family="Arial" font-size="14.00" fill="#000000">id </text>
<text text-anchor="start" x="64.7798" y="-188.9" font-family="Arial" font-size="14.00" fill="#666666">[char(36)]</text>
<polygon fill="none" stroke="#000000" points="43,-147.5 43,-177.5 273,-177.5 273,-147.5 43,-147.5"/>
<text text-anchor="start" x="50" y="-158.9" font-family="Arial" font-size="14.00" fill="#000000">course_id </text>
<text text-anchor="start" x="114.5708" y="-158.9" font-family="Arial" font-size="14.00" fill="#666666">[char(36)]</text>
<polygon fill="none" stroke="#000000" points="43,-117.5 43,-147.5 273,-147.5 273,-117.5 43,-117.5"/>
<text text-anchor="start" x="50" y="-128.9" font-family="Arial" font-size="14.00" fill="#000000">title </text>
<text text-anchor="start" x="75.6676" y="-128.9" font-family="Arial" font-size="14.00" fill="#666666">[varchar(255)]</text>
<polygon fill="none" stroke="#000000" points="43,-87.5 43,-117.5 273,-117.5 273,-87.5 43,-87.5"/>
<text text-anchor="start" x="50" y="-98.9" font-family="Arial" font-size="14.00" fill="#000000">description </text>
<text text-anchor="start" x="121.568" y="-98.9" font-family="Arial" font-size="14.00" fill="#666666">[text]</text>
<polygon fill="none" stroke="#000000" points="43,-57.5 43,-87.5 273,-87.5 273,-57.5 43,-57.5"/>
<text text-anchor="start" x="49.843" y="-68.9" font-family="Arial" font-size="14.00" fill="#000000">attendance_code </text>
<text text-anchor="start" x="161.1234" y="-68.9" font-family="Arial" font-size="14.00" fill="#666666">[tinyint unsigned]</text>
</g>
<!-- attendances&#45;&gt;classes -->
<g id="edge2" class="edge">
<title>attendances:class_id&#45;&gt;classes:id</title>
<path fill="none" stroke="#000000" d="M272.4222,-483.31C310.8591,-473.5951 289.6274,-406.6749 262,-367 202.6966,-281.8361 102.3034,-371.1639 43,-286 19.2532,-251.8979 1.4444,-192.5 43,-192.5"/>
<polygon fill="#000000" stroke="#000000" points="271.9354,-483.3655 261.4895,-480.029 266.9677,-483.9327 262,-484.5 262,-484.5 262,-484.5 266.9677,-483.9327 262.5105,-488.971 271.9354,-483.3655 271.9354,-483.3655"/>
<text text-anchor="start" x="142.8345" y="-468.5" font-family="Arial" font-size="10.00" fill="#000000">FOREIGN KEY (class_id) REFERENCES classes (id)</text>
</g>
<!-- grades -->
<g id="node4" class="node">
<title>grades</title>
<polygon fill="#efefef" stroke="transparent" points="679,-514.5 679,-549.5 845,-549.5 845,-514.5 679,-514.5"/>
<polygon fill="none" stroke="#000000" points="679,-514.5 679,-549.5 845,-549.5 845,-514.5 679,-514.5"/>
<text text-anchor="start" x="685.8646" y="-527.3" font-family="Arial Bold" font-size="18.00" fill="#000000">grades</text>
<text text-anchor="start" x="740.8816" y="-527.3" font-family="Arial" font-size="14.00" fill="#000000"> </text>
<text text-anchor="start" x="744.7722" y="-527.3" font-family="Arial" font-size="14.00" fill="#666666">[BASE TABLE]</text>
<polygon fill="none" stroke="#000000" points="679,-484.5 679,-514.5 845,-514.5 845,-484.5 679,-484.5"/>
<text text-anchor="start" x="686" y="-495.9" font-family="Arial" font-size="14.00" fill="#000000">id </text>
<text text-anchor="start" x="700.7798" y="-495.9" font-family="Arial" font-size="14.00" fill="#666666">[char(36)]</text>
<polygon fill="none" stroke="#000000" points="679,-454.5 679,-484.5 845,-484.5 845,-454.5 679,-454.5"/>
<text text-anchor="start" x="686" y="-465.9" font-family="Arial" font-size="14.00" fill="#000000">user_id </text>
<text text-anchor="start" x="735.7882" y="-465.9" font-family="Arial" font-size="14.00" fill="#666666">[char(36)]</text>
<polygon fill="none" stroke="#000000" points="679,-424.5 679,-454.5 845,-454.5 845,-424.5 679,-424.5"/>
<text text-anchor="start" x="686" y="-435.9" font-family="Arial" font-size="14.00" fill="#000000">course_id </text>
<text text-anchor="start" x="750.5708" y="-435.9" font-family="Arial" font-size="14.00" fill="#666666">[char(36)]</text>
<polygon fill="none" stroke="#000000" points="679,-394.5 679,-424.5 845,-424.5 845,-394.5 679,-394.5"/>
<text text-anchor="start" x="686" y="-405.9" font-family="Arial" font-size="14.00" fill="#000000">grade </text>
<text text-anchor="start" x="725.6816" y="-405.9" font-family="Arial" font-size="14.00" fill="#666666">[int unsigned]</text>
</g>
<!-- grades&#45;&gt;users -->
<g id="edge3" class="edge">
<title>grades:user_id&#45;&gt;users:id</title>
<path fill="none" stroke="#000000" d="M855.4291,-468.3052C893.9207,-458.5517 873.0427,-391.3824 845,-352 795.3499,-282.2728 712.6501,-358.7272 663,-289 638.1228,-254.0632 620.1111,-192.5 663,-192.5"/>
<polygon fill="#000000" stroke="#000000" points="854.935,-468.3617 844.4878,-465.0292 849.9675,-468.9308 845,-469.5 845,-469.5 845,-469.5 849.9675,-468.9308 845.5122,-473.9708 854.935,-468.3617 854.935,-468.3617"/>
<text text-anchor="start" x="611.945" y="-479.5" font-family="Arial" font-size="10.00" fill="#000000">FOREIGN KEY (user_id) REFERENCES users (id)</text>
</g>
<!-- courses -->
<g id="node5" class="node">
<title>courses</title>
<polygon fill="#efefef" stroke="transparent" points="382,-222.5 382,-257.5 556,-257.5 556,-222.5 382,-222.5"/>
<polygon fill="none" stroke="#000000" points="382,-222.5 382,-257.5 556,-257.5 556,-222.5 382,-222.5"/>
<text text-anchor="start" x="388.8677" y="-235.3" font-family="Arial Bold" font-size="18.00" fill="#000000">courses</text>
<text text-anchor="start" x="451.8785" y="-235.3" font-family="Arial" font-size="14.00" fill="#000000"> </text>
<text text-anchor="start" x="455.7691" y="-235.3" font-family="Arial" font-size="14.00" fill="#666666">[BASE TABLE]</text>
<polygon fill="none" stroke="#000000" points="382,-192.5 382,-222.5 556,-222.5 556,-192.5 382,-192.5"/>
<text text-anchor="start" x="389" y="-203.9" font-family="Arial" font-size="14.00" fill="#000000">id </text>
<text text-anchor="start" x="403.7798" y="-203.9" font-family="Arial" font-size="14.00" fill="#666666">[char(36)]</text>
<polygon fill="none" stroke="#000000" points="382,-162.5 382,-192.5 556,-192.5 556,-162.5 382,-162.5"/>
<text text-anchor="start" x="389" y="-173.9" font-family="Arial" font-size="14.00" fill="#000000">name </text>
<text text-anchor="start" x="427.899" y="-173.9" font-family="Arial" font-size="14.00" fill="#666666">[varchar(255)]</text>
<polygon fill="none" stroke="#000000" points="382,-132.5 382,-162.5 556,-162.5 556,-132.5 382,-132.5"/>
<text text-anchor="start" x="389" y="-143.9" font-family="Arial" font-size="14.00" fill="#000000">description </text>
<text text-anchor="start" x="460.568" y="-143.9" font-family="Arial" font-size="14.00" fill="#666666">[text]</text>
<polygon fill="none" stroke="#000000" points="382,-102.5 382,-132.5 556,-132.5 556,-102.5 382,-102.5"/>
<text text-anchor="start" x="389" y="-113.9" font-family="Arial" font-size="14.00" fill="#000000">credit </text>
<text text-anchor="start" x="427.1136" y="-113.9" font-family="Arial" font-size="14.00" fill="#666666">[tinyint unsigned]</text>
<polygon fill="none" stroke="#000000" points="382,-72.5 382,-102.5 556,-102.5 556,-72.5 382,-72.5"/>
<text text-anchor="start" x="389" y="-83.9" font-family="Arial" font-size="14.00" fill="#000000">classroom </text>
<text text-anchor="start" x="456.6662" y="-83.9" font-family="Arial" font-size="14.00" fill="#666666">[varchar(255)]</text>
<polygon fill="none" stroke="#000000" points="382,-42.5 382,-72.5 556,-72.5 556,-42.5 382,-42.5"/>
<text text-anchor="start" x="389" y="-53.9" font-family="Arial" font-size="14.00" fill="#000000">capacity </text>
<text text-anchor="start" x="444.2356" y="-53.9" font-family="Arial" font-size="14.00" fill="#666666">[int unsigned]</text>
</g>
<!-- grades&#45;&gt;courses -->
<g id="edge4" class="edge">
<title>grades:course_id&#45;&gt;courses:id</title>
<path fill="none" stroke="#000000" d="M668.7474,-438.5836C630.764,-431.0801 648.1931,-378.9727 626,-337 624.0886,-333.3851 560.0891,-207.5 556,-207.5"/>
<polygon fill="#000000" stroke="#000000" points="669.0397,-438.6096 678.5993,-443.9821 674.0199,-439.0548 679,-439.5 679,-439.5 679,-439.5 674.0199,-439.0548 679.4007,-435.0179 669.0397,-438.6096 669.0397,-438.6096"/>
<text text-anchor="start" x="490.636" y="-423.5" font-family="Arial" font-size="10.00" fill="#000000">FOREIGN KEY (course_id) REFERENCES courses (id)</text>
</g>
<!-- registrations -->
<g id="node6" class="node">
<title>registrations</title>
<polygon fill="#efefef" stroke="transparent" points="366,-514.5 366,-549.5 575,-549.5 575,-514.5 366,-514.5"/>
<polygon fill="none" stroke="#000000" points="366,-514.5 366,-549.5 575,-549.5 575,-514.5 366,-514.5"/>
<text text-anchor="start" x="372.869" y="-527.3" font-family="Arial Bold" font-size="18.00" fill="#000000">registrations</text>
<text text-anchor="start" x="470.8772" y="-527.3" font-family="Arial" font-size="14.00" fill="#000000"> </text>
<text text-anchor="start" x="474.7678" y="-527.3" font-family="Arial" font-size="14.00" fill="#666666">[BASE TABLE]</text>
<polygon fill="none" stroke="#000000" points="366,-484.5 366,-514.5 575,-514.5 575,-484.5 366,-484.5"/>
<text text-anchor="start" x="373" y="-495.9" font-family="Arial" font-size="14.00" fill="#000000">course_id </text>
<text text-anchor="start" x="437.5708" y="-495.9" font-family="Arial" font-size="14.00" fill="#666666">[char(36)]</text>
<polygon fill="none" stroke="#000000" points="366,-454.5 366,-484.5 575,-484.5 575,-454.5 366,-454.5"/>
<text text-anchor="start" x="373" y="-465.9" font-family="Arial" font-size="14.00" fill="#000000">user_id </text>
<text text-anchor="start" x="422.7882" y="-465.9" font-family="Arial" font-size="14.00" fill="#666666">[char(36)]</text>
<polygon fill="none" stroke="#000000" points="366,-424.5 366,-454.5 575,-454.5 575,-424.5 366,-424.5"/>
<text text-anchor="start" x="373" y="-435.9" font-family="Arial" font-size="14.00" fill="#000000">created_at </text>
<text text-anchor="start" x="443.028" y="-435.9" font-family="Arial" font-size="14.00" fill="#666666">[datetime(6)]</text>
<polygon fill="none" stroke="#000000" points="366,-394.5 366,-424.5 575,-424.5 575,-394.5 366,-394.5"/>
<text text-anchor="start" x="373" y="-405.9" font-family="Arial" font-size="14.00" fill="#000000">delete_at </text>
<text text-anchor="start" x="434.474" y="-405.9" font-family="Arial" font-size="14.00" fill="#666666">[datetime(6)]</text>
</g>
<!-- registrations&#45;&gt;users -->
<g id="edge5" class="edge">
<title>registrations:user_id&#45;&gt;users:id</title>
<path fill="none" stroke="#000000" d="M585.2677,-468.8461C694.766,-454.0327 537.4839,-192.5 663,-192.5"/>
<polygon fill="#000000" stroke="#000000" points="584.9798,-468.8643 574.714,-465.0091 579.9899,-469.1822 575,-469.5 575,-469.5 575,-469.5 579.9899,-469.1822 575.286,-473.9909 584.9798,-468.8643 584.9798,-468.8643"/>
<text text-anchor="start" x="581.945" y="-453.5" font-family="Arial" font-size="10.00" fill="#000000">FOREIGN KEY (user_id) REFERENCES users (id)</text>
</g>
<!-- registrations&#45;&gt;courses -->
<g id="edge6" class="edge">
<title>registrations:course_id&#45;&gt;courses:id</title>
<path fill="none" stroke="#000000" d="M355.7246,-498.6063C303.3968,-488.8231 328.3635,-401.0712 366,-352 419.211,-282.6225 502.789,-370.3775 556,-301 581.2902,-268.0262 597.5556,-207.5 556,-207.5"/>
<polygon fill="#000000" stroke="#000000" points="356.0376,-498.6334 365.61,-503.9831 361.0188,-499.0667 366,-499.5 366,-499.5 366,-499.5 361.0188,-499.0667 366.39,-495.0169 356.0376,-498.6334 356.0376,-498.6334"/>
<text text-anchor="start" x="112.386" y="-509.5" font-family="Arial" font-size="10.00" fill="#000000">FOREIGN KEY (course_id) REFERENCES courses (id)</text>
</g>
<!-- submissions -->
<g id="node7" class="node">
<title>submissions</title>
<polygon fill="#efefef" stroke="transparent" points="949,-529.5 949,-564.5 1159,-564.5 1159,-529.5 949,-529.5"/>
<polygon fill="none" stroke="#000000" points="949,-529.5 949,-564.5 1159,-564.5 1159,-529.5 949,-529.5"/>
<text text-anchor="start" x="955.8704" y="-542.3" font-family="Arial Bold" font-size="18.00" fill="#000000">submissions</text>
<text text-anchor="start" x="1054.8758" y="-542.3" font-family="Arial" font-size="14.00" fill="#000000"> </text>
<text text-anchor="start" x="1058.7664" y="-542.3" font-family="Arial" font-size="14.00" fill="#666666">[BASE TABLE]</text>
<polygon fill="none" stroke="#000000" points="949,-499.5 949,-529.5 1159,-529.5 1159,-499.5 949,-499.5"/>
<text text-anchor="start" x="956" y="-510.9" font-family="Arial" font-size="14.00" fill="#000000">id </text>
<text text-anchor="start" x="970.7798" y="-510.9" font-family="Arial" font-size="14.00" fill="#666666">[char(36)]</text>
<polygon fill="none" stroke="#000000" points="949,-469.5 949,-499.5 1159,-499.5 1159,-469.5 949,-469.5"/>
<text text-anchor="start" x="956" y="-480.9" font-family="Arial" font-size="14.00" fill="#000000">user_id </text>
<text text-anchor="start" x="1005.7882" y="-480.9" font-family="Arial" font-size="14.00" fill="#666666">[char(36)]</text>
<polygon fill="none" stroke="#000000" points="949,-439.5 949,-469.5 1159,-469.5 1159,-439.5 949,-439.5"/>
<text text-anchor="start" x="956" y="-450.9" font-family="Arial" font-size="14.00" fill="#000000">assignment_id </text>
<text text-anchor="start" x="1050.1332" y="-450.9" font-family="Arial" font-size="14.00" fill="#666666">[char(36)]</text>
<polygon fill="none" stroke="#000000" points="949,-409.5 949,-439.5 1159,-439.5 1159,-409.5 949,-409.5"/>
<text text-anchor="start" x="956" y="-420.9" font-family="Arial" font-size="14.00" fill="#000000">name </text>
<text text-anchor="start" x="994.899" y="-420.9" font-family="Arial" font-size="14.00" fill="#666666">[varchar(255)]</text>
<polygon fill="none" stroke="#000000" points="949,-379.5 949,-409.5 1159,-409.5 1159,-379.5 949,-379.5"/>
<text text-anchor="start" x="956" y="-390.9" font-family="Arial" font-size="14.00" fill="#000000">created_at </text>
<text text-anchor="start" x="1026.028" y="-390.9" font-family="Arial" font-size="14.00" fill="#666666">[datetime(6)]</text>
</g>
<!-- submissions&#45;&gt;users -->
<g id="edge7" class="edge">
<title>submissions:user_id&#45;&gt;users:id</title>
<path fill="none" stroke="#000000" d="M939.2724,-482.1496C886.5331,-454.5152 928.9598,-192.5 865,-192.5"/>
<polygon fill="#000000" stroke="#000000" points="939.2797,-482.1513 947.9431,-488.8741 944.1399,-483.3256 949,-484.5 949,-484.5 949,-484.5 944.1399,-483.3256 950.0569,-480.1259 939.2797,-482.1513 939.2797,-482.1513"/>
<text text-anchor="start" x="895.945" y="-468.5" font-family="Arial" font-size="10.00" fill="#000000">FOREIGN KEY (user_id) REFERENCES users (id)</text>
</g>
<!-- assignment -->
<g id="node8" class="node">
<title>assignment</title>
<polygon fill="#efefef" stroke="transparent" points="973,-222.5 973,-257.5 1176,-257.5 1176,-222.5 973,-222.5"/>
<polygon fill="none" stroke="#000000" points="973,-222.5 973,-257.5 1176,-257.5 1176,-222.5 973,-222.5"/>
<text text-anchor="start" x="979.8633" y="-235.3" font-family="Arial Bold" font-size="18.00" fill="#000000">assignment</text>
<text text-anchor="start" x="1071.8829" y="-235.3" font-family="Arial" font-size="14.00" fill="#000000"> </text>
<text text-anchor="start" x="1075.7735" y="-235.3" font-family="Arial" font-size="14.00" fill="#666666">[BASE TABLE]</text>
<polygon fill="none" stroke="#000000" points="973,-192.5 973,-222.5 1176,-222.5 1176,-192.5 973,-192.5"/>
<text text-anchor="start" x="980" y="-203.9" font-family="Arial" font-size="14.00" fill="#000000">id </text>
<text text-anchor="start" x="994.7798" y="-203.9" font-family="Arial" font-size="14.00" fill="#666666">[char(36)]</text>
<polygon fill="none" stroke="#000000" points="973,-162.5 973,-192.5 1176,-192.5 1176,-162.5 973,-162.5"/>
<text text-anchor="start" x="980" y="-173.9" font-family="Arial" font-size="14.00" fill="#000000">class_id </text>
<text text-anchor="start" x="1034.4516" y="-173.9" font-family="Arial" font-size="14.00" fill="#666666">[char(36)]</text>
<polygon fill="none" stroke="#000000" points="973,-132.5 973,-162.5 1176,-162.5 1176,-132.5 973,-132.5"/>
<text text-anchor="start" x="980" y="-143.9" font-family="Arial" font-size="14.00" fill="#000000">name </text>
<text text-anchor="start" x="1018.899" y="-143.9" font-family="Arial" font-size="14.00" fill="#666666">[varchar(255)]</text>
<polygon fill="none" stroke="#000000" points="973,-102.5 973,-132.5 1176,-132.5 1176,-102.5 973,-102.5"/>
<text text-anchor="start" x="980" y="-113.9" font-family="Arial" font-size="14.00" fill="#000000">description </text>
<text text-anchor="start" x="1051.568" y="-113.9" font-family="Arial" font-size="14.00" fill="#666666">[text]</text>
<polygon fill="none" stroke="#000000" points="973,-72.5 973,-102.5 1176,-102.5 1176,-72.5 973,-72.5"/>
<text text-anchor="start" x="980" y="-83.9" font-family="Arial" font-size="14.00" fill="#000000">deadline </text>
<text text-anchor="start" x="1036.7994" y="-83.9" font-family="Arial" font-size="14.00" fill="#666666">[datetime(6)]</text>
<polygon fill="none" stroke="#000000" points="973,-42.5 973,-72.5 1176,-72.5 1176,-42.5 973,-42.5"/>
<text text-anchor="start" x="980" y="-53.9" font-family="Arial" font-size="14.00" fill="#000000">created_at </text>
<text text-anchor="start" x="1050.028" y="-53.9" font-family="Arial" font-size="14.00" fill="#666666">[datetime(6)]</text>
</g>
<!-- submissions&#45;&gt;assignment -->
<g id="edge8" class="edge">
<title>submissions:assignment_id&#45;&gt;assignment:id</title>
<path fill="none" stroke="#000000" d="M1168.9793,-453.3944C1208.4815,-443.8239 1189.8968,-374.4503 1159,-337 1105.4157,-272.0501 1026.5843,-365.9499 973,-301 946.5546,-268.9453 931.4444,-207.5 973,-207.5"/>
<polygon fill="#000000" stroke="#000000" points="1168.9392,-453.3988 1158.5045,-450.0274 1163.9696,-453.9494 1159,-454.5 1159,-454.5 1159,-454.5 1163.9696,-453.9494 1159.4955,-458.9726 1168.9392,-453.3988 1168.9392,-453.3988"/>
<text text-anchor="start" x="1016.77" y="-438.5" font-family="Arial" font-size="10.00" fill="#000000">FOREIGN KEY (assignment_id) REFERENCES assignment (id)</text>
</g>
<!-- unread_announcements -->
<g id="node9" class="node">
<title>unread_announcements</title>
<polygon fill="#efefef" stroke="transparent" points="1264,-514.5 1264,-549.5 1569,-549.5 1569,-514.5 1264,-514.5"/>
<polygon fill="none" stroke="#000000" points="1264,-514.5 1264,-549.5 1569,-549.5 1569,-514.5 1264,-514.5"/>
<text text-anchor="start" x="1270.8333" y="-527.3" font-family="Arial Bold" font-size="18.00" fill="#000000">unread_announcements</text>
<text text-anchor="start" x="1464.9129" y="-527.3" font-family="Arial" font-size="14.00" fill="#000000"> </text>
<text text-anchor="start" x="1468.8035" y="-527.3" font-family="Arial" font-size="14.00" fill="#666666">[BASE TABLE]</text>
<polygon fill="none" stroke="#000000" points="1264,-484.5 1264,-514.5 1569,-514.5 1569,-484.5 1264,-484.5"/>
<text text-anchor="start" x="1271" y="-495.9" font-family="Arial" font-size="14.00" fill="#000000">announcement_id </text>
<text text-anchor="start" x="1386.157" y="-495.9" font-family="Arial" font-size="14.00" fill="#666666">[char(36)]</text>
<polygon fill="none" stroke="#000000" points="1264,-454.5 1264,-484.5 1569,-484.5 1569,-454.5 1264,-454.5"/>
<text text-anchor="start" x="1271" y="-465.9" font-family="Arial" font-size="14.00" fill="#000000">user_id </text>
<text text-anchor="start" x="1320.7882" y="-465.9" font-family="Arial" font-size="14.00" fill="#666666">[char(36)]</text>
<polygon fill="none" stroke="#000000" points="1264,-424.5 1264,-454.5 1569,-454.5 1569,-424.5 1264,-424.5"/>
<text text-anchor="start" x="1271" y="-435.9" font-family="Arial" font-size="14.00" fill="#000000">created_at </text>
<text text-anchor="start" x="1341.028" y="-435.9" font-family="Arial" font-size="14.00" fill="#666666">[datetime(6)]</text>
<polygon fill="none" stroke="#000000" points="1264,-394.5 1264,-424.5 1569,-424.5 1569,-394.5 1264,-394.5"/>
<text text-anchor="start" x="1271" y="-405.9" font-family="Arial" font-size="14.00" fill="#000000">delete_at </text>
<text text-anchor="start" x="1332.474" y="-405.9" font-family="Arial" font-size="14.00" fill="#666666">[datetime(6)]</text>
</g>
<!-- unread_announcements&#45;&gt;users -->
<g id="edge9" class="edge">
<title>unread_announcements:user_id&#45;&gt;users:id</title>
<path fill="none" stroke="#000000" d="M1253.7918,-468.5018C1207.5127,-458.347 1258.1848,-373.3864 1211,-337 1108.1507,-257.6881 1027.5349,-375.2877 921,-301 876.487,-269.9607 919.2664,-192.5 865,-192.5"/>
<polygon fill="#000000" stroke="#000000" points="1254.0475,-468.5267 1263.562,-473.9786 1259.0237,-469.0133 1264,-469.5 1264,-469.5 1264,-469.5 1259.0237,-469.0133 1264.438,-465.0214 1254.0475,-468.5267 1254.0475,-468.5267"/>
<text text-anchor="start" x="1270.945" y="-479.5" font-family="Arial" font-size="10.00" fill="#000000">FOREIGN KEY (user_id) REFERENCES users (id)</text>
</g>
<!-- announcements -->
<g id="node10" class="node">
<title>announcements</title>
<polygon fill="#efefef" stroke="transparent" points="1297,-207.5 1297,-242.5 1536,-242.5 1536,-207.5 1297,-207.5"/>
<polygon fill="none" stroke="#000000" points="1297,-207.5 1297,-242.5 1536,-242.5 1536,-207.5 1297,-207.5"/>
<text text-anchor="start" x="1303.848" y="-220.3" font-family="Arial Bold" font-size="18.00" fill="#000000">announcements</text>
<text text-anchor="start" x="1431.8982" y="-220.3" font-family="Arial" font-size="14.00" fill="#000000"> </text>
<text text-anchor="start" x="1435.7888" y="-220.3" font-family="Arial" font-size="14.00" fill="#666666">[BASE TABLE]</text>
<polygon fill="none" stroke="#000000" points="1297,-177.5 1297,-207.5 1536,-207.5 1536,-177.5 1297,-177.5"/>
<text text-anchor="start" x="1304" y="-188.9" font-family="Arial" font-size="14.00" fill="#000000">id </text>
<text text-anchor="start" x="1318.7798" y="-188.9" font-family="Arial" font-size="14.00" fill="#666666">[char(36)]</text>
<polygon fill="none" stroke="#000000" points="1297,-147.5 1297,-177.5 1536,-177.5 1536,-147.5 1297,-147.5"/>
<text text-anchor="start" x="1304" y="-158.9" font-family="Arial" font-size="14.00" fill="#000000">course_id </text>
<text text-anchor="start" x="1368.5708" y="-158.9" font-family="Arial" font-size="14.00" fill="#666666">[char(36)]</text>
<polygon fill="none" stroke="#000000" points="1297,-117.5 1297,-147.5 1536,-147.5 1536,-117.5 1297,-117.5"/>
<text text-anchor="start" x="1304" y="-128.9" font-family="Arial" font-size="14.00" fill="#000000">title </text>
<text text-anchor="start" x="1329.6676" y="-128.9" font-family="Arial" font-size="14.00" fill="#666666">[varchar(255)]</text>
<polygon fill="none" stroke="#000000" points="1297,-87.5 1297,-117.5 1536,-117.5 1536,-87.5 1297,-87.5"/>
<text text-anchor="start" x="1304" y="-98.9" font-family="Arial" font-size="14.00" fill="#000000">message </text>
<text text-anchor="start" x="1364.6816" y="-98.9" font-family="Arial" font-size="14.00" fill="#666666">[text]</text>
<polygon fill="none" stroke="#000000" points="1297,-57.5 1297,-87.5 1536,-87.5 1536,-57.5 1297,-57.5"/>
<text text-anchor="start" x="1304" y="-68.9" font-family="Arial" font-size="14.00" fill="#000000">created_at </text>
<text text-anchor="start" x="1374.028" y="-68.9" font-family="Arial" font-size="14.00" fill="#666666">[datetime(6)]</text>
</g>
<!-- unread_announcements&#45;&gt;announcements -->
<g id="edge10" class="edge">
<title>unread_announcements:announcement_id&#45;&gt;announcements:id</title>
<path fill="none" stroke="#000000" d="M1253.9829,-497.0288C1198.9643,-467.9748 1232.0032,-192.5 1297,-192.5"/>
<polygon fill="#000000" stroke="#000000" points="1254.2911,-497.1048 1262.9221,-503.869 1259.1455,-498.3024 1264,-499.5 1264,-499.5 1264,-499.5 1259.1455,-498.3024 1265.0779,-495.131 1254.2911,-497.1048 1254.2911,-497.1048"/>
<text text-anchor="start" x="938.253" y="-509.5" font-family="Arial" font-size="10.00" fill="#000000">FOREIGN KEY (announcement_id) REFERENCES announcements (id)</text>
</g>
</g>
</svg>
