<?xml version="1.0" encoding="UTF-8" standalone="no"?>
<!DOCTYPE svg PUBLIC "-//W3C//DTD SVG 1.1//EN"
 "http://www.w3.org/Graphics/SVG/1.1/DTD/svg11.dtd">
<!-- Generated by graphviz version 2.40.1 (20161225.0304)
 -->
<!-- Title: users Pages: 1 -->
<svg width="1611pt" height="616pt"
 viewBox="0.00 0.00 1610.50 616.00" xmlns="http://www.w3.org/2000/svg" xmlns:xlink="http://www.w3.org/1999/xlink">
<g id="graph0" class="graph" transform="scale(1 1) rotate(0) translate(4 612)">
<title>users</title>
<polygon fill="#ffffff" stroke="transparent" points="-4,4 -4,-612 1606.5,-612 1606.5,4 -4,4"/>
<!-- users -->
<g id="node1" class="node">
<title>users</title>
<polygon fill="#efefef" stroke="transparent" points="654,-207.5 654,-242.5 856,-242.5 856,-207.5 654,-207.5"/>
<polygon fill="none" stroke="#000000" points="654,-207.5 654,-242.5 856,-242.5 856,-207.5 654,-207.5"/>
<text text-anchor="start" x="684.3708" y="-220.3" font-family="Arial Bold" font-size="18.00" fill="#000000">users</text>
<text text-anchor="start" x="728.3754" y="-220.3" font-family="Arial" font-size="14.00" fill="#000000"> </text>
<text text-anchor="start" x="732.266" y="-220.3" font-family="Arial" font-size="14.00" fill="#666666">[BASE TABLE]</text>
<polygon fill="none" stroke="#000000" points="654,-177.5 654,-207.5 856,-207.5 856,-177.5 654,-177.5"/>
<text text-anchor="start" x="661" y="-188.9" font-family="Arial" font-size="14.00" fill="#000000">id </text>
<text text-anchor="start" x="675.7798" y="-188.9" font-family="Arial" font-size="14.00" fill="#666666">[char(36)]</text>
<polygon fill="none" stroke="#000000" points="654,-147.5 654,-177.5 856,-177.5 856,-147.5 654,-147.5"/>
<text text-anchor="start" x="661" y="-158.9" font-family="Arial" font-size="14.00" fill="#000000">name </text>
<text text-anchor="start" x="699.899" y="-158.9" font-family="Arial" font-size="14.00" fill="#666666">[varchar(255)]</text>
<polygon fill="none" stroke="#000000" points="654,-117.5 654,-147.5 856,-147.5 856,-117.5 654,-117.5"/>
<text text-anchor="start" x="661" y="-128.9" font-family="Arial" font-size="14.00" fill="#000000">mail_address </text>
<text text-anchor="start" x="748.1206" y="-128.9" font-family="Arial" font-size="14.00" fill="#666666">[varchar(255)]</text>
<polygon fill="none" stroke="#000000" points="654,-87.5 654,-117.5 856,-117.5 856,-87.5 654,-87.5"/>
<text text-anchor="start" x="660.8668" y="-98.9" font-family="Arial" font-size="14.00" fill="#000000">hashed_password </text>
<text text-anchor="start" x="778.3506" y="-98.9" font-family="Arial" font-size="14.00" fill="#666666">[binary(60)]</text>
<polygon fill="none" stroke="#000000" points="654,-57.5 654,-87.5 856,-87.5 856,-57.5 654,-57.5"/>
<text text-anchor="start" x="661" y="-68.9" font-family="Arial" font-size="14.00" fill="#000000">type </text>
<text text-anchor="start" x="691.3464" y="-68.9" font-family="Arial" font-size="14.00" fill="#666666">[enum(&#39;student&#39;,&#39;faculty&#39;)]</text>
<polygon fill="none" stroke="#000000" stroke-width="3" points="652.5,-56.5 652.5,-244.5 857.5,-244.5 857.5,-56.5 652.5,-56.5"/>
</g>
<!-- attendances -->
<g id="node2" class="node">
<title>attendances</title>
<polygon fill="#efefef" stroke="transparent" points="44,-499.5 44,-534.5 253,-534.5 253,-499.5 44,-499.5"/>
<polygon fill="none" stroke="#000000" points="44,-499.5 44,-534.5 253,-534.5 253,-499.5 44,-499.5"/>
<text text-anchor="start" x="50.8492" y="-512.3" font-family="Arial Bold" font-size="18.00" fill="#000000">attendances</text>
<text text-anchor="start" x="148.897" y="-512.3" font-family="Arial" font-size="14.00" fill="#000000"> </text>
<text text-anchor="start" x="152.7876" y="-512.3" font-family="Arial" font-size="14.00" fill="#666666">[BASE TABLE]</text>
<polygon fill="none" stroke="#000000" points="44,-469.5 44,-499.5 253,-499.5 253,-469.5 44,-469.5"/>
<text text-anchor="start" x="51" y="-480.9" font-family="Arial" font-size="14.00" fill="#000000">class_id </text>
<text text-anchor="start" x="105.4516" y="-480.9" font-family="Arial" font-size="14.00" fill="#666666">[char(36)]</text>
<polygon fill="none" stroke="#000000" points="44,-439.5 44,-469.5 253,-469.5 253,-439.5 44,-439.5"/>
<text text-anchor="start" x="51" y="-450.9" font-family="Arial" font-size="14.00" fill="#000000">user_id </text>
<text text-anchor="start" x="100.7882" y="-450.9" font-family="Arial" font-size="14.00" fill="#666666">[char(36)]</text>
<polygon fill="none" stroke="#000000" points="44,-409.5 44,-439.5 253,-439.5 253,-409.5 44,-409.5"/>
<text text-anchor="start" x="51" y="-420.9" font-family="Arial" font-size="14.00" fill="#000000">created_at </text>
<text text-anchor="start" x="121.028" y="-420.9" font-family="Arial" font-size="14.00" fill="#666666">[datetime(6)]</text>
</g>
<!-- attendances&#45;&gt;users -->
<g id="edge1" class="edge">
<title>attendances:user_id&#45;&gt;users:id</title>
<path fill="none" stroke="#000000" d="M262.9665,-453.435C303.5118,-443.6359 261.4129,-368.7983 304,-337 409.8363,-257.9759 490.854,-376.8325 599,-301 643.2659,-269.9606 599.936,-192.5 654,-192.5"/>
<polygon fill="#000000" stroke="#000000" points="262.9434,-453.4374 252.5218,-450.0255 257.9717,-453.9687 253,-454.5 253,-454.5 253,-454.5 257.9717,-453.9687 253.4782,-458.9745 262.9434,-453.4374 262.9434,-453.4374"/>
<text text-anchor="start" x="139.945" y="-438.5" font-family="Arial" font-size="10.00" fill="#000000">FOREIGN KEY (user_id) REFERENCES users (id)</text>
</g>
<!-- classes -->
<g id="node3" class="node">
<title>classes</title>
<polygon fill="#efefef" stroke="transparent" points="43,-207.5 43,-242.5 255,-242.5 255,-207.5 43,-207.5"/>
<polygon fill="none" stroke="#000000" points="43,-207.5 43,-242.5 255,-242.5 255,-207.5 43,-207.5"/>
<text text-anchor="start" x="70.3698" y="-220.3" font-family="Arial Bold" font-size="18.00" fill="#000000">classes</text>
<text text-anchor="start" x="130.3764" y="-220.3" font-family="Arial" font-size="14.00" fill="#000000"> </text>
<text text-anchor="start" x="134.267" y="-220.3" font-family="Arial" font-size="14.00" fill="#666666">[BASE TABLE]</text>
<polygon fill="none" stroke="#000000" points="43,-177.5 43,-207.5 255,-207.5 255,-177.5 43,-177.5"/>
<text text-anchor="start" x="50" y="-188.9" font-family="Arial" font-size="14.00" fill="#000000">id </text>
<text text-anchor="start" x="64.7798" y="-188.9" font-family="Arial" font-size="14.00" fill="#666666">[char(36)]</text>
<polygon fill="none" stroke="#000000" points="43,-147.5 43,-177.5 255,-177.5 255,-147.5 43,-147.5"/>
<text text-anchor="start" x="50" y="-158.9" font-family="Arial" font-size="14.00" fill="#000000">course_id </text>
<text text-anchor="start" x="114.5708" y="-158.9" font-family="Arial" font-size="14.00" fill="#666666">[char(36)]</text>
<polygon fill="none" stroke="#000000" points="43,-117.5 43,-147.5 255,-147.5 255,-117.5 43,-117.5"/>
<text text-anchor="start" x="50" y="-128.9" font-family="Arial" font-size="14.00" fill="#000000">title </text>
<text text-anchor="start" x="75.6676" y="-128.9" font-family="Arial" font-size="14.00" fill="#666666">[varchar(255)]</text>
<polygon fill="none" stroke="#000000" points="43,-87.5 43,-117.5 255,-117.5 255,-87.5 43,-87.5"/>
<text text-anchor="start" x="50" y="-98.9" font-family="Arial" font-size="14.00" fill="#000000">description </text>
<text text-anchor="start" x="121.568" y="-98.9" font-family="Arial" font-size="14.00" fill="#666666">[text]</text>
<polygon fill="none" stroke="#000000" points="43,-57.5 43,-87.5 255,-87.5 255,-57.5 43,-57.5"/>
<text text-anchor="start" x="49.8002" y="-68.9" font-family="Arial" font-size="14.00" fill="#000000">attendance_code </text>
<text text-anchor="start" x="161.0806" y="-68.9" font-family="Arial" font-size="14.00" fill="#666666">[varchar(255)]</text>
</g>
<!-- attendances&#45;&gt;classes -->
<g id="edge2" class="edge">
<title>attendances:class_id&#45;&gt;classes:id</title>
<path fill="none" stroke="#000000" d="M263.4177,-483.3131C301.8181,-473.6234 280.3516,-406.8655 253,-367 196.4057,-284.5125 99.5943,-368.4875 43,-286 19.4903,-251.734 1.4444,-192.5 43,-192.5"/>
<polygon fill="#000000" stroke="#000000" points="262.9357,-483.368 252.4906,-480.0289 257.9679,-483.934 253,-484.5 253,-484.5 253,-484.5 257.9679,-483.934 253.5094,-488.9711 262.9357,-483.368 262.9357,-483.368"/>
<text text-anchor="start" x="133.8345" y="-468.5" font-family="Arial" font-size="10.00" fill="#000000">FOREIGN KEY (class_id) REFERENCES classes (id)</text>
</g>
<!-- grades -->
<g id="node4" class="node">
<title>grades</title>
<polygon fill="#efefef" stroke="transparent" points="670,-514.5 670,-549.5 836,-549.5 836,-514.5 670,-514.5"/>
<polygon fill="none" stroke="#000000" points="670,-514.5 670,-549.5 836,-549.5 836,-514.5 670,-514.5"/>
<text text-anchor="start" x="676.8646" y="-527.3" font-family="Arial Bold" font-size="18.00" fill="#000000">grades</text>
<text text-anchor="start" x="731.8816" y="-527.3" font-family="Arial" font-size="14.00" fill="#000000"> </text>
<text text-anchor="start" x="735.7722" y="-527.3" font-family="Arial" font-size="14.00" fill="#666666">[BASE TABLE]</text>
<polygon fill="none" stroke="#000000" points="670,-484.5 670,-514.5 836,-514.5 836,-484.5 670,-484.5"/>
<text text-anchor="start" x="677" y="-495.9" font-family="Arial" font-size="14.00" fill="#000000">id </text>
<text text-anchor="start" x="691.7798" y="-495.9" font-family="Arial" font-size="14.00" fill="#666666">[char(36)]</text>
<polygon fill="none" stroke="#000000" points="670,-454.5 670,-484.5 836,-484.5 836,-454.5 670,-454.5"/>
<text text-anchor="start" x="677" y="-465.9" font-family="Arial" font-size="14.00" fill="#000000">user_id </text>
<text text-anchor="start" x="726.7882" y="-465.9" font-family="Arial" font-size="14.00" fill="#666666">[char(36)]</text>
<polygon fill="none" stroke="#000000" points="670,-424.5 670,-454.5 836,-454.5 836,-424.5 670,-424.5"/>
<text text-anchor="start" x="677" y="-435.9" font-family="Arial" font-size="14.00" fill="#000000">course_id </text>
<text text-anchor="start" x="741.5708" y="-435.9" font-family="Arial" font-size="14.00" fill="#666666">[char(36)]</text>
<polygon fill="none" stroke="#000000" points="670,-394.5 670,-424.5 836,-424.5 836,-394.5 670,-394.5"/>
<text text-anchor="start" x="677" y="-405.9" font-family="Arial" font-size="14.00" fill="#000000">grade </text>
<text text-anchor="start" x="716.6816" y="-405.9" font-family="Arial" font-size="14.00" fill="#666666">[int unsigned]</text>
</g>
<!-- grades&#45;&gt;users -->
<g id="edge3" class="edge">
<title>grades:user_id&#45;&gt;users:id</title>
<path fill="none" stroke="#000000" d="M846.4291,-468.3052C884.9207,-458.5517 864.0427,-391.3824 836,-352 786.3499,-282.2728 703.6501,-358.7272 654,-289 629.1228,-254.0632 611.1111,-192.5 654,-192.5"/>
<polygon fill="#000000" stroke="#000000" points="845.935,-468.3617 835.4878,-465.0292 840.9675,-468.9308 836,-469.5 836,-469.5 836,-469.5 840.9675,-468.9308 836.5122,-473.9708 845.935,-468.3617 845.935,-468.3617"/>
<text text-anchor="start" x="602.945" y="-479.5" font-family="Arial" font-size="10.00" fill="#000000">FOREIGN KEY (user_id) REFERENCES users (id)</text>
</g>
<!-- courses -->
<g id="node5" class="node">
<title>courses</title>
<polygon fill="#efefef" stroke="transparent" points="373,-222.5 373,-257.5 547,-257.5 547,-222.5 373,-222.5"/>
<polygon fill="none" stroke="#000000" points="373,-222.5 373,-257.5 547,-257.5 547,-222.5 373,-222.5"/>
<text text-anchor="start" x="379.8677" y="-235.3" font-family="Arial Bold" font-size="18.00" fill="#000000">courses</text>
<text text-anchor="start" x="442.8785" y="-235.3" font-family="Arial" font-size="14.00" fill="#000000"> </text>
<text text-anchor="start" x="446.7691" y="-235.3" font-family="Arial" font-size="14.00" fill="#666666">[BASE TABLE]</text>
<polygon fill="none" stroke="#000000" points="373,-192.5 373,-222.5 547,-222.5 547,-192.5 373,-192.5"/>
<text text-anchor="start" x="380" y="-203.9" font-family="Arial" font-size="14.00" fill="#000000">id </text>
<text text-anchor="start" x="394.7798" y="-203.9" font-family="Arial" font-size="14.00" fill="#666666">[char(36)]</text>
<polygon fill="none" stroke="#000000" points="373,-162.5 373,-192.5 547,-192.5 547,-162.5 373,-162.5"/>
<text text-anchor="start" x="380" y="-173.9" font-family="Arial" font-size="14.00" fill="#000000">name </text>
<text text-anchor="start" x="418.899" y="-173.9" font-family="Arial" font-size="14.00" fill="#666666">[varchar(255)]</text>
<polygon fill="none" stroke="#000000" points="373,-132.5 373,-162.5 547,-162.5 547,-132.5 373,-132.5"/>
<text text-anchor="start" x="380" y="-143.9" font-family="Arial" font-size="14.00" fill="#000000">description </text>
<text text-anchor="start" x="451.568" y="-143.9" font-family="Arial" font-size="14.00" fill="#666666">[text]</text>
<polygon fill="none" stroke="#000000" points="373,-102.5 373,-132.5 547,-132.5 547,-102.5 373,-102.5"/>
<text text-anchor="start" x="380" y="-113.9" font-family="Arial" font-size="14.00" fill="#000000">credit </text>
<text text-anchor="start" x="418.1136" y="-113.9" font-family="Arial" font-size="14.00" fill="#666666">[tinyint unsigned]</text>
<polygon fill="none" stroke="#000000" points="373,-72.5 373,-102.5 547,-102.5 547,-72.5 373,-72.5"/>
<text text-anchor="start" x="380" y="-83.9" font-family="Arial" font-size="14.00" fill="#000000">classroom </text>
<text text-anchor="start" x="447.6662" y="-83.9" font-family="Arial" font-size="14.00" fill="#666666">[varchar(255)]</text>
<polygon fill="none" stroke="#000000" points="373,-42.5 373,-72.5 547,-72.5 547,-42.5 373,-42.5"/>
<text text-anchor="start" x="380" y="-53.9" font-family="Arial" font-size="14.00" fill="#000000">capacity </text>
<text text-anchor="start" x="435.2356" y="-53.9" font-family="Arial" font-size="14.00" fill="#666666">[int unsigned]</text>
</g>
<!-- grades&#45;&gt;courses -->
<g id="edge4" class="edge">
<title>grades:course_id&#45;&gt;courses:id</title>
<path fill="none" stroke="#000000" d="M659.7474,-438.5836C621.764,-431.0801 639.1931,-378.9727 617,-337 615.0886,-333.3851 551.0891,-207.5 547,-207.5"/>
<polygon fill="#000000" stroke="#000000" points="660.0397,-438.6096 669.5993,-443.9821 665.0199,-439.0548 670,-439.5 670,-439.5 670,-439.5 665.0199,-439.0548 670.4007,-435.0179 660.0397,-438.6096 660.0397,-438.6096"/>
<text text-anchor="start" x="481.636" y="-423.5" font-family="Arial" font-size="10.00" fill="#000000">FOREIGN KEY (course_id) REFERENCES courses (id)</text>
</g>
<!-- registrations -->
<g id="node6" class="node">
<title>registrations</title>
<polygon fill="#efefef" stroke="transparent" points="357,-514.5 357,-549.5 566,-549.5 566,-514.5 357,-514.5"/>
<polygon fill="none" stroke="#000000" points="357,-514.5 357,-549.5 566,-549.5 566,-514.5 357,-514.5"/>
<text text-anchor="start" x="363.869" y="-527.3" font-family="Arial Bold" font-size="18.00" fill="#000000">registrations</text>
<text text-anchor="start" x="461.8772" y="-527.3" font-family="Arial" font-size="14.00" fill="#000000"> </text>
<text text-anchor="start" x="465.7678" y="-527.3" font-family="Arial" font-size="14.00" fill="#666666">[BASE TABLE]</text>
<polygon fill="none" stroke="#000000" points="357,-484.5 357,-514.5 566,-514.5 566,-484.5 357,-484.5"/>
<text text-anchor="start" x="364" y="-495.9" font-family="Arial" font-size="14.00" fill="#000000">course_id </text>
<text text-anchor="start" x="428.5708" y="-495.9" font-family="Arial" font-size="14.00" fill="#666666">[char(36)]</text>
<polygon fill="none" stroke="#000000" points="357,-454.5 357,-484.5 566,-484.5 566,-454.5 357,-454.5"/>
<text text-anchor="start" x="364" y="-465.9" font-family="Arial" font-size="14.00" fill="#000000">user_id </text>
<text text-anchor="start" x="413.7882" y="-465.9" font-family="Arial" font-size="14.00" fill="#666666">[char(36)]</text>
<polygon fill="none" stroke="#000000" points="357,-424.5 357,-454.5 566,-454.5 566,-424.5 357,-424.5"/>
<text text-anchor="start" x="364" y="-435.9" font-family="Arial" font-size="14.00" fill="#000000">created_at </text>
<text text-anchor="start" x="434.028" y="-435.9" font-family="Arial" font-size="14.00" fill="#666666">[datetime(6)]</text>
<polygon fill="none" stroke="#000000" points="357,-394.5 357,-424.5 566,-424.5 566,-394.5 357,-394.5"/>
<text text-anchor="start" x="364" y="-405.9" font-family="Arial" font-size="14.00" fill="#000000">deleted_at </text>
<text text-anchor="start" x="433.2566" y="-405.9" font-family="Arial" font-size="14.00" fill="#666666">[datetime(6)]</text>
</g>
<!-- registrations&#45;&gt;users -->
<g id="edge5" class="edge">
<title>registrations:user_id&#45;&gt;users:id</title>
<path fill="none" stroke="#000000" d="M576.2677,-468.8461C685.766,-454.0327 528.4839,-192.5 654,-192.5"/>
<polygon fill="#000000" stroke="#000000" points="575.9798,-468.8643 565.714,-465.0091 570.9899,-469.1822 566,-469.5 566,-469.5 566,-469.5 570.9899,-469.1822 566.286,-473.9909 575.9798,-468.8643 575.9798,-468.8643"/>
<text text-anchor="start" x="572.945" y="-453.5" font-family="Arial" font-size="10.00" fill="#000000">FOREIGN KEY (user_id) REFERENCES users (id)</text>
</g>
<!-- registrations&#45;&gt;courses -->
<g id="edge6" class="edge">
<title>registrations:course_id&#45;&gt;courses:id</title>
<path fill="none" stroke="#000000" d="M346.7246,-498.6063C294.3968,-488.8231 319.3635,-401.0712 357,-352 410.211,-282.6225 493.789,-370.3775 547,-301 572.2902,-268.0262 588.5556,-207.5 547,-207.5"/>
<polygon fill="#000000" stroke="#000000" points="347.0376,-498.6334 356.61,-503.9831 352.0188,-499.0667 357,-499.5 357,-499.5 357,-499.5 352.0188,-499.0667 357.39,-495.0169 347.0376,-498.6334 347.0376,-498.6334"/>
<text text-anchor="start" x="103.386" y="-509.5" font-family="Arial" font-size="10.00" fill="#000000">FOREIGN KEY (course_id) REFERENCES courses (id)</text>
</g>
<!-- submissions -->
<g id="node7" class="node">
<title>submissions</title>
<polygon fill="#efefef" stroke="transparent" points="940,-529.5 940,-564.5 1150,-564.5 1150,-529.5 940,-529.5"/>
<polygon fill="none" stroke="#000000" points="940,-529.5 940,-564.5 1150,-564.5 1150,-529.5 940,-529.5"/>
<text text-anchor="start" x="946.8704" y="-542.3" font-family="Arial Bold" font-size="18.00" fill="#000000">submissions</text>
<text text-anchor="start" x="1045.8758" y="-542.3" font-family="Arial" font-size="14.00" fill="#000000"> </text>
<text text-anchor="start" x="1049.7664" y="-542.3" font-family="Arial" font-size="14.00" fill="#666666">[BASE TABLE]</text>
<polygon fill="none" stroke="#000000" points="940,-499.5 940,-529.5 1150,-529.5 1150,-499.5 940,-499.5"/>
<text text-anchor="start" x="947" y="-510.9" font-family="Arial" font-size="14.00" fill="#000000">id </text>
<text text-anchor="start" x="961.7798" y="-510.9" font-family="Arial" font-size="14.00" fill="#666666">[char(36)]</text>
<polygon fill="none" stroke="#000000" points="940,-469.5 940,-499.5 1150,-499.5 1150,-469.5 940,-469.5"/>
<text text-anchor="start" x="947" y="-480.9" font-family="Arial" font-size="14.00" fill="#000000">user_id </text>
<text text-anchor="start" x="996.7882" y="-480.9" font-family="Arial" font-size="14.00" fill="#666666">[char(36)]</text>
<polygon fill="none" stroke="#000000" points="940,-439.5 940,-469.5 1150,-469.5 1150,-439.5 940,-439.5"/>
<text text-anchor="start" x="947" y="-450.9" font-family="Arial" font-size="14.00" fill="#000000">assignment_id </text>
<text text-anchor="start" x="1041.1332" y="-450.9" font-family="Arial" font-size="14.00" fill="#666666">[char(36)]</text>
<polygon fill="none" stroke="#000000" points="940,-409.5 940,-439.5 1150,-439.5 1150,-409.5 940,-409.5"/>
<text text-anchor="start" x="947" y="-420.9" font-family="Arial" font-size="14.00" fill="#000000">name </text>
<text text-anchor="start" x="985.899" y="-420.9" font-family="Arial" font-size="14.00" fill="#666666">[varchar(255)]</text>
<polygon fill="none" stroke="#000000" points="940,-379.5 940,-409.5 1150,-409.5 1150,-379.5 940,-379.5"/>
<text text-anchor="start" x="947" y="-390.9" font-family="Arial" font-size="14.00" fill="#000000">created_at </text>
<text text-anchor="start" x="1017.028" y="-390.9" font-family="Arial" font-size="14.00" fill="#666666">[datetime(6)]</text>
</g>
<!-- submissions&#45;&gt;users -->
<g id="edge7" class="edge">
<title>submissions:user_id&#45;&gt;users:id</title>
<path fill="none" stroke="#000000" d="M930.2724,-482.1496C877.5331,-454.5152 919.9598,-192.5 856,-192.5"/>
<polygon fill="#000000" stroke="#000000" points="930.2797,-482.1513 938.9431,-488.8741 935.1399,-483.3256 940,-484.5 940,-484.5 940,-484.5 935.1399,-483.3256 941.0569,-480.1259 930.2797,-482.1513 930.2797,-482.1513"/>
<text text-anchor="start" x="886.945" y="-468.5" font-family="Arial" font-size="10.00" fill="#000000">FOREIGN KEY (user_id) REFERENCES users (id)</text>
</g>
<!-- assignment -->
<g id="node8" class="node">
<title>assignment</title>
<polygon fill="#efefef" stroke="transparent" points="964,-222.5 964,-257.5 1167,-257.5 1167,-222.5 964,-222.5"/>
<polygon fill="none" stroke="#000000" points="964,-222.5 964,-257.5 1167,-257.5 1167,-222.5 964,-222.5"/>
<text text-anchor="start" x="970.8633" y="-235.3" font-family="Arial Bold" font-size="18.00" fill="#000000">assignment</text>
<text text-anchor="start" x="1062.8829" y="-235.3" font-family="Arial" font-size="14.00" fill="#000000"> </text>
<text text-anchor="start" x="1066.7735" y="-235.3" font-family="Arial" font-size="14.00" fill="#666666">[BASE TABLE]</text>
<polygon fill="none" stroke="#000000" points="964,-192.5 964,-222.5 1167,-222.5 1167,-192.5 964,-192.5"/>
<text text-anchor="start" x="971" y="-203.9" font-family="Arial" font-size="14.00" fill="#000000">id </text>
<text text-anchor="start" x="985.7798" y="-203.9" font-family="Arial" font-size="14.00" fill="#666666">[char(36)]</text>
<polygon fill="none" stroke="#000000" points="964,-162.5 964,-192.5 1167,-192.5 1167,-162.5 964,-162.5"/>
<text text-anchor="start" x="971" y="-173.9" font-family="Arial" font-size="14.00" fill="#000000">class_id </text>
<text text-anchor="start" x="1025.4516" y="-173.9" font-family="Arial" font-size="14.00" fill="#666666">[char(36)]</text>
<polygon fill="none" stroke="#000000" points="964,-132.5 964,-162.5 1167,-162.5 1167,-132.5 964,-132.5"/>
<text text-anchor="start" x="971" y="-143.9" font-family="Arial" font-size="14.00" fill="#000000">name </text>
<text text-anchor="start" x="1009.899" y="-143.9" font-family="Arial" font-size="14.00" fill="#666666">[varchar(255)]</text>
<polygon fill="none" stroke="#000000" points="964,-102.5 964,-132.5 1167,-132.5 1167,-102.5 964,-102.5"/>
<text text-anchor="start" x="971" y="-113.9" font-family="Arial" font-size="14.00" fill="#000000">description </text>
<text text-anchor="start" x="1042.568" y="-113.9" font-family="Arial" font-size="14.00" fill="#666666">[text]</text>
<polygon fill="none" stroke="#000000" points="964,-72.5 964,-102.5 1167,-102.5 1167,-72.5 964,-72.5"/>
<text text-anchor="start" x="971" y="-83.9" font-family="Arial" font-size="14.00" fill="#000000">deadline </text>
<text text-anchor="start" x="1027.7994" y="-83.9" font-family="Arial" font-size="14.00" fill="#666666">[datetime(6)]</text>
<polygon fill="none" stroke="#000000" points="964,-42.5 964,-72.5 1167,-72.5 1167,-42.5 964,-42.5"/>
<text text-anchor="start" x="971" y="-53.9" font-family="Arial" font-size="14.00" fill="#000000">created_at </text>
<text text-anchor="start" x="1041.028" y="-53.9" font-family="Arial" font-size="14.00" fill="#666666">[datetime(6)]</text>
</g>
<!-- submissions&#45;&gt;assignment -->
<g id="edge8" class="edge">
<title>submissions:assignment_id&#45;&gt;assignment:id</title>
<path fill="none" stroke="#000000" d="M1159.9793,-453.3944C1199.4815,-443.8239 1180.8968,-374.4503 1150,-337 1096.4157,-272.0501 1017.5843,-365.9499 964,-301 937.5546,-268.9453 922.4444,-207.5 964,-207.5"/>
<polygon fill="#000000" stroke="#000000" points="1159.9392,-453.3988 1149.5045,-450.0274 1154.9696,-453.9494 1150,-454.5 1150,-454.5 1150,-454.5 1154.9696,-453.9494 1150.4955,-458.9726 1159.9392,-453.3988 1159.9392,-453.3988"/>
<text text-anchor="start" x="1007.77" y="-438.5" font-family="Arial" font-size="10.00" fill="#000000">FOREIGN KEY (assignment_id) REFERENCES assignment (id)</text>
</g>
<!-- unread_announcements -->
<g id="node9" class="node">
<title>unread_announcements</title>
<polygon fill="#efefef" stroke="transparent" points="1255,-514.5 1255,-549.5 1560,-549.5 1560,-514.5 1255,-514.5"/>
<polygon fill="none" stroke="#000000" points="1255,-514.5 1255,-549.5 1560,-549.5 1560,-514.5 1255,-514.5"/>
<text text-anchor="start" x="1261.8333" y="-527.3" font-family="Arial Bold" font-size="18.00" fill="#000000">unread_announcements</text>
<text text-anchor="start" x="1455.9129" y="-527.3" font-family="Arial" font-size="14.00" fill="#000000"> </text>
<text text-anchor="start" x="1459.8035" y="-527.3" font-family="Arial" font-size="14.00" fill="#666666">[BASE TABLE]</text>
<polygon fill="none" stroke="#000000" points="1255,-484.5 1255,-514.5 1560,-514.5 1560,-484.5 1255,-484.5"/>
<text text-anchor="start" x="1262" y="-495.9" font-family="Arial" font-size="14.00" fill="#000000">announcement_id </text>
<text text-anchor="start" x="1377.157" y="-495.9" font-family="Arial" font-size="14.00" fill="#666666">[char(36)]</text>
<polygon fill="none" stroke="#000000" points="1255,-454.5 1255,-484.5 1560,-484.5 1560,-454.5 1255,-454.5"/>
<text text-anchor="start" x="1262" y="-465.9" font-family="Arial" font-size="14.00" fill="#000000">user_id </text>
<text text-anchor="start" x="1311.7882" y="-465.9" font-family="Arial" font-size="14.00" fill="#666666">[char(36)]</text>
<polygon fill="none" stroke="#000000" points="1255,-424.5 1255,-454.5 1560,-454.5 1560,-424.5 1255,-424.5"/>
<text text-anchor="start" x="1262" y="-435.9" font-family="Arial" font-size="14.00" fill="#000000">created_at </text>
<text text-anchor="start" x="1332.028" y="-435.9" font-family="Arial" font-size="14.00" fill="#666666">[datetime(6)]</text>
<polygon fill="none" stroke="#000000" points="1255,-394.5 1255,-424.5 1560,-424.5 1560,-394.5 1255,-394.5"/>
<text text-anchor="start" x="1262" y="-405.9" font-family="Arial" font-size="14.00" fill="#000000">deleted_at </text>
<text text-anchor="start" x="1331.2566" y="-405.9" font-family="Arial" font-size="14.00" fill="#666666">[datetime(6)]</text>
</g>
<!-- unread_announcements&#45;&gt;users -->
<g id="edge9" class="edge">
<title>unread_announcements:user_id&#45;&gt;users:id</title>
<path fill="none" stroke="#000000" d="M1244.7918,-468.5018C1198.5127,-458.347 1249.1848,-373.3864 1202,-337 1099.1507,-257.6881 1018.5349,-375.2877 912,-301 867.487,-269.9607 910.2664,-192.5 856,-192.5"/>
<polygon fill="#000000" stroke="#000000" points="1245.0475,-468.5267 1254.562,-473.9786 1250.0237,-469.0133 1255,-469.5 1255,-469.5 1255,-469.5 1250.0237,-469.0133 1255.438,-465.0214 1245.0475,-468.5267 1245.0475,-468.5267"/>
<text text-anchor="start" x="1261.945" y="-479.5" font-family="Arial" font-size="10.00" fill="#000000">FOREIGN KEY (user_id) REFERENCES users (id)</text>
</g>
<!-- announcements -->
<g id="node10" class="node">
<title>announcements</title>
<polygon fill="#efefef" stroke="transparent" points="1288,-207.5 1288,-242.5 1527,-242.5 1527,-207.5 1288,-207.5"/>
<polygon fill="none" stroke="#000000" points="1288,-207.5 1288,-242.5 1527,-242.5 1527,-207.5 1288,-207.5"/>
<text text-anchor="start" x="1294.848" y="-220.3" font-family="Arial Bold" font-size="18.00" fill="#000000">announcements</text>
<text text-anchor="start" x="1422.8982" y="-220.3" font-family="Arial" font-size="14.00" fill="#000000"> </text>
<text text-anchor="start" x="1426.7888" y="-220.3" font-family="Arial" font-size="14.00" fill="#666666">[BASE TABLE]</text>
<polygon fill="none" stroke="#000000" points="1288,-177.5 1288,-207.5 1527,-207.5 1527,-177.5 1288,-177.5"/>
<text text-anchor="start" x="1295" y="-188.9" font-family="Arial" font-size="14.00" fill="#000000">id </text>
<text text-anchor="start" x="1309.7798" y="-188.9" font-family="Arial" font-size="14.00" fill="#666666">[char(36)]</text>
<polygon fill="none" stroke="#000000" points="1288,-147.5 1288,-177.5 1527,-177.5 1527,-147.5 1288,-147.5"/>
<text text-anchor="start" x="1295" y="-158.9" font-family="Arial" font-size="14.00" fill="#000000">course_id </text>
<text text-anchor="start" x="1359.5708" y="-158.9" font-family="Arial" font-size="14.00" fill="#666666">[char(36)]</text>
<polygon fill="none" stroke="#000000" points="1288,-117.5 1288,-147.5 1527,-147.5 1527,-117.5 1288,-117.5"/>
<text text-anchor="start" x="1295" y="-128.9" font-family="Arial" font-size="14.00" fill="#000000">title </text>
<text text-anchor="start" x="1320.6676" y="-128.9" font-family="Arial" font-size="14.00" fill="#666666">[varchar(255)]</text>
<polygon fill="none" stroke="#000000" points="1288,-87.5 1288,-117.5 1527,-117.5 1527,-87.5 1288,-87.5"/>
<text text-anchor="start" x="1295" y="-98.9" font-family="Arial" font-size="14.00" fill="#000000">message </text>
<text text-anchor="start" x="1355.6816" y="-98.9" font-family="Arial" font-size="14.00" fill="#666666">[text]</text>
<polygon fill="none" stroke="#000000" points="1288,-57.5 1288,-87.5 1527,-87.5 1527,-57.5 1288,-57.5"/>
<text text-anchor="start" x="1295" y="-68.9" font-family="Arial" font-size="14.00" fill="#000000">created_at </text>
<text text-anchor="start" x="1365.028" y="-68.9" font-family="Arial" font-size="14.00" fill="#666666">[datetime(6)]</text>
</g>
<!-- unread_announcements&#45;&gt;announcements -->
<g id="edge10" class="edge">
<title>unread_announcements:announcement_id&#45;&gt;announcements:id</title>
<path fill="none" stroke="#000000" d="M1244.9829,-497.0288C1189.9643,-467.9748 1223.0032,-192.5 1288,-192.5"/>
<polygon fill="#000000" stroke="#000000" points="1245.2911,-497.1048 1253.9221,-503.869 1250.1455,-498.3024 1255,-499.5 1255,-499.5 1255,-499.5 1250.1455,-498.3024 1256.0779,-495.131 1245.2911,-497.1048 1245.2911,-497.1048"/>
<text text-anchor="start" x="929.253" y="-509.5" font-family="Arial" font-size="10.00" fill="#000000">FOREIGN KEY (announcement_id) REFERENCES announcements (id)</text>
</g>
</g>
</svg>
