<?xml version="1.0" encoding="UTF-8" standalone="no"?>
<!DOCTYPE svg PUBLIC "-//W3C//DTD SVG 1.1//EN"
 "http://www.w3.org/Graphics/SVG/1.1/DTD/svg11.dtd">
<!-- Generated by graphviz version 2.40.1 (20161225.0304)
 -->
<!-- Title: users Pages: 1 -->
<svg width="1706pt" height="802pt"
 viewBox="0.00 0.00 1706.00 802.00" xmlns="http://www.w3.org/2000/svg" xmlns:xlink="http://www.w3.org/1999/xlink">
<g id="graph0" class="graph" transform="scale(1 1) rotate(0) translate(4 798)">
<title>users</title>
<polygon fill="#ffffff" stroke="transparent" points="-4,4 -4,-798 1702,-798 1702,4 -4,4"/>
<!-- users -->
<g id="node1" class="node">
<title>users</title>
<polygon fill="#efefef" stroke="transparent" points="880.5,-195.5 880.5,-230.5 1085.5,-230.5 1085.5,-195.5 880.5,-195.5"/>
<polygon fill="none" stroke="#000000" points="880.5,-195.5 880.5,-230.5 1085.5,-230.5 1085.5,-195.5 880.5,-195.5"/>
<text text-anchor="start" x="912.3708" y="-208.3" font-family="Arial Bold" font-size="18.00" fill="#000000">users</text>
<text text-anchor="start" x="956.3754" y="-208.3" font-family="Arial" font-size="14.00" fill="#000000"> </text>
<text text-anchor="start" x="960.266" y="-208.3" font-family="Arial" font-size="14.00" fill="#666666">[BASE TABLE]</text>
<polygon fill="none" stroke="#000000" points="880.5,-165.5 880.5,-195.5 1085.5,-195.5 1085.5,-165.5 880.5,-165.5"/>
<text text-anchor="start" x="887.5" y="-176.9" font-family="Arial" font-size="14.00" fill="#000000">id </text>
<text text-anchor="start" x="902.2798" y="-176.9" font-family="Arial" font-size="14.00" fill="#666666">[char(36)]</text>
<polygon fill="none" stroke="#000000" points="880.5,-135.5 880.5,-165.5 1085.5,-165.5 1085.5,-135.5 880.5,-135.5"/>
<text text-anchor="start" x="887.5" y="-146.9" font-family="Arial" font-size="14.00" fill="#000000">code </text>
<text text-anchor="start" x="921.7384" y="-146.9" font-family="Arial" font-size="14.00" fill="#666666">[char(8)]</text>
<polygon fill="none" stroke="#000000" points="880.5,-105.5 880.5,-135.5 1085.5,-135.5 1085.5,-105.5 880.5,-105.5"/>
<text text-anchor="start" x="887.5" y="-116.9" font-family="Arial" font-size="14.00" fill="#000000">name </text>
<text text-anchor="start" x="926.399" y="-116.9" font-family="Arial" font-size="14.00" fill="#666666">[varchar(255)]</text>
<polygon fill="none" stroke="#000000" points="880.5,-75.5 880.5,-105.5 1085.5,-105.5 1085.5,-75.5 880.5,-75.5"/>
<text text-anchor="start" x="887.5" y="-86.9" font-family="Arial" font-size="14.00" fill="#000000">hashed_password </text>
<text text-anchor="start" x="1004.9838" y="-86.9" font-family="Arial" font-size="14.00" fill="#666666">[binary(60)]</text>
<polygon fill="none" stroke="#000000" points="880.5,-45.5 880.5,-75.5 1085.5,-75.5 1085.5,-45.5 880.5,-45.5"/>
<text text-anchor="start" x="887.3443" y="-56.9" font-family="Arial" font-size="14.00" fill="#000000">type </text>
<text text-anchor="start" x="917.6907" y="-56.9" font-family="Arial" font-size="14.00" fill="#666666">[enum(&#39;student&#39;,&#39;teacher&#39;)]</text>
<polygon fill="none" stroke="#000000" stroke-width="3" points="878.5,-44.5 878.5,-232.5 1086.5,-232.5 1086.5,-44.5 878.5,-44.5"/>
</g>
<!-- courses -->
<g id="node2" class="node">
<title>courses</title>
<polygon fill="#efefef" stroke="transparent" points="43.5,-715.5 43.5,-750.5 618.5,-750.5 618.5,-715.5 43.5,-715.5"/>
<polygon fill="none" stroke="#000000" points="43.5,-715.5 43.5,-750.5 618.5,-750.5 618.5,-715.5 43.5,-715.5"/>
<text text-anchor="start" x="250.8677" y="-728.3" font-family="Arial Bold" font-size="18.00" fill="#000000">courses</text>
<text text-anchor="start" x="313.8785" y="-728.3" font-family="Arial" font-size="14.00" fill="#000000"> </text>
<text text-anchor="start" x="317.7691" y="-728.3" font-family="Arial" font-size="14.00" fill="#666666">[BASE TABLE]</text>
<polygon fill="none" stroke="#000000" points="43.5,-685.5 43.5,-715.5 618.5,-715.5 618.5,-685.5 43.5,-685.5"/>
<text text-anchor="start" x="50.5" y="-696.9" font-family="Arial" font-size="14.00" fill="#000000">id </text>
<text text-anchor="start" x="65.2798" y="-696.9" font-family="Arial" font-size="14.00" fill="#666666">[char(36)]</text>
<polygon fill="none" stroke="#000000" points="43.5,-655.5 43.5,-685.5 618.5,-685.5 618.5,-655.5 43.5,-655.5"/>
<text text-anchor="start" x="50.5" y="-666.9" font-family="Arial" font-size="14.00" fill="#000000">code </text>
<text text-anchor="start" x="84.7384" y="-666.9" font-family="Arial" font-size="14.00" fill="#666666">[varchar(255)]</text>
<polygon fill="none" stroke="#000000" points="43.5,-625.5 43.5,-655.5 618.5,-655.5 618.5,-625.5 43.5,-625.5"/>
<text text-anchor="start" x="50.5" y="-636.9" font-family="Arial" font-size="14.00" fill="#000000">type </text>
<text text-anchor="start" x="80.8464" y="-636.9" font-family="Arial" font-size="14.00" fill="#666666">[enum(&#39;liberal&#45;arts&#39;,&#39;major&#45;subjects&#39;)]</text>
<polygon fill="none" stroke="#000000" points="43.5,-595.5 43.5,-625.5 618.5,-625.5 618.5,-595.5 43.5,-595.5"/>
<text text-anchor="start" x="50.5" y="-606.9" font-family="Arial" font-size="14.00" fill="#000000">name </text>
<text text-anchor="start" x="89.399" y="-606.9" font-family="Arial" font-size="14.00" fill="#666666">[varchar(255)]</text>
<polygon fill="none" stroke="#000000" points="43.5,-565.5 43.5,-595.5 618.5,-595.5 618.5,-565.5 43.5,-565.5"/>
<text text-anchor="start" x="50.5" y="-576.9" font-family="Arial" font-size="14.00" fill="#000000">description </text>
<text text-anchor="start" x="122.068" y="-576.9" font-family="Arial" font-size="14.00" fill="#666666">[text]</text>
<polygon fill="none" stroke="#000000" points="43.5,-535.5 43.5,-565.5 618.5,-565.5 618.5,-535.5 43.5,-535.5"/>
<text text-anchor="start" x="50.5" y="-546.9" font-family="Arial" font-size="14.00" fill="#000000">credit </text>
<text text-anchor="start" x="88.6136" y="-546.9" font-family="Arial" font-size="14.00" fill="#666666">[tinyint unsigned]</text>
<polygon fill="none" stroke="#000000" points="43.5,-505.5 43.5,-535.5 618.5,-535.5 618.5,-505.5 43.5,-505.5"/>
<text text-anchor="start" x="50.5" y="-516.9" font-family="Arial" font-size="14.00" fill="#000000">period </text>
<text text-anchor="start" x="93.2882" y="-516.9" font-family="Arial" font-size="14.00" fill="#666666">[tinyint unsigned]</text>
<polygon fill="none" stroke="#000000" points="43.5,-475.5 43.5,-505.5 618.5,-505.5 618.5,-475.5 43.5,-475.5"/>
<text text-anchor="start" x="50.2762" y="-486.9" font-family="Arial" font-size="14.00" fill="#000000">day_of_week </text>
<text text-anchor="start" x="136.6422" y="-486.9" font-family="Arial" font-size="14.00" fill="#666666">[enum(&#39;sunday&#39;,&#39;monday&#39;,&#39;tuesday&#39;,&#39;wednesday&#39;,&#39;thursday&#39;,&#39;friday&#39;,&#39;saturday&#39;)]</text>
<polygon fill="none" stroke="#000000" points="43.5,-445.5 43.5,-475.5 618.5,-475.5 618.5,-445.5 43.5,-445.5"/>
<text text-anchor="start" x="50.5" y="-456.9" font-family="Arial" font-size="14.00" fill="#000000">teacher_id </text>
<text text-anchor="start" x="119.744" y="-456.9" font-family="Arial" font-size="14.00" fill="#666666">[char(36)]</text>
<polygon fill="none" stroke="#000000" points="43.5,-415.5 43.5,-445.5 618.5,-445.5 618.5,-415.5 43.5,-415.5"/>
<text text-anchor="start" x="50.5" y="-426.9" font-family="Arial" font-size="14.00" fill="#000000">keywords </text>
<text text-anchor="start" x="113.5056" y="-426.9" font-family="Arial" font-size="14.00" fill="#666666">[text]</text>
<polygon fill="none" stroke="#000000" points="43.5,-385.5 43.5,-415.5 618.5,-415.5 618.5,-385.5 43.5,-385.5"/>
<text text-anchor="start" x="50.5" y="-396.9" font-family="Arial" font-size="14.00" fill="#000000">status </text>
<text text-anchor="start" x="91.737" y="-396.9" font-family="Arial" font-size="14.00" fill="#666666">[enum(&#39;registration&#39;,&#39;in&#45;progress&#39;,&#39;closed&#39;)]</text>
<polygon fill="none" stroke="#000000" points="43.5,-355.5 43.5,-385.5 618.5,-385.5 618.5,-355.5 43.5,-355.5"/>
<text text-anchor="start" x="50.5" y="-366.9" font-family="Arial" font-size="14.00" fill="#000000">created_at </text>
<text text-anchor="start" x="120.528" y="-366.9" font-family="Arial" font-size="14.00" fill="#666666">[datetime(6)]</text>
</g>
<!-- courses&#45;&gt;users -->
<g id="edge1" class="edge">
<title>courses:teacher_id&#45;&gt;users:id</title>
<path fill="none" stroke="#000000" d="M628.7442,-459.6854C681.4481,-450.4231 628.7056,-364.335 669.5,-313 738.3933,-226.3058 769.7653,-180.5 880.5,-180.5"/>
<polygon fill="#000000" stroke="#000000" points="628.4685,-459.7073 618.1433,-456.0142 623.4843,-460.1036 618.5,-460.5 618.5,-460.5 618.5,-460.5 623.4843,-460.1036 618.8567,-464.9858 628.4685,-459.7073 628.4685,-459.7073"/>
<text text-anchor="start" x="498.4965" y="-444.5" font-family="Arial" font-size="10.00" fill="#000000">FOREIGN KEY (teacher_id) REFERENCES users (id)</text>
</g>
<!-- registrations -->
<g id="node3" class="node">
<title>registrations</title>
<polygon fill="#efefef" stroke="transparent" points="722.5,-595.5 722.5,-630.5 931.5,-630.5 931.5,-595.5 722.5,-595.5"/>
<polygon fill="none" stroke="#000000" points="722.5,-595.5 722.5,-630.5 931.5,-630.5 931.5,-595.5 722.5,-595.5"/>
<text text-anchor="start" x="729.369" y="-608.3" font-family="Arial Bold" font-size="18.00" fill="#000000">registrations</text>
<text text-anchor="start" x="827.3772" y="-608.3" font-family="Arial" font-size="14.00" fill="#000000"> </text>
<text text-anchor="start" x="831.2678" y="-608.3" font-family="Arial" font-size="14.00" fill="#666666">[BASE TABLE]</text>
<polygon fill="none" stroke="#000000" points="722.5,-565.5 722.5,-595.5 931.5,-595.5 931.5,-565.5 722.5,-565.5"/>
<text text-anchor="start" x="729.5" y="-576.9" font-family="Arial" font-size="14.00" fill="#000000">course_id </text>
<text text-anchor="start" x="794.0708" y="-576.9" font-family="Arial" font-size="14.00" fill="#666666">[char(36)]</text>
<polygon fill="none" stroke="#000000" points="722.5,-535.5 722.5,-565.5 931.5,-565.5 931.5,-535.5 722.5,-535.5"/>
<text text-anchor="start" x="729.5" y="-546.9" font-family="Arial" font-size="14.00" fill="#000000">user_id </text>
<text text-anchor="start" x="779.2882" y="-546.9" font-family="Arial" font-size="14.00" fill="#666666">[char(36)]</text>
<polygon fill="none" stroke="#000000" points="722.5,-505.5 722.5,-535.5 931.5,-535.5 931.5,-505.5 722.5,-505.5"/>
<text text-anchor="start" x="729.5" y="-516.9" font-family="Arial" font-size="14.00" fill="#000000">created_at </text>
<text text-anchor="start" x="799.528" y="-516.9" font-family="Arial" font-size="14.00" fill="#666666">[datetime(6)]</text>
<polygon fill="none" stroke="#000000" points="722.5,-475.5 722.5,-505.5 931.5,-505.5 931.5,-475.5 722.5,-475.5"/>
<text text-anchor="start" x="729.5" y="-486.9" font-family="Arial" font-size="14.00" fill="#000000">deleted_at </text>
<text text-anchor="start" x="798.7566" y="-486.9" font-family="Arial" font-size="14.00" fill="#666666">[datetime(6)]</text>
</g>
<!-- registrations&#45;&gt;users -->
<g id="edge2" class="edge">
<title>registrations:user_id&#45;&gt;users:id</title>
<path fill="none" stroke="#000000" d="M941.867,-549.9484C1080.5712,-534.0656 718.2292,-180.5 880.5,-180.5"/>
<polygon fill="#000000" stroke="#000000" points="941.4859,-549.9686 931.2609,-546.0064 936.4929,-550.2343 931.5,-550.5 931.5,-550.5 931.5,-550.5 936.4929,-550.2343 931.7391,-554.9936 941.4859,-549.9686 941.4859,-549.9686"/>
<text text-anchor="start" x="938.445" y="-560.5" font-family="Arial" font-size="10.00" fill="#000000">FOREIGN KEY (user_id) REFERENCES users (id)</text>
</g>
<!-- submissions -->
<g id="node4" class="node">
<title>submissions</title>
<polygon fill="#efefef" stroke="transparent" points="1035.5,-625.5 1035.5,-660.5 1245.5,-660.5 1245.5,-625.5 1035.5,-625.5"/>
<polygon fill="none" stroke="#000000" points="1035.5,-625.5 1035.5,-660.5 1245.5,-660.5 1245.5,-625.5 1035.5,-625.5"/>
<text text-anchor="start" x="1042.3704" y="-638.3" font-family="Arial Bold" font-size="18.00" fill="#000000">submissions</text>
<text text-anchor="start" x="1141.3758" y="-638.3" font-family="Arial" font-size="14.00" fill="#000000"> </text>
<text text-anchor="start" x="1145.2664" y="-638.3" font-family="Arial" font-size="14.00" fill="#666666">[BASE TABLE]</text>
<polygon fill="none" stroke="#000000" points="1035.5,-595.5 1035.5,-625.5 1245.5,-625.5 1245.5,-595.5 1035.5,-595.5"/>
<text text-anchor="start" x="1042.5" y="-606.9" font-family="Arial" font-size="14.00" fill="#000000">id </text>
<text text-anchor="start" x="1057.2798" y="-606.9" font-family="Arial" font-size="14.00" fill="#666666">[char(36)]</text>
<polygon fill="none" stroke="#000000" points="1035.5,-565.5 1035.5,-595.5 1245.5,-595.5 1245.5,-565.5 1035.5,-565.5"/>
<text text-anchor="start" x="1042.5" y="-576.9" font-family="Arial" font-size="14.00" fill="#000000">user_id </text>
<text text-anchor="start" x="1092.2882" y="-576.9" font-family="Arial" font-size="14.00" fill="#666666">[char(36)]</text>
<polygon fill="none" stroke="#000000" points="1035.5,-535.5 1035.5,-565.5 1245.5,-565.5 1245.5,-535.5 1035.5,-535.5"/>
<text text-anchor="start" x="1042.5" y="-546.9" font-family="Arial" font-size="14.00" fill="#000000">class_id </text>
<text text-anchor="start" x="1096.9516" y="-546.9" font-family="Arial" font-size="14.00" fill="#666666">[char(36)]</text>
<polygon fill="none" stroke="#000000" points="1035.5,-505.5 1035.5,-535.5 1245.5,-535.5 1245.5,-505.5 1035.5,-505.5"/>
<text text-anchor="start" x="1042.5" y="-516.9" font-family="Arial" font-size="14.00" fill="#000000">name </text>
<text text-anchor="start" x="1081.399" y="-516.9" font-family="Arial" font-size="14.00" fill="#666666">[varchar(255)]</text>
<polygon fill="none" stroke="#000000" points="1035.5,-475.5 1035.5,-505.5 1245.5,-505.5 1245.5,-475.5 1035.5,-475.5"/>
<text text-anchor="start" x="1042.5" y="-486.9" font-family="Arial" font-size="14.00" fill="#000000">score </text>
<text text-anchor="start" x="1080.6164" y="-486.9" font-family="Arial" font-size="14.00" fill="#666666">[tinyint unsigned]</text>
<polygon fill="none" stroke="#000000" points="1035.5,-445.5 1035.5,-475.5 1245.5,-475.5 1245.5,-445.5 1035.5,-445.5"/>
<text text-anchor="start" x="1042.5" y="-456.9" font-family="Arial" font-size="14.00" fill="#000000">created_at </text>
<text text-anchor="start" x="1112.528" y="-456.9" font-family="Arial" font-size="14.00" fill="#666666">[datetime(6)]</text>
</g>
<!-- submissions&#45;&gt;users -->
<g id="edge3" class="edge">
<title>submissions:user_id&#45;&gt;users:id</title>
<path fill="none" stroke="#000000" d="M1025.3289,-579.8533C962.51,-571.1732 1021.382,-476.8537 1035.5,-403 1046.8123,-343.8235 1074.1877,-336.1765 1085.5,-277 1093.5529,-234.8739 1128.3889,-180.5 1085.5,-180.5"/>
<polygon fill="#000000" stroke="#000000" points="1025.5201,-579.8654 1035.2144,-584.9909 1030.5101,-580.1827 1035.5,-580.5 1035.5,-580.5 1035.5,-580.5 1030.5101,-580.1827 1035.7856,-576.0091 1025.5201,-579.8654 1025.5201,-579.8654"/>
<text text-anchor="start" x="1042.445" y="-590.5" font-family="Arial" font-size="10.00" fill="#000000">FOREIGN KEY (user_id) REFERENCES users (id)</text>
</g>
<!-- unread_announcements -->
<g id="node5" class="node">
<title>unread_announcements</title>
<polygon fill="#efefef" stroke="transparent" points="1350.5,-595.5 1350.5,-630.5 1655.5,-630.5 1655.5,-595.5 1350.5,-595.5"/>
<polygon fill="none" stroke="#000000" points="1350.5,-595.5 1350.5,-630.5 1655.5,-630.5 1655.5,-595.5 1350.5,-595.5"/>
<text text-anchor="start" x="1357.3333" y="-608.3" font-family="Arial Bold" font-size="18.00" fill="#000000">unread_announcements</text>
<text text-anchor="start" x="1551.4129" y="-608.3" font-family="Arial" font-size="14.00" fill="#000000"> </text>
<text text-anchor="start" x="1555.3035" y="-608.3" font-family="Arial" font-size="14.00" fill="#666666">[BASE TABLE]</text>
<polygon fill="none" stroke="#000000" points="1350.5,-565.5 1350.5,-595.5 1655.5,-595.5 1655.5,-565.5 1350.5,-565.5"/>
<text text-anchor="start" x="1357.5" y="-576.9" font-family="Arial" font-size="14.00" fill="#000000">announcement_id </text>
<text text-anchor="start" x="1472.657" y="-576.9" font-family="Arial" font-size="14.00" fill="#666666">[char(36)]</text>
<polygon fill="none" stroke="#000000" points="1350.5,-535.5 1350.5,-565.5 1655.5,-565.5 1655.5,-535.5 1350.5,-535.5"/>
<text text-anchor="start" x="1357.5" y="-546.9" font-family="Arial" font-size="14.00" fill="#000000">user_id </text>
<text text-anchor="start" x="1407.2882" y="-546.9" font-family="Arial" font-size="14.00" fill="#666666">[char(36)]</text>
<polygon fill="none" stroke="#000000" points="1350.5,-505.5 1350.5,-535.5 1655.5,-535.5 1655.5,-505.5 1350.5,-505.5"/>
<text text-anchor="start" x="1357.5" y="-516.9" font-family="Arial" font-size="14.00" fill="#000000">created_at </text>
<text text-anchor="start" x="1427.528" y="-516.9" font-family="Arial" font-size="14.00" fill="#666666">[datetime(6)]</text>
<polygon fill="none" stroke="#000000" points="1350.5,-475.5 1350.5,-505.5 1655.5,-505.5 1655.5,-475.5 1350.5,-475.5"/>
<text text-anchor="start" x="1357.5" y="-486.9" font-family="Arial" font-size="14.00" fill="#000000">deleted_at </text>
<text text-anchor="start" x="1426.7566" y="-486.9" font-family="Arial" font-size="14.00" fill="#666666">[datetime(6)]</text>
</g>
<!-- unread_announcements&#45;&gt;users -->
<g id="edge4" class="edge">
<title>unread_announcements:user_id&#45;&gt;users:id</title>
<path fill="none" stroke="#000000" d="M1340.4589,-550.0142C1249.9608,-540.6581 1357.9023,-398.3496 1297.5,-313 1233.3136,-222.3036 1196.6113,-180.5 1085.5,-180.5"/>
<polygon fill="#000000" stroke="#000000" points="1340.5117,-550.0166 1350.2825,-554.9947 1345.5058,-550.2583 1350.5,-550.5 1350.5,-550.5 1350.5,-550.5 1345.5058,-550.2583 1350.7175,-546.0053 1340.5117,-550.0166 1340.5117,-550.0166"/>
<text text-anchor="start" x="1177.445" y="-534.5" font-family="Arial" font-size="10.00" fill="#000000">FOREIGN KEY (user_id) REFERENCES users (id)</text>
</g>
</g>
</svg>
