<?xml version="1.0" encoding="UTF-8" standalone="no"?>
<!DOCTYPE svg PUBLIC "-//W3C//DTD SVG 1.1//EN"
 "http://www.w3.org/Graphics/SVG/1.1/DTD/svg11.dtd">
<!-- Generated by graphviz version 2.40.1 (20161225.0304)
 -->
<!-- Title: users Pages: 1 -->
<svg width="1611pt" height="592pt"
 viewBox="0.00 0.00 1611.00 592.00" xmlns="http://www.w3.org/2000/svg" xmlns:xlink="http://www.w3.org/1999/xlink">
<g id="graph0" class="graph" transform="scale(1 1) rotate(0) translate(4 588)">
<title>users</title>
<polygon fill="#ffffff" stroke="transparent" points="-4,4 -4,-588 1607,-588 1607,4 -4,4"/>
<!-- users -->
<g id="node1" class="node">
<title>users</title>
<polygon fill="#efefef" stroke="transparent" points="631.5,-195.5 631.5,-230.5 833.5,-230.5 833.5,-195.5 631.5,-195.5"/>
<polygon fill="none" stroke="#000000" points="631.5,-195.5 631.5,-230.5 833.5,-230.5 833.5,-195.5 631.5,-195.5"/>
<text text-anchor="start" x="661.8708" y="-208.3" font-family="Arial Bold" font-size="18.00" fill="#000000">users</text>
<text text-anchor="start" x="705.8754" y="-208.3" font-family="Arial" font-size="14.00" fill="#000000"> </text>
<text text-anchor="start" x="709.766" y="-208.3" font-family="Arial" font-size="14.00" fill="#666666">[BASE TABLE]</text>
<polygon fill="none" stroke="#000000" points="631.5,-165.5 631.5,-195.5 833.5,-195.5 833.5,-165.5 631.5,-165.5"/>
<text text-anchor="start" x="638.5" y="-176.9" font-family="Arial" font-size="14.00" fill="#000000">id </text>
<text text-anchor="start" x="653.2798" y="-176.9" font-family="Arial" font-size="14.00" fill="#666666">[char(36)]</text>
<polygon fill="none" stroke="#000000" points="631.5,-135.5 631.5,-165.5 833.5,-165.5 833.5,-135.5 631.5,-135.5"/>
<text text-anchor="start" x="638.5" y="-146.9" font-family="Arial" font-size="14.00" fill="#000000">name </text>
<text text-anchor="start" x="677.399" y="-146.9" font-family="Arial" font-size="14.00" fill="#666666">[varchar(255)]</text>
<polygon fill="none" stroke="#000000" points="631.5,-105.5 631.5,-135.5 833.5,-135.5 833.5,-105.5 631.5,-105.5"/>
<text text-anchor="start" x="638.5" y="-116.9" font-family="Arial" font-size="14.00" fill="#000000">mail_address </text>
<text text-anchor="start" x="725.6206" y="-116.9" font-family="Arial" font-size="14.00" fill="#666666">[varchar(255)]</text>
<polygon fill="none" stroke="#000000" points="631.5,-75.5 631.5,-105.5 833.5,-105.5 833.5,-75.5 631.5,-75.5"/>
<text text-anchor="start" x="638.3668" y="-86.9" font-family="Arial" font-size="14.00" fill="#000000">hashed_password </text>
<text text-anchor="start" x="755.8506" y="-86.9" font-family="Arial" font-size="14.00" fill="#666666">[binary(60)]</text>
<polygon fill="none" stroke="#000000" points="631.5,-45.5 631.5,-75.5 833.5,-75.5 833.5,-45.5 631.5,-45.5"/>
<text text-anchor="start" x="638.5" y="-56.9" font-family="Arial" font-size="14.00" fill="#000000">type </text>
<text text-anchor="start" x="668.8464" y="-56.9" font-family="Arial" font-size="14.00" fill="#666666">[enum(&#39;student&#39;,&#39;faculty&#39;)]</text>
<polygon fill="none" stroke="#000000" stroke-width="3" points="630,-44.5 630,-232.5 835,-232.5 835,-44.5 630,-44.5"/>
</g>
<!-- attendances -->
<g id="node2" class="node">
<title>attendances</title>
<polygon fill="#efefef" stroke="transparent" points="43.5,-475.5 43.5,-510.5 252.5,-510.5 252.5,-475.5 43.5,-475.5"/>
<polygon fill="none" stroke="#000000" points="43.5,-475.5 43.5,-510.5 252.5,-510.5 252.5,-475.5 43.5,-475.5"/>
<text text-anchor="start" x="50.3492" y="-488.3" font-family="Arial Bold" font-size="18.00" fill="#000000">attendances</text>
<text text-anchor="start" x="148.397" y="-488.3" font-family="Arial" font-size="14.00" fill="#000000"> </text>
<text text-anchor="start" x="152.2876" y="-488.3" font-family="Arial" font-size="14.00" fill="#666666">[BASE TABLE]</text>
<polygon fill="none" stroke="#000000" points="43.5,-445.5 43.5,-475.5 252.5,-475.5 252.5,-445.5 43.5,-445.5"/>
<text text-anchor="start" x="50.5" y="-456.9" font-family="Arial" font-size="14.00" fill="#000000">class_id </text>
<text text-anchor="start" x="104.9516" y="-456.9" font-family="Arial" font-size="14.00" fill="#666666">[char(36)]</text>
<polygon fill="none" stroke="#000000" points="43.5,-415.5 43.5,-445.5 252.5,-445.5 252.5,-415.5 43.5,-415.5"/>
<text text-anchor="start" x="50.5" y="-426.9" font-family="Arial" font-size="14.00" fill="#000000">user_id </text>
<text text-anchor="start" x="100.2882" y="-426.9" font-family="Arial" font-size="14.00" fill="#666666">[char(36)]</text>
<polygon fill="none" stroke="#000000" points="43.5,-385.5 43.5,-415.5 252.5,-415.5 252.5,-385.5 43.5,-385.5"/>
<text text-anchor="start" x="50.5" y="-396.9" font-family="Arial" font-size="14.00" fill="#000000">created_at </text>
<text text-anchor="start" x="120.528" y="-396.9" font-family="Arial" font-size="14.00" fill="#666666">[datetime(6)]</text>
</g>
<!-- attendances&#45;&gt;users -->
<g id="edge1" class="edge">
<title>attendances:user_id&#45;&gt;users:id</title>
<path fill="none" stroke="#000000" d="M262.567,-429.5052C303.8662,-420.3398 266.2082,-350.0981 304.5,-313 417.1236,-203.8872 474.689,-180.5 631.5,-180.5"/>
<polygon fill="#000000" stroke="#000000" points="262.4515,-429.5165 252.0574,-426.0218 257.4758,-430.0082 252.5,-430.5 252.5,-430.5 252.5,-430.5 257.4758,-430.0082 252.9426,-434.9782 262.4515,-429.5165 262.4515,-429.5165"/>
<text text-anchor="start" x="139.445" y="-414.5" font-family="Arial" font-size="10.00" fill="#000000">FOREIGN KEY (user_id) REFERENCES users (id)</text>
</g>
<!-- grades -->
<g id="node3" class="node">
<title>grades</title>
<polygon fill="#efefef" stroke="transparent" points="356.5,-505.5 356.5,-540.5 522.5,-540.5 522.5,-505.5 356.5,-505.5"/>
<polygon fill="none" stroke="#000000" points="356.5,-505.5 356.5,-540.5 522.5,-540.5 522.5,-505.5 356.5,-505.5"/>
<text text-anchor="start" x="363.3646" y="-518.3" font-family="Arial Bold" font-size="18.00" fill="#000000">grades</text>
<text text-anchor="start" x="418.3816" y="-518.3" font-family="Arial" font-size="14.00" fill="#000000"> </text>
<text text-anchor="start" x="422.2722" y="-518.3" font-family="Arial" font-size="14.00" fill="#666666">[BASE TABLE]</text>
<polygon fill="none" stroke="#000000" points="356.5,-475.5 356.5,-505.5 522.5,-505.5 522.5,-475.5 356.5,-475.5"/>
<text text-anchor="start" x="363.5" y="-486.9" font-family="Arial" font-size="14.00" fill="#000000">id </text>
<text text-anchor="start" x="378.2798" y="-486.9" font-family="Arial" font-size="14.00" fill="#666666">[char(36)]</text>
<polygon fill="none" stroke="#000000" points="356.5,-445.5 356.5,-475.5 522.5,-475.5 522.5,-445.5 356.5,-445.5"/>
<text text-anchor="start" x="363.5" y="-456.9" font-family="Arial" font-size="14.00" fill="#000000">user_id </text>
<text text-anchor="start" x="413.2882" y="-456.9" font-family="Arial" font-size="14.00" fill="#666666">[char(36)]</text>
<polygon fill="none" stroke="#000000" points="356.5,-415.5 356.5,-445.5 522.5,-445.5 522.5,-415.5 356.5,-415.5"/>
<text text-anchor="start" x="363.5" y="-426.9" font-family="Arial" font-size="14.00" fill="#000000">course_id </text>
<text text-anchor="start" x="428.0708" y="-426.9" font-family="Arial" font-size="14.00" fill="#666666">[char(36)]</text>
<polygon fill="none" stroke="#000000" points="356.5,-385.5 356.5,-415.5 522.5,-415.5 522.5,-385.5 356.5,-385.5"/>
<text text-anchor="start" x="363.5" y="-396.9" font-family="Arial" font-size="14.00" fill="#000000">grade </text>
<text text-anchor="start" x="403.1816" y="-396.9" font-family="Arial" font-size="14.00" fill="#666666">[int unsigned]</text>
<polygon fill="none" stroke="#000000" points="356.5,-355.5 356.5,-385.5 522.5,-385.5 522.5,-355.5 356.5,-355.5"/>
<text text-anchor="start" x="363.5" y="-366.9" font-family="Arial" font-size="14.00" fill="#000000">created_at </text>
<text text-anchor="start" x="433.528" y="-366.9" font-family="Arial" font-size="14.00" fill="#666666">[datetime(6)]</text>
</g>
<!-- grades&#45;&gt;users -->
<g id="edge2" class="edge">
<title>grades:user_id&#45;&gt;users:id</title>
<path fill="none" stroke="#000000" d="M532.5861,-459.8243C587.684,-451.8216 550.5302,-374.3266 574.5,-313 597.8372,-253.2919 567.3932,-180.5 631.5,-180.5"/>
<polygon fill="#000000" stroke="#000000" points="532.4776,-459.8315 522.1992,-456.0101 527.4888,-460.1658 522.5,-460.5 522.5,-460.5 522.5,-460.5 527.4888,-460.1658 522.8008,-464.9899 532.4776,-459.8315 532.4776,-459.8315"/>
<text text-anchor="start" x="529.445" y="-470.5" font-family="Arial" font-size="10.00" fill="#000000">FOREIGN KEY (user_id) REFERENCES users (id)</text>
</g>
<!-- registrations -->
<g id="node4" class="node">
<title>registrations</title>
<polygon fill="#efefef" stroke="transparent" points="627.5,-490.5 627.5,-525.5 836.5,-525.5 836.5,-490.5 627.5,-490.5"/>
<polygon fill="none" stroke="#000000" points="627.5,-490.5 627.5,-525.5 836.5,-525.5 836.5,-490.5 627.5,-490.5"/>
<text text-anchor="start" x="634.369" y="-503.3" font-family="Arial Bold" font-size="18.00" fill="#000000">registrations</text>
<text text-anchor="start" x="732.3772" y="-503.3" font-family="Arial" font-size="14.00" fill="#000000"> </text>
<text text-anchor="start" x="736.2678" y="-503.3" font-family="Arial" font-size="14.00" fill="#666666">[BASE TABLE]</text>
<polygon fill="none" stroke="#000000" points="627.5,-460.5 627.5,-490.5 836.5,-490.5 836.5,-460.5 627.5,-460.5"/>
<text text-anchor="start" x="634.5" y="-471.9" font-family="Arial" font-size="14.00" fill="#000000">course_id </text>
<text text-anchor="start" x="699.0708" y="-471.9" font-family="Arial" font-size="14.00" fill="#666666">[char(36)]</text>
<polygon fill="none" stroke="#000000" points="627.5,-430.5 627.5,-460.5 836.5,-460.5 836.5,-430.5 627.5,-430.5"/>
<text text-anchor="start" x="634.5" y="-441.9" font-family="Arial" font-size="14.00" fill="#000000">user_id </text>
<text text-anchor="start" x="684.2882" y="-441.9" font-family="Arial" font-size="14.00" fill="#666666">[char(36)]</text>
<polygon fill="none" stroke="#000000" points="627.5,-400.5 627.5,-430.5 836.5,-430.5 836.5,-400.5 627.5,-400.5"/>
<text text-anchor="start" x="634.5" y="-411.9" font-family="Arial" font-size="14.00" fill="#000000">created_at </text>
<text text-anchor="start" x="704.528" y="-411.9" font-family="Arial" font-size="14.00" fill="#666666">[datetime(6)]</text>
<polygon fill="none" stroke="#000000" points="627.5,-370.5 627.5,-400.5 836.5,-400.5 836.5,-370.5 627.5,-370.5"/>
<text text-anchor="start" x="634.5" y="-381.9" font-family="Arial" font-size="14.00" fill="#000000">deleted_at </text>
<text text-anchor="start" x="703.7566" y="-381.9" font-family="Arial" font-size="14.00" fill="#666666">[datetime(6)]</text>
</g>
<!-- registrations&#45;&gt;users -->
<g id="edge3" class="edge">
<title>registrations:user_id&#45;&gt;users:id</title>
<path fill="none" stroke="#000000" d="M846.4645,-444.4063C885.8414,-434.9364 866.4004,-366.2505 836.5,-328 778.6775,-254.0299 689.3225,-350.9701 631.5,-277 605.0863,-243.2099 588.6111,-180.5 631.5,-180.5"/>
<polygon fill="#000000" stroke="#000000" points="846.4403,-444.4089 836.009,-441.0269 841.4702,-444.9544 836.5,-445.5 836.5,-445.5 836.5,-445.5 841.4702,-444.9544 836.991,-449.9731 846.4403,-444.4089 846.4403,-444.4089"/>
<text text-anchor="start" x="843.445" y="-455.5" font-family="Arial" font-size="10.00" fill="#000000">FOREIGN KEY (user_id) REFERENCES users (id)</text>
</g>
<!-- submissions -->
<g id="node5" class="node">
<title>submissions</title>
<polygon fill="#efefef" stroke="transparent" points="940.5,-505.5 940.5,-540.5 1150.5,-540.5 1150.5,-505.5 940.5,-505.5"/>
<polygon fill="none" stroke="#000000" points="940.5,-505.5 940.5,-540.5 1150.5,-540.5 1150.5,-505.5 940.5,-505.5"/>
<text text-anchor="start" x="947.3704" y="-518.3" font-family="Arial Bold" font-size="18.00" fill="#000000">submissions</text>
<text text-anchor="start" x="1046.3758" y="-518.3" font-family="Arial" font-size="14.00" fill="#000000"> </text>
<text text-anchor="start" x="1050.2664" y="-518.3" font-family="Arial" font-size="14.00" fill="#666666">[BASE TABLE]</text>
<polygon fill="none" stroke="#000000" points="940.5,-475.5 940.5,-505.5 1150.5,-505.5 1150.5,-475.5 940.5,-475.5"/>
<text text-anchor="start" x="947.5" y="-486.9" font-family="Arial" font-size="14.00" fill="#000000">id </text>
<text text-anchor="start" x="962.2798" y="-486.9" font-family="Arial" font-size="14.00" fill="#666666">[char(36)]</text>
<polygon fill="none" stroke="#000000" points="940.5,-445.5 940.5,-475.5 1150.5,-475.5 1150.5,-445.5 940.5,-445.5"/>
<text text-anchor="start" x="947.5" y="-456.9" font-family="Arial" font-size="14.00" fill="#000000">user_id </text>
<text text-anchor="start" x="997.2882" y="-456.9" font-family="Arial" font-size="14.00" fill="#666666">[char(36)]</text>
<polygon fill="none" stroke="#000000" points="940.5,-415.5 940.5,-445.5 1150.5,-445.5 1150.5,-415.5 940.5,-415.5"/>
<text text-anchor="start" x="947.5" y="-426.9" font-family="Arial" font-size="14.00" fill="#000000">assignment_id </text>
<text text-anchor="start" x="1041.6332" y="-426.9" font-family="Arial" font-size="14.00" fill="#666666">[char(36)]</text>
<polygon fill="none" stroke="#000000" points="940.5,-385.5 940.5,-415.5 1150.5,-415.5 1150.5,-385.5 940.5,-385.5"/>
<text text-anchor="start" x="947.5" y="-396.9" font-family="Arial" font-size="14.00" fill="#000000">name </text>
<text text-anchor="start" x="986.399" y="-396.9" font-family="Arial" font-size="14.00" fill="#666666">[varchar(255)]</text>
<polygon fill="none" stroke="#000000" points="940.5,-355.5 940.5,-385.5 1150.5,-385.5 1150.5,-355.5 940.5,-355.5"/>
<text text-anchor="start" x="947.5" y="-366.9" font-family="Arial" font-size="14.00" fill="#000000">created_at </text>
<text text-anchor="start" x="1017.528" y="-366.9" font-family="Arial" font-size="14.00" fill="#666666">[datetime(6)]</text>
</g>
<!-- submissions&#45;&gt;users -->
<g id="edge4" class="edge">
<title>submissions:user_id&#45;&gt;users:id</title>
<path fill="none" stroke="#000000" d="M930.4106,-459.8256C875.2746,-451.8376 912.0766,-374.4788 888.5,-313 865.6695,-253.4668 897.2607,-180.5 833.5,-180.5"/>
<polygon fill="#000000" stroke="#000000" points="930.5223,-459.833 940.1998,-464.99 935.5111,-460.1665 940.5,-460.5 940.5,-460.5 940.5,-460.5 935.5111,-460.1665 940.8002,-456.01 930.5223,-459.833 930.5223,-459.833"/>
<text text-anchor="start" x="947.445" y="-470.5" font-family="Arial" font-size="10.00" fill="#000000">FOREIGN KEY (user_id) REFERENCES users (id)</text>
</g>
<!-- unread_announcements -->
<g id="node6" class="node">
<title>unread_announcements</title>
<polygon fill="#efefef" stroke="transparent" points="1255.5,-490.5 1255.5,-525.5 1560.5,-525.5 1560.5,-490.5 1255.5,-490.5"/>
<polygon fill="none" stroke="#000000" points="1255.5,-490.5 1255.5,-525.5 1560.5,-525.5 1560.5,-490.5 1255.5,-490.5"/>
<text text-anchor="start" x="1262.3333" y="-503.3" font-family="Arial Bold" font-size="18.00" fill="#000000">unread_announcements</text>
<text text-anchor="start" x="1456.4129" y="-503.3" font-family="Arial" font-size="14.00" fill="#000000"> </text>
<text text-anchor="start" x="1460.3035" y="-503.3" font-family="Arial" font-size="14.00" fill="#666666">[BASE TABLE]</text>
<polygon fill="none" stroke="#000000" points="1255.5,-460.5 1255.5,-490.5 1560.5,-490.5 1560.5,-460.5 1255.5,-460.5"/>
<text text-anchor="start" x="1262.5" y="-471.9" font-family="Arial" font-size="14.00" fill="#000000">announcement_id </text>
<text text-anchor="start" x="1377.657" y="-471.9" font-family="Arial" font-size="14.00" fill="#666666">[char(36)]</text>
<polygon fill="none" stroke="#000000" points="1255.5,-430.5 1255.5,-460.5 1560.5,-460.5 1560.5,-430.5 1255.5,-430.5"/>
<text text-anchor="start" x="1262.5" y="-441.9" font-family="Arial" font-size="14.00" fill="#000000">user_id </text>
<text text-anchor="start" x="1312.2882" y="-441.9" font-family="Arial" font-size="14.00" fill="#666666">[char(36)]</text>
<polygon fill="none" stroke="#000000" points="1255.5,-400.5 1255.5,-430.5 1560.5,-430.5 1560.5,-400.5 1255.5,-400.5"/>
<text text-anchor="start" x="1262.5" y="-411.9" font-family="Arial" font-size="14.00" fill="#000000">created_at </text>
<text text-anchor="start" x="1332.528" y="-411.9" font-family="Arial" font-size="14.00" fill="#666666">[datetime(6)]</text>
<polygon fill="none" stroke="#000000" points="1255.5,-370.5 1255.5,-400.5 1560.5,-400.5 1560.5,-370.5 1255.5,-370.5"/>
<text text-anchor="start" x="1262.5" y="-381.9" font-family="Arial" font-size="14.00" fill="#000000">deleted_at </text>
<text text-anchor="start" x="1331.7566" y="-381.9" font-family="Arial" font-size="14.00" fill="#666666">[datetime(6)]</text>
</g>
<!-- unread_announcements&#45;&gt;users -->
<g id="edge5" class="edge">
<title>unread_announcements:user_id&#45;&gt;users:id</title>
<path fill="none" stroke="#000000" d="M1245.5373,-444.6156C1198.2961,-435.286 1245.4689,-354.4588 1202.5,-313 1077.1013,-192.008 1007.7524,-180.5 833.5,-180.5"/>
<polygon fill="#000000" stroke="#000000" points="1245.5392,-444.6157 1255.1021,-449.9824 1250.5196,-445.0578 1255.5,-445.5 1255.5,-445.5 1255.5,-445.5 1250.5196,-445.0578 1255.8979,-441.0176 1245.5392,-444.6157 1245.5392,-444.6157"/>
<text text-anchor="start" x="1082.445" y="-429.5" font-family="Arial" font-size="10.00" fill="#000000">FOREIGN KEY (user_id) REFERENCES users (id)</text>
</g>
</g>
</svg>
