<?xml version="1.0" encoding="UTF-8" standalone="no"?>
<!DOCTYPE svg PUBLIC "-//W3C//DTD SVG 1.1//EN"
 "http://www.w3.org/Graphics/SVG/1.1/DTD/svg11.dtd">
<!-- Generated by graphviz version 2.40.1 (20161225.0304)
 -->
<!-- Title: users Pages: 1 -->
<svg width="1984pt" height="742pt"
 viewBox="0.00 0.00 1984.00 742.00" xmlns="http://www.w3.org/2000/svg" xmlns:xlink="http://www.w3.org/1999/xlink">
<g id="graph0" class="graph" transform="scale(1 1) rotate(0) translate(4 738)">
<title>users</title>
<polygon fill="#ffffff" stroke="transparent" points="-4,4 -4,-738 1980,-738 1980,4 -4,4"/>
<!-- users -->
<g id="node1" class="node">
<title>users</title>
<polygon fill="#efefef" stroke="transparent" points="857.5,-195.5 857.5,-230.5 1059.5,-230.5 1059.5,-195.5 857.5,-195.5"/>
<polygon fill="none" stroke="#000000" points="857.5,-195.5 857.5,-230.5 1059.5,-230.5 1059.5,-195.5 857.5,-195.5"/>
<text text-anchor="start" x="887.8708" y="-208.3" font-family="Arial Bold" font-size="18.00" fill="#000000">users</text>
<text text-anchor="start" x="931.8754" y="-208.3" font-family="Arial" font-size="14.00" fill="#000000"> </text>
<text text-anchor="start" x="935.766" y="-208.3" font-family="Arial" font-size="14.00" fill="#666666">[BASE TABLE]</text>
<polygon fill="none" stroke="#000000" points="857.5,-165.5 857.5,-195.5 1059.5,-195.5 1059.5,-165.5 857.5,-165.5"/>
<text text-anchor="start" x="864.5" y="-176.9" font-family="Arial" font-size="14.00" fill="#000000">id </text>
<text text-anchor="start" x="879.2798" y="-176.9" font-family="Arial" font-size="14.00" fill="#666666">[char(36)]</text>
<polygon fill="none" stroke="#000000" points="857.5,-135.5 857.5,-165.5 1059.5,-165.5 1059.5,-135.5 857.5,-135.5"/>
<text text-anchor="start" x="864.5" y="-146.9" font-family="Arial" font-size="14.00" fill="#000000">name </text>
<text text-anchor="start" x="903.399" y="-146.9" font-family="Arial" font-size="14.00" fill="#666666">[varchar(255)]</text>
<polygon fill="none" stroke="#000000" points="857.5,-105.5 857.5,-135.5 1059.5,-135.5 1059.5,-105.5 857.5,-105.5"/>
<text text-anchor="start" x="864.5" y="-116.9" font-family="Arial" font-size="14.00" fill="#000000">mail_address </text>
<text text-anchor="start" x="951.6206" y="-116.9" font-family="Arial" font-size="14.00" fill="#666666">[varchar(255)]</text>
<polygon fill="none" stroke="#000000" points="857.5,-75.5 857.5,-105.5 1059.5,-105.5 1059.5,-75.5 857.5,-75.5"/>
<text text-anchor="start" x="864.3668" y="-86.9" font-family="Arial" font-size="14.00" fill="#000000">hashed_password </text>
<text text-anchor="start" x="981.8506" y="-86.9" font-family="Arial" font-size="14.00" fill="#666666">[binary(60)]</text>
<polygon fill="none" stroke="#000000" points="857.5,-45.5 857.5,-75.5 1059.5,-75.5 1059.5,-45.5 857.5,-45.5"/>
<text text-anchor="start" x="864.5" y="-56.9" font-family="Arial" font-size="14.00" fill="#000000">type </text>
<text text-anchor="start" x="894.8464" y="-56.9" font-family="Arial" font-size="14.00" fill="#666666">[enum(&#39;student&#39;,&#39;faculty&#39;)]</text>
<polygon fill="none" stroke="#000000" stroke-width="3" points="856,-44.5 856,-232.5 1061,-232.5 1061,-44.5 856,-44.5"/>
</g>
<!-- attendances -->
<g id="node2" class="node">
<title>attendances</title>
<polygon fill="#efefef" stroke="transparent" points="43.5,-550.5 43.5,-585.5 252.5,-585.5 252.5,-550.5 43.5,-550.5"/>
<polygon fill="none" stroke="#000000" points="43.5,-550.5 43.5,-585.5 252.5,-585.5 252.5,-550.5 43.5,-550.5"/>
<text text-anchor="start" x="50.3492" y="-563.3" font-family="Arial Bold" font-size="18.00" fill="#000000">attendances</text>
<text text-anchor="start" x="148.397" y="-563.3" font-family="Arial" font-size="14.00" fill="#000000"> </text>
<text text-anchor="start" x="152.2876" y="-563.3" font-family="Arial" font-size="14.00" fill="#666666">[BASE TABLE]</text>
<polygon fill="none" stroke="#000000" points="43.5,-520.5 43.5,-550.5 252.5,-550.5 252.5,-520.5 43.5,-520.5"/>
<text text-anchor="start" x="50.5" y="-531.9" font-family="Arial" font-size="14.00" fill="#000000">class_id </text>
<text text-anchor="start" x="104.9516" y="-531.9" font-family="Arial" font-size="14.00" fill="#666666">[char(36)]</text>
<polygon fill="none" stroke="#000000" points="43.5,-490.5 43.5,-520.5 252.5,-520.5 252.5,-490.5 43.5,-490.5"/>
<text text-anchor="start" x="50.5" y="-501.9" font-family="Arial" font-size="14.00" fill="#000000">user_id </text>
<text text-anchor="start" x="100.2882" y="-501.9" font-family="Arial" font-size="14.00" fill="#666666">[char(36)]</text>
<polygon fill="none" stroke="#000000" points="43.5,-460.5 43.5,-490.5 252.5,-490.5 252.5,-460.5 43.5,-460.5"/>
<text text-anchor="start" x="50.5" y="-471.9" font-family="Arial" font-size="14.00" fill="#000000">created_at </text>
<text text-anchor="start" x="120.528" y="-471.9" font-family="Arial" font-size="14.00" fill="#666666">[datetime(6)]</text>
</g>
<!-- attendances&#45;&gt;users -->
<g id="edge1" class="edge">
<title>attendances:user_id&#45;&gt;users:id</title>
<path fill="none" stroke="#000000" d="M262.8884,-504.792C332.644,-494.3969 242.884,-372.165 303.5,-313 394.0855,-224.5828 730.9167,-180.5 857.5,-180.5"/>
<polygon fill="#000000" stroke="#000000" points="262.4769,-504.82 252.194,-501.0104 257.4884,-505.16 252.5,-505.5 252.5,-505.5 252.5,-505.5 257.4884,-505.16 252.806,-509.9896 262.4769,-504.82 262.4769,-504.82"/>
<text text-anchor="start" x="139.445" y="-489.5" font-family="Arial" font-size="10.00" fill="#000000">FOREIGN KEY (user_id) REFERENCES users (id)</text>
</g>
<!-- courses -->
<g id="node3" class="node">
<title>courses</title>
<polygon fill="#efefef" stroke="transparent" points="356.5,-655.5 356.5,-690.5 625.5,-690.5 625.5,-655.5 356.5,-655.5"/>
<polygon fill="none" stroke="#000000" points="356.5,-655.5 356.5,-690.5 625.5,-690.5 625.5,-655.5 356.5,-655.5"/>
<text text-anchor="start" x="410.8677" y="-668.3" font-family="Arial Bold" font-size="18.00" fill="#000000">courses</text>
<text text-anchor="start" x="473.8785" y="-668.3" font-family="Arial" font-size="14.00" fill="#000000"> </text>
<text text-anchor="start" x="477.7691" y="-668.3" font-family="Arial" font-size="14.00" fill="#666666">[BASE TABLE]</text>
<polygon fill="none" stroke="#000000" points="356.5,-625.5 356.5,-655.5 625.5,-655.5 625.5,-625.5 356.5,-625.5"/>
<text text-anchor="start" x="363.5" y="-636.9" font-family="Arial" font-size="14.00" fill="#000000">id </text>
<text text-anchor="start" x="378.2798" y="-636.9" font-family="Arial" font-size="14.00" fill="#666666">[char(36)]</text>
<polygon fill="none" stroke="#000000" points="356.5,-595.5 356.5,-625.5 625.5,-625.5 625.5,-595.5 356.5,-595.5"/>
<text text-anchor="start" x="363.5" y="-606.9" font-family="Arial" font-size="14.00" fill="#000000">code </text>
<text text-anchor="start" x="397.7384" y="-606.9" font-family="Arial" font-size="14.00" fill="#666666">[varchar(255)]</text>
<polygon fill="none" stroke="#000000" points="356.5,-565.5 356.5,-595.5 625.5,-595.5 625.5,-565.5 356.5,-565.5"/>
<text text-anchor="start" x="363.4803" y="-576.9" font-family="Arial" font-size="14.00" fill="#000000">type </text>
<text text-anchor="start" x="393.8267" y="-576.9" font-family="Arial" font-size="14.00" fill="#666666">[enum(&#39;liberal&#45;arts&#39;,&#39;major&#45;subjects&#39;)]</text>
<polygon fill="none" stroke="#000000" points="356.5,-535.5 356.5,-565.5 625.5,-565.5 625.5,-535.5 356.5,-535.5"/>
<text text-anchor="start" x="363.5" y="-546.9" font-family="Arial" font-size="14.00" fill="#000000">name </text>
<text text-anchor="start" x="402.399" y="-546.9" font-family="Arial" font-size="14.00" fill="#666666">[varchar(255)]</text>
<polygon fill="none" stroke="#000000" points="356.5,-505.5 356.5,-535.5 625.5,-535.5 625.5,-505.5 356.5,-505.5"/>
<text text-anchor="start" x="363.5" y="-516.9" font-family="Arial" font-size="14.00" fill="#000000">description </text>
<text text-anchor="start" x="435.068" y="-516.9" font-family="Arial" font-size="14.00" fill="#666666">[text]</text>
<polygon fill="none" stroke="#000000" points="356.5,-475.5 356.5,-505.5 625.5,-505.5 625.5,-475.5 356.5,-475.5"/>
<text text-anchor="start" x="363.5" y="-486.9" font-family="Arial" font-size="14.00" fill="#000000">credit </text>
<text text-anchor="start" x="401.6136" y="-486.9" font-family="Arial" font-size="14.00" fill="#666666">[tinyint unsigned]</text>
<polygon fill="none" stroke="#000000" points="356.5,-445.5 356.5,-475.5 625.5,-475.5 625.5,-445.5 356.5,-445.5"/>
<text text-anchor="start" x="363.5" y="-456.9" font-family="Arial" font-size="14.00" fill="#000000">classroom </text>
<text text-anchor="start" x="431.1662" y="-456.9" font-family="Arial" font-size="14.00" fill="#666666">[varchar(255)]</text>
<polygon fill="none" stroke="#000000" points="356.5,-415.5 356.5,-445.5 625.5,-445.5 625.5,-415.5 356.5,-415.5"/>
<text text-anchor="start" x="363.5" y="-426.9" font-family="Arial" font-size="14.00" fill="#000000">capacity </text>
<text text-anchor="start" x="418.7356" y="-426.9" font-family="Arial" font-size="14.00" fill="#666666">[int unsigned]</text>
<polygon fill="none" stroke="#000000" points="356.5,-385.5 356.5,-415.5 625.5,-415.5 625.5,-385.5 356.5,-385.5"/>
<text text-anchor="start" x="363.5" y="-396.9" font-family="Arial" font-size="14.00" fill="#000000">teacher_id </text>
<text text-anchor="start" x="432.744" y="-396.9" font-family="Arial" font-size="14.00" fill="#666666">[char(36)]</text>
<polygon fill="none" stroke="#000000" points="356.5,-355.5 356.5,-385.5 625.5,-385.5 625.5,-355.5 356.5,-355.5"/>
<text text-anchor="start" x="363.5" y="-366.9" font-family="Arial" font-size="14.00" fill="#000000">keywords </text>
<text text-anchor="start" x="426.5056" y="-366.9" font-family="Arial" font-size="14.00" fill="#666666">[text]</text>
</g>
<!-- courses&#45;&gt;users -->
<g id="edge2" class="edge">
<title>courses:teacher_id&#45;&gt;users:id</title>
<path fill="none" stroke="#000000" d="M635.7154,-399.3513C667.0778,-391.3736 649.7335,-343.6409 677.5,-313 744.2046,-239.3902 758.1627,-180.5 857.5,-180.5"/>
<polygon fill="#000000" stroke="#000000" points="635.4374,-399.3825 624.9971,-396.0282 630.4687,-399.9412 625.5,-400.5 625.5,-400.5 625.5,-400.5 630.4687,-399.9412 626.0029,-404.9718 635.4374,-399.3825 635.4374,-399.3825"/>
<text text-anchor="start" x="568.9965" y="-384.5" font-family="Arial" font-size="10.00" fill="#000000">FOREIGN KEY (teacher_id) REFERENCES users (id)</text>
</g>
<!-- grades -->
<g id="node4" class="node">
<title>grades</title>
<polygon fill="#efefef" stroke="transparent" points="729.5,-580.5 729.5,-615.5 895.5,-615.5 895.5,-580.5 729.5,-580.5"/>
<polygon fill="none" stroke="#000000" points="729.5,-580.5 729.5,-615.5 895.5,-615.5 895.5,-580.5 729.5,-580.5"/>
<text text-anchor="start" x="736.3646" y="-593.3" font-family="Arial Bold" font-size="18.00" fill="#000000">grades</text>
<text text-anchor="start" x="791.3816" y="-593.3" font-family="Arial" font-size="14.00" fill="#000000"> </text>
<text text-anchor="start" x="795.2722" y="-593.3" font-family="Arial" font-size="14.00" fill="#666666">[BASE TABLE]</text>
<polygon fill="none" stroke="#000000" points="729.5,-550.5 729.5,-580.5 895.5,-580.5 895.5,-550.5 729.5,-550.5"/>
<text text-anchor="start" x="736.5" y="-561.9" font-family="Arial" font-size="14.00" fill="#000000">id </text>
<text text-anchor="start" x="751.2798" y="-561.9" font-family="Arial" font-size="14.00" fill="#666666">[char(36)]</text>
<polygon fill="none" stroke="#000000" points="729.5,-520.5 729.5,-550.5 895.5,-550.5 895.5,-520.5 729.5,-520.5"/>
<text text-anchor="start" x="736.5" y="-531.9" font-family="Arial" font-size="14.00" fill="#000000">user_id </text>
<text text-anchor="start" x="786.2882" y="-531.9" font-family="Arial" font-size="14.00" fill="#666666">[char(36)]</text>
<polygon fill="none" stroke="#000000" points="729.5,-490.5 729.5,-520.5 895.5,-520.5 895.5,-490.5 729.5,-490.5"/>
<text text-anchor="start" x="736.5" y="-501.9" font-family="Arial" font-size="14.00" fill="#000000">course_id </text>
<text text-anchor="start" x="801.0708" y="-501.9" font-family="Arial" font-size="14.00" fill="#666666">[char(36)]</text>
<polygon fill="none" stroke="#000000" points="729.5,-460.5 729.5,-490.5 895.5,-490.5 895.5,-460.5 729.5,-460.5"/>
<text text-anchor="start" x="736.5" y="-471.9" font-family="Arial" font-size="14.00" fill="#000000">grade </text>
<text text-anchor="start" x="776.1816" y="-471.9" font-family="Arial" font-size="14.00" fill="#666666">[int unsigned]</text>
<polygon fill="none" stroke="#000000" points="729.5,-430.5 729.5,-460.5 895.5,-460.5 895.5,-430.5 729.5,-430.5"/>
<text text-anchor="start" x="736.5" y="-441.9" font-family="Arial" font-size="14.00" fill="#000000">created_at </text>
<text text-anchor="start" x="806.528" y="-441.9" font-family="Arial" font-size="14.00" fill="#666666">[datetime(6)]</text>
</g>
<!-- grades&#45;&gt;users -->
<g id="edge3" class="edge">
<title>grades:user_id&#45;&gt;users:id</title>
<path fill="none" stroke="#000000" d="M905.6619,-535.0836C1003.2957,-526.5317 875.9685,-387.9684 857.5,-277 850.4589,-234.693 814.6111,-180.5 857.5,-180.5"/>
<polygon fill="#000000" stroke="#000000" points="905.4916,-535.0904 895.3157,-531.0038 900.4958,-535.2952 895.5,-535.5 895.5,-535.5 895.5,-535.5 900.4958,-535.2952 895.6843,-539.9962 905.4916,-535.0904 905.4916,-535.0904"/>
<text text-anchor="start" x="902.445" y="-545.5" font-family="Arial" font-size="10.00" fill="#000000">FOREIGN KEY (user_id) REFERENCES users (id)</text>
</g>
<!-- registrations -->
<g id="node5" class="node">
<title>registrations</title>
<polygon fill="#efefef" stroke="transparent" points="1000.5,-565.5 1000.5,-600.5 1209.5,-600.5 1209.5,-565.5 1000.5,-565.5"/>
<polygon fill="none" stroke="#000000" points="1000.5,-565.5 1000.5,-600.5 1209.5,-600.5 1209.5,-565.5 1000.5,-565.5"/>
<text text-anchor="start" x="1007.369" y="-578.3" font-family="Arial Bold" font-size="18.00" fill="#000000">registrations</text>
<text text-anchor="start" x="1105.3772" y="-578.3" font-family="Arial" font-size="14.00" fill="#000000"> </text>
<text text-anchor="start" x="1109.2678" y="-578.3" font-family="Arial" font-size="14.00" fill="#666666">[BASE TABLE]</text>
<polygon fill="none" stroke="#000000" points="1000.5,-535.5 1000.5,-565.5 1209.5,-565.5 1209.5,-535.5 1000.5,-535.5"/>
<text text-anchor="start" x="1007.5" y="-546.9" font-family="Arial" font-size="14.00" fill="#000000">course_id </text>
<text text-anchor="start" x="1072.0708" y="-546.9" font-family="Arial" font-size="14.00" fill="#666666">[char(36)]</text>
<polygon fill="none" stroke="#000000" points="1000.5,-505.5 1000.5,-535.5 1209.5,-535.5 1209.5,-505.5 1000.5,-505.5"/>
<text text-anchor="start" x="1007.5" y="-516.9" font-family="Arial" font-size="14.00" fill="#000000">user_id </text>
<text text-anchor="start" x="1057.2882" y="-516.9" font-family="Arial" font-size="14.00" fill="#666666">[char(36)]</text>
<polygon fill="none" stroke="#000000" points="1000.5,-475.5 1000.5,-505.5 1209.5,-505.5 1209.5,-475.5 1000.5,-475.5"/>
<text text-anchor="start" x="1007.5" y="-486.9" font-family="Arial" font-size="14.00" fill="#000000">created_at </text>
<text text-anchor="start" x="1077.528" y="-486.9" font-family="Arial" font-size="14.00" fill="#666666">[datetime(6)]</text>
<polygon fill="none" stroke="#000000" points="1000.5,-445.5 1000.5,-475.5 1209.5,-475.5 1209.5,-445.5 1000.5,-445.5"/>
<text text-anchor="start" x="1007.5" y="-456.9" font-family="Arial" font-size="14.00" fill="#000000">deleted_at </text>
<text text-anchor="start" x="1076.7566" y="-456.9" font-family="Arial" font-size="14.00" fill="#666666">[datetime(6)]</text>
</g>
<!-- registrations&#45;&gt;users -->
<g id="edge4" class="edge">
<title>registrations:user_id&#45;&gt;users:id</title>
<path fill="none" stroke="#000000" d="M990.18,-519.9019C864.6795,-504.1011 1209.125,-180.5 1059.5,-180.5"/>
<polygon fill="#000000" stroke="#000000" points="990.5168,-519.9214 1000.2396,-524.9925 995.5084,-520.2107 1000.5,-520.5 1000.5,-520.5 1000.5,-520.5 995.5084,-520.2107 1000.7604,-516.0075 990.5168,-519.9214 990.5168,-519.9214"/>
<text text-anchor="start" x="947.445" y="-504.5" font-family="Arial" font-size="10.00" fill="#000000">FOREIGN KEY (user_id) REFERENCES users (id)</text>
</g>
<!-- submissions -->
<g id="node6" class="node">
<title>submissions</title>
<polygon fill="#efefef" stroke="transparent" points="1313.5,-580.5 1313.5,-615.5 1523.5,-615.5 1523.5,-580.5 1313.5,-580.5"/>
<polygon fill="none" stroke="#000000" points="1313.5,-580.5 1313.5,-615.5 1523.5,-615.5 1523.5,-580.5 1313.5,-580.5"/>
<text text-anchor="start" x="1320.3704" y="-593.3" font-family="Arial Bold" font-size="18.00" fill="#000000">submissions</text>
<text text-anchor="start" x="1419.3758" y="-593.3" font-family="Arial" font-size="14.00" fill="#000000"> </text>
<text text-anchor="start" x="1423.2664" y="-593.3" font-family="Arial" font-size="14.00" fill="#666666">[BASE TABLE]</text>
<polygon fill="none" stroke="#000000" points="1313.5,-550.5 1313.5,-580.5 1523.5,-580.5 1523.5,-550.5 1313.5,-550.5"/>
<text text-anchor="start" x="1320.5" y="-561.9" font-family="Arial" font-size="14.00" fill="#000000">id </text>
<text text-anchor="start" x="1335.2798" y="-561.9" font-family="Arial" font-size="14.00" fill="#666666">[char(36)]</text>
<polygon fill="none" stroke="#000000" points="1313.5,-520.5 1313.5,-550.5 1523.5,-550.5 1523.5,-520.5 1313.5,-520.5"/>
<text text-anchor="start" x="1320.5" y="-531.9" font-family="Arial" font-size="14.00" fill="#000000">user_id </text>
<text text-anchor="start" x="1370.2882" y="-531.9" font-family="Arial" font-size="14.00" fill="#666666">[char(36)]</text>
<polygon fill="none" stroke="#000000" points="1313.5,-490.5 1313.5,-520.5 1523.5,-520.5 1523.5,-490.5 1313.5,-490.5"/>
<text text-anchor="start" x="1320.5" y="-501.9" font-family="Arial" font-size="14.00" fill="#000000">assignment_id </text>
<text text-anchor="start" x="1414.6332" y="-501.9" font-family="Arial" font-size="14.00" fill="#666666">[char(36)]</text>
<polygon fill="none" stroke="#000000" points="1313.5,-460.5 1313.5,-490.5 1523.5,-490.5 1523.5,-460.5 1313.5,-460.5"/>
<text text-anchor="start" x="1320.5" y="-471.9" font-family="Arial" font-size="14.00" fill="#000000">name </text>
<text text-anchor="start" x="1359.399" y="-471.9" font-family="Arial" font-size="14.00" fill="#666666">[varchar(255)]</text>
<polygon fill="none" stroke="#000000" points="1313.5,-430.5 1313.5,-460.5 1523.5,-460.5 1523.5,-430.5 1313.5,-430.5"/>
<text text-anchor="start" x="1320.5" y="-441.9" font-family="Arial" font-size="14.00" fill="#000000">created_at </text>
<text text-anchor="start" x="1390.528" y="-441.9" font-family="Arial" font-size="14.00" fill="#666666">[datetime(6)]</text>
</g>
<!-- submissions&#45;&gt;users -->
<g id="edge5" class="edge">
<title>submissions:user_id&#45;&gt;users:id</title>
<path fill="none" stroke="#000000" d="M1303.2937,-534.9638C1219.5145,-525.5096 1317.5684,-393.235 1261.5,-313 1199.9991,-224.991 1166.8683,-180.5 1059.5,-180.5"/>
<polygon fill="#000000" stroke="#000000" points="1303.5138,-534.9752 1313.2639,-539.9938 1308.5069,-535.2376 1313.5,-535.5 1313.5,-535.5 1313.5,-535.5 1308.5069,-535.2376 1313.7361,-531.0062 1303.5138,-534.9752 1303.5138,-534.9752"/>
<text text-anchor="start" x="1260.445" y="-519.5" font-family="Arial" font-size="10.00" fill="#000000">FOREIGN KEY (user_id) REFERENCES users (id)</text>
</g>
<!-- unread_announcements -->
<g id="node7" class="node">
<title>unread_announcements</title>
<polygon fill="#efefef" stroke="transparent" points="1628.5,-565.5 1628.5,-600.5 1933.5,-600.5 1933.5,-565.5 1628.5,-565.5"/>
<polygon fill="none" stroke="#000000" points="1628.5,-565.5 1628.5,-600.5 1933.5,-600.5 1933.5,-565.5 1628.5,-565.5"/>
<text text-anchor="start" x="1635.3333" y="-578.3" font-family="Arial Bold" font-size="18.00" fill="#000000">unread_announcements</text>
<text text-anchor="start" x="1829.4129" y="-578.3" font-family="Arial" font-size="14.00" fill="#000000"> </text>
<text text-anchor="start" x="1833.3035" y="-578.3" font-family="Arial" font-size="14.00" fill="#666666">[BASE TABLE]</text>
<polygon fill="none" stroke="#000000" points="1628.5,-535.5 1628.5,-565.5 1933.5,-565.5 1933.5,-535.5 1628.5,-535.5"/>
<text text-anchor="start" x="1635.5" y="-546.9" font-family="Arial" font-size="14.00" fill="#000000">announcement_id </text>
<text text-anchor="start" x="1750.657" y="-546.9" font-family="Arial" font-size="14.00" fill="#666666">[char(36)]</text>
<polygon fill="none" stroke="#000000" points="1628.5,-505.5 1628.5,-535.5 1933.5,-535.5 1933.5,-505.5 1628.5,-505.5"/>
<text text-anchor="start" x="1635.5" y="-516.9" font-family="Arial" font-size="14.00" fill="#000000">user_id </text>
<text text-anchor="start" x="1685.2882" y="-516.9" font-family="Arial" font-size="14.00" fill="#666666">[char(36)]</text>
<polygon fill="none" stroke="#000000" points="1628.5,-475.5 1628.5,-505.5 1933.5,-505.5 1933.5,-475.5 1628.5,-475.5"/>
<text text-anchor="start" x="1635.5" y="-486.9" font-family="Arial" font-size="14.00" fill="#000000">created_at </text>
<text text-anchor="start" x="1705.528" y="-486.9" font-family="Arial" font-size="14.00" fill="#666666">[datetime(6)]</text>
<polygon fill="none" stroke="#000000" points="1628.5,-445.5 1628.5,-475.5 1933.5,-475.5 1933.5,-445.5 1628.5,-445.5"/>
<text text-anchor="start" x="1635.5" y="-456.9" font-family="Arial" font-size="14.00" fill="#000000">deleted_at </text>
<text text-anchor="start" x="1704.7566" y="-456.9" font-family="Arial" font-size="14.00" fill="#666666">[datetime(6)]</text>
</g>
<!-- unread_announcements&#45;&gt;users -->
<g id="edge6" class="edge">
<title>unread_announcements:user_id&#45;&gt;users:id</title>
<path fill="none" stroke="#000000" d="M1618.2597,-519.8711C1541.5977,-509.6617 1640.1341,-377.7168 1575.5,-313 1491.8414,-229.2345 1177.8867,-180.5 1059.5,-180.5"/>
<polygon fill="#000000" stroke="#000000" points="1618.5188,-519.8869 1628.2241,-524.9915 1623.5094,-520.1935 1628.5,-520.5 1628.5,-520.5 1628.5,-520.5 1623.5094,-520.1935 1628.7759,-516.0085 1618.5188,-519.8869 1618.5188,-519.8869"/>
<text text-anchor="start" x="1575.445" y="-504.5" font-family="Arial" font-size="10.00" fill="#000000">FOREIGN KEY (user_id) REFERENCES users (id)</text>
</g>
</g>
</svg>
