<?xml version="1.0" encoding="utf-8"?>
<!-- Generator: Adobe Illustrator 25.1.0, SVG Export Plug-In . SVG Version: 6.00 Build 0)  -->
<svg version="1.1" id="favicon_x5F_Green" xmlns="http://www.w3.org/2000/svg" xmlns:xlink="http://www.w3.org/1999/xlink" x="0px"
	 y="0px" viewBox="0 0 1920 1080" style="enable-background:new 0 0 1920 1080;" xml:space="preserve">
<style type="text/css">
	.st0{fill:#19935C;}
</style>
<g>
	<g>
		<path class="st0" d="M987.4,848.1l32.6,68.1c14.4,30.1,51.6,51.4,83,47.4l79.9-10.1l-32.6-68.1c-14.4-30.1-51.6-51.4-83-47.4
			L987.4,848.1z"/>
	</g>
	<g>
		<path class="st0" d="M1111.4,785l56.4,50.3c24.9,22.2,67.4,27.4,94.9,11.6l69.8-40.2l-56.4-50.3c-24.9-22.2-67.4-27.4-94.9-11.6
			L1111.4,785z"/>
	</g>
	<g>
		<path class="st0" d="M1210.1,683.8l71.3,24.8c31.5,11,72.8-0.5,92.1-25.6l49.1-63.9l-71.3-24.8c-31.5-11-72.8,0.5-92.1,25.6
			L1210.1,683.8z"/>
	</g>
	<g>
		<path class="st0" d="M1263.8,560l74.7-11c33-4.9,64.3-34.2,69.7-65.4l13.9-79.4l-74.7,11c-33,4.9-64.3,34.2-69.7,65.4L1263.8,560z
			"/>
	</g>
	<g>
		<path class="st0" d="M1251,435.9l55.7-51c24.6-22.6,34.1-64.3,21.1-93.2l-33-73.5l-55.7,51c-24.6,22.6-34.1,64.3-21.1,93.2
			L1251,435.9z"/>
	</g>
	<g>
		<path class="st0" d="M1149.8,335.6l35.1-66.8c15.5-29.6,10.3-72-11.7-94.9l-55.9-58l-35.1,66.8c-15.5,29.6-10.3,72,11.7,94.9
			L1149.8,335.6z"/>
	</g>
	<g>
		<path class="st0" d="M932.6,848.1l-32.6,68.1c-14.4,30.1-51.6,51.4-83,47.4l-79.9-10.1l32.6-68.1c14.4-30.1,51.6-51.4,83-47.4
			L932.6,848.1z"/>
	</g>
	<g>
		<path class="st0" d="M808.6,785l-56.4,50.3c-24.9,22.2-67.4,27.4-94.9,11.6l-69.8-40.2l56.4-50.3c24.9-22.2,67.4-27.4,94.9-11.6
			L808.6,785z"/>
	</g>
	<g>
		<path class="st0" d="M709.9,683.8l-71.3,24.8c-31.5,11-72.8-0.5-92.1-25.6l-49.1-63.9l71.3-24.8c31.5-11,72.8,0.5,92.1,25.6
			L709.9,683.8z"/>
	</g>
	<g>
		<path class="st0" d="M656.2,560l-74.7-11c-33-4.9-64.3-34.2-69.7-65.4l-13.9-79.4l74.7,11c33,4.9,64.3,34.2,69.7,65.4L656.2,560z"
			/>
	</g>
	<g>
		<path class="st0" d="M669,435.9l-55.7-51c-24.6-22.6-34.1-64.3-21.1-93.2l33-73.5l55.7,51c24.6,22.6,34.1,64.3,21.1,93.2
			L669,435.9z"/>
	</g>
	<g>
		<path class="st0" d="M770.2,335.6l-35.1-66.8c-15.5-29.6-10.3-72,11.7-94.9l55.9-58l35.1,66.8c15.5,29.6,10.3,72-11.7,94.9
			L770.2,335.6z"/>
	</g>
</g>
<g>
	<path class="st0" d="M963.9,532.7c-11,0-22-1.3-30.6-4l-152.6-47.2v114l0,0c115.3,57.6,251,57.6,366.3,0l0,0v-114l-152.6,47.2
		C985.8,531.4,974.8,532.7,963.9,532.7z"/>
	<path class="st0" d="M764.3,492.2c-0.1-0.9-0.2-1.7-0.3-2.5c0,0,0-0.1,0-0.1c-0.1-0.8-0.3-1.6-0.5-2.3c0,0,0-0.1,0-0.1
		c-0.2-0.7-0.4-1.4-0.7-2.1c0,0,0-0.1-0.1-0.2c-0.2-0.7-0.5-1.3-0.8-1.9c0-0.1,0-0.1-0.1-0.2c-0.3-0.6-0.6-1.1-0.9-1.7
		c0-0.1-0.1-0.1-0.1-0.2c-0.3-0.5-0.7-1-1-1.5c0-0.1-0.1-0.1-0.1-0.2c-0.4-0.5-0.8-0.9-1.2-1.3c0-0.1-0.1-0.1-0.1-0.2
		c-0.4-0.4-0.8-0.8-1.2-1.2c-0.1,0-0.1-0.1-0.2-0.1c-0.4-0.4-0.9-0.7-1.3-1c-0.1,0-0.1-0.1-0.2-0.1c-0.5-0.3-0.9-0.6-1.4-0.8
		c-0.1,0-0.1-0.1-0.2-0.1c-0.5-0.3-1-0.5-1.5-0.7c-0.1,0-0.1-0.1-0.2-0.1c-0.5-0.2-1-0.4-1.5-0.5c-0.1,0-0.1,0-0.2-0.1
		c-0.5-0.2-1-0.3-1.5-0.4c-0.1,0-0.2,0-0.2,0c-0.5-0.1-1-0.2-1.6-0.3c-0.1,0-0.2,0-0.2,0c-0.5-0.1-1-0.1-1.6-0.1c-0.1,0-0.2,0-0.2,0
		c-0.1,0-0.2,0-0.4,0c-0.2,0-0.5,0-0.7,0c-0.3,0-0.6,0-0.9,0c-0.3,0-0.6,0.1-0.9,0.1c-0.3,0-0.6,0.1-0.8,0.1
		c-0.3,0.1-0.6,0.1-0.9,0.2c-0.3,0.1-0.6,0.1-0.8,0.2c-0.3,0.1-0.6,0.2-0.9,0.3c-0.3,0.1-0.5,0.2-0.8,0.3c-0.3,0.1-0.6,0.2-0.9,0.3
		c-0.3,0.1-0.5,0.2-0.8,0.3c-0.3,0.1-0.6,0.3-0.8,0.4c-0.2,0.1-0.5,0.2-0.7,0.4c-0.3,0.2-0.5,0.3-0.8,0.5c-0.2,0.1-0.5,0.3-0.7,0.5
		c-0.3,0.2-0.5,0.4-0.7,0.6c-0.2,0.2-0.4,0.3-0.6,0.5c-0.2,0.2-0.5,0.4-0.7,0.7c-0.2,0.2-0.4,0.4-0.6,0.6c-0.2,0.2-0.4,0.5-0.6,0.8
		c-0.2,0.2-0.4,0.4-0.5,0.6c-0.2,0.3-0.4,0.6-0.6,0.8c-0.1,0.2-0.3,0.4-0.4,0.7c-0.2,0.3-0.3,0.6-0.5,0.9c-0.1,0.2-0.3,0.5-0.4,0.7
		c-0.1,0.3-0.3,0.7-0.4,1c-0.1,0.3-0.2,0.5-0.3,0.8c-0.1,0.4-0.2,0.8-0.3,1.2c-0.1,0.3-0.1,0.5-0.2,0.8c-0.1,0.4-0.1,0.9-0.2,1.4
		c0,0.2-0.1,0.4-0.1,0.7c-0.1,0.7-0.1,1.4-0.1,2.2c0,0,0,0,0,0c0,0.2,0,0.6,0,1.2c0,0.5,0,1.2,0.1,2c0,0.8,0.1,1.7,0.1,2.8
		c0.1,1,0.1,2.2,0.2,3.5c0.1,1.9,0.2,4.1,0.4,6.5c0.1,1.6,0.2,3.3,0.3,5.1c0.4,7.1,1,15.8,1.6,25.3c0.3,4.8,0.6,9.8,0.9,15
		c0.6,9.1,1.2,18.7,1.8,28.4c0.2,2.8,0.4,5.6,0.5,8.4c1.3,19.6,2.6,39.5,3.7,56.8c0.2,2.5,0.3,4.9,0.5,7.2c1.1,16.5,2,30,2.5,37.6
		c0.1,2.2,1.2,4.1,2.8,5.3c0.5,0.4,1.1,0.8,1.8,1c0.9,0.3,1.8,0.5,2.8,0.5c0.7,0,1.4-0.1,2.1-0.3c0.4-0.1,0.9-0.3,1.3-0.5
		c0.6-0.3,1.2-0.7,1.7-1.2c0.3-0.3,0.6-0.6,0.9-1c0.4-0.5,0.7-1.2,1-1.8c0.2-0.4,0.3-0.9,0.4-1.4c0-0.2,0.1-0.5,0.1-0.7
		c2.1-31.8,11-164.8,11-195.4C764.4,494,764.4,493.1,764.3,492.2C764.3,492.2,764.3,492.2,764.3,492.2z"/>
	<path class="st0" d="M1192.4,448.7l-203-62.7c-13.8-4.3-37.2-4.3-51,0l-203,62.7c-0.6,0.2-1.1,0.3-1.6,0.5c0.5,0.2,1,0.3,1.6,0.5
		l45.4,14l157.6,48.7c13.8,4.3,37.2,4.3,51,0l157.6-48.7l45.4-14c0.6-0.2,1.1-0.3,1.6-0.5C1193.5,449,1192.9,448.8,1192.4,448.7z
		 M966.2,465.6c-22.8,0-41.2-10.6-41.2-23.7c0-6.7,4.9-12.8,12.7-17.1c7.4-4.1,17.4-6.6,28.5-6.6c12.5,0,23.7,3.2,31.2,8.2
		c6.2,4.2,10,9.6,10,15.5C1007.4,455,988.9,465.6,966.2,465.6z"/>
</g>
</svg>
