<?xml version="1.0" encoding="utf-8"?>
<!-- Generator: Adobe Illustrator 25.1.0, SVG Export Plug-In . SVG Version: 6.00 Build 0)  -->
<svg version="1.1" id="favicon_x5F_Green" xmlns="http://www.w3.org/2000/svg" xmlns:xlink="http://www.w3.org/1999/xlink" viewBox="0 0 1280 360">
<!--<svg version="1.1" id="favicon_x5F_Green" xmlns="http://www.w3.org/2000/svg" xmlns:xlink="http://www.w3.org/1999/xlink" viewBox="0 0 1920 1080">-->

<style type="text/css">
	.st0{fill:#19935C;}
</style>
<g id="Leaf_5_" transform="translate(-320 -360)">
	<path class="st0" d="M987.4,848.1l32.6,68.1c14.4,30.1,51.6,51.4,83,47.4l79.9-10.1l-32.6-68.1c-14.4-30.1-51.6-51.4-83-47.4
		L987.4,848.1z"/>
	<path class="st0" d="M1111.4,785l56.4,50.3c24.9,22.2,67.4,27.4,94.9,11.6l69.8-40.2l-56.4-50.3c-24.9-22.2-67.4-27.4-94.9-11.6
		L1111.4,785z"/>
	<path class="st0" d="M1210.1,683.8l71.3,24.8c31.5,11,72.8-0.5,92.1-25.6l49.1-63.9l-71.3-24.8c-31.5-11-72.8,0.5-92.1,25.6
		L1210.1,683.8z"/>
	<path class="st0" d="M1263.8,560l74.7-11c33-4.9,64.3-34.2,69.7-65.4l13.9-79.4l-74.7,11c-33,4.9-64.3,34.2-69.7,65.4L1263.8,560z"
		/>
	<path class="st0" d="M1251,435.9l55.7-51c24.6-22.6,34.1-64.3,21.1-93.2l-33-73.5l-55.7,51c-24.6,22.6-34.1,64.3-21.1,93.2
		L1251,435.9z"/>
	<path class="st0" d="M1149.8,335.6l35.1-66.8c15.5-29.6,10.3-72-11.7-94.9l-55.9-58l-35.1,66.8c-15.5,29.6-10.3,72,11.7,94.9
		L1149.8,335.6z"/>
	<path class="st0" d="M932.6,848.1l-32.6,68.1c-14.4,30.1-51.6,51.4-83,47.4l-79.9-10.1l32.6-68.1c14.4-30.1,51.6-51.4,83-47.4
		L932.6,848.1z"/>
	<path class="st0" d="M808.6,785l-56.4,50.3c-24.9,22.2-67.4,27.4-94.9,11.6l-69.8-40.2l56.4-50.3c24.9-22.2,67.4-27.4,94.9-11.6
		L808.6,785z"/>
	<path class="st0" d="M709.9,683.8l-71.3,24.8c-31.5,11-72.8-0.5-92.1-25.6l-49.1-63.9l71.3-24.8c31.5-11,72.8,0.5,92.1,25.6
		L709.9,683.8z"/>
	<path class="st0" d="M656.2,560l-74.7-11c-33-4.9-64.3-34.2-69.7-65.4l-13.9-79.4l74.7,11c33,4.9,64.3,34.2,69.7,65.4L656.2,560z"
		/>
	<path class="st0" d="M669,435.9l-55.7-51c-24.6-22.6-34.1-64.3-21.1-93.2l33-73.5l55.7,51c24.6,22.6,34.1,64.3,21.1,93.2L669,435.9
		z"/>
	<path class="st0" d="M770.2,335.6l-35.1-66.8c-15.5-29.6-10.3-72,11.7-94.9l55.9-58l35.1,66.8c15.5,29.6,10.3,72-11.7,94.9
		L770.2,335.6z"/>
</g>
<g id="Main_5_" transform="translate(-320 -360)">
	<g>
		<path class="st0" d="M1195.5,511.4c0-0.1,0-0.2,0-0.4c0-0.2,0-0.4-0.1-0.5c-0.1-0.6-0.1-1.2-0.2-1.8c0-0.2-0.1-0.4-0.1-0.6
			c-3.8,3.4-8.5,5.8-13.6,6.8c-1.9,0.4-3.9,0.6-5.9,0.6c-7.7,0-14.7-3-20-7.8c-0.1,0.6-0.1,1.3-0.1,2c0,1.9,0.6,12.2,1.5,27.4
			c0.4,6.8,0.9,14.5,1.4,22.9c0.5,7.4,1,15.3,1.5,23.5c0.4,6.7,0.9,13.7,1.3,20.7c0.2,3.5,0.5,7,0.7,10.5c0.7,10.2,1.3,20.5,2,30.4
			c0.4,6.2,0.8,12.2,1.2,18.1c0.8,12.6,1.6,24.2,2.2,33.9c0.6,9.3,1.1,16.9,1.4,22c0.3,4.1,3.6,7.2,7.7,7.2c4.1,0,7.4-3.1,7.7-7.2
			c0.5-7.6,1.4-20.6,2.4-36.7c0.1-1.4,0.2-2.9,0.3-4.4c0.6-9.3,1.3-19.5,1.9-30.1c0.8-13.5,1.7-27.6,2.5-41.5
			c0.3-5.4,0.6-10.8,0.9-16.1c0-0.5,0.1-1.1,0.1-1.6c0.5-8,0.9-15.9,1.3-23.3c0.3-5.9,0.6-11.5,0.8-16.8c0.2-3.4,0.3-6.7,0.4-9.8
			c0.1-3.1,0.2-6,0.3-8.7c0.2-6.5,0.4-11.9,0.4-15.7C1195.6,513.2,1195.5,512.3,1195.5,511.4z"/>
	</g>
	<path class="st0" d="M986.1,529.2c-8.6,2.6-19.5,4-30.5,4s-22-1.3-30.5-4L778.8,484l-8.6-2.7v7.7v113.4
		c39.6,19.5,81.7,32.3,124.7,38.5c18.4,2.7,37,4.1,55.6,4.3c28.5,0.3,57.1-2.2,85.2-7.6c36.2-7,71.7-18.7,105.4-35.3v-9.6v-23.6
		v-22.7v-65.2L986.1,529.2z"/>
	<path class="st0" d="M1183.7,449.2l-8.8-2.7l-169-52.2l-24.9-7.7c-2.7-0.8-5.7-1.5-9-2c-3.3-0.5-6.8-0.9-10.4-1
		c-11.2-0.6-23.1,0.4-31.5,3l-138.4,42.8l-62.4,19.3l-1.9,0.6c-0.5,0.2-0.9,0.3-1.4,0.4c0.4,0.1,0.9,0.3,1.4,0.4l2,0.6l11.1,3.4
		l26.6,8.2c0,0,0,0,0,0l6,1.9l5.4,1.7h0l21.1,6.5l130.4,40.3c13.8,4.3,37.1,4.3,50.9,0l136.6-42.2l56.8-17.6l9.3-2.9
		c0.5-0.2,0.9-0.3,1.4-0.4C1184.7,449.5,1184.2,449.4,1183.7,449.2z M957.9,464.4c-21.1,0-38.2-9.8-38.2-22c0-12.1,17.1-22,38.2-22
		c21.1,0,38.2,9.8,38.2,22C996.1,454.5,979,464.4,957.9,464.4z"/>
	<path class="st0" d="M1189.5,471.2c-1.4-1.4-3.1-2.5-4.8-3.4c-2.8-1.4-5.9-2.2-9.2-2.2c-0.6,0-1.2,0-1.9,0.1
		c-6.9,0.6-12.8,4.7-16,10.5c-1.6,2.9-2.5,6.2-2.5,9.8c0,4.5,1.5,8.7,4,12c3.7,5,9.7,8.3,16.4,8.3c3.4,0,6.5-0.8,9.4-2.3
		c2.5-1.3,4.7-3.1,6.4-5.2c2.2-2.7,3.7-5.9,4.3-9.4c0.2-1.1,0.3-2.3,0.3-3.4C1195.8,480.2,1193.4,474.9,1189.5,471.2z"/>
</g>
</svg>
