<?xml version="1.0" encoding="utf-8"?>
<!-- Generator: Adobe Illustrator 25.1.0, SVG Export Plug-In . SVG Version: 6.00 Build 0)  -->
<svg version="1.1" xmlns="http://www.w3.org/2000/svg" xmlns:xlink="http://www.w3.org/1999/xlink" viewBox="0 0 1920 360">
<style type="text/css">
	.st0{display:none;}
	.st1{display:inline;fill:#19935C;}
	.st2{fill:#FFFFFF;}
</style>
  <g id="背景_x28_使用時OFF_x29_" class="st0">
	<rect class="st1" width="1920" height="1080"/>
</g>
  <g id="Logo01_x5F_White"  transform="translate(0 -360)">
	<g id="Text_5_">
		<path class="st2" d="M598.5,602V454.9h27.2V602H598.5z"/>
    <path class="st2" d="M714.2,606.9c-25.2,0-61.1-6.9-63.3-49h27.2c1.2,23.6,22.8,26.2,33.7,26.2c6.9,0,36.1-0.8,36.1-21.6
			c0-10.7-6.4-14.7-19.7-17.7l-35.5-7.9c-18.9-4.2-39.5-14.9-39.5-42.9c0-31.6,30.4-43.9,59.2-43.9c12.3,0,30.8,2.2,44.3,14.5
			c8.5,7.7,11.7,14.7,14.5,31.8H744c-1-22.2-24.6-23.4-32-23.4c-4.8,0-32.2,0.4-32.2,19.5c0,8.5,5,15.1,20.8,18.5l38.3,8.5
			c11.3,2.4,36.9,11.1,36.9,39.9C775.7,586.5,753.1,606.9,714.2,606.9z"/>
    <path class="st2" d="M859.3,606.9c-39.5,0-61.3-23-61.3-62.9v-89.1h27.2v92.3c0,25.4,14.3,35.1,33.3,35.1
			c22.2,0,33.9-12.3,33.9-35.1v-92.3h27.2V544C919.5,590.5,890.9,606.9,859.3,606.9z"/>
    <path class="st2" d="M1014.7,606.9c-48.8,0-70.3-36.7-70.3-77c0-38.9,20-79.8,72.3-79.8c41.9,0,60.1,27.8,62.5,51.2h-28.8
			c-5.6-27.2-29-27.2-33-27.2c-23,0-44.1,18.5-44.1,55.4c0,34.5,18.5,53.6,41.1,53.6c9.7,0,19.3-3.6,26.8-10.9
			c6.7-6.4,8.1-11.5,9.3-19.7h28.8C1076.5,577,1057.8,606.9,1014.7,606.9z"/>
    <path class="st2" d="M1201.1,602v-66.9H1134V602h-27.2V454.9h27.2v57.2h67.1v-57.2h27.2V602H1201.1z"/>
    <path class="st2" d="M1326,606.9c-43.5,0-73.6-31-73.6-78.4c0-47.6,30.2-78.4,73.6-78.4c43.3,0,73.8,30.8,73.8,78.4
			C1399.8,575.8,1369.5,606.9,1326,606.9z M1326,474.7c-25.2,0-44.9,18.9-44.9,53.8c0,34.7,19.5,54,44.9,54
			c26.6,0,45.1-20.6,45.1-54C1371.1,495,1352.4,474.7,1326,474.7z"/>
    <path class="st2" d="M1422.5,602V454.9h27.2V579h81.6v23H1422.5z"/>
    <path class="st2" d="M1663.5,602l-10.9-31.6h-61.9l-10.9,31.6h-30l56.4-147.1h30.8l56.4,147.1H1663.5z M1625,491l-3.2-12.9
			l-3.4,12.9l-19.5,56.6h45.9L1625,491z"/>
    <path class="st2" d="M1801.4,602c-3-2.8-4.8-5-4.8-15.7v-17.7c0-10.5-3.2-24.2-18.9-24.2h-37.7V602h-27.2V454.9h69.3
			c27.4,0,45.3,16.9,45.3,39.9c0,9.7-3.2,18.5-9.1,25.2c-5.6,6.4-10.5,9.1-23,11.9c14.3,2,28.2,6.2,28.2,33.9v14.9
			c0,14.7,5.4,18.5,9.5,21.4H1801.4z M1778.4,477.9h-38.5v43.5h34.1c15.1,0,24.4-7.9,24.4-23
			C1798.3,485.1,1790.5,477.9,1778.4,477.9z"/>
	</g>
    <g id="Leaf_3_">
		<path class="st2" d="M276,685.8l-3.2,16.2l17.5-2.2c6.9-0.9,13.6-7.4,15-14.6l3.2-16.2l-17.5,2.2
			C284.1,672.1,277.4,678.7,276,685.8z"/>
      <path class="st2" d="M258.9,662.2c-6.8-1.2-15.2,3-18.7,9.4l-7.9,14.5l17.4,3.1c6.8,1.2,15.2-3,18.7-9.4l7.9-14.5L258.9,662.2z"/>
      <path class="st2" d="M198.6,660.1l16.1,7.3c6.3,2.9,15.5,0.8,20.4-4.6l11.2-12.2l-4.2-1.9c-13.2,2.5-26.2,4.6-38.7,6.2
			L198.6,660.1z"/>
      <path class="st2" d="M168.5,583.5l-15.2,6.5l11.7,13.2c4.6,5.2,13.8,7.1,20.5,4.2l15.2-6.5L189,587.8
			C184.5,582.6,175.3,580.7,168.5,583.5z"/>
      <path class="st2" d="M170.4,573.3l16.2-3.3l-8.8-15.3c-3.4-6-11.8-9.6-19-8.3c-4.4,4.2-8.1,8.4-11.2,12.5l3.5,6.1
			C154.6,571,163.2,574.7,170.4,573.3z"/>
      <path class="st2" d="M141.2,507.7l2.5,7.9c4.1-2.6,8.4-5.2,12.7-7.8L141.2,507.7z"/>
      <path class="st2" d="M178.1,530.1c-2.9,2.2-5.7,4.4-8.3,6.5l10.5,0.1L178.1,530.1z"/>
      <path class="st2" d="M166.3,487.6c0-3.2,1.9-7.5,10.7-10.3l0.6-0.2c-2.6-3.4-6.3-6-10.3-7l-16.1-3.9l1.4,17.6
			c0.6,6.9,6.8,13.9,13.9,15.7l3.1,0.8c1.8-1,3.7-2,5.5-3.1C167.9,494.5,166.3,490.6,166.3,487.6z"/>
      <path class="st2" d="M195.8,459c2.9-6.3,1-15.5-4.3-20.5l-12-11.4l-7.5,16c-2.9,6.3-1,15.5,4.3,20.5l11.2,10.5l1.5-0.4L195.8,459z
			"/>
      <path class="st2" d="M208.4,447.7l11.1-13.7c4.4-5.4,4.7-14.8,0.7-20.9l-8.9-13.9l-11.1,13.7c-4.4,5.4-4.7,14.8-0.7,20.9
			L208.4,447.7z"/>
      <path class="st2" d="M239.9,426.4l11.1-13.7c4.4-5.4,4.7-14.8,0.7-20.9l-8.9-13.9l-11.1,13.7c-4.4,5.4-4.7,14.8-0.7,20.9
			L239.9,426.4z"/>
      <path class="st2" d="M341.1,671.6l-16.4-1.9l3.6,17.3c1.4,6.8,8.5,13,15.7,13.8l16.4,1.9l-3.6-17.3
			C355.4,678.6,348.3,672.4,341.1,671.6z"/>
      <path class="st2" d="M373.3,662.8l-16.3,3.1l8.6,15.4c3.4,6.1,11.9,9.9,19.1,8.5l16.3-3.1l-8.6-15.4
			C389.1,665.3,380.5,661.5,373.3,662.8z"/>
      <path class="st2" d="M402.1,644.2l-15,7l12.1,12.8c4.8,5.1,14,6.7,20.6,3.6l15-7l-12.1-12.8C418,642.7,408.8,641.1,402.1,644.2z"
      />
      <path class="st2" d="M425.9,618.8l-13.2,10l14.6,10c3.3,2.3,7.8,3.1,12.1,2.5c-0.5-7.8-1.1-16.7-1.7-26.1
			C433.5,615.1,429.1,616.3,425.9,618.8z"/>
      <path class="st2" d="M432.9,601.3l4,1.6c-0.1-1.9-0.3-3.9-0.4-5.8L432.9,601.3z"/>
      <path class="st2" d="M480.3,590.3l-9.7-4c-0.3,5.5-0.7,11-1,16.4L480.3,590.3z"/>
      <path class="st2" d="M471.4,573.1c4.8-1.3,9.5-4.6,11.9-8.9l2.5-4.4c-4.6,2.6-9.2,5.2-14,7.8C471.6,569.4,471.5,571.2,471.4,573.1
			z"/>
      <path class="st2" d="M470.7,508.7c0,0.3,0,0.6,0,1c0,1.5-0.2,3-0.6,4.4c0.8,1.4,1.6,3.1,2.2,5c4.6-3.8,8.8-7.6,12.6-11.3
			l-10.1,0.2C473.5,508.1,472.1,508.3,470.7,508.7z"/>
      <path class="st2" d="M471.6,487.6c0,2.6-1.3,6.1-6.8,8.7c0.9,0.9,1.8,1.8,2.5,2.8l0.9-0.2c6.7-1.7,12.6-9.1,13.1-16.4l1.1-16.5
			l-17.1,4.4c-3.2,0.8-6.2,2.9-8.5,5.7l4,1.2C469.7,480.1,471.6,484.5,471.6,487.6z"/>
      <path class="st2" d="M438.1,459.6l6.1,12.6l2.7,0.8l11.1-10.8c4.9-4.7,6.4-13.8,3.5-20.3c-6.7-0.7-13.9-1.1-21.7-1
			C436.1,446,435.3,453.9,438.1,459.6z"/>
      <path class="st2" d="M428.7,441.3c-2.7,0.1-5.4,0.3-8.2,0.5l4.5,5.4L428.7,441.3z"/>
      <path class="st2" d="M422.1,398.6l-9.3,14.9c6.4-1.2,12.8-2.2,19.1-3.2L422.1,398.6z"/>
      <path class="st2" d="M402.9,410.9c3.7-5.9,2.9-15.2-1.8-20.9l-10.5-12.7l-9.4,15c-3.7,5.9-2.9,15.2,1.8,20.9l4.5,5.5
			c4.1-0.9,8.1-1.8,12.2-2.6L402.9,410.9z"/>
	</g>
    <g id="Main_3_">
		<path class="st2" d="M318.9,611.9c-6.4,0-12.7-0.3-19-0.7c-28.5,7.7-55.9,13.1-80.7,15.9c-15.9,1.8-30.8,2.6-44.2,2.4
			c-30.4-0.6-53.3-6.8-63.9-18.9c-16.7-19,0.4-48.5,40.5-78.9c6.6-5,13.9-10.1,21.7-15.1c6.8-4.4,14.1-8.8,21.8-13.1l-3.8-1.2
			c-7,3.8-13.7,7.7-20.1,11.6c-8,4.9-15.5,9.7-22.4,14.6c-51.3,35.9-74.4,71.7-54.7,94.2c28.2,32.3,135,26.1,248.9-11.9
			C334.9,611.6,326.9,611.9,318.9,611.9z"/>
      <path class="st2" d="M555.7,440.6c-16.8-19.2-61.5-24.8-119-18.2c-8.4,1-17,2.2-25.9,3.7c-21.3,3.6-43.8,8.6-67,15l4.7,1.4
			c22.1-5.8,43.4-10.1,63.3-12.9c8.5-1.2,16.7-2.1,24.7-2.8c45.9-3.8,81.2,1.8,95.2,17.9c17.4,19.9-2,51.2-46.1,83
			c-3.8,2.8-7.9,5.6-12.1,8.3c-0.1,0-0.1,0-0.2,0c0,0,0,0.1,0,0.1c-0.1,3-0.2,6.4-0.4,10.1c-0.1,2.1-0.2,4.4-0.3,6.7
			c2.9-1.7,5.8-3.4,8.6-5.2C546,507.7,577.7,465.8,555.7,440.6z"/>
      <g>
			<path class="st2" d="M464.9,525.2c0-0.1,0-0.1,0-0.2c0-0.1,0-0.2,0-0.3c0-0.4-0.1-0.7-0.1-1.1c0-0.1,0-0.2-0.1-0.4
				c-2.3,2-5.2,3.5-8.3,4.2c-1.2,0.2-2.4,0.4-3.6,0.4c-4.7,0-9-1.8-12.2-4.8c0,0.4-0.1,0.8-0.1,1.2c0,1.1,0.4,7.4,0.9,16.7
				c0.3,4.1,0.5,8.8,0.9,13.9c0.3,4.5,0.6,9.3,0.9,14.3c0.3,4.1,0.5,8.3,0.8,12.6c0.1,2.1,0.3,4.3,0.4,6.4
				c0.4,6.2,0.8,12.4,1.2,18.5c0.2,3.8,0.5,7.4,0.7,11c0.5,7.7,1,14.7,1.4,20.6c0.4,5.7,0.7,10.3,0.9,13.4c0.2,2.5,2.2,4.4,4.7,4.4
				c2.5,0,4.5-1.9,4.7-4.4c0.3-4.6,0.8-12.6,1.5-22.3c0.1-0.9,0.1-1.8,0.2-2.7c0.4-5.7,0.8-11.9,1.2-18.3c0.5-8.2,1-16.8,1.6-25.3
				c0.2-3.3,0.4-6.6,0.6-9.8c0-0.3,0-0.6,0.1-1c0.3-4.9,0.5-9.7,0.8-14.2c0.2-3.6,0.4-7,0.5-10.2c0.1-2.1,0.2-4.1,0.3-6
				c0.1-1.9,0.2-3.7,0.2-5.3c0.1-4,0.2-7.2,0.2-9.6C465,526.3,464.9,525.8,464.9,525.2z"/>
		</g>
      <path class="st2" d="M337.5,536c-5.2,1.6-11.9,2.4-18.6,2.4s-13.4-0.8-18.6-2.4l-89-27.5l-5.2-1.6v4.7v69
			c24.1,11.9,49.7,19.7,75.9,23.5c11.2,1.6,22.5,2.5,33.9,2.6c17.4,0.2,34.7-1.3,51.8-4.6c22.1-4.2,43.7-11.4,64.1-21.5v-5.8v-14.4
			v-13.8v-39.7L337.5,536z"/>
      <path class="st2" d="M457.8,487.4l-5.3-1.6l-102.9-31.8l-15.2-4.7c-1.6-0.5-3.5-0.9-5.5-1.2c-2-0.3-4.1-0.5-6.3-0.6
			c-6.8-0.3-14.1,0.3-19.2,1.8l-84.2,26l-38,11.7l-1.1,0.4c-0.3,0.1-0.6,0.2-0.8,0.3c0.3,0.1,0.5,0.2,0.8,0.3l1.2,0.4l6.8,2.1
			l16.2,5c0,0,0,0,0,0l3.7,1.1l3.3,1h0l12.9,4l79.4,24.5c8.4,2.6,22.6,2.6,31,0l83.2-25.7l34.6-10.7l5.6-1.7
			c0.3-0.1,0.6-0.2,0.8-0.3C458.3,487.5,458.1,487.5,457.8,487.4z M320.3,496.6c-12.8,0-23.3-6-23.3-13.4c0-7.4,10.4-13.4,23.3-13.4
			c12.8,0,23.3,6,23.3,13.4C343.6,490.6,333.2,496.6,320.3,496.6z"/>
      <path class="st2" d="M461.3,500.8c-0.9-0.8-1.9-1.5-2.9-2.1c-1.7-0.9-3.6-1.4-5.6-1.4c-0.4,0-0.8,0-1.1,0.1
			c-4.2,0.4-7.8,2.9-9.7,6.4c-1,1.8-1.5,3.8-1.5,6c0,2.7,0.9,5.3,2.4,7.3c2.3,3.1,5.9,5.1,10,5.1c2.1,0,4-0.5,5.7-1.4
			c1.5-0.8,2.8-1.9,3.9-3.2c1.3-1.6,2.2-3.6,2.6-5.7c0.1-0.7,0.2-1.4,0.2-2.1C465.1,506.2,463.6,503,461.3,500.8z"/>
	</g>
</g>
</svg>
