<?xml version="1.0" encoding="utf-8"?>
<!-- Generator: Adobe Illustrator 25.1.0, SVG Export Plug-In . SVG Version: 6.00 Build 0)  -->
<svg version="1.1" id="Logo02_x5F_Green" xmlns="http://www.w3.org/2000/svg" xmlns:xlink="http://www.w3.org/1999/xlink" x="0px"
	 y="0px" viewBox="0 0 1920 1080" style="enable-background:new 0 0 1920 1080;" xml:space="preserve">
<style type="text/css">
	.st0{fill:#19935C;}
</style>
<g id="Text">
	<path class="st0" d="M633.1,948.4v-71.2h13.2v71.2H633.1z"/>
	<path class="st0" d="M689,950.8c-12.2,0-29.5-3.3-30.6-23.7h13.2c0.6,11.4,11,12.7,16.3,12.7c3.3,0,17.5-0.4,17.5-10.4
		c0-5.2-3.1-7.1-9.6-8.6l-17.2-3.8c-9.2-2-19.1-7.2-19.1-20.8c0-15.3,14.7-21.3,28.7-21.3c5.9,0,14.9,1.1,21.5,7
		c4.1,3.7,5.7,7.1,7,15.4h-13.2C703,886.6,691.6,886,688,886c-2.3,0-15.6,0.2-15.6,9.5c0,4.1,2.4,7.3,10,9l18.5,4.1
		c5.5,1.2,17.8,5.4,17.8,19.3C718.8,940.9,707.9,950.8,689,950.8z"/>
	<path class="st0" d="M759.2,950.8c-19.1,0-29.6-11.1-29.6-30.4v-43.1h13.2v44.7c0,12.3,6.9,17,16.1,17c10.7,0,16.4-5.9,16.4-17
		v-44.7h13.2v43.1C788.4,942.9,774.6,950.8,759.2,950.8z"/>
	<path class="st0" d="M834.4,950.8c-23.6,0-34-17.7-34-37.3c0-18.8,9.7-38.6,35-38.6c20.3,0,29.1,13.5,30.2,24.8h-13.9
		c-2.7-13.2-14-13.2-16-13.2c-11.1,0-21.4,9-21.4,26.8c0,16.7,9,25.9,19.9,25.9c4.7,0,9.4-1.8,13-5.3c3.2-3.1,3.9-5.6,4.5-9.6h13.9
		C864.4,936.3,855.3,950.8,834.4,950.8z"/>
	<path class="st0" d="M924.6,948.4v-32.4h-32.5v32.4H879v-71.2h13.2v27.7h32.5v-27.7h13.2v71.2H924.6z"/>
	<path class="st0" d="M985.1,950.8c-21.1,0-35.6-15-35.6-37.9c0-23,14.6-37.9,35.6-37.9s35.7,14.9,35.7,37.9
		C1020.8,935.8,1006.2,950.8,985.1,950.8z M985.1,886.8c-12.2,0-21.7,9.2-21.7,26c0,16.8,9.5,26.1,21.7,26.1
		c12.9,0,21.8-9.9,21.8-26.1C1006.9,896.6,997.9,886.8,985.1,886.8z"/>
	<path class="st0" d="M1031.8,948.4v-71.2h13.2v60.1h39.5v11.1H1031.8z"/>
	<path class="st0" d="M1148.4,948.4l-5.3-15.3h-29.9l-5.3,15.3h-14.5l27.3-71.2h14.9l27.3,71.2H1148.4z M1129.8,894.7l-1.6-6.2
		l-1.7,6.2l-9.5,27.4h22.2L1129.8,894.7z"/>
	<path class="st0" d="M1215.1,948.4c-1.5-1.4-2.3-2.4-2.3-7.6v-8.6c0-5.1-1.6-11.7-9.2-11.7h-18.2v27.9h-13.2v-71.2h33.5
		c13.3,0,21.9,8.2,21.9,19.3c0,4.7-1.6,9-4.4,12.2c-2.7,3.1-5.1,4.4-11.1,5.8c6.9,1,13.7,3,13.7,16.4v7.2c0,7.1,2.6,9,4.6,10.3
		H1215.1z M1204,888.4h-18.6v21.1h16.5c7.3,0,11.8-3.8,11.8-11.1C1213.7,891.9,1209.9,888.4,1204,888.4z"/>
</g>
<g id="Leaf_1_">
	<path class="st0" d="M852.5,796.2l-4.9,36.4l38.5-7.3c15.1-2.9,29.2-18.2,31.3-34.3l4.9-36.4l-38.5,7.3
		C868.6,764.8,854.6,780.1,852.5,796.2z"/>
	<path class="st0" d="M814.7,742.4c-15.1-3-33.9,6.1-41.8,20.2l-18.1,32l38.4,7.6c15.1,3,33.9-6.1,41.8-20.2l18.1-32L814.7,742.4z"
		/>
	<path class="st0" d="M762.4,741.2l22.9-28.7l-24.8-9.1c-19.2,3.5-38.1,6.6-56.6,9.1l-22.7,28.6l36.8,13.5
		C732.4,759.9,752.3,753.9,762.4,741.2z"/>
	<path class="st0" d="M620.7,620.3c1.9,0.3,3.8,0.6,5.8,0.9c-1.2-18.2-2.5-37.7-3.7-57.2c-2.9,0.4-5.7,1-8.4,2.1l-34.3,13l24.7,30.4
		C608.7,614.3,614.4,618,620.7,620.3z"/>
	<path class="st0" d="M591.5,484.1l-17.4,4c-4.4,4.9-8.5,9.8-12.1,14.6l14,23.1c8,13.2,27.3,21,43.1,17.3l2.3-0.5
		c-1.2-19.3-2.5-38.1-3.5-55.3C609.6,483.5,600,482.1,591.5,484.1z"/>
	<path class="st0" d="M570.5,395.6l-13.7-1.3l2,8.5C562.6,400.4,566.5,398,570.5,395.6z"/>
	<path class="st0" d="M615.5,449.4c-5.3,4.3-10.4,8.5-15.1,12.8c0.3,0,0.6,0.1,0.9,0.1l15.1,1.4
		C616.1,458.7,615.8,453.9,615.5,449.4z"/>
	<path class="st0" d="M602.5,376.8c5.9-3.3,11.8-6.7,17.9-10c-4.7-4.5-6-9.3-6-13.3c0-6.8,3.8-16,21.8-22.1
		c-5.5-8-13.8-14.4-22.9-16.9l-35.4-9.8l1.9,39.1C580.5,356.9,590.1,370.4,602.5,376.8z"/>
	<path class="st0" d="M636,302.1l27.1,21l2.7-0.8l12.2-34.7c5.1-14.5-1.1-34.4-13.9-44.3l-29-22.5l-13,36.9
		C617,272.3,623.2,292.2,636,302.1z"/>
	<path class="st0" d="M712,264.9l19.8-33.8c7.8-13.3,5.4-34-5.3-46.2l-24.2-27.6l-19.8,33.8c-7.8,13.3-5.4,34,5.3,46.2L712,264.9z"
		/>
	<path class="st0" d="M772.2,217.7l25.5-29.8c10-11.7,11.3-32.5,2.9-46.4l-19-31.4l-25.5,29.8c-10,11.7-11.3,32.5-2.9,46.4
		L772.2,217.7z"/>
	<path class="st0" d="M1001.3,762.4l-36.1-6.4l5.6,38.8c2.2,15.3,17,29.9,33,32.8l36.1,6.4l-5.6-38.8
		C1032,780,1017.2,765.3,1001.3,762.4z"/>
	<path class="st0" d="M1070.7,743.8l-35.9,7.5l19.7,33.9c7.7,13.3,26.9,21.4,42.8,18.1l35.9-7.5l-19.7-33.9
		C1105.8,748.6,1086.6,740.5,1070.7,743.8z"/>
	<path class="st0" d="M1137.1,700.6l-34.3,13l24.7,30.4c9.7,12,29.9,17,45.1,11.2l34.3-13l-24.7-30.4
		C1172.5,699.8,1152.3,694.8,1137.1,700.6z"/>
	<path class="st0" d="M1187.9,644.5l-29.5,21.9l32.1,22.5c12.6,8.9,33.4,8.2,46.4-1.5l29.5-21.9l-32.1-22.5
		C1221.7,634.2,1200.9,634.9,1187.9,644.5z"/>
	<path class="st0" d="M1227.2,579.4l-22.8,28.7l36.8,13.5c14.5,5.3,34.4-0.7,44.5-13.4l22.8-28.7l-36.8-13.5
		C1257.2,560.7,1237.3,566.7,1227.2,579.4z"/>
	<path class="st0" d="M1314.4,502.9c-21.2,12.1-43.2,24-66.1,35.6l23.8,5.1c15.1,3.2,34-5.5,42.2-19.4l18.6-31.6l-0.6-0.1
		C1326.5,495.9,1320.5,499.4,1314.4,502.9z"/>
	<path class="st0" d="M1258.8,429.7l-0.7,3.1c16.5-11.9,31.3-23.9,44-35.6l-9.2,0.9C1277.6,399.8,1262.3,413.9,1258.8,429.7z"/>
	<path class="st0" d="M1310.7,304.4l-37.6,10.9c-6.5,1.9-12.6,6.2-17.5,11.8l12.2,3.8c19.6,6.1,23.7,15.7,23.7,22.7
		s-4.1,16.6-23.7,22.7l-23.8,7.4l-0.2,5.5l37.6-10.9c14.8-4.3,27.3-20.9,27.9-37.2L1310.7,304.4z"/>
	<path class="st0" d="M1261.4,242.4c-10.5-1.2-21.7-2-33.6-2.3l-5.3,4.2c-12.1,9.6-17.3,29.7-11.8,45l9.9,27.1l8.7,2.7l24.7-19.6
		c12.1-9.6,17.3-29.7,11.8-45L1261.4,242.4z"/>
	<path class="st0" d="M1163.2,242.3l13,21.6l20.3-23.6C1185.8,240.6,1174.7,241.3,1163.2,242.3z"/>
	<path class="st0" d="M1185.8,156.3l-16.9,19.7c8.8-1.5,17.6-2.9,26.3-4.2L1185.8,156.3z"/>
	<path class="st0" d="M1093.5,190.9c14.4-3.2,28.6-6.2,42.7-8.9c7.3-13.3,4.9-33.4-5.6-45.4l-24.2-27.6l-19.9,33.8
		c-7.8,13.3-5.5,34,5.2,46.2L1093.5,190.9z"/>
</g>
<g id="Main_1_">
	<path class="st0" d="M915.7,460.9L710,397.3V551l0,0c49.7,24.8,102.1,41.7,155.6,50.7c59.1-13.5,121.9-32.8,184.5-57.4
		c57.7-22.8,109.6-47.9,153.7-73.7v-73.3l-205.7,63.6c-11.5,3.6-26.4,5.4-41.2,5.4C942.1,466.2,927.3,464.4,915.7,460.9z"/>
	<path class="st0" d="M633.8,670.4c-0.2-3.4-0.5-7-0.7-10.7c0-0.4-0.1-0.8-0.1-1.3c-70.3-0.8-123-14.4-147.2-42.1
		c-36.7-42,0.4-106.9,88.2-173.9c13.3-10.2,27.8-20.4,43.4-30.6c0-1.1-0.1-1.9-0.1-2.3c0-1.3,0.1-2.7,0.2-4c0.1-1,0.2-2,0.3-3
		c-0.8,0.5-1.7,1-2.5,1.5c-16,9.9-31.1,19.8-45.3,29.6c-114.3,79.9-166,159.5-122.2,209.5c29.6,33.8,98.1,48.6,188.8,45.9
		c-1.2-2.8-1.9-5.9-2.1-9.1C634.2,677,634,673.8,633.8,670.4z"/>
	<path class="st0" d="M1472.2,239.2c-36.8-42.1-134-54.7-259.2-40.8c-18.4,2-37.4,4.7-56.9,7.8c-11.1,1.8-22.3,3.8-33.6,5.9
		c-1.8,0.3-3.6,0.7-5.4,1c-41.1,8-83.9,18.3-127.7,30.9c3.1,0.7,6.1,1.4,8.8,2.3l2,0.6c54.5-14.8,107.2-25.6,155.8-32.4
		c20.2-2.8,39.6-4.9,58.3-6.3c98.7-7.3,174.1,5.4,204.5,40.1c36.9,42.2-0.8,107.5-89.3,174.7c-17.9,13.6-38,27.3-59.9,40.9
		c-20.3,12.6-42.3,25.2-65.7,37.5c-41.3,21.7-87.1,42.7-136.6,62.2c-44,17.4-88.1,32.4-131.2,45.1c-77.5,22.8-152.1,38-218,45
		c-8.2,0.9-16.3,1.6-24.3,2.3c-0.6,9.5-1.2,17.6-1.6,24c-0.1,1.9-0.4,3.8-0.9,5.5c5.7-0.5,11.4-1.1,17.1-1.8
		c98.5-11.1,214.2-38.5,331.4-80.9c15.5-5.6,30.9-11.4,46.4-17.5c41.7-16.5,81.1-33.9,117.6-51.8c17.4-8.6,34.2-17.3,50.3-26
		c14.5-7.9,28.3-15.9,41.7-23.9C1447.1,392.8,1522.3,296.5,1472.2,239.2z"/>
	<path class="st0" d="M685.9,472.3c0.8-14.9,1.4-28.2,1.7-38.8c0.1-2.1,0.1-4.2,0.2-6.1c0.1-4.8,0.2-8.8,0.2-12.1c0-0.7,0-1.3,0-1.9
		c0-0.2,0-0.4,0-0.6c0-0.4,0-0.8-0.1-1.3c0-0.2,0-0.5-0.1-0.7c0-0.4-0.1-0.7-0.1-1.1c0-0.2-0.1-0.5-0.1-0.7c0-0.3-0.1-0.7-0.1-1
		c0-0.2-0.1-0.5-0.1-0.7c-0.1-0.3-0.1-0.6-0.2-0.9c-0.1-0.2-0.1-0.5-0.2-0.7c-0.1-0.3-0.1-0.6-0.2-0.9c-0.1-0.2-0.1-0.5-0.2-0.7
		c-0.1-0.3-0.2-0.6-0.2-0.8c0-0.1-0.1-0.2-0.1-0.3c0,0,0,0,0,0c0-0.1-0.1-0.2-0.1-0.3c-0.1-0.3-0.2-0.5-0.3-0.8
		c-0.1-0.2-0.2-0.4-0.3-0.6c-0.1-0.3-0.2-0.5-0.3-0.8c-0.1-0.2-0.2-0.4-0.3-0.6c-0.1-0.2-0.2-0.5-0.3-0.7c-0.1-0.2-0.2-0.4-0.3-0.6
		c-0.1-0.2-0.2-0.5-0.4-0.7c-0.1-0.2-0.2-0.4-0.3-0.6c-0.1-0.2-0.3-0.4-0.4-0.7c-0.1-0.2-0.2-0.4-0.3-0.5c-0.1-0.2-0.3-0.4-0.4-0.6
		c-0.1-0.2-0.2-0.3-0.4-0.5c-0.1-0.2-0.3-0.4-0.4-0.6c-0.1-0.2-0.3-0.3-0.4-0.5c-0.2-0.2-0.3-0.4-0.5-0.6c-0.1-0.2-0.3-0.3-0.4-0.5
		c-0.2-0.2-0.3-0.4-0.5-0.5c-0.1-0.1-0.3-0.3-0.4-0.4c-0.2-0.2-0.3-0.3-0.5-0.5c-0.1-0.1-0.3-0.3-0.4-0.4c-0.2-0.2-0.3-0.3-0.5-0.5
		c-0.2-0.1-0.3-0.2-0.5-0.4c-0.2-0.1-0.4-0.3-0.5-0.4c-0.2-0.1-0.3-0.2-0.5-0.3c-0.2-0.1-0.4-0.3-0.6-0.4c-0.2-0.1-0.3-0.2-0.5-0.3
		c-0.2-0.1-0.4-0.2-0.6-0.4c-0.2-0.1-0.3-0.2-0.5-0.3c-0.2-0.1-0.4-0.2-0.6-0.3c-0.2-0.1-0.4-0.2-0.5-0.3c-0.2-0.1-0.4-0.2-0.6-0.3
		c-0.2-0.1-0.4-0.2-0.5-0.2c-0.2-0.1-0.4-0.2-0.6-0.3c-0.2-0.1-0.4-0.1-0.6-0.2c-0.2-0.1-0.4-0.2-0.6-0.2c-0.2-0.1-0.4-0.1-0.6-0.2
		c-0.2-0.1-0.4-0.1-0.6-0.2c-0.2-0.1-0.4-0.1-0.6-0.2c-0.2-0.1-0.4-0.1-0.6-0.2c-0.2,0-0.4-0.1-0.6-0.1c-0.2,0-0.4-0.1-0.6-0.1
		c-0.2,0-0.4-0.1-0.6-0.1c-0.2,0-0.4-0.1-0.6-0.1c-0.2,0-0.4-0.1-0.6-0.1c-0.2,0-0.4-0.1-0.6-0.1c-0.2,0-0.4,0-0.6-0.1
		c-0.2,0-0.4,0-0.6,0c-0.2,0-0.4,0-0.6,0c-0.2,0-0.4,0-0.6,0c-0.1,0-0.2,0-0.3,0c0,0,0,0,0,0c0,0,0,0-0.1,0c-0.1,0-0.2,0-0.3,0
		c-0.2,0-0.4,0-0.6,0c-0.2,0-0.4,0-0.6,0c-0.2,0-0.4,0-0.6,0c-0.2,0-0.4,0-0.6,0.1c-0.2,0-0.4,0-0.6,0.1c-0.2,0-0.4,0.1-0.6,0.1
		c-0.2,0-0.4,0.1-0.6,0.1c-0.2,0-0.4,0.1-0.6,0.1c-0.2,0-0.4,0.1-0.6,0.1c-0.2,0-0.4,0.1-0.6,0.1c-0.2,0-0.4,0.1-0.6,0.1
		c-0.2,0.1-0.4,0.1-0.6,0.2c-0.2,0.1-0.4,0.1-0.5,0.2c-0.2,0.1-0.4,0.1-0.6,0.2c-0.2,0.1-0.4,0.1-0.5,0.2c-0.2,0.1-0.4,0.1-0.6,0.2
		c-0.2,0.1-0.4,0.1-0.5,0.2c-0.2,0.1-0.4,0.2-0.6,0.2c-0.2,0.1-0.3,0.2-0.5,0.2c-0.2,0.1-0.4,0.2-0.6,0.3c-0.2,0.1-0.3,0.2-0.5,0.3
		c-0.1,0.1-0.2,0.1-0.4,0.2c-0.1,0-0.1,0.1-0.2,0.1c-0.2,0.1-0.3,0.2-0.5,0.3c-0.2,0.1-0.4,0.2-0.5,0.3c-0.2,0.1-0.3,0.2-0.5,0.3
		c0,0-0.1,0-0.1,0c-0.2,0.1-0.3,0.2-0.5,0.3c-0.2,0.1-0.3,0.2-0.5,0.3c-0.2,0.1-0.3,0.3-0.5,0.4c-0.1,0.1-0.3,0.2-0.4,0.3
		c-0.2,0.1-0.3,0.3-0.5,0.4c-0.1,0.1-0.3,0.2-0.4,0.4c-0.2,0.1-0.3,0.3-0.5,0.4c-0.1,0.1-0.3,0.2-0.4,0.4c-0.2,0.2-0.3,0.3-0.5,0.5
		c-0.1,0.1-0.3,0.3-0.4,0.4c-0.1,0.2-0.3,0.3-0.4,0.5c-0.1,0.1-0.2,0.3-0.4,0.4c-0.1,0.2-0.3,0.3-0.4,0.5c-0.1,0.1-0.2,0.3-0.3,0.4
		c-0.1,0.2-0.3,0.4-0.4,0.5c-0.1,0.2-0.2,0.3-0.3,0.5c-0.1,0.2-0.2,0.4-0.4,0.6c-0.1,0.2-0.2,0.3-0.3,0.5c-0.1,0.2-0.2,0.4-0.3,0.6
		c-0.1,0.2-0.2,0.3-0.3,0.5c-0.1,0.2-0.2,0.4-0.3,0.6c0,0,0,0,0,0c0,0,0,0,0,0c-0.1,0.2-0.2,0.3-0.2,0.5c-0.1,0.2-0.2,0.4-0.3,0.7
		c-0.1,0.2-0.1,0.3-0.2,0.5c-0.1,0.2-0.2,0.5-0.2,0.7c-0.1,0.2-0.1,0.4-0.2,0.5c-0.1,0.2-0.1,0.5-0.2,0.7c-0.1,0.2-0.1,0.4-0.2,0.5
		c-0.1,0.2-0.1,0.5-0.2,0.8c0,0.2-0.1,0.4-0.1,0.6c-0.1,0.3-0.1,0.5-0.1,0.8c0,0.2-0.1,0.4-0.1,0.6c0,0.3-0.1,0.6-0.1,0.9
		c0,0.2,0,0.3-0.1,0.5c0,0.3-0.1,0.7-0.1,1c0,0.1,0,0.3,0,0.4c0,0.5,0,1,0,1.5c0,2,0.5,11.5,1.4,25.8c0,0,0,0,0,0
		c0.3,5,0.6,10.6,1,16.7c0,0.7,0.1,1.5,0.1,2.2c0.1,1.2,0.1,2.4,0.2,3.6c0.1,1.5,0.2,3,0.3,4.5c0.1,1,0.1,1.9,0.2,2.9
		c0.1,2.1,0.3,4.3,0.4,6.5c0.1,0.8,0.1,1.6,0.2,2.4c0.1,1.6,0.2,3.3,0.3,4.9c0.4,5.8,0.8,11.9,1.1,18.1c0.1,1.8,0.2,3.6,0.3,5.4
		c0.1,0.9,0.1,1.8,0.2,2.7c0,0.6,0.1,1.3,0.1,1.9c0.1,2.1,0.3,4.2,0.4,6.3c0.2,2.8,0.4,5.5,0.5,8.3c0.1,0.9,0.1,1.9,0.2,2.8
		c0.2,3.7,0.5,7.5,0.7,11.3c0,0.7,0.1,1.5,0.1,2.2c0,0.2,0,0.4,0,0.6c0.2,3.8,0.5,7.6,0.7,11.4c0.3,4.7,0.6,9.5,0.9,14.2
		c0,0.5,0.1,0.9,0.1,1.4c0.1,1.4,0.2,2.8,0.3,4.2c0.1,0.9,0.1,1.9,0.2,2.8c0.2,2.8,0.4,5.6,0.5,8.4c0.1,1,0.1,2,0.2,2.9
		c0.1,1.8,0.2,3.6,0.3,5.3c0.1,1,0.1,1.9,0.2,2.9c0.2,2.6,0.3,5.2,0.5,7.7c0,0.1,0,0.2,0,0.3c0.1,1.7,0.2,3.4,0.3,5.1
		c0.1,1.7,0.2,3.5,0.3,5.2c0.1,1.7,0.2,3.4,0.3,5.1c0.1,2.1,0.3,4.1,0.4,6.1c0,0.4,0.1,0.9,0.1,1.3c0,0,0,0.1,0,0.1
		c0.2,2.4,0.3,4.8,0.5,7.1c0.1,1.6,0.2,3.1,0.3,4.6c0.1,1.5,0.2,3,0.3,4.5c0,0.7,0.1,1.5,0.1,2.2c0.1,1.5,0.2,2.9,0.3,4.3
		c0,0.2,0,0.3,0,0.5c0.1,1.9,0.2,3.8,0.4,5.6c0.1,1.3,0.2,2.6,0.3,3.9c0,0.8,0.1,1.5,0.1,2.2c0,0.5,0.1,1,0.1,1.5
		c0,0.6,0.1,1.2,0.1,1.8c0.1,1.2,0.2,2.3,0.2,3.4c0.4,5.5,0.7,10.2,0.9,13.9c0,0.7,0.1,1.3,0.3,1.9c0.2,0.8,0.5,1.5,0.9,2.2
		c0.4,0.7,0.8,1.3,1.3,1.9c1,1.1,2.3,2,3.7,2.6c0.6,0.2,1.2,0.4,1.8,0.5c0.1,0,0.3,0,0.4,0.1c0.5,0.1,1,0.1,1.5,0.1
		c0.7,0,1.3-0.1,1.9-0.2c0.3-0.1,0.6-0.1,0.9-0.2c1.5-0.4,2.9-1.2,4-2.3c1.8-1.7,3-4,3.1-6.6c0.4-5.3,0.8-12.6,1.4-21.4c0,0,0,0,0,0
		c0.4-6.4,0.9-13.5,1.4-21.3c0.2-3.7,0.5-7.5,0.7-11.4h0c0.1-1.4,0.2-2.7,0.3-4.1c0.1-1.4,0.2-2.8,0.3-4.2c0.1-1.6,0.2-3.2,0.3-4.8
		c0.1-1.4,0.2-2.9,0.3-4.4c0.1-1.7,0.2-3.3,0.3-5c0.1-2.1,0.3-4.3,0.4-6.4c0.2-2.7,0.3-5.5,0.5-8.3c0.5-8.3,1.1-16.9,1.6-25.5
		c0.7-12.1,1.5-24.2,2.2-36.2c0.1-1.7,0.2-3.4,0.3-5.1c0.2-3.4,0.4-6.8,0.6-10.1c0.1-1.7,0.2-3.3,0.3-5c0.2-3.3,0.4-6.6,0.5-9.8
		c0.3-4.9,0.5-9.6,0.8-14.3C685.6,478.3,685.7,475.3,685.9,472.3z"/>
	<path class="st0" d="M648.8,352.9c-0.6,0.2-1.2,0.4-1.7,0.6c-0.1,0-0.3,0.1-0.4,0.1c0.1,0,0.3,0.1,0.4,0.1c0.3,0.1,0.7,0.2,1,0.3
		c0.2,0.1,0.4,0.1,0.7,0.2l35.1,10.9l8.2,2.5l17.8,5.5l18.1,5.6l194.4,60.1c18.6,5.8,50.2,5.8,68.8,0l212.5-65.7l45.1-13.9l16.1-5
		c0.8-0.2,1.5-0.5,2.1-0.7c-0.6-0.2-1.3-0.5-2.1-0.7l-15.4-4.8l-246.8-76.3l-11.5-3.6c-14-4.3-35.4-5.4-53-3.2
		c-5.8,0.7-11.2,1.8-15.8,3.2l-73.7,22.8l-196.1,60.6L648.8,352.9z M921.6,320.7c10-5.5,23.5-8.9,38.4-8.9
		c16.8,0,31.9,4.3,42.1,11.1c8.4,5.6,13.5,12.9,13.5,20.9c0,17.7-24.9,32-55.6,32s-55.6-14.3-55.6-32
		C904.5,334.7,911.1,326.5,921.6,320.7z"/>
</g>
</svg>
